<?xml version="1.0" encoding="utf-8"?>
<!-- Generator: Adobe Illustrator 19.1.0, SVG Export Plug-In . SVG Version: 6.00 Build 0)  -->
<svg version="1.1" id="Layer_1" xmlns="http://www.w3.org/2000/svg" xmlns:xlink="http://www.w3.org/1999/xlink" x="0px" y="0px"
	 viewBox="-492.3 276.6 31.3 40.4" style="enable-background:new -492.3 276.6 31.3 40.4;" xml:space="preserve">
<style type="text/css">
	.st0{fill:#4C685C;}
</style>
<g>
	<path class="st0" d="M-471.8,305l3.1,3.1c1,1,0.7,2.8-0.2,3.7l-4.4,4.5c-1.7,1.7-3.9-0.6-2.3-2.3l2.8-2.8l-2.7-2.7L-471.8,305z
		 M-481.5,305L-481.5,305l-3.1,3.1c-1,1-0.7,2.8,0.2,3.7l4.4,4.5c1.7,1.7,3.9-0.6,2.3-2.3l-2.8-2.7l2.7-2.7L-481.5,305
		 M-476.6,293.4c2.6,0,4.6-2.1,4.6-4.6s-2-4.5-4.6-4.5c-2.5,0-4.5,2-4.5,4.5S-479.1,293.4-476.6,293.4L-476.6,293.4z M-471.6,303.2
		l0.1-3.1l3.8,3.5c0.3,0.3,0.7,0.4,1.1,0.4s0.9-0.2,1.2-0.5c0.6-0.6,0.6-1.7-0.1-2.3c0,0-4.3-4.7-4.9-5.2c-1.1-1-2.8-1.6-5.6-1.6h-1
		c-2.7,0-4.4,0.6-5.6,1.6c-0.6,0.6-4.9,5.3-4.9,5.3c-0.7,0.6-0.7,1.6-0.1,2.3c0.3,0.3,0.7,0.5,1.2,0.5c0.4,0,0.8-0.1,1.1-0.4
		l3.8-3.5l0.1,3.1L-471.6,303.2L-471.6,303.2z"/>
</g>
</svg>
