<!-- Generator: Adobe Illustrator 19.1.0, SVG Export Plug-In  -->
<svg version="1.1"
	 xmlns="http://www.w3.org/2000/svg" xmlns:xlink="http://www.w3.org/1999/xlink" xmlns:a="http://ns.adobe.com/AdobeSVGViewerExtensions/3.0/"
	 x="0px" y="0px" width="570.8px" height="80px" viewBox="0 0 570.8 80"
	 style="overflow:scroll;enable-background:new 0 0 570.8 80;" xml:space="preserve">
<style type="text/css">
	.st0{fill:none;stroke:#B4C1BC;stroke-width:4;stroke-linecap:round;stroke-miterlimit:10;}
	.st1{fill:none;stroke:#68877B;stroke-width:4;stroke-linecap:round;stroke-miterlimit:10;}
</style>
<defs>
</defs>
<g>
	<g>
		<g>
			<line class="st0" x1="49.2" y1="73.1" x2="2" y2="76.8"/>
			<line class="st0" x1="96.5" y1="68" x2="49.2" y2="73.1"/>
			<line class="st0" x1="143.7" y1="59.2" x2="96.5" y2="68"/>
			<line class="st0" x1="190.9" y1="46.6" x2="143.7" y2="59.2"/>
			<line class="st0" x1="238.2" y1="36.2" x2="190.9" y2="46.6"/>
			<line class="st0" x1="285.4" y1="40.5" x2="238.2" y2="36.2"/>
			<line class="st0" x1="332.6" y1="39.6" x2="285.4" y2="40.5"/>
			<line class="st0" x1="379.8" y1="34.8" x2="332.6" y2="39.6"/>
			<line class="st0" x1="427.1" y1="29.9" x2="379.8" y2="34.8"/>
			<line class="st0" x1="474.3" y1="23.5" x2="427.1" y2="29.9"/>
			<line class="st0" x1="521.5" y1="17.8" x2="474.3" y2="23.5"/>
			<line class="st0" x1="568.8" y1="11.6" x2="521.5" y2="17.8"/>
		</g>
	</g>
	<g>
		<g>
			<line class="st1" x1="49.2" y1="68.1" x2="2" y2="78"/>
			<line class="st1" x1="96.5" y1="49.7" x2="49.2" y2="68.1"/>
			<line class="st1" x1="143.7" y1="16.8" x2="96.5" y2="49.7"/>
			<line class="st1" x1="190.9" y1="2" x2="143.7" y2="16.8"/>
			<line class="st1" x1="238.2" y1="17.6" x2="190.9" y2="2"/>
			<line class="st1" x1="285.4" y1="55.8" x2="238.2" y2="17.6"/>
			<line class="st1" x1="332.6" y1="55.2" x2="285.4" y2="55.8"/>
			<line class="st1" x1="379.8" y1="48.4" x2="332.6" y2="55.2"/>
			<line class="st1" x1="427.1" y1="43" x2="379.8" y2="48.4"/>
			<line class="st1" x1="474.3" y1="34.4" x2="427.1" y2="43"/>
			<line class="st1" x1="521.5" y1="25.2" x2="474.3" y2="34.4"/>
			<line class="st1" x1="568.8" y1="15.3" x2="521.5" y2="25.2"/>
		</g>
	</g>
</g>
</svg>
