<!-- Generator: Adobe Illustrator 19.1.0, SVG Export Plug-In  -->
<svg version="1.1"
	 xmlns="http://www.w3.org/2000/svg" xmlns:xlink="http://www.w3.org/1999/xlink" xmlns:a="http://ns.adobe.com/AdobeSVGViewerExtensions/3.0/"
	 x="0px" y="0px" width="123.4px" height="179.9px" viewBox="0 0 123.4 179.9"
	 style="overflow:scroll;enable-background:new 0 0 123.4 179.9;" xml:space="preserve">
<style type="text/css">
	.st0{fill:#FFFFFF;}
</style>
<defs>
</defs>
<g>
	<path class="st0" d="M83.6,116.5H21.9c-7.8,0-14.2-6.4-14.2-14.2v-35c0-7.8,6.4-14.2,14.2-14.2h61.8c7.8,0,14.2,6.4,14.2,14.2v35
		C97.8,110.1,91.4,116.5,83.6,116.5z"/>
	<path class="st0" d="M24.4,6.2C10.9,6.2,0,17.1,0,30.6C0,44,10.9,54.9,24.4,54.9S48.7,44,48.7,30.6C48.7,17.1,37.8,6.2,24.4,6.2z
		 M24.4,41.1c-5.8,0-10.5-4.7-10.5-10.5c0-5.8,4.7-10.5,10.5-10.5s10.5,4.7,10.5,10.5C34.9,36.4,30.2,41.1,24.4,41.1z"/>
	<path class="st0" d="M75.5,0C59.8,0,47.1,12.7,47.1,28.4c0,15.7,12.7,28.4,28.4,28.4s28.4-12.7,28.4-28.4C103.8,12.7,91.1,0,75.5,0
		z M75.5,40c-6.4,0-11.6-5.2-11.6-11.6S69,16.7,75.5,16.7c6.4,0,11.6,5.2,11.6,11.6S81.9,40,75.5,40z"/>
	<path class="st0" d="M121.4,62.3l-14.8,14.3c-0.2,0.2-0.4,0.6-0.4,0.9v17.8c0,0.4,0.1,0.7,0.4,0.9l14.8,13.5c0.8,0.7,2,0.1,2-0.9
		V63.2C123.4,62.1,122.2,61.6,121.4,62.3z"/>
	<rect x="98.6" y="76.8" class="st0" width="7" height="19"/>
	<path class="st0" d="M55.5,179.9L55.5,179.9c-1.5,0-2.8-1.3-2.8-2.8v-64.5c0-1.5,1.3-2.8,2.8-2.8h0c1.5,0,2.8,1.3,2.8,2.8v64.5
		C58.3,178.6,57.1,179.9,55.5,179.9z"/>
	<path class="st0" d="M31.7,164.4L31.7,164.4c-1.5-0.3-2.5-1.8-2.1-3.3l19.2-47.9c0.3-1.5,1.8-2.5,3.3-2.1h0
		c1.5,0.3,2.5,1.8,2.1,3.3l-19.2,47.9C34.8,163.7,33.2,164.7,31.7,164.4z"/>
	<path class="st0" d="M80.7,161.2L80.7,161.2c-1.5,0.4-3-0.6-3.4-2.1l-21-46.2c-0.4-1.5,0.6-3,2.1-3.4l0,0c1.5-0.4,3,0.6,3.4,2.1
		l21,46.2C83.1,159.4,82.2,160.9,80.7,161.2z"/>
</g>
</svg>
