<!-- Generator: Adobe Illustrator 19.1.0, SVG Export Plug-In  -->
<svg version="1.1"
	 xmlns="http://www.w3.org/2000/svg" xmlns:xlink="http://www.w3.org/1999/xlink" xmlns:a="http://ns.adobe.com/AdobeSVGViewerExtensions/3.0/"
	 x="0px" y="0px" width="526.2px" height="359.3px" viewBox="0 0 526.2 359.3"
	 style="overflow:scroll;enable-background:new 0 0 526.2 359.3;" xml:space="preserve">
<style type="text/css">
	.st0{fill:none;stroke:#57897C;stroke-width:3;stroke-linecap:round;stroke-miterlimit:10;}
	.st1{fill:none;stroke:#C0CDC7;stroke-width:3;stroke-linecap:round;stroke-miterlimit:10;}
</style>
<defs>
</defs>
<g>
	<g>
		<g>
			<line class="st0" x1="23.3" y1="306.1" x2="1.5" y2="306.1"/>
			<line class="st0" x1="45.1" y1="307.6" x2="23.3" y2="306.1"/>
			<line class="st0" x1="66.9" y1="357.8" x2="45.1" y2="307.6"/>
			<line class="st0" x1="88.7" y1="357.3" x2="66.9" y2="357.8"/>
			<line class="st0" x1="110.5" y1="356.2" x2="88.7" y2="357.3"/>
			<line class="st0" x1="132.3" y1="356.2" x2="110.5" y2="356.2"/>
			<line class="st0" x1="154.1" y1="355.7" x2="132.3" y2="356.2"/>
			<line class="st0" x1="175.9" y1="355.1" x2="154.1" y2="355.7"/>
			<line class="st0" x1="197.7" y1="355.1" x2="175.9" y2="355.1"/>
			<line class="st0" x1="219.5" y1="355.1" x2="197.7" y2="355.1"/>
			<line class="st0" x1="241.3" y1="355.1" x2="219.5" y2="355.1"/>
			<line class="st0" x1="263.1" y1="354.6" x2="241.3" y2="355.1"/>
			<line class="st0" x1="284.9" y1="354.1" x2="263.1" y2="354.6"/>
			<line class="st0" x1="306.7" y1="353.6" x2="284.9" y2="354.1"/>
			<line class="st0" x1="328.5" y1="352" x2="306.7" y2="353.6"/>
			<line class="st0" x1="350.3" y1="350.9" x2="328.5" y2="352"/>
			<line class="st0" x1="372.1" y1="349.3" x2="350.3" y2="350.9"/>
			<line class="st0" x1="393.9" y1="348.8" x2="372.1" y2="349.3"/>
			<line class="st0" x1="415.7" y1="348.3" x2="393.9" y2="348.8"/>
			<line class="st0" x1="437.5" y1="347.8" x2="415.7" y2="348.3"/>
			<line class="st0" x1="459.3" y1="346.7" x2="437.5" y2="347.8"/>
			<line class="st0" x1="481.1" y1="345.6" x2="459.3" y2="346.7"/>
			<line class="st0" x1="502.9" y1="344.6" x2="481.1" y2="345.6"/>
			<line class="st0" x1="524.7" y1="343.5" x2="502.9" y2="344.6"/>
		</g>
	</g>
	<g>
		<g>
			<line class="st1" x1="23.3" y1="208.9" x2="1.5" y2="221.1"/>
			<line class="st1" x1="45.1" y1="191.5" x2="23.3" y2="208.9"/>
			<line class="st1" x1="66.9" y1="180.4" x2="45.1" y2="191.5"/>
			<line class="st1" x1="88.7" y1="156.7" x2="66.9" y2="180.4"/>
			<line class="st1" x1="110.5" y1="144" x2="88.7" y2="156.7"/>
			<line class="st1" x1="132.3" y1="132.9" x2="110.5" y2="144"/>
			<line class="st1" x1="154.1" y1="120.8" x2="132.3" y2="132.9"/>
			<line class="st1" x1="175.9" y1="116.6" x2="154.1" y2="120.8"/>
			<line class="st1" x1="197.7" y1="113.9" x2="175.9" y2="116.6"/>
			<line class="st1" x1="219.5" y1="144" x2="197.7" y2="113.9"/>
			<line class="st1" x1="241.3" y1="147.2" x2="219.5" y2="144"/>
			<line class="st1" x1="263.1" y1="129.8" x2="241.3" y2="147.2"/>
			<line class="st1" x1="284.9" y1="110.2" x2="263.1" y2="129.8"/>
			<line class="st1" x1="306.7" y1="98.1" x2="284.9" y2="110.2"/>
			<line class="st1" x1="328.5" y1="66.4" x2="306.7" y2="98.1"/>
			<line class="st1" x1="350.3" y1="82.3" x2="328.5" y2="66.4"/>
			<line class="st1" x1="372.1" y1="67.5" x2="350.3" y2="82.3"/>
			<line class="st1" x1="393.9" y1="70.6" x2="372.1" y2="67.5"/>
			<line class="st1" x1="415.7" y1="67" x2="393.9" y2="70.6"/>
			<line class="st1" x1="437.5" y1="55.9" x2="415.7" y2="67"/>
			<line class="st1" x1="459.3" y1="41.1" x2="437.5" y2="55.9"/>
			<line class="st1" x1="481.1" y1="26.8" x2="459.3" y2="41.1"/>
			<line class="st1" x1="502.9" y1="14.2" x2="481.1" y2="26.8"/>
			<line class="st1" x1="524.7" y1="1.5" x2="502.9" y2="14.2"/>
		</g>
	</g>
</g>
</svg>
