<?xml version="1.0" encoding="utf-8"?>
<!-- Generator: Adobe Illustrator 19.1.0, SVG Export Plug-In . SVG Version: 6.00 Build 0)  -->
<svg version="1.1" id="Layer_1" xmlns="http://www.w3.org/2000/svg" xmlns:xlink="http://www.w3.org/1999/xlink" x="0px" y="0px"
	 viewBox="-87 118.6 823.5 365.4" style="enable-background:new -87 118.6 823.5 365.4;" xml:space="preserve">
<style type="text/css">
	.st0{fill:#CA2027;stroke:#760000;stroke-width:5;stroke-miterlimit:10;}
</style>
<g>
	<path class="st0" d="M-71.6,339.4v125.5h27.1C-48.7,413.5-48.5,353.3-71.6,339.4z"/>
	<path class="st0" d="M-84.1,343.5V469H-57C-61.2,417.6-61,357.4-84.1,343.5z"/>
	<path class="st0" d="M-83.5,357.8v118.4H-64C-67,427.6-66.9,370.8-83.5,357.8z"/>
	<path class="st0" d="M-84.5,121.1H50C44.3,255.5-0.5,333.7-84.5,355.9V121.1z"/>
	<path class="st0" d="M34,121.1C29,255.5-10.5,333.7-84.5,355.9"/>
	<path class="st0" d="M13.3,121.1C9.1,255.5-23.5,333.7-84.5,355.9"/>
	<path class="st0" d="M-21.6,122.5c-2.7,134.4-23.6,212.6-62.9,234.8"/>
	<path class="st0" d="M-84.5,361.7v118.4h14.8C-72,431.6-71.9,374.8-84.5,361.7z"/>
</g>
<g>
	<path class="st0" d="M694,466.9h27.1V341.4C698,355.3,698.3,415.5,694,466.9z"/>
	<path class="st0" d="M733.6,344.9v125.5h-26.9C710.9,419,710.7,358.8,733.6,344.9z"/>
	<path class="st0" d="M733,359.2v118.4h-19.4C716.7,429,716.5,372.2,733,359.2z"/>
	<path class="st0" d="M734,122.5H600.5c5.7,134.4,50.2,212.6,133.5,234.8V122.5z"/>
	<path class="st0" d="M616.4,122.5c5,134.4,44.2,212.6,117.7,234.8"/>
	<path class="st0" d="M637,122.5c4.1,134.4,36.5,212.6,97.1,234.8"/>
	<path class="st0" d="M675.3,122.5c2.5,134.4,22.1,212.6,58.8,234.8"/>
	<path class="st0" d="M734,363.1v118.4h-14.7C721.6,433,721.5,376.2,734,363.1z"/>
</g>
</svg>
