<!-- Generator: Adobe Illustrator 19.1.0, SVG Export Plug-In  -->
<svg version="1.1"
	 xmlns="http://www.w3.org/2000/svg" xmlns:xlink="http://www.w3.org/1999/xlink" xmlns:a="http://ns.adobe.com/AdobeSVGViewerExtensions/3.0/"
	 x="0px" y="0px" width="832px" height="2.7px" viewBox="0 0 832 2.7" style="overflow:scroll;enable-background:new 0 0 832 2.7;"
	 xml:space="preserve">
<style type="text/css">
	.st0{fill:#4D685C;}
</style>
<defs>
</defs>
<g>
	<g>
		<rect y="0.3" class="st0" width="26.4" height="0"/>
		<rect x="36.6" y="0.3" class="st0" width="26.4" height="0"/>
		<rect x="73.2" class="st0" width="26.4" height="0.3"/>
		<rect x="109.9" y="0.3" class="st0" width="26.4" height="0.3"/>
		<rect x="146.5" y="0.3" class="st0" width="26.4" height="0.3"/>
		<rect x="183.1" y="0.3" class="st0" width="26.4" height="1"/>
		<rect x="219.7" y="0.7" class="st0" width="26.4" height="1"/>
		<rect x="256.3" y="0.3" class="st0" width="26.4" height="1"/>
		<rect x="293" y="0.3" class="st0" width="26.4" height="1"/>
		<rect x="329.6" y="0.3" class="st0" width="26.4" height="1.4"/>
		<rect x="366.2" y="0.3" class="st0" width="26.4" height="1.7"/>
		<rect x="402.8" y="0.3" class="st0" width="26.4" height="1.4"/>
		<rect x="439.4" y="0.3" class="st0" width="26.4" height="1"/>
		<rect x="476.1" y="0.3" class="st0" width="26.4" height="1"/>
		<rect x="512.7" y="0.3" class="st0" width="26.4" height="1"/>
		<rect x="549.3" y="0.7" class="st0" width="26.4" height="1"/>
		<rect x="585.9" class="st0" width="26.4" height="1.4"/>
		<rect x="622.5" y="0.7" class="st0" width="26.4" height="1.4"/>
		<rect x="659.1" y="0.7" class="st0" width="26.4" height="2"/>
		<rect x="695.8" y="0.3" class="st0" width="26.4" height="1.7"/>
		<rect x="732.4" y="0.3" class="st0" width="26.4" height="2"/>
		<rect x="769" y="0.3" class="st0" width="26.4" height="2"/>
		<rect x="805.6" y="0.7" class="st0" width="26.4" height="1.7"/>
	</g>
</g>
</svg>
