<?xml version="1.0" encoding="utf-8"?>
<!-- Generator: Adobe Illustrator 19.1.0, SVG Export Plug-In . SVG Version: 6.00 Build 0)  -->
<svg version="1.1" id="Layer_1" xmlns="http://www.w3.org/2000/svg" xmlns:xlink="http://www.w3.org/1999/xlink" x="0px" y="0px"
	 viewBox="-355 159.4 287.6 282.6" style="enable-background:new -355 159.4 287.6 282.6;" xml:space="preserve">
<style type="text/css">
	.st0{fill:none;}
	.st1{fill:#57897C;}
	.st2{fill:#CA0019;}
	.st3{fill:#FFFFFF;}
	.st4{fill:#312D2A;}
	.st5{fill:#FDFDFE;}
</style>
<g>
	<g>
		<g>
			<g>
				<path class="st0" d="M-208.7,300.7l-114.3-83c45.9-63.2,134.2-77.2,197.4-31.3s77.1,134.2,31.3,197.4
					c-27.2,37.4-68.1,58.3-114.3,58.3L-208.7,300.7L-208.7,300.7z"/>
			</g>
		</g>
		<g>
			<g>
				<path class="st0" d="M-208.7,300.7V442c-78,0-141.3-63.2-141.3-141.3c0-31.8,8.3-57.4,27-83.1L-208.7,300.7z"/>
			</g>
		</g>
	</g>
</g>
<g>
	<g>
		<g>
			<g>
				<path class="st0" d="M-208.7,300.7l85,112.9c62.3-47,74.8-135.6,27.8-197.9s-135.5-74.8-197.8-27.8s-74.8,135.5-27.8,197.9
					c27.6,36.6,67,56.3,112.9,56.3L-208.7,300.7L-208.7,300.7z"/>
			</g>
		</g>
		<g>
			<g>
				<path class="st1" d="M-203.7,300.7V442c32.1,0,59.4-9.2,85-28.5L-203.7,300.7z"/>
			</g>
		</g>
	</g>
</g>
<g>
	<g>
		<g>
			<g>
				<path class="st0" d="M-218.7,300.7l-119.8-74.9c41.3-66.1,128.5-86.3,194.7-44.9s86.3,128.5,45,194.7
					c-26.3,42.2-70.1,66.4-119.8,66.4V300.7H-218.7z"/>
			</g>
		</g>
		<g>
			<g>
				<path class="st2" d="M-213.7,300.7V442c-78,0-141.3-63.2-141.3-141.3c0-28.3,6.5-50.9,21.5-74.9L-213.7,300.7z"/>
			</g>
		</g>
	</g>
</g>
<circle class="st3" cx="-208.8" cy="299.2" r="102.9"/>
<g>
	<g>
		<g>
			<path class="st4" d="M-237.3,262.3h-24.2c-2,0-3.7,1.3-4.3,3.1c-3.7,11.3-9.9,32.6-13.5,45.1c-2.4,7,7.6,9.7,9.6,3.2l8.4-29.8
				l0,0l-0.2,77.8c0,2,1.6,3.7,3.7,3.7h8.3c1.9,0,3.4-1.5,3.4-3.4v-45.7c0-1.3,1-2.3,2.3-2.3l0,0c1.3,0,2.3,1,2.3,2.3v46.1
				c0,1.7,1.3,3,3,3h7.7c1.8,0,3.3-1.5,3.3-3.3l-0.2-78.2c0,0,0,0,0.1,0l7.9,29.9c2.2,5.4,11.2,2.5,9.1-3.3l-12.1-44.8
				c-0.7-2.1-2.9-3.4-5.1-3.4H-237.3z"/>
			<circle class="st4" cx="-244.8" cy="244.7" r="12.4"/>
			<path class="st5" d="M-248.5,260.6l-2.2,1.6c-0.4,0.3-0.4,0.9,0,1.2l4.5,3.1c0.2,0.2,0.3,0.4,0.3,0.6l-2.2,26.8
				c0,0.2,0,0.3,0.1,0.5l3.3,4.4c0.3,0.4,1.1,0.5,1.4,0l3.4-4.2c0.1-0.1,0.2-0.3,0.2-0.5l-2.6-26.9c0-0.2,0.1-0.5,0.3-0.6l4.4-3.2
				c0.4-0.3,0.4-0.9-0.1-1.2l-2.8-1.6c-0.1-0.1-0.3-0.1-0.5-0.1h-7C-248.2,260.4-248.4,260.5-248.5,260.6z"/>
		</g>
	</g>
	<g>
		<g>
			<g>
				<path class="st4" d="M-169.7,266.7h-23.2c-1.9,0-3.6,1.2-4.1,3c-3.5,10.8-7.5,25.2-11,37.1c-2.3,6.7,7.2,9.3,9.2,3.1l8.1-29.4
					l0.7,22.9l-8.3,39.1h9.9v19.2c0,1.9,1.6,3.5,3.5,3.5h3.4c1.8,0,3.2-1.4,3.2-3.2v-19.5h4.4v19.9c0,1.6,1.3,2.9,2.9,2.9h3.9
					c1.8,0,3.2-1.4,3.2-3.2l-0.1-19.6h8l-7.4-39.1c0,0,1.3-23.1,1.3-23l8,30.3c2.1,5.2,10.7,2.4,8.8-3.1l-10.4-37.7
					c-0.6-2-2.7-3.2-4.9-3.2H-169.7z"/>
				<circle class="st4" cx="-176.8" cy="249.9" r="11.9"/>
				<path class="st5" d="M-180.4,265.1l-3.8,2.6c-0.4,0.3-0.4,0.8,0,1.1l2.6,0.3c0.2,0.1,0.3,0.4,0.3,0.6l-3.7,2.4
					c0,0.2,0,0.3,0.1,0.4l7.9,4.8c0.3,0.4,1,0.4,1.4,0l7.1-4.7c0.1-0.1,0.2-0.3,0.1-0.5l-4.3-2.5c0-0.2,0.1-0.5,0.3-0.6l3.3-0.3
					c0.4-0.3,0.4-0.9-0.1-1.1l-3.6-2.6c-0.1-0.1-0.3-0.1-0.5-0.1h-6.7C-180.1,265-180.3,265-180.4,265.1z"/>
			</g>
			<polygon class="st4" points="-191.3,261.7 -188.4,247.4 -165.2,247.7 -161.2,261.7 			"/>
		</g>
		<path class="st5" d="M-181.2,261.7c-2.5-2.6-1.9-10.4-1.9-10.4s6.8,0.3,10.4-6.6c0,0-0.2,3.3,3,5.8c0,0,0.9,8.9-2.2,11.2
			C-175,264-178.8,264.3-181.2,261.7z"/>
	</g>
</g>
</svg>
