<?xml version="1.0" encoding="utf-8"?>
<!-- Generator: Adobe Illustrator 19.1.0, SVG Export Plug-In . SVG Version: 6.00 Build 0)  -->
<svg version="1.1" id="Layer_1" xmlns="http://www.w3.org/2000/svg" xmlns:xlink="http://www.w3.org/1999/xlink" x="0px" y="0px"
	 viewBox="0 0 1000 62.9" style="enable-background:new 0 0 1000 62.9;" xml:space="preserve">
<style type="text/css">
	.st0{fill:#2A4138;}
</style>
<g>
	<g>
		<g>
			<path class="st0" d="M78.6,21.4C82.2,35,78.3,49.8,78.3,50c0-0.1,0.1-1.1,0.1-1.1c1.1-9.1-1.6-14.3-1.6-14.3
				c1.9,7.9-1.6,12.4-3.6,14.3c-0.8,0.7-1.3,1.3-1.3,1.3c-0.1,0-0.1-0.9-0.2-1.3c-1.4-11.2,5.1-25.4,5.1-25.4
				c-4.1,3.6-6.6,15.5-7.7,22c1.3-11-0.8-16-0.8-16c0.8,9.2-1.3,16.7-2.2,19.4c-0.2,0.7-0.4,1.3-0.4,1.3c-0.1,0-0.2-0.9-0.3-1.3
				c-1.5-6.6-0.8-23-0.8-23c-1.5,3.8-2.4,11.7-2.9,17.4c0-9.7-3-15.5-3-15.5c3.2,12.4-1.1,20.4-1.1,20.4c0.9-11.1-2.1-13.8-2.1-13.8
				C57.6,39,52.7,48,52.7,48c-1.9-11.9,2.8-28.8,2.8-28.8c-2.8,4-4.5,14-5.4,21.3c-0.1-9.2-4-12.8-4-12.8c3.9,9.4,0,20.9,0,20.9
				c0.4-11.1-2.3-16.4-2.3-16.4c0.3,4.9-3.6,13.6-5,16.6c-0.3,0.7-0.5,1.3-0.5,1.3c-0.1,0-0.2-0.9-0.2-1.3
				c-1.4-8.2,1.5-25.8,1.5-25.8c-3.4,2.6-5.4,21.2-5.9,25.8c-0.1,0.7-0.1,1.3-0.1,1.3c0,0,0-1-0.1-1.3C33,41.7,33,33.7,33,33.7
				c-1.4,1.5-2.5,16.5-2.5,16.5l0-1.3c0.9-18.6-2.4-24.7-2.4-24.7c1.6,9.1-1.3,21.2-2.3,24.7c-0.2,0.7-0.3,1.3-0.3,1.3
				c-0.2,0-0.4-0.9-0.6-1.3c-2.2-5.5,0.6-18.1,0.6-18.1c-2.6,3.3-3.5,9.1-3.7,13.5c0.2-22.4-1.6-29.7-1.6-29.7
				c1.3,8.1-1.5,29.4-2.2,34.3c0,0.3,0,0.3,0,0H18c0.5-7.5-2-21.1-2-21.1c0,5.9-1.4,17.6-1.8,21.1c-0.1,0.7-0.1,1.3-0.1,1.3
				c-0.2-0.4-0.3-0.9-0.5-1.3c-3.2-9.6,0.5-25.8,0.5-25.8c-4.9,6.6-5.5,21.7-5.5,25.8c0,0.3,0,0.4,0,0c0,0,0.3,1.6-0.4,0
				c-2.4-5.1,0.6-21.1,0.6-21.1c-2.9,3.1-4.1,17.1-4.4,21.1c0,0.7-0.1,1.3-0.1,1.3c-0.1,0-0.2-1-0.2-1.3C1.7,35.3,8.6,20.3,8.6,20.3
				c-6.8,4.3-8.6,30-8.6,30v11.7h83.3v-13l0,0C83.3,25.1,78.6,21.4,78.6,21.4z"/>
		</g>
	</g>
	<g>
		<g>
			<path class="st0" d="M162,21.4c3.5,13.6-0.3,28.4-0.4,28.6c0-0.1,0.1-1.1,0.1-1.1c1.1-9.1-1.6-14.3-1.6-14.3
				c1.9,7.9-1.6,12.4-3.6,14.3c-0.8,0.7-1.3,1.3-1.3,1.3c-0.1,0-0.1-0.9-0.2-1.3c-1.4-11.2,5.1-25.4,5.1-25.4
				c-4.1,3.6-6.6,15.5-7.7,22c1.3-11-0.8-16-0.8-16c0.8,9.2-1.3,16.7-2.2,19.4c-0.2,0.7-0.4,1.3-0.4,1.3c-0.1,0-0.2-0.9-0.3-1.3
				c-1.5-6.6-0.8-23-0.8-23c-1.5,3.8-2.4,11.7-2.9,17.4c0-9.7-3-15.5-3-15.5c3.2,12.4-1.1,20.4-1.1,20.4c0.9-11.1-2.1-13.8-2.1-13.8
				C141,39,136,48,136,48c-1.9-11.9,2.8-28.8,2.8-28.8c-2.8,4-4.5,14-5.4,21.3c-0.1-9.2-4-12.8-4-12.8c3.9,9.4,0,20.9,0,20.9
				c0.4-11.1-2.3-16.4-2.3-16.4c0.3,4.9-3.6,13.6-5,16.6c-0.3,0.7-0.5,1.3-0.5,1.3c-0.1,0-0.2-0.9-0.2-1.3
				c-1.4-8.2,1.5-25.8,1.5-25.8c-3.4,2.6-5.4,21.2-5.9,25.8c-0.1,0.7-0.1,1.3-0.1,1.3c0,0,0-1-0.1-1.3c-0.4-7.2-0.4-15.2-0.4-15.2
				c-1.4,1.5-2.5,16.5-2.5,16.5l0-1.3c0.9-18.6-2.4-24.7-2.4-24.7c1.6,9.1-1.3,21.2-2.3,24.7c-0.2,0.7-0.3,1.3-0.3,1.3
				c-0.2,0-0.4-0.9-0.6-1.3c-2.2-5.5,0.6-18.1,0.6-18.1c-2.6,3.3-3.5,9.1-3.7,13.5c0.2-22.4-1.6-29.7-1.6-29.7
				c1.3,8.1-1.5,29.4-2.2,34.3c0,0.3,0,0.3,0,0h-0.1c0.5-7.5-2-21.1-2-21.1c0,5.9-1.4,17.6-1.8,21.1c-0.1,0.7-0.1,1.3-0.1,1.3
				c-0.2-0.4-0.3-0.9-0.5-1.3c-3.2-9.6,0.5-25.8,0.5-25.8c-4.9,6.6-5.5,21.7-5.5,25.8c0,0.3,0,0.4,0,0c0,0,0.3,1.6-0.4,0
				C89.1,43.8,92,27.8,92,27.8c-2.9,3.1-4.1,17.1-4.4,21.1c0,0.7-0.1,1.3-0.1,1.3c-0.1,0-0.2-1-0.2-1.3c-2.3-13.6,4.6-28.6,4.6-28.6
				c-6.8,4.3-8.6,30-8.6,30v11.7h83.3v-13l0,0C166.7,25.1,162,21.4,162,21.4z"/>
		</g>
	</g>
	<g>
		<g>
			<path class="st0" d="M245.3,21.4c3.5,13.6-0.3,28.4-0.4,28.6c0-0.1,0.1-1.1,0.1-1.1c1.1-9.1-1.6-14.3-1.6-14.3
				c1.9,7.9-1.6,12.4-3.6,14.3c-0.8,0.7-1.3,1.3-1.3,1.3c-0.1,0-0.1-0.9-0.2-1.3c-1.4-11.2,5.1-25.4,5.1-25.4
				c-4.1,3.6-6.6,15.5-7.7,22c1.3-11-0.8-16-0.8-16c0.8,9.2-1.3,16.7-2.2,19.4c-0.2,0.7-0.4,1.3-0.4,1.3c-0.1,0-0.2-0.9-0.3-1.3
				c-1.5-6.6-0.8-23-0.8-23c-1.5,3.8-2.4,11.7-2.9,17.4c0-9.7-3-15.5-3-15.5c3.2,12.4-1.1,20.4-1.1,20.4c0.9-11.1-2.1-13.8-2.1-13.8
				c2.2,4.6-2.8,13.6-2.8,13.6c-1.9-11.9,2.8-28.8,2.8-28.8c-2.8,4-4.5,14-5.4,21.3c-0.1-9.2-4-12.8-4-12.8c3.9,9.4,0,20.9,0,20.9
				c0.4-11.1-2.3-16.4-2.3-16.4c0.3,4.9-3.6,13.6-5,16.6c-0.3,0.7-0.5,1.3-0.5,1.3c-0.1,0-0.2-0.9-0.2-1.3
				c-1.4-8.2,1.5-25.8,1.5-25.8c-3.4,2.6-5.4,21.2-5.9,25.8c-0.1,0.7-0.1,1.3-0.1,1.3c0,0,0-1-0.1-1.3c-0.4-7.2-0.4-15.2-0.4-15.2
				c-1.4,1.5-2.5,16.5-2.5,16.5l0-1.3c0.9-18.6-2.4-24.7-2.4-24.7c1.6,9.1-1.3,21.2-2.3,24.7c-0.2,0.7-0.3,1.3-0.3,1.3
				c-0.2,0-0.4-0.9-0.6-1.3c-2.2-5.5,0.6-18.1,0.6-18.1c-2.6,3.3-3.5,9.1-3.7,13.5c0.2-22.4-1.6-29.7-1.6-29.7
				c1.3,8.1-1.5,29.4-2.2,34.3c0,0.3,0,0.3,0,0h-0.1c0.5-7.5-2-21.1-2-21.1c0,5.9-1.4,17.6-1.8,21.1c-0.1,0.7-0.1,1.3-0.1,1.3
				c-0.2-0.4-0.3-0.9-0.5-1.3c-3.2-9.6,0.5-25.8,0.5-25.8c-4.9,6.6-5.5,21.7-5.5,25.8c0,0.3,0,0.4,0,0c0,0,0.3,1.6-0.4,0
				c-2.4-5.1,0.6-21.1,0.6-21.1c-2.9,3.1-4.1,17.1-4.4,21.1c0,0.7-0.1,1.3-0.1,1.3c-0.1,0-0.2-1-0.2-1.3
				c-2.3-13.6,4.6-28.6,4.6-28.6c-6.8,4.3-8.6,30-8.6,30v11.7H250v-13l0,0C250,25.1,245.3,21.4,245.3,21.4z"/>
		</g>
	</g>
	<g>
		<g>
			<path class="st0" d="M328.6,21.4c3.5,13.6-0.3,28.4-0.4,28.6c0-0.1,0.1-1.1,0.1-1.1c1.1-9.1-1.6-14.3-1.6-14.3
				c1.9,7.9-1.6,12.4-3.6,14.3c-0.8,0.7-1.3,1.3-1.3,1.3c-0.1,0-0.1-0.9-0.2-1.3c-1.4-11.2,5.1-25.4,5.1-25.4
				c-4.1,3.6-6.6,15.5-7.7,22c1.3-11-0.8-16-0.8-16c0.8,9.2-1.3,16.7-2.2,19.4c-0.2,0.7-0.4,1.3-0.4,1.3c-0.1,0-0.2-0.9-0.3-1.3
				c-1.5-6.6-0.8-23-0.8-23c-1.5,3.8-2.4,11.7-2.9,17.4c0-9.7-3-15.5-3-15.5c3.2,12.4-1.1,20.4-1.1,20.4c0.9-11.1-2.1-13.8-2.1-13.8
				c2.2,4.6-2.8,13.6-2.8,13.6c-1.9-11.9,2.8-28.8,2.8-28.8c-2.8,4-4.5,14-5.4,21.3c-0.1-9.2-4-12.8-4-12.8c3.9,9.4,0,20.9,0,20.9
				c0.4-11.1-2.3-16.4-2.3-16.4c0.3,4.9-3.6,13.6-5,16.6c-0.3,0.7-0.5,1.3-0.5,1.3c-0.1,0-0.2-0.9-0.2-1.3
				c-1.4-8.2,1.5-25.8,1.5-25.8c-3.4,2.6-5.4,21.2-5.9,25.8c-0.1,0.7-0.1,1.3-0.1,1.3c0,0,0-1-0.1-1.3c-0.4-7.2-0.4-15.2-0.4-15.2
				c-1.4,1.5-2.5,16.5-2.5,16.5l0-1.3c0.9-18.6-2.4-24.7-2.4-24.7c1.6,9.1-1.3,21.2-2.3,24.7c-0.2,0.7-0.3,1.3-0.3,1.3
				c-0.2,0-0.4-0.9-0.6-1.3c-2.2-5.5,0.6-18.1,0.6-18.1c-2.6,3.3-3.5,9.1-3.7,13.5c0.2-22.4-1.6-29.7-1.6-29.7
				c1.3,8.1-1.5,29.4-2.2,34.3c0,0.3,0,0.3,0,0H268c0.5-7.5-2-21.1-2-21.1c0,5.9-1.4,17.6-1.8,21.1c-0.1,0.7-0.1,1.3-0.1,1.3
				c-0.2-0.4-0.3-0.9-0.5-1.3c-3.2-9.6,0.5-25.8,0.5-25.8c-4.9,6.6-5.5,21.7-5.5,25.8c0,0.3,0,0.4,0,0c0,0,0.3,1.6-0.4,0
				c-2.4-5.1,0.6-21.1,0.6-21.1c-2.9,3.1-4.1,17.1-4.4,21.1c0,0.7-0.1,1.3-0.1,1.3c-0.1,0-0.2-1-0.2-1.3
				c-2.3-13.6,4.6-28.6,4.6-28.6c-6.8,4.3-8.6,30-8.6,30v11.7h83.3v-13l0,0C333.3,25.1,328.6,21.4,328.6,21.4z"/>
		</g>
	</g>
	<g>
		<g>
			<path class="st0" d="M412,21.4c3.5,13.6-0.3,28.4-0.4,28.6c0-0.1,0.1-1.1,0.1-1.1c1.1-9.1-1.6-14.3-1.6-14.3
				c1.9,7.9-1.6,12.4-3.6,14.3c-0.8,0.7-1.3,1.3-1.3,1.3c-0.1,0-0.1-0.9-0.2-1.3c-1.4-11.2,5.1-25.4,5.1-25.4
				c-4.1,3.6-6.6,15.5-7.7,22c1.3-11-0.8-16-0.8-16c0.8,9.2-1.3,16.7-2.2,19.4c-0.2,0.7-0.4,1.3-0.4,1.3c-0.1,0-0.2-0.9-0.3-1.3
				c-1.5-6.6-0.8-23-0.8-23c-1.5,3.8-2.4,11.7-2.9,17.4c0-9.7-3-15.5-3-15.5c3.2,12.4-1.1,20.4-1.1,20.4c0.9-11.1-2.1-13.8-2.1-13.8
				C391,39,386,48,386,48c-1.9-11.9,2.8-28.8,2.8-28.8c-2.8,4-4.5,14-5.4,21.3c-0.1-9.2-4-12.8-4-12.8c3.9,9.4,0,20.9,0,20.9
				c0.4-11.1-2.3-16.4-2.3-16.4c0.3,4.9-3.6,13.6-5,16.6c-0.3,0.7-0.5,1.3-0.5,1.3c-0.1,0-0.2-0.9-0.2-1.3
				c-1.4-8.2,1.5-25.8,1.5-25.8c-3.4,2.6-5.4,21.2-5.9,25.8c-0.1,0.7-0.1,1.3-0.1,1.3c0,0,0-1-0.1-1.3c-0.4-7.2-0.4-15.2-0.4-15.2
				c-1.4,1.5-2.5,16.5-2.5,16.5l0-1.3c0.9-18.6-2.4-24.7-2.4-24.7c1.6,9.1-1.3,21.2-2.3,24.7c-0.2,0.7-0.3,1.3-0.3,1.3
				c-0.2,0-0.4-0.9-0.6-1.3c-2.2-5.5,0.6-18.1,0.6-18.1c-2.6,3.3-3.5,9.1-3.7,13.5c0.2-22.4-1.6-29.7-1.6-29.7
				c1.3,8.1-1.5,29.4-2.2,34.3c0,0.3,0,0.3,0,0h-0.1c0.5-7.5-2-21.1-2-21.1c0,5.9-1.4,17.6-1.8,21.1c-0.1,0.7-0.1,1.3-0.1,1.3
				c-0.2-0.4-0.3-0.9-0.5-1.3c-3.2-9.6,0.5-25.8,0.5-25.8c-4.9,6.6-5.5,21.7-5.5,25.8c0,0.3,0,0.4,0,0c0,0,0.3,1.6-0.4,0
				c-2.4-5.1,0.6-21.1,0.6-21.1c-2.9,3.1-4.1,17.1-4.4,21.1c0,0.7-0.1,1.3-0.1,1.3c-0.1,0-0.2-1-0.2-1.3
				c-2.3-13.6,4.6-28.6,4.6-28.6c-6.8,4.3-8.6,30-8.6,30v11.7h83.3v-13l0,0C416.7,25.1,412,21.4,412,21.4z"/>
		</g>
	</g>
	<g>
		<g>
			<path class="st0" d="M495.3,21.4c3.5,13.6-0.3,28.4-0.4,28.6c0-0.1,0.1-1.1,0.1-1.1c1.1-9.1-1.6-14.3-1.6-14.3
				c1.9,7.9-1.6,12.4-3.6,14.3c-0.8,0.7-1.3,1.3-1.3,1.3c-0.1,0-0.1-0.9-0.2-1.3c-1.4-11.2,5.1-25.4,5.1-25.4
				c-4.1,3.6-6.6,15.5-7.7,22c1.3-11-0.8-16-0.8-16c0.8,9.2-1.3,16.7-2.2,19.4c-0.2,0.7-0.4,1.3-0.4,1.3c-0.1,0-0.2-0.9-0.3-1.3
				c-1.5-6.6-0.8-23-0.8-23c-1.5,3.8-2.4,11.7-2.9,17.4c0-9.7-3-15.5-3-15.5c3.2,12.4-1.1,20.4-1.1,20.4c0.9-11.1-2.1-13.8-2.1-13.8
				c2.2,4.6-2.8,13.6-2.8,13.6c-1.9-11.9,2.8-28.8,2.8-28.8c-2.8,4-4.5,14-5.4,21.3c-0.1-9.2-4-12.8-4-12.8c3.9,9.4,0,20.9,0,20.9
				c0.4-11.1-2.3-16.4-2.3-16.4c0.3,4.9-3.6,13.6-5,16.6c-0.3,0.7-0.5,1.3-0.5,1.3c-0.1,0-0.2-0.9-0.2-1.3
				c-1.4-8.2,1.5-25.8,1.5-25.8c-3.4,2.6-5.4,21.2-5.9,25.8c-0.1,0.7-0.1,1.3-0.1,1.3c0,0,0-1-0.1-1.3c-0.4-7.2-0.4-15.2-0.4-15.2
				c-1.4,1.5-2.5,16.5-2.5,16.5l0-1.3c0.9-18.6-2.4-24.7-2.4-24.7c1.6,9.1-1.3,21.2-2.3,24.7c-0.2,0.7-0.3,1.3-0.3,1.3
				c-0.2,0-0.4-0.9-0.6-1.3c-2.2-5.5,0.6-18.1,0.6-18.1c-2.6,3.3-3.5,9.1-3.7,13.5c0.2-22.4-1.6-29.7-1.6-29.7
				c1.3,8.1-1.5,29.4-2.2,34.3c0,0.3,0,0.3,0,0h-0.1c0.5-7.5-2-21.1-2-21.1c0,5.9-1.4,17.6-1.8,21.1c-0.1,0.7-0.1,1.3-0.1,1.3
				c-0.2-0.4-0.3-0.9-0.5-1.3c-3.2-9.6,0.5-25.8,0.5-25.8c-4.9,6.6-5.5,21.7-5.5,25.8c0,0.3,0,0.4,0,0c0,0,0.3,1.6-0.4,0
				c-2.4-5.1,0.6-21.1,0.6-21.1c-2.9,3.1-4.1,17.1-4.4,21.1c0,0.7-0.1,1.3-0.1,1.3c-0.1,0-0.2-1-0.2-1.3
				c-2.3-13.6,4.6-28.6,4.6-28.6c-6.8,4.3-8.6,30-8.6,30v11.7H500v-13l0,0C500,25.1,495.3,21.4,495.3,21.4z"/>
		</g>
	</g>
	<g>
		<g>
			<path class="st0" d="M578.6,21.4c3.5,13.6-0.3,28.4-0.4,28.6c0-0.1,0.1-1.1,0.1-1.1c1.1-9.1-1.6-14.3-1.6-14.3
				c1.9,7.9-1.6,12.4-3.6,14.3c-0.8,0.7-1.3,1.3-1.3,1.3c-0.1,0-0.1-0.9-0.2-1.3c-1.4-11.2,5.1-25.4,5.1-25.4
				c-4.1,3.6-6.6,15.5-7.7,22c1.3-11-0.8-16-0.8-16c0.8,9.2-1.3,16.7-2.2,19.4c-0.2,0.7-0.4,1.3-0.4,1.3c-0.1,0-0.2-0.9-0.3-1.3
				c-1.5-6.6-0.8-23-0.8-23c-1.5,3.8-2.4,11.7-2.9,17.4c0-9.7-3-15.5-3-15.5c3.2,12.4-1.1,20.4-1.1,20.4c0.9-11.1-2.1-13.8-2.1-13.8
				c2.2,4.6-2.8,13.6-2.8,13.6c-1.9-11.9,2.8-28.8,2.8-28.8c-2.8,4-4.5,14-5.4,21.3c-0.1-9.2-4-12.8-4-12.8c3.9,9.4,0,20.9,0,20.9
				c0.4-11.1-2.3-16.4-2.3-16.4c0.3,4.9-3.6,13.6-5,16.6c-0.3,0.7-0.5,1.3-0.5,1.3c-0.1,0-0.2-0.9-0.2-1.3
				c-1.4-8.2,1.5-25.8,1.5-25.8c-3.4,2.6-5.4,21.2-5.9,25.8c-0.1,0.7-0.1,1.3-0.1,1.3c0,0,0-1-0.1-1.3c-0.4-7.2-0.4-15.2-0.4-15.2
				c-1.4,1.5-2.5,16.5-2.5,16.5l0-1.3c0.9-18.6-2.4-24.7-2.4-24.7c1.6,9.1-1.3,21.2-2.3,24.7c-0.2,0.7-0.3,1.3-0.3,1.3
				c-0.2,0-0.4-0.9-0.6-1.3c-2.2-5.5,0.6-18.1,0.6-18.1c-2.6,3.3-3.5,9.1-3.7,13.5c0.2-22.4-1.6-29.7-1.6-29.7
				c1.3,8.1-1.5,29.4-2.2,34.3c0,0.3,0,0.3,0,0H518c0.5-7.5-2-21.1-2-21.1c0,5.9-1.4,17.6-1.8,21.1c-0.1,0.7-0.1,1.3-0.1,1.3
				c-0.2-0.4-0.3-0.9-0.5-1.3c-3.2-9.6,0.5-25.8,0.5-25.8c-4.9,6.6-5.5,21.7-5.5,25.8c0,0.3,0,0.4,0,0c0,0,0.3,1.6-0.4,0
				c-2.4-5.1,0.6-21.1,0.6-21.1c-2.9,3.1-4.1,17.1-4.4,21.1c0,0.7-0.1,1.3-0.1,1.3c-0.1,0-0.2-1-0.2-1.3
				c-2.3-13.6,4.6-28.6,4.6-28.6c-6.8,4.3-8.6,30-8.6,30v11.7h83.3v-13l0,0C583.3,25.1,578.6,21.4,578.6,21.4z"/>
		</g>
	</g>
	<g>
		<g>
			<path class="st0" d="M662,21.4c3.5,13.6-0.3,28.4-0.4,28.6c0-0.1,0.1-1.1,0.1-1.1c1.1-9.1-1.6-14.3-1.6-14.3
				c1.9,7.9-1.6,12.4-3.6,14.3c-0.8,0.7-1.3,1.3-1.3,1.3c-0.1,0-0.1-0.9-0.2-1.3c-1.4-11.2,5.1-25.4,5.1-25.4
				c-4.1,3.6-6.6,15.5-7.7,22c1.3-11-0.8-16-0.8-16c0.8,9.2-1.3,16.7-2.2,19.4c-0.2,0.7-0.4,1.3-0.4,1.3c-0.1,0-0.2-0.9-0.3-1.3
				c-1.5-6.6-0.8-23-0.8-23c-1.5,3.8-2.4,11.7-2.9,17.4c0-9.7-3-15.5-3-15.5c3.2,12.4-1.1,20.4-1.1,20.4c0.9-11.1-2.1-13.8-2.1-13.8
				C641,39,636,48,636,48c-1.9-11.9,2.8-28.8,2.8-28.8c-2.8,4-4.5,14-5.4,21.3c-0.1-9.2-4-12.8-4-12.8c3.9,9.4,0,20.9,0,20.9
				c0.4-11.1-2.3-16.4-2.3-16.4c0.3,4.9-3.6,13.6-5,16.6c-0.3,0.7-0.5,1.3-0.5,1.3c-0.1,0-0.2-0.9-0.2-1.3
				c-1.4-8.2,1.5-25.8,1.5-25.8c-3.4,2.6-5.4,21.2-5.9,25.8c-0.1,0.7-0.1,1.3-0.1,1.3c0,0,0-1-0.1-1.3c-0.4-7.2-0.4-15.2-0.4-15.2
				c-1.4,1.5-2.5,16.5-2.5,16.5l0-1.3c0.9-18.6-2.4-24.7-2.4-24.7c1.6,9.1-1.3,21.2-2.3,24.7c-0.2,0.7-0.3,1.3-0.3,1.3
				c-0.2,0-0.4-0.9-0.6-1.3c-2.2-5.5,0.6-18.1,0.6-18.1c-2.6,3.3-3.5,9.1-3.7,13.5c0.2-22.4-1.6-29.7-1.6-29.7
				c1.3,8.1-1.5,29.4-2.2,34.3c0,0.3,0,0.3,0,0h-0.1c0.5-7.5-2-21.1-2-21.1c0,5.9-1.4,17.6-1.8,21.1c-0.1,0.7-0.1,1.3-0.1,1.3
				c-0.2-0.4-0.3-0.9-0.5-1.3c-3.2-9.6,0.5-25.8,0.5-25.8c-4.9,6.6-5.5,21.7-5.5,25.8c0,0.3,0,0.4,0,0c0,0,0.3,1.6-0.4,0
				c-2.4-5.1,0.6-21.1,0.6-21.1c-2.9,3.1-4.1,17.1-4.4,21.1c0,0.7-0.1,1.3-0.1,1.3c-0.1,0-0.2-1-0.2-1.3
				c-2.3-13.6,4.6-28.6,4.6-28.6c-6.8,4.3-8.6,30-8.6,30v11.7h83.3v-13l0,0C666.7,25.1,662,21.4,662,21.4z"/>
		</g>
	</g>
	<g>
		<g>
			<path class="st0" d="M745.3,21.4c3.5,13.6-0.3,28.4-0.4,28.6c0-0.1,0.1-1.1,0.1-1.1c1.1-9.1-1.6-14.3-1.6-14.3
				c1.9,7.9-1.6,12.4-3.6,14.3c-0.8,0.7-1.3,1.3-1.3,1.3c-0.1,0-0.1-0.9-0.2-1.3c-1.4-11.2,5.1-25.4,5.1-25.4
				c-4.1,3.6-6.6,15.5-7.7,22c1.3-11-0.8-16-0.8-16c0.8,9.2-1.3,16.7-2.2,19.4c-0.2,0.7-0.4,1.3-0.4,1.3c-0.1,0-0.2-0.9-0.3-1.3
				c-1.5-6.6-0.8-23-0.8-23c-1.5,3.8-2.4,11.7-2.9,17.4c0-9.7-3-15.5-3-15.5c3.2,12.4-1.1,20.4-1.1,20.4c0.9-11.1-2.1-13.8-2.1-13.8
				c2.2,4.6-2.8,13.6-2.8,13.6c-1.9-11.9,2.8-28.8,2.8-28.8c-2.8,4-4.5,14-5.4,21.3c-0.1-9.2-4-12.8-4-12.8c3.9,9.4,0,20.9,0,20.9
				c0.4-11.1-2.3-16.4-2.3-16.4c0.3,4.9-3.6,13.6-5,16.6c-0.3,0.7-0.5,1.3-0.5,1.3c-0.1,0-0.2-0.9-0.2-1.3
				c-1.4-8.2,1.5-25.8,1.5-25.8c-3.4,2.6-5.4,21.2-5.9,25.8c-0.1,0.7-0.1,1.3-0.1,1.3c0,0,0-1-0.1-1.3c-0.4-7.2-0.4-15.2-0.4-15.2
				c-1.4,1.5-2.5,16.5-2.5,16.5l0-1.3c0.9-18.6-2.4-24.7-2.4-24.7c1.6,9.1-1.3,21.2-2.3,24.7c-0.2,0.7-0.3,1.3-0.3,1.3
				c-0.2,0-0.4-0.9-0.6-1.3c-2.2-5.5,0.6-18.1,0.6-18.1c-2.6,3.3-3.5,9.1-3.7,13.5c0.2-22.4-1.6-29.7-1.6-29.7
				c1.3,8.1-1.5,29.4-2.2,34.3c0,0.3,0,0.3,0,0h-0.1c0.5-7.5-2-21.1-2-21.1c0,5.9-1.4,17.6-1.8,21.1c-0.1,0.7-0.1,1.3-0.1,1.3
				c-0.2-0.4-0.3-0.9-0.5-1.3c-3.2-9.6,0.5-25.8,0.5-25.8c-4.9,6.6-5.5,21.7-5.5,25.8c0,0.3,0,0.4,0,0c0,0,0.3,1.6-0.4,0
				c-2.4-5.1,0.6-21.1,0.6-21.1c-2.9,3.1-4.1,17.1-4.4,21.1c0,0.7-0.1,1.3-0.1,1.3c-0.1,0-0.2-1-0.2-1.3
				c-2.3-13.6,4.6-28.6,4.6-28.6c-6.8,4.3-8.6,30-8.6,30v11.7H750v-13l0,0C750,25.1,745.3,21.4,745.3,21.4z"/>
		</g>
	</g>
	<g>
		<g>
			<path class="st0" d="M828.6,21.4c3.5,13.6-0.3,28.4-0.4,28.6c0-0.1,0.1-1.1,0.1-1.1c1.1-9.1-1.6-14.3-1.6-14.3
				c1.9,7.9-1.6,12.4-3.6,14.3c-0.8,0.7-1.3,1.3-1.3,1.3c-0.1,0-0.1-0.9-0.2-1.3c-1.4-11.2,5.1-25.4,5.1-25.4
				c-4.1,3.6-6.6,15.5-7.7,22c1.3-11-0.8-16-0.8-16c0.8,9.2-1.3,16.7-2.2,19.4c-0.2,0.7-0.4,1.3-0.4,1.3c-0.1,0-0.2-0.9-0.3-1.3
				c-1.5-6.6-0.8-23-0.8-23c-1.5,3.8-2.4,11.7-2.9,17.4c0-9.7-3-15.5-3-15.5c3.2,12.4-1.1,20.4-1.1,20.4c0.9-11.1-2.1-13.8-2.1-13.8
				c2.2,4.6-2.8,13.6-2.8,13.6c-1.9-11.9,2.8-28.8,2.8-28.8c-2.8,4-4.5,14-5.4,21.3c-0.1-9.2-4-12.8-4-12.8c3.9,9.4,0,20.9,0,20.9
				c0.4-11.1-2.3-16.4-2.3-16.4c0.3,4.9-3.6,13.6-5,16.6c-0.3,0.7-0.5,1.3-0.5,1.3c-0.1,0-0.2-0.9-0.2-1.3
				c-1.4-8.2,1.5-25.8,1.5-25.8c-3.4,2.6-5.4,21.2-5.9,25.8c-0.1,0.7-0.1,1.3-0.1,1.3c0,0,0-1-0.1-1.3c-0.4-7.2-0.4-15.2-0.4-15.2
				c-1.4,1.5-2.5,16.5-2.5,16.5l0-1.3c0.9-18.6-2.4-24.7-2.4-24.7c1.6,9.1-1.3,21.2-2.3,24.7c-0.2,0.7-0.3,1.3-0.3,1.3
				c-0.2,0-0.4-0.9-0.5-1.3c-2.2-5.5,0.5-18.1,0.5-18.1c-2.6,3.3-3.5,9.1-3.7,13.5c0.2-22.4-1.6-29.7-1.6-29.7
				c1.3,8.1-1.5,29.4-2.2,34.3c0,0.3,0,0.3,0,0H768c0.5-7.5-2-21.1-2-21.1c0,5.9-1.4,17.6-1.8,21.1c-0.1,0.7-0.1,1.3-0.1,1.3
				c-0.2-0.4-0.3-0.9-0.5-1.3c-3.2-9.6,0.5-25.8,0.5-25.8c-4.9,6.6-5.5,21.7-5.5,25.8c0,0.3,0,0.4,0,0c0,0,0.3,1.6-0.4,0
				c-2.4-5.1,0.6-21.1,0.6-21.1c-2.9,3.1-4.1,17.1-4.4,21.1c0,0.7-0.1,1.3-0.1,1.3c-0.1,0-0.2-1-0.2-1.3
				c-2.3-13.6,4.6-28.6,4.6-28.6c-6.8,4.3-8.6,30-8.6,30v11.7h83.3v-13l0,0C833.3,25.1,828.6,21.4,828.6,21.4z"/>
		</g>
	</g>
	<g>
		<g>
			<path class="st0" d="M912,21.4c3.5,13.6-0.3,28.4-0.4,28.6c0-0.1,0.1-1.1,0.1-1.1c1.1-9.1-1.6-14.3-1.6-14.3
				c1.9,7.9-1.6,12.4-3.6,14.3c-0.8,0.7-1.3,1.3-1.3,1.3c-0.1,0-0.1-0.9-0.2-1.3c-1.4-11.2,5.1-25.4,5.1-25.4
				c-4.1,3.6-6.6,15.5-7.7,22c1.3-11-0.8-16-0.8-16c0.8,9.2-1.3,16.7-2.2,19.4c-0.2,0.7-0.4,1.3-0.4,1.3c-0.1,0-0.2-0.9-0.3-1.3
				c-1.5-6.6-0.8-23-0.8-23c-1.5,3.8-2.4,11.7-2.9,17.4c0-9.7-3-15.5-3-15.5c3.2,12.4-1.1,20.4-1.1,20.4c0.9-11.1-2.1-13.8-2.1-13.8
				C891,39,886,48,886,48c-1.9-11.9,2.8-28.8,2.8-28.8c-2.8,4-4.5,14-5.4,21.3c-0.1-9.2-4-12.8-4-12.8c3.9,9.4,0,20.9,0,20.9
				c0.4-11.1-2.3-16.4-2.3-16.4c0.3,4.9-3.6,13.6-5,16.6c-0.3,0.7-0.5,1.3-0.5,1.3c-0.1,0-0.2-0.9-0.2-1.3
				c-1.4-8.2,1.5-25.8,1.5-25.8c-3.4,2.6-5.4,21.2-5.9,25.8c-0.1,0.7-0.1,1.3-0.1,1.3c0,0,0-1-0.1-1.3c-0.4-7.2-0.4-15.2-0.4-15.2
				c-1.4,1.5-2.5,16.5-2.5,16.5l0-1.3c0.9-18.6-2.4-24.7-2.4-24.7c1.6,9.1-1.3,21.2-2.3,24.7c-0.2,0.7-0.3,1.3-0.3,1.3
				c-0.2,0-0.4-0.9-0.6-1.3c-2.2-5.5,0.6-18.1,0.6-18.1c-2.6,3.3-3.5,9.1-3.7,13.5c0.2-22.4-1.6-29.7-1.6-29.7
				c1.3,8.1-1.5,29.4-2.2,34.3c0,0.3,0,0.3,0,0h-0.1c0.5-7.5-2-21.1-2-21.1c0,5.9-1.4,17.6-1.8,21.1c-0.1,0.7-0.1,1.3-0.1,1.3
				c-0.2-0.4-0.3-0.9-0.5-1.3c-3.2-9.6,0.5-25.8,0.5-25.8c-4.9,6.6-5.5,21.7-5.5,25.8c0,0.3,0,0.4,0,0c0,0,0.3,1.6-0.4,0
				c-2.4-5.1,0.6-21.1,0.6-21.1c-2.9,3.1-4.1,17.1-4.4,21.1c0,0.7-0.1,1.3-0.1,1.3c-0.1,0-0.2-1-0.2-1.3
				c-2.3-13.6,4.6-28.6,4.6-28.6c-6.8,4.3-8.6,30-8.6,30v11.7h83.3v-13l0,0C916.7,25.1,912,21.4,912,21.4z"/>
		</g>
	</g>
	<g>
		<g>
			<path class="st0" d="M995.3,21.4c3.5,13.6-0.3,28.4-0.4,28.6c0-0.1,0.1-1.1,0.1-1.1c1.1-9.1-1.6-14.3-1.6-14.3
				c1.9,7.9-1.6,12.4-3.6,14.3c-0.8,0.7-1.3,1.3-1.3,1.3c-0.1,0-0.1-0.9-0.2-1.3c-1.4-11.2,5.1-25.4,5.1-25.4
				c-4.1,3.6-6.6,15.5-7.7,22c1.3-11-0.8-16-0.8-16c0.8,9.2-1.3,16.7-2.2,19.4c-0.2,0.7-0.4,1.3-0.4,1.3c-0.1,0-0.2-0.9-0.3-1.3
				c-1.5-6.6-0.8-23-0.8-23c-1.5,3.8-2.4,11.7-2.9,17.4c0-9.7-3-15.5-3-15.5c3.2,12.4-1.1,20.4-1.1,20.4c0.9-11.1-2.1-13.8-2.1-13.8
				c2.2,4.6-2.8,13.6-2.8,13.6c-1.9-11.9,2.8-28.8,2.8-28.8c-2.8,4-4.5,14-5.4,21.3c-0.1-9.2-4-12.8-4-12.8c3.9,9.4,0,20.9,0,20.9
				c0.4-11.1-2.3-16.4-2.3-16.4c0.3,4.9-3.6,13.6-5,16.6c-0.3,0.7-0.5,1.3-0.5,1.3c-0.1,0-0.2-0.9-0.2-1.3
				c-1.4-8.2,1.5-25.8,1.5-25.8c-3.4,2.6-5.4,21.2-5.9,25.8c-0.1,0.7-0.1,1.3-0.1,1.3c0,0,0-1-0.1-1.3c-0.4-7.2-0.4-15.2-0.4-15.2
				c-1.4,1.5-2.5,16.5-2.5,16.5l0-1.3c0.9-18.6-2.4-24.7-2.4-24.7c1.6,9.1-1.3,21.2-2.3,24.7c-0.2,0.7-0.3,1.3-0.3,1.3
				c-0.2,0-0.4-0.9-0.6-1.3c-2.2-5.5,0.6-18.1,0.6-18.1c-2.6,3.3-3.5,9.1-3.7,13.5c0.2-22.4-1.6-29.7-1.6-29.7
				c1.3,8.1-1.5,29.4-2.2,34.3c0,0.3,0,0.3,0,0h-0.1c0.5-7.5-2-21.1-2-21.1c0,5.9-1.4,17.6-1.8,21.1c-0.1,0.7-0.1,1.3-0.1,1.3
				c-0.2-0.4-0.3-0.9-0.5-1.3c-3.2-9.6,0.5-25.8,0.5-25.8c-4.9,6.6-5.5,21.7-5.5,25.8c0,0.3,0,0.4,0,0c0,0,0.3,1.6-0.4,0
				c-2.4-5.1,0.6-21.1,0.6-21.1c-2.9,3.1-4.1,17.1-4.4,21.1c0,0.7-0.1,1.3-0.1,1.3c-0.1,0-0.2-1-0.2-1.3
				c-2.3-13.6,4.6-28.6,4.6-28.6c-6.8,4.3-8.6,30-8.6,30v11.7h83.3v-13l0,0C1000,25.1,995.3,21.4,995.3,21.4z"/>
		</g>
	</g>
</g>
<rect x="0" y="51.4" class="st0" width="1003.7" height="12.5"/>
</svg>
