<!-- Generator: Adobe Illustrator 19.1.0, SVG Export Plug-In  -->
<svg version="1.1"
	 xmlns="http://www.w3.org/2000/svg" xmlns:xlink="http://www.w3.org/1999/xlink" xmlns:a="http://ns.adobe.com/AdobeSVGViewerExtensions/3.0/"
	 x="0px" y="0px" width="190.6px" height="66.5px" viewBox="0 0 190.6 66.5"
	 style="overflow:scroll;enable-background:new 0 0 190.6 66.5;" xml:space="preserve">
<style type="text/css">
	.st0{fill:#312D2A;}
	.st1{fill:#FFFFFF;}
</style>
<defs>
</defs>
<g>
	<path class="st0" d="M47.4,10.1v46.4c0,5.6-4.5,10.1-10.1,10.1c-5.6,0-10.1-4.5-10.1-10.1V10.1C27.3,4.5,31.8,0,37.3,0
		c2.8,0,5.3,1.1,7.1,3C46.3,4.8,47.4,7.3,47.4,10.1z"/>
	<path class="st0" d="M26,15.2v36.1c0,3.6-2.9,6.5-6.5,6.5c-3.6,0-6.5-2.9-6.5-6.5V15.2c0-3.6,2.9-6.5,6.5-6.5
		c1.8,0,3.4,0.7,4.6,1.9C25.3,11.8,26,13.4,26,15.2z"/>
	<path class="st0" d="M162.9,10.1v46.4c0,5.6-4.5,10.1-10.1,10.1c-5.6,0-10.1-4.5-10.1-10.1V10.1c0-2.8,1.1-5.3,3-7.1
		c1.8-1.8,4.3-3,7.1-3C158.4,0,162.9,4.5,162.9,10.1z"/>
	<path class="st0" d="M177.2,15.2v36.1c0,3.6-2.9,6.5-6.5,6.5c-3.6,0-6.5-2.9-6.5-6.5V15.2c0-1.8,0.7-3.4,1.9-4.6
		c1.2-1.2,2.8-1.9,4.6-1.9C174.3,8.7,177.2,11.6,177.2,15.2z"/>
	<rect x="162.9" y="27.8" class="st1" width="1.2" height="9"/>
	<rect x="26" y="27.8" class="st1" width="1.2" height="9"/>
	<g>
		<path class="st0" d="M186.1,27.8h-7.7v9h7.7c1.2,0,2.4-0.5,3.2-1.3c0.8-0.8,1.3-1.9,1.3-3.2C190.6,29.8,188.6,27.8,186.1,27.8z"/>
		<rect x="164.1" y="27.8" class="st0" width="13.1" height="9"/>
	</g>
	<g>
		<path class="st0" d="M11.7,27.8H4.5c-1.2,0-2.4,0.5-3.2,1.3C0.5,30,0,31.1,0,32.3c0,2.5,2,4.5,4.5,4.5h7.3V27.8z"/>
		<rect x="13" y="27.8" class="st0" width="13.1" height="9"/>
	</g>
	<g>
		<rect x="27.3" y="27.8" class="st0" width="20.2" height="9"/>
		<rect x="48.7" y="27.8" class="st0" width="92.9" height="9"/>
		<rect x="142.7" y="27.8" class="st0" width="20.2" height="9"/>
	</g>
</g>
</svg>
