<!-- Generator: Adobe Illustrator 19.1.0, SVG Export Plug-In  -->
<svg version="1.1"
	 xmlns="http://www.w3.org/2000/svg" xmlns:xlink="http://www.w3.org/1999/xlink" xmlns:a="http://ns.adobe.com/AdobeSVGViewerExtensions/3.0/"
	 x="0px" y="0px" width="119px" height="82.6px" viewBox="0 0 119 82.6"
	 style="overflow:scroll;enable-background:new 0 0 119 82.6;" xml:space="preserve">
<style type="text/css">
	.st0{opacity:0.5;fill:#CA2027;stroke:#FFFFFF;stroke-miterlimit:2.6131;}
</style>
<defs>
</defs>
<path class="st0" d="M118.5,44.6l-1.6,1l-1.3-0.7l-1,0.4l-3,1.7c-0.1,1.8-1.5,2.5-3.1,2.8v0.9l-1.2,0.5l-0.7-0.6l-0.2-0.1l-0.9,1
	c0.4,3.2,3,4.8,1.7,8c-2.2,0.2-1.4-2.6-2.7-2.8l-0.1-0.1l-0.2-0.4l-0.2-0.1c-0.2,0.2-0.3,0.8-0.3,1.3l-0.6-0.4l-0.2-0.3h-0.2
	l-0.1-0.1l-0.4,0.9l-0.1,0.2c-0.5,0-1.6-1-2.1-1.2C98,55,96,54.4,93.5,53.6c-0.3,3-1,6.8-1,9.8l-1.2,0.3h-0.2l0.2,1.3
	c-0.2,0.2-1.8,0.5-2.2,0.6c-1.3,2.5-1.2,0.3-2.8,0.8l-1.1,1.4c-0.6-0.3-1-0.9-1.5-1.4c-0.2,0.8-1,2.3-1.6,2.9
	c-0.8-1.4-3.6-4.3-5.3-4.3l0.4,2.1c0,1-2.5,3.3-0.4,4.9c0,0.4-3.7,1.9-4.5,1.9l-2.3-1.8l-0.6-0.2l-0.2,0.5c-0.5,0.1-2.9-0.6-3.6-0.8
	L65.7,71h2l0.2-1.3c-1.3,0-3.8,0.5-4.9,0.2l-0.2,0.6l1.1,0.9l-0.2,0.3l-0.5,0.4l-0.6-0.4l-0.2,0.2c-0.6-0.3-1.4-1.2-2-1.5
	c-1.1,1.7-1.5,0.2-2.7,0.3l-0.1,1c-1.9,0-2.1,2.2-2.5,3.7c-2.5-0.6,0.3-4.5-3.5-3.7l-0.2-0.2l-0.4-0.1c-0.2,0.8-0.2,1.4-0.6,2.3
	c-4.2,0.6-5.7,2.4-9,5.6c-0.8,0.3-1.4,0.2-1.9-0.5l-1,0.8c-0.9-0.4-1.3-1.4-2.2-1.4c-0.5,0.5-0.9,2-1.3,2.3l-0.2,0.2L34.5,81v0.2
	l0.1,0.3l-0.1,0.2l-0.1,0.1l-1.6-1.8l-3.3-2.2l-0.7,0.5c-3.5-3.3-5-3.8-5-9.3h-0.2l-1.8,1.4c-0.9-0.7-1.1-1.2-2.5-1.6
	c-0.2-0.2-0.9-2.4-1.1-2.9l0.2-0.2h0.2c0.2-0.2-0.2-1.9-0.2-2.2c-0.7-0.7-8-2.9-9.2-2.2c-1.3,0.5-8.8,1.3-8.8-0.6
	c0.8-1.3,3.4-2.6,4.5-3.4c-1-1.8-0.1-2.5-2.2-3.7c-0.4-3.2,0.9-6.4,0.9-9.6l1,0.2c0.3-1,1.7-5.8,1.8-6c1.2,0,2.7,1,2.7-1
	c2.8,0-0.4-5,5-1.4c0.1,0.2,0.5,1,0.5,1.4c0.6,0.1,2.3-1.8,2.8-1.8c2.2-2.2-2.9-6.8,1.3-8.8c0.2,0.2,0.7,0.5,0.9,0.6l0.1,0.1
	c0.2-0.1,0.5-0.4,0.5-0.4c1.8-0.5,1-1,1.7-2.4c2.4,0,6.8-0.9,9.2-1.2l0.2-0.4c-1.3-2.6-1-4.6,0.2-7.2c0.4-0.2,1-0.2,1.4-0.2
	c1.8-2.5,6.1-0.4,8.4-2.1c2.3-0.2-1-3.2,2.2-3.2C44.1,9,45.6,8,47.1,8.8c1.7-0.3,0.7,2.2,0.7,2.9c3,1.7,0.8,4.9,6.7,3.8l-0.2-0.8
	c0.9-0.6,2.1,0.1,2.9-0.3c0.1-0.5,0.1-0.6,0.1-1.1c2.4-0.5,0.3-1.7,1.1-2.7c-2.7-2.7,5.7-7.8,6.1-5.7c0.4,3.2,3.9,1.2,5.4,0
	c1.9-1.9,4.5-2.9,6.8-4.3c0.6,0.2,0.3,1.3,1.7,1.3l2.5,1.8l0.3,0.7l-0.5,1.5l0.6,0.9l0.5,0.1L82,8.4l-0.6,0.3l0.5,1.8l1.1,3.3
	c1.9-0.4,3.5-0.7,5.3,0l1-2.2c1.9,0.2,4.2,0.4,6.1,0.5l1.7,3.8l1.3-0.5l1.4,0.7v0.4l-0.1,0.2v0.2l-0.1,0.4v0.1
	c0,0.2-0.1,0.4-0.1,0.6l0,0.1v0.2c-0.1,0.9-0.1,1.9-0.1,3v0.3l-0.1,0.5v0.5l-0.1,0.8l0.2,0.5l0.1,0.4l0.1,0.2v0.2l0.1,0.2l0.1,0.4
	l0.1,0.2v0.1l0.1,0.6l0.4,0.5l0.1,0.2l0,0.1c0,0.1,0.1,0.2,0.2,0.3l0,0l0.2,0.4l0.2,0.2c0.2,0.4,0.5,0.7,0.8,1.1l0,0l0,0l0.1,0.2h0
	l0.1,0.2l0.1,0.1l0.2,0.1l0.2,0c0.6,0.4,1.2,0.7,1.9,0.9l0.2,0.1l0.4,0.1h1c0.5,0.1,1.5,0.8,2.8,1.9l0.3,0.5l0.3,0.2l0.2,0.2
	l0.3,0.1c1,0.9,2,2,3,3.2l0,0.1l0.1,0.2l0.1,0.2l0.3,0.3l0.2,0.2l0.3,0.2l0.4,0.5V39l0.1,0.1l0.2,0.3l0.1,0.2l0.2,0.1l0.4,0.5
	l0.1,0.3l0.2,0.3l0.4,0.3l0.3,0.3l0.2,0.4l0.2,0.2l0.2,0.2l0.3,0.4l0.1,0.1c0.3,0.5,0.5,1,0.6,1.4l0,0.1l0.1,0.3l0,0
	C118.5,44.5,118.5,44.6,118.5,44.6z"/>
</svg>
