<!-- Generator: Adobe Illustrator 19.1.0, SVG Export Plug-In  -->
<svg version="1.1"
	 xmlns="http://www.w3.org/2000/svg" xmlns:xlink="http://www.w3.org/1999/xlink" xmlns:a="http://ns.adobe.com/AdobeSVGViewerExtensions/3.0/"
	 x="0px" y="0px" width="832px" height="156.1px" viewBox="0 0 832 156.1"
	 style="overflow:scroll;enable-background:new 0 0 832 156.1;" xml:space="preserve">
<style type="text/css">
	.st0{fill:#B4C1BC;}
</style>
<defs>
</defs>
<g>
	<g>
		<rect y="5.4" class="st0" width="26.4" height="82.1"/>
		<rect x="36.6" y="2" class="st0" width="26.4" height="83.1"/>
		<rect x="73.2" y="2" class="st0" width="26.4" height="62.8"/>
		<rect x="109.9" class="st0" width="26.4" height="65.8"/>
		<rect x="146.5" y="3.7" class="st0" width="26.4" height="67.5"/>
		<rect x="183.1" y="7.1" class="st0" width="26.4" height="71.2"/>
		<rect x="219.7" y="11.9" class="st0" width="26.4" height="64.8"/>
		<rect x="256.3" y="18.7" class="st0" width="26.4" height="63.8"/>
		<rect x="293" y="28.5" class="st0" width="26.4" height="64.5"/>
		<rect x="329.6" y="31.9" class="st0" width="26.4" height="71.9"/>
		<rect x="366.2" y="42.4" class="st0" width="26.4" height="56.3"/>
		<rect x="402.8" y="44.1" class="st0" width="26.4" height="48.9"/>
		<rect x="439.4" y="51.9" class="st0" width="26.4" height="50.2"/>
		<rect x="476.1" y="51.6" class="st0" width="26.4" height="48.9"/>
		<rect x="512.7" y="58" class="st0" width="26.4" height="51.9"/>
		<rect x="549.3" y="55.6" class="st0" width="26.4" height="52.2"/>
		<rect x="585.9" y="59.4" class="st0" width="26.4" height="56.3"/>
		<rect x="622.5" y="64.5" class="st0" width="26.4" height="60.4"/>
		<rect x="659.1" y="66.8" class="st0" width="26.4" height="64.1"/>
		<rect x="695.8" y="68.2" class="st0" width="26.4" height="66.5"/>
		<rect x="732.4" y="66.8" class="st0" width="26.4" height="67.2"/>
		<rect x="769" y="64.1" class="st0" width="26.4" height="71.2"/>
		<rect x="805.6" y="90.2" class="st0" width="26.4" height="65.8"/>
	</g>
</g>
</svg>
