<!-- Generator: Adobe Illustrator 19.1.0, SVG Export Plug-In  -->
<svg version="1.1"
	 xmlns="http://www.w3.org/2000/svg" xmlns:xlink="http://www.w3.org/1999/xlink" xmlns:a="http://ns.adobe.com/AdobeSVGViewerExtensions/3.0/"
	 x="0px" y="0px" width="161.7px" height="228.7px" viewBox="0 0 161.7 228.7"
	 style="overflow:scroll;enable-background:new 0 0 161.7 228.7;" xml:space="preserve">
<style type="text/css">
	.st0{fill:#57897C;}
	.st1{fill:#CA2027;}
</style>
<defs>
</defs>
<g>
	<g>
		<rect x="58.7" class="st0" width="103.1" height="11.2"/>
		<rect y="15.5" class="st1" width="58.7" height="11.2"/>
		<rect x="58.7" y="31.1" class="st0" width="12.3" height="11.2"/>
		<rect x="57.9" y="46.6" class="st1" width="0.8" height="11.2"/>
		<rect x="47.9" y="62.1" class="st1" width="10.8" height="11.2"/>
		<rect x="48.9" y="77.7" class="st1" width="9.8" height="11.2"/>
		<rect x="52.6" y="93.2" class="st1" width="6.1" height="11.2"/>
		<rect x="55.2" y="108.7" class="st1" width="3.5" height="11.2"/>
		<rect x="55.3" y="124.3" class="st1" width="3.3" height="11.2"/>
		<rect x="53.8" y="139.8" class="st1" width="4.9" height="11.2"/>
		<rect x="54" y="155.3" class="st1" width="4.7" height="11.2"/>
		<rect x="54.4" y="170.9" class="st1" width="4.3" height="11.2"/>
		<rect x="55.7" y="186.4" class="st1" width="2.9" height="11.2"/>
		<rect x="53.2" y="202" class="st1" width="5.5" height="11.2"/>
		<rect x="58.3" y="217.5" class="st1" width="0.4" height="11.2"/>
	</g>
</g>
</svg>
