<!-- Generator: Adobe Illustrator 19.1.0, SVG Export Plug-In  -->
<svg version="1.1"
	 xmlns="http://www.w3.org/2000/svg" xmlns:xlink="http://www.w3.org/1999/xlink" xmlns:a="http://ns.adobe.com/AdobeSVGViewerExtensions/3.0/"
	 x="0px" y="0px" width="234.6px" height="135.4px" viewBox="0 0 234.6 135.4"
	 style="overflow:scroll;enable-background:new 0 0 234.6 135.4;" xml:space="preserve">
<style type="text/css">
	.st0{fill:#3B685C;}
</style>
<defs>
</defs>
<g>
	<path class="st0" d="M200.2,66.8c-19,0-34.3,15.4-34.3,34.3s15.4,34.3,34.3,34.3s34.3-15.4,34.3-34.3S219.2,66.8,200.2,66.8z
		 M200.2,118.8c-9.8,0-17.7-7.9-17.7-17.7c0-9.8,7.9-17.7,17.7-17.7s17.7,7.9,17.7,17.7C217.9,110.8,210,118.8,200.2,118.8z"/>
	<path class="st0" d="M45.5,58.8c-19,0-34.3,15.4-34.3,34.3s15.4,34.3,34.3,34.3s34.3-15.4,34.3-34.3S64.5,58.8,45.5,58.8z
		 M45.5,110.8c-9.8,0-17.7-7.9-17.7-17.7s7.9-17.7,17.7-17.7s17.7,7.9,17.7,17.7S55.3,110.8,45.5,110.8z"/>
	<path class="st0" d="M168.9,62.5l-62.8,7.8V41.4c-1.2-7.8,9.9-14.6,17.7-15.7l36.7-5.4c7.8-1.2,15.1,4.3,16.3,12.1l2.4,16.2
		C180.3,55.3,175.6,61.5,168.9,62.5z"/>
	<path class="st0" d="M176.6,9.4h-21.9c-1.6,0-2.8-1.3-2.8-2.8V2.8c0-1.6,1.3-2.8,2.8-2.8h21.9c1.6,0,2.8,1.3,2.8,2.8v3.7
		C179.4,8.1,178.1,9.4,176.6,9.4z"/>
	<rect x="172.9" y="0" class="st0" width="7.2" height="32.6"/>
	<path class="st0" d="M197.5,53.3h-2.2c-25.5,0-24.9-35.3,0-35.3h2.2V53.3z"/>
	<path class="st0" d="M192.3,101.3l-39.1-47.2c-1.8-2.2-1.5-5.4,0.7-7.2l0,0c2.2-1.8,5.4-1.5,7.2,0.7l39.1,47.2
		c1.8,2.2,1.5,5.4-0.7,7.2l0,0C197.3,103.8,194.1,103.5,192.3,101.3z"/>
	<path class="st0" d="M44.9,87.5l72.3-0.7c2.8,0,5.1,2.2,5.1,5v0c0,2.8-2.2,5.1-5,5.1l-72.3,0.7c-2.8,0-5.1-2.2-5.1-5v0
		C39.8,89.8,42.1,87.5,44.9,87.5z"/>
	<path class="st0" d="M42,88.9l67.7-46.7c2.3-1.6,5.5-1,7.1,1.3v0c1.6,2.3,1,5.5-1.3,7.1L47.8,97.3c-2.3,1.6-5.5,1-7.1-1.3l0,0
		C39.1,93.7,39.7,90.5,42,88.9z"/>
	<path class="st0" d="M40.8,27.5v21.7h60c4.2,0,6.5-7.6,3.8-12.5l0,0c-4.8-8.8-11.9-13.9-19.4-13.9H43.9
		C42.2,22.8,40.8,24.9,40.8,27.5z"/>
	<g>
		<path class="st0" d="M107.6,93.9c0.6,3.4,3.6,6.1,7.2,6.1h29.4c3.6,0,6.6-2.6,7.2-6.1H107.6z"/>
		<rect x="107.5" y="87.9" class="st0" width="44.1" height="3"/>
		<path class="st0" d="M151.6,71.9c-0.2-3.9-3.4-7.1-7.3-7.1h-29.4c-4,0-7.2,3.2-7.3,7.1H151.6z"/>
		<rect x="107.5" y="80.9" class="st0" width="44.1" height="4"/>
		<rect x="107.5" y="74.9" class="st0" width="44.1" height="3"/>
	</g>
	<path class="st0" d="M0,75.3c0.3,5.9,2.8,9.3,8.6,8.7c31.4-6.7,55.8-2.8,75.5,3.1h18.1C77.7,28.6,22.3,40.9,0,75.3z"/>
</g>
</svg>
