<!-- Generator: Adobe Illustrator 19.1.0, SVG Export Plug-In  -->
<svg version="1.1"
	 xmlns="http://www.w3.org/2000/svg" xmlns:xlink="http://www.w3.org/1999/xlink" xmlns:a="http://ns.adobe.com/AdobeSVGViewerExtensions/3.0/"
	 x="0px" y="0px" width="200.6px" height="200.4px" viewBox="0 0 200.6 200.4"
	 style="overflow:scroll;enable-background:new 0 0 200.6 200.4;" xml:space="preserve">
<style type="text/css">
	.st0{fill:#CA2027;}
	.st1{fill:#BFB29D;}
	.st2{fill:#DCD3BE;}
	.st3{fill:#4D685C;}
	.st4{fill-rule:evenodd;clip-rule:evenodd;fill:#57897C;}
	.st5{fill:#8EA99F;}
	.st6{fill:#B4C1BC;}
	.st7{fill-rule:evenodd;clip-rule:evenodd;fill:#CA2027;}
	.st8{fill:#FFFFFF;}
	.st9{fill:#312D2A;}
</style>
<defs>
</defs>
<g>
	<g>
		<g>
			<g>
				<path class="st0" d="M100.4,100.2L98.7,0c0.2,0,1.6,0,1.7,0V100.2z"/>
			</g>
		</g>
		<g>
			<g>
				<path class="st1" d="M100.4,100.2L88.2,0.7c4-0.5,6.4-0.7,10.5-0.7L100.4,100.2z"/>
			</g>
		</g>
		<g>
			<g>
				<path class="st2" d="M100.4,100.2L33.4,25.7c15.7-14.1,33.9-22.4,54.8-25L100.4,100.2z"/>
			</g>
		</g>
		<g>
			<g>
				<path class="st3" d="M100.4,100.2l-85,53.1c-26-41.6-18.6-94.7,17.9-127.6L100.4,100.2z"/>
			</g>
		</g>
		<g>
			<g>
				<path class="st4" d="M100.4,100.2l82.1,57.5C150.8,203,88.3,214,42.9,182.3c-11.7-8.2-19.9-16.9-27.5-29L100.4,100.2z"/>
			</g>
		</g>
		<g>
			<g>
				<path class="st5" d="M100.4,100.2l47-88.5c48.9,26,67.4,86.7,41.4,135.5c-1.9,3.5-4.1,7.2-6.4,10.4L100.4,100.2z"/>
			</g>
		</g>
		<g>
			<g>
				<path class="st6" d="M100.4,100.2V0c17.4,0,31.7,3.5,47,11.7L100.4,100.2z"/>
			</g>
		</g>
		<g>
			<g>
				<path class="st7" d="M100.4,100.2V0c0.3,0-0.3,0,0,0V100.2z"/>
			</g>
		</g>
	</g>
	<g>
		<g>
		</g>
		<g>
		</g>
		<g>
		</g>
		<g>
		</g>
		<g>
		</g>
		<g>
		</g>
		<g>
		</g>
		<g>
		</g>
	</g>
</g>
<circle class="st8" cx="102.1" cy="100" r="67"/>
<g>
	<path class="st9" d="M121,59.4c-6-3-12.8,0.5-17.5,3c-8,2.5-16.5,15.4-7.7,21.1C68.7,89.7,69.3,117.2,74,152h58.7
		C131.2,108,131.2,63.2,121,59.4z"/>
	<circle class="st9" cx="113.9" cy="41.1" r="13.4"/>
	<polygon class="st9" points="97.5,54.5 100.8,38.3 127,38.6 131.5,54.5 	"/>
	<path class="st8" d="M108.9,54.5c-2.8-2.9-2.2-11.7-2.2-11.7s7.7,0.4,11.8-7.5c0,0-0.3,3.7,3.4,6.6c0,0,1,10-2.5,12.6
		C115.8,57.1,111.7,57.4,108.9,54.5z"/>
	<path class="st9" d="M108.9,54.5l0.4-0.4c-0.4-0.4-0.8-1-1.1-1.8c-0.4-1.1-0.7-2.5-0.8-3.8c-0.2-1.3-0.2-2.7-0.2-3.7
		c0-0.6,0-1.1,0-1.5c0-0.2,0-0.3,0-0.4c0,0,0-0.1,0-0.1l0,0l-0.6,0l0,0.6c0,0,0.1,0,0.2,0c0.6,0,2.7-0.1,5.1-1.1c2.4-1,5.1-3,7-6.7
		l-0.5-0.3l-0.6,0c0,0,0,0.1,0,0.2c0,0.4,0.1,1.5,0.5,2.7c0.5,1.3,1.4,2.8,3.1,4.1l0.3-0.4l-0.6,0.1c0,0,0,0,0,0.1
		c0,0.3,0.1,1.5,0.1,3.1c0,1.6-0.1,3.5-0.5,5.1c-0.2,0.8-0.4,1.6-0.8,2.3c-0.3,0.7-0.7,1.2-1.2,1.5c-1.8,1.3-3.6,2-5.3,2
		c-1.6,0-3.1-0.6-4.4-1.9L108.9,54.5l-0.4,0.4c1.5,1.5,3.3,2.2,5.2,2.2c2,0,4.1-0.8,6-2.2c0.7-0.5,1.2-1.1,1.5-1.9
		c0.6-1.1,0.9-2.5,1.1-3.9c0.2-1.4,0.3-2.8,0.3-4c0-1.9-0.1-3.3-0.1-3.3l0-0.2l-0.2-0.1c-1.5-1.2-2.3-2.5-2.7-3.6
		c-0.4-1.1-0.5-2-0.5-2.4c0,0,0-0.1,0-0.1l0,0l0,0l-0.2,0l0.2,0l0,0l-0.2,0l0.2,0l0.2-2.7l-1.2,2.4c-1.8,3.4-4.3,5.2-6.5,6.2
		c-2.2,0.9-4.1,1-4.6,1c-0.1,0-0.1,0-0.1,0l0,0l0,0l0,0.1l0-0.1l0,0l0,0.1l0-0.1l-0.5,0l0,0.5c0,0-0.1,0.8-0.1,2.1
		c0,1.4,0.1,3.4,0.4,5.2c0.2,0.9,0.4,1.9,0.7,2.7c0.3,0.8,0.7,1.6,1.3,2.2L108.9,54.5z"/>
	<path class="st9" d="M115.2,172.2L115.2,172.2c-4.6,0-8.3-3.8-8.3-8.3v-15.1c0-4.6,3.8-8.3,8.3-8.3h0c4.6,0,8.3,3.8,8.3,8.3v15.1
		C123.5,168.5,119.8,172.2,115.2,172.2z"/>
	<path class="st8" d="M114.5,63l-0.2-0.7c-0.8,0.2-1.5,0.5-2.1,0.9c-0.9,0.6-1.6,1.3-2,2.2c-0.4,0.9-0.6,1.9-0.6,3
		c0,1.2,0.2,2.6,0.6,4.1l0.7-0.2l-0.7,0.1l2.4,12.5l0.7-0.1l-0.6-0.4l0,0l0.6,0.4l-0.1-0.7L98.9,87c-1.5,0.3-2.8,1.1-3.7,2.2
		c-0.9,1.1-1.4,2.5-1.4,4c0,0.4,0,0.8,0.1,1.2l0,0l0,0l0.7-0.2l-0.7,0.1c0.2,0.9,0.4,1.6,0.8,2.2c0.5,0.9,1.2,1.6,2.1,2.1
		c0.9,0.4,1.9,0.6,2.9,0.6c1,0,2.1-0.1,3.3-0.4l16.6-3.3l2.5-0.5c0.9-0.2,1.7-0.4,2.5-0.7c0.5-0.2,1-0.4,1.4-0.7
		c0.6-0.4,1.1-1,1.4-1.6c0.3-0.7,0.5-1.4,0.4-2.3c0-0.7-0.1-1.5-0.3-2.5l-3.5-17.9c-0.4-2.1-1.2-4-2.5-5.4c-0.6-0.7-1.3-1.3-2.2-1.7
		c-0.8-0.4-1.8-0.6-2.8-0.6c-0.7,0-1.5,0.1-2.3,0.4L114.5,63l0.2,0.7c0.7-0.2,1.3-0.3,1.9-0.3c0.8,0,1.5,0.2,2.1,0.5
		c0.9,0.5,1.7,1.2,2.4,2.3c0.6,1,1.1,2.3,1.4,3.8l3.5,17.9c0.2,0.9,0.2,1.6,0.2,2.2c0,0.6-0.1,1.1-0.2,1.5c-0.1,0.3-0.3,0.5-0.5,0.7
		c-0.3,0.3-0.8,0.6-1.4,0.9c-0.6,0.3-1.4,0.5-2.4,0.7l-2.5,0.5l-16.6,3.3c-1.1,0.2-2.1,0.3-3,0.3c-0.6,0-1.1-0.1-1.6-0.2
		c-0.7-0.2-1.2-0.5-1.7-1.1c-0.4-0.5-0.8-1.3-1-2.4l0,0l0,0l-0.7,0.2l0.7-0.1c-0.1-0.3-0.1-0.6-0.1-1c0-1.2,0.4-2.2,1.1-3.1
		c0.7-0.9,1.7-1.5,2.9-1.7l14.6-2.9l0.2-0.3l0.2-0.3l-2.5-12.8l0,0c-0.3-1.4-0.5-2.7-0.5-3.7c0-0.6,0.1-1.2,0.2-1.7
		c0.2-0.7,0.5-1.3,1.1-1.8c0.5-0.5,1.3-0.9,2.3-1.2L114.5,63z"/>
	<path class="st9" d="M123.4,66.7l-14.5,3.2l-1.3-6.8l12.3-2.7c1.3-0.3,2.5,0.6,2.8,2L123.4,66.7z"/>
</g>
</svg>
