<!-- Generator: Adobe Illustrator 19.1.0, SVG Export Plug-In  -->
<svg version="1.1"
	 xmlns="http://www.w3.org/2000/svg" xmlns:xlink="http://www.w3.org/1999/xlink" xmlns:a="http://ns.adobe.com/AdobeSVGViewerExtensions/3.0/"
	 x="0px" y="0px" width="19.2px" height="19.2px" viewBox="0 0 19.2 19.2"
	 style="overflow:scroll;enable-background:new 0 0 19.2 19.2;" xml:space="preserve">
<style type="text/css">
	.st0{fill:#312D2A;}
	.st1{fill:#CA2027;}
</style>
<defs>
</defs>
<g>
	<path class="st0" d="M9.2,3.7c0.2,3.6,0.4,7.2,0.6,10.7c0,0.5,0.1,1,0.1,1.5c0,0.1,0.1,0.1,0.1,0C9.9,12.4,9.7,8.8,9.4,5.2
		c0-0.5-0.1-1-0.1-1.5C9.3,3.6,9.2,3.6,9.2,3.7z"/>
	<path class="st0" d="M3.5,10.3c3.6-0.2,7.2-0.4,10.7-0.6c0.5,0,1-0.1,1.5-0.1c0.1,0,0.1-0.1,0-0.1C12.2,9.6,8.6,9.8,5,10
		c-0.5,0-1,0.1-1.5,0.1C3.4,10.1,3.4,10.3,3.5,10.3z"/>
	<path class="st0" d="M4.1,9.2c0.6,0.3,1.1,0.7,1.7,1c0.1,0,0.2-0.1,0.1-0.1c-0.6-0.3-1.1-0.7-1.7-1C4.1,9,4,9.1,4.1,9.2z"/>
	<path class="st0" d="M4.3,11.3c0.5-0.4,1-0.8,1.6-1.2c0.1-0.1,0-0.2-0.1-0.1c-0.5,0.4-1,0.8-1.6,1.2C4.1,11.2,4.2,11.3,4.3,11.3z"
		/>
	<path class="st0" d="M15.4,8.4c-0.5,0.4-1,0.8-1.6,1.2c-0.1,0.1,0,0.2,0.1,0.1c0.5-0.4,1-0.8,1.6-1.2C15.5,8.4,15.5,8.3,15.4,8.4z"
		/>
	<path class="st0" d="M15.6,10.5c-0.6-0.3-1.1-0.7-1.7-1c-0.1,0-0.2,0.1-0.1,0.1c0.6,0.3,1.1,0.7,1.7,1
		C15.6,10.7,15.7,10.5,15.6,10.5z"/>
	<path class="st0" d="M10.3,3.9c-0.3,0.6-0.7,1.1-1,1.7c0,0.1,0.1,0.2,0.1,0.1c0.3-0.6,0.7-1.1,1-1.7C10.5,3.9,10.3,3.8,10.3,3.9z"
		/>
	<path class="st0" d="M8.2,4.1c0.4,0.5,0.8,1,1.2,1.6c0.1,0.1,0.2,0,0.1-0.1c-0.4-0.5-0.8-1-1.2-1.6C8.2,4,8.1,4.1,8.2,4.1z"/>
	<path class="st0" d="M11.1,15.6c-0.4-0.5-0.8-1-1.2-1.6c-0.1-0.1-0.2,0-0.1,0.1c0.4,0.5,0.8,1,1.2,1.6C11,15.7,11.2,15.6,11.1,15.6
		z"/>
	<path class="st0" d="M9,15.8c0.3-0.6,0.7-1.1,1-1.7c0-0.1-0.1-0.2-0.1-0.1c-0.3,0.6-0.7,1.1-1,1.7C8.8,15.8,9,15.8,9,15.8z"/>
	<path class="st0" d="M5.3,6.1c2.5,2.2,5,4.5,7.5,6.7c0.4,0.3,0.7,0.6,1.1,1c0.1,0.1,0.2,0,0.1-0.1c-2.5-2.2-5-4.5-7.5-6.7
		C6.1,6.6,5.7,6.3,5.4,6C5.3,5.9,5.2,6,5.3,6.1z"/>
	<path class="st0" d="M13.4,5.5C11.2,8,9,10.5,6.7,13c-0.3,0.4-0.6,0.7-1,1.1c-0.1,0.1,0,0.2,0.1,0.1c2.2-2.5,4.5-5,6.7-7.5
		c0.3-0.4,0.6-0.7,1-1.1C13.6,5.5,13.5,5.4,13.4,5.5z"/>
	<path class="st0" d="M6.3,5.6c0.2,0.6,0.3,1.3,0.5,1.9c0,0.1,0.2,0.1,0.1,0C6.8,6.8,6.6,6.2,6.5,5.5C6.5,5.4,6.3,5.5,6.3,5.6z"/>
	<path class="st0" d="M5,7.2c0.6,0.1,1.3,0.2,1.9,0.3c0.1,0,0.1-0.1,0-0.1C6.3,7.2,5.7,7.2,5,7.1C4.9,7.1,4.9,7.2,5,7.2z"/>
	<path class="st0" d="M13.9,6.5C13.3,6.7,12.6,6.9,12,7c-0.1,0-0.1,0.2,0,0.1c0.6-0.2,1.3-0.3,1.9-0.5C14,6.6,14,6.5,13.9,6.5z"/>
	<path class="st0" d="M12.3,5.2c-0.1,0.6-0.2,1.3-0.3,1.9c0,0.1,0.1,0.1,0.1,0c0.1-0.6,0.2-1.3,0.3-1.9C12.4,5.1,12.3,5.1,12.3,5.2z
		"/>
	<path class="st0" d="M12.9,14.1c-0.2-0.6-0.3-1.3-0.5-1.9c0-0.1-0.2-0.1-0.1,0c0.2,0.6,0.3,1.3,0.5,1.9
		C12.8,14.2,13,14.2,12.9,14.1z"/>
	<path class="st0" d="M14.3,12.5c-0.6-0.1-1.3-0.2-1.9-0.3c-0.1,0-0.1,0.1,0,0.1c0.6,0.1,1.3,0.2,1.9,0.3
		C14.4,12.6,14.4,12.5,14.3,12.5z"/>
	<path class="st0" d="M5.4,13.1C6,13,6.6,12.8,7.3,12.6c0.1,0,0.1-0.2,0-0.1C6.6,12.7,6,12.8,5.3,13C5.2,13,5.3,13.2,5.4,13.1z"/>
	<path class="st0" d="M7,14.5c0.1-0.6,0.2-1.3,0.3-1.9c0-0.1-0.1-0.1-0.1,0C7,13.2,7,13.8,6.9,14.5C6.9,14.5,7,14.6,7,14.5z"/>
	<path class="st0" d="M5.3,12.4c1-0.2,1.9-0.5,2.9-0.7c0.1,0,0.1-0.2,0-0.1c-1,0.2-1.9,0.5-2.9,0.7C5.2,12.3,5.2,12.4,5.3,12.4z"/>
	<path class="st0" d="M7.8,14.5c0.1-1,0.3-1.9,0.4-2.9c0-0.1-0.1-0.1-0.1,0c-0.1,1-0.3,1.9-0.4,2.9C7.6,14.5,7.7,14.5,7.8,14.5z"/>
	<path class="st0" d="M4.8,8.6c0.8,0.5,1.7,1,2.5,1.5c0.1,0,0.2-0.1,0.1-0.1C6.6,9.5,5.7,9,4.9,8.5C4.8,8.4,4.7,8.6,4.8,8.6z"/>
	<path class="st0" d="M5,11.8c0.8-0.6,1.6-1.2,2.3-1.8c0.1-0.1,0-0.2-0.1-0.1c-0.8,0.6-1.6,1.2-2.3,1.8C4.9,11.7,5,11.8,5,11.8z"/>
	<path class="st0" d="M7.1,5.5c0.2,1,0.5,1.9,0.7,2.9c0,0.1,0.2,0.1,0.1,0c-0.2-1-0.5-1.9-0.7-2.9C7.2,5.4,7.1,5.4,7.1,5.5z"/>
	<path class="st0" d="M5,8C6,8.1,7,8.2,8,8.4c0.1,0,0.1-0.1,0-0.1C7,8.1,6,8,5.1,7.8C5,7.8,4.9,7.9,5,8z"/>
	<path class="st0" d="M10.9,5c-0.5,0.8-1,1.7-1.5,2.5c0,0.1,0.1,0.2,0.1,0.1c0.5-0.8,1-1.7,1.5-2.5C11,5,10.9,4.9,10.9,5z"/>
	<path class="st0" d="M7.7,5.3C8.3,6,8.9,6.8,9.5,7.6c0.1,0.1,0.2,0,0.1-0.1C9,6.7,8.4,6,7.8,5.2C7.8,5.1,7.7,5.2,7.7,5.3z"/>
	<path class="st0" d="M13.9,7.3C13,7.5,12,7.8,11.1,8c-0.1,0-0.1,0.2,0,0.1c1-0.2,1.9-0.5,2.9-0.7C14.1,7.4,14,7.3,13.9,7.3z"/>
	<path class="st0" d="M11.5,5.2c-0.1,1-0.3,1.9-0.4,2.9c0,0.1,0.1,0.1,0.1,0c0.1-1,0.3-1.9,0.4-2.9C11.7,5.2,11.5,5.1,11.5,5.2z"/>
	<path class="st0" d="M14.5,11.1c-0.8-0.5-1.7-1-2.5-1.5c-0.1,0-0.2,0.1-0.1,0.1c0.8,0.5,1.7,1,2.5,1.5
		C14.5,11.2,14.6,11.1,14.5,11.1z"/>
	<path class="st0" d="M14.2,7.9c-0.8,0.6-1.6,1.2-2.3,1.8c-0.1,0.1,0,0.2,0.1,0.1c0.8-0.6,1.6-1.2,2.3-1.8C14.4,8,14.3,7.9,14.2,7.9
		z"/>
	<path class="st0" d="M12.2,14.1c-0.2-1-0.5-1.9-0.7-2.9c0-0.1-0.2-0.1-0.1,0c0.2,1,0.5,1.9,0.7,2.9C12.1,14.3,12.2,14.2,12.2,14.1z
		"/>
	<path class="st0" d="M14.2,11.7c-1-0.1-1.9-0.3-2.9-0.4c-0.1,0-0.1,0.1,0,0.1c1,0.1,1.9,0.3,2.9,0.4C14.3,11.9,14.3,11.7,14.2,11.7
		z"/>
	<path class="st0" d="M8.4,14.7c0.5-0.8,1-1.7,1.5-2.5c0-0.1-0.1-0.2-0.1-0.1c-0.5,0.8-1,1.7-1.5,2.5C8.2,14.7,8.4,14.8,8.4,14.7z"
		/>
	<path class="st0" d="M11.6,14.4c-0.6-0.8-1.2-1.6-1.8-2.3c-0.1-0.1-0.2,0-0.1,0.1c0.6,0.8,1.2,1.6,1.8,2.3
		C11.5,14.6,11.6,14.5,11.6,14.4z"/>
	<path class="st1" d="M18,9.6h-1.1c0,2-0.8,3.8-2.1,5.1c-1.3,1.3-3.1,2.1-5.1,2.1c-2,0-3.8-0.8-5.1-2.1c-1.3-1.3-2.1-3.1-2.1-5.1
		c0-2,0.8-3.8,2.1-5.1c1.3-1.3,3.1-2.1,5.1-2.1c2,0,3.8,0.8,5.1,2.1c1.3,1.3,2.1,3.1,2.1,5.1H18h1.1c0-5.3-4.3-9.6-9.6-9.6
		C4.3,0,0,4.3,0,9.6c0,5.3,4.3,9.6,9.6,9.6c5.3,0,9.6-4.3,9.6-9.6H18z"/>
	<polyline class="st1" points="15.3,2.3 2.5,15.1 4.1,16.7 16.9,4 	"/>
</g>
</svg>
