<!-- Generator: Adobe Illustrator 19.1.0, SVG Export Plug-In  -->
<svg version="1.1"
	 xmlns="http://www.w3.org/2000/svg" xmlns:xlink="http://www.w3.org/1999/xlink" xmlns:a="http://ns.adobe.com/AdobeSVGViewerExtensions/3.0/"
	 x="0px" y="0px" width="832px" height="159.8px" viewBox="0 0 832 159.8"
	 style="overflow:scroll;enable-background:new 0 0 832 159.8;" xml:space="preserve">
<style type="text/css">
	.st0{fill:#BFB29D;}
</style>
<defs>
</defs>
<g>
	<g>
		<rect y="13.9" class="st0" width="26.4" height="145.9"/>
		<rect x="36.6" class="st0" width="26.4" height="159.8"/>
		<rect x="73.2" y="15.6" class="st0" width="26.4" height="144.2"/>
		<rect x="109.9" y="15.6" class="st0" width="26.4" height="144.2"/>
		<rect x="146.5" y="19.7" class="st0" width="26.4" height="140.1"/>
		<rect x="183.1" y="28.2" class="st0" width="26.4" height="131.6"/>
		<rect x="219.7" y="27.5" class="st0" width="26.4" height="132.3"/>
		<rect x="256.3" y="30.9" class="st0" width="26.4" height="128.9"/>
		<rect x="293" y="30.2" class="st0" width="26.4" height="129.6"/>
		<rect x="329.6" y="37" class="st0" width="26.4" height="122.8"/>
		<rect x="366.2" y="23.7" class="st0" width="26.4" height="136"/>
		<rect x="402.8" y="18.3" class="st0" width="26.4" height="141.5"/>
		<rect x="439.4" y="28.5" class="st0" width="26.4" height="131.3"/>
		<rect x="476.1" y="29.9" class="st0" width="26.4" height="129.9"/>
		<rect x="512.7" y="40.4" class="st0" width="26.4" height="119.4"/>
		<rect x="549.3" y="41.4" class="st0" width="26.4" height="118.4"/>
		<rect x="585.9" y="48.9" class="st0" width="26.4" height="110.9"/>
		<rect x="622.5" y="54.6" class="st0" width="26.4" height="105.2"/>
		<rect x="659.1" y="57.3" class="st0" width="26.4" height="102.5"/>
		<rect x="695.8" y="58" class="st0" width="26.4" height="101.8"/>
		<rect x="732.4" y="59" class="st0" width="26.4" height="100.8"/>
		<rect x="769" y="54.6" class="st0" width="26.4" height="105.2"/>
		<rect x="805.6" y="65.8" class="st0" width="26.4" height="94"/>
	</g>
</g>
</svg>
