<?xml version="1.0" encoding="utf-8"?>
<!-- Generator: Adobe Illustrator 19.1.0, SVG Export Plug-In . SVG Version: 6.00 Build 0)  -->
<svg version="1.1" id="Layer_1" xmlns="http://www.w3.org/2000/svg" xmlns:xlink="http://www.w3.org/1999/xlink" x="0px" y="0px"
	 viewBox="0 0 1000 343" style="enable-background:new 0 0 1000 343;" xml:space="preserve">
<style type="text/css">
	.st0{fill:none;stroke:#CA2027;stroke-width:5;stroke-linecap:round;stroke-miterlimit:10;}
	.st1{fill:none;stroke:#000000;stroke-miterlimit:10;}
	.st2{fill:none;stroke:#000000;stroke-width:2;stroke-linecap:round;stroke-miterlimit:10;}
</style>
<g>
	<g>
		<g>
			<line class="st0" x1="144.4" y1="153.8" x2="112.7" y2="150.1"/>
			<line class="st0" x1="176.1" y1="166.3" x2="144.4" y2="153.8"/>
			<line class="st0" x1="207.8" y1="176.1" x2="176.1" y2="166.3"/>
			<line class="st0" x1="239.5" y1="184.3" x2="207.8" y2="176.1"/>
			<line class="st0" x1="271.2" y1="190.9" x2="239.5" y2="184.3"/>
			<line class="st0" x1="302.9" y1="196.4" x2="271.2" y2="190.9"/>
			<line class="st0" x1="334.6" y1="200.1" x2="302.9" y2="196.4"/>
			<line class="st0" x1="366.2" y1="204" x2="334.6" y2="200.1"/>
			<line class="st0" x1="397.9" y1="197.7" x2="366.2" y2="204"/>
			<line class="st0" x1="429.6" y1="200.2" x2="397.9" y2="197.7"/>
			<line class="st0" x1="461.3" y1="202.8" x2="429.6" y2="200.2"/>
			<line class="st0" x1="493" y1="205.2" x2="461.3" y2="202.8"/>
			<line class="st0" x1="524.7" y1="207.8" x2="493" y2="205.2"/>
			<line class="st0" x1="556.4" y1="209.9" x2="524.7" y2="207.8"/>
			<line class="st0" x1="588.1" y1="212.2" x2="556.4" y2="209.9"/>
			<line class="st0" x1="619.8" y1="214.4" x2="588.1" y2="212.2"/>
			<line class="st0" x1="651.5" y1="215.7" x2="619.8" y2="214.4"/>
			<line class="st0" x1="683.2" y1="216.5" x2="651.5" y2="215.7"/>
			<line class="st0" x1="714.9" y1="217.2" x2="683.2" y2="216.5"/>
			<line class="st0" x1="746.5" y1="218.2" x2="714.9" y2="217.2"/>
			<line class="st0" x1="778.2" y1="219.5" x2="746.5" y2="218.2"/>
			<line class="st0" x1="809.9" y1="220.9" x2="778.2" y2="219.5"/>
			<line class="st0" x1="841.6" y1="222.2" x2="809.9" y2="220.9"/>
			<line class="st0" x1="873.3" y1="222.9" x2="841.6" y2="222.2"/>
			<line class="st0" x1="905" y1="222.1" x2="873.3" y2="222.9"/>
		</g>
	</g>
</g>
<g>
	<g>
	</g>
</g>
<g>
	<g>
		<line class="st1" x1="36.5" y1="-90.5" x2="964.5" y2="-90.5"/>
		<g>
			<g>
			</g>
			<g>
			</g>
		</g>
	</g>
	<g>
		<g>
			<text transform="matrix(1 0 0 1 -74.2808 -80.4453)" style="font-family:'MyriadPro-Regular'; font-size:26.8125px;">1000000</text>
			<text transform="matrix(1 0 0 1 -74.2808 -223.4453)" style="font-family:'MyriadPro-Regular'; font-size:26.8125px;">1500000</text>
			<text transform="matrix(1 0 0 1 -74.2808 -366.4453)" style="font-family:'MyriadPro-Regular'; font-size:26.8125px;">2000000</text>
		</g>
		<line class="st1" x1="36.5" y1="-90.5" x2="36.5" y2="-376.5"/>
		<g>
			<g>
				<line class="st1" x1="36.5" y1="-90.5" x2="964.5" y2="-90.5"/>
				<line class="st1" x1="36.5" y1="-233.5" x2="964.5" y2="-233.5"/>
				<line class="st1" x1="36.5" y1="-376.5" x2="964.5" y2="-376.5"/>
			</g>
			<g>
			</g>
		</g>
	</g>
	<g>
		<g>
			<g>
				<line class="st2" x1="90" y1="-249.2" x2="54.3" y2="-252.9"/>
				<line class="st2" x1="125.7" y1="-236.7" x2="90" y2="-249.2"/>
				<line class="st2" x1="161.4" y1="-226.9" x2="125.7" y2="-236.7"/>
				<line class="st2" x1="197.1" y1="-218.7" x2="161.4" y2="-226.9"/>
				<line class="st2" x1="232.8" y1="-212.1" x2="197.1" y2="-218.7"/>
				<line class="st2" x1="268.5" y1="-206.6" x2="232.8" y2="-212.1"/>
				<line class="st2" x1="304.2" y1="-202.9" x2="268.5" y2="-206.6"/>
				<line class="st2" x1="339.9" y1="-199" x2="304.2" y2="-202.9"/>
				<line class="st2" x1="375.6" y1="-205.3" x2="339.9" y2="-199"/>
				<line class="st2" x1="411.3" y1="-202.8" x2="375.6" y2="-205.3"/>
				<line class="st2" x1="447" y1="-200.2" x2="411.3" y2="-202.8"/>
				<line class="st2" x1="482.7" y1="-197.8" x2="447" y2="-200.2"/>
				<line class="st2" x1="518.3" y1="-195.2" x2="482.7" y2="-197.8"/>
				<line class="st2" x1="554" y1="-193.1" x2="518.3" y2="-195.2"/>
				<line class="st2" x1="589.7" y1="-190.8" x2="554" y2="-193.1"/>
				<line class="st2" x1="625.4" y1="-188.6" x2="589.7" y2="-190.8"/>
				<line class="st2" x1="661.1" y1="-187.3" x2="625.4" y2="-188.6"/>
				<line class="st2" x1="696.8" y1="-186.5" x2="661.1" y2="-187.3"/>
				<line class="st2" x1="732.5" y1="-185.8" x2="696.8" y2="-186.5"/>
				<line class="st2" x1="768.2" y1="-184.8" x2="732.5" y2="-185.8"/>
				<line class="st2" x1="803.9" y1="-183.5" x2="768.2" y2="-184.8"/>
				<line class="st2" x1="839.6" y1="-182.1" x2="803.9" y2="-183.5"/>
				<line class="st2" x1="875.3" y1="-180.8" x2="839.6" y2="-182.1"/>
				<line class="st2" x1="911" y1="-180.1" x2="875.3" y2="-180.8"/>
				<line class="st2" x1="946.7" y1="-180.9" x2="911" y2="-180.1"/>
			</g>
		</g>
	</g>
	<g>
		<g>
		</g>
	</g>
</g>
</svg>
