<?xml version="1.0" encoding="utf-8"?>
<!-- Generator: Adobe Illustrator 19.1.0, SVG Export Plug-In . SVG Version: 6.00 Build 0)  -->
<svg version="1.1" id="Isolation_Mode" xmlns="http://www.w3.org/2000/svg" xmlns:xlink="http://www.w3.org/1999/xlink" x="0px"
	 y="0px" viewBox="0 0 90 90" style="enable-background:new 0 0 90 90;" xml:space="preserve">
<style type="text/css">
	.st0{fill:none;}
	.st1{fill:#57897C;}
	.st2{fill:none;stroke:#57897C;stroke-width:3;stroke-miterlimit:10;}
</style>
<g>
	<path class="st0" d="M17.1,45.1c0-38.7,55.8-37.9,55.8,0S17.1,83.8,17.1,45.1z"/>
	<path class="st1" d="M19.4,32.5l-0.7,1.8L11,31.4l0.7-1.8L19.4,32.5z"/>
	<path class="st1" d="M13.4,25.9c0,0,0.1-0.1,0.1-0.1s0.1,0,0.1-0.1c0.1,0,0.1,0,0.2,0l6.3-0.6c-0.1-0.1-0.3-0.1-0.4-0.2
		c-0.1-0.1-0.3-0.1-0.4-0.2l-3.7-2.4l0.9-1.4l6.9,4.5L23,26.2c-0.1,0.1-0.2,0.2-0.3,0.3c-0.1,0.1-0.2,0.1-0.4,0.1l-6.2,0.6
		c0.1,0.1,0.3,0.1,0.4,0.2s0.2,0.1,0.3,0.2l3.7,2.4l-0.9,1.4l-6.9-4.5l0.5-0.8C13.3,26,13.4,25.9,13.4,25.9z"/>
	<path class="st1" d="M23.3,14.6l1,1.1l-1.8,1.5l4.4,5.1l-1.4,1.3l-4.4-5.1l-1.8,1.5l-1-1.1L23.3,14.6z"/>
	<path class="st1" d="M30,10.9l0.7,1.3l-3,1.6l0.9,1.7l2.3-1.2l0.7,1.3l-2.3,1.2l0.9,1.7l3-1.6l0.7,1.3l-4.7,2.5l-3.8-7.3L30,10.9z"
		/>
	<path class="st1" d="M35.5,14.6l0.8,3L34.4,18l-2-8L35,9.3c0.6-0.1,1.1-0.2,1.5-0.2c0.4,0,0.8,0.1,1.1,0.2c0.3,0.1,0.6,0.4,0.8,0.6
		c0.2,0.3,0.3,0.6,0.4,0.9c0.1,0.3,0.1,0.5,0.1,0.8c0,0.2-0.1,0.5-0.1,0.7c-0.1,0.2-0.2,0.4-0.4,0.7s-0.4,0.4-0.6,0.6
		c0.1,0,0.3,0.1,0.4,0.1c0.1,0.1,0.3,0.2,0.4,0.3l2.4,2.4l-1.7,0.4c-0.3,0.1-0.6,0-0.8-0.2l-1.9-2c-0.1-0.1-0.2-0.1-0.3-0.2
		s-0.2,0-0.3,0L35.5,14.6z M35.2,13.3l0.7-0.2c0.3-0.1,0.5-0.2,0.6-0.3c0.2-0.1,0.3-0.2,0.4-0.4c0.1-0.1,0.1-0.3,0.1-0.5
		c0-0.2,0-0.3,0-0.5c-0.1-0.4-0.3-0.6-0.6-0.7c-0.3-0.1-0.7-0.1-1.1,0l-0.7,0.2L35.2,13.3z"/>
	<path class="st1" d="M49,16.3l-1.5,0c-0.2,0-0.3,0-0.4-0.1c-0.1-0.1-0.2-0.2-0.2-0.3l-0.5-1.4l-3.1,0l-0.5,1.4
		c0,0.1-0.1,0.2-0.2,0.3s-0.2,0.1-0.4,0.1l-1.5,0l3.2-8.3l2,0L49,16.3z M43.7,13.2l2.3,0l-0.8-2.3c0-0.1-0.1-0.3-0.2-0.5
		s-0.1-0.4-0.2-0.6c-0.1,0.2-0.1,0.4-0.2,0.6c-0.1,0.2-0.1,0.4-0.2,0.5L43.7,13.2z"/>
	<path class="st1" d="M52.3,12.2l0.3,0.1c0.3,0.1,0.5,0,0.7-0.1l2.5-2.1c0.1-0.1,0.3-0.2,0.4-0.2s0.3,0,0.5,0l1.6,0.4L55,12.9
		c-0.1,0.1-0.2,0.2-0.3,0.2c-0.1,0.1-0.2,0.1-0.3,0.1c0.1,0.1,0.2,0.2,0.3,0.3c0.1,0.1,0.2,0.3,0.2,0.4l1.4,4.3l-1.7-0.4
		c-0.1,0-0.2-0.1-0.3-0.1c-0.1,0-0.1-0.1-0.2-0.1c0,0-0.1-0.1-0.1-0.1c0-0.1-0.1-0.1-0.1-0.2L53,14.1c0-0.1-0.1-0.2-0.2-0.3
		c-0.1-0.1-0.2-0.1-0.4-0.2l-0.4-0.1L51,17l-1.9-0.5l2.1-8L53.1,9L52.3,12.2z"/>
	<path class="st1" d="M65.7,14.2L65,15.5l-2-1.1l-3.2,5.9L58,19.4l3.2-5.9l-2-1.1L60,11L65.7,14.2z"/>
	<path class="st1" d="M63.7,23.2L62.2,22l5.2-6.4l1.5,1.2L63.7,23.2z"/>
	<path class="st1" d="M66.1,25.5l-1.3-1.4l6-5.7l1.3,1.4L66.1,25.5z"/>
	<path class="st1" d="M73.7,21.4l0.8,1.3c0.1,0.1,0.1,0.3,0.1,0.4s-0.1,0.2-0.1,0.4l-2.9,3.7c-0.1,0.2-0.3,0.3-0.4,0.5
		c-0.2,0.2-0.3,0.4-0.5,0.5c0.2-0.1,0.5-0.2,0.7-0.2c0.2-0.1,0.4-0.1,0.6-0.1l4.6-0.9c0.1,0,0.2,0,0.4,0c0.1,0,0.2,0.1,0.3,0.3
		l0.8,1.3L69.2,30l-0.9-1.5L73.7,21.4z"/>
	<path class="st1" d="M79.2,32.1c0,0.1,0,0.1,0,0.2c0,0,0,0.1-0.1,0.1c0,0-0.1,0.1-0.1,0.2l-3.8,5.1c0.1-0.1,0.3-0.1,0.4-0.2
		c0.1,0,0.3-0.1,0.4-0.1l4.2-1.1l0.4,1.6l-8,2.1l-0.3-1c0-0.1,0-0.3,0-0.4c0-0.1,0.1-0.2,0.2-0.3l3.8-5c-0.1,0-0.3,0.1-0.4,0.1
		s-0.3,0.1-0.4,0.1l-4.3,1.1L70.9,33l8-2.1l0.3,1C79.2,32,79.2,32,79.2,32.1z"/>
	<path class="st1" d="M81.2,45.9L79.7,46l-0.1-3.4l-1.9,0.1l0.1,2.6l-1.4,0.1l-0.1-2.6l-2,0.1l0.1,3.4L73,46.3L72.7,41l8.3-0.3
		L81.2,45.9z"/>
	<path class="st1" d="M70.7,57.1l0.7-1.8l7.8,2.9L78.4,60L70.7,57.1z"/>
	<path class="st1" d="M76.7,63.7c0,0-0.1,0.1-0.1,0.1c0,0-0.1,0-0.1,0.1c-0.1,0-0.1,0-0.2,0L70,64.6c0.1,0.1,0.3,0.1,0.4,0.2
		c0.1,0.1,0.3,0.1,0.4,0.2l3.7,2.3l-0.9,1.4l-7-4.4l0.5-0.8c0.1-0.1,0.2-0.2,0.3-0.3c0.1-0.1,0.2-0.1,0.4-0.1l6.2-0.7
		c-0.1-0.1-0.3-0.1-0.4-0.2c-0.1-0.1-0.2-0.1-0.3-0.2l-3.7-2.4l0.9-1.4l7,4.4l-0.5,0.9C76.8,63.6,76.8,63.7,76.7,63.7z"/>
	<path class="st1" d="M66.9,75.1l-1-1.1l1.7-1.5l-4.5-5l1.4-1.3l4.5,5l1.7-1.5l1,1.1L66.9,75.1z"/>
	<path class="st1" d="M60.4,78.9l-0.7-1.3l3-1.6l-0.9-1.7l-2.3,1.2l-0.7-1.2l2.3-1.2l-0.9-1.7l-3,1.6l-0.7-1.3l4.7-2.5l4,7.3
		L60.4,78.9z"/>
	<path class="st1" d="M54.8,75.3L54,72.4l1.8-0.5l2.2,8l-2.6,0.7c-0.6,0.2-1.1,0.2-1.5,0.2c-0.4,0-0.8-0.1-1.1-0.2
		c-0.3-0.1-0.6-0.3-0.8-0.6c-0.2-0.3-0.3-0.6-0.4-0.9c-0.1-0.3-0.1-0.5-0.1-0.8s0-0.5,0.1-0.7c0.1-0.2,0.2-0.5,0.4-0.7
		c0.2-0.2,0.3-0.4,0.6-0.6c-0.1,0-0.3-0.1-0.4-0.1s-0.3-0.1-0.4-0.3l-2.5-2.3l1.7-0.5c0.3-0.1,0.6,0,0.8,0.2l2,1.9
		c0.1,0.1,0.2,0.1,0.3,0.2c0.1,0,0.2,0,0.3,0L54.8,75.3z M55.2,76.6l-0.7,0.2c-0.3,0.1-0.5,0.2-0.6,0.3c-0.2,0.1-0.3,0.2-0.4,0.4
		s-0.1,0.3-0.1,0.5c0,0.2,0,0.3,0.1,0.5c0.1,0.3,0.3,0.6,0.6,0.7c0.3,0.1,0.7,0.1,1.1,0l0.7-0.2L55.2,76.6z"/>
	<path class="st1" d="M41.3,73.9l1.5,0c0.2,0,0.3,0,0.4,0.1c0.1,0.1,0.2,0.2,0.2,0.3l0.5,1.4l3.1-0.1l0.5-1.5c0-0.1,0.1-0.2,0.2-0.3
		c0.1-0.1,0.2-0.1,0.4-0.1l1.5,0l-3,8.3l-2,0L41.3,73.9z M46.7,76.9L44.4,77l0.8,2.2c0.1,0.1,0.1,0.3,0.2,0.5
		c0.1,0.2,0.1,0.4,0.2,0.6c0.1-0.2,0.1-0.4,0.2-0.6c0.1-0.2,0.1-0.4,0.2-0.5L46.7,76.9z"/>
	<path class="st1" d="M38.1,78.1L37.8,78c-0.3-0.1-0.5,0-0.7,0.1l-2.4,2.2c-0.1,0.1-0.3,0.2-0.4,0.2s-0.3,0-0.5,0l-1.6-0.4l3.2-2.7
		c0.1-0.1,0.2-0.2,0.3-0.2c0.1-0.1,0.2-0.1,0.3-0.1c-0.1-0.1-0.2-0.2-0.3-0.3c-0.1-0.1-0.2-0.3-0.2-0.4l-1.5-4.3l1.7,0.4
		c0.1,0,0.2,0.1,0.3,0.1s0.1,0.1,0.2,0.1c0,0,0.1,0.1,0.1,0.1c0,0.1,0.1,0.1,0.1,0.2l1.2,3.2c0,0.1,0.1,0.2,0.2,0.3s0.2,0.1,0.4,0.2
		l0.5,0.1l0.8-3.4l1.9,0.4l-1.9,8l-1.9-0.4L38.1,78.1z"/>
	<path class="st1" d="M24.6,76.4l0.7-1.3l2.1,1.1l3.1-6l1.7,0.9l-3.1,6l2.1,1.1l-0.7,1.3L24.6,76.4z"/>
	<path class="st1" d="M26.5,67.4l1.5,1.2l-5.1,6.5l-1.5-1.2L26.5,67.4z"/>
	<path class="st1" d="M24.1,65l1.3,1.4l-5.9,5.8l-1.3-1.4L24.1,65z"/>
	<path class="st1" d="M16.5,69.2l-0.8-1.3c-0.1-0.1-0.1-0.3-0.1-0.4s0.1-0.2,0.1-0.4l2.9-3.7c0.1-0.2,0.3-0.3,0.4-0.5
		c0.2-0.2,0.3-0.4,0.5-0.6c-0.2,0.1-0.5,0.2-0.7,0.2c-0.2,0.1-0.4,0.1-0.6,0.2l-4.6,1c-0.1,0-0.2,0-0.4,0c-0.1,0-0.2-0.1-0.3-0.3
		l-0.8-1.3l8.8-1.5l0.9,1.5L16.5,69.2z"/>
	<path class="st1" d="M10.9,58.6c0-0.1,0-0.1,0-0.2c0,0,0-0.1,0.1-0.1c0,0,0.1-0.1,0.1-0.2l3.8-5.1c-0.1,0.1-0.3,0.1-0.4,0.2
		c-0.1,0-0.3,0.1-0.4,0.1l-4.2,1.1l-0.4-1.6l8-2.2l0.3,1c0,0.1,0,0.3,0,0.4c0,0.1-0.1,0.2-0.2,0.4l-3.7,5.1c0.1,0,0.3-0.1,0.4-0.1
		c0.1,0,0.3-0.1,0.4-0.1l4.3-1.2l0.4,1.6l-8,2.2l-0.3-1C11,58.7,10.9,58.7,10.9,58.6z"/>
	<path class="st1" d="M8.8,44.8l1.5-0.1l0.2,3.4l1.9-0.1l-0.1-2.6l1.4-0.1l0.1,2.6l2-0.1l-0.2-3.4l1.5-0.1l0.3,5.3l-8.3,0.4
		L8.8,44.8z"/>
</g>
<circle class="st2" cx="45" cy="45.1" r="22.4"/>
<circle class="st2" cx="45" cy="45.1" r="43.6"/>
<circle class="st1" cx="76.7" cy="51.5" r="2.3"/>
<circle class="st1" cx="12.7" cy="38.3" r="2.3"/>
</svg>
