<!-- Generator: Adobe Illustrator 19.1.0, SVG Export Plug-In  -->
<svg version="1.1"
	 xmlns="http://www.w3.org/2000/svg" xmlns:xlink="http://www.w3.org/1999/xlink" xmlns:a="http://ns.adobe.com/AdobeSVGViewerExtensions/3.0/"
	 x="0px" y="0px" width="833.3px" height="172px" viewBox="0 0 833.3 172"
	 style="overflow:scroll;enable-background:new 0 0 833.3 172;" xml:space="preserve">
<style type="text/css">
	.st0{fill:#303533;}
	.st1{fill:#606764;}
	.st2{fill:#808985;}
	.st3{fill:#B4C1BC;}
</style>
<defs>
</defs>
<path class="st0" d="M258.5,123h-164V74.5C94.5,33.4,127.8,0,169,0h14.9c41.2,0,74.5,33.4,74.5,74.5V123z"/>
<path class="st0" d="M424.9,123h-164V74.5c0-41.2,33.4-74.5,74.5-74.5h14.9c41.2,0,74.5,33.4,74.5,74.5V123z"/>
<path class="st0" d="M592.2,123h-164V74.5c0-41.2,33.4-74.5,74.5-74.5h14.9c41.2,0,74.5,33.4,74.5,74.5V123z"/>
<path class="st0" d="M760.2,123h-164V74.5c0-41.2,33.4-74.5,74.5-74.5h14.9c41.2,0,74.5,33.4,74.5,74.5V123z"/>
<path class="st1" d="M164,172H0V82.5C0,41.4,33.4,8,74.5,8h14.9C130.6,8,164,41.4,164,82.5V172z"/>
<path class="st1" d="M330.4,172h-164V82.5C166.4,41.4,199.8,8,241,8h14.9c41.2,0,74.5,33.4,74.5,74.5V172z"/>
<path class="st1" d="M497.7,172h-164V82.5c0-41.2,33.4-74.5,74.5-74.5h14.9c41.2,0,74.5,33.4,74.5,74.5V172z"/>
<path class="st1" d="M665.8,172h-164V82.5c0-41.2,33.4-74.5,74.5-74.5h14.9c41.2,0,74.5,33.4,74.5,74.5V172z"/>
<path class="st1" d="M833.3,172h-164V82.5c0-41.2,33.4-74.5,74.5-74.5h14.9c41.2,0,74.5,33.4,74.5,74.5V172z"/>
<path class="st2" d="M257.6,158h-164v-48.5C93.6,68.4,127,35,168.2,35h14.9c41.2,0,74.5,33.4,74.5,74.5V158z"/>
<path class="st2" d="M424.1,158h-164v-48.5c0-41.2,33.4-74.5,74.5-74.5h14.9c41.2,0,74.5,33.4,74.5,74.5V158z"/>
<path class="st2" d="M591.3,158h-164v-48.5c0-41.2,33.4-74.5,74.5-74.5h14.9c41.2,0,74.5,33.4,74.5,74.5V158z"/>
<path class="st2" d="M759.4,158h-164v-48.5c0-41.2,33.4-74.5,74.5-74.5h14.9c41.2,0,74.5,33.4,74.5,74.5V158z"/>
<path class="st3" d="M164,165H0v-45.5C0,78.4,33.4,45,74.5,45h14.9c41.2,0,74.5,33.4,74.5,74.5V165z"/>
<path class="st3" d="M330.4,165h-164v-45.5c0-41.2,33.4-74.5,74.5-74.5h14.9c41.2,0,74.5,33.4,74.5,74.5V165z"/>
<path class="st3" d="M497.7,165h-164v-45.5c0-41.2,33.4-74.5,74.5-74.5h14.9c41.2,0,74.5,33.4,74.5,74.5V165z"/>
<path class="st3" d="M665.8,165h-164v-45.5c0-41.2,33.4-74.5,74.5-74.5h14.9c41.2,0,74.5,33.4,74.5,74.5V165z"/>
<path class="st3" d="M833.3,165h-164v-45.5c0-41.2,33.4-74.5,74.5-74.5h14.9c41.2,0,74.5,33.4,74.5,74.5V165z"/>
</svg>
