<!-- Generator: Adobe Illustrator 19.1.0, SVG Export Plug-In  -->
<svg version="1.1"
	 xmlns="http://www.w3.org/2000/svg" xmlns:xlink="http://www.w3.org/1999/xlink" xmlns:a="http://ns.adobe.com/AdobeSVGViewerExtensions/3.0/"
	 x="0px" y="0px" width="91.3px" height="156.3px" viewBox="0 0 91.3 156.3"
	 style="overflow:scroll;enable-background:new 0 0 91.3 156.3;" xml:space="preserve">
<style type="text/css">
	.st0{fill:#312D2A;}
	.st1{fill:#FFFFFF;}
</style>
<defs>
</defs>
<g>
	<circle class="st0" cx="49.2" cy="15.8" r="15.8"/>
	<path class="st0" d="M67.2,37.5L17.8,89.8l6-40.2c0-8.4,7.9-15.2,17.6-15.2h16.5C61.3,34.3,64.5,36.1,67.2,37.5z"/>
	<path class="st0" d="M23,114.1c17.1-4.6,34.7-4.3,52.6-0.2c-3.2,2.9-7.7,4.7-12.7,4.7H35.4C30.6,118.6,26.2,116.9,23,114.1z"/>
	<path class="st0" d="M75.5,50.4l5,52.7l-60.2,0.3l54.5-57.2C75.3,47.5,75.5,49,75.5,50.4z"/>
	<path class="st1" d="M80.5,103.2l0,0.2c0,4.1-1.9,7.8-4.9,10.5c-19.1-3.6-37.2-4.8-52.6,0.2c-3.2-2.8-5.2-6.6-5.2-10.8V89.8
		l49.4-52.3c3.7,2,6.4,5.1,7.6,8.7l-54.5,57.2C38.6,98.8,59,99.5,80.5,103.2z"/>
	<path class="st0" d="M17.8,103.3c0,4.2,2,8,5.2,10.8l-13.7,0.1l0,0l-0.1,0l-9.2,0l0-7.1l17.8-17.4V103.3z"/>
	<path class="st0" d="M91.3,103.1l0.1,10.7l-15.7,0.1c3.1-2.7,4.9-6.5,4.9-10.5v-0.2L91.3,103.1z"/>
	<path class="st0" d="M67.2,37.5l12.3-12.4l9.3,7.1l-13.9,14C73.6,42.6,70.8,39.5,67.2,37.5z"/>
	<path class="st0" d="M34.8,155.1L34.8,155.1c-4.8,0.5-9.2-3.3-9.6-8.6l-2.5-27.6c-0.5-5.2,3.1-9.9,7.9-10.4l0,0
		c4.8-0.5,9.2,3.3,9.6,8.6l2.5,27.6C43.2,149.9,39.6,154.6,34.8,155.1z"/>
	<path class="st0" d="M61.7,156.2L61.7,156.2c-4.8-0.8-8.1-5.7-7.4-10.8l3.9-27.4c0.7-5.2,5.3-8.8,10.1-8h0
		c4.8,0.8,8.1,5.7,7.4,10.8l-3.9,27.4C71,153.4,66.5,157,61.7,156.2z"/>
</g>
</svg>
