<!-- Generator: Adobe Illustrator 19.1.0, SVG Export Plug-In  -->
<svg version="1.1"
	 xmlns="http://www.w3.org/2000/svg" xmlns:xlink="http://www.w3.org/1999/xlink" xmlns:a="http://ns.adobe.com/AdobeSVGViewerExtensions/3.0/"
	 x="0px" y="0px" width="120.1px" height="96.8px" viewBox="0 0 120.1 96.8"
	 style="overflow:scroll;enable-background:new 0 0 120.1 96.8;" xml:space="preserve">
<style type="text/css">
	.st0{opacity:0.5;fill:#CA2027;stroke:#FFFFFF;stroke-miterlimit:2.6131;}
</style>
<defs>
</defs>
<path class="st0" d="M50.9,89l0.2,0.6h-0.1c-0.2,0.2-0.6,0.4-1,0.6c0,0.4,0.3,0.9,0.3,1.3L50,91.7v0.6c-1.4,0.2-3.3,0.4-4.6,0.4
	c0-0.4-0.1-0.9-0.2-1.3l0.2-0.2V91c0.5-1-3-1.7-3.5-1.6L41.9,89c0.6-1.7-1.9-2.6-3.3-2.9l-0.4,0.2l-0.3,0.2c-2.9,0-1.8,0.6-3.5,2.3
	c-0.4,0-0.9-0.1-1.3,0c-0.3,1-2.1,1.8-3.1,2.2l-0.1-0.4l-0.2-0.4c-0.2,0.1-0.4,0.4-0.6,0.6C28.8,90,29,88.2,28.8,87l-3.1-1.4
	l-3.1,6.4l-1.9,0.2l-2,0.2l-1.3,3.9c-1.7-0.3-3.8-0.4-5.5-1c-1.8,0.8-3.2-0.8-4.7,0.2l-0.3-1.3c-0.3,0.5-1.5,0.7-2.1,0.4L4.6,95
	l-0.2,0.5C4,94.8,3.4,95,2.6,95c-0.2-0.2-0.6-0.2-0.8-0.2c0,0,0.1-1,0.1-1c-0.2-0.3,0-0.8,0-1.2v-0.2v-0.1c0,0,0-0.2-0.3-0.2
	l-0.3-0.1l-0.1-0.2v-0.1L1,91.7l0.1-0.1v-0.1l0.2,0.1c0,0,0.2-0.2,0.2-0.2c-0.1-0.2-0.2-0.2-0.2-0.5c0.1-0.1,0.2-0.2,0.2-0.4H1.3
	l-0.1-0.1c0-0.2,0-0.2-0.2-0.4c0-0.2,0.1-0.5,0.2-0.6L1,88.9l0.1-0.1h0.1l0.2-0.2c0-0.1,0-0.3,0-0.5l0.2-0.1V88l0.1-0.1l-0.1-0.1
	v-0.2l-0.2-0.1l-0.1-0.1l-0.1,0.1c-0.2,0-0.5-0.2-0.5-0.2l-0.2-0.2v-0.1h0.2L0.7,87c0.2,0,0.2,0,0.3,0.2l0.2,0.2h0.1l0.1-0.2
	c0.2,0,0.2-0.1,0.2-0.2l-0.1-0.1c0-0.2,0-0.9,0-1.1c-0.2-0.4,0.9-3,0.5-3l-0.1-0.1l0.2-0.1l0.1-0.2v-0.1c0-1.1,1.4-3.3,1.4-4.5
	c0.2-0.1,0.2-0.2,0.2-0.3c0.2-1,0.8-0.4,1.1-0.7c0.2-0.6,0.5-0.7,0.5-1.4c0-0.2,0-0.3,0.3-0.3l0.1-0.3c0-0.6-0.6-1.1-0.6-1.4
	C5.2,73,5,72.8,5,72.6c0-0.4,0.2-1.4-0.1-1.7L5,70.8v-0.1c0-0.1-0.2-0.5-0.2-0.5l-0.1-0.1c0-0.1-0.1-0.2,0.2-0.2L5,69.8v-0.1
	c0-1.4,0.7-2.4,0.4-3.7c-0.2-0.6-0.2-1.4-0.2-1.9C5.1,64,4.9,63.5,5,63.4l0.2,0.2h0.1l0.2,0.1v-0.1v-0.1l0.1-0.1v-0.1
	c-0.1-0.2,0-0.3-0.3-0.3c0,0-0.4-0.7-0.1-0.7l0.4-0.3h0.2c0.1-0.2,0.2-0.6,0.1-0.8l0.1-0.3l0.1-0.1c0-0.2,0.2-0.4,0.2-0.5v-0.2V60
	l0.5-0.2c0.2-0.6,0.1-1.1,0.1-1.7c-0.2-0.2-0.1-0.3-0.1-0.4l-0.2-0.1l-0.1-0.1c0,0,0.2-0.2,0.2-0.2c0-0.4-0.1-0.7-0.1-1l-0.1-0.2
	v-0.1c-0.1-0.1-0.3-0.4-0.4-0.5v-0.2l-0.1-0.1c0-0.2,0-0.6-0.1-0.7l0.1-0.2l-0.1-0.1H5.7c0,0-0.2-0.2-0.5-0.2c0-0.1,0.1-0.2-0.2-0.2
	L5,54H5c0-0.1,0.2-0.2,0.2-0.4c-0.1-0.2,0.1,0-0.2-0.3c-0.2-0.2-0.4-0.7-0.6-0.9c0.1-0.2,0.8-0.5,1-0.6c0-0.3-0.1-1-0.1-1.2
	c1-0.6,0.6-0.6,0.9-1.5h0.2L6.7,49c0.7-1,0.5-0.9,1.8-0.6c0.3-0.6-1-4.1-1.4-4.9c-0.1-0.1-0.7-1.3-0.7-1.3c0.2-0.8-0.2-1.3-0.1-1.6
	l-0.2-0.2L6,40.3c0.2-0.3,0.2-0.6-0.2-0.7l0.1-0.2l0.1-0.2l-0.2-0.2L5.6,39v-0.2c-0.1-0.1-0.7-0.6-0.7-0.8L5,37.8
	C5,37.5,5,37.1,5,36.7c0.3-0.2,0.4-0.3,0.4-0.8l0.2-0.2L6,35.5c0-0.6,0.2-0.9,0.6-1.3c1,0.1,1.4,1,2.2,1.4l1-0.8
	c0.6,0.7,1.1,0.8,1.9,0.5c3.3-3.2,4.8-4.9,9-5.6c0.4-0.9,0.5-1.5,0.6-2.3l0.4,0.1l0.2,0.2l0.3-0.1c2.2,0.7,2.1,0.4,2.1,3.5l1.1,0.2
	c0.5-1.4,0.6-3.7,2.5-3.7l0.1-1l0.6-0.1c1,1,1.4,0.8,2.1-0.2c0.6,0.3,1.4,1.2,2,1.5l0.2-0.2l0.6,0.4l0.5-0.4l0.2-0.3l-1.1-0.9
	l0.2-0.6c1.1,0.3,3.7-0.2,4.9-0.2L38.1,27h-2l0.1,0.6c0.6,0.2,3.1,0.9,3.6,0.8L40,28l0.6,0.2l2.3,1.7c0.7,0,4.5-1.5,4.5-1.9
	c-1.2-1-0.8-3.7,0.4-4.5v-0.3L47.4,21c0.6,0,1,0.5,1.5,0.7c1.6,0.3,1.9,1.6,2.8,2.5c0.6,0.2,0.6,0.6,1,1.1c0.8-0.8,1.3-1.9,1.6-2.9
	c0.5,0.5,0.9,1,1.5,1.4l1.1-1.4c1.7-0.6,1.4,1.7,2.8-0.8c0.6-0.2,1.8-0.2,2.1-0.6l-0.2-1.3h0.2l1.2-0.3c0-2.9,0.6-7,1-9.8
	c2.5,0.8,4.4,1.4,6.6,2.9c0.5,0.2,1.7,1.2,2.1,1.2l0.1-0.2l0.4-0.9l0.1,0.1h0.2l0.2,0.3l0.6,0.4c0-0.3,0.1-1,0.3-1.3l0.2,0.1
	l0.2,0.4l0.1,0.1l0.5,0.1c0.4,0.9,0.7,1.5,0.9,2.5c0.3,0.2,0.8,0.3,1.4,0.2c0.2-0.6,0.5-1.7,0.7-2.5c-1,0-0.7-1.4-1-2.1
	c-0.7-0.6-1.3-2.4-1.4-3.5l0.9-1l0.2,0.1l0.7,0.6L79,6.7V5.8c1.1-0.2,0.6-0.7,2.2-0.7C81.5,4.9,82,4,82,3.6L82.1,3l3-1.7l1-0.4
	l1.3,0.7l1.6-1c0.2,0.3,0.5,2,0.5,2.6c0.2,0.6-0.1,1.5,0.1,2.2l0.2,0.1c0,0.2,0.2,1.2,0.2,1.3l0.2,0.2v0.3l-0.1,0.2
	c0.2,0.3,0.6,1,0.8,1.2c0.6,0.8,1.5,3.3,2.3,3.7c1.1,0.6,0.6,2.2,0.6,3.3c0.3,2.3,0.8,6.2,1.7,8.2c1,1,1,2.7,1.4,3.9
	c0,2.2,0.6,4.3,0.6,6.6c0.2,0.6,0.6,2.9,0.1,3.3l0.2,0.2v0.1c0,0.2,0.1,0.7,0,0.8c-0.2,0.2-0.9,1.1,0.2,1.1l0.1,0.1
	c0.2,0,0.5,0,0.6,0.1c-0.2,0.2-0.2,0.4-0.3,0.6l0.1,0.1c0,0.1-0.3,0.6-0.3,0.6c-0.1,0.2-0.8,1-0.4,1.4l0.2,0.2l0.1,0.1l-0.2,0.2
	c0.1,0.2,0.4,0.6,0.6,0.9c0,0,0.6,0.7,0.7,0.7l0.1,0.1l0.1,0.1c0,0.4-0.2,0.9,0.2,1.2l0.2,0.2l0.1,0.1c0.1,0.2,0.3,0.6,0.6,0.6h0.2
	h0.2c0.1,0.1,0.2,0.2,0.5,0.3v0.2h0.1l0.1,0.1c0.2-0.1,1-0.1,1.1-0.1c0.3-0.5,0.2-0.6,0.7-0.9v-0.3h-0.2c0-0.1-0.5-0.6-0.6-0.8
	c-0.1-0.2-0.1-0.8,0.2-0.8c1.9,0.5,3.7,1.1,5.6,1.6c1.2,1.2,4.9,4.4,6.8,4.4c0,0.2-0.1,0.5-0.2,0.5l-0.1,0.2v0.2h-0.2l-0.1,0.2
	c-0.3,0-1.2,0.2-1.4,0.3h-0.2h-0.1l-0.1-0.1h-0.1c-0.9,0.4-0.5,1.4,0.2,1.7c0.2,0.3,0.5,0.6,0.5,1.2c0,0.6,0.4,1.1,0.2,1.6l0.1,0.2
	c0,1.1,1.1,2.8,1.1,3.9l-0.3,0.5c-0.2,0-0.4,0-0.5,0.1l-0.5,0.2l-0.2,0.1c-0.4,0.8,0,0.7,0,1.4l0.1,0.3c0.4,0.8,0.8,1,1.4,1.4
	c0.7,0.7,1.1,3.2,2.2,3.2l0.1,0.1c0,0-0.1,0.3-0.1,0.5l0.1,0.1l0.1,0.1v0.2c1.4,0.9,1.7,2.3,2.2,3.8l-0.2-0.1l-0.2,0.2
	c-0.4,0.4-0.6,2.5-0.1,2.5c0.2,0.3,0.9,3.7,0.9,3.7h-0.3c-2.9-1-4.3,0.5-5.4-2.9l-0.6,0.2l-0.6-0.2l-1,0.9l-2.5-1.5l-0.6,0.6
	l-3.2-0.5l-3.3-0.6l0.3-3.4l-2.9-0.6l0.1-1.2l-0.2-0.2c-1.1,1.1-3.4,0.8-5,0.8l0.2,0.6c-1.6,0-3.1-0.5-3.1-2.4l-1.4,0.2v2.5
	l-1.2,0.2v-0.6l-3.3,0.7c-0.2-0.6-0.6-1.4-0.6-1.9l-0.2-0.1L84.1,69l-0.2,0.2h-0.2l-0.2-0.4l-0.2,0.1c0-0.2,0-0.5-0.1-0.6
	c-0.4-0.1-0.6,0.1-1,0.1c0.2,0.5,0.2,0.9-0.2,1c0,0.4,0.2,1.4-0.1,1.7c-0.4,1.2,0.6,1.7-0.9,3.2c-0.2-0.1-0.7-0.8-1-0.8l-1.7,1
	L77.8,75l-1-0.8l0.3-1.6L77,72.5l-0.2-0.2c-0.2,0.2-0.6,0.4-0.8,0.5c-0.1,0-1-0.6-1.2-0.6l-0.6,1L74,73.1l-0.6-0.2
	c-0.2,0.4-0.4,1.4-0.6,2c-1.6,0-1.2-1.5-1.1-2.5l-1.4-0.7L69.9,72l-0.2,0.2c-1.8,0.9-2.5,4.5-2.5,6.5c-1.6,0.6-1.7,3.3-2.9,3.6
	c-2-1-2.3,0.6-3.7,1.4l-0.2-0.3L60,83.2l-0.2,0.2l-0.3,0.1l-0.2,0.7l-0.4-0.1l-0.1,0.4L58.3,85L58,84.4l-1,0.5c0,0.2,0,1-0.2,1h-0.2
	h-0.2l-0.1-0.5l0.4-0.7l-0.2-0.3l-0.2-1.9c-0.1-0.1-0.6-0.5-0.7-0.6c-1,0.3-2,1.1-2.8,1.9l0.2,0.3l-0.2,0.9c-1-0.3-2.9-1.5-3.7-1.3
	c-0.6,0.9,0.3,1.2,0.3,2.1l-0.2,0.1l1.3,1.7l-0.1,0.2h-0.4h-0.3c-0.1,0.6,0.1,1.1,0.6,1.4v0.2L50.9,89L50.9,89z"/>
</svg>
