<!-- Generator: Adobe Illustrator 19.1.0, SVG Export Plug-In  -->
<svg version="1.1"
	 xmlns="http://www.w3.org/2000/svg" xmlns:xlink="http://www.w3.org/1999/xlink" xmlns:a="http://ns.adobe.com/AdobeSVGViewerExtensions/3.0/"
	 x="0px" y="0px" width="722.3px" height="260.3px" viewBox="0 0 722.3 260.3"
	 style="overflow:scroll;enable-background:new 0 0 722.3 260.3;" xml:space="preserve">
<style type="text/css">
	.st0{fill:none;stroke:#CA2027;stroke-width:2;stroke-linecap:round;stroke-miterlimit:10;}
	.st1{fill:#CA2027;}
</style>
<defs>
</defs>
<g>
	<g>
		<g>
			<line class="st0" x1="35.6" y1="194.8" x2="3" y2="215"/>
			<line class="st0" x1="68.1" y1="152.4" x2="35.6" y2="194.8"/>
			<line class="st0" x1="100.7" y1="144.3" x2="68.1" y2="152.4"/>
			<line class="st0" x1="133.2" y1="148.3" x2="100.7" y2="144.3"/>
			<line class="st0" x1="165.8" y1="144.3" x2="133.2" y2="148.3"/>
			<line class="st0" x1="198.4" y1="97.9" x2="165.8" y2="144.3"/>
			<line class="st0" x1="230.9" y1="47.4" x2="198.4" y2="97.9"/>
			<line class="st0" x1="263.5" y1="81.7" x2="230.9" y2="47.4"/>
			<line class="st0" x1="296" y1="118.1" x2="263.5" y2="81.7"/>
			<line class="st0" x1="328.6" y1="132.2" x2="296" y2="118.1"/>
			<line class="st0" x1="361.2" y1="138.2" x2="328.6" y2="132.2"/>
			<line class="st0" x1="393.7" y1="182.7" x2="361.2" y2="138.2"/>
			<line class="st0" x1="426.3" y1="229.1" x2="393.7" y2="182.7"/>
			<line class="st0" x1="458.8" y1="257.3" x2="426.3" y2="229.1"/>
			<line class="st0" x1="491.4" y1="241.2" x2="458.8" y2="257.3"/>
			<line class="st0" x1="524" y1="69.6" x2="491.4" y2="241.2"/>
			<line class="st0" x1="556.5" y1="3" x2="524" y2="69.6"/>
			<line class="st0" x1="589.1" y1="95.9" x2="556.5" y2="3"/>
			<line class="st0" x1="621.6" y1="144.3" x2="589.1" y2="95.9"/>
			<line class="st0" x1="654.2" y1="172.6" x2="621.6" y2="144.3"/>
			<line class="st0" x1="686.8" y1="198.8" x2="654.2" y2="172.6"/>
			<line class="st0" x1="719.3" y1="225.1" x2="686.8" y2="198.8"/>
		</g>
	</g>
</g>
<g>
	<g>
		<g>
			<rect y="212" class="st1" width="6" height="6"/>
			<rect x="32.6" y="191.8" class="st1" width="6" height="6"/>
			<rect x="65.1" y="149.4" class="st1" width="6" height="6"/>
			<rect x="97.7" y="141.3" class="st1" width="6" height="6"/>
			<rect x="130.2" y="145.3" class="st1" width="6" height="6"/>
			<rect x="162.8" y="141.3" class="st1" width="6" height="6"/>
			<rect x="195.4" y="94.9" class="st1" width="6" height="6"/>
			<rect x="227.9" y="44.4" class="st1" width="6" height="6"/>
			<rect x="260.5" y="78.7" class="st1" width="6" height="6"/>
			<rect x="293" y="115.1" class="st1" width="6" height="6"/>
			<rect x="325.6" y="129.2" class="st1" width="6" height="6"/>
			<rect x="358.2" y="135.2" class="st1" width="6" height="6"/>
			<rect x="390.7" y="179.7" class="st1" width="6" height="6"/>
			<rect x="423.3" y="226.1" class="st1" width="6" height="6"/>
			<rect x="455.8" y="254.3" class="st1" width="6" height="6"/>
			<rect x="488.4" y="238.2" class="st1" width="6" height="6"/>
			<rect x="521" y="66.6" class="st1" width="6" height="6"/>
			<rect x="553.5" class="st1" width="6" height="6"/>
			<rect x="586.1" y="92.9" class="st1" width="6" height="6"/>
			<rect x="618.6" y="141.3" class="st1" width="6" height="6"/>
			<rect x="651.2" y="169.6" class="st1" width="6" height="6"/>
			<rect x="683.8" y="195.8" class="st1" width="6" height="6"/>
			<rect x="716.3" y="222.1" class="st1" width="6" height="6"/>
		</g>
	</g>
</g>
</svg>
