<!-- Generator: Adobe Illustrator 19.1.0, SVG Export Plug-In  -->
<svg version="1.1"
	 xmlns="http://www.w3.org/2000/svg" xmlns:xlink="http://www.w3.org/1999/xlink" xmlns:a="http://ns.adobe.com/AdobeSVGViewerExtensions/3.0/"
	 x="0px" y="0px" width="832px" height="154px" viewBox="0 0 832 154" style="overflow:scroll;enable-background:new 0 0 832 154;"
	 xml:space="preserve">
<style type="text/css">
	.st0{fill:#DCD3BE;}
</style>
<defs>
</defs>
<g>
	<g>
		<rect y="22.7" class="st0" width="26.4" height="79.4"/>
		<rect x="36.6" y="20.4" class="st0" width="26.4" height="67.9"/>
		<rect x="73.2" class="st0" width="26.4" height="103.8"/>
		<rect x="109.9" y="1" class="st0" width="26.4" height="102.8"/>
		<rect x="146.5" y="6.4" class="st0" width="26.4" height="101.4"/>
		<rect x="183.1" y="13.6" class="st0" width="26.4" height="102.8"/>
		<rect x="219.7" y="11.9" class="st0" width="26.4" height="103.8"/>
		<rect x="256.3" y="17.6" class="st0" width="26.4" height="101.4"/>
		<rect x="293" y="28.2" class="st0" width="26.4" height="90.2"/>
		<rect x="329.6" y="39" class="st0" width="26.4" height="86.2"/>
		<rect x="366.2" y="33.9" class="st0" width="26.4" height="78"/>
		<rect x="402.8" y="28.2" class="st0" width="26.4" height="78.4"/>
		<rect x="439.4" y="37.3" class="st0" width="26.4" height="79.4"/>
		<rect x="476.1" y="35.6" class="st0" width="26.4" height="82.4"/>
		<rect x="512.7" y="45.1" class="st0" width="26.4" height="83.5"/>
		<rect x="549.3" y="43.1" class="st0" width="26.4" height="86.5"/>
		<rect x="585.9" y="50.9" class="st0" width="26.4" height="86.2"/>
		<rect x="622.5" y="60" class="st0" width="26.4" height="82.8"/>
		<rect x="659.1" y="66.2" class="st0" width="26.4" height="79.4"/>
		<rect x="695.8" y="69.9" class="st0" width="26.4" height="76.3"/>
		<rect x="732.4" y="69.2" class="st0" width="26.4" height="78"/>
		<rect x="769" y="70.6" class="st0" width="26.4" height="72.3"/>
		<rect x="805.6" y="91.3" class="st0" width="26.4" height="62.8"/>
	</g>
</g>
</svg>
