<!-- Generator: Adobe Illustrator 19.1.0, SVG Export Plug-In  -->
<svg version="1.1"
	 xmlns="http://www.w3.org/2000/svg" xmlns:xlink="http://www.w3.org/1999/xlink" xmlns:a="http://ns.adobe.com/AdobeSVGViewerExtensions/3.0/"
	 x="0px" y="0px" width="772.3px" height="358.3px" viewBox="0 0 772.3 358.3"
	 style="overflow:scroll;enable-background:new 0 0 772.3 358.3;" xml:space="preserve">
<style type="text/css">
	.st0{fill:#B4C1BC;}
</style>
<defs>
</defs>
<g>
	<g>
		<g>
			<rect y="346.5" class="st0" width="23.4" height="11.8"/>
			<rect x="32.6" y="335.4" class="st0" width="23.4" height="22.9"/>
			<rect x="65.1" y="321" class="st0" width="23.4" height="37.3"/>
			<rect x="97.7" y="307.3" class="st0" width="23.4" height="51"/>
			<rect x="130.2" y="294.2" class="st0" width="23.4" height="64.2"/>
			<rect x="162.8" y="281.5" class="st0" width="23.4" height="76.8"/>
			<rect x="195.4" y="269.6" class="st0" width="23.4" height="88.7"/>
			<rect x="227.9" y="262.9" class="st0" width="23.4" height="95.4"/>
			<rect x="260.5" y="252.8" class="st0" width="23.4" height="105.5"/>
			<rect x="293" y="239.8" class="st0" width="23.4" height="118.5"/>
			<rect x="325.6" y="226.1" class="st0" width="23.4" height="132.2"/>
			<rect x="358.2" y="213.8" class="st0" width="23.4" height="144.5"/>
			<rect x="390.7" y="201.6" class="st0" width="23.4" height="156.7"/>
			<rect x="423.3" y="184.7" class="st0" width="23.4" height="173.6"/>
			<rect x="455.8" y="156" class="st0" width="23.4" height="202.3"/>
			<rect x="488.4" y="114.6" class="st0" width="23.4" height="243.8"/>
			<rect x="521" y="80.7" class="st0" width="23.4" height="277.6"/>
			<rect x="553.5" y="94.6" class="st0" width="23.4" height="263.7"/>
			<rect x="586.1" y="91.7" class="st0" width="23.4" height="266.6"/>
			<rect x="618.6" y="76" class="st0" width="23.4" height="282.3"/>
			<rect x="651.2" y="59.9" class="st0" width="23.4" height="298.4"/>
			<rect x="683.8" y="39" class="st0" width="23.4" height="319.3"/>
			<rect x="716.3" y="20.2" class="st0" width="23.4" height="338.1"/>
			<rect x="748.9" class="st0" width="23.4" height="358.3"/>
		</g>
	</g>
</g>
</svg>
