<!-- Generator: Adobe Illustrator 22.1.0, SVG Export Plug-In  -->
<svg version="1.1"
	 xmlns="http://www.w3.org/2000/svg" xmlns:xlink="http://www.w3.org/1999/xlink" xmlns:a="http://ns.adobe.com/AdobeSVGViewerExtensions/3.0/"
	 x="0px" y="0px" width="89.3px" height="73.3px" viewBox="0 0 89.3 73.3" style="enable-background:new 0 0 89.3 73.3;"
	 xml:space="preserve">
<style type="text/css">
	.st0{fill:#323232;}
</style>
<defs>
</defs>
<g>
	<path class="st0" d="M64.5,37H39.6c-5.7,0-10.3,4.6-10.3,10.3V52H36v-4.7c0-2,1.6-3.6,3.6-3.6h24.9c2,0,3.6,1.6,3.6,3.6v10.8h6.7
		V47.3C74.8,41.6,70.1,37,64.5,37z"/>
	<rect x="50.3" y="34.5" class="st0" width="2.8" height="2.8"/>
	<rect x="50.4" y="59.7" class="st0" width="32.4" height="6.7"/>
	<rect x="8.9" y="59.7" class="st0" width="6.2" height="6.7"/>
	<g>
		<path class="st0" d="M29.1,72.4h-4.3c-2.7,0-5.2-1.4-6.6-3.7L17,66.7c-0.1-0.2-0.2-0.4-0.2-0.6v-6.2c0-0.2,0.1-0.4,0.2-0.6
			l1.2-1.9c1.4-2.3,3.9-3.7,6.6-3.7h4.3V72.4z"/>
		<path class="st0" d="M28.3,72.4h12.4c2.7,0,5.2-1.4,6.6-3.7l1.2-1.9c0.1-0.2,0.2-0.4,0.2-0.6v-6.2c0-0.2-0.1-0.4-0.2-0.6l-1.2-1.9
			c-1.4-2.3-3.9-3.7-6.6-3.7H28.3V72.4z"/>
	</g>
	<path class="st0" d="M76,14.2H40.7c-1.1,2-2.8,3.7-5,4.7c-5.1,2.3-11,0.1-13.5-4.7h-8.9c-5.6,0-10.1,4.5-10.1,10.1v48.9h6.7V24.4
		c0-1.9,1.5-3.4,3.4-3.4H76c1.9,0,3.4,1.5,3.4,3.4v48.9h6.7V24.4C86.1,18.8,81.6,14.2,76,14.2z"/>
	<g>
		<g>
			<polygon class="st0" points="29.6,8.8 32.2,7.6 28.9,1.8 27.4,2.4 			"/>
			<polygon class="st0" points="32.1,7.6 33.3,10.2 39.1,6.9 38.5,5.4 			"/>
			<polygon class="st0" points="33.3,10.1 30.7,11.3 34,17.1 35.4,16.5 			"/>
			<polygon class="st0" points="30.8,11.3 29.6,8.7 23.8,12 24.4,13.5 			"/>
		</g>
		<g>
			<path class="st0" d="M22.8,13.3c2.1,4.8,7.7,6.9,12.5,4.8c4.8-2.1,6.9-7.7,4.8-12.5c-2.1-4.8-7.7-6.9-12.5-4.8
				C22.8,2.9,20.7,8.5,22.8,13.3z M24.9,12.4c-1.6-3.6,0-7.9,3.6-9.5c3.6-1.6,7.9,0,9.5,3.6c1.6,3.6,0,7.9-3.6,9.5
				C30.7,17.6,26.5,16,24.9,12.4z"/>
		</g>
		<path class="st0" d="M28.6,10.7c0.7,1.6,2.6,2.3,4.2,1.6c1.6-0.7,2.3-2.6,1.6-4.2c-0.7-1.6-2.6-2.3-4.2-1.6
			C28.6,7.3,27.9,9.1,28.6,10.7z"/>
	</g>
	<path class="st0" d="M44.6,24.1c-0.8,0-1.5-0.7-1.5-1.5v-10c0-0.8,0.7-1.5,1.5-1.5c0.8,0,1.5,0.7,1.5,1.5v10
		C46.1,23.5,45.5,24.1,44.6,24.1z"/>
	<g>
		<path class="st0" d="M18.2,24.1c-0.8,0-1.5-0.7-1.5-1.5v-10c0-0.8,0.7-1.5,1.5-1.5c0.8,0,1.5,0.7,1.5,1.5v10
			C19.7,23.5,19.1,24.1,18.2,24.1z"/>
		<path class="st0" d="M11.6,31.2H1.5c-0.8,0-1.5-0.7-1.5-1.5c0-0.8,0.7-1.5,1.5-1.5h10.1c0.8,0,1.5,0.7,1.5,1.5
			C13.1,30.6,12.4,31.2,11.6,31.2z"/>
	</g>
	<path class="st0" d="M71.7,24.1c-0.8,0-1.5-0.7-1.5-1.5v-10c0-0.8,0.7-1.5,1.5-1.5c0.8,0,1.5,0.7,1.5,1.5v10
		C73.2,23.5,72.5,24.1,71.7,24.1z"/>
	<path class="st0" d="M87.8,31.2H77.7c-0.8,0-1.5-0.7-1.5-1.5c0-0.8,0.7-1.5,1.5-1.5h10.1c0.8,0,1.5,0.7,1.5,1.5
		C89.3,30.6,88.6,31.2,87.8,31.2z"/>
	<g>
		<path class="st0" d="M51.7,26.8c-2.2,0-4,1.8-4,4s1.8,4,4,4c2.2,0,4-1.8,4-4S53.9,26.8,51.7,26.8z M51.7,34
			c-1.7,0-3.1-1.4-3.1-3.1c0-1.7,1.4-3.1,3.1-3.1c1.7,0,3.1,1.4,3.1,3.1C54.8,32.6,53.4,34,51.7,34z"/>
		<path class="st0" d="M51.4,31.7L50.9,30c0-0.1,0-0.2,0.1-0.2c0.1,0,0.2,0,0.2,0.1l0.7,1.6c0.1,0.2,0,0.3-0.2,0.4
			C51.7,31.9,51.5,31.9,51.4,31.7C51.4,31.7,51.4,31.7,51.4,31.7z"/>
		<path class="st0" d="M52.3,31.6c0,0.3-0.3,0.6-0.6,0.6c-0.3,0-0.6-0.3-0.6-0.6c0-0.3,0.3-0.6,0.6-0.6C52,31.1,52.3,31.3,52.3,31.6
			z"/>
		<path class="st0" d="M53.4,32.1C53.4,32.1,53.4,32.1,53.4,32.1c-0.2-0.1-0.2-0.2-0.1-0.2c0.2-0.3,0.3-0.7,0.3-1
			c0-1-0.9-1.9-1.9-1.9c-1,0-1.9,0.9-1.9,1.9c0,0.4,0.1,0.7,0.3,1c0,0.1,0,0.2,0,0.2c-0.1,0-0.2,0-0.2,0c-0.2-0.4-0.4-0.8-0.4-1.2
			c0-1.2,1-2.2,2.2-2.2c1.2,0,2.2,1,2.2,2.2c0,0.4-0.1,0.8-0.4,1.2C53.5,32.1,53.5,32.1,53.4,32.1z"/>
		<path class="st0" d="M51.7,28.9c-0.1,0-0.2-0.1-0.2-0.2v-0.4c0-0.1,0.1-0.2,0.2-0.2c0.1,0,0.2,0.1,0.2,0.2v0.4
			C52,28.8,51.8,28.9,51.7,28.9z"/>
		<path class="st0" d="M50,29.9c0,0-0.1,0-0.1,0l-0.4-0.2c-0.1-0.1-0.1-0.2-0.1-0.3c0.1-0.1,0.2-0.1,0.3-0.1l0.4,0.2
			c0.1,0.1,0.1,0.2,0.1,0.3C50.1,29.9,50,29.9,50,29.9z"/>
		<path class="st0" d="M49.7,32.5c-0.1,0-0.1,0-0.2-0.1c-0.1-0.1-0.1-0.3,0-0.3l0.3-0.2c0.1-0.1,0.3-0.1,0.3,0
			c0.1,0.1,0.1,0.3,0,0.3l-0.3,0.2C49.8,32.5,49.7,32.5,49.7,32.5z"/>
		<path class="st0" d="M53.5,29.9c-0.1,0-0.2,0-0.2-0.1c-0.1-0.1,0-0.3,0.1-0.3l0.4-0.2c0.1-0.1,0.3,0,0.3,0.1
			c0.1,0.1,0,0.3-0.1,0.3l-0.4,0.2C53.6,29.9,53.5,29.9,53.5,29.9z"/>
		<path class="st0" d="M53.8,32.5c-0.1,0-0.1,0-0.2-0.1l-0.3-0.2c-0.1-0.1-0.1-0.2,0-0.3c0.1-0.1,0.2-0.1,0.3,0l0.3,0.2
			c0.1,0.1,0.1,0.2,0,0.3C53.9,32.5,53.8,32.5,53.8,32.5z"/>
	</g>
</g>
</svg>
