<!-- Generator: Adobe Illustrator 22.1.0, SVG Export Plug-In  -->
<svg version="1.1"
	 xmlns="http://www.w3.org/2000/svg" xmlns:xlink="http://www.w3.org/1999/xlink" xmlns:a="http://ns.adobe.com/AdobeSVGViewerExtensions/3.0/"
	 x="0px" y="0px" width="89.4px" height="72.8px" viewBox="0 0 89.4 72.8" style="enable-background:new 0 0 89.4 72.8;"
	 xml:space="preserve">
<style type="text/css">
	.st0{fill:#323232;}
</style>
<defs>
</defs>
<path class="st0" d="M15.4,70.1H5.7V27.5c0-1.1,0.9-1.9,1.9-1.9h5.9c1.1,0,1.9,0.9,1.9,1.9V70.1z"/>
<path class="st0" d="M8.2,16.6h4.8v-2.5H8.2V16.6z M8.2,10.5h4.8V8H8.2V10.5z M10.6,0C9.2,0,8.2,1.1,8.2,2.4v2h4.8v-2
	C12.9,1.1,11.9,0,10.6,0z M8.2,24.6h4.8v-4.4H8.2V24.6z"/>
<g>
	<path class="st0" d="M13.1,7.4h-5c-0.6,0-1.1-0.5-1.1-1.1s0.5-1.1,1.1-1.1h5c0.6,0,1.1,0.5,1.1,1.1S13.7,7.4,13.1,7.4z"/>
	<path class="st0" d="M13.1,13.5h-5c-0.6,0-1.1-0.5-1.1-1.1s0.5-1.1,1.1-1.1h5c0.6,0,1.1,0.5,1.1,1.1S13.7,13.5,13.1,13.5z"/>
	<path class="st0" d="M13.1,19.6h-5c-0.6,0-1.1-0.5-1.1-1.1c0-0.6,0.5-1.1,1.1-1.1h5c0.6,0,1.1,0.5,1.1,1.1
		C14.2,19,13.7,19.6,13.1,19.6z"/>
</g>
<path class="st0" d="M89.4,72.8H0v-1.6c0-0.6,0.5-1.1,1.1-1.1h87.2c0.6,0,1.1,0.5,1.1,1.1V72.8z"/>
<path class="st0" d="M2,70.1H1.1V31.7c0-1.3,1.1-2.4,2.4-2.4h2.2v0.9H3.5c-0.8,0-1.5,0.7-1.5,1.5V70.1z"/>
<g>
	<rect x="1.5" y="33.3" class="st0" width="4.2" height="0.9"/>
	<rect x="1.5" y="37.5" class="st0" width="4.2" height="0.9"/>
	<rect x="1.5" y="41.6" class="st0" width="4.2" height="0.9"/>
	<rect x="1.5" y="45.8" class="st0" width="4.2" height="0.9"/>
	<rect x="1.5" y="49.9" class="st0" width="4.2" height="0.9"/>
	<rect x="1.5" y="54.1" class="st0" width="4.2" height="0.9"/>
	<rect x="1.5" y="58.2" class="st0" width="4.2" height="0.9"/>
	<rect x="1.5" y="62.4" class="st0" width="4.2" height="0.9"/>
	<rect x="1.5" y="66.5" class="st0" width="4.2" height="0.9"/>
</g>
<path class="st0" d="M17.6,59.5h19.5v-5.6H17.6V59.5z M27.4,39.7c-5.4,0-9.8,4.4-9.8,9.8v0.8h19.5v-0.8
	C37.1,44.1,32.8,39.7,27.4,39.7z M17.6,70.1h19.5v-6.9H17.6V70.1z"/>
<path class="st0" d="M37.2,53.3H17.6c-0.6,0-1.1-0.5-1.1-1.1l0,0c0-0.6,0.5-1.1,1.1-1.1h19.6c0.6,0,1.1,0.5,1.1,1.1l0,0
	C38.3,52.8,37.8,53.3,37.2,53.3z"/>
<path class="st0" d="M37.2,62.5H17.6c-0.6,0-1.1-0.5-1.1-1.1l0,0c0-0.6,0.5-1.1,1.1-1.1h19.6c0.6,0,1.1,0.5,1.1,1.1l0,0
	C38.3,62,37.8,62.5,37.2,62.5z"/>
<path class="st0" d="M28.7,40.7H26v-4c0-3-2.5-5.5-5.5-5.5h-6.3v-2.7h6.3c4.5,0,8.2,3.7,8.2,8.2V40.7z"/>
<g>
	<polygon class="st0" points="53.2,70.7 49.5,16.3 44.8,16.3 41.1,70.7 39.3,70.5 43.1,14.5 51.2,14.5 55,70.5 	"/>
	<g>
		<rect x="47" y="14" transform="matrix(0.7492 -0.6624 0.6624 0.7492 -0.8956 36.2715)" class="st0" width="0.9" height="10.5"/>
		
			<rect x="41.6" y="18.9" transform="matrix(0.6618 -0.7496 0.7496 0.6618 1.3749 41.6844)" class="st0" width="10.5" height="0.9"/>
	</g>
	<g>
		<rect x="47" y="21.6" transform="matrix(0.6995 -0.7146 0.7146 0.6995 -5.1966 42.0747)" class="st0" width="0.9" height="11.3"/>
		
			<rect x="41.3" y="26.8" transform="matrix(0.7149 -0.6992 0.6992 0.7149 -5.659 40.5549)" class="st0" width="11.3" height="0.9"/>
	</g>
	<g>
		<rect x="47" y="29.1" transform="matrix(0.654 -0.7565 0.7565 0.654 -10.1535 48.0299)" class="st0" width="0.9" height="12.1"/>
		
			<rect x="40.9" y="34.7" transform="matrix(0.7561 -0.6545 0.6545 0.7561 -11.5427 39.2594)" class="st0" width="12.1" height="0.9"/>
	</g>
	<g>
		<rect x="47" y="36.6" transform="matrix(0.6121 -0.7908 0.7908 0.6121 -15.616 54.1926)" class="st0" width="0.9" height="12.9"/>
		
			<rect x="40.5" y="42.6" transform="matrix(0.7903 -0.6128 0.6128 0.7903 -16.5203 37.7633)" class="st0" width="12.9" height="0.9"/>
	</g>
	<g>
		<rect x="47" y="44" transform="matrix(0.5742 -0.8187 0.8187 0.5742 -21.485 60.5139)" class="st0" width="0.9" height="13.8"/>
		
			<rect x="40" y="50.5" transform="matrix(0.8186 -0.5743 0.5743 0.8186 -20.7336 36.1711)" class="st0" width="13.8" height="0.9"/>
	</g>
	<g>
		<polygon class="st0" points="53.4,63.1 41,55.2 41.5,54.5 53.9,62.4 		"/>
		
			<rect x="39.6" y="58.4" transform="matrix(0.8421 -0.5394 0.5394 0.8421 -24.3141 34.5838)" class="st0" width="14.6" height="0.9"/>
	</g>
	<g>
		
			<rect x="47" y="58.9" transform="matrix(0.5048 -0.8632 0.8632 0.5048 -34.0725 73.9608)" class="st0" width="0.9" height="15.5"/>
		
			<rect x="39.1" y="66.2" transform="matrix(0.8636 -0.5041 0.5041 0.8636 -27.2173 32.7402)" class="st0" width="15.5" height="0.9"/>
	</g>
</g>
<rect x="41.6" y="10.8" class="st0" width="11.1" height="3"/>
<path class="st0" d="M56.6,39.2v30.9h7.9V59.3c0-0.7,0.5-1.2,1.2-1.2h0c0.7,0,1.2,0.5,1.2,1.2v10.8h2.5V59.3c0-0.7,0.5-1.2,1.2-1.2
	c0.7,0,1.2,0.5,1.2,1.2v10.8h7.9V39.2H56.6z M66.9,49.4h-7.3v-7.3h7.3V49.4z M76.5,49.4h-7.3v-7.3h7.3V49.4z"/>
<rect x="52.7" y="40.7" class="st0" width="4.1" height="2.7"/>
<rect x="52.7" y="48" class="st0" width="4.1" height="2.7"/>
<path class="st0" d="M87.6,70.1h-2.7V46c0-1.4-1.1-2.5-2.5-2.5h-2.7v-2.7h2.7c2.9,0,5.2,2.4,5.2,5.2V70.1z"/>
<path class="st0" d="M87.6,53.3h-2.7c0-1.4-1.1-2.5-2.5-2.5h-2.7V48h2.7C85.2,48,87.6,50.4,87.6,53.3z"/>
<path class="st0" d="M69.4,9.3h5.1c1.1,0,2,0.9,2,2v27.9h-9.1V11.3C67.4,10.2,68.3,9.3,69.4,9.3z"/>
<path class="st0" d="M74,8.4h-4.1V6.7c0-0.5,0.4-0.9,0.9-0.9h2.4c0.5,0,0.9,0.4,0.9,0.9V8.4z"/>
<path class="st0" d="M64.4,39.7c-0.3,0-0.5-0.2-0.5-0.5V10.8c0-0.3,0.2-0.5,0.5-0.5c0.3,0,0.5,0.2,0.5,0.5v28.4
	C64.9,39.5,64.7,39.7,64.4,39.7z"/>
<g>
	<rect x="64.4" y="13.1" class="st0" width="3" height="0.9"/>
	<rect x="64.4" y="20.2" class="st0" width="3" height="0.9"/>
	<rect x="64.4" y="27.4" class="st0" width="3" height="0.9"/>
	<rect x="64.4" y="34.5" class="st0" width="3" height="0.9"/>
</g>
</svg>
