<!-- Generator: Adobe Illustrator 22.1.0, SVG Export Plug-In  -->
<svg version="1.1"
	 xmlns="http://www.w3.org/2000/svg" xmlns:xlink="http://www.w3.org/1999/xlink" xmlns:a="http://ns.adobe.com/AdobeSVGViewerExtensions/3.0/"
	 x="0px" y="0px" width="148.6px" height="211.2px" viewBox="0 0 148.6 211.2" style="enable-background:new 0 0 148.6 211.2;"
	 xml:space="preserve">
<style type="text/css">
	.st0{fill:#B0C2BD;}
	.st1{fill:#312D2A;}
	.st2{fill:#3B685B;}
	.st3{opacity:0.11;fill:#FFFFFF;}
	.st4{fill:#4C7267;}
	.st5{fill:#FFFFFF;}
	.st6{fill:#E2E419;}
	.st7{opacity:0.6;fill:#AC1F23;}
</style>
<defs>
</defs>
<g>
	<g>
		<path class="st0" d="M40.1,118.3L25.9,107c0.5-3-0.6-6.1-3.1-8.1c-2.6-2.1-6-2.4-8.8-1.1l3.7,3c1.6,1.3,1.8,3.6,0.6,5.2
			s-3.6,1.8-5.2,0.6l-3.8-3.1c-0.8,3.1,0.3,6.5,2.9,8.7c2.5,2,5.8,2.4,8.6,1.2L35,124.7c-0.5,3,0.6,6.1,3.1,8.1
			c2.7,2.1,6.2,2.4,9.1,0.9l-2.6-2.1c-1.6-1.3-1.8-3.6-0.6-5.2c1.3-1.6,3.6-1.8,5.2-0.6l2.5,2c0.6-3-0.4-6.3-3-8.4
			C46.2,117.5,42.9,117.1,40.1,118.3z"/>
		<path class="st1" d="M52.2,83.6l-14.7,37.2c-3.2,9.9-18.3,5.7-14.6-4.9C28.3,97,37.7,76.8,43.3,59.7c0.9-2.8,3.6-4.8,6.6-4.8
			l36.7,0l14.4,0c3.4,0,6.7,1.9,7.7,5.1l17.3,55.9c3.1,8.8-10.5,13.2-13.9,5l-13-37.3l0.2,122.6c0,2.8-2.2,5-5,5h-9.7
			c-2.5,0-4.6-2-4.6-4.6v-69.9c0-1.9-1.6-3.5-3.5-3.5h0c-1.9,0-3.5,1.6-3.5,3.5v69.3c0,2.8-2.3,5.1-5.1,5.1H57.5
			c-3.1,0-5.6-2.5-5.6-5.6L52.2,83.6z"/>
		<circle class="st1" cx="75.2" cy="28.2" r="18.8"/>
		<path class="st2" d="M52.2,206.3V83.6V53.5h4.3V71h37.6V53.5h4.6l0.6,30.1l0.1,122.7c0,0-2.3,0.1-5,0.1l-9.2-0.1
			c-2.7,0-5.1,0-5.1,0v-67.6c-0.4-5.7-6.8-5.7-7,0l0,67.6"/>
		<path class="st3" d="M80,92.8h-8.3c-4.5,0-8.2-3.7-8.2-8.2V78h24.8v6.5C88.2,89.1,84.5,92.8,80,92.8z"/>
		<rect x="56.2" y="27.2" class="st4" width="11.9" height="3.1"/>
		<rect x="82.3" y="27.2" class="st4" width="11.9" height="3.1"/>
		<path class="st0" d="M61.3,24.9h28.2v5.7c0,2.9-2.4,5.3-5.3,5.3h-2.1c-2.2,0-4.2-1.4-5-3.4l-0.8-2.1c-0.4-1.8-2.6-1.9-3,0
			l-0.9,2.2c-0.8,2-2.8,3.3-5,3.3h-0.8c-2.9,0-5.3-2.4-5.3-5.3V24.9z"/>
		<path class="st2" d="M97.2,24.2C97,12.4,87.3,2.8,75.4,2.8c-11.9,0-21.5,9.5-21.7,21.4H97.2z"/>
		<path class="st4" d="M75.4,18.7L75.4,18.7c-0.8,0-1.4-0.6-1.4-1.4V1.4C74,0.6,74.6,0,75.4,0l0,0c0.8,0,1.4,0.6,1.4,1.4v15.8
			C76.8,18,76.2,18.7,75.4,18.7z"/>
		<path class="st4" d="M89.4,20.7L89.4,20.7c-0.6,0-1.1-0.5-1.1-1.1v-13c0-0.6,0.5-1.1,1.1-1.1l0,0c0.6,0,1.1,0.5,1.1,1.1v13
			C90.5,20.2,90,20.7,89.4,20.7z"/>
		<path class="st4" d="M61.3,20.7L61.3,20.7c-0.6,0-1.1-0.5-1.1-1.1v-13c0-0.6,0.5-1.1,1.1-1.1l0,0c0.6,0,1.1,0.5,1.1,1.1v13
			C62.5,20.2,62,20.7,61.3,20.7z"/>
		<path class="st2" d="M97.9,25.8H53.4c-0.7,0-1.2-0.6-1.2-1.2v0c0-0.7,0.6-1.2,1.2-1.2h44.5c0.7,0,1.2,0.6,1.2,1.2v0
			C99.2,25.3,98.6,25.8,97.9,25.8z"/>
		<path class="st4" d="M51.1,64.8v3.6c0,0.2,0.1,0.3,0.3,0.3h5.9c0.2,0,0.3-0.1,0.3-0.3v-3.6c0-0.2-0.1-0.3-0.3-0.3h-5.9
			C51.2,64.5,51.1,64.7,51.1,64.8z M57,67.9h-5.3v-2.6H57V67.9z"/>
		<path class="st4" d="M93,64.8v3.6c0,0.2,0.1,0.3,0.3,0.3h6.2c0.2,0,0.3-0.1,0.3-0.3v-3.6c0-0.2-0.1-0.3-0.3-0.3h-6.2
			C93.1,64.5,93,64.7,93,64.8z M99.2,67.9h-5.6v-2.6h5.6V67.9z"/>
	</g>
	<rect x="52" y="180.1" class="st5" width="21.1" height="10.9"/>
	<rect x="80.1" y="180.1" class="st5" width="19.3" height="10.9"/>
	<polygon class="st6" points="51.1,52.7 58.2,52.7 68,81.5 68,116.9 51.1,116.9 	"/>
	<polygon class="st6" points="99.2,52.7 92.1,52.7 82.3,81.5 82.3,116.9 99.2,116.9 	"/>
	<rect x="51.1" y="103.4" class="st5" width="16.9" height="5"/>
	<rect x="51.1" y="94.5" class="st5" width="16.9" height="5"/>
	<rect x="82.3" y="103.4" class="st5" width="16.9" height="5"/>
	<rect x="82.3" y="95" class="st5" width="16.9" height="5"/>
</g>
<polygon class="st7" points="148.6,50.7 148.4,50.5 135,45.2 130.1,31.9 129.9,31.7 74.6,86 21.3,29.9 16.1,43.4 2,48 1.8,48.2 
	55.6,104.7 0,159.2 13.5,164.2 18.4,178.2 18.6,178.4 74,124 127.4,180.2 127.6,180 133.2,166.7 146.5,162 146.8,161.8 93,105.3 "/>
</svg>
