<!-- Generator: Adobe Illustrator 22.1.0, SVG Export Plug-In  -->
<svg version="1.1"
	 xmlns="http://www.w3.org/2000/svg" xmlns:xlink="http://www.w3.org/1999/xlink" xmlns:a="http://ns.adobe.com/AdobeSVGViewerExtensions/3.0/"
	 x="0px" y="0px" width="255.2px" height="412.9px" viewBox="0 0 255.2 412.9" style="enable-background:new 0 0 255.2 412.9;"
	 xml:space="preserve">
<style type="text/css">
	.st0{fill:#AC001E;}
	.st1{fill:#FFFFFF;}
	.st2{fill:#323232;}
</style>
<defs>
</defs>
<path class="st0" d="M165.6,242.2c-52.8,30.5-120.3,12.4-150.8-40.4c-24-41.6-17.9-92.3,11.6-126.8c-4,1.8-7.8,3.1-11.3,3.7
	c-3.8,0.7-7.4-1.9-8.1-5.7c-0.7-3.8,1.9-7.4,5.7-8.1c4.4-0.8,10.6-3.7,17.3-7.3C19.2,52.3,9.7,47.9,7,46.7c-7.2-3.2-5.4-9,1.3-10.4
	l24.4-5.9c6.5-2.2,10.7-4.7,15.9-9.2L66,3c4.5-5.1,10.5-3.7,9.7,4.1C75.3,10.2,74.3,22,73.3,35c3.5-0.9,7.1,1,8.3,4.4
	c0.1,0.2,0,0.4,0.1,0.6C128.8,27.2,180.5,47,206,91.3C236.5,144.1,218.4,211.7,165.6,242.2z"/>
<g>
	<path class="st1" d="M52.5,163.5l2.9-13.9h17.1c-0.2-2.3-0.3-4.7-0.3-7.3c0-2.2,0.1-4.4,0.2-6.5H52.5l2.9-13.9h19
		c1.9-8.3,5.2-15.2,9.9-20.8c7-8.4,15.9-12.6,26.7-12.6c14.4,0,24.9,5.6,31.6,16.9c3.7,6.3,5.7,12.7,6,19h-17.9
		c-1.2-4.9-2.7-8.6-4.5-11.1c-3.2-4.4-8.1-6.6-14.5-6.6c-6.5,0-11.7,3.1-15.4,9.4c-1,1.7-1.9,3.6-2.6,5.7H121l-2.9,13.9H90.8
		c-0.1,2.2-0.2,4.5-0.2,6.9c0,2.4,0.1,4.8,0.2,6.9h25.6l-2.9,13.9H93.9c0.7,1.8,1.6,3.4,2.6,4.9c4,5.7,9,8.5,15.2,8.5
		c6.3,0,11.1-2.4,14.3-7.3c1.8-2.6,3.4-6.6,4.6-11.8h17.7c-1.6,11.1-5.5,20.2-11.9,27.1c-6.4,7-14.5,10.5-24.5,10.5
		c-12.3,0-22-4.7-29.1-14.1c-3.7-4.9-6.4-10.8-8.2-17.7H52.5z"/>
</g>
<g>
	<path class="st2" d="M186.4,292.7l-39,33l28.1,27.1l-10.7,50.1c-1.3,6-6.6,10.1-12.5,10.1c-0.9,0-1.8-0.1-2.7-0.3
		c-6.9-1.5-11.3-8.3-9.8-15.2l7.7-36.2l-22.4-21.6l-29.4,65.6c-2.1,4.8-6.8,7.6-11.7,7.6c-1.7,0-3.5-0.4-5.2-1.1
		c-6.4-2.9-9.3-10.5-6.4-16.9l35.5-79.2c1.5-3.4,2.5-5.9,6.4-9.2l9-7.6c-7.6,1.1-15.7,1.8-24.3,1.8c-6.1,0-11-4.9-11-11
		c0-6.1,4.9-11,11-11c33.1,0,59.6-11.8,66.5-15.2c7.4-4.5,17.2-3.1,23,3.8C194.9,274.9,194,286.2,186.4,292.7z"/>
</g>
<g>
	<g>
		<g>
			<g>
				<g>
					<path class="st2" d="M225.6,285.7c16.4,0,29.6-13.2,29.6-29.6c0-16.4-13.2-29.6-29.6-29.6c-16.4,0-29.6,13.2-29.6,29.6
						C196,272.5,209.2,285.7,225.6,285.7z"/>
				</g>
			</g>
		</g>
	</g>
</g>
</svg>
