<!-- Generator: Adobe Illustrator 22.1.0, SVG Export Plug-In  -->
<svg version="1.1"
	 xmlns="http://www.w3.org/2000/svg" xmlns:xlink="http://www.w3.org/1999/xlink" xmlns:a="http://ns.adobe.com/AdobeSVGViewerExtensions/3.0/"
	 x="0px" y="0px" width="250.7px" height="250.1px" viewBox="0 0 250.7 250.1" style="enable-background:new 0 0 250.7 250.1;"
	 xml:space="preserve">
<style type="text/css">
	.st0{fill:#312D2A;}
</style>
<defs>
</defs>
<path class="st0" d="M250.7,144.1v-38.7h-21.1c-2.7-14.7-8.5-28.4-16.6-40.3l14.6-14.6l-27.4-27.4l-14.5,14.5
	c-12-8.3-25.9-14.3-40.8-17V0h-38.7v20.5c-14.9,2.7-28.7,8.6-40.7,16.8L50.6,22.5L23.2,49.9L38,64.7c-8.3,12-14.1,25.8-16.9,40.7H0
	v38.7h21.1c2.8,15,8.7,28.9,17.1,41l-14.8,14.8l27.4,27.4l14.9-14.9c12,8.2,25.7,14,40.5,16.7v21.1h38.7V229
	c14.8-2.8,28.6-8.6,40.5-16.9l15.1,15.1l27.4-27.4l-15.1-15.1c8.2-12,14.1-25.7,16.8-40.6H250.7z M207.4,123.2
	c0.9,46.6-37.1,84.5-83.6,83.6c-43.9-0.8-79.7-36.6-80.5-80.5c-0.9-46.6,37.1-84.5,83.6-83.6C170.8,43.5,206.6,79.3,207.4,123.2z"/>
<rect x="83.3" y="137.4" class="st0" width="16" height="30"/>
<rect x="117.4" y="120.7" class="st0" width="16" height="46.7"/>
<rect x="150" y="87.5" class="st0" width="16" height="80"/>
</svg>
