<!-- Generator: Adobe Illustrator 22.1.0, SVG Export Plug-In  -->
<svg version="1.1"
	 xmlns="http://www.w3.org/2000/svg" xmlns:xlink="http://www.w3.org/1999/xlink" xmlns:a="http://ns.adobe.com/AdobeSVGViewerExtensions/3.0/"
	 x="0px" y="0px" width="170.6px" height="170.6px" viewBox="0 0 170.6 170.6" style="enable-background:new 0 0 170.6 170.6;"
	 xml:space="preserve">
<style type="text/css">
	.st0{fill:#57897C;stroke:#FFFFFF;stroke-width:10;stroke-miterlimit:10;}
	.st1{fill:#FFFFFF;}
</style>
<defs>
</defs>
<circle class="st0" cx="85.3" cy="85.3" r="80.3"/>
<path class="st1" d="M92.5,140.1c1,1.4,3,1.7,4.4,0.7l37.9-27.2c1.4-1,1.7-3,0.7-4.4l-4.2-5.9l-43,30.9L92.5,140.1z"/>
<path class="st1" d="M126,88.9L126,88.9c-0.3-3.5-1.5-6.8-3.5-9.6l0,0l-14.6-20.5c-1.1-1.5-2.8-2.3-4.5-2.3c-0.6,0-1.1,0.1-1.7,0.3
	l0,0c-3.8,1.2-9.4,3-14.6,4.7c-5.2,1.7-10.2,3.3-12.7,4.3c-0.7,0.3-1.3,0.5-1.5,0.6c-0.7,0.3-1.3,0.7-1.9,1.1
	c-0.8,0.5-1.4,1.1-1.8,1.7c-0.4,0.6-0.7,1.2-0.8,1.6l-0.1,0.6l-1.7,1.2l-0.8-1.2l0,0c0-0.1-0.1-0.1-0.2-0.2
	c-0.2-0.2-0.5-0.5-0.8-0.9c-0.7-0.8-1.6-1.9-2.8-3.2c-2.3-2.6-5.4-6.1-8.6-9.7c-6.3-7.1-12.9-14.5-13.8-15.6l-0.1-0.1
	c-0.4-0.5-0.8-0.8-1.3-0.9c-0.4-0.2-0.9-0.3-1.3-0.3c-0.9,0-1.9,0.3-2.7,1c-0.7,0.5-1.2,1.1-1.6,1.8c-0.4,0.7-0.6,1.4-0.6,2.1
	c0,0.7,0.2,1.4,0.7,2.1l0,0l37.2,51.9c0.4,0.5,0.6,1.1,0.6,1.8c0,0.8-0.3,1.6-0.9,2.2l-0.1,0.1l-0.1,0l-0.2,0.1l0,0l-0.1,0l0,0
	c-0.6,0.4-1.6,1.1-2.9,1.6c-1.3,0.6-3.1,1-5.2,1c-1.9,0-4.2-0.4-6.8-1.3c0,0,0,0,0,0l0,0l0,0c-1-0.4-2-0.7-2.8-1l0,0
	c-0.9-0.3-1.6-0.4-2.3-0.4c-1.2,0-2.2,0.4-3,0.9c-1.2,0.9-2,2.3-2,3.8c0,1.2,0.5,2.6,1.8,3.8l0,0c1.1,1.1,2.9,2.5,5.3,4
	c2.4,1.5,5.4,3.1,8.8,4.7c6.8,3.1,15.5,6,25.4,7.8l41.8-30L126,88.9z"/>
</svg>
