<!-- Generator: Adobe Illustrator 22.1.0, SVG Export Plug-In  -->
<svg version="1.1"
	 xmlns="http://www.w3.org/2000/svg" xmlns:xlink="http://www.w3.org/1999/xlink" xmlns:a="http://ns.adobe.com/AdobeSVGViewerExtensions/3.0/"
	 x="0px" y="0px" width="143.7px" height="204.4px" viewBox="0 0 143.7 204.4" style="enable-background:new 0 0 143.7 204.4;"
	 xml:space="preserve">
<style type="text/css">
	.st0{fill:#312D2A;}
	.st1{fill:#FCFDFF;}
</style>
<defs>
</defs>
<g>
	<path class="st0" d="M134.2,72.8c7.7,4.4,13.6-7.5,5.8-12.6c-7-3.8-12.7,7.9-25,14.4l-8-21.4c-1-3.2-4.1-5.1-7.4-5.1l-13.8,0
		l-35.1,0c-2.9,0-5.8,1.8-6.3,4.8c0,0-3.5,8-9.7,21.5C22.4,68.7,13,56,5.5,59.3c-10.4,4-4.5,17.8,5.1,13.9l23.8,18.2
		c2.3,1.5,5.4,0.7,6.8-1.6l10.1-17c0,0-0.2,8.1-0.2,8.1l-0.3,118c0,3.1,2.4,5.6,5.3,5.6h12c2.7,0,4.9-2.3,4.9-5.1v-69.3
		c0-1.9,1.5-3.5,3.3-3.5h0c1.8,0,3.3,1.6,3.3,3.5v69.9c0,2.5,2,4.6,4.4,4.6h11.2c2.7,0,4.8-2.3,4.8-5l0.6-127.1l8.6,17.3
		c1.2,2.1,4,2.5,5.7,0.9L134.2,72.8z"/>
	<path class="st1" d="M68,45.6l-3.4,2.4c-0.6,0.5-0.6,1.3,0,1.8l6.8,4.7c0.3,0.2,0.5,0.6,0.5,1L68.7,96c0,0.2,0.1,0.5,0.2,0.7
		l4.9,6.7c0.5,0.7,1.6,0.7,2.1,0l5.1-6.4c0.2-0.2,0.3-0.5,0.2-0.7l-3.9-40.7c0-0.4,0.1-0.7,0.5-1l6.7-4.8c0.7-0.5,0.6-1.4-0.1-1.8
		l-4.3-2.5c-0.2-0.1-0.5-0.2-0.7-0.2H68.8C68.5,45.3,68.2,45.4,68,45.6z"/>
	<g>
		<ellipse transform="matrix(0.5505 -0.8348 0.8348 0.5505 24.59 70.3526)" class="st0" cx="77.6" cy="12.3" rx="11.6" ry="13.9"/>
		<ellipse transform="matrix(0.4921 -0.8706 0.8706 0.4921 22.9158 62.3473)" class="st0" cx="64.9" cy="11.5" rx="8.4" ry="7.2"/>
		<path class="st1" d="M82.8,38.3c4.5-4.7,3.5-19,3.5-19S73.9,20,67.3,7.3c0,0,0.4,6-5.5,10.6c0,0-1.7,16.2,4.1,20.4
			S78.3,43,82.8,38.3z"/>
	</g>
	<polygon class="st1" points="95.2,65.7 84.4,65.7 84.4,62.9 89.8,59.5 95.2,62.9 	"/>
</g>
</svg>
