<!-- Generator: Adobe Illustrator 22.1.0, SVG Export Plug-In  -->
<svg version="1.1"
	 xmlns="http://www.w3.org/2000/svg" xmlns:xlink="http://www.w3.org/1999/xlink" xmlns:a="http://ns.adobe.com/AdobeSVGViewerExtensions/3.0/"
	 x="0px" y="0px" width="98.7px" height="91.9px" viewBox="0 0 98.7 91.9" style="enable-background:new 0 0 98.7 91.9;"
	 xml:space="preserve">
<style type="text/css">
	.st0{fill:#312D2A;}
	.st1{fill:#AC1F23;}
</style>
<defs>
</defs>
<g>
	<path class="st0" d="M55.4,46.8c-1.4,0-2.6,0.5-3.6,1.5c-1,1-1.5,2.2-1.5,3.6s0.5,2.6,1.5,3.6c1,1,2.2,1.5,3.6,1.5
		c1.4,0,2.6-0.5,3.6-1.5c1-1,1.5-2.2,1.5-3.6S60,49.3,59,48.3C58,47.3,56.8,46.8,55.4,46.8z"/>
	<path class="st0" d="M24.3,23.5c-1.4,0-2.6,0.5-3.6,1.5c-1,1-1.5,2.2-1.5,3.6s0.5,2.6,1.5,3.6c1,1,2.2,1.5,3.6,1.5
		c1.4,0,2.6-0.5,3.6-1.5c1-1,1.5-2.2,1.5-3.6S28.9,26,27.9,25C26.9,24,25.7,23.5,24.3,23.5z"/>
	<path class="st0" d="M40,0C17.9,0,0,17.9,0,40s17.9,40,40,40s40-17.9,40-40S62.1,0,40,0z M15.9,37c-2.3-2.3-3.5-5.1-3.5-8.4
		c0-3.3,1.2-6.1,3.5-8.4c2.3-2.3,5.1-3.5,8.4-3.5c3.3,0,6.1,1.2,8.4,3.5c2.3,2.3,3.5,5.1,3.5,8.4c0,3.3-1.2,6.1-3.5,8.4
		c-2.3,2.3-5.1,3.5-8.4,3.5C21,40.5,18.2,39.3,15.9,37z M29.3,64.1h-5l26-47.7h4.8L29.3,64.1z M63.8,60.3c-2.3,2.3-5.1,3.5-8.4,3.5
		c-3.3,0-6.1-1.2-8.4-3.5c-2.3-2.3-3.5-5.1-3.5-8.4c0-3.3,1.2-6.1,3.5-8.4c2.3-2.3,5.1-3.5,8.4-3.5c3.3,0,6.1,1.2,8.4,3.5
		c2.3,2.3,3.5,5.1,3.5,8.4C67.3,55.2,66.2,58,63.8,60.3z"/>
</g>
<g>
	<polygon class="st1" points="45.8,66.5 63.7,84.7 71.7,76.8 71.8,76.8 90.1,58.5 98.7,67.1 98.7,42.3 73.9,42.3 82.5,50.9 
		64.6,68.9 50.3,54.3 50.1,54.5 45.8,50.1 11.7,83.6 19.8,91.9 	"/>
</g>
</svg>
