<!-- Generator: Adobe Illustrator 22.1.0, SVG Export Plug-In  -->
<svg version="1.1"
	 xmlns="http://www.w3.org/2000/svg" xmlns:xlink="http://www.w3.org/1999/xlink" xmlns:a="http://ns.adobe.com/AdobeSVGViewerExtensions/3.0/"
	 x="0px" y="0px" width="28.2px" height="40.5px" viewBox="0 0 28.2 40.5" style="enable-background:new 0 0 28.2 40.5;"
	 xml:space="preserve">
<style type="text/css">
	.st0{fill:none;}
	.st1{fill:#5C85BF;}
	.st2{fill:#264872;}
</style>
<defs>
</defs>
<g>
	<path class="st0" d="M0,4.5c4.1-1.3,8-2.3,12-3.1l0,0C8.1,2.1,4.1,3.1,0,4.5l6,18.7l0-0.1L0,4.5z"/>
	<path class="st0" d="M10.8,37.8l0.9,2.7c0,0,0,0,0,0L10.8,37.8L10.8,37.8z"/>
	<path class="st0" d="M28.2,0L28.2,0c-2.4,0-4.7,0.1-7,0.2l0,0C23.4,0.1,25.7,0,28.2,0z"/>
	<path class="st1" d="M28.2,0C28.2,0,28.2,0,28.2,0l0,0.9V33v4.9c0,0,0,0,0,0c-0.5,0-0.9,0-1.3,0c-3.1,0.1-6.1,0.4-9.1,1
		c-2,0.4-4,0.9-6,1.6l0,0c5.2-1.7,10.7-2.6,16.4-2.6c0,0,0,0,0,0V0z"/>
	<path class="st1" d="M0,4.5l6,18.6L12,1.4C8.1,2.1,4.2,3.1,0,4.5z"/>
	<path class="st1" d="M28.1,37.9C28.2,37.9,28.2,37.9,28.1,37.9l0-4.9l-1.4,4.9C27.3,37.9,27.7,37.9,28.1,37.9z"/>
	<path class="st1" d="M28.2,0.9V0c-2.4,0-4.7,0.1-7,0.2L10.9,37.8l0.9,2.7c1.9-0.6,3.9-1.2,6-1.6L28.2,0.9z"/>
	<path class="st2" d="M26.8,37.9l1.4-4.9V0.9L17.7,38.9C20.7,38.4,23.7,38,26.8,37.9z"/>
	<path class="st2" d="M21.2,0.2L21.2,0.2C18,0.5,15,0.9,12,1.4l0,0C15,0.9,18,0.5,21.2,0.2z"/>
	<polygon class="st2" points="6.1,23.1 6.1,23.1 10.8,37.8 10.9,37.8 	"/>
	<path class="st2" d="M6.1,23.1l4.8,14.7L21.2,0.2C18,0.5,15,0.9,12,1.4L6.1,23.1z"/>
</g>
</svg>
