<!-- Generator: Adobe Illustrator 22.1.0, SVG Export Plug-In  -->
<svg version="1.1"
	 xmlns="http://www.w3.org/2000/svg" xmlns:xlink="http://www.w3.org/1999/xlink" xmlns:a="http://ns.adobe.com/AdobeSVGViewerExtensions/3.0/"
	 x="0px" y="0px" width="113.7px" height="109.5px" viewBox="0 0 113.7 109.5" style="enable-background:new 0 0 113.7 109.5;"
	 xml:space="preserve">
<style type="text/css">
	.st0{opacity:0.7;}
	.st1{fill:#312D2A;}
	.st2{fill:#FCFDFF;}
	.st3{opacity:0.5;}
</style>
<defs>
</defs>
<g class="st0">
	<path class="st1" d="M58.6,45.4c-0.8-2.5-3.3-4-5.8-4l-10.9,0h-1c0.5,0.4,0.5,1,0,1.3l-5.3,3.8c-0.3,0.2-0.4,0.5-0.4,0.8l3.1,32.3
		c0,0.2,0,0.4-0.2,0.6l-4.1,5.1c-0.4,0.5-1.3,0.5-1.7,0l-3.9-5.3c-0.1-0.2-0.2-0.4-0.2-0.5l2.6-32.2c0-0.3-0.1-0.6-0.4-0.8l-5.4-3.7
		c-0.5-0.3-0.5-0.9-0.1-1.3H14.1c-2.3,0-4.3,1.5-5,3.8C6.7,53,3.3,64.9,0,76.4c3,2.7,6.4,5.1,9.9,7.1l4.4-16.2c0,0,0.1,0,0.1,0
		l0,18.4c6.5,2.8,13.6,4.4,21.1,4.4c6.1,0,12-1.1,17.5-3l0-19.8c0,0,0.1,0,0.1,0l4.5,17.9c3.5-1.6,6.8-3.6,9.9-6L58.6,45.4z
		 M49.3,55.3h-8.5v-2.2l4.3-2.7l4.3,2.7V55.3z"/>
	<path class="st2" d="M37.4,39.3c-0.2-0.1-0.4-0.1-0.6-0.1h-8.4c-0.2,0-0.5,0.1-0.6,0.2l-2.7,1.9c-0.1,0-0.1,0.1-0.1,0.1l16,0
		c0,0-0.1-0.1-0.1-0.1L37.4,39.3z"/>
	<path class="st2" d="M25.1,42.7l5.4,3.7c0.3,0.2,0.4,0.5,0.4,0.8l-2.6,32.2c0,0.2,0,0.4,0.2,0.5l3.9,5.3c0.4,0.5,1.3,0.5,1.7,0
		l4.1-5.1c0.1-0.2,0.2-0.4,0.2-0.6l-3.1-32.3c0-0.3,0.1-0.6,0.4-0.8l5.3-3.8c0.5-0.4,0.5-1,0-1.3l-16,0
		C24.6,41.8,24.6,42.3,25.1,42.7z"/>
	<path class="st1" d="M30.8,14c5.2,5,11.5,4.7,11.5,4.7s0.1,1.1,0.1,2.6c0.9-0.6,1.6-1.3,2.2-2.2c2.8-4.2,1-10.4-4.1-13.7
		C35.8,2.3,30.1,2.7,27,6.1c0.5,0.1,1.1,0.3,1.6,0.6C31,8,31.9,11.1,30.8,14z"/>
	<path class="st1" d="M22,18.2c0.2,0.1,0.5,0.2,0.8,0.3c0-0.7,0.1-1.1,0.1-1.1c1.2-0.9,2-1.9,2.6-2.8c-0.9-2.6-0.8-5.4,0.7-7.7
		c0.2-0.3,0.5-0.7,0.8-1c-2.5-0.4-5.2,0.9-6.7,3.6C18.5,12.8,19.3,16.7,22,18.2z"/>
	<path class="st1" d="M25.5,14.7c1.9-2.9,1.7-5.6,1.7-5.6c1.1,2,2.3,3.6,3.6,4.9c1-2.9,0.1-6-2.3-7.4c-0.5-0.3-1-0.5-1.6-0.6
		c-0.3,0.3-0.5,0.6-0.8,1C24.7,9.3,24.6,12.1,25.5,14.7z"/>
	<path class="st2" d="M30.3,20.7c-1.1-0.8-2.1-1.7-2.9-2.6c-1.5,0.8-3.1,1-4.6,0.5c-0.2,3.1-0.5,12.4,3.3,15.1
		c4.6,3.3,9.8,3.7,13.4,0c2.5-2.6,2.9-8.8,2.9-12.4C39.1,23.5,34.3,23.4,30.3,20.7z"/>
	<path class="st2" d="M30.8,14c-0.1,0.4-0.3,0.8-0.6,1.3c-0.7,1.3-1.7,2.2-2.9,2.9c0.8,1,1.8,1.9,2.9,2.6c4,2.6,8.8,2.7,12.1,0.5
		c0-1.6-0.1-2.6-0.1-2.6S36,18.9,30.8,14z"/>
	<path class="st2" d="M27.4,18.1c-0.9-1.1-1.5-2.2-1.9-3.4c-0.6,0.9-1.5,1.9-2.6,2.8c0,0,0,0.4-0.1,1.1
		C24.3,19.1,25.9,18.9,27.4,18.1z"/>
	<path class="st2" d="M30.3,15.2c0.2-0.4,0.4-0.8,0.6-1.3c-1.3-1.3-2.6-2.9-3.6-4.9c0,0,0.2,2.7-1.7,5.6c0.4,1.2,1.1,2.3,1.9,3.4
		C28.5,17.5,29.6,16.5,30.3,15.2z"/>
	<polygon class="st2" points="40.8,53.1 40.8,55.3 49.3,55.3 49.3,53.1 45,50.4 	"/>
</g>
<g class="st3">
	<path class="st1" d="M105,44c-0.8-2.5-3.3-4-5.8-4l-10.9,0h-1c0.5,0.4,0.5,1,0,1.3l-5.3,3.8c-0.3,0.2-0.4,0.5-0.4,0.8l3.1,32.3
		c0,0.2,0,0.4-0.2,0.6l-4.1,5.1c-0.4,0.5-1.3,0.5-1.7,0l-3.9-5.3c-0.1-0.2-0.2-0.4-0.2-0.5l2.6-32.2c0-0.3-0.1-0.6-0.4-0.8l-5.4-3.7
		c-0.5-0.3-0.5-0.9-0.1-1.3H60.4c-2.3,0-4.3,1.5-5,3.8C53,51.6,49.6,63.5,46.3,75c3,2.7,6.4,5.1,9.9,7.1l4.4-16.2c0,0,0.1,0,0.1,0
		l0,18.4c6.5,2.8,13.6,4.4,21.1,4.4c6.1,0,12-1.1,17.5-3l0-19.8c0,0,0.1,0,0.1,0l4.5,17.9c3.5-1.6,6.8-3.6,9.9-6L105,44z M95.6,53.9
		h-8.5v-2.2l4.3-2.7l4.3,2.7V53.9z"/>
	<path class="st2" d="M83.7,37.9c-0.2-0.1-0.4-0.1-0.6-0.1h-8.4c-0.2,0-0.5,0.1-0.6,0.2l-2.7,1.9c-0.1,0-0.1,0.1-0.1,0.1l16,0
		c0,0-0.1-0.1-0.1-0.1L83.7,37.9z"/>
	<path class="st2" d="M71.4,41.3l5.4,3.7c0.3,0.2,0.4,0.5,0.4,0.8L74.6,78c0,0.2,0,0.4,0.2,0.5l3.9,5.3c0.4,0.5,1.3,0.5,1.7,0
		l4.1-5.1c0.1-0.2,0.2-0.4,0.2-0.6l-3.1-32.3c0-0.3,0.1-0.6,0.4-0.8l5.3-3.8c0.5-0.4,0.5-1,0-1.3l-16,0C70.9,40.4,71,40.9,71.4,41.3
		z"/>
	<path class="st1" d="M77.2,12.6c5.2,5,11.5,4.7,11.5,4.7s0.1,1.1,0.1,2.6c0.9-0.6,1.6-1.3,2.2-2.2c2.8-4.2,1-10.4-4.1-13.7
		c-4.6-3.1-10.4-2.7-13.5,0.7c0.5,0.1,1.1,0.3,1.6,0.6C77.3,6.6,78.2,9.7,77.2,12.6z"/>
	<path class="st1" d="M68.3,16.8c0.2,0.1,0.5,0.2,0.8,0.3c0-0.7,0.1-1.1,0.1-1.1c1.2-0.9,2-1.9,2.6-2.8c-0.9-2.6-0.8-5.4,0.7-7.7
		c0.2-0.3,0.5-0.7,0.8-1c-2.5-0.4-5.2,0.9-6.7,3.6C64.8,11.4,65.6,15.3,68.3,16.8z"/>
	<path class="st1" d="M71.8,13.3c1.9-2.9,1.7-5.6,1.7-5.6c1.1,2,2.3,3.6,3.6,4.9c1-2.9,0.1-6-2.3-7.4c-0.5-0.3-1-0.5-1.6-0.6
		c-0.3,0.3-0.5,0.6-0.8,1C71.1,7.9,70.9,10.7,71.8,13.3z"/>
	<path class="st2" d="M76.7,19.4c-1.1-0.8-2.1-1.7-2.9-2.6c-1.5,0.8-3.1,1-4.6,0.5c-0.2,3.1-0.5,12.4,3.3,15.1
		c4.6,3.3,9.8,3.7,13.4,0c2.5-2.6,2.9-8.8,2.9-12.4C85.5,22.1,80.7,22,76.7,19.4z"/>
	<path class="st2" d="M77.2,12.6c-0.1,0.4-0.3,0.8-0.6,1.3c-0.7,1.3-1.7,2.2-2.9,2.9c0.8,1,1.8,1.9,2.9,2.6c4,2.6,8.8,2.7,12.1,0.5
		c0-1.6-0.1-2.6-0.1-2.6S82.3,17.6,77.2,12.6z"/>
	<path class="st2" d="M73.7,16.7c-0.9-1.1-1.5-2.2-1.9-3.4c-0.6,0.9-1.5,1.9-2.6,2.8c0,0,0,0.4-0.1,1.1
		C70.6,17.7,72.3,17.5,73.7,16.7z"/>
	<path class="st2" d="M76.6,13.8c0.2-0.4,0.4-0.8,0.6-1.3c-1.3-1.3-2.6-2.9-3.6-4.9c0,0,0.2,2.7-1.7,5.6c0.4,1.2,1.1,2.3,1.9,3.4
		C74.9,16.1,75.9,15.1,76.6,13.8z"/>
	<polygon class="st2" points="87.1,51.7 87.1,53.9 95.6,53.9 95.6,51.7 91.4,49 	"/>
</g>
<g>
	<path class="st1" d="M88.7,53.2c-1-3.2-4.1-5.1-7.4-5.1l-13.8,0h-1.2c0.6,0.5,0.6,1.3,0,1.7l-6.7,4.8c-0.3,0.2-0.5,0.6-0.5,1
		L63,96.2c0,0.3-0.1,0.5-0.2,0.7l-5.1,6.4c-0.5,0.7-1.6,0.6-2.1,0l-4.9-6.7c-0.2-0.2-0.2-0.4-0.2-0.7l3.3-40.6c0-0.4-0.2-0.7-0.5-1
		l-6.8-4.7c-0.6-0.4-0.6-1.1-0.2-1.6H32.4c-2.9,0-5.4,1.9-6.3,4.8c-3.1,9.9-7.4,24.9-11.5,39.5c3.8,3.5,8,6.5,12.5,9l5.5-20.4
		c0,0,0.1,0,0.1,0L32.8,104c8.1,3.6,17.1,5.5,26.6,5.5c7.8,0,15.2-1.3,22.1-3.8l-0.1-25c0,0,0.1-0.1,0.1,0l5.7,22.6
		c4.4-2.1,8.6-4.6,12.5-7.5L88.7,53.2z M76.9,65.7H66.1v-2.8l5.4-3.4l5.4,3.4V65.7z"/>
	<path class="st2" d="M61.8,45.5c-0.2-0.1-0.5-0.2-0.7-0.2H50.5c-0.3,0-0.6,0.1-0.8,0.3l-3.4,2.4c-0.1,0-0.1,0.1-0.2,0.2l20.2,0
		c0,0-0.1-0.1-0.2-0.1L61.8,45.5z"/>
	<path class="st2" d="M46.3,49.7l6.8,4.7c0.3,0.2,0.5,0.6,0.5,1L50.4,96c0,0.2,0.1,0.5,0.2,0.7l4.9,6.7c0.5,0.7,1.6,0.7,2.1,0
		l5.1-6.4c0.2-0.2,0.3-0.5,0.2-0.7l-3.9-40.7c0-0.4,0.1-0.7,0.5-1l6.7-4.8c0.6-0.4,0.6-1.2,0-1.7l-20.2,0
		C45.7,48.5,45.8,49.3,46.3,49.7z"/>
	<path class="st1" d="M53.6,13.5c6.5,6.3,14.5,5.9,14.5,5.9s0.1,1.3,0.1,3.3c1.1-0.7,2-1.6,2.8-2.8c3.5-5.4,1.2-13.1-5.2-17.3
		c-5.9-3.9-13.1-3.4-17,0.9c0.7,0.1,1.4,0.4,2,0.7C53.8,5.9,54.9,9.8,53.6,13.5z"/>
	<path class="st1" d="M42.4,18.9c0.3,0.2,0.6,0.3,1,0.4c0.1-0.8,0.1-1.3,0.1-1.3c1.5-1.1,2.5-2.4,3.3-3.6c-1.2-3.3-1-6.8,0.9-9.7
		c0.3-0.4,0.6-0.8,1-1.2c-3.1-0.5-6.6,1.2-8.4,4.5C38,12,39,16.9,42.4,18.9z"/>
	<path class="st1" d="M46.8,14.4c2.4-3.7,2.2-7.1,2.2-7.1c1.3,2.6,2.9,4.6,4.6,6.2c1.3-3.7,0.2-7.6-2.9-9.3c-0.6-0.4-1.3-0.6-2-0.7
		c-0.3,0.4-0.7,0.8-1,1.2C45.9,7.6,45.7,11.1,46.8,14.4z"/>
	<path class="st2" d="M52.9,22c-1.4-1-2.7-2.1-3.7-3.3c-1.9,1-4,1.3-5.9,0.6c-0.3,4-0.6,15.6,4.2,19.1c5.8,4.2,12.4,4.7,16.9,0
		c3.1-3.3,3.6-11.1,3.6-15.6C64.1,25.5,58,25.4,52.9,22z"/>
	<path class="st2" d="M53.6,13.5c-0.2,0.5-0.4,1.1-0.7,1.6c-0.9,1.6-2.2,2.8-3.6,3.6c1,1.2,2.2,2.4,3.7,3.3
		c5.1,3.3,11.1,3.4,15.2,0.7c0-2-0.1-3.3-0.1-3.3S60.1,19.8,53.6,13.5z"/>
	<path class="st2" d="M49.3,18.7c-1.1-1.3-1.9-2.8-2.4-4.3c-0.8,1.2-1.9,2.4-3.3,3.6c0,0-0.1,0.5-0.1,1.3
		C45.3,20,47.4,19.7,49.3,18.7z"/>
	<path class="st2" d="M52.9,15.1c0.3-0.5,0.5-1,0.7-1.6c-1.7-1.6-3.2-3.6-4.6-6.2c0,0,0.2,3.4-2.2,7.1c0.5,1.5,1.3,3,2.4,4.3
		C50.7,17.9,52,16.7,52.9,15.1z"/>
	<polygon class="st2" points="66.1,62.9 66.1,65.7 76.9,65.7 76.9,62.9 71.5,59.5 	"/>
</g>
</svg>
