<!-- Generator: Adobe Illustrator 19.1.0, SVG Export Plug-In  -->
<svg version="1.1"
	 xmlns="http://www.w3.org/2000/svg" xmlns:xlink="http://www.w3.org/1999/xlink" xmlns:a="http://ns.adobe.com/AdobeSVGViewerExtensions/3.0/"
	 x="0px" y="0px" width="42.8px" height="32.7px" viewBox="0 0 42.8 32.7"
	 style="overflow:scroll;enable-background:new 0 0 42.8 32.7;" xml:space="preserve">
<style type="text/css">
	.st0{fill:#312D2A;}
</style>
<defs>
</defs>
<g>
	<path class="st0" d="M16.2,20.7c0,0,3.1,3.1,3.1,3.1c1,1,0.7,2.8-0.2,3.7l-4.4,4.5c-1.7,1.7-3.9-0.6-2.3-2.3l2.8-2.8l-2.7-2.7
		L16.2,20.7z M6.5,20.7L6.5,20.7l-3.1,3.1c-1,1-0.7,2.8,0.2,3.7l4.4,4.5c1.7,1.7,3.9-0.6,2.3-2.3L7.5,27l2.7-2.7L6.5,20.7 M11.4,9.1
		C14,9.1,16,7,16,4.5C16,2,14,0,11.4,0C8.9,0,6.9,2,6.9,4.5C6.9,7,8.9,9.1,11.4,9.1L11.4,9.1z M16.4,18.9l0.1-3.1l3.8,3.5
		c0.3,0.3,0.7,0.4,1.1,0.4c0.4,0,0.9-0.2,1.2-0.5c0.6-0.6,0.6-1.7-0.1-2.3c0,0-4.3-4.7-4.9-5.2c-1.1-1-2.8-1.6-5.6-1.6H11
		c-2.7,0-4.4,0.6-5.6,1.6C4.8,12.3,0.5,17,0.5,17c-0.7,0.6-0.7,1.6-0.1,2.3c0.3,0.3,0.7,0.5,1.2,0.5c0.4,0,0.8-0.1,1.1-0.4l3.8-3.5
		l0.1,3.1H16.4z M16.4,18.9"/>
	<path class="st0" d="M36.2,20.7c0,0,3.1,3.1,3.1,3.1c1,1,0.7,2.8-0.2,3.7l-4.4,4.5c-1.7,1.7-3.9-0.6-2.3-2.3l2.8-2.8l-2.7-2.7
		L36.2,20.7z M26.4,20.7L26.4,20.7l-3.1,3.1c-1,1-0.7,2.8,0.2,3.7l4.4,4.5c1.7,1.7,3.9-0.6,2.3-2.3L27.4,27l2.7-2.7L26.4,20.7
		 M31.4,9.1c2.5,0,4.5-2,4.5-4.5c0-2.5-2-4.5-4.5-4.5c-2.5,0-4.5,2-4.5,4.5C26.9,7,28.9,9.1,31.4,9.1L31.4,9.1z M36.3,18.9l0.1-3.1
		l3.8,3.5c0.3,0.3,0.7,0.4,1.1,0.4c0.4,0,0.9-0.2,1.2-0.5c0.6-0.6,0.6-1.7-0.1-2.3c0,0-4.3-4.7-4.9-5.2c-1.1-1-2.8-1.6-5.6-1.6H31
		c-2.7,0-4.4,0.6-5.6,1.6c-0.6,0.5-4.9,5.2-4.9,5.2c-0.7,0.6-0.7,1.6-0.1,2.3c0.3,0.3,0.7,0.5,1.2,0.5c0.4,0,0.8-0.1,1.1-0.4
		l3.8-3.5l0.1,3.1H36.3z M36.3,18.9"/>
</g>
</svg>
