<?xml version="1.0" encoding="utf-8"?>
<!-- Generator: Adobe Illustrator 19.1.0, SVG Export Plug-In . SVG Version: 6.00 Build 0)  -->
<svg version="1.1" id="Layer_1" xmlns="http://www.w3.org/2000/svg" xmlns:xlink="http://www.w3.org/1999/xlink" x="0px" y="0px"
	 viewBox="57 320.7 725 60.3" style="enable-background:new 57 320.7 725 60.3;" xml:space="preserve">
<style type="text/css">
	.st0{fill:#B4C1BC;}
	.st1{fill:#4D685C;}
	.st2{fill:none;stroke:#000000;stroke-miterlimit:10;}
</style>
<g>
	<g>
		<g>
			<rect x="60.9" y="320.7" class="st0" width="20.1" height="59.8"/>
			<rect x="88.8" y="339.6" class="st0" width="20.1" height="41"/>
			<rect x="116.7" y="353.8" class="st0" width="20.1" height="26.8"/>
			<rect x="144.6" y="361.7" class="st0" width="20.1" height="18.9"/>
			<rect x="172.4" y="364.8" class="st0" width="20.1" height="15.8"/>
			<rect x="200.3" y="371.9" class="st0" width="20.1" height="8.7"/>
			<rect x="228.2" y="373.5" class="st0" width="20.1" height="7.1"/>
			<rect x="256.1" y="372.7" class="st0" width="20.1" height="7.9"/>
			<rect x="284" y="373.5" class="st0" width="20.1" height="7.1"/>
			<rect x="311.9" y="374.2" class="st0" width="20.1" height="6.3"/>
			<rect x="339.8" y="375" class="st0" width="20.1" height="5.5"/>
			<rect x="367.6" y="375.8" class="st0" width="20.1" height="4.7"/>
			<rect x="395.5" y="371.9" class="st0" width="20.1" height="8.7"/>
			<rect x="423.4" y="361.7" class="st0" width="20.1" height="18.9"/>
			<rect x="451.3" y="356.1" class="st0" width="20.1" height="24.4"/>
			<rect x="479.2" y="349.8" class="st1" width="20.1" height="30.7"/>
			<rect x="507.1" y="340.4" class="st1" width="20.1" height="40.2"/>
			<rect x="534.9" y="324.6" class="st1" width="20.1" height="55.9"/>
			<rect x="562.8" y="338.8" class="st1" width="20.1" height="41.7"/>
			<rect x="590.7" y="356.9" class="st0" width="20.1" height="23.6"/>
			<rect x="618.6" y="362.4" class="st0" width="20.1" height="18.1"/>
			<rect x="646.5" y="365.6" class="st0" width="20.1" height="15"/>
			<rect x="674.4" y="364.8" class="st0" width="20.1" height="15.8"/>
			<rect x="702.3" y="364" class="st0" width="20.1" height="16.5"/>
			<rect x="730.1" y="359.3" class="st0" width="20.1" height="21.3"/>
			<rect x="758" y="349.1" class="st0" width="20.1" height="31.5"/>
		</g>
	</g>
</g>
<line class="st2" x1="57" y1="380.5" x2="782" y2="380.5"/>
</svg>
