<!-- Generator: Adobe Illustrator 19.1.0, SVG Export Plug-In  -->
<svg version="1.1"
	 xmlns="http://www.w3.org/2000/svg" xmlns:xlink="http://www.w3.org/1999/xlink" xmlns:a="http://ns.adobe.com/AdobeSVGViewerExtensions/3.0/"
	 x="0px" y="0px" width="104.5px" height="100.9px" viewBox="0 0 104.5 100.9"
	 style="overflow:scroll;enable-background:new 0 0 104.5 100.9;" xml:space="preserve">
<style type="text/css">
	.st0{fill:#312D2A;}
</style>
<defs>
</defs>
<path class="st0" d="M60.9,99.6c1,1.4,3,1.7,4.4,0.7l37.9-27.2c1.4-1,1.7-3,0.7-4.4l-4.2-5.9l-43,30.9L60.9,99.6z"/>
<path class="st0" d="M94.3,48.4L94.3,48.4c-0.3-3.5-1.5-6.8-3.5-9.6l0,0L76.1,18.4c-1.1-1.5-2.8-2.3-4.5-2.3c-0.6,0-1.1,0.1-1.7,0.3
	l0,0c-3.8,1.2-9.4,3-14.6,4.7c-5.2,1.7-10.2,3.3-12.7,4.3c-0.7,0.3-1.3,0.5-1.5,0.6c-0.7,0.3-1.3,0.7-1.9,1.1
	c-0.8,0.5-1.4,1.1-1.8,1.7c-0.4,0.6-0.7,1.2-0.8,1.6l-0.1,0.6l-1.7,1.2l-0.8-1.2l0,0c0-0.1-0.1-0.1-0.2-0.2
	c-0.2-0.2-0.5-0.5-0.8-0.9c-0.7-0.8-1.6-1.9-2.8-3.2c-2.3-2.6-5.4-6.1-8.6-9.7C15.1,9.7,8.5,2.4,7.6,1.3L7.5,1.2
	C7.1,0.8,6.7,0.5,6.3,0.3C5.8,0.1,5.4,0,4.9,0C4.1,0,3.1,0.3,2.2,1C1.6,1.4,1,2,0.6,2.7C0.2,3.4,0,4.1,0,4.8C0,5.5,0.2,6.2,0.7,7
	l0,0l37.2,51.9c0.4,0.5,0.6,1.1,0.6,1.8c0,0.8-0.3,1.6-0.9,2.2l-0.1,0.1l-0.1,0L37.3,63l0,0l-0.1,0l0,0c-0.6,0.4-1.6,1.1-2.9,1.6
	c-1.3,0.6-3.1,1-5.2,1c-1.9,0-4.2-0.4-6.8-1.3c0,0,0,0,0,0l0,0l0,0c-1-0.4-2-0.7-2.8-1l0,0C18.5,63.1,17.7,63,17,63
	c-1.2,0-2.2,0.4-3,0.9c-1.2,0.9-2,2.3-2,3.8c0,1.2,0.5,2.6,1.8,3.8l0,0c1.1,1.1,2.9,2.5,5.3,4c2.4,1.5,5.4,3.1,8.8,4.7
	c6.8,3.1,15.5,6,25.4,7.8l41.8-30L94.3,48.4z"/>
</svg>
