<!-- Generator: Adobe Illustrator 19.1.0, SVG Export Plug-In  -->
<svg version="1.1"
	 xmlns="http://www.w3.org/2000/svg" xmlns:xlink="http://www.w3.org/1999/xlink" xmlns:a="http://ns.adobe.com/AdobeSVGViewerExtensions/3.0/"
	 x="0px" y="0px" width="778.4px" height="373.5px" viewBox="0 0 778.4 373.5"
	 style="overflow:scroll;enable-background:new 0 0 778.4 373.5;" xml:space="preserve">
<style type="text/css">
	.st0{fill:#FFFFFF;}
	.st1{fill:#3B685C;}
	.st2{fill:#81ACA0;}
</style>
<defs>
</defs>
<g>
	<path class="st0" d="M776.9,211.3c2.1-4.4,2-9.7-0.4-13.9c-2.4-4.2-6.7-6.8-11.3-6.8h-83.7v-77.3c0-7.8-6-14.2-13.3-14.2H110.2
		c-7.3,0-13.3,6.3-13.3,14.2v77.3H13.3c-4.6,0-9,2.6-11.3,6.8c-2.4,4.2-2.6,9.5-0.4,13.9L36,282L1.5,352.7c-2.1,4.4-2,9.7,0.4,13.9
		s6.7,6.8,11.3,6.8h161.9c7.3,0,13.3-6.3,13.3-14.2V282h401.4v77.3c0,7.8,6,14.2,13.3,14.2h161.9c4.6,0,8.9-2.6,11.3-6.8
		c2.4-4.2,2.6-9.5,0.4-13.9L742.4,282L776.9,211.3z M173.2,358.2l-76.3-76.2h76.3V358.2z M605.2,358.2v-76.2h76.3L605.2,358.2z"/>
</g>
<path class="st1" d="M627.4,66.4C567.5,53.8,510.3,31.3,455.1,0.8c-6.2-2.3-13.1,0.8-15.5,6.9l-57.2,150.2
	c-20.4,53.6,6.7,114.1,60.3,134.5l0,0c53.6,20.4,114.1-6.7,134.5-60.3l57.2-150.2C636.7,75.7,633.6,68.8,627.4,66.4z M442,113.8
	c9.7-8.9,38.5-11.1,45.7-13.2c3.7,12.6-3.6,25.8-16.3,29.5C458.8,133.7,445.6,126.4,442,113.8z M407.3,234.2
	c30.9-61,107.6-29.7,97.2,37C476.7,253.6,446.3,239,407.3,234.2z M527.3,151.8c-5.8-11.8-0.9-26.1,11-31.8
	c3.3,6.8,20.9,29.6,20.9,42.8C547.3,168.5,533,163.6,527.3,151.8z"/>
<path class="st2" d="M328.6,5.2c-55.8,25.1-115.4,40.6-177.9,48.5c-6.4,1.7-10.2,8.4-8.4,14.7l42.2,155.1
	c15.1,55.3,72.6,88.2,127.9,73.2l0,0c55.3-15.1,88.2-72.6,73.2-127.9L343.3,13.6C341.6,7.2,334.9,3.4,328.6,5.2z M211.9,158.7
	c-7.3-11-4.2-25.7,6.7-33c11-7.3,25.7-4.2,33,6.7C245.4,136.6,225,157.1,211.9,158.7z M236.3,222c39.3-0.9,71-12.5,100.3-27.3
	C340.5,262,261.1,285.7,236.3,222z M328.6,126.9c-12.1,5.2-40-2.1-47.5-2.5c0.7-13.1,11.9-23.2,25-22.5
	C319.2,102.6,329.3,113.8,328.6,126.9z"/>
</svg>
