<!-- Generator: Adobe Illustrator 19.1.0, SVG Export Plug-In  -->
<svg version="1.1"
	 xmlns="http://www.w3.org/2000/svg" xmlns:xlink="http://www.w3.org/1999/xlink" xmlns:a="http://ns.adobe.com/AdobeSVGViewerExtensions/3.0/"
	 x="0px" y="0px" width="221.3px" height="243.2px" viewBox="0 0 221.3 243.2"
	 style="overflow:scroll;enable-background:new 0 0 221.3 243.2;" xml:space="preserve">
<style type="text/css">
	.st0{fill:#FFFFFF;stroke:#322D2A;stroke-miterlimit:10;}
	.st1{fill:#FFFFFF;}
	.st2{fill:#322D2A;}
	.st3{fill:#322D2A;stroke:#FFFFFF;stroke-miterlimit:10;}
	.st4{fill:none;}
	.st5{fill:#FDFEFF;}
	.st6{fill:#312D2A;}
	.st7{fill:#FFFFFF;stroke:#312D2A;stroke-miterlimit:10;}
</style>
<defs>
</defs>
<g>
	<g>
		<g>
			<g>
				<path class="st0" d="M151,65.9c0.1-29.1,9.8-43.9,24.8-50.6c16.6,6.3,27.3,20.9,27.5,50.6H151z"/>
				<path class="st1" d="M133.4,122l-13.7,8.9l2.4,3.9c0,0,3.6,8,11.5,3.6c7.9-4.4,2.4-12.3,2.4-12.3L133.4,122z"/>
				<path class="st2" d="M133.4,122l-0.3-0.4l-14.1,9.2l2.6,4.3l0.5-0.3l-0.5,0.2c0,0,0.6,1.3,1.8,2.6c1.2,1.3,3.1,2.6,5.7,2.6
					c1.4,0,3-0.4,4.7-1.4c1.7-1,2.9-2.1,3.6-3.3c0.7-1.2,1-2.5,1-3.7c0-3.3-1.9-6-1.9-6.1l-0.4,0.3l0.5-0.3l-2.9-4.6l-0.5,0.3
					L133.4,122l-0.5,0.3l2.6,4.2l0,0l0,0c0.2,0.3,1.7,2.7,1.7,5.4c0,1-0.2,2.1-0.8,3.1c-0.6,1-1.6,2-3.2,2.9c-1.6,0.9-3,1.2-4.2,1.2
					c-2.2,0-3.8-1.1-4.9-2.3c-0.5-0.6-1-1.2-1.2-1.6c-0.1-0.2-0.2-0.4-0.3-0.5l-0.1-0.1l0,0l0,0l-2.1-3.5l13.3-8.7L133.4,122
					l-0.5,0.3L133.4,122z"/>
				<path class="st3" d="M79.8,48l-45.7,0c-3.7,0-7,2.4-8.2,5.9C19,75.3,2,133.2,2,133.2l18.2,6.1l14.2-50.5c0-0.1,0.1,0,0.1-3.7
					l-0.4,146.9c0,7.5,3.1,10.6,6.9,10.6h15.6c3.5,0,6.4-2.8,6.4-6.4V150c0-2.4,1.9-4.3,4.3-4.3c0,0,4.3,0,4.3,4.3v87
					c0,3.1,2.5,5.7,5.7,5.7H92c3.5,0,6.3-2.8,6.3-9.9L97.9,68c0,3.6,27.3,62.7,27.3,62.7l6.5-3.3l-24.3-73c-1.2-4-5.4-6.4-9.6-6.4
					L79.8,48z"/>
				<path class="st4" d="M79.8,48v-0.5l-45.7,0c-4,0-7.5,2.5-8.7,6.3c-6.9,21.3-23.9,79.3-23.9,79.3l-0.1,0.5l19.2,6.4L35,89
					l-0.4-0.1L35,89l0,0l-0.4-0.1L35,89l-0.2-0.1L35,89l0,0l-0.2-0.1L35,89l0-0.1c0-0.1,0-0.3,0.1-0.8c0-0.5,0-1.4,0-2.9v0l-1.1,0
					l-0.4,146.9l0,0c0,3.8,0.8,6.6,2.1,8.4c1.3,1.8,3.3,2.7,5.3,2.7h15.6c3.8,0,6.9-3.1,6.9-6.9V150c0-2.1,1.7-3.8,3.8-3.8l0,0l0,0
					c0.2,0,1.2,0.1,2.1,0.6c0.4,0.3,0.9,0.6,1.2,1.1c0.3,0.5,0.5,1.2,0.5,2.1l0.5,0h-0.5v87c0,3.4,2.8,6.2,6.2,6.2H92
					c1.9,0,3.6-0.8,4.9-2.5c1.2-1.7,1.9-4.3,1.9-7.9l0,0L98.5,68l-1.1,0c0,0.2,0,0.4,0.1,0.6c0.2,0.9,0.8,2.5,1.7,4.7
					c6,15.2,25.6,57.6,25.6,57.6l0.2,0.5l7.4-3.8l-24.5-73.4l-0.5,0.2l0.5-0.2c-0.7-2.1-2.1-3.8-3.9-5c-1.8-1.1-4-1.8-6.2-1.8l-18,0
					L79.8,48v0.5l18,0c2,0,4,0.6,5.6,1.6c1.6,1,2.9,2.5,3.5,4.4l0,0l24.2,72.5l-6.1,3.1l0.2,0.5l0.5-0.2c0,0-0.4-0.9-1.2-2.5
					c-2.6-5.7-9.1-19.9-15-33.1c-2.9-6.6-5.7-13-7.8-17.8c-1-2.4-1.9-4.5-2.4-6.1c-0.3-0.8-0.5-1.4-0.7-1.9
					c-0.2-0.5-0.2-0.8-0.2-0.9l-1.1,0l0.4,164.8v0l0,0c0,3.5-0.7,5.9-1.7,7.3c-1,1.5-2.4,2.1-4,2.1H77.4c-1.4,0-2.7-0.6-3.6-1.5
					c-0.9-0.9-1.5-2.2-1.5-3.6v-87l0,0c0-1.2-0.3-2.1-0.8-2.8c-0.7-1-1.7-1.6-2.6-1.8c-0.8-0.3-1.5-0.3-1.5-0.3l0,0h0
					c-2.7,0-4.9,2.2-4.9,4.9v86.4c0,1.6-0.7,3.1-1.7,4.1c-1.1,1.1-2.5,1.7-4.1,1.7H41.1c-1.8,0-3.3-0.7-4.5-2.3
					c-1.2-1.6-1.9-4.1-1.9-7.8l0,0l0.4-146.9l-1.1,0l0,0c0,1.8,0,2.7,0,3.1c0,0.2,0,0.3,0,0.4l0,0l0.3,0.1L34,88.6l0,0l0.3,0.1
					L34,88.6l0.1,0l-0.1,0l0,0l0.1,0l-0.1,0l0,0l-14.1,49.9l-17.7-5.9L2,133.2l0.5,0.1c0,0,0.3-0.9,0.7-2.5
					c3.3-11.4,17.1-58.1,23.1-76.7c1.1-3.3,4.2-5.6,7.7-5.6l45.7,0L79.8,48z"/>
				<rect x="36.9" y="47.7" class="st1" width="59.7" height="51.1"/>
				<path class="st2" d="M56.1,48.2l6.3,4.3c0.3,0.2,0.5,0.5,0.4,0.9l-3,37.3c0,0.2,0,0.4,0.2,0.6l4.5,6.1c0.5,0.6,1.5,0.6,2,0
					l4.7-5.9c0.2-0.2,0.2-0.4,0.2-0.7l-3.6-37.4c0-0.3,0.1-0.7,0.4-0.9l6.2-4.4"/>
				<path class="st2" d="M46.6,139.8H34.4l0.1-50.9l-14.3,50.5L2.2,133l23.8-79c0,0,1.4-5.7,7.6-6.3s21.4,0,21.4,0l16.8,59.6
					l-5.9,32.2L46.6,139.8z"/>
				<path class="st1" d="M46.6,139.8v-0.5H35L35.1,85l-15.2,53.6l-17.1-6l23.6-78.5l0,0l0,0c0.1-0.3,0.5-1.6,1.6-2.9
					c1.1-1.3,2.8-2.6,5.5-2.9c2-0.2,5.1-0.3,8.2-0.2c3.2,0,6.4,0.1,8.9,0.1c2.5,0.1,4.2,0.1,4.2,0.1l0-0.5l-0.5,0.1l16.8,59.5
					L65.3,139l-18.7,0.2L46.6,139.8v-0.5V139.8l0,0.5l19.6-0.2l6-32.8l-17-60.1l-0.4,0c0,0-6.8-0.3-13.1-0.3c-3.2,0-6.2,0.1-8.3,0.3
					c-3.2,0.3-5.3,2-6.5,3.6c-1.2,1.6-1.5,3.1-1.6,3.1l0.5,0.1l-0.5-0.2L1.5,133.3l19.1,6.7L34,92.7l-0.1,47.6h12.7l0,0L46.6,139.8z
					"/>
				<polygon class="st2" points="44.9,62.9 49.6,47.7 56.1,47.7 68.3,100.6 47.4,69.5 52.3,64.4 				"/>
				<polygon class="st1" points="44.9,62.9 45.4,63.1 50,48.2 55.7,48.2 67.2,97.9 48.1,69.5 53.4,64.1 45,62.4 44.9,62.9 
					45.4,63.1 44.9,62.9 44.8,63.4 51.3,64.8 46.7,69.4 69.5,103.3 56.5,47.2 49.2,47.2 44.2,63.3 44.8,63.4 				"/>
				<path class="st2" d="M138,127.4l-16.5,7.8L97.7,78.6l0.3,61.2l-36.4-0.2v-32.2l13.3-59.4h22.4c6.8-0.6,10.1,6.5,10.1,6.5
					L138,127.4z"/>
				<path class="st1" d="M138,127.4l-0.2-0.5l-16,7.5L97.2,75.9l0.3,63.3L62.1,139v-31.6l13.2-58.9l22,0l0,0c0.2,0,0.5,0,0.7,0
					c3,0,5.2,1.5,6.7,3.1c0.7,0.8,1.3,1.6,1.7,2.1c0.2,0.3,0.3,0.5,0.4,0.7l0.1,0.2l0,0.1l0.5-0.2l-0.5,0.2l30.6,73L138,127.4
					l-0.2-0.5L138,127.4l0.5-0.2l-30.6-73l0,0c0,0-0.8-1.7-2.4-3.4c-1.6-1.7-4.1-3.4-7.4-3.4c-0.3,0-0.5,0-0.8,0l0,0.5v-0.5H74.5
					l-13.5,59.8v32.8l37.5,0.2l-0.3-59.1l22.9,54.6l17.5-8.2l-0.2-0.5L138,127.4z"/>
				<path class="st2" d="M85.5,64.7l-5.3-16.7h-7.3L62.3,104c-0.1,0.3,0.4,0.5,0.5,0.2l17.9-33.1l-3.4-5.8L85.5,64.7z"/>
				<path class="st1" d="M85.5,64.7l0.5-0.2l-5.4-17.1h-8.1l-10.7,56.5l0,0.2c0,0.2,0.1,0.5,0.3,0.6c0.2,0.1,0.4,0.2,0.6,0.2
					c0.3,0,0.6-0.2,0.7-0.4l18-33.4l-3.1-5.3l8-0.6L86,64.5L85.5,64.7l0-0.5l-9.1,0.7l3.7,6.3l-17.8,32.8l0.2,0.1v-0.2l-0.2,0.1
					l0.2,0.1v-0.2v0.2l0.1-0.2l-0.1-0.1v0.2l0.1-0.2l-0.2,0.2l0.2,0l-0.1-0.2l-0.2,0.2l0.2,0h-0.2l0.2,0l0,0h-0.2l0.2,0l10.5-55.6
					l6.5,0L85,64.8L85.5,64.7l0-0.5L85.5,64.7z"/>
				<circle class="st1" cx="67.7" cy="110.7" r="2.5"/>
				<path class="st2" d="M70.2,110.7h-0.5c0,1.1-0.9,1.9-1.9,1.9c-1.1,0-1.9-0.9-1.9-1.9c0-1.1,0.9-1.9,1.9-1.9
					c1.1,0,1.9,0.9,1.9,1.9H70.2h0.5c0-1.6-1.3-3-3-3c-1.6,0-3,1.3-3,3c0,1.6,1.3,3,3,3c1.6,0,3-1.3,3-3H70.2z"/>
				<circle class="st1" cx="67.7" cy="121.4" r="2.5"/>
				<path class="st2" d="M70.2,121.4h-0.5c0,1.1-0.9,1.9-1.9,1.9c-1.1,0-1.9-0.9-1.9-1.9c0-1.1,0.9-1.9,1.9-1.9
					c1.1,0,1.9,0.9,1.9,1.9H70.2h0.5c0-1.6-1.3-3-3-3c-1.6,0-3,1.3-3,3c0,1.6,1.3,3,3,3c1.6,0,3-1.3,3-3H70.2z"/>
				<circle class="st1" cx="67.7" cy="132.1" r="2.5"/>
				<path class="st2" d="M70.2,132.1h-0.5c0,1.1-0.9,1.9-1.9,1.9c-1.1,0-1.9-0.9-1.9-1.9c0-1.1,0.9-1.9,1.9-1.9
					c1.1,0,1.9,0.9,1.9,1.9H70.2h0.5c0-1.6-1.3-3-3-3c-1.6,0-3,1.3-3,3c0,1.6,1.3,3,3,3c1.6,0,3-1.3,3-3H70.2z"/>
				<path class="st1" d="M2.9,133.8l16.1,5.5l-1.5,4.3c0,0-1.7,8.5-10.8,6.1c-9.1-2.4-5.4-11.3-5.4-11.3L2.9,133.8z"/>
				<path class="st2" d="M2.9,133.8l-0.2,0.5l15.6,5.3l-1.3,3.8l0,0l0,0.1c-0.1,0.3-0.5,1.9-1.6,3.3c-1.1,1.4-2.8,2.7-5.6,2.8
					c-0.9,0-1.8-0.1-2.9-0.4c-2.4-0.6-3.8-1.7-4.7-2.9c-0.8-1.2-1.1-2.6-1.1-3.9c0-1,0.2-2,0.3-2.7c0.1-0.3,0.2-0.6,0.2-0.8l0.1-0.2
					l0-0.1l0,0l1.6-4.6L2.9,133.8l-0.2,0.5L2.9,133.8l-0.5-0.2l-1.6,4.6l0.5,0.2l-0.5-0.2c0,0-0.8,1.9-0.8,4.1c0,1.4,0.3,3,1.3,4.5
					c1,1.4,2.7,2.7,5.3,3.4c1.2,0.3,2.2,0.4,3.2,0.4c1.7,0,3.1-0.4,4.2-1.1c1.7-1,2.7-2.5,3.3-3.7c0.6-1.2,0.8-2.2,0.8-2.2l-0.5-0.1
					l0.5,0.2l1.7-4.8l-17.1-5.8l-0.2,0.5L2.9,133.8z"/>
				<ellipse class="st2" cx="162.2" cy="29.3" rx="2.2" ry="3.3"/>
				<path class="st2" d="M165,33.5c0.7,1.6,0.4,3.4-0.7,3.9c-1.1,0.5-2.6-0.4-3.4-2c-0.7-1.6-0.4-3.4,0.7-3.9S164.3,31.9,165,33.5z"
					/>
				<path class="st2" d="M164.9,24.8c-0.5,1.7-1.9,2.8-3.1,2.4c-1.2-0.4-1.7-2.1-1.2-3.8c0.5-1.7,1.9-2.8,3.1-2.4
					C164.9,21.4,165.4,23.1,164.9,24.8z"/>
				<path class="st2" d="M166.4,21.6c-1,1.5-2.7,2.1-3.7,1.3c-1-0.7-1-2.5,0-4c1-1.5,2.7-2.1,3.7-1.3
					C167.5,18.3,167.4,20.1,166.4,21.6z"/>
				<path class="st2" d="M169.3,18.6c-1.4,1-3.2,1.1-3.9,0c-0.7-1-0.1-2.7,1.3-3.8c1.4-1,3.2-1.1,3.9,0
					C171.3,15.9,170.8,17.6,169.3,18.6z"/>
				<path class="st2" d="M173.4,17.4c-1.7,0.6-3.4,0.1-3.8-1.1c-0.4-1.2,0.6-2.6,2.3-3.2c1.7-0.6,3.4-0.1,3.8,1.1
					C176.1,15.4,175.1,16.9,173.4,17.4z"/>
				<path class="st2" d="M177.6,17.3c-1.8-0.1-3.1-1.2-3-2.5c0.1-1.3,1.6-2.2,3.3-2.1c1.8,0.1,3.1,1.2,3,2.5
					C180.9,16.5,179.4,17.5,177.6,17.3z"/>
				<path class="st2" d="M181.9,18.1c-1.7-0.6-2.6-2.1-2.2-3.3c0.4-1.2,2.1-1.6,3.8-1c1.7,0.6,2.6,2.1,2.2,3.3
					S183.6,18.7,181.9,18.1z"/>
				<path class="st2" d="M185.5,20.9c-1.4-1.1-2-2.8-1.2-3.8c0.7-1,2.5-1,3.9,0.1c1.4,1.1,2,2.8,1.2,3.8
					C188.6,22,186.9,21.9,185.5,20.9z"/>
				<path class="st2" d="M188.3,24.5c-0.6-1.7-0.1-3.4,1.1-3.8c1.2-0.4,2.6,0.7,3.1,2.4c0.6,1.7,0.1,3.4-1.1,3.8
					C190.3,27.3,188.9,26.2,188.3,24.5z"/>
				<ellipse class="st2" cx="191" cy="29" rx="2.2" ry="3.3"/>
				<path class="st2" d="M188.1,33.3c0.7-1.6,2.2-2.6,3.3-2.1c1.1,0.5,1.5,2.3,0.8,3.9c-0.7,1.6-2.2,2.6-3.3,2.1
					C187.8,36.7,187.4,35,188.1,33.3z"/>
				<ellipse class="st2" cx="176.5" cy="29.4" rx="14" ry="13.9"/>
				<path class="st1" d="M190.4,29.4h-0.2c0,3.8-1.5,7.2-4,9.6c-2.5,2.5-5.9,4-9.7,4c-3.8,0-7.2-1.5-9.7-4c-2.5-2.5-4-5.9-4-9.6
					c0-3.8,1.5-7.2,4-9.6c2.5-2.5,5.9-4,9.7-4c3.8,0,7.2,1.5,9.7,4c2.5,2.5,4,5.9,4,9.6H190.4h0.2c0-3.9-1.6-7.4-4.2-10
					c-2.6-2.6-6.1-4.1-10.1-4.1c-3.9,0-7.5,1.6-10.1,4.1c-2.6,2.6-4.2,6.1-4.2,10c0,3.9,1.6,7.4,4.2,10c2.6,2.6,6.1,4.1,10.1,4.1
					c3.9,0,7.5-1.6,10.1-4.1c2.6-2.6,4.2-6.1,4.2-10H190.4z"/>
				<path class="st5" d="M168,52.8c-4.5-4.8-3.5-19.2-3.5-19.2s12.4,0.6,18.9-12.2c0,0-0.4,6.1,5.5,10.8c0,0,0,16.4-4,20.7
					C181.9,56,172.5,57.6,168,52.8z"/>
				<path class="st2" d="M168,52.8l0.4-0.3c-1.4-1.5-2.4-4.3-2.9-7.2c-0.5-2.9-0.6-6.1-0.6-8.3c0-1,0-1.8,0-2.4c0-0.6,0-0.9,0-0.9
					l-0.5,0l0,0.5c0,0,0.1,0,0.3,0c1,0,4.2-0.1,8-1.8c3.8-1.6,8.1-4.8,11.1-10.7l-0.4-0.2l-0.5,0c0,0,0,0.1,0,0.3
					c0,0.6,0.1,2.3,0.8,4.4c0.8,2,2.2,4.5,4.9,6.6l0.3-0.4l-0.5,0l0,0c0,0.1,0,4.2-0.5,8.8c-0.3,2.3-0.6,4.7-1.2,6.8
					c-0.6,2.1-1.3,3.8-2.2,4.8c-0.7,0.8-2,1.5-3.5,2c-1.5,0.5-3.2,0.8-5,0.8c-2.9,0-5.8-0.8-7.7-2.9L168,52.8l-0.4,0.3
					c2.2,2.3,5.3,3.2,8.4,3.2c1.9,0,3.7-0.3,5.3-0.9c1.6-0.6,3-1.3,3.9-2.3c1.1-1.2,1.9-3.1,2.5-5.2c1.7-6.5,1.7-15.6,1.7-15.8h-0.3
					l0.3,0l0,0h-0.3l0.3,0l0-0.2l-0.2-0.2c-2.5-2-3.8-4.2-4.5-6.1c-0.7-1.9-0.8-3.4-0.8-4l0-0.2l0-0.1l0.2-2.4l-1.1,2.2
					c-2.9,5.8-7,8.7-10.6,10.3c-3.6,1.6-6.7,1.7-7.6,1.7l-0.2,0l-0.1,0l-0.5,0l0,0.5c0,0-0.1,1.4-0.1,3.4c0,2.3,0.1,5.5,0.6,8.5
					c0.5,3,1.4,5.9,3.1,7.7L168,52.8z"/>
				<path class="st1" d="M153.2,59.4c-2.7,0-5,2.2-5.9,5.6c-5,20-15.2,46.9-22,68.5c-4.3,12.1,8.7,18.1,12.5,6.8l18.6-61.7
					l13.9,44.3L145.6,200l14-0.1l0,35.6c0,3.6,2.2,6.5,5,6.5l4.9,0.1c2.5,0,4.6-2.7,4.6-6l0-36.2h6.2l0,36.8c0,2.9,1.8,5.3,4.1,5.3
					h5.5c2.5,0,4.5-2.6,4.5-5.9l-0.1-36.3h11.3L184.6,125l13.4-44l10,60c3,9.7,15.1,4.5,12.4-5.8l-14.6-69.8c-0.9-3.8-3.9-6-6.9-6
					H153.2z"/>
				<path class="st2" d="M153.2,59.4v-0.5c-1.5,0-2.9,0.6-4,1.7c-1.1,1.1-1.9,2.5-2.4,4.3c-4.9,20-15.2,46.9-22,68.5l0.5,0.1
					l-0.5-0.2c-0.6,1.7-0.9,3.4-0.9,4.8c0,2.6,0.9,4.7,2.2,6.3c1.3,1.5,3.1,2.4,5,2.4c1.4,0,2.8-0.5,4.1-1.5c1.3-1,2.3-2.6,3.1-4.8
					l0,0l18.1-60.2l13.3,42.7l-24.8,77.6l14.2-0.1l0,35.1v0l0,0c0,1.9,0.6,3.6,1.6,4.9c1,1.3,2.3,2.1,3.9,2.1v-0.5l0,0.5l4.9,0.1h0
					c1.4,0,2.7-0.8,3.6-1.9c0.9-1.2,1.4-2.8,1.4-4.5l0-35.7h5.2l0,36.3c0,1.6,0.5,3,1.3,4.1c0.8,1.1,2,1.8,3.3,1.8h5.5
					c1.4,0,2.7-0.8,3.6-1.9c0.9-1.2,1.4-2.7,1.4-4.4v0v0l-0.1-35.8l11.5,0l-21-75.6l12.8-41.9l9.7,58l0,0c0.6,1.9,1.5,3.2,2.6,4.1
					c1.1,0.9,2.4,1.3,3.7,1.3c1.9,0,3.7-0.8,5.1-2.3c1.4-1.5,2.3-3.6,2.3-6.1c0-1-0.1-2-0.4-3.1l-0.5,0.1l0.5-0.1l-14.7-69.8l0,0
					c-0.9-4-4.1-6.3-7.4-6.3h-45.7V59.4v0.5h45.7c2.8,0,5.6,2,6.4,5.6l0.5-0.1l-0.5,0.1l14.7,69.8l0,0c0.3,1,0.4,1.9,0.4,2.8
					c0,2.3-0.8,4.2-2,5.5c-1.2,1.3-2.8,2-4.4,2c-1.1,0-2.2-0.3-3.1-1.1c-0.9-0.8-1.8-2-2.3-3.7l-0.5,0.1l0.5-0.1l-10.4-62.1
					L184.1,125l20.7,74.6l-11.2,0l0.1,36.8v0v0c0,1.5-0.5,2.9-1.2,3.9c-0.7,1-1.7,1.5-2.8,1.5h-5.5c-0.9,0-1.8-0.5-2.5-1.4
					c-0.7-0.9-1.1-2.1-1.1-3.5l0-37.3h-7.2l0,36.7c0,1.5-0.5,2.9-1.2,3.9c-0.8,1-1.8,1.6-2.8,1.6v0.5l0-0.5l-4.9-0.1h0
					c-1.2,0-2.3-0.6-3.1-1.7c-0.8-1.1-1.4-2.6-1.4-4.3l0,0l0-36.1l-13.8,0.1l24.5-76.6l-14.4-46l-19,63.2l0.5,0.1l-0.5-0.2
					c-0.7,2-1.7,3.4-2.8,4.3c-1.1,0.9-2.3,1.3-3.5,1.3c-1.6,0-3.1-0.7-4.3-2c-1.2-1.3-1.9-3.2-1.9-5.6c0-1.4,0.3-2.9,0.8-4.5l0,0
					l0,0c6.9-21.6,17.1-48.5,22-68.6c0.4-1.6,1.1-2.9,2.1-3.8c1-0.9,2.1-1.4,3.3-1.4L153.2,59.4z"/>
				<path class="st1" d="M192.8,117.7c15.2,23.4,17.9,76.7,17,115.1h-68.2c1.9-40.4,1-83.7,20.2-115.2l-5.5-33.9l-17.3,52.9
					l-13.5-3.5L142,75.8c-1-1.8-1.6-3.8-1.6-6c0-6.4,4.9-11.6,10.9-11.6c1.9,0,5.4,1.1,5.4,1.1l7,0c2.5,20.4,24.4,20.9,24.8,0.2h7.7
					c0,0,4.2-1.4,6.6-1.4c6,0,10.9,5.2,10.9,11.6c0,2.4-0.7,4.6-1.8,6.4c-0.4,0.6,8,56.6,8,56.6l-12.9,3l-9-51.7L192.8,117.7z"/>
				<path class="st2" d="M192.8,117.7l-0.4,0.3c6.7,10.3,11,26.5,13.6,44.7c2.6,18.2,3.5,38.4,3.5,56.6c0,4.7-0.1,9.2-0.2,13.5
					l0.5,0v-0.5h-68.2v0.5l0.5,0c1.9-40.4,1-83.7,20.1-114.9l0.1-0.2l-5.9-36.1L138.5,136l-12.5-3.2l16.5-57l-0.1-0.2
					c-1-1.7-1.5-3.7-1.5-5.8c0-3.1,1.2-5.8,3.1-7.9c1.9-2,4.5-3.2,7.4-3.2c0.9,0,2.2,0.3,3.3,0.5c0.5,0.1,1,0.3,1.4,0.4
					c0.3,0.1,0.6,0.2,0.6,0.2l0.1,0l7.1,0l0-0.5l-0.5,0.1c0.6,5.2,2.6,9.2,5.1,11.9c2.5,2.7,5.7,4.1,8.8,4.1c3,0,6-1.3,8.2-4
					c2.2-2.6,3.6-6.6,3.7-11.8l-0.5,0V60h7.8l0.1,0c0,0,0.3-0.1,0.7-0.2c1.3-0.4,4.1-1.1,5.8-1.1c2.9,0,5.5,1.2,7.4,3.3
					c1.9,2,3.1,4.8,3.1,7.9c0,2.3-0.6,4.4-1.7,6.2l0,0l-0.1,0.2c0,0.1,0,0.1,0,0.2c0,0.2,0,0.6,0.1,1.2c0.9,8.4,8,55.4,8,55.4
					l0.5-0.1l-0.1-0.5l-12.4,2.9L198,81.1l-5.7,36.8l0.1,0.2L192.8,117.7l0.5,0.1l4.8-30.7l8.6,49.2l13.9-3.2l-0.1-0.5
					c0,0-0.1-0.8-0.3-2.3c-0.8-5.1-2.7-18.1-4.4-30c-0.9-6-1.7-11.7-2.3-16.1c-0.3-2.2-0.5-4.1-0.7-5.5c-0.2-1.4-0.3-2.3-0.3-2.6
					l0,0l0,0l-0.2,0l0.2,0l0,0l-0.2,0l0.2,0l-0.4-0.1l0.4,0.2l0.1-0.1l-0.4-0.1l0.4,0.2l0,0c1.2-1.9,1.9-4.2,1.9-6.7
					c0-3.3-1.3-6.3-3.3-8.5c-2.1-2.2-4.9-3.6-8.1-3.6c-1.3,0-3,0.3-4.4,0.7C197,58.7,196,59,196,59l0.2,0.5V59h-8.2l0,0.5
					c-0.1,5-1.5,8.8-3.5,11.2c-2,2.4-4.7,3.6-7.4,3.6c-2.8,0-5.7-1.2-8-3.7c-2.4-2.5-4.2-6.3-4.8-11.3l-0.1-0.4l-7.4,0l0,0.5
					l0.2-0.5c0,0-0.9-0.3-2-0.6c-1.1-0.3-2.5-0.6-3.5-0.6c-3.2,0-6,1.4-8.1,3.5c-2.1,2.2-3.3,5.2-3.3,8.5c0,2.3,0.6,4.5,1.7,6.3
					l0.4-0.2l-0.5-0.1l-16.8,57.8l14.4,3.7L156,85.8l5.2,31.9l0.5-0.1l-0.4-0.3c-19.2,31.7-18.3,75-20.2,115.4l0,0.5h69.2l0-0.5
					c0.1-4.4,0.2-8.9,0.2-13.6c0-18.3-0.9-38.5-3.5-56.8c-2.6-18.3-6.9-34.6-13.7-45.1L192.8,117.7l0.5,0.1L192.8,117.7z"/>
				<path class="st2" d="M195.1,232.7c0.6,7.8-2.1,9.5-4.8,9.5h-5.9c-2.4,0-5.3-0.6-4.3-9.5H195.1z"/>
				<path class="st2" d="M173.6,232.7c0.6,7-2.2,9.5-4.8,9.5l-5.2-0.1c-2.9,0-5.3-2.3-5.3-9.4H173.6z"/>
				<g>
					
						<ellipse transform="matrix(-0.8348 -0.5505 0.5505 -0.8348 117.493 63.5562)" class="st6" cx="68.3" cy="14.2" rx="15.9" ry="13.3"/>
					
						<ellipse transform="matrix(-0.4921 0.8706 -0.8706 -0.4921 91.5939 -26.984)" class="st6" cx="53.7" cy="13.2" rx="9.6" ry="8.3"/>
					<path class="st7" d="M74.2,44c5.2-5.4,4.1-21.7,4.1-21.7S64,22.9,56.5,8.4c0,0,0.5,6.9-6.3,12.2c0,0-1.9,18.6,4.7,23.4
						S69,49.4,74.2,44z"/>
				</g>
			</g>
		</g>
	</g>
</g>
</svg>
