<!-- Generator: Adobe Illustrator 19.1.0, SVG Export Plug-In  -->
<svg version="1.1"
	 xmlns="http://www.w3.org/2000/svg" xmlns:xlink="http://www.w3.org/1999/xlink" xmlns:a="http://ns.adobe.com/AdobeSVGViewerExtensions/3.0/"
	 x="0px" y="0px" width="58.4px" height="168.9px" viewBox="0 0 58.4 168.9"
	 style="overflow:scroll;enable-background:new 0 0 58.4 168.9;" xml:space="preserve">
<style type="text/css">
	.st0{fill:#68877B;}
	.st1{fill:#B4C1BC;}
	.st2{fill:#33312E;}
	.st3{fill:#4D685C;}
	.st4{fill:#FFFFFF;}
</style>
<defs>
</defs>
<g>
	<rect y="21.1" class="st0" width="58.4" height="113.3"/>
	<polygon class="st1" points="11.8,86.8 6.8,114.3 16.8,113.9 	"/>
	<polygon class="st1" points="28.1,87.5 23.1,115.3 33.1,114.8 	"/>
	<polygon class="st1" points="46.5,87.9 41.5,115.3 51.5,114.8 	"/>
	<rect x="7.7" y="114.3" class="st2" width="46.3" height="3.5"/>
	<polygon class="st3" points="0,136.5 7.7,136.5 7.7,96.9 16.1,96.9 16.1,136.5 24.1,136.5 24.1,96.9 32.4,96.9 32.4,136.5 
		41.7,136.5 41.7,96.9 51.6,96.9 51.6,136.5 58.4,136.5 58.4,0 0,0 	"/>
	<rect x="5.9" y="6.5" class="st4" width="10.8" height="14.6"/>
	<rect x="5.9" y="26.2" class="st4" width="10.8" height="10.8"/>
	<rect x="5.9" y="42.1" class="st4" width="10.8" height="10.8"/>
	<rect x="5.9" y="58" class="st4" width="10.8" height="10.8"/>
	<rect x="5.9" y="73.9" class="st4" width="10.8" height="10.8"/>
	<rect x="24.1" y="117.8" class="st4" width="3.7" height="16.5"/>
	<rect x="28.1" y="117.8" class="st4" width="4.1" height="16.5"/>
	<rect x="23.2" y="6.5" class="st4" width="10.8" height="14.6"/>
	<rect x="23.2" y="26.2" class="st4" width="10.8" height="10.8"/>
	<rect x="23.2" y="42.1" class="st4" width="10.8" height="10.8"/>
	<rect x="23.2" y="58" class="st4" width="10.8" height="10.8"/>
	<rect x="23.2" y="73.9" class="st4" width="10.8" height="10.8"/>
	<rect x="40.6" y="6.5" class="st4" width="10.8" height="14.6"/>
	<rect x="40.6" y="26.2" class="st4" width="10.8" height="10.8"/>
	<rect x="40.6" y="42.1" class="st4" width="10.8" height="10.8"/>
	<rect x="40.6" y="58" class="st4" width="10.8" height="10.8"/>
	<rect x="40.6" y="73.9" class="st4" width="10.8" height="10.8"/>
	<rect x="5.9" y="10.6" class="st2" width="10.8" height="0.9"/>
	<rect x="10.8" y="10.6" class="st2" width="0.9" height="10.4"/>
	<rect x="10.8" y="26.3" class="st2" width="0.9" height="10.4"/>
	<rect x="10.8" y="42.3" class="st2" width="0.9" height="10.4"/>
	<rect x="10.8" y="58.2" class="st2" width="0.9" height="10.4"/>
	<rect x="10.8" y="74.1" class="st2" width="0.9" height="10.4"/>
	<rect x="23.2" y="10.6" class="st2" width="10.8" height="0.9"/>
	<rect x="40.6" y="10.6" class="st2" width="10.8" height="0.9"/>
</g>
<image style="overflow:visible;" width="203" height="113" xlink:href="D7BB6C56.png"  transform="matrix(0.24 0 0 0.24 6.7934 141.7475)">
</image>
</svg>
