<!-- Generator: Adobe Illustrator 19.1.0, SVG Export Plug-In  -->
<svg version="1.1"
	 xmlns="http://www.w3.org/2000/svg" xmlns:xlink="http://www.w3.org/1999/xlink" xmlns:a="http://ns.adobe.com/AdobeSVGViewerExtensions/3.0/"
	 x="0px" y="0px" width="99.6px" height="100.6px" viewBox="0 0 99.6 100.6"
	 style="overflow:scroll;enable-background:new 0 0 99.6 100.6;" xml:space="preserve">
<style type="text/css">
	.st0{fill:#4D685C;}
	.st1{fill:#312D2A;}
	.st2{fill:#68877B;}
	.st3{fill:#FFFFFF;}
</style>
<defs>
</defs>
<g>
	<g>
		<path class="st0" d="M1.3,41.6l22.9,4.5c0.2,0,0.4,0.2,0.4,0.5l-0.1,2.1c0,0.3-0.3,0.5-0.6,0.4L1.2,43.9c-0.1,0-0.2-0.1-0.2-0.1
			l-0.9-0.9C-0.1,42.6,0,42.2,0.3,42L1,41.7C1.1,41.6,1.2,41.6,1.3,41.6z"/>
		<path class="st0" d="M3.7,38.2l-0.6,0.7C3.1,38.9,3,39,3,39.1v12.1l1.7,0.5V39.2c0-0.1,0-0.2-0.1-0.2l-0.6-0.8
			C4,38.1,3.8,38,3.7,38.2z"/>
		<path class="st0" d="M6.7,39.1l-0.6,0.7c-0.1,0.1-0.1,0.1-0.1,0.2v12.2l1.7,0.5V40.2c0-0.1,0-0.2-0.1-0.2l-0.6-0.8
			C7,39,6.8,39,6.7,39.1z"/>
		<path class="st0" d="M10.2,39.8l-0.6,0.7c-0.1,0.1-0.1,0.2-0.1,0.2v12.7l1.7,0.6V40.9c0-0.1,0-0.2-0.1-0.2l-0.6-0.8
			C10.5,39.7,10.3,39.7,10.2,39.8z"/>
		<path class="st0" d="M14.3,40.5l-0.6,0.8c-0.1,0.1-0.1,0.2-0.1,0.2v13.2l1.7,0.6V41.6c0-0.1,0-0.2-0.1-0.2l-0.6-0.9
			C14.7,40.3,14.5,40.3,14.3,40.5z"/>
		<path class="st0" d="M18.6,41.7l-0.6,0.8C18,42.5,18,42.6,18,42.7V56l1.7,0.6V42.8c0-0.1,0-0.2-0.1-0.2l-0.6-0.9
			C19,41.5,18.7,41.5,18.6,41.7z"/>
	</g>
	<path class="st0" d="M99.1,32l-8.4,1.2c0,0-0.1,0-0.1,0l0,0l-40.3,4.4L36.9,15.2c0-0.2-0.1-0.3-0.2-0.4l-0.1-0.2l-0.1,0.1
		c0,0,0,0-0.1,0l-0.1,0.1L36,15l0.1,0.1L20.5,32l-6.7,0.7c-0.5,0-0.7-0.6-0.4-1L36.9,6.2C37,6.1,37.2,6,37.4,6L61,5.5V0.3L64,0
		l2.8,0.3l0.1,5l0.7,0l4.5-0.1c0.2,0,0.3,0.1,0.4,0.2L99.4,31C99.7,31.4,99.5,32,99.1,32z"/>
	<polygon class="st1" points="36,15.1 36,15 36.2,14.8 	"/>
	<path class="st1" d="M36.6,14.8c-0.1,0-0.2-0.1-0.2-0.1l0.1-0.1L36.6,14.8z"/>
	<path class="st2" d="M90.6,33.3c-0.2,0.1-0.4,0.3-0.4,0.6V60c0,0.3-0.2,0.5-0.5,0.6l-41,7.9c-0.1,0-0.2,0-0.2,0l-10.9-2.9
		c-0.3-0.1-0.4-0.3-0.4-0.6V43.1c0-0.3-0.2-0.5-0.5-0.6l-5.1-0.9c-0.4-0.1-0.7,0.2-0.7,0.6v20.6c0,0.4-0.4,0.7-0.8,0.6l-8.4-2.8
		c-0.2-0.1-0.4-0.3-0.4-0.6l0-27.3l15.2-16.9l0.4-0.5c0,0,0-0.1,0-0.1l13.4,22.5L90.6,33.3z"/>
	<polygon class="st3" points="73.2,38.4 76.2,38 76.2,42.3 73.2,42.8 	"/>
	<polygon class="st3" points="77.2,37.9 80.1,37.5 80.1,41.7 77.2,42.3 	"/>
	<polygon class="st3" points="77.2,43.6 80.1,43.3 80.1,47.5 77.2,48 	"/>
	<polygon class="st3" points="73.2,44.1 76.2,43.8 76.2,48 73.2,48.5 	"/>
	<polygon class="st3" points="58.3,40.6 61.3,40.2 61.3,44.4 58.3,45 	"/>
	<polygon class="st3" points="62.3,40 65.2,39.7 65.2,43.9 62.3,44.4 	"/>
	<polygon class="st3" points="62.3,45.8 65.2,45.4 65.2,49.6 62.3,50.2 	"/>
	<polygon class="st3" points="58.3,46.3 61.3,45.9 61.3,50.2 58.3,50.7 	"/>
	<polygon class="st3" points="50.4,37.9 49.8,38.2 49.6,37.9 36.4,15.8 36,15.1 36,15 36.2,14.8 36.4,14.7 36.5,14.6 36.6,14.8 
		36.9,15.2 50.3,37.7 	"/>
	<polygon class="st3" points="90.7,33.9 90.2,34 49.9,38.4 49.8,38.2 49.6,37.9 49.6,37.9 50.2,37.6 50.3,37.7 50.3,37.7 90.6,33.3 
		90.6,33.3 90.7,33.3 	"/>
	<polygon class="st0" points="38,62.3 38,64 31.3,66.6 23.7,64 23.7,62.3 29.7,60 	"/>
	<polygon class="st0" points="38,64.1 38,65.8 30.7,68.4 22.4,65.8 22.4,64.1 29,61.8 	"/>
	<circle class="st3" cx="34.9" cy="28.4" r="2.9"/>
</g>
<image style="overflow:visible;" width="185" height="113" xlink:href="7E7F3CC0.png"  transform="matrix(0.24 0 0 0.24 20.6058 73.5028)">
</image>
</svg>
