<!-- Generator: Adobe Illustrator 19.1.0, SVG Export Plug-In  -->
<svg version="1.1"
	 xmlns="http://www.w3.org/2000/svg" xmlns:xlink="http://www.w3.org/1999/xlink" xmlns:a="http://ns.adobe.com/AdobeSVGViewerExtensions/3.0/"
	 x="0px" y="0px" width="832px" height="116px" viewBox="0 0 832 116" style="overflow:scroll;enable-background:new 0 0 832 116;"
	 xml:space="preserve">
<style type="text/css">
	.st0{fill:#8EA99F;}
</style>
<defs>
</defs>
<g>
	<g>
		<rect class="st0" width="26.4" height="31.2"/>
		<rect x="36.6" y="0.7" class="st0" width="26.4" height="27.1"/>
		<rect x="73.2" y="2" class="st0" width="26.4" height="25.8"/>
		<rect x="109.9" y="3.1" class="st0" width="26.4" height="22.7"/>
		<rect x="146.5" y="4.4" class="st0" width="26.4" height="25.1"/>
		<rect x="183.1" y="5.1" class="st0" width="26.4" height="27.8"/>
		<rect x="219.7" y="5.8" class="st0" width="26.4" height="31.9"/>
		<rect x="256.3" y="5.4" class="st0" width="26.4" height="39"/>
		<rect x="293" y="6.4" class="st0" width="26.4" height="47.8"/>
		<rect x="329.6" y="8.8" class="st0" width="26.4" height="48.9"/>
		<rect x="366.2" y="11.2" class="st0" width="26.4" height="57"/>
		<rect x="402.8" y="12.9" class="st0" width="26.4" height="57"/>
		<rect x="439.4" y="12.2" class="st0" width="26.4" height="65.5"/>
		<rect x="476.1" y="12.9" class="st0" width="26.4" height="64.5"/>
		<rect x="512.7" y="17" class="st0" width="26.4" height="66.8"/>
		<rect x="549.3" y="20.4" class="st0" width="26.4" height="61.1"/>
		<rect x="585.9" y="20.4" class="st0" width="26.4" height="64.8"/>
		<rect x="622.5" y="24.8" class="st0" width="26.4" height="65.5"/>
		<rect x="659.1" y="25.1" class="st0" width="26.4" height="67.5"/>
		<rect x="695.8" y="26.8" class="st0" width="26.4" height="67.2"/>
		<rect x="732.4" y="28.2" class="st0" width="26.4" height="64.5"/>
		<rect x="769" y="25.4" class="st0" width="26.4" height="64.5"/>
		<rect x="805.6" y="29.9" class="st0" width="26.4" height="86.2"/>
	</g>
</g>
</svg>
