<?xml version="1.0" encoding="utf-8"?>
<!-- Generator: Adobe Illustrator 19.1.0, SVG Export Plug-In . SVG Version: 6.00 Build 0)  -->
<svg version="1.1" id="Layer_1" xmlns="http://www.w3.org/2000/svg" xmlns:xlink="http://www.w3.org/1999/xlink" x="0px" y="0px"
	 viewBox="-354 159.3 290 282.7" style="enable-background:new -354 159.3 290 282.7;" xml:space="preserve">
<style type="text/css">
	.st0{fill:none;}
	.st1{fill:#57897C;}
	.st2{fill:#CA2027;}
	.st3{fill:#FFFFFF;}
	.st4{fill:#312D2A;}
	.st5{fill:#FDFDFE;}
</style>
<g>
	<g>
		<g>
			<g>
				<path class="st0" d="M-207.7,300.6l-114.3-83c45.9-63.2,134.2-77.2,197.4-31.3s77.1,134.2,31.3,197.4
					c-27.2,37.4-68.1,58.3-114.3,58.3L-207.7,300.6L-207.7,300.6z"/>
			</g>
		</g>
		<g>
			<g>
				<path class="st0" d="M-207.7,300.6v141.3c-78,0.1-141.3-63.2-141.3-141.3c0-31.8,8.3-57.4,27-83.1L-207.7,300.6z"/>
			</g>
		</g>
	</g>
</g>
<g>
	<g>
		<g>
			<g>
				<path class="st0" d="M-207.7,300.6l138.7,27c14.9-76.6-35.1-150.8-111.7-165.7c-76.6-14.9-150.8,35.2-165.7,111.8
					s35.1,150.8,111.8,165.7c8.9,1.7,17.9,2.6,27,2.6L-207.7,300.6L-207.7,300.6z"/>
			</g>
		</g>
		<g>
			<g>
				<path class="st1" d="M-202.7,300.6v141.3c68.9,0,125.6-46.7,138.7-114.3L-202.7,300.6z"/>
			</g>
		</g>
	</g>
</g>
<g>
	<g>
		<g>
			<g>
				<path class="st0" d="M-217.7,300.6l83.1-114.3c63.1,45.9,77.1,134.2,31.3,197.4c-27.2,37.4-68,58.3-114.3,58.3L-217.7,300.6
					L-217.7,300.6z"/>
			</g>
		</g>
		<g>
			<g>
				<path class="st2" d="M-212.7,300.6v141.3c-78,0.1-141.3-63.2-141.3-141.3s63.3-141.3,141.3-141.3c31.7,0,57.4,8.4,83.1,27
					L-212.7,300.6z"/>
			</g>
		</g>
	</g>
</g>
<circle class="st3" cx="-207.8" cy="299.1" r="102.9"/>
<g>
	<g>
		<g>
			<path class="st4" d="M-236.3,262.2h-24.2c-2,0-3.7,1.3-4.3,3.1c-3.7,11.3-9.9,32.6-13.5,45.1c-2.4,7,7.6,9.7,9.6,3.2l8.4-29.8
				l0,0l-0.2,77.8c0,2,1.6,3.7,3.7,3.7h8.3c1.9,0,3.4-1.5,3.4-3.4v-45.7c0-1.3,1-2.3,2.3-2.3l0,0c1.3,0,2.3,1,2.3,2.3v46.1
				c0,1.7,1.3,3,3,3h7.7c1.8,0,3.3-1.5,3.3-3.3l-0.2-78.2c0,0,0,0,0.1,0l7.9,29.9c2.2,5.4,11.2,2.5,9.1-3.3l-12.1-44.8
				c-0.7-2.1-2.9-3.4-5.1-3.4H-236.3z"/>
			<circle class="st4" cx="-243.8" cy="244.6" r="12.4"/>
			<path class="st5" d="M-247.5,260.5l-2.2,1.6c-0.4,0.3-0.4,0.9,0,1.2l4.5,3.1c0.2,0.2,0.3,0.4,0.3,0.6l-2.2,26.8
				c0,0.2,0,0.3,0.1,0.5l3.3,4.4c0.3,0.4,1.1,0.5,1.4,0l3.4-4.2c0.1-0.1,0.2-0.3,0.2-0.5l-2.6-26.9c0-0.2,0.1-0.5,0.3-0.6l4.4-3.2
				c0.4-0.3,0.4-0.9-0.1-1.2l-2.8-1.6c-0.1-0.1-0.3-0.1-0.5-0.1h-7C-247.2,260.3-247.4,260.4-247.5,260.5z"/>
		</g>
	</g>
	<g>
		<g>
			<g>
				<path class="st4" d="M-168.7,266.6h-23.2c-1.9,0-3.6,1.2-4.1,3c-3.5,10.8-7.5,25.2-11,37.1c-2.3,6.7,7.2,9.3,9.2,3.1l8.1-29.4
					l0.7,22.9l-8.3,39.1h9.9v19.2c0,1.9,1.6,3.5,3.5,3.5h3.4c1.8,0,3.2-1.4,3.2-3.2v-19.5h4.4v19.9c0,1.6,1.3,2.9,2.9,2.9h3.9
					c1.8,0,3.2-1.4,3.2-3.2l-0.1-19.6h8l-7.4-39.1c0,0,1.3-23.1,1.3-23l8,30.3c2.1,5.2,10.7,2.4,8.8-3.1l-10.4-37.7
					c-0.6-2-2.7-3.2-4.9-3.2H-168.7z"/>
				<circle class="st4" cx="-175.8" cy="249.8" r="11.9"/>
				<path class="st5" d="M-179.4,265l-3.8,2.6c-0.4,0.3-0.4,0.8,0,1.1l2.6,0.3c0.2,0.1,0.3,0.4,0.3,0.6l-3.7,2.4
					c0,0.2,0,0.3,0.1,0.4l7.9,4.8c0.3,0.4,1,0.4,1.4,0l7.1-4.7c0.1-0.1,0.2-0.3,0.1-0.5l-4.3-2.5c0-0.2,0.1-0.5,0.3-0.6l3.3-0.3
					c0.4-0.3,0.4-0.9-0.1-1.1l-3.6-2.6c-0.1-0.1-0.3-0.1-0.5-0.1h-6.7C-179.1,264.9-179.3,264.9-179.4,265z"/>
			</g>
			<polygon class="st4" points="-190.3,261.6 -187.4,247.3 -164.2,247.6 -160.2,261.6 			"/>
		</g>
		<path class="st5" d="M-180.2,261.6c-2.5-2.6-1.9-10.4-1.9-10.4s6.8,0.3,10.4-6.6c0,0-0.2,3.3,3,5.8c0,0,0.9,8.9-2.2,11.2
			C-174,263.9-177.8,264.2-180.2,261.6z"/>
	</g>
</g>
</svg>
