<!-- Generator: Adobe Illustrator 19.1.0, SVG Export Plug-In  -->
<svg version="1.1"
	 xmlns="http://www.w3.org/2000/svg" xmlns:xlink="http://www.w3.org/1999/xlink" xmlns:a="http://ns.adobe.com/AdobeSVGViewerExtensions/3.0/"
	 x="0px" y="0px" width="183.9px" height="112.3px" viewBox="0 0 183.9 112.3"
	 style="overflow:scroll;enable-background:new 0 0 183.9 112.3;" xml:space="preserve">
<style type="text/css">
	.st0{opacity:0.5;fill-rule:evenodd;clip-rule:evenodd;fill:#CA2027;stroke:#FFFFFF;stroke-miterlimit:2.6131;}
</style>
<defs>
</defs>
<path class="st0" d="M180.5,63.6c0.5-0.5,0.1-1.2-0.2-1.7c-1.2,0-2.1-0.9-3.3-0.7c-1.8,0.2-4.4-0.2-6.4-0.2
	c-2.4-0.5-2.5,1.3-3.4,2.3c-1,0-1.9-0.3-2.6,0.2c-0.4,0-0.9-0.2-1.2-0.4c-1.3,0.8-1.1,1.7-2.9,1.7c-0.5,0.1-0.9,0-1.4-0.1
	c-0.9,0.4,0.3,3.2-2.5,2.5c-2.8-0.9-3.5-3.4-6.2-0.7c-2,0.6-4-1.2-6-0.3L144,66l-0.2,0.2c0,0.6,2.5,2.1,2.9,2.9
	c0.3,1.4,0.7,3,1.4,4.2c0.3,0.5,1.3,1.6,1.4,2.1c-0.8,0.4-2.3,4.7-3.4,5.8c-0.3,0.5-0.9,1.1-1,1.8c-0.6,2.1-2.3,2.9-1.4,5.1
	c0,1.8-3,2.7,0.9,4l0.4,0.2l0.3,0.1c0.5,1.5-1.3,2.9-1.3,4.7c0,0.2-0.2,0.6-0.2,0.9c-0.7-1-2.3-3.1-3.4-3.7c-1,0.6-1.5,1.3-2.2,2.2
	l-0.5,0.2c1.8,1.8,2.8,8.4,0.7,10.1l-0.4,0.3l-0.5,0.7c-0.4,0.4-1.8-0.4-2.2-0.7c-2.1,2.1-0.5,4.4-4.6,2.8c-1-1.6-1.5-1.9-3-2.6
	l-0.2-0.4l-0.1-1c-1.2,0-2.4-0.1-3.5-0.3l-0.2-0.9c0.2-0.1,0.3-0.4,0.3-0.6l-0.2-0.2c-1.8,0.4-2.5-0.6-2.9-2.1
	c1.8-0.4,0.4-2.3,0-4.3c0.8-0.2,1.8-1.6,0.6-2.1l-0.8,0.6c-0.4-0.3-0.9-0.7-1.2-1l-1.6,0.4l-0.7-1.2l-0.2-0.3l-0.9,0.9v0.2
	c-4.1-0.6-5.3-2.2-7.2-5.5c-1.8-1.3-4.1-1.4-5.8-2.8c-1.1-0.6-2.9-2.2-3.7-3.1l0.4-0.6l-0.9-1.4l-1.4-0.3c-0.2-2.7,0.5-5.5,0.5-8
	l-0.1-0.3c-0.9,0.3-2.6,1-3.5,0.6c-1.9-0.8-2.2,0.9-3.7,0.9c-1.5,0.1-4.6,0.3-2.1,2.2c-0.2,0.1-0.6,0.1-0.9,0.2
	c-0.1,0.2,0.2,1,0.2,1L88,78l-1-0.2v-1l-1.3-0.8l-0.6,0.6c-0.8-0.8-1.7-1.5-2.5-2.3c-0.6,1.3-1.3,0.9-2.2,0.6l-1.6,0.6l-0.5-1
	c-0.6,1-1,0.6-2.2,0.6l-0.3,1.1h-0.6l-0.2-0.2c-0.7,1.8-1.5,4-3.9,3.5c-0.3,0-0.8-0.2-1.1-0.2c1.5,2.2-0.2,3.3-0.5,5.4
	c0.1,0.9,1.3,2,1.3,2.7c-0.4,0.4-2.6-0.8-3,1.2c0.3,0.6,2.2,1.8,2.9,1.9c0.4,1.3-0.1,3.6-1,4.3c-2.9-1-5.4-1.6-8.4-0.4
	c-1.6,1.2-5,1.1-7.1,1.4c-0.1,0.2-0.2,0.6-0.6,0.8c-0.2-0.1-1-0.4-1.1-0.4c-0.7,1.8-1.1,3.2,0.6,4.8c-2,0.6-3.1,1.5-4.3,3.4
	l-0.4-0.5l-0.8,0.3l0.2,1.3c-0.2,0.3-0.6,0.7-0.8,1l0.2,0.2l0.3,0.2c0,0.6,0.3,1.1,0.3,1.7c-0.6,0-1-0.5-1.6-0.7l-0.2-0.9
	c-0.1,0-0.9-0.2-1-0.2l-1,1.7c-1.2-0.6-3.5-2.4-4.2-3.5l-2.5,1.8c0-0.4-1.5-2.1-1.5-0.2c0.2,1.8-1.8,3.2-3.1,3.8
	c0.2,0.6,0.3,0.9,0,1.3c-2.9,0-2.2-2.4-2.5-4.2l6.1-6c-1.2-1.3-1.8-2.7-3.3-3.3v-0.2l0.2-0.3l-1.3-1.3l0.9-0.8
	c-0.6-0.5-0.9-1.2-1.1-1.9l1-0.2l0.2-0.1c0-0.8,0.7-0.7,0.6-1.8c-3.1-1.5-6.5-3.9-10-3.3c-0.9,0-4-0.8-4.4-0.6
	c-0.6,0.9-1.4,1.7-2.4,0.7c-0.6,0.4-1.6,1-2.2,1.4l-2.9-5.2c-3.1,0.2,0.1-2.6-4.4-2.2c0-1.6-0.4-3.6-0.5-5.2H1.3l-0.5-3.7l-0.2-1.4
	c1.8-1.9-0.4-3.5-0.1-5.9c0.3,0.4,2.9,0.7,3.2,0.4c1.4-1.4,0.9-2.3,3.3-2.5c1.5-0.1,1.7,0,3.2,0.9c0.7,0.4,1.1,0.6,1.9,0.9
	c1.3,0.6,0,0.6,1.7,0.4c0.7-0.1,0.7-1.2,1.6-0.6c0.4,0.3,1.4,0.6,1.9,0.8c1.7,0.4,2.1,0,3.5-0.8c1.2-0.7,2.5-0.8,3.4-1.5
	c0.6-0.5,0.8,0.6,1.2-0.4c0.2-0.4,0.9,1,1.6,0.5c0.7,0.9,2.1,0.3,2.4,0.9c0.4,0.8-1.3,1-0.2,2.2c0.5-0.4,0.3-0.3,1.1-0.5
	c0-0.1-0.2-0.5-0.2-0.6c1.3,0.2,1.9-2.3,2.2-3.5c0.4-1.7,0-2.2-0.5-3.8c-0.9-2.7-3.9-3.1-5.2-5.6c-0.7-1.3-0.8-3.2-0.7-4.6
	c0-2.1,0.5-1.8,2.3-1c2.2,1,5.6,2,7.4,3.7c0.6,0.6,0.5,1.4,1.5,1.9c0.6,0.3,1.6,1.1,2.2,1.5c1.6,1.2,3.8-0.3,4-1.8
	c0.2-1.6-0.8-3.5-2-4.6c-1.1-1.1-2.5-1.2-3.5-2.6c0.8,0.1,1.1-0.5,1.1-1.4c0.1,0,0.8,0,1,0C39,46.3,40,47,41,47.2
	c0.9,0.1,2-1,2.8-1.4c0.7-0.3,1.5-0.4,2.3-0.8c0.9-0.4,1.4-1.3,2.3-1.8c1.9-1,2.9-1.5,3-3.9c0-0.9-0.5-1.7-0.1-2.8
	c0.4-0.9,1.3-1.5,0.8-2.3c0.9,0.2,0.5,0.2,1.3-0.2c1.1,0.7,3.3,0.2,4.7,0.4c0.6,0.1,1.6,0.2,2.2,0.5c0.5,0.2,1,1.5,1.6,1.5
	c1.3,0.2,1.3,3.4,3.6,2.7c0.7-0.2,1.3,1,2.1,1c0.6,0,2.1-0.9,2.3-1.4c0.6-1.3-1.3-2.6,0.1-2.3c1.2,0.3,2.7,1.8,3.8,2.6
	c1,0.7,2.3,2.5,3.6,2.3c1-0.1,1.9-2.3,1.1-3.4c-0.1-0.1-0.7-0.6-0.9-0.8c-0.1,0.1-0.2,0.3-0.4,0.4c0.3-1.6-2.1-0.8-1.4-2.9
	c1.1,0.6,3.7,2.3,4.1,0.1c0.3-1.3-2.5-3.2,0.6-1.8c0-0.4,0.2-0.8,0.1-1.4c1.1,1.9,1.7,3.5-0.4,5.1c0.5-0.3,1,0,1.5,0.1
	c0.2,0.1,1,0.4,1.5,0.6c0.8,0.3,1,0.4,1.7,0.6c0.4,0.1,0.7-0.3,1-0.3c0.4,0.1,0.4,0.8,0.7,0.8c1.9,0.1,4.5-3.6,4.6-5.7
	c0.1-1.9-1.5-1.7-2-3.3c-0.3-0.8,0.4-0.8,0.2-1.4c-0.3-0.8-0.8-1.1-1.1-1.6c-1.2-2.2-1.2-6.4-0.5-8.4c0,1.2,3.6,3.5,4.5,2.6
	c0.3,1.7,1,0.2,1.5,1.1c0.6-0.5,0.3-0.1,0.8-0.1c1-0.3,0,1.5,1.1,1.2c0.1,0.2,0.2,0.5,0.4,0.6c-2.3,0.5,0.7,1.9,1.1,2.7
	c0.8,2-0.4,2.4,1.6,4.1c1.7,1.4,2,1.4,3.5,0.8c1.4-0.5,3.2-0.8,2.8-2.7c1.8,0.8,3.9,0.9,5.9,0.6c0.8-0.1,1.1-0.9,1.4,0.8
	c0.2,1,1.4,1.7,2.1,0.8c-0.3,1.8,1.6,2.5,2.9,1.9c0.8-0.4,2.3-3,2-3.9c-0.4-1.2-2.4-1.3-3-2.9c-0.2-0.7,1.4-2.3-0.7-2.9
	c0.6-0.2,4.1,2.2,4.5,2.7c1.1,1.1,0.1,2.6,1.5,3.3c2.1,1,5.1-1.9,5-4c1.3,0.8,0.3,2.4,1.4,3.4c0.4,0.4,1.1,0.1,1.6,0.4
	c0.8,0.4,1.1,1.4,2.1,1.5c1.5,0.1,3,0.1,4.4,0.3c0.5,0.1,2,0.5,2.2,0.2c0.6-0.8,3,0.1,3.8-1.5c0.5-0.9-0.7-3,0.9-3.1
	c1.7-0.2,4,0.6,5.4-0.2c1.2-0.7,1.9-3.3,1.3-4.5c-0.3-0.7-1.4-1.1-1.8-2c-0.3-0.6-0.2-1.7-0.4-2c-0.6-1.3-1.8-2-2.3-3.5
	c-0.8-2.2,0.6-7.2-0.4-8.4c1.7-0.8,1.9,1.2,1.9,2.2c-0.1,1.5-0.7,2.7,1.4,3.6c1.4,0.6,2.3-0.4,2.9,0.1c0.8,0.6,0.7,3.2,2.5,1.7
	c1.3,2.6,1.4,3.7,4.1,4.9c1.4,0.7,1.9,0.9,3.3-0.2c0.7-0.6,2-2.2,0.9-2.5c0.4-1.5,1.3-2.4-0.1-3.8c-0.6-0.6-1.2-0.8-1.6-1.4
	c-0.4-0.8-0.1-2.2-0.3-3.1c2.5-0.5-0.5-2.3-1-3c0.8-0.8,2.1-1.9,2.1-3.2c0.4,0.9,0.2,0.9,1.1,0.8c-0.4,0.7-0.7,2.4,0.4,1.7
	c0,0.4,0.3,0.9,0.4,1.3c1.1-2,3.4,0.2,3.9,2c0-0.1-0.8,0.2-0.6,0.8c0.3,0.9,1.1,1.1,1.4,1.6c0.4,0.6,0.6,0,0.6,0.8
	c0,0.4-0.7,0.8-0.7,0.9c-0.4,1.6,0.2,1.1,0.6,2.2c0.3,0.8-0.1,1.7-0.1,2.5c0,3.6,1.9,1,3.3,3.3c0.3-0.1,0.5-0.1,0.8-0.2
	c2.5,2.7-0.8,3.5-1.8,4c0,1.8,1.3,3.2,2.1,4.8c1.5,1.8,0.9,5.4,1.6,7.6c-0.2,0.4,0.3,2.6,0.5,3.1c2.7-0.6,2.1-0.9,3.4,2.7
	c-0.3,1.1-1.3,1.9-0.3,3.1l-0.1,0.2l-0.2,0.3c0.6,1.1,1.8,1.1,2.1,2.8c1.2,1.8,2.4,5.3,1.9,7.2c0,2.6,1.8,6.4,1.8,8.8
	C182.9,62.9,181.5,63.3,180.5,63.6z"/>
</svg>
