<!-- Generator: Adobe Illustrator 19.1.0, SVG Export Plug-In  -->
<svg version="1.1"
	 xmlns="http://www.w3.org/2000/svg" xmlns:xlink="http://www.w3.org/1999/xlink" xmlns:a="http://ns.adobe.com/AdobeSVGViewerExtensions/3.0/"
	 x="0px" y="0px" width="113.7px" height="66.1px" viewBox="0 0 113.7 66.1"
	 style="overflow:scroll;enable-background:new 0 0 113.7 66.1;" xml:space="preserve">
<style type="text/css">
	.st0{opacity:0.5;}
	.st1{fill-rule:evenodd;clip-rule:evenodd;fill:#CA2027;stroke:#FFFFFF;stroke-miterlimit:2.6131;}
</style>
<defs>
</defs>
<g class="st0">
	<path class="st1" d="M18,25c0.4-0.3,2-1.4,2.5-1.4c0.5,0,1,0.4,1.4,0.4c0.3,0,1.4-0.4,1.6-0.4c2.3,0,3.4,2.2,5.4,2.4
		c2.2,0.2,4.4-2.2,4.2-4.3c-0.1-0.7-1.9-1.8,0.3-0.7c0.9,0.5,0.9,1.7,2.2,1.1c-0.1-0.4-0.1-0.9-0.4-1.3c0.5,0.8,1.8,1.5,1.4-0.1
		c0,0-2.1-2.7-2.4-2.9c0.8-0.6-0.7-2.1,1.2-1.2c0.5,0.2,1.3,0.2,1.5,0.3c0.5,0.3,0.4,1.3,1.1,1.7c-0.2,0.5-0.6,0.2,0.4,0.5
		c-0.1,0-0.1-0.5-0.1-0.5c0.3,0.2,0.6,0.3,0.8,0.5c0-0.1,0.1-0.2,0.1-0.3c-0.3-0.1-0.6-0.2-0.8-0.4c0.5-0.2,0.8-0.5,1.1-0.6
		c-1.7,0.1-1.8-1.7-0.3-2.6c-0.3-0.1-0.7-0.4-1-0.4c0.5-0.9-0.6-3-0.6-4.2c1.7,0.7,3.1,1.9,4.8,2.1c0-0.7-0.5-0.9-1.3-1
		c1.2-0.1,1.5-0.9,2.5-1.2c1-0.3,1.8,0.5,2.6-0.8c0.8-1.2-0.4-3.4,0-4.7c0.4-1.3,0.8-3.3,0.1-4.6c0.7,0.7,1.9,1.7,2.9,1.9
		c1.2,0.2,2.5-0.8,3.5-0.5c0.5,0.1,3.3,2.7,3.3,2.9c-2.2-0.1-0.8,4.2-0.7,5.4c0.2,1.5-0.5,2.2,0.7,3.6c1,1.2,2,1.1,3.3,1.4
		c0.4-1.3,1.8,0,2.9,0.4c1.5,0.6,3.6,0.6,4.9,1.4c-0.2-0.3-0.2-0.4-0.4-0.7c0.8-1.2,1.4,0.4,2.6,0.2c0.1,1.1,0.9,1.7,0.8,2.9
		c0.7-0.1,0.8-0.2,1.4,0.5c0.8-0.9,1.4-0.9,0.5,0.1c-0.7,0.7,1.3,0.3,1.4,0.4c0.9-0.5,1.6-1.5,2.5-1.3c-0.4,0.6-0.9,1.2-1.2,1.9
		c0.5,0.4,2.5,2.1,2,2.8c-2.2-1.7-0.6,2.2-0.1,3.1c0.6,1.1,1.1,2.7,2.2,3.3c0.5,0.3,1.3-0.1,1.6,0.1c0.7,0.5,0.2,0.9,0.8,1.5
		c1,1,1.1,2.9,2,3.2c-1.9,0.7,0.6,2.4,1.1,3.4c0.5,1.1,0.9,2.4,1.6,3.7c0.5,0.8-1.7,2.5-2.7,2.4c-1.3-0.1-0.9-1.9-1.2-3.3
		c-0.9,0.5-0.9,1.3-1.9,1.2c-0.6-0.1-1.7-1.8-2.6-2c-0.4-0.1-1.6-0.1-1.9,0.3c-1,1.3,1.1,2.1,1.1,3.1c0,1-2.3-0.6-2.5-1.2
		c-0.4-1,0.4-2.1,0.7-2.7c-0.9,0.5-1.6,1.4-2,2.4c0.2,0,0.5,0.1,0.7,0.1c-0.7,1.1-0.3,1.8-0.6,2.7c-0.7-1.8-2.6-1.7-4.1-2.7
		c-0.7,3.2-6,0-5.6,3.4c-1.3-1.1-0.8-1.4-2.3-0.7c-0.1,0-0.3,2.5-0.4,0.2c-0.4,0.2-1.5,1.5-1.4,2c0,0.9,1.4,1.1,1,2.3
		c-1.4-1.5-1.3-3.4-2.5-1.4c-0.4,0.8-1,3.6-2,3.5c0.1,0.7,0.2,0.5,0.9,0.5c1.2,0,0.2,0.5,0.2,0.9c0,0.7-0.9,1.9-1.3,2.8
		c-1,2.2-3.1,5-3.1,7.3c0,2-4.5,2.2-5.9,1.9c-1-0.2-2.7,0.7-4.1,0.4c-2.1-0.4-4.5-1.4-6.2-2.9c1-0.9-0.1-1.3-0.8-1.6
		c0.3,0,0.4-0.1,0.5-0.2c-0.6-0.2-0.7-0.6-1.1-1c0.7,0.3,1.3,0.4,1.6-0.3c2.7,1.4,2.5-1.7,0.7-2.6c0.8-1.2-0.9-1.9-2-1.8
		c0.7-0.6,1.9-1.7,1.6-3.1c-0.3-1.6-1.9-1.4-2.5-2.7c-0.1,0-0.3,0.1-0.5,0.1c0.2-1,1.3-0.9,1.6-1.7c0.3-0.9-1-1.2-0.2-2.3
		c-0.3,0-0.5,0-0.7-0.1c0.8-1.7,0.7-3.7,0.1-5.4c-0.3-0.7-0.8-1.2-1.1-1.9c-0.4-0.9-0.5-2-1.2-2.8c-1.1-1.3-1.9-2.9-3.7-3.5
		c-1.5-0.5-4.8-0.4-4.7,1.7c-0.1-0.2-0.3-0.3-0.4-0.5c-0.2,0.2-0.3,0.4-0.5,0.7c-0.5-1.3-2.5-2.4-3.5-1c-0.9,1.4-1.2,0.7-2.9,0.9
		c-2.6,0.2-3.9,0.4-6-1c-0.2-0.1-1.9-1.1-1.9-1c-0.3-0.5,0.3-1.6-0.2-2.2c-0.9-1.1-3.6-0.9-4.8-1.5c-0.6-0.3-2.6-0.9-2.7-1.3
		c-0.4-1,1.1-2.3-0.2-2.9c0.7-0.3,2.1,0.2,2.3-0.7c1.2-0.1,2,0.7,3.2,1c1.2,0.3,2.6,0,3.8,0.6C12.1,25.5,16.6,26,18,25"/>
	<path class="st1" d="M107.2,24.4c-0.6-0.8-1.8-0.9-2.7-1.5c-1.3-0.9-2.2-2.5-3.4-3.6c-0.3-0.3-1.8-0.5-2.1-0.1
		c-0.7,0.7,0.1,1.9-0.8,2.8c-0.6-0.4-1.1-0.8-1.6-1.4c0,0.6-0.1,1.1,0,1.8c-0.7-1.1-1.2-0.4-1.6,0.7c-0.5-0.6-2.5-3.3-0.8-3.3
		c2.1,0-0.3-1.5-1.1-2.5c-0.4-0.5-0.9-1.3-1.3-1.8c-0.6-0.9-0.9-1.2-1-2.3c-0.1-1.3-0.3-1.3,0.7-1.9c0.4-0.2,0.4-1.1,0.3-1.5
		c1.8,1.7,1.9-1.4,2.9-1.6c1-0.2,3.4,1.9,4.6,2.1c0.2,0,2.9-0.6,2.5,1c-0.2,0.7,1.6,2.7,2.4,0.7c1.2,2,0.8-1,1.7-1.1
		c0.7-0.1,1.2,1.5,1.8,2c0.2-0.8,0.6-0.8-0.2-1.6c1.3-1.5,1.7,1,2.3,1.7c0.5,0.6,1.4,0.2,1.3,1.5c-0.1,1.4,1.1,1.9,1.8,3.1
		c0.6,0.9-1,2.2-1.1,3.2c-0.7-0.4-1.4-1.3-2.1-1.6c-0.7-0.3-0.8,1-1.5,0.1c-0.1,2.2-1.1,0.7-2.2,1.9c0-0.3-0.2-0.5-0.1-0.8
		c-1,0.2-2,1.4-1.3,2.5C105.5,23.6,107.3,22.9,107.2,24.4"/>
</g>
</svg>
