<!-- Generator: Adobe Illustrator 19.1.0, SVG Export Plug-In  -->
<svg version="1.1"
	 xmlns="http://www.w3.org/2000/svg" xmlns:xlink="http://www.w3.org/1999/xlink" xmlns:a="http://ns.adobe.com/AdobeSVGViewerExtensions/3.0/"
	 x="0px" y="0px" width="124.1px" height="103.5px" viewBox="0 0 124.1 103.5"
	 style="overflow:scroll;enable-background:new 0 0 124.1 103.5;" xml:space="preserve">
<style type="text/css">
	.st0{opacity:0.5;fill-rule:evenodd;clip-rule:evenodd;fill:#CA2027;stroke:#FFFFFF;stroke-miterlimit:2.6131;}
</style>
<defs>
</defs>
<path class="st0" d="M123.5,14.8c-0.2,1.1-0.1,2-0.4,3.3c-0.5,1.6-1.3,3-2.1,4.6c-1,1.9-2,3.8-2.9,5.7c-0.6,1.1-4.3,0.5-5.5,0.8
	c-3.2,0.7-6.5,3.3-9.3,5c-1.4,0.9-2.8,2.2-3.3,3.9c-0.3,0.8-0.7,3.5-0.5,4.2c0.6,2.8-0.8,7.4-2.6,9.6c-1.1,1.3-2.4,2.3-3.4,3.8
	c-0.5,0.6-0.6,1.4-0.6,2.1c0,0.7,0.6,1.9,0.5,2.3c-0.1,0.9-1.4,2-1.5,3.2c-0.1,1.2,0.9,2.8-0.4,3.8c-1.3,1-0.2,2.1-0.2,3.2
	c0,1.6-1.1,1.4-1.7,2.2c-0.7,1-1.4,2.7-0.9,4c0.4,1.2,0.2,2.2-0.3,3.1l-0.3,0l-0.2-0.2l-0.2-0.1l-0.2-0.1l-0.2-0.1l-0.4-0.2
	l-0.6-0.2l-0.4-0.3l-0.6-0.2l-0.4-0.1L84.3,78l-0.4-0.2l-1.3-0.2l-1.1-0.2l-0.5-0.1L80,77.2l-0.7-0.1h-0.9L78,77h-0.6L77,76.9h-0.1
	L76.4,77h-0.6l-0.6-0.1h-0.8L73.9,77h-1.7l-0.5,0.1l-0.5,0.1l-0.6,0.1h-1.4l-0.7,0.1l-0.6,0.2l-0.6,0.1l-0.1-0.1l-0.6,0.1h-0.4
	l-0.2,0.2l-0.4,0.1L65.1,78H65l-0.4-0.1H64l-0.3-0.1l-0.2,0.1L63.2,78L63,78l-0.2,0.1l-0.6,0.1l-0.4,0.1h-0.4L61,78.4h-0.6l-0.6,0.2
	l-0.7-0.1l-0.2,0.1l-0.6,0.2l-0.4-0.1l-0.5,0.1L57,78.9l-0.6,0.2l-0.5,0.1l-0.7,0.2l-0.6,0.2h-0.2l-0.4,0.2l-0.8,0.1h-0.3L52.3,80
	L52,80.1l-0.4,0.1l-0.7,0.2l-0.2,0.1l-0.2,0.2h-0.2l-0.6,0.2l-0.4,0.2l-0.6,0.2l-0.4,0.1l-1,0.2l-0.8,0.3l-1,0.4l-0.3,0.2l-0.6,0.2
	L44,82.7l-0.8,0.4l-0.8,0.3L42,83.7l-0.4,0.2l-0.9,0.4l-0.5,0.2l-0.7,0.2L39.1,85l-0.7,0.3l-0.8,0.6l-0.6,0.4l-0.5,0.3l-0.7,0.7
	l-0.4,0.5L35.2,88l-0.3,0.2l-0.5,0.3L33.8,89l-0.6,0.3l-0.7,0.4l-0.2,0.1L32,90l-0.3,0.3l-0.6,0.4L30.7,91l-0.6,0.8l-0.2-0.1
	L29.7,92l-0.5,0.6l-0.2,0.4l-0.4,0.5l-0.2,0.4l-0.2,0.5l-0.2,0.4v0.5l-0.1,0.2L28,95.9l-0.2,0.2l-0.2,0.1l-0.4,0.2l-0.1,0.2
	l-0.2,0.2l-0.2,0.2l-0.2,0.2l-0.2,0.2L26,97.6l-0.2,0.3L25.7,98l-0.2,0.3l-0.2,0.1l-0.2,0.2l-0.1,0.3L25,99.1l-0.2,0.2l-0.1,0.2v0.2
	l-0.1,0.2l-0.1,0.3v0.2l-0.1,0.6v0.3l-0.1,0.4l-0.2,0.6v0.3l-1.5-0.7l-1.3,0.5l-1.7-3.8l-2-0.2l-2.6-0.1l-1.5-0.2l-1,2.2l-0.8-0.3
	l-2.3-0.2l-2.2,0.5L6.2,97l-0.5-1.8L6.4,95l-0.2-1.6l-0.5-0.1L5,92.4l0.5-1.5l-0.3-0.7l-2.5-1.8l1-0.7l0.6-0.4l1.1-1.1l0.8-0.2
	l0.9-0.5l1-0.2L8.9,85l0.8-0.3l0.5-0.4v0l0,0l0.1-6.3l1.5-1.1l0,0l0,0l-0.1-0.3l-0.1-0.4l-0.2-0.2l-0.6-0.1l-0.3-0.2l-0.3-0.2
	l0.2-4.3l0.2-3.3l0-0.1l-0.1-6.1l1.3,0.3l0.7-0.6l0.7-1l0.3-0.3l0.3-0.6l0.3-0.4l0.1-0.2l0.5,0.1h1l0.8-0.2l0.3-0.1v-0.1h0l0.1-1H18
	l0.8,0.9l0.9,0.2l0.4,0.2h0.2l0.2,0.1l0.5-0.6l0,0l0,0l-0.1-0.3l-0.2-0.5v-0.4l0.1-0.2v0l0,0L20.7,56l0.1-0.6l0.1-0.4l0.1-0.1
	l0.5,0.1l0-0.1h0l-0.2-1.8l-0.9-0.5l-0.6-1l0.9-2.3l0-0.1l-0.1-0.3l-0.2-0.7L20,48l-0.3-0.4l-0.5-0.5l-0.5-0.5l-0.3-0.2l-0.6-0.2
	l-0.9-0.2L16.4,46l-0.6-0.2l-0.7-0.1l-0.8-0.4l-0.5-0.4l-1-0.4l-0.3-0.2l0.4-0.8v0l0,0l-0.8-4.9l-6.7,4l-1-2.6l0.1-0.5l0-0.1v-0.3
	l-0.4-0.2H4l-0.2-0.1L4.1,36v-0.2L4,35.4l-0.2-0.3l-0.2-0.3l-0.1-0.2l0.3-0.1l0.3-0.2l0.2-0.5l0.2-0.2L5,33.4l0.4-0.8l0.1-0.4
	l0.4-0.8v0l0,0v-0.5l0.1-0.5l0-0.1l0.1-0.8L6.3,29l0.1-0.3l0-0.1v-0.2l0.5-0.3l0-0.1l0.3-0.8l0.2-0.2l0.4,0.2l0.4,0.2l0.2-0.2
	l0.2-0.4l0-0.1l0.1-0.4l0-0.1l-1-0.2l-0.3-0.2l-0.2-0.4l-0.3-0.2l-0.3-0.2l-0.2-0.6l-2.5,0.1l0,0.1l-0.1,0.3l-0.6-0.1l-0.4-0.7
	l-1-0.1l-0.3,0.5l-0.7,0.2l-0.2-0.6L1,22.7l0.9,0.2l1.1-1.3L4,20.5l0,0l0,0l-1.7-2.5l0.1-0.5l0.1-0.2l0-0.1l-0.3-0.5l-0.6-0.5
	L3.8,15L4,15l0.5,0.7l0.4,0.4l0.2,0.1l0.6,0.2l0.6,0.2h0.3l0.1-0.2v0l0,0l0.1-1.1L6.7,15l-0.1-0.4l-0.2-0.2v-0.2l-0.1-0.3l-0.2-0.5
	V13l-0.1-0.5l-0.2-0.6v-1.3l0.1-1L5.9,7.4L5.9,7.2L5.6,7L5.4,6.6L5.3,6.3L5.1,6.1L4.8,5.9L4.7,5.4L4.6,5.1V4.4L4.4,4.1L4.3,3.4
	L4.3,3l0.2-0.6l0,0l0,0l0.1-0.5l0.2-0.5L4.4,1.3L3.9,1.4l0,0c1.4-0.4,1.9,1,2.8,1.8c1.2,1,3.1,1.4,4.3,2.4c3.2,2.5,6,4.9,10.2,5.4
	c7.2,0.9,14.3-1.5,21.4-2.5c3.3-0.4,6.8-0.2,10.2-0.8c3.8-0.7,7.8,0.8,11.4,1.9c0.9,0.3,1.9,0.5,2.8,0.5c1.1-0.1,1.2,0.5,2.1,0.8
	c2.1,0.7,3.9,1,6.1,0.8c2.6-0.3,8-1.6,10.1-0.2h0.2c-0.5,2.3,4.3,2.4,5.7,2c0.7-0.2,3.3-1.5,3.7-1.2c0.8,0.5,1.2,0.2,2.1,0.1
	c5.8-1,9.1-6.7,11.8-11.5c2,1.9,5.2,2.1,7,4.5c1.1,1.6,1.6,2.8,3.2,4C120.7,10.6,124,12.2,123.5,14.8z"/>
</svg>
