<!-- Generator: Adobe Illustrator 19.1.0, SVG Export Plug-In  -->
<svg version="1.1"
	 xmlns="http://www.w3.org/2000/svg" xmlns:xlink="http://www.w3.org/1999/xlink" xmlns:a="http://ns.adobe.com/AdobeSVGViewerExtensions/3.0/"
	 x="0px" y="0px" width="82px" height="113.2px" viewBox="0 0 82 113.2"
	 style="overflow:scroll;enable-background:new 0 0 82 113.2;" xml:space="preserve">
<style type="text/css">
	.st0{opacity:0.5;fill:#CA2027;stroke:#FFFFFF;stroke-miterlimit:2.6131;}
</style>
<defs>
</defs>
<polygon class="st0" points="81.4,60.6 81.3,61 81.1,61.4 80.8,62.2 80.6,62.7 80.5,63.1 80.5,63.5 80.4,64 80.1,64.2 79.9,64.4 
	80.1,64.5 80.5,64.9 80.6,65.2 80.7,65.3 80.1,66.2 79.2,66.2 78.8,66.3 78.6,66.4 78.5,66.7 78.3,67.1 78.1,67.5 77.9,68 
	77.8,68.4 77.7,68.8 77.4,69.1 77.4,69.5 77.4,69.8 77.5,70.4 77.6,70.7 77.7,71.1 77.8,71.5 77.9,72.1 78.1,72.6 78.2,73 
	78.3,73.4 78.4,73.5 78.2,73.9 77.7,74 77.4,73.9 76.9,73.6 76.6,73.6 76.3,73.7 76.1,73.7 75.8,73.9 75.7,73.9 75.5,73.9 
	75.1,74.1 75,74.2 74.7,74.3 74.4,74.5 73.9,74.5 73.8,74.4 73.4,74.3 73.2,74.3 73.1,74.6 72.8,74.6 72.6,74.6 72.5,74.6 
	72.3,74.5 71.9,74.5 71.7,74.6 71.5,75 71.3,75 71.2,75.2 71,75.3 70.8,75.4 70.6,75.4 70.2,75.3 69.8,75.2 69.6,75.1 69,75.1 
	68.9,75.3 68.8,75.8 68.8,76.1 68.8,76.5 68.6,76.9 68.5,77 68.2,77.2 67.9,77.3 67.7,77.4 67.6,77.4 67.3,77.5 67,77.8 66.9,77.9 
	66.8,77.8 66.5,77.5 66.1,77.4 65.9,77.2 65.6,77.4 65.3,77.4 65.2,77.7 64.9,78.1 64.6,78.3 64.5,78.4 64.2,78.6 64.2,79.2 
	64.1,79.6 64,80.2 64.2,80.5 64.5,80.8 64.5,81.1 64.5,81.3 64.5,81.8 64.5,82.1 64.7,82.3 65,82.7 65.1,82.9 65.1,84.3 65,84.5 
	64.9,84.7 64.9,85.3 64.9,85.6 64.9,85.7 64.5,86 64.3,86 64.2,86.3 64.1,86.4 64,86.6 63.8,86.7 63.6,86.9 63.5,87 63.4,87 
	63.1,87.1 63,87.1 62.8,87.3 62.5,87.7 62.3,87.8 62.2,87.9 62,87.9 61.8,87.8 61.8,87.7 61.6,87.5 61.5,87.1 61.4,86.9 61.3,86.5 
	61,86.3 59.7,85.5 59.3,85.3 58.9,85.1 58.5,85 58.2,85.1 58,85.2 57.9,85.5 57.7,85.9 57.6,86.2 57.4,86.6 57.1,87 57,87.2 
	56.7,87.6 56.4,87.9 56.3,87.9 56.3,88.6 56,89 55.7,89.1 55.3,89.1 54.9,89 54.5,89 54.2,89 53.7,88.9 53.6,88.9 53.2,89.4 
	53.1,89.5 53.1,90.2 53.2,90.6 53.3,91.1 53.3,91.5 53.5,92 52.4,93.3 51.8,94.9 50.9,94.6 50.9,94.9 50.8,95.2 50.8,96.8 50.7,97 
	50.4,97.3 50.2,97.6 49.4,97.9 49.4,98.6 49.2,98.7 48.8,98.7 48.5,98.7 48.2,99 48.2,99.2 48,99.9 47.9,99.9 47.4,99.9 47.2,100 
	47,100.2 46.9,100.4 46.7,100.5 46.5,100.6 46.3,100.5 46.2,100.5 45.9,100.4 45.8,100.3 45.7,100.1 45.5,99.9 45.5,99.7 45.2,99.9 
	45,99.9 44.8,100 44.7,100.1 44.5,100.3 44.4,100.6 44.3,100.8 44.3,101.1 44.3,101.2 41.9,101.9 39.4,102.6 39.5,102.9 39.5,103 
	39.4,103.4 39.3,103.8 39.3,104.2 39.1,104.6 39,105.1 38.9,105.3 38.8,105.3 38.5,105.4 38,105.5 37.8,105.6 37.6,105.5 
	37.3,105.5 36.9,105.6 35.9,105.6 35.6,105.8 35.2,106 35,106.1 34.7,106.4 34.5,106.5 34.2,107 33.9,107.3 33.8,107.7 33.6,107.7 
	33.5,107.9 33.3,107.9 33.1,107.7 32.9,107.7 32.6,107.6 32.2,107.5 31,107.5 30.7,107.6 30.7,108.2 30.7,108.6 30.7,109 
	30.3,109.4 29.1,109.4 28.9,109.3 28.9,109.1 28.8,108.8 28.6,108.6 28.5,108.4 28.2,108.4 27.9,108.4 27.6,108.6 27.4,108.8 
	27,109.4 26.7,110 25.2,111 24.4,110.8 24.3,111.1 24.3,111.3 24.2,111.6 23.9,112 23.7,112.1 23.5,112.4 18.2,111.9 18.2,112.2 
	17.8,112.3 17.4,112.5 16.8,112.7 16,112.7 15.5,112.6 14.9,112.6 14.5,112.5 14.3,112.3 14,112 13.8,111.5 13.7,111.1 13.2,111.1 
	13,111.2 12.8,111.2 11.9,111.2 11.5,111.3 11,111.4 10.8,111.5 10.5,111.6 10.4,111.6 10.2,111.5 10,111.3 9.7,111.1 9.4,110.8 
	9.1,110.5 8.3,110.5 8,110.4 7.6,110.2 7.3,110.1 7,110.2 6.7,110.4 6.7,110 6.5,110 6.3,110.2 6.2,110.1 6,110 5.8,109.6 
	5.8,109.3 5.6,109.2 5.9,108.8 6.2,108.6 6.4,108.2 6.5,107.4 7,106.2 7.6,104.3 8,103.2 8.5,101.6 9.8,96.8 9.5,96.2 8.7,95.6 
	7.8,95.2 7.1,94.9 6.3,94.7 5.4,94.6 4.4,94.5 3,94.5 1.8,94.4 1.1,94.5 1.2,94.3 1.3,93.7 1.3,93.1 1.4,92.7 1.5,92.4 1.5,92.3 
	1.6,92.1 1.6,91.9 1.5,91.5 1.5,91.3 1.5,91 1.7,91 1.8,90.9 2,90.4 2.2,90.1 2.3,89.9 2,89.3 2,88.8 2.3,88.3 2.3,88.1 3.5,87.3 
	3.1,86.4 2.3,84.8 0.6,82.3 0.5,82 0.5,81.9 1.3,80.7 2.3,81 2.6,80.7 2.7,80.7 2.9,80.6 3.2,80.6 3.5,80.4 3.7,80.2 4.2,80 
	4.2,79.5 4.3,79 4.3,78.4 4.6,78.1 4.9,77.9 5,77.6 5.3,77.3 5.7,76.9 5.8,76.7 5.4,76 5.8,75.1 5.8,74.8 5.6,74.6 6.8,73 6.7,72.7 
	6.6,72.6 6.8,72.4 6.9,72.3 7,72.3 7,72.1 7.1,71.9 7.1,71.9 7,71.5 6.9,71.4 6.8,71.1 6.7,70.9 6.5,70.7 6.4,70.4 6.2,70.1 5.9,70 
	5.8,70 5.6,70.1 5.3,70.1 5,69.9 4.3,69.2 3.8,68.4 3.6,68.2 3.6,68 3.5,68 3.5,67.6 3.3,67.5 3.3,67.4 3.4,67.2 3.5,67.1 3.5,66.9 
	3.8,66.9 3.8,66.6 4,66 4.2,65.4 4.2,64.7 4.4,64.4 4.6,63.8 5,63.6 5.3,63.4 5.9,63.1 6.6,62.9 7,62.6 7.3,62.4 7.9,62.2 8.2,61.9 
	8.6,61.6 8.8,61.4 8.9,61.2 9,60.4 9.2,59.5 9.3,56.7 9.3,56.3 9.3,55.6 9.1,55.5 8.9,55.2 8.7,55 8.5,54.8 8.2,54.4 7.7,53.6 
	7.3,52.6 8.7,50 10.7,50.6 10.8,50.5 11.1,50.3 11.2,50.1 11.5,49.6 11.7,49.1 11.9,48.7 12.3,47.9 12.4,47.4 12.8,47.2 12.9,47 
	13.4,47.4 13.9,47.5 14.3,47.8 14.5,47.9 14.9,47.9 15.1,47.8 15.1,47.8 15.6,47 16,46.7 16.4,46.4 16.7,46.1 16.8,45.8 17,45.1 
	17.1,44.5 17,43.9 17,43.2 17.1,42.5 17.1,41.9 17.3,41.4 17.2,41 17,40.7 17,40.2 16.9,39.7 16.7,39.3 16.6,39 16.4,38.5 
	15.9,37.6 15.6,37.2 15.5,36.8 15.3,36.6 15.8,36.5 15.9,36.2 16.9,34.9 17.9,34.2 18.2,34.4 18.5,34.6 18.7,34.8 19.3,35.4 
	19.4,35.5 19.8,35.8 20,36.2 20.2,36.5 20.3,36.7 20.4,36.9 20.5,37.1 20.7,37.3 21,37.5 21.1,37.6 21.4,37.9 21.4,37.6 21.4,37.3 
	21.5,37 21.5,36.8 21.6,36.5 21.6,36.3 21.7,36 21.8,35.6 22,35.2 22.2,34.7 22.5,34.2 22.6,34 22.9,33.5 23,33.4 23.1,33.2 
	23.1,32.9 22.9,32.6 22.9,32.3 22.5,32.2 22.1,31.9 21.7,31.8 21.2,31.5 20.6,31.3 20.2,31.1 20.2,30.7 20.2,30.3 20.3,29.9 
	20.5,29.6 20.6,29.2 20.8,28.9 21,28.6 21.3,28.1 21.3,28 21.1,27.6 21,27.2 20.9,26.8 21,26 21.2,25.8 21.4,25.5 21.4,25.2 
	21.6,24.9 21.8,24.8 22.1,24.5 22.3,24.2 22.4,23.8 22.7,22.9 22.8,22.5 23.1,21.9 23.3,21.6 23.5,21.3 23.7,21 23.9,20.8 
	24.3,20.2 24.6,19.6 24.9,19.2 25.5,18.5 25.7,17.9 25.9,17.1 26.5,15.9 26.8,15.5 26.9,15.3 27.1,15.2 27,15 26.8,14.7 26.5,14.3 
	26.3,13.9 26,13.6 25.6,13.1 25.4,12.7 25.2,12.4 25.1,11.9 24.8,11.3 24.7,11 24.7,10.6 24.5,10.1 24.5,9.6 24.3,9.3 24.2,8.9 
	24,8.5 23.9,8.3 23.7,8.1 23.4,8 23.3,7.8 22.9,7.5 22.5,7.3 22.2,7 21.9,6.9 21.7,6.7 21.4,6.4 21.3,6.1 21.3,5.9 21.5,5.8 
	21.7,5.8 22.3,5.6 22.6,5.5 23.1,5.6 23.4,5.6 23.9,5.8 24.3,5.8 24.8,5.8 25.1,5.9 25.5,6.2 25.6,6.2 26,6.2 26.4,6.4 26.8,6.5 
	27.1,6.5 27.2,6.4 27.5,6.2 27.7,6.2 28.4,5.5 28.7,5.3 29.1,5.1 29.7,4.8 30,4.7 30.6,4.9 31,5.2 31.4,5.5 31.9,5.9 32.3,6.2 
	32.6,6.4 33,6.6 33.4,6.7 33.9,6.9 34.2,7 34.5,7.1 35,7 35.1,6.9 35.4,6.9 35.7,6.8 35.9,6.5 36.1,6 36.1,5.1 36.2,4.7 36.3,4.5 
	36.5,4.4 36.8,4.5 37,4.6 37.5,4.6 37.9,4.5 39,4.5 39.3,4.4 39.5,4.2 39.8,3.8 40,3.5 40.6,3 40.8,2.8 41.2,3.1 41.5,3.1 42,3.2 
	42.4,2.9 42.8,2.8 43.2,2.9 43.8,3 44.7,3 45,2.7 45.1,2.4 45.3,2 45.5,1.8 45.6,1.6 45.7,1.5 45.9,1.2 46.3,0.9 46.7,0.8 47,0.6 
	47.3,0.5 48.1,0.7 50,0.7 50.9,0.8 51.8,0.8 52.9,0.9 53.7,1 54.4,0.9 55,0.8 55.4,0.9 56,1.2 56.4,1.3 56.7,1.6 57,1.6 57.5,1.6 
	57.8,1.6 57.9,1.9 58.2,2.3 58.3,2.4 58.3,2.7 58,3.5 58,4.2 58.2,4.4 58.3,4.7 58.3,4.9 58.3,5.1 58.4,5.2 58.4,5.6 58.3,5.8 
	57.7,5.8 57.6,5.8 57.5,5.9 57.5,6.1 57.5,6.5 57.5,6.6 57.9,6.7 58.2,6.9 58.5,7 58.8,7.2 59.1,7.4 59.3,7.5 59.5,7.6 59.1,8 
	59.4,11.1 59.6,11.1 59.9,11.2 60.3,11.1 60.5,11 60.9,10.9 61,10.8 61.4,10.9 61.6,11 61.8,11.2 62.1,11.6 62.1,12.4 61.9,12.8 
	61.8,13.2 61.7,13.6 61.5,13.9 61.4,14.1 61.1,14.3 61,14.3 60.8,14.4 60.6,14.4 60.6,14.7 60.7,14.8 60.8,15.1 60.8,15.2 
	60.9,15.2 60.9,15.4 60.8,15.5 60.7,16.5 60.8,16.4 61.1,16.5 61.4,16.5 61.5,16.6 61.7,16.7 61.8,16.7 62.3,16.9 62.6,16.9 
	62.8,16.8 63,16.9 63.1,17.1 63.3,17.4 63.4,17.6 63.7,17.8 63.9,17.9 64.4,17.9 64.5,17.8 64.7,17.5 64.8,17.4 64.9,17.2 64.9,17 
	65.1,16.7 65.2,16.7 65.4,16.9 65.6,17.2 65.7,17.3 65.9,17.3 66.1,17.2 66.2,17.2 66.3,17.5 66.3,17.8 66.4,18 66.5,18.3 
	66.5,18.6 66.7,18.8 66.8,19.4 66.9,19.6 67,19.8 67.1,20.1 67.2,20.2 67.3,20.3 67.1,20.6 67,21 66.9,21.4 66.9,22 66.8,22.2 
	66.6,22.4 66.5,22.6 66.2,22.8 66,22.9 65.7,22.8 65.6,22.9 65.2,22.9 64.9,23.2 64.6,23.9 63.8,27.5 63.6,27.8 63.4,28 62.8,28 
	62.6,28.3 62.5,28.4 62,28.5 61.8,28.5 61.7,28.9 61.4,29.5 61.3,30.2 61.2,30.6 61,31 60.9,31 60.7,31.1 61,31.6 61.1,32.8 
	61.3,33.3 61.1,33.8 60.7,33.8 60.6,34.2 60.5,34.6 60.5,35.2 60.3,35.4 60,35.8 59.6,36.4 59,37.3 59.5,38.1 60.4,37.7 61.4,38.9 
	63,37.4 63.4,37.7 63.6,38 64,38.3 64.6,38.8 64.9,38.9 65.3,39 65.8,39.2 66.1,39.3 67.3,38.9 67.5,39 67.9,39 68.2,38.9 
	68.4,38.9 68.8,38.9 69.2,39.1 69.5,39.3 69.8,39.7 69.9,39.9 70,40.1 70.2,40.7 70.3,41.1 70.4,41.5 70.6,42 70.8,42.5 70.9,43.1 
	71.2,43.6 71.5,44 71.6,44.3 71.9,44.4 72.6,44.7 73,44.8 73.5,44.9 73.6,45.1 73.7,45.4 73.6,45.8 73.5,46 73.5,46.2 73.6,46.4 
	73.7,46.7 74.3,47.3 74.9,47.8 75.5,48.2 76,48.5 76.8,48.8 77.4,49 77.7,49 77.7,49.8 77.8,50.4 77.9,51.3 78,51.9 78.2,52.6 
	78.5,52.9 78.9,53.2 79.1,53.6 79.4,54.4 79.7,54.7 80.1,54.9 80.5,55 80.5,56.7 80.5,57.4 80.6,58 80.8,58.4 80.9,59 81.1,59.5 
	81.2,60.1 "/>
</svg>
