<!-- Generator: Adobe Illustrator 19.1.0, SVG Export Plug-In  -->
<svg version="1.1"
	 xmlns="http://www.w3.org/2000/svg" xmlns:xlink="http://www.w3.org/1999/xlink" xmlns:a="http://ns.adobe.com/AdobeSVGViewerExtensions/3.0/"
	 x="0px" y="0px" width="66.9px" height="116.5px" viewBox="0 0 66.9 116.5"
	 style="overflow:scroll;enable-background:new 0 0 66.9 116.5;" xml:space="preserve">
<style type="text/css">
	.st0{opacity:0.5;fill-rule:evenodd;clip-rule:evenodd;fill:#CA2027;stroke:#FFFFFF;stroke-miterlimit:2.6131;}
</style>
<defs>
</defs>
<path class="st0" d="M64.9,67.1L64.5,67h-0.3l-0.1,0.1l-0.1,0.5c-0.6,0-1.3-0.7-1.9-0.7c-0.5,1.5-0.3,2.9-0.7,4.7l2.6,2.1l-0.2,1.1
	C62.6,74.9,59.5,77,59,77c-0.2,0.5-0.2,0.9-0.4,1.3c0,0-1.6,0-1.9,1c-0.1,0.3-0.2,1.4-0.3,1.5l0.6,0.1c0.1,0.3,0.2,0.9,0.3,1
	c0.6-0.3,1.4-0.6,1.9-0.6c0.1,0.3,0.3,0.6,0.8,0.7c0.7-0.7,1.2-1.3,2.5-1.5c0.7,1.1,1.9,4,0.5,4.9c-0.6,1.3-3.3,7.7-5.4,6.4v-0.1
	l-0.2-0.2c-0.9,0-2.6,0.7-3.5,0.9c-0.2,0.2-0.1,0.7,0.1,1c-1.6,0-3.6-1.1-4.9-1.7c-0.6,0.4-1,1.1-1.8,1.2l0.2,1.6
	c-1.1,1.1,0.2,1.9,0.4,2.9c0.8,4.2-1.5,2.5-3,4.8c-0.6,0.3-0.4,0.5-0.6,1l-0.2,0.1H44c-1-1-1.4-1.8-2-3.3c-1.1-0.2-1.4-0.7-2.1-1.4
	c-2.5,0.6,2,2.8,0.2,4.9h-0.3l-0.4,0.1l-0.1,0.1c0.8,2.2,1.4,4.7,2.9,6.5c0.5,1,1.1,1.5,1.2,2.7l-0.4,0.2l-0.2-0.2
	c-0.5-1.4-1.8-0.4-2.6-0.4l-1.2-0.8l-0.7,0.6l-0.8-0.4c-0.2,0.2-0.3,0.6-0.6,0.7l-1.7-0.9l-0.5,1.8c-1.8,0-1.8,0.2-3,1.2
	c-0.6,0-1.3-0.1-1.9-0.2l-1,1.3l-2.2-0.9c-0.5-2.5-3.8-1.6-5.6-1.6c-1.2-0.3-1.9-0.3-2.8,0.2c0,0.2-0.2,1-0.2,1.1
	c0,0.1-0.1,0.8-0.1,1c-0.6-0.8-0.7,0.5-1.5,0c-1-0.5-0.1-0.8-0.1-1.5c0-0.9-1.5-1.2-1.9-0.3c0.2-1,0.7-2.1,0.1-3
	c-0.2,0.2-0.4,0.4-0.7,0.6c-0.5-1.2,0.6-1.8,0.5-2.9c0-0.5-1.3-2.4-1.5-3c-0.3,0.1-0.9,0.4-1.1,0.6c1,1.3,2.5,2.9,0.3,4.1
	c1.4,0.4,0.6,1.4,0.2,2.4c-0.2-0.6-0.3-0.9-0.2-1.6c-0.1,0.2-0.2,0.3-0.2,0.5c0-0.2-0.1-0.5-0.1-0.7c-0.5-0.1-0.7-0.2-1.1-0.4
	c-0.1,0.2-0.2,0.4-0.3,0.6c-1.2-0.6-1.1,0.7-2.2-1.1c-0.5-0.8,1.2-1.3,1.8-1c0.1-0.9-0.1-3.5,1.4-2.7c0.1-0.6,0-0.8-0.3-1.3
	c-0.2,0.3-0.6,0.4-0.8,0.7c0.2-1.1,0.8-2.3,0.2-3.3c-0.1,0.1-0.2,0.2-0.3,0.4C9.1,100.5,8,98.3,8.2,96c0.1-1,1-3-0.4-3.2
	c0.5-0.6,0.4-1.1-0.4-1.4c-0.1-0.7,0.1-0.3-0.4-0.9c0.4,0,2.1-0.3,2.3-0.7c0.3-0.6-0.7-1.2-0.3-2c1.1,1.3,3,1.2,4.6,0.6
	c1.5-0.6-0.1-1.6-0.7-2.1c-0.5-0.4-1-0.5-1.5-0.9c-1.2-0.9,0-1.8-1.3-2.7c2.1-0.4,2.9,1.6,4.8,1.9c0.9,0.1,4.6-0.8,4.9-1.4
	c0.7,0.8,1.5,0.9,2.5,1.1c-0.3-0.2-0.6-0.4-0.8-0.5c0.1-0.1,0.3-0.2,0.4-0.4c-1.2,0-1-0.4-0.8-1.4c0.1-0.7,1,0,1.6-0.5
	c0.1-0.1,3.8,0.1,4.3,0.6c0.6,0.5,1.5,0.8,2.1,1.3c0.4,0.4,0.3,1.1,1,1.5c2.2,1.2,2.3-1.7,4.2-0.5c0.3-2,1.1-3.9-1.5-4.3
	c-0.7-0.1-3.1-2.6-3.6-3.5c-0.6-0.9-0.3-1-0.8-1.4c-0.1-0.1-1.8-0.6-1.8-0.6c-1.3,0.2-2.2,1.5-3.3,1.6c-1.3,0.1-2.7-1.7-3.4-1.7
	c-0.9,0-2.5-0.2-3.2,0.3c-0.6,0.4-1.1,0.5-1.8,1c-0.6,0.5-0.7,1.5-1.7,1.5c-0.9,0-3.6-0.6-4.3-1.2c-0.5-0.4-2.9,1.2-3.6,1.1
	c-0.4,0-1.2,0.9-1.4,1.1c0-0.1-0.1-0.1-0.2-0.1c0.3-0.5,1.2-1.5,1.3-2.2c0.1-1-0.8-1.2-0.5-2.2c1.2,1,2-0.1,1.6-1.5
	c0.5,0.5,1.1,0.3,1.6-0.4c-1.1-0.2-1.4-1.1-0.9-2.1c0.4,1.1,3.1,3.3,4.1,1.4c0.4-0.9-0.4-1.6-0.5-2.3c-0.3-1.8,0.1-2.3-1.7-3.9
	c-0.3-0.3-1.2-0.5-1.6-1.4c-0.4-0.9,0-1.8-0.6-2.7c-0.7-1.2-2.8-1.9-2.9-3.1c0.2,0.2,0.5,0.4,0.7,0.6c0-0.6,0.7-2.3,0.2-2.8
	c-0.4-0.4-1.9,0.3-2.6,0c-0.1-0.4,0.1,0-0.3-0.4c1.6-1.4,0.3-4.1,1.1-5.6c0.7,0.1,1.4-0.7,1.8-0.5c0.6,0.2,1,1.6,1.6,1.7
	c2,0.5,2.6-2.6,4.7-1.1c-0.3-1.2-0.4-2.1-1.4-2.9c0.4,0.2,0.8,0.2,1.1,0.4c-0.3-0.4-0.5-0.8-0.6-1.1c1,1.1,2.4,3.3,4.1,2.9
	c-0.4-2.5,3.5,0.8,3.5-1.6c-1.2,0.6-1.7,0.3-0.5-0.7c0.9-0.7-0.1-1.3-0.7-2c1.8,0.3,3.1-1.2,4,1.4c0.7,1.9,1.3-2,2.4-2.1
	c-1.4-0.8-2.4-2.8-3.5-4.1c1.5-1-1.7-1.9-0.1-2.5c-0.3-0.9-1.1-1.1-2-1.1c0.3,1,0.9,2,1.8,2.8c-3.3-0.3,0,2.9-0.1,4.5
	c-0.7-1-2.2-4.6-2.8-3.2c-0.5-0.7-0.4-0.6,0.2-1.1c-1.7-2.1-1.8,2-1.8,2.8c0,2.2-0.4,2.1-1.5,3.8c-1.8-1.2-2.7-2.3-4.7-2.3
	c-2.3,0-3.3,0-4.8-2.1C2,40,1.3,38.4,0.5,36.5c-0.4-1,2.5,0.7,3.3,0.9c0-1-0.1-3.1,0.7-3c-0.4-0.9-1.3-0.1-2-0.5
	c0-0.3,0.4-1.4,0.4-2c0-0.8-0.6-2.4-0.1-3.2c0.6-0.8,4.1,0.8,4.1-0.4c0.5-0.6,0.3-1.5,1.9-1.4C8.5,26.3,9,25.6,9.5,25
	c1.3,1.3,2.5,1.8,2.1-0.4c-0.3-1.6-1.9-3.9-0.2-5.1c-1.7-1.6-1-2.3-1.5-4.2c-0.6-2-2.1-2.6-2.4-4.6c-0.2-1-0.3-4,0.9-3.8
	c1.6,0.2,1.2-2.5,0.8-3.2c1.5,0.2,1.4,1.4,2.4,2c1.2,0.7,2.9,0.1,4.1-0.2C17.1,5.1,18,3.8,19,3c0.4-0.4,1.4,0,1.5-1.1
	c0.1-0.5,0.8-1,1.3-1.3c1.1,2,2.6,4.2,5.2,2.4c0.3-0.2,0.6-0.4,0.8-0.6l0.3,5.1H34c0.1,1.6,0.5,3.6,0.5,5.2c1.1-0.1,2.2,0.2,2.9,0.9
	l0.1,1.4l1.3-0.1l2.9,5.2c0.5-0.4,1.5-1,2.1-1.4l0.3,0.3h0.2l0.1,0.1l0.5,0.2c0.2-0.1,0.7-0.3,0.9-0.4c0.1-0.2,0.3-0.7,0.4-0.9
	c0.8-0.4,2.8,0.9,3.7,0.6c0.9,0.4,4.1,0.2,5.5,0.5c1.7,1,3.4,2,5.2,2.9c0,0.2,0.1,0.5-0.1,0.9l-0.2,0.1l-0.2,0.1
	C60.1,23,60,23.5,60,23.6l-0.2,0.1l-1,0.2c0.2,0.9,0.3,1.3,1.1,1.9l-1,0.8l1.4,1.3l-0.2,0.3v0.2c1.4,0.5,2.2,2.2,3.3,3.3l-6.1,6
	c0.4,2-0.6,2.9,1.3,4.1l0.1,0.1c-0.3,1.4-0.6,3.3-2.1,3.7l-0.1,0.1c1.4,2.9,1.4,5.6,4.7,7.6l0.5,0.3l0.2,0.2l-0.6,1.7l0.5,1
	c-1.1,1.1-0.7,2,1,2l0.4,0.8c-0.3,0.2-0.4,0.3-0.5,0.4v0.5c0.3,0.2,0.9,0.2,1.3,0.3c0.2,0.7,0.2,1.8,0.2,2.5H64l1,0.6l-0.1,0.2
	l-0.2,0.5c0.2,0.2,0.4,0.3,0.6,0.6h0.3l0.1-0.1l0.1-0.1C67.2,65.2,65.8,68.1,64.9,67.1z"/>
</svg>
