<!-- Generator: Adobe Illustrator 19.1.0, SVG Export Plug-In  -->
<svg version="1.1"
	 xmlns="http://www.w3.org/2000/svg" xmlns:xlink="http://www.w3.org/1999/xlink" xmlns:a="http://ns.adobe.com/AdobeSVGViewerExtensions/3.0/"
	 x="0px" y="0px" width="97.3px" height="121.8px" viewBox="0 0 97.3 121.8"
	 style="overflow:scroll;enable-background:new 0 0 97.3 121.8;" xml:space="preserve">
<style type="text/css">
	.st0{opacity:0.5;fill-rule:evenodd;clip-rule:evenodd;fill:#CA2027;stroke:#FFFFFF;stroke-miterlimit:2.6131;}
</style>
<defs>
</defs>
<path class="st0" d="M96.1,74.3L96,75l0.1,0.6l-0.2,0.2v0.5l0.2,0.5l0.1,0.3l-0.5,0.6l-0.2-0.1h-0.2L95,77.4l-0.9-0.2l-0.8-1h-0.9
	l-0.1,1.1L92,77.5l-0.8,0.2h-1l-0.5-0.1l-0.1,0.2l-0.3,0.4L89,78.7L88.7,79l-0.7,1l-0.7,0.6l-1.4-0.3l0.1,6.2l-0.2,3.3l-0.2,4.3
	l0.3,0.2l0.3,0.2l0.6,0.1L87,95l0.1,0.4l0.1,0.3l-1.5,1.1l-0.1,6.4l-0.5,0.4l-0.8,0.3l-0.7,0.3l-1,0.2l-0.9,0.5l-0.8,0.2l-1.1,1.1
	l-0.6,0.4l-1,0.7h-0.5l-0.3-0.2l-0.3-0.3l-0.1-0.2l-0.1-0.2l-0.2-0.3l-0.2-0.1l-0.4,0.2l-0.3,0.2l-0.3,0.2l-0.4,0.2l-0.4,0.2
	l-0.6,0.3l-0.2,0.1l-0.6,0.2l-0.5,0.3l-0.6,0.3l-1,0.6l-0.6,0.5l-0.5,0.5l-0.5,0.5l-0.4,0.3l-0.5,0.2l-0.5,0.3l-0.3,0.3l-0.5,0.3
	l-1,0.3l-0.6-0.1l-0.5-0.1l-0.3-0.2l-0.2-0.2l-0.2-0.2l-0.2-0.5l-0.1-0.6l-0.1-0.3l-0.4-0.3h-0.5L63,110l-0.6,0.1h-0.3l-0.2,0.2
	l-0.2,0.4h-0.4l-0.7-0.1h-0.3l-0.2,0.2l-0.1,0.7l-0.2,0.1h-0.2l-0.1,0.1l-0.2,0.1l-0.2,0.1l-0.2,0.1l-0.2,0.1l-0.2,0.2l-0.1,0.2v0.6
	l-0.2,0.2l-0.2,0.2l-0.2,0.1l-0.2,0.1v0.5l0.1,0.6v0.3l0.1,0.4l0.1,0.3l0.1,0.2l0.1,0.1l-0.2,0.3l0.1,0.3l0.1,0.6l0.2,0.3l0.1,0.5
	l-0.2,0.2l-0.4,0.1l-0.4,0.2l-0.3,0.1l0.1,0.4l-0.1,0.4l-0.1,0.3l-0.4,0.2l-0.2-0.1l-0.2-0.1h-0.2l-0.2,0.1h-0.2l-0.2-0.1l-0.2-0.1
	l-0.4,0.1l-0.2,0.1h-0.2l-0.2,0.2l0.2,0.8l-0.4,0.1l-0.4,0.2l-0.6,0.1l-0.4-0.1h-1l-0.5-0.1h-0.3l-0.2-0.2l-0.5-0.2l-0.2-0.2
	l-0.1-0.2l-0.2-0.2v-0.4l-0.1-0.2v-0.2l-0.2-0.3l-0.3-0.2l-0.4-0.4l-0.2-0.2l-0.2-0.2l0.1-0.4l-0.1-0.1l-0.6-0.4V117l0.2-0.8v-1.3
	l-0.1-0.4l-0.2-0.2l-0.3-0.1l-0.4,0.1l-0.3-0.2l-0.6-0.1h-0.6l-0.2,0.1l-0.4,0.1l-0.2,0.2l-0.4,0.4l-0.2,0.2l-0.2,0.5l-0.2,0.2
	l-0.1,0.2H43l-0.2-0.1l-0.2-0.2h-0.2l-0.2,0.2l-0.4,0.3l-0.1,0.1l-0.1,0.6l0.1,0.5l-0.1,0.4v1.1l-0.2,0.2l-0.6,0.1l-0.3,0.2h-0.3
	l-0.3,0.1l-0.3,0.1l-0.5,0.1l-0.4,0.2h-0.5l-0.5,0.1h-0.5l-0.4,0.1h-1l-0.3-0.1l-0.5,0.1h-0.6l-0.2,0.1l-0.3,0.1l-0.2,0.1h-0.2
	l-0.3,0.1l-0.2,0.1l-0.1-0.2l-0.2-0.3l-0.4-0.3l-0.2-0.2l0.2-0.2l0.3-0.2l0.1-0.5l0.1-0.4l0.1-0.4l0.2-0.6l0.3-0.8l0.2-0.3l0.2-0.4
	l-0.2-0.6l-0.1-0.6l-0.2-0.5l-0.1-0.5l-0.2-0.4l-0.1-0.6l-0.1-0.7v-1.7l-0.4-0.1l-0.3-0.2l-0.3-0.3l-0.3-0.7l-0.2-0.5l-0.3-0.2
	l-0.3-0.3l-0.2-0.7l-0.1-0.6l-0.1-0.9l-0.2-0.5v-0.8h-0.3l-0.6-0.2l-0.8-0.3l-0.5-0.2l-0.6-0.4l-0.6-0.6l-0.6-0.6l-0.1-0.3l-0.1-0.2
	v-0.2l0.1-0.2l0.1-0.4l-0.1-0.2L26,99.7l-0.5-0.1l-0.4-0.2l-0.6-0.2l-0.3-0.1L24,98.8l-0.2-0.4l-0.3-0.5l-0.1-0.6l-0.2-0.6L23,96.3
	l-0.2-0.4l-0.1-0.4l-0.1-0.6l-0.2-0.2l-0.1-0.2L22,94.1l-0.2-0.2l-0.5-0.2h-0.4l-0.1,0.1l-0.3,0.1H20l-0.2-0.1l-1.3,0.3L18.4,94
	l-0.5-0.2l-0.4-0.2l-0.3-0.1l-0.6-0.5l-0.4-0.3L16,92.5l-0.5-0.2l-1.6,1.4L13,92.5l-0.9,0.5l-0.6-0.8l0.6-1l0.4-0.5l0.3-0.5L13,90
	v-0.5l0.1-0.5l0.2-0.4h0.4l0.2-0.5l-0.2-0.5l-0.2-1.2l-0.2-0.5l0.2-0.2h0.2l0.2-0.4l0.1-0.4l0.1-0.7l0.2-0.5l0.1-0.4h0.2l0.5-0.1
	l0.2-0.2l0.2-0.2h0.6l0.2-0.2l0.2-0.3l0.9-3.6l0.2-0.7l0.3-0.2l0.4-0.1l0.2-0.1l0.2,0.1l0.2-0.1l0.2-0.1l0.2-0.2l0.2-0.2l0.1-0.2
	l0.1-0.6l0.1-0.4l0.1-0.4l0.2-0.3L19.7,75l-0.1-0.2l-0.1-0.2l-0.1-0.2l-0.2-0.2l-0.1-0.5l-0.2-0.2L19,73.1l-0.1-0.3l-0.1-0.2v-0.3
	L18.8,72h-0.2l-0.2,0.1h-0.2L18.1,72L18,71.7l-0.2-0.2h-0.1l-0.2,0.2L17.4,72l-0.1,0.2l-0.1,0.1l-0.2,0.2l-0.2,0.1h-0.5l-0.2-0.1
	L16,72.4l-0.2-0.2l-0.2-0.2l-0.2-0.2l-0.2-0.1l-0.2,0.1h-0.3l-0.5-0.2h-0.2l-0.2-0.1l-0.2-0.1h-0.2l-0.3-0.1l-0.2,0.1l0.2-1l0.1-0.1
	V70L13.4,70v-0.1l-0.1-0.2l-0.2-0.2v-0.3h0.2l0.2-0.1h0.1l0.2-0.2l0.2-0.2l0.2-0.3l0.2-0.4l0.1-0.3l0.2-0.5v-0.8L14.4,66l-0.2-0.2
	l-0.2-0.2l-0.3-0.1l-0.2,0.1L13,65.8l-0.2,0.1L12.4,66l-0.2-0.1h-0.2l-0.3-3.1l0.3-0.4l-0.2-0.1l-0.2-0.2L11.4,62L11,61.8l-0.3-0.2
	l-0.3-0.2l-0.3-0.2L10,61.3v-0.4l0.1-0.2l0.1-0.1h0.1l0.6-0.1l0.2-0.2V60l-0.1-0.2l-0.1-0.2v-0.2l-0.1-0.3L10.6,59v-0.9h0
	c0,0,0,0,0,0c0,0,0,0,0.1,0h0.2l0.4-0.2c0.5-0.2,1.1-0.3,1.5-0.5h0l0.2-0.1l0.2-0.2l0,0c0.1-0.1,0.2-0.1,0.2-0.2c0-0.1,0-0.1,0-0.2
	l0.1-0.5l-0.1-0.4l-0.2-0.6L13.2,55c-0.2-0.9-0.5-1.8-0.7-2.8v-0.1l-0.2-0.5c0-0.1,0-0.2-0.1-0.3v-0.7l-0.1-0.5L12,49.6l-0.2-0.4
	l-0.1-0.6l0-0.1c0-0.1,0-0.2,0-0.3c0-0.1,0-0.3,0.1-0.4l0.1-0.2l0.2-0.2v-0.2l-0.2-0.6l-0.1-0.2v0c-0.1-0.7-0.3-1.4-0.5-2.2v-0.1
	l-0.1-0.5L11,43.2l-0.1-0.4l-0.4-0.6l-0.2-0.4L10,41.4L9.8,41c0-0.1-0.1-0.2-0.1-0.3c0-0.1-0.1-0.2-0.2-0.3l-0.1-0.2l-0.2-0.4
	L9,39.3l-0.5-0.2l-0.2-0.2L8,38.8c-0.1-0.2-0.3-0.3-0.4-0.6l0.2-0.3l0.1-0.2c0,0,0,0,0,0c-0.9-1.2,0-2,0.3-3.1
	c-0.6-1.5-0.8-2.4-1.1-2.8l-0.1-0.2l-0.2-0.2l-0.5-0.1L6,31.5l-0.5,0.2l-0.4,0.2l-0.3,0.1c-0.1-0.3-0.4-1.2-0.5-2v-0.5l-0.1-0.2v0
	c0-0.2,0-0.3,0-0.4c0-0.2-0.1-0.3-0.1-0.5l0-0.5L4,27.3v-0.5l-0.1-0.6v-0.8l-0.1-0.6l-0.1-0.6c-0.1-0.8-0.3-1.6-0.6-2.3L3,21.6
	l-0.4-0.5l0,0L2.6,21l-0.2-0.4L2.1,20L2,19.5l-0.2-0.2L1.5,19l-0.2-0.1c-0.5-0.8-0.8-1.6-0.8-2.5c0.2-0.1,0.4-0.2,0.7-0.3h0L1.6,16
	l0.2-0.2L2,15.7c0.3-0.1,0.5-0.3,0.7-0.5l0,0l0.1,0l0.3-0.4l0.2-0.5v-0.2l-0.1-0.4l-0.1-0.2l-0.2-0.3h0l0,0
	c-0.1-0.2-0.2-0.4-0.4-0.6l0-0.1h0.2L3,12.2c0.5-0.2,1-0.5,1.3-1c0.9,1,1.5,0.1,1.9-0.8c0.5-1.3-0.4-2.2-0.5-2.9
	C5.3,5.9,5.6,4,5.3,2.4c0.6,1.5,2.5,2.4,3.8,1.4c0.5,0.6,0.7,1.3,1,2c0.2,0.7-1.4,1.9-1.2,2.7c0.3,1.5,3.1,1.7,4.2,1.2
	c3.2-1.6,0.3-6.7,0-9.2c0.7,0.6,0.7,0.5,1.4,0.2c0.4,0.7,0.5,0.9,1.2,1.2c-0.6,0.2-0.7,0.5-1.3,0.6C14.9,4,16.6,4.3,17.9,3
	c0.3-0.3,0.3-0.6,0.4-1C18.4,0.7,19,2,19,2c0.5-0.2,1.2,0.4,2-0.7c-0.7,1.3-0.8,2,0.1,2.9c1.1,1,2.8,0.9,3.6,1.7
	c-1.7,0-1.3,1.5-0.4,2.1c0.8,0.5,2.5,0.4,3.8,0.4c3,0.1,7.6-1.6,10.3-0.4c0.8,0.4,2,1.8,2.8,2.5c0.7,0.6,1.7,1.9,2.5,2
	c1,0.1,2.3-0.7,3,0.3c0.4,0.5,4.5,1.1,5,1.2c0.6,0,1.6,3.1,3.1,1.4c0.4,1.4,1.7,3.6,3.5,3.5c-0.2-0.1-0.6-0.8-0.9-1
	c1.2,0.1,2.5,0,3.5-0.7c0.6,1.2,2.6,0.1,3.2-0.9c1.3-2,0.6-2.4-1-3.8c0.8,0.3,1.5,0.2,1.5-0.7c0.7,0.7,2,0.7,3,1.1
	c0.6,0.3,1.3-0.1,1.9,0.2c0.6,0.3,1.1,1,1.7,1.4c1.2,0.6,2.6,1.3,3.6,1.8c1.2,0.7,0.8,0.8,2.4,0.3c0.8,1.9-0.5,2.4,1.9,3.2
	c-0.2,0.3-0.1,0.3-0.2,0.5c0,0,0,0,0,0c0,0,0,0,0,0l0,0l0.6-0.1l0.3,0.1l-0.2,0.5l-0.1,0.5l-0.2,0.6l0.1,0.4l0.1,0.7l0.2,0.3v0.7
	l0.1,0.3l0.1,0.5l0.3,0.2l0.2,0.2l0.1,0.2l0.2,0.5l0.2,0.2l0.1,0.2l0.1,2.2l-0.1,1v1.3l0.2,0.6l0.1,0.5v0.4l0.2,0.5l0.1,0.3v0.2
	l0.2,0.2l0.1,0.4l0.1,0.3L82,35.4l-0.1,0.2h-0.3L81,35.4l-0.5-0.2L80.2,35l-0.4-0.4l-0.5-0.7l-0.2-0.1L76.8,35l0.6,0.6l0.3,0.5
	l-0.1,0.2l-0.1,0.5l1.7,2.5l-1,1.2l-1.1,1.3l-1-0.2l-0.5,1.5l0.2,0.6l0.7-0.2L77,43l1,0.1l0.4,0.7l0.6,0.1l0.1-0.3l2.5-0.1l0.2,0.6
	l0.3,0.2l0.3,0.2l0.2,0.4L83,45l1,0.2l-0.1,0.5L83.7,46l-0.2,0.2L83,46.1l-0.4-0.2l-0.2,0.2L82.2,47l-0.5,0.3v0.2l-0.1,0.3l-0.2,0.5
	l-0.1,0.8l-0.2,0.6v0.5l-0.4,0.8l-0.2,0.4l-0.4,0.8L80,52.5l-0.2,0.2l-0.2,0.5l-0.3,0.1l-0.3,0.1l0.1,0.2l0.2,0.3l0.2,0.3l0.1,0.3
	v0.2l-0.2,2.7l0.2,0.1h0.3l0.4,0.2v0.3l-0.2,0.5l1,2.6l6.7-4l0.8,4.9l-0.5,0.9l0.3,0.2l1,0.4l0.5,0.4l0.8,0.4l0.7,0.1l0.6,0.2
	l0.5,0.1l0.9,0.2l0.6,0.2l0.3,0.2l0.5,0.5l0.5,0.5l0.3,0.4l0.2,0.2l0.2,0.7l0.1,0.3L95,70.6l0.6,1l0.9,0.5l0.2,1.8l-0.5-0.1
	l-0.1,0.2L96.1,74.3z"/>
</svg>
