<!-- Generator: Adobe Illustrator 19.1.0, SVG Export Plug-In  -->
<svg version="1.1"
	 xmlns="http://www.w3.org/2000/svg" xmlns:xlink="http://www.w3.org/1999/xlink" xmlns:a="http://ns.adobe.com/AdobeSVGViewerExtensions/3.0/"
	 x="0px" y="0px" width="105.2px" height="197.4px" viewBox="0 0 105.2 197.4"
	 style="overflow:scroll;enable-background:new 0 0 105.2 197.4;" xml:space="preserve">
<style type="text/css">
	.st0{fill:#312D2A;}
</style>
<defs>
</defs>
<path class="st0" d="M64.3,41.2l-36.7,0c-3,0-5.6,1.9-6.6,4.8C15.5,63,6.1,95.3,0.6,114.2c-3.6,10.6,11.4,14.8,14.6,4.9l12.7-45.2
	c0,0,0.1,0,0.1,0l-0.3,117.9c0,3.1,2.5,5.6,5.6,5.6h12.5c2.8,0,5.1-2.3,5.1-5.1V123c0-1.9,1.6-3.5,3.5-3.5h0c1.9,0,3.5,1.6,3.5,3.5
	v69.8c0,2.5,2,4.6,4.6,4.6h11.7c2.8,0,5-2.3,5-5L78.8,73.9c0,0,0.1-0.1,0.1,0l12,45.3c3.4,8.2,16.9,3.8,13.9-5L86.4,46.3
	c-1-3.2-4.3-5.1-7.7-5.1L64.3,41.2z"/>
<circle class="st0" cx="53" cy="18.8" r="18.8"/>
</svg>
