<!-- Generator: Adobe Illustrator 19.1.0, SVG Export Plug-In  -->
<svg version="1.1"
	 xmlns="http://www.w3.org/2000/svg" xmlns:xlink="http://www.w3.org/1999/xlink" xmlns:a="http://ns.adobe.com/AdobeSVGViewerExtensions/3.0/"
	 x="0px" y="0px" width="145.6px" height="125.1px" viewBox="0 0 145.6 125.1"
	 style="overflow:scroll;enable-background:new 0 0 145.6 125.1;" xml:space="preserve">
<style type="text/css">
	.st0{fill:#312D2A;}
</style>
<defs>
</defs>
<g>
	<circle class="st0" cx="113.3" cy="11.6" r="11.6"/>
	<path class="st0" d="M76.6,77.8L76.6,77.8C71,74.6,68.9,67.5,72,61.9L90.3,29c3.1-5.6,10.2-7.6,15.8-4.5l0,0
		c5.6,3.1,7.6,10.2,4.5,15.8L92.4,73.2C89.3,78.8,82.2,80.9,76.6,77.8z"/>
	<path class="st0" d="M70.7,64.2L70.7,64.2c2.4-3.9,7.6-5.2,11.5-2.8l24.5,15c3.9,2.4,5.2,7.6,2.8,11.5l0,0
		c-2.4,3.9-7.6,5.2-11.5,2.8l-24.5-15C69.6,73.3,68.3,68.1,70.7,64.2z"/>
	<path class="st0" d="M80.8,60.2L80.8,60.2c3.5,1.7,4.9,6.3,3,10.1L72.6,93.4c-1.9,3.8-6.3,5.6-9.9,3.8l0,0c-3.5-1.7-2.8-6-0.9-9.9
		L71,64C72.8,60.2,77.3,58.5,80.8,60.2z"/>
	<path class="st0" d="M106.9,122.3L106.9,122.3c-3.2,0.1-6-2.4-6.1-5.6L99.4,83c-0.1-3.2,2.4-6,5.6-6.1h0c3.2-0.1,6,2.4,6.1,5.6
		l1.4,33.7C112.7,119.5,110.1,122.2,106.9,122.3z"/>
	<path class="st0" d="M40.8,119.9L40.8,119.9c-2.4-2.2-2.5-6-0.3-8.3l21.9-23.3c2.2-2.4,6-2.5,8.3-0.3l0,0c2.4,2.2,2.5,6,0.3,8.3
		l-21.9,23.3C46.9,121.9,43.2,122.1,40.8,119.9z"/>
	<rect x="1.5" y="122.3" class="st0" width="139.3" height="2.8"/>
	<path class="st0" d="M145.6,120.6c0,2.5-2,4.5-4.5,4.5c-1.9,0-3.5-1.1-4.2-2.8h4.2c1,0,1.8-0.8,1.8-1.8s-0.8-1.8-1.8-1.8V116
		C143.6,116,145.6,118,145.6,120.6z"/>
	<path class="st0" d="M84.7,120.6c0,2.5-2,4.5-4.5,4.5c-1.9,0-3.5-1.1-4.2-2.8h4.2c1,0,1.8-0.8,1.8-1.8s-0.8-1.8-1.8-1.8V116
		C82.7,116,84.7,118,84.7,120.6z"/>
	<path class="st0" d="M114.7,52.5L99.5,36.7c-2.3-2.4-2.2-6.2,0.2-8.5l0,0c2.4-2.3,6.2-2.2,8.5,0.2l15.2,15.8
		c2.3,2.4,2.2,6.2-0.2,8.5l0,0C120.8,54.9,117,54.8,114.7,52.5z"/>
	<path class="st0" d="M120.3,44.9l19.5,2c2.6,0.3,4.5,2.6,4.2,5.2v0c-0.3,2.6-2.6,4.5-5.2,4.2l-19.5-2c-2.6-0.3-4.5-2.6-4.2-5.2v0
		C115.4,46.6,117.7,44.7,120.3,44.9z"/>
	<path class="st0" d="M77.6,21.2l21.8,1.6c3.3,0.2,5.8,3.1,5.5,6.4v0c-0.2,3.3-3.1,5.8-6.4,5.5l-21.8-1.6c-3.3-0.2-5.8-3.1-5.5-6.4
		v0C71.4,23.4,74.3,20.9,77.6,21.2z"/>
	<path class="st0" d="M78.4,30.5L62.5,42.1c-2.1,1.5-5.1,1.1-6.6-1l0,0c-1.5-2.1-1.1-5.1,1-6.6l15.9-11.6c2.1-1.5,5.1-1.1,6.6,1v0
		C81,26,80.5,29,78.4,30.5z"/>
	
		<rect x="134.9" y="43.1" transform="matrix(0.9947 0.1031 -0.1031 0.9947 9.0322 -13.5878)" class="st0" width="2.2" height="74.9"/>
	
		<rect x="32.5" y="-12.2" transform="matrix(-0.4664 0.8846 -0.8846 -0.4664 71.6641 7.322)" class="st0" width="2.2" height="74.9"/>
</g>
</svg>
