<?xml version="1.0" encoding="utf-8"?>
<!-- Generator: Adobe Illustrator 19.1.0, SVG Export Plug-In . SVG Version: 6.00 Build 0)  -->
<svg version="1.1" id="Layer_1" xmlns="http://www.w3.org/2000/svg" xmlns:xlink="http://www.w3.org/1999/xlink" x="0px" y="0px"
	 viewBox="-487 227 198.8 96.3" style="enable-background:new -487 227 198.8 96.3;" xml:space="preserve">
<style type="text/css">
	.st0{fill:#B4C1BC;}
	.st1{fill:#4D685C;}
	.st2{fill:#312D2A;}
	.st3{fill:none;}
	.st4{font-family:'Lato-Bold';}
	.st5{font-size:12px;}
</style>
<path class="st0" d="M-446,291.5h105.9c6.6,0,12-5.4,12-12v-38.4c0-6.6-5.4-12-12-12H-446c-6.6,0-12,5.4-12,12v38.4
	C-458,286.1-452.6,291.5-446,291.5z"/>
<circle class="st0" cx="-334.2" cy="270.5" r="41.4"/>
<circle class="st0" cx="-452.8" cy="260.3" r="31.2"/>
<g>
	<polygon class="st1" points="-385.1,274.2 -385.6,275.2 -388.9,275.6 -390.6,277.3 -389.3,280.7 -384.3,276.7 -382.9,273 
		-381.4,272.3 -376.7,274.7 -375.5,272.3 -372.9,271.9 -371.2,270.6 -369.3,269.6 -367.8,270.6 -367.2,269.1 -368.5,266.4 
		-369.8,264.4 -375.7,263.7 -378.1,262.4 -382.5,264 -381,265.6 -383.1,263.8 -383.8,265.4 -386.7,262.2 -387.7,262.8 -386.3,267.3 
		-389.2,266.8 -388.1,269.9 	"/>
	<polygon class="st1" points="-377.6,255.6 -380.2,254.3 -382.2,253.5 -382.3,252.2 -379.3,252.1 -377.2,252.6 -375.4,251.6 
		-374.2,250.5 -370.2,251.9 -369.3,254.4 -368.9,257.4 -369.9,257.7 -370.5,256.6 -372.1,257.2 -373.8,259 -375.3,260.4 
		-377.3,259.9 -378.6,258 	"/>
	<polygon class="st1" points="-339.8,288.6 -335.1,290.8 -334.1,293.4 -321.8,305.5 -317.9,304.1 -310.6,308.3 -306.4,308.9 
		-302.2,304.7 -300.4,301.3 -303.8,293.8 -304.8,285.2 -305.5,281.5 -302,274.3 -294,272.7 -290.8,269.7 -288.2,262.3 -289.4,259.4 
		-292.2,259.4 -293.1,259.4 -295.5,257.5 -303.3,255.9 -307.9,250.8 -312,249.3 -317,245.7 -319.9,246.4 -322,244.8 -323.3,245.4 
		-324.6,244.4 -325.9,245.2 -324.8,247.4 -331.6,246 -333.1,246.1 -334.7,244.5 -337.2,246.2 -342.2,245 -344.6,245.8 -348,245.5 
		-348.8,247.9 -351.9,248.2 -358.5,249.6 -359.8,252.5 -357.8,255.1 -359.5,255.8 -360.6,259.3 -359.9,260.9 -356.7,262.9 
		-356.5,263.7 -360,263.9 -362.6,265 -362.7,266.3 -360.6,269.5 -361.4,273.9 -361.2,274.5 -360.3,275.3 -357.9,274.6 -355.3,279.4 
		-353.5,279.1 -352.2,277.3 -348.7,276.2 -348,278.3 -349.7,281.3 -351.5,283.2 -354.7,289.3 -341.9,285.7 	"/>
</g>
<g>
	<path class="st2" d="M-358.4,311.9c-0.3,0.5-0.2,1.2,0.3,1.6l14.2,9.7c0.5,0.3,1.2,0.2,1.6-0.3l1.6-2.3l-16.2-11L-358.4,311.9z"/>
	<path class="st2" d="M-336.4,316.8L-336.4,316.8c1.2-0.5,2.1-1.4,2.8-2.4l0,0l5.2-7.7c0.4-0.6,0.5-1.2,0.3-1.9
		c-0.1-0.2-0.1-0.4-0.3-0.5l0,0c-0.9-1.2-2.2-2.9-3.5-4.5c-1.2-1.6-2.4-3.1-3.1-3.9c-0.2-0.2-0.4-0.4-0.4-0.4
		c-0.2-0.2-0.5-0.4-0.6-0.5c-0.3-0.2-0.5-0.3-0.8-0.4s-0.5-0.1-0.7-0.1l-0.2,0.1l-0.6-0.4l0.3-0.4l0,0c0,0,0,0,0.1-0.1
		c0.1-0.1,0.1-0.3,0.2-0.4c0.2-0.4,0.4-0.8,0.8-1.4c0.6-1.2,1.5-2.7,2.3-4.2c1.6-3.1,3.4-6.3,3.6-6.8l0,0c0.1-0.3,0.2-0.4,0.1-0.6
		c0-0.2,0-0.3-0.1-0.5c-0.1-0.3-0.3-0.6-0.7-0.8c-0.3-0.1-0.5-0.3-0.9-0.3c-0.2,0-0.5,0-0.8,0.1c-0.3,0.1-0.4,0.3-0.6,0.6l0,0
		l-13.2,19.5c-0.2,0.2-0.3,0.3-0.5,0.4c-0.3,0.1-0.6,0.1-0.9,0l0,0l0,0l0-0.1l0,0l0,0l0,0c-0.3-0.1-0.6-0.4-0.9-0.8
		c-0.4-0.4-0.8-0.9-1-1.6c-0.2-0.7-0.4-1.4-0.4-2.5l0,0l0,0l0,0c0-0.4,0-0.8,0-1.1l0,0c0-0.3,0-0.6-0.1-0.9
		c-0.1-0.4-0.4-0.7-0.7-0.9c-0.5-0.4-1-0.4-1.6-0.2c-0.5,0.2-0.8,0.5-1.1,1l0,0c-0.2,0.5-0.5,1.3-0.7,2.4c-0.3,1.1-0.3,2.3-0.5,3.7
		c-0.2,2.7-0.1,6.1,0.5,9.8l15.7,10.6L-336.4,316.8z"/>
</g>
<rect x="-475.4" y="147" class="st3" width="75.2" height="144.5"/>
<text transform="matrix(1 0 0 1 -473.5718 155.916)"><tspan x="0" y="0" class="st4 st5">Mis maimuke </tspan><tspan x="0.6" y="14.4" class="st4 st5">nimeks saab?</tspan></text>
</svg>
