<!-- Generator: Adobe Illustrator 19.1.0, SVG Export Plug-In  -->
<svg version="1.1"
	 xmlns="http://www.w3.org/2000/svg" xmlns:xlink="http://www.w3.org/1999/xlink" xmlns:a="http://ns.adobe.com/AdobeSVGViewerExtensions/3.0/"
	 x="0px" y="0px" width="606.1px" height="333px" viewBox="0 0 606.1 333"
	 style="overflow:scroll;enable-background:new 0 0 606.1 333;" xml:space="preserve">
<style type="text/css">
	.st0{fill:#DCD3BE;}
</style>
<defs>
</defs>
<g>
	<g>
		<g>
			<rect class="st0" width="17.7" height="333"/>
			<rect x="24.5" y="22.5" class="st0" width="17.7" height="310.4"/>
			<rect x="49" y="70.8" class="st0" width="17.7" height="262.1"/>
			<rect x="73.6" y="89.3" class="st0" width="17.7" height="243.7"/>
			<rect x="98.1" y="101.3" class="st0" width="17.7" height="231.6"/>
			<rect x="122.6" y="105.5" class="st0" width="17.7" height="227.4"/>
			<rect x="147.1" y="116.6" class="st0" width="17.7" height="216.4"/>
			<rect x="171.6" y="124.4" class="st0" width="17.7" height="208.6"/>
			<rect x="196.2" y="120.1" class="st0" width="17.7" height="212.8"/>
			<rect x="220.7" y="109.5" class="st0" width="17.7" height="223.5"/>
			<rect x="245.2" y="117.1" class="st0" width="17.7" height="215.9"/>
			<rect x="269.7" y="111" class="st0" width="17.7" height="221.9"/>
			<rect x="294.2" y="110.3" class="st0" width="17.7" height="222.7"/>
			<rect x="318.8" y="94.1" class="st0" width="17.7" height="238.8"/>
			<rect x="343.3" y="87.9" class="st0" width="17.7" height="245.1"/>
			<rect x="367.8" y="79.4" class="st0" width="17.7" height="253.5"/>
			<rect x="392.3" y="64.2" class="st0" width="17.7" height="268.8"/>
			<rect x="416.8" y="60.9" class="st0" width="17.7" height="272.1"/>
			<rect x="441.4" y="65.2" class="st0" width="17.7" height="267.8"/>
			<rect x="465.9" y="63.7" class="st0" width="17.7" height="269.2"/>
			<rect x="490.4" y="83.5" class="st0" width="17.7" height="249.5"/>
			<rect x="514.9" y="94.8" class="st0" width="17.7" height="238.1"/>
			<rect x="539.4" y="102.8" class="st0" width="17.7" height="230.2"/>
			<rect x="564" y="102.7" class="st0" width="17.7" height="230.2"/>
			<rect x="588.5" y="97.7" class="st0" width="17.7" height="235.3"/>
		</g>
	</g>
</g>
</svg>
