<?xml version="1.0" encoding="utf-8"?>
<!-- Generator: Adobe Illustrator 19.1.0, SVG Export Plug-In . SVG Version: 6.00 Build 0)  -->
<svg version="1.1" id="Layer_1" xmlns="http://www.w3.org/2000/svg" xmlns:xlink="http://www.w3.org/1999/xlink" x="0px" y="0px"
	 viewBox="-216 210.9 565.5 181.1" style="enable-background:new -216 210.9 565.5 181.1;" xml:space="preserve">
<style type="text/css">
	.st0{fill:none;stroke:#C92027;stroke-width:3;stroke-linecap:round;stroke-miterlimit:10;}
</style>
<g>
	<g>
		<g>
			<line class="st0" x1="-189.9" y1="243.1" x2="-214.5" y2="212.1"/>
			<line class="st0" x1="-165.4" y1="318.8" x2="-189.9" y2="243.1"/>
			<line class="st0" x1="-140.9" y1="342.8" x2="-165.4" y2="318.8"/>
			<line class="st0" x1="-116.4" y1="356.6" x2="-140.9" y2="342.8"/>
			<line class="st0" x1="-91.9" y1="360" x2="-116.4" y2="356.6"/>
			<line class="st0" x1="-67.3" y1="377.2" x2="-91.9" y2="360"/>
			<line class="st0" x1="-42.8" y1="391" x2="-67.3" y2="377.2"/>
			<line class="st0" x1="-18.3" y1="377.2" x2="-42.8" y2="391"/>
			<line class="st0" x1="6.2" y1="353.2" x2="-18.3" y2="377.2"/>
			<line class="st0" x1="30.7" y1="370.4" x2="6.2" y2="353.2"/>
			<line class="st0" x1="55.3" y1="360" x2="30.7" y2="370.4"/>
			<line class="st0" x1="79.8" y1="360" x2="55.3" y2="360"/>
			<line class="st0" x1="104.3" y1="325.6" x2="79.8" y2="360"/>
			<line class="st0" x1="128.8" y1="315.3" x2="104.3" y2="325.6"/>
			<line class="st0" x1="153.3" y1="298.1" x2="128.8" y2="315.3"/>
			<line class="st0" x1="177.9" y1="267.2" x2="153.3" y2="298.1"/>
			<line class="st0" x1="202.4" y1="239.6" x2="177.9" y2="267.2"/>
			<line class="st0" x1="226.9" y1="246.5" x2="202.4" y2="239.6"/>
			<line class="st0" x1="251.4" y1="239.6" x2="226.9" y2="246.5"/>
			<line class="st0" x1="275.9" y1="277.5" x2="251.4" y2="239.6"/>
			<line class="st0" x1="300.5" y1="294.7" x2="275.9" y2="277.5"/>
			<line class="st0" x1="325" y1="308.4" x2="300.5" y2="294.7"/>
			<line class="st0" x1="349.5" y1="301.6" x2="325" y2="308.4"/>
		</g>
	</g>
</g>
</svg>
