<!-- Generator: Adobe Illustrator 19.1.0, SVG Export Plug-In  -->
<svg version="1.1"
	 xmlns="http://www.w3.org/2000/svg" xmlns:xlink="http://www.w3.org/1999/xlink" xmlns:a="http://ns.adobe.com/AdobeSVGViewerExtensions/3.0/"
	 x="0px" y="0px" width="137.2px" height="189px" viewBox="0 0 137.2 189"
	 style="overflow:scroll;enable-background:new 0 0 137.2 189;" xml:space="preserve">
<style type="text/css">
	.st0{fill:#BFB29D;}
</style>
<defs>
</defs>
<g>
	<path class="st0" d="M93.2,66c-4.7,13.3-13.7,28.8-15.9,41.3v0c-0.5,1.5-0.8,3.1-0.8,4.6l0.2,71.1c0,3.3-2.7,6-6,6H60.3
		c-3.1,0-5.5-2.5-5.5-5.5l0-62.5c0-2-1.5-3.9-3.6-4c-2.1-0.1-3.9,1.6-3.9,3.7v63.3c0,2.7-2.2,5-5,5H30.6c-3,0-5.4-2.4-5.4-5.4
		l1.3-87.1c0.1-1.4,0.3-2.7,0.7-4.1l0,0c2.3-14.1,8.4-26.9,16.1-42l0,0l-29,43.3c0,0,0,0,0,0c-6,7.5-18.7-1.1-12.8-9.3L40,29.7
		c2-3,6-4,9.5-3l15,4.4l38,11.1c3.1,0.9,5.3,3.7,5.4,6.9c0.3,10.9,1.5,7.2,1.5,23c0,0,0,6,0,6c19.4,15.5,14.9,12,23.2,18.9
		c9.7,7.2-1.2,20.1-10,13.2l-29.5-24c0,0,0,0,0,0"/>
	<circle class="st0" cx="86.4" cy="17.2" r="17.2"/>
	<line class="st0" x1="127.9" y1="113.4" x2="130.4" y2="113.4"/>
	<line class="st0" x1="134.2" y1="113.4" x2="135.3" y2="113.4"/>
	<path class="st0" d="M120.4,113.4c0,0.1,0,0.2,0,0.2c0,1.1,0.9,1.9,1.9,1.9s1.9-0.9,1.9-1.9c0-0.1,0-0.2,0-0.2h0
		c0-2.3,1.8-4.1,4.1-4.1s4.1,1.8,4.1,4.1v72.9h-0.6l-0.4,2.8h5.8l-0.3-2.8h-0.6v-72.9c0-4.4-3.5-7.9-7.9-7.9S120.4,109,120.4,113.4
		L120.4,113.4z"/>
</g>
</svg>
