<!-- Generator: Adobe Illustrator 19.1.0, SVG Export Plug-In  -->
<svg version="1.1"
	 xmlns="http://www.w3.org/2000/svg" xmlns:xlink="http://www.w3.org/1999/xlink" xmlns:a="http://ns.adobe.com/AdobeSVGViewerExtensions/3.0/"
	 x="0px" y="0px" width="138.4px" height="193.8px" viewBox="0 0 138.4 193.8"
	 style="overflow:scroll;enable-background:new 0 0 138.4 193.8;" xml:space="preserve">
<style type="text/css">
	.st0{fill:#57897C;}
</style>
<defs>
</defs>
<g>
	<g>
		<path class="st0" d="M45.2,70.7c4.7,13.3,13.7,28.8,15.9,41.3l0,0c0.5,1.5,0.8,3.1,0.8,4.6l-0.2,71.1c0,3.3,2.7,6,6,6h10.4
			c3.1,0,5.5-2.5,5.5-5.5l0-62.5c0-2,1.5-3.9,3.6-4c2.1-0.1,3.9,1.6,3.9,3.7v63.3c0,2.7,2.2,5,5,5h11.6c3,0,5.4-2.4,5.4-5.4
			l-1.3-87.1c-0.1-1.4-0.3-2.7-0.7-4.1l0,0c-2.3-14.1-9.6-27.5-17.4-42.7l1.2,0.7l29,43.3c0,0,0,0,0,0c6,7.5,18.7-1.1,12.8-9.3
			c0,0-34.7-48.5-39.7-52.8s-12-3.5-20.3-1.9L35.9,47c-3.1,0.9-5.3,3.7-5.4,6.9c-0.3,10.9-1.5,7.2-1.5,23c0,0-2,6-2,6
			C7.6,98.5,12.1,95,3.8,101.9c-9.7,7.2,1.2,20.1,10,13.2l29.5-24c0,0,0,0,0,0L45.2,70.7z"/>
		<circle class="st0" cx="51.9" cy="22" r="17.2"/>
		<line class="st0" x1="10.5" y1="118.1" x2="8" y2="118.1"/>
		<line class="st0" x1="4.2" y1="118.1" x2="3.1" y2="118.1"/>
		<path class="st0" d="M18,118.1c0,0.1,0,0.2,0,0.2c0,1.1-0.9,1.9-1.9,1.9s-1.9-0.9-1.9-1.9c0-0.1,0-0.2,0-0.2h0
			c0-2.3-3.8-4.1-6.1-4.1S6,115.9,6,118.1V191h0.6l0.4,2.8H1.2l0.3-2.8h0.6v-72.9c0-4.4,1.5-7.9,5.9-7.9S18,113.7,18,118.1L18,118.1
			z"/>
	</g>
	<path class="st0" d="M51.9,56.9H95c5.6,10,18.3,21.8,16.3,34.8c15.6,9.1,12.7,52.8,13.2,88.2H48c-1-20.7-1-50.9,7.5-76.2
		c-6.5-1.3-12.2-12.6-10.3-33L51.9,56.9z"/>
	<circle class="st0" cx="64.7" cy="5.5" r="5.5"/>
</g>
</svg>
