<?xml version="1.0" encoding="utf-8"?>
<!-- Generator: Adobe Illustrator 19.1.0, SVG Export Plug-In . SVG Version: 6.00 Build 0)  -->
<svg version="1.1" id="Capa_1" xmlns="http://www.w3.org/2000/svg" xmlns:xlink="http://www.w3.org/1999/xlink" x="0px" y="0px"
	 viewBox="-73 165.3 463.7 463.7" style="enable-background:new -73 165.3 463.7 463.7;" xml:space="preserve">
<style type="text/css">
	.st0{fill:#57897C;}
</style>
<g>
	<g>
		<path class="st0" d="M334.5,390.1c0.9-6.5-2-13.3-7.6-16.7L9.2,168c-5.1-3.4-11.9-3.7-17.3-0.6c-5.4,3.1-8.8,8.8-8.8,15v363.2
			c0,6.5,3.7,12.2,9.4,15.3c5.7,2.8,12.8,2.3,17.8-1.7l90.1-67.4l82.4,129.2c3.1,5.1,8.8,7.9,14.5,7.9c2.8,0,6-0.9,8.5-2.3L290,578
			c4-2.3,6.8-6.2,7.9-10.8c1.1-4.5,0.3-9.4-2.3-13l-76.8-121L322.6,404C328.8,402,333.6,396.7,334.5,390.1z"/>
	</g>
</g>
</svg>
