<!-- Generator: Adobe Illustrator 19.1.0, SVG Export Plug-In  -->
<svg version="1.1"
	 xmlns="http://www.w3.org/2000/svg" xmlns:xlink="http://www.w3.org/1999/xlink" xmlns:a="http://ns.adobe.com/AdobeSVGViewerExtensions/3.0/"
	 x="0px" y="0px" width="109.4px" height="71.9px" viewBox="0 0 109.4 71.9"
	 style="overflow:scroll;enable-background:new 0 0 109.4 71.9;" xml:space="preserve">
<style type="text/css">
	.st0{opacity:0.5;fill-rule:evenodd;clip-rule:evenodd;fill:#CA2027;stroke:#FFFFFF;stroke-miterlimit:2.6131;}
</style>
<defs>
</defs>
<path class="st0" d="M108.3,63.4c-0.2,0.5-0.9,1.2-1.1,1.6c-0.3,0.5,0.9,1.6-0.4,1c-0.2,0.6-0.9,2-1.7,1.7c-1.3-0.5-1,0.5-1.9,0.5
	c-1.3,0-2.6-0.6-3.1-2c-0.9,1.7-1.8,1.6-3.4,1.4c-1.9-0.3-3-0.3-4.9,0.1c-1.5,0.4-3.3,0.4-4.7,0.8c-0.1,0-0.3,0.1-0.3,0.1h0
	c-0.4,0-0.9-0.1-1.1-0.1c-0.5,0.5-1.5,0.2-2.2,0.6l-0.3-0.2L83,68.8l-0.2,0.1L82.7,69h-0.2l-0.2-0.2c-0.2,0-0.6-0.2-1-0.2
	c-0.4-0.4-1-0.4-1.5-0.4l-0.1,0.2v0.2h-0.2l-0.5-0.2l-0.1-0.1l-0.3-0.2l-0.3,0.1c-0.2-0.3-0.7-0.3-1-0.6c-0.9,0.1-1.6,0.2-2.5-0.1
	c-0.2,0.2-0.5,0.3-0.5,0.5c-1,0-1.4,0.2-2,1c-0.3,0-0.6-0.2-0.6-0.5l-0.1,0.4l-0.1,0.1l-0.3,0.1l0.2,0.4l-0.2,0.5l-0.2,0.1l-0.3-0.1
	c-0.2,0.5-0.1,0.7-0.2,1.2c-0.8,0.2-1.9-0.4-2.7-0.6c-0.2-1-0.7-1.3-1.7-1.8L66,68.8c-0.3-1-2.5-0.8-3.3-0.8c0-1.6,0.5-5.2,2.2-5.4
	l0.6-0.1c0.4-0.7,0.6-1,1.4-1.3c0.2-1.4,1.8-1.9,0.2-3c-0.3,0.1-1,0.3-1.5,0.2c-0.2-0.7-0.6-1.4-0.6-2.2h-0.3
	c-0.6,0.6-0.3,1.8-0.5,2.7c-1.6,0-2.7-1.8-4.1-1.1c-1.1,0.5-3.1-1.4-3.7-2.2L55,55.6l-0.9-1.1l-1.7,0.4l-0.2-1.5
	c-1-0.2-1.5-1.1-2-1.8C49.8,51.7,49.4,52,49,52l-0.2-0.2c-0.1,0-0.9-0.5-0.9-0.6c0-0.1,0.2-0.5,0.2-0.5L48,50.5l-0.4,0.1
	c-1.1,2.2-4,0.5-4,4.3c0.8,0.8,0.5,2.3,1.8,2.5c0.2,0.2,0.4,0.6,0.3,1c-0.4,0.2-2.5-0.5-2.8-0.8c-2.1,0-3.1,0.9-4.5-1
	c-0.2,0-0.6,0.6-0.6,0.7c-0.4-0.1-0.8-0.6-1-1l-0.5,0.1c-0.2-0.6-0.6-1.8-1-2.6c-1-0.4-1.8,1.9-3.2,2.1l-2.2,1
	c-0.1-0.5-0.2-0.7-0.3-1.1c-1-0.2-2.1,0.8-3.2,0.8c-1.6-0.2-1.9-0.2-3,1c-1,0.5-1.9-0.6-2.1-1.4l-0.2-0.1L21,56
	c-0.7,0.3-0.6,0.5-1.4,0.1c-0.6,0.2-1,0.6-1.5,1c-1.4-1-3-1.5-4.3-2.7l-1.3,1.2l-0.2-0.2c-0.3-0.3-2.8,1-3.5,1.1l-0.3-0.5
	c-0.7,0.7-2.2,0.5-2.6-0.2l-0.3-0.1L5,55.6c0-0.6-0.8-0.4-0.9-1.1l-1.5,0.2l-0.2-0.1c-0.2-0.4-0.1-0.9,0-1.3c-0.2,0-0.6-0.5-0.6-0.5
	l-0.7-0.1l-0.2-0.9l1-0.6c-0.3-0.9-0.2-2.7-0.1-3.6l0.2-0.1l-1.1-2.3c2.6-3.5,2.2-4.8,1-8.3c0-1.5-0.1-1.4-1.3-2.3
	c1.3-2.6,2.5-6.3,3.5-9c1.2-0.3,2.5-0.4,3.7-0.5v-0.6l0.3-0.2c0-0.4-0.3-0.9-0.3-1.3c0.3-0.2,0.7-0.4,1-0.6h0.1l-0.2-0.6l-0.4,0.1
	v-0.2c-0.5-0.2-0.6-0.8-0.5-1.4h0.7l0.1-0.2l-1.3-1.7l0.2-0.1c0-0.9-0.9-1.2-0.3-2.1c0.7-0.2,2.7,0.9,3.7,1.3l0.2-0.9l-0.2-0.3
	c0.8-0.8,1.8-1.6,2.8-1.9c0.1,0.2,0.6,0.6,0.7,0.6l0.2,1.9l0.2,0.3l-0.4,0.7l0.1,0.5h0.4c0.2,0,0.2-0.8,0.2-1l1-0.5l0.2,0.6l0.6-0.6
	l0.1-0.4l0.4,0.1l0.2-0.7l0.3-0.1l0.2-0.2l0.2,0.2l0.2,0.3c1.4-0.7,1.8-2.3,3.7-1.3c1.3-0.3,1.4-3,2.9-3.6c0-2.1,0.7-5.6,2.5-6.5
	l0.2-0.2L28,4.3L29.4,5c-0.1,1-0.5,2.6,1.1,2.6c0.2-0.6,0.5-1.7,0.6-2l0.6,0.2L32,5.9l0.6-1c0.2,0.2,0.8,0.5,1.2,0.6
	c0.2-0.1,0.6-0.2,0.8-0.5l0.2,0.2L35,5.4L34.7,7l0.9,0.8l0.5-0.5l1.7-1c0.1,0,0.6,0.5,0.7,0.6L38.7,7c1.3-1.4,0.5-1.8,0.9-3.2
	c0.2-0.2,0.1-1.3,0.1-1.7c0.4-0.2,0.4-0.6,0.2-1c0.3,0,0.7-0.2,1-0.1C41,1.2,41,1.5,41,1.7l0.2-0.1L41.5,2h0.2l0.2-0.2l0.2-0.1
	l0.1,0.1c0.1,0.6,0.4,1.3,0.6,1.9L46.3,3v0.6l1.2-0.2V0.8l1.4-0.2c0,2,1.3,2.4,3.1,2.4l-0.2-0.6c1.8,0,3.8,0.4,5-0.8L57,1.9
	l-0.1,1.2l3,0.5L59.6,7l3.3,0.6L66,8.1l0.6-0.5l2.5,1.5l1-0.9l0.6,0.2l0.6-0.2c1.1,3.4,2.5,2,5.4,3h0.3c0.1,0,1.3,1.5,1.3,1.6
	c0.1,0,0.6,3.3,0.6,3.6l0.8,1.4c0,0,0.5,0.6,0.5,0.7c0.6,0.6,0.8,1,0.8,2c0,0.2,0.5,0.4,0.6,0.4l0.2,1.9h0.1l0.1,0.3
	c-0.5,0.5-0.2,1.3-0.2,1.9c0.2,0.2,0.6,0.4,1,0.4c0.3,0,0.7-0.1,1-0.1l0.1,0.1c0,0.2,0.6,0.4,0.9,0.4c0,0.2,0.4,1,0.4,1.1l0.1,0.1
	c0,0.1,0.2,0.2,0.2,0.2c0.4,0,0.7-0.2,0.9-0.3l0.1-0.1l0.1-0.1c0.2,0,0.7,1.4,0.7,1.7c0.2,0,0.6-0.1,0.7-0.1
	c0.2,0.2,0.4,0.5,0.5,0.6l-0.2,0.2v0.2c-0.2,0.2-0.6,0.6-0.9,0.9v0.2l-0.2,0.2l0.1,0.4l0.3,0.1l0.2,0.1v0.3c0,0.8,0.6,1.8,0.9,2.6
	c0.3,0.2-0.2,0.7-0.3,0.8c0,0.2-0.6,0.6-0.7,0.6H88l-0.2,0.1c0,0.4,0.1,1.2,0.1,1.8c0.2,0.2,0.9,0.2,1.1,0.7l0.1,0.1l-0.2,0.4
	c0,0.1,1,1.3,1,1.5c1,0.3,0.6,1,1.1,1.2l-0.2,0.4h-0.2l-0.1,0.1l-0.5,0.4l0.2,0.3l0.1,0.1v0.2c0,2.5-0.1,3.3,1.6,5l0.2,0.5
	c-0.6,0.6,1.2,1.7,1.5,2c0-0.3-0.2-1.3-0.8-0.8c-1-0.5-0.4-1.4-1.3-2.3l-0.4-0.5l0.4,0.1l0.2-0.1c-0.4-0.5-1-1.7-0.5-2.2
	c-0.2-1-0.1-1.3,0.4-2.1l0.2,0.2h0.2c0.1-0.2,0.1-0.3,0-0.5c0.2-0.2,0.1-0.2,0.3-0.3l-0.3-0.6l0-0.1c0.8,0.5,1.9,0.9,2.5,0.8
	c-0.1-0.1-0.1-0.1-0.2-0.2l0-0.1L94,41.5c-0.1-0.2-0.2-0.4-0.3-0.6c0-0.4-0.1-0.7-0.3-1c0-0.2-0.1-0.5-0.1-0.6c0-0.5,0-0.8,0.3-1
	c1,1.4,2.5,1.4,3.4,2.5c0,0,0.6,1.5,0.6,1.9c0.1,1-1,2.3-1,3.2c-0.1,1.5,0.6,1.1-0.5,2.3c-0.9,1.1-1-0.6-1,1
	c-0.1,1.7,2.8,2.5,1.9,4.1c0.7,0.2,3.2,0.1,3.1,0.9c-0.2,1.2-1.6,2.3-1.1,2.6c0.5,0.3,2.3-0.4,3.1-0.2c1.1,0.2,1.7,1.5,2.9,1.4
	c1.2,0,1.8-1.4,3.4-0.9c0.9,0.3,0.2,2,0.2,2.4C108.5,61.2,109,61.9,108.3,63.4z"/>
</svg>
