<?xml version="1.0" encoding="utf-8"?>
<!-- Generator: Adobe Illustrator 19.1.0, SVG Export Plug-In . SVG Version: 6.00 Build 0)  -->
<svg version="1.1" id="Layer_1" xmlns="http://www.w3.org/2000/svg" xmlns:xlink="http://www.w3.org/1999/xlink" x="0px" y="0px"
	 viewBox="0 0 1000 343" style="enable-background:new 0 0 1000 343;" xml:space="preserve">
<style type="text/css">
	.st0{fill:none;stroke:#000000;stroke-miterlimit:10;}
	.st1{fill:#59595A;}
	.st2{font-family:'Lato-Bold';}
	.st3{font-size:16px;}
	.st4{font-size:19px;}
	.st5{fill:none;stroke:#AFAFAF;stroke-width:0.5;stroke-miterlimit:10;}
	.st6{fill:none;stroke:#000000;stroke-width:2;stroke-linecap:round;stroke-miterlimit:10;}
</style>
<g>
	<line class="st0" x1="6" y1="312.5" x2="958.5" y2="312.5"/>
	<g>
		<g>
		</g>
		<g>
		</g>
	</g>
</g>
<g>
	<text transform="matrix(1 0 0 1 6 309.5547)" class="st1 st2 st3">1 000 000</text>
	<text transform="matrix(1 0 0 1 6 166.5547)" class="st1 st2 st3">1 500 000</text>
	<text transform="matrix(1 0 0 1 112.72 335.5547)" class="st1 st2 st4">1991</text>
	<text transform="matrix(1 0 0 1 899.2286 335.5547)" class="st1 st2 st4">2016</text>
	<text transform="matrix(1 0 0 1 6 23.5547)" class="st1 st2 st3">2 000 000</text>
</g>
<g>
	<g>
		<line class="st5" x1="6" y1="312.5" x2="958.5" y2="312.5"/>
		<line class="st5" x1="6" y1="169.5" x2="958.5" y2="169.5"/>
		<line class="st5" x1="6" y1="26.5" x2="958.5" y2="26.5"/>
	</g>
	<g>
	</g>
</g>
<g>
	<g>
	</g>
</g>
<g>
	<g>
		<line class="st0" x1="36.5" y1="-90.5" x2="964.5" y2="-90.5"/>
		<g>
			<g>
			</g>
			<g>
			</g>
		</g>
	</g>
	<g>
		<g>
			<text transform="matrix(1 0 0 1 -74.2808 -80.4453)" style="font-family:'MyriadPro-Regular'; font-size:26.8125px;">1000000</text>
			<text transform="matrix(1 0 0 1 -74.2808 -223.4453)" style="font-family:'MyriadPro-Regular'; font-size:26.8125px;">1500000</text>
			<text transform="matrix(1 0 0 1 -74.2808 -366.4453)" style="font-family:'MyriadPro-Regular'; font-size:26.8125px;">2000000</text>
		</g>
		<line class="st0" x1="36.5" y1="-90.5" x2="36.5" y2="-376.5"/>
		<g>
			<g>
				<line class="st0" x1="36.5" y1="-90.5" x2="964.5" y2="-90.5"/>
				<line class="st0" x1="36.5" y1="-233.5" x2="964.5" y2="-233.5"/>
				<line class="st0" x1="36.5" y1="-376.5" x2="964.5" y2="-376.5"/>
			</g>
			<g>
			</g>
		</g>
	</g>
	<g>
		<g>
			<g>
				<line class="st6" x1="90" y1="-249.2" x2="54.3" y2="-252.9"/>
				<line class="st6" x1="125.7" y1="-236.7" x2="90" y2="-249.2"/>
				<line class="st6" x1="161.4" y1="-226.9" x2="125.7" y2="-236.7"/>
				<line class="st6" x1="197.1" y1="-218.7" x2="161.4" y2="-226.9"/>
				<line class="st6" x1="232.8" y1="-212.1" x2="197.1" y2="-218.7"/>
				<line class="st6" x1="268.5" y1="-206.6" x2="232.8" y2="-212.1"/>
				<line class="st6" x1="304.2" y1="-202.9" x2="268.5" y2="-206.6"/>
				<line class="st6" x1="339.9" y1="-199" x2="304.2" y2="-202.9"/>
				<line class="st6" x1="375.6" y1="-205.3" x2="339.9" y2="-199"/>
				<line class="st6" x1="411.3" y1="-202.8" x2="375.6" y2="-205.3"/>
				<line class="st6" x1="447" y1="-200.2" x2="411.3" y2="-202.8"/>
				<line class="st6" x1="482.7" y1="-197.8" x2="447" y2="-200.2"/>
				<line class="st6" x1="518.3" y1="-195.2" x2="482.7" y2="-197.8"/>
				<line class="st6" x1="554" y1="-193.1" x2="518.3" y2="-195.2"/>
				<line class="st6" x1="589.7" y1="-190.8" x2="554" y2="-193.1"/>
				<line class="st6" x1="625.4" y1="-188.6" x2="589.7" y2="-190.8"/>
				<line class="st6" x1="661.1" y1="-187.3" x2="625.4" y2="-188.6"/>
				<line class="st6" x1="696.8" y1="-186.5" x2="661.1" y2="-187.3"/>
				<line class="st6" x1="732.5" y1="-185.8" x2="696.8" y2="-186.5"/>
				<line class="st6" x1="768.2" y1="-184.8" x2="732.5" y2="-185.8"/>
				<line class="st6" x1="803.9" y1="-183.5" x2="768.2" y2="-184.8"/>
				<line class="st6" x1="839.6" y1="-182.1" x2="803.9" y2="-183.5"/>
				<line class="st6" x1="875.3" y1="-180.8" x2="839.6" y2="-182.1"/>
				<line class="st6" x1="911" y1="-180.1" x2="875.3" y2="-180.8"/>
				<line class="st6" x1="946.7" y1="-180.9" x2="911" y2="-180.1"/>
			</g>
		</g>
	</g>
	<g>
		<g>
		</g>
	</g>
</g>
</svg>
