<!-- Generator: Adobe Illustrator 19.1.0, SVG Export Plug-In  -->
<svg version="1.1"
	 xmlns="http://www.w3.org/2000/svg" xmlns:xlink="http://www.w3.org/1999/xlink" xmlns:a="http://ns.adobe.com/AdobeSVGViewerExtensions/3.0/"
	 x="0px" y="0px" width="104px" height="93.5px" viewBox="0 0 104 93.5"
	 style="overflow:scroll;enable-background:new 0 0 104 93.5;" xml:space="preserve">
<style type="text/css">
	.st0{opacity:0.5;fill:#CA2027;stroke:#FFFFFF;stroke-miterlimit:2.6131;}
</style>
<defs>
</defs>
<path class="st0" d="M3.1,39.4c-0.3,1.5-0.6,3.3-2.1,3.7l-0.1,0.1c1.4,2.9,1.6,5.7,4.7,7.6L6,51.2l0.2,0.2L5.6,53l0.6,1
	c-1,1-0.7,2,1,2l0.4,0.8L7,57.1v0.3v0.2c0.3,0.2,0.9,0.2,1.3,0.3c0.2,0.8,0.2,1.7,0.2,2.5H8.4l1,0.6l-0.1,0.2l-0.2,0.5
	c0.2,0.2,0.4,0.3,0.6,0.6h0.1h0.2l0.1-0.1l0.1-0.1c1.4,0.7,0,3.6-1,2.5L9,64.6H8.6l-0.1,0.1l-0.1,0.5c-0.9,0-1.4-0.7-1.9-0.7
	c-0.5,1.4-0.3,3-0.7,4.7l2.6,2.1l-0.2,1.1c-1.5,0.2-4,2.2-4.9,2.2C3.1,75,3.1,75.4,3,75.8c0,0-1.7,0.1-1.9,1C1,77.2,0.9,78,0.8,78.3
	l0.6,0.1c0,0.2,0.2,1,0.3,1c0.2-0.2,1.6-0.6,1.9-0.6c0.1,0.3,0.3,0.6,0.8,0.7C5,78.9,5.9,78.1,6.9,78c0.8,1.2,1.9,4,0.5,4.9l-1,2.3
	L5.5,87l4.2,3.4c1.4-0.2,3-0.1,4.1-1c1.8-0.7,4.2,1.8,6.4,1.8c2.3,0.3,4.7,0.7,7,0.7c1.7-1.7,3.1-2.3,5.4-2.6l0.2-0.1l0.2-0.2l1.9-6
	h0.2l0.2,0.1c1.4-0.6,3.4-2.6,4.6-3.5c1.4,0.3,2.5,1.7,3.7,2.9c0,0.3-1.2,2-1.4,2.3c0.4,0.4,3.6-1,4.5-1c1.3,0.2,1.7-2.1,2.6-1.6
	c0.5-0.5,1-0.6,1.7-0.6l1.3-3.3c1.3,0.6,2.1,0.9,3.1-0.2c0.6,0.6,2.4,1.8,3,2.1c1.5,0.7,1.4-0.2,2.9-0.2c0.2,0.2,0.2,0.6,0.5,0.9
	c0.6-0.3,1.4-1.3,1.8-1.9l0.4,0.3l2.4-2l1.4,2.5c0.8-0.1,1.8-0.2,2.6,0c1.7,1.7-0.2,6.9-0.2,8.6c0.6,0.9,1.1,3,1.5,4.1l0.4-0.3
	l1-0.4l0.1-0.3l0.9-2.5c2.1,0,0.6-1.4,1.8-2.6c0.7-0.7,1-1.4,2.1-1.2l0.1-0.2c0.6-0.1,1-0.2,1.5-0.5c0-0.2,0.6-0.8,0.6-0.9l0.2-0.1
	c0.1,0,0.2,0.4,0.2,0.4l0.1,0.1c0,0.6,2,0.2,2.1-0.6c0.1-0.2,0.2-0.6,0.2-0.9c0.2-0.2,0.1-0.2,0.4-0.2l0.1-0.1v-0.2
	c0-1.1,0.5-1,1.2-0.7l0.1,0.1l0.1,0.2c0.7,0.7-0.1,1.1,1.5,1.1l0.2,0.1c1.7-1.1,3,0.1,4.7,0.1c0.6-1.1,2.6-0.9,3.8-0.7
	c0.2-0.5,0.2-1.5,0.3-2.1c0-0.2,0.1-1.3,0.1-1.4c0.6-0.2,0.7-2.2,0.7-2.9l1.2-0.8c-0.4-1.2-2.9-4.5-2.9-5.4l0.8-1.2l1,0.3l0.2-0.3
	c0.2,0,0.5-0.1,0.6-0.1c0.2-0.2,0.6-0.5,1-0.6c0-0.4,0.2-1.2,0.2-1.5c0-0.1,1.3-1.4,1.4-1.8l-0.4-0.7c0.2-0.6,0.6-1,0.2-1.4l1.2-1.6
	l-0.1-0.3l-0.1-0.1l0.2-0.2c0.1-0.1,0.2-0.3,0.3-0.5c0,0-0.7-1.5-0.7-1.6c-0.2-0.2-0.5-0.4-0.8-0.2h-0.1h-0.2
	c-0.5,0-1.7-1.7-1.7-2.1c-0.2-0.2-0.2-0.5-0.3-0.6c0-0.2,0.2-0.4,0.2-0.6l0.3,0.1c0.6-2.4,0.3-3.3,2.9-4.1c1.2-1,2.1-0.8,2.4-2.5
	c0.7-4,0.4-4.3-1.4-6.8l-0.4-1l1.4-2.6c-1-0.3-1.2-1.7-2.4-2.1l-0.6-0.4L99.4,35l-0.2-0.4l-0.1-1c-1.2,0-2.4,0-3.5-0.3l-0.2-0.9
	c0.2-0.1,0.3-0.3,0.3-0.6l-0.2-0.2c-2,0.5-2.5-0.6-2.9-2.1c1.9-0.5,0.3-2.6,0-4.3c0.8-0.2,1.8-1.6,0.6-2.1l-0.8,0.6
	c-0.4-0.3-0.9-0.7-1.2-1l-1.6,0.4L88.9,22l-0.2-0.3l-0.9,0.9v0.2c-4.1-0.6-5.1-2-7.2-5.5c-1.8-1.3-4.1-1.4-5.8-2.8
	c-1.3-0.6-2.9-2.1-3.7-3.1l0.4-0.6l-0.9-1.4l-1.4-0.3c-0.2-2.9,0.5-5.5,0.5-8l-0.1-0.3c-1,0.4-2.5,1-3.5,0.6
	c-1.8-0.8-2.1,0.9-3.7,0.9c-1.4,0.1-4.7,0.3-2.1,2.2c-0.2,0.1-0.6,0.1-0.9,0.2c-0.1,0.2,0.2,0.8,0.2,1l-0.2,0.2l-1-0.2v-1l-1.3-0.8
	l-0.6,0.6c-0.8-0.8-1.7-1.5-2.5-2.3c-0.6,1.4-1.1,1-2.2,0.6l-1.6,0.6l-0.5-1c-0.7,1.1-1,0.6-2.1,0.6l-0.3,1.1h-0.6l-0.2-0.2
	C45.2,7.7,45,7,41.7,7c1.5,2.2-0.2,3.3-0.5,5.4c0.2,0.9,1.3,2,1.3,2.7c-0.4,0.4-2.6-0.8-3,1.2c0.3,0.6,2.1,1.7,2.9,1.9
	c0.4,1.3-0.1,3.7-1,4.3c-2.9-1-5.4-1.6-8.4-0.4c-1.6,1.2-5,1.1-7.1,1.4c-0.1,0.2-0.2,0.6-0.6,0.8c-0.2-0.1-1-0.4-1.1-0.4
	c-0.6,1.4-1.3,1.3-0.5,3.4c0.2,0.6,0.6,1,1,1.4c-2,0.6-3.1,1.5-4.3,3.4L20,31.8l-0.8,0.3l0.2,1.3c-0.2,0.3-0.6,0.7-0.8,1l0.2,0.2
	l0.3,0.2c0,0.6,0.3,1.1,0.3,1.7c-0.2,0-0.7-0.2-0.8-0.2L18.6,36l-0.7-0.3l-0.2-0.9c-0.1,0-0.9-0.2-1-0.2l-1,1.7
	c-1.2-0.6-3.5-2.4-4.2-3.5l-2.5,1.8c0-0.1-1-1.1-1-1.2c-0.5,0.1-0.5,0.5-0.5,1c0.2,1.7-1.7,3.2-3.1,3.8c0.2,0.6,0.3,1,0,1.3
	C4,39.4,3.2,39.4,3.1,39.4L3.1,39.4z"/>
</svg>
