<!-- Generator: Adobe Illustrator 19.1.0, SVG Export Plug-In  -->
<svg version="1.1"
	 xmlns="http://www.w3.org/2000/svg" xmlns:xlink="http://www.w3.org/1999/xlink" xmlns:a="http://ns.adobe.com/AdobeSVGViewerExtensions/3.0/"
	 x="0px" y="0px" width="88.4px" height="98.1px" viewBox="0 0 88.4 98.1"
	 style="overflow:scroll;enable-background:new 0 0 88.4 98.1;" xml:space="preserve">
<style type="text/css">
	.st0{opacity:0.5;fill-rule:evenodd;clip-rule:evenodd;fill:#CA2027;stroke:#FFFFFF;stroke-miterlimit:2.6131;}
</style>
<defs>
</defs>
<path class="st0" d="M87.6,8c-1,2.7-2.2,6.4-3.5,9c1,0.9,1.3,0.9,1.3,2.3c1.2,3.5,1.6,4.9-0.9,8.3l1.1,2.3l-0.2,0.1
	c-0.2,1-0.2,2.6,0.1,3.6l-1,0.6l0.2,0.9l-1.1,0.7l-0.1-0.1l-0.2-0.1c-0.2,0-2.4,0.6-2.5,0.7c-0.4-0.1-1.2-0.5-1.6-0.7l-1.3,0.8v1.4
	c0,0-0.9,0.1-1,0.1c-0.2-0.4-2.2,0-2.5,0.3l-0.4,0.2v0.4c-0.1,0-1-0.2-1.2-0.2c-0.3,0.2-1-0.3-1.4-0.4l-0.9,2l1.6,0.9
	c0,1,0.2,1.8,0.4,2.6c-1.3,1.7-2.2,2.1-2.4,4.3c-0.5,0.2-0.7,0.6-1.1,1c1.2,0.3,2.8,0.8,4,1c0,1,0.6,1.3,1,1.8L73.7,52
	c-2.5,0.6-1.1,2.1-1.1,3.8l0.5,0.2c0.3,1,1,3.3-0.6,3.7v0.3h0.5l0.2,0.8c1.6,0.5,1,1.5,1.4,2.3h1l0.1-0.6l0.8,0.2l1.8-0.7
	c2.3,1.2,1,0.9,1.7,2.8c-0.3,0-0.7,0.2-1,0.2l0.3,3.3c-1.3,0.3-4.5,0.9-2.5,2.9c0.6,0.8,0.9,2.2,1.2,3.2h0.5l0.3-0.5h0.4
	c0.2,0.5,0.2,1,0.5,1.4c0.9,0,1,1.3,1.4,1.9c-1.8,2.2-4.2,4.5-5.3,7.2l4.9,3.3c-0.6,1.3-1.8,3-1.8,4.4c-0.8,0-1.6,0.7-2.2,1.3
	c0.7,0.5,2,0.2,2.8,0.5c0.3,1-1,2.2-1.5,2.8c-1,0-2.8,0.6-3.2,0.6c-1.9,0.3-3.1-0.3-4.9-0.9c-1.8-0.6-2.2-0.9-3.1,0.6
	c0-1-1-1.4-1.8-1.4c0.5-1.7-2-0.5-2.5-1.2c-0.4-0.6-0.8-1.2-1.2-1.7c-0.2-0.3-1.7-2.4-1.7-2.5c-0.1,0-0.5-2-1-2.4
	c0.9-1-0.4-1.8-0.9-2.5c1-0.1,0.9-1.4-0.1-1.4c-1.3,0-1.5-1.3-1.7-2.2c-0.2-1.4-0.6-1.1-1.5-1.8c-0.3-0.2-1.3,0-1.1-0.7
	c0.4-1.2,0.7-2.4,1.1-3.6c0.9-3-5.7-1.9-5.7-4.3c0-2.6-2-2.2-4.1-3.5c-1.4-0.9-2.2,0.5-3.1,0c-0.7-0.4-1-1.5-1.9-1.1
	c-1.6,0.8-0.6-2.3-0.5-3.3c0.3-2.2,1-4.5,1.7-6.6c0.7-2.1,0.1-5.3-2.6-2.7c-0.4-0.7-0.8-1.3-1.2-2c-0.9,0.6-2.5,2.1-3.6,2.2
	c-1,0.1-2.1-1.4-3.2-1.1c-1.6,0.3-4.1,0.3-4.4-1.9c-4,3.6-6.4-1.9-7.8-5.2c-0.5-1,0.3-1.3-1-2.1c-0.8-0.5-1.8-0.2-2.6-0.9
	c-1.8-1.8-2.3,2.5-4.1,2.5c-1.6,0-0.7-0.7-1.6-1.3C7.7,44,7.1,44.9,6.1,44c-0.8-0.8-0.2-2.4-1.5-2.7c-1.4-0.3-2.7-1.1-4-1.7
	c0.3-1,0.8-2.5,0.8-3.6c1.4,0,2.2-4.8,3.3-6c0.6-1.9-4.2-5.7,0.6-5.7c0.6-0.5,0.9-0.4,1.5-0.4c1.7,1,1.8-1.2,3.3,1.8l1.8-2.1
	l0.4-0.2l0.4-1c1.2-0.4,1.8-2.1,2.2-3.1l-0.2-0.4l-0.3-0.5c1.1-0.6,3.5-0.6,4.1-1.5l0.3,0.2c0.2-0.3,0.5-1,0.6-1.3
	c0.2,0,0.6,0.2,0.7,0.3h0.2c0.4-0.6,0.7-1,1.2-1.4c0.5-1.7,0-2.9-0.1-4.7h1.4l0.1-0.8l0.8-0.3L24,7.3l-0.5-0.2V6.7l-0.4,0.1L23,6.4
	l0.4-0.3c4.5-1.1,5.3,4.6,6.3,7.3c1.1,0.1,2.8,0.5,3.9,0.1l0.5-1.8c0.8,0,2.2,0,2.9-0.1c0.2-0.3,0.2-1.1,0.6-1.5
	c0.7-0.2,2-0.2,2.9-0.3c-0.2,0.7,0.1,0.7,0.2,1.1l0.2,0.2l0.2,0.1c0,0.3-0.2,0.6,0,0.7v0.2l0.1,0.1v0.5c0,0.2,0,0.8,0.2,0.8h0.2
	l0.2-0.2h0.1c0-0.6,0.4-1.8,0.4-2.2c0-0.2,0.1-0.3,0.1-0.5V9.9l0.2-0.1L43,9.9h0.6c0.5,0.6,1.4-0.3,2,0.7l0.2-0.5l0.2-0.6
	c0.6,0.3,1.8,0.2,2.2-0.4l0.3,1.3c0.6-0.3,1.8-0.5,2.3,0c2.3,0,5.5,0.4,7.9,0.9L60,7.4l2-0.2L63.9,7L67,0.7l3.1,1.4
	c0.2,1.2,0,3,0.4,3.8l0.2-0.2l0.1-0.2L71,5.4l0.2,0.4l0.1,0.4c1-0.4,2.8-1.1,3.1-2.2c1.9-0.5,1,0.2,2.5-1.8c0.5-0.6,3.2-1,4-0.6
	C83,1.9,83,3.2,83.2,4.5c0.6-0.1,3.5,0.9,3.7,1.3l-0.1,0.3v0.3l-0.2,0.2c0.1,0.4,0.2,0.9,0.2,1.3L88,7.7l0.2,0.1L87.6,8z"/>
</svg>
