<!-- Generator: Adobe Illustrator 19.1.0, SVG Export Plug-In  -->
<svg version="1.1"
	 xmlns="http://www.w3.org/2000/svg" xmlns:xlink="http://www.w3.org/1999/xlink" xmlns:a="http://ns.adobe.com/AdobeSVGViewerExtensions/3.0/"
	 x="0px" y="0px" width="103px" height="119.7px" viewBox="0 0 103 119.7"
	 style="overflow:scroll;enable-background:new 0 0 103 119.7;" xml:space="preserve">
<style type="text/css">
	.st0{opacity:0.5;fill:#CA2027;stroke:#FFFFFF;stroke-miterlimit:2.6131;}
</style>
<defs>
</defs>
<path class="st0" d="M102.4,46.1c0.7-1.5-2.7-6-2.1-7.8l-0.2-0.2L100,38c0-0.1-0.2-0.8-0.1-1.2l-0.2-0.2l-0.2,0.1c0-1-4.8-4.5-5.6-5
	l-0.7,0.5c-3.3-3.1-5-4-5-9.3h-0.2l-1.8,1.4L86,24v-0.1c-0.4-0.8-1.6-0.7-2.2-1.4c-0.2-0.7-0.7-2.1-1-2.8l0.2-0.2h0.2l0.1-0.1
	c0-0.5-0.2-2-0.4-2.2c-2.7-0.5-5.9-2.5-8.7-2.4c-2.1,1.2-6.8,1.1-9.1,0.2c-0.6-0.9,3.7-3.5,4.4-4c-1.2-1.9-0.1-2.5-2.2-3.7
	c-0.2-2,0.6-5,0.2-6.7L66.6,1v0.4v0.3l-0.2,0.2l-0.4-0.1h-0.3c-0.5,0.6-1.9,3.4-3,1c-0.6,0.3-1.2,0.6-1.2,1.5L59.1,5l-2.5,0.6
	L56.8,6v0.1c-1,4.8-4.1,1.1-6,4.9c-0.7,0-2-0.6-2.8-0.3c-0.1,0.9,0.2,1.1-0.4,1.8c-1.3,0-1.4,0.1-1.8-1c-1.2-0.2-2.1,2.7-4.1,2.4
	c-0.2,0.8-0.4,1-0.9,1.6l-5.3-0.5l-0.1,0.2c-1.6,0.6-4.1,1.1-4.5-1.1c-0.6,0-2.4,0.2-2.9,0.4c-0.7,0.2-2.8-2-4.1-1.1v-0.2v-0.2h-0.2
	l-0.2,0.2c-0.3-0.2-0.5-0.8-0.7-1c-0.5,0.9-2.9,4.1-2.5,4.9l0.3,0.1h0.4c-0.7,1.8,1.3,2.9,1.3,4.8c-1.3,0-2.9,0.1-4.1,0.5
	c-0.9,1.4-1.7,5.2-3.3,6.2c-0.2-0.2-0.2-0.6-0.4-1l-0.3,0.1c-0.6,2.5-4,3-5.9,3.3c-0.7,2.9-9.5,3.6-4.9,9.5c2.9,2.9-1.3,3.8-1.3,5.1
	C1,47,1.5,48.1,1.5,49.9c0.6,4.3-1.9,8.3-0.6,12.3c1.2,0,4.6-2,5-1.8c4.6,3.1,9.2-0.1,11.1,6c1.1,1.7,3.9,1.3,5.5,2.1
	c3.7-0.7,1.8,3.1,2.1,4.8c-0.3,0.2-1.1,1-1.4,1.2v0.2h0.1c0.3,0.1,0.6,0.2,1.1,0.1c0.2,1,0.9,3.2-0.6,3.5c-0.3,0.5-0.2,1.4,0.5,1.7
	c0,0.7-0.6,1.2-0.2,2.2l-0.6,0.6c-0.2-0.2-0.5-0.5-0.7-0.6l0.6-1l-1.2-0.6c-1,0.6-1.1,1.3-2.5,1.8L19.4,82l-1.3,0.3L17.8,82
	l-1.3,0.2L16,83.7l1.1,0.2l-0.1,0.6c-1.8,0.4-2.9,3.6-1,3.6c0,1.4-0.5,2.1-1.7,2.3c0.6-2.2,0.3-2.4-0.4-4.3c-1.1,0-0.8,1.6-1,2.4
	l0.2,0.3l0.5,0.6l-0.2,0.3h-0.6l-0.5,0.2l-0.1,0.4l-0.2,0.6l0.2,0.4l0.5,0.1l0.2,0.2l-0.3,0.2c0.2,0.3,0.6,0.7,0.9,1l0.8-0.6
	c0.7,1.1,0.6,2.5-0.1,3.7l-0.2-0.2L14,95.2c-1,0.5-1.1,0.1-1.5-0.7c-0.6,0-2.1,0.2-2.7,0.2l-0.1,0.6l-1.4,0.2c0,0.7,0.6,1.1,0.7,1.8
	c-0.9,1.1-2.4,1.6-3.6,2.1l-0.4,2.5l1.5,0.7c0,1.1-0.1,4.1,0.8,4.6l0,0c0.4-0.7,0.9-1.4,1.4-2.1c1-1.4,0.9-1.6,2.7-1.4
	c0.9,0.1,0.2-1.8,0.9-1.9c1.6-0.2,2-0.5,3.7,0.2c2.4,0.9,2.5-0.6,3.8-1.6c1.7-1.4,0.9,2.7,0.9,3c0,0.7,0.7,2.4,0.8,3.2
	c0.4,1.7,0.6,2.9,2.2,3.9c-0.5,0.2-0.7,0.5-0.8,0.8c0,0,0.3,1.6,1,1.9s0.9,0.4,0.9,0.4s1.1,2.3,2.6,1.5s1.3-2.3,1.3-2.3
	c0.2-1.6,0.7-3.6,0.2-4.8c-0.7-2-1.3-1.6-2.6-2.9c-0.6-0.6-1.4-1.2-0.6-2c0.7-0.7,1.9-3.4,2.8-2.1c1,1.5,2.2,3.9,3.6,4.9
	c2.2,1.6,1.8,3.3,4.9,3c2.2-0.2,4.3,2.1,5.6,3.7c-2.6,1.3-1.8,1.2-0.4,2.5c0.5,0.4,1,0.9,1.4,1.4l0.8,0.7l1.4-0.1
	c0.5-0.2,1.1-0.4,1.4-0.5c0.1,0.3,0.1,0.6,0,0.9c0.2,0.6-0.1,0.8-0.8,0.8c0.9,0.9,3.2-0.2,3.2-0.2c1-0.2,2.1-0.4,2.8,0.1
	c0.4,0.3,0.7,0.5,0.9,0.8l0.4,0.1c0-0.2,3.2-6.1,3.3-6.3c0.6-1.9-4.2-5.6,0.6-5.6c1.4-1.4,4.2,0.2,4.9,1.4l1.8-2.1l0.4-0.2
	c0.6-1.4,2-2.3,2.6-4.1l-0.2-0.4l-0.3-0.5c1.1-0.6,3.5-0.6,4.1-1.5l0.3,0.2c0.2-0.3,0.5-1,0.6-1.4c0.6,0,0.6,0.3,1,0.3
	c1.9-2.6,1.2-2.9,1.1-6.1h1.4l0.1-0.8l0.8-0.3l0.1-1.8l-0.5-0.2v-0.5l-0.4,0.1L75.7,89c4.1-3.3,6,5.3,6.7,7c1,0.1,2.9,0.4,3.9,0.1
	l0.5-1.7c0.8,0,2.2,0,2.9-0.1c0.2-0.3,0.3-1.3,0.6-1.5c0.9-0.2,2-0.2,2.9-0.3l0.1-0.1c0-1.2-1.7-2.8-1.1-3.3v-0.2h0.1
	c0,0,0.3-0.3,0.4-0.3l-0.1-0.1c0-0.3-0.1-0.8-0.1-1c-0.1,0-1.1,0.5-1.1,0l-0.1-0.1l-0.1-0.1c-0.8-0.8,0.4-3.1,0.1-3.8l0.1-0.1
	l0.2-0.1v-0.2h-0.2c0-0.1-0.9-1.5-0.9-1.6l-0.5-0.4v0.2l-0.1,0.2c-0.2,0-0.3-0.6-0.3-0.6c-0.2,0.1-0.2,0.6-0.6,0.6
	c-0.9,0-1.7-2.1-1.7-2.8c1.2,0-0.4-1.1-0.4-1.2s-1.3-3.4-0.6-3.4c0.3,0,0.4-0.1,0.5-0.3c-0.1-0.3-2.1-2.3-2.6-2.5
	c0-0.4-0.2-0.9-0.5-1l-0.2-0.2v-0.1c0-0.2-0.4-1-0.6-1.2c-0.2-0.4-4.1-5-2.9-6.2c-1-2.1,0.6-2.1,1-3.4l-0.1-0.1l-0.1-0.2l0.1-0.2
	v-0.1c0.2-0.1,0.8-0.3,0.8-0.3l0.1,0.1H82c0.1-0.2,0.7-1.2,0.8-1.2c2.1,0,0.9-2.3,1.3-2.7c0.2-0.2,0-1-0.1-1.1
	c0.5-0.5-0.2-1.5,0.5-1.8c0-0.1-0.7-4.2,0.6-2.9h0.2v-0.2l-0.2-0.1L85,48.1c0-1.8,1.8,0,2.9-1c0.3,0,0.6-0.1,0.9-0.2
	c0.1,0.1,1.4-0.2,1.4-0.5l0.1-0.1l0.1-0.1h0.2l0.1-0.1h0.2l0.1,0.2c2.2,0,6.4,2,7.5,3.8c0.1-0.2,0.8-0.5,1-0.6
	c0-1.4,0.6-1.4,0.8-2.7C101.2,46.8,100.7,45.8,102.4,46.1z"/>
</svg>
