<!-- Generator: Adobe Illustrator 19.1.0, SVG Export Plug-In  -->
<svg version="1.1"
	 xmlns="http://www.w3.org/2000/svg" xmlns:xlink="http://www.w3.org/1999/xlink" xmlns:a="http://ns.adobe.com/AdobeSVGViewerExtensions/3.0/"
	 x="0px" y="0px" width="103px" height="75.5px" viewBox="0 0 103 75.5"
	 style="overflow:scroll;enable-background:new 0 0 103 75.5;" xml:space="preserve">
<style type="text/css">
	.st0{opacity:0.5;fill-rule:evenodd;clip-rule:evenodd;fill:#CA2027;stroke:#FFFFFF;stroke-miterlimit:2.6131;}
</style>
<defs>
</defs>
<path class="st0" d="M102.6,34.9c-1.4,0.7-2,2-1.7,3.6c-0.8-0.2-1.9,1-2,0.9c-0.4-0.5-0.7-1.7-0.5-2.4c-1.1,0.2-1.2,1-2,1.4
	c-1.2,0.6-0.3,0.5-1.7-0.2c-1.4-0.7-1.3,3.2-3,2.6c0,0.8-1.4,3.6-2.1,3.5c-1.6-0.2-0.6,2.9-0.6,3.3c0,0.2,0,1.7,0.2,2.1
	c0.4,0.7,1.6,1,1.7,1.5c0.6,2.1-1.8,2.5,0.6,3.4c-0.7,0.5-1.6,1.1-1.8,2c-0.3,1-1.3-0.1-1.9,0.3c-1.4,1-3.3,3.1-3.1,4.8
	c0.1,1.1,1.2,2.3,1.5,3.4c0.6,1.7,0.5,3.3,1.7,4.8c-2.6,0.4-4.2-1.5-6-2.6c-0.5-0.3-1.2-0.7-2-1.1c-0.6-0.4-0.4-0.4-1-0.7
	c-0.5-0.2-1.6-0.2-2.2-0.3c-1.4-0.2-3,0.9-4.2-0.3c-1.1-1.1-3.9-0.6-5.3-0.7c-1.3-0.1-2.3-2.2-3.6-2.4c-1-0.2-2.8-0.3-3.6-0.8
	c-0.6-0.3,0.8-2.1-0.5-3c-0.5-0.4-1.2-0.2-1.8-0.2c-1.1,0.1-0.9,0.2-2-0.7c-1.3-1.1-1.4,0.5-2.3,0.9c-0.4,0.2-2.8,0.9-2.2-0.5
	c0.6-1.4,0.2-2-1-2.9c-1.5-1.1-1.3-0.9-2.8,0.2c-1.1,0.9-2.7,1.6-3.1,3c-0.4,1.2,0.4,2.8-0.9,3.3c-0.3,0-1.3,1.3-2.2,1.4
	c-1.3,0.1-2.5,0-4,0.1c1.4,0.5,0.7,1.1,0.3,2.1c-0.4,1.2-0.9,1.2-2.1,0.7c3.1-2.8-1-1.8-1.4-3.9c-0.4,0.3-0.8,0.7-1,1.2
	c1.5,0.5,0.6,2.4-0.5,1.5c-1.2,1.5-3.2,0.1-4.7,1.6c0.3,0.2,0.7,0.6,1.1,0.8c-1.6,1.3-2.6,0.7-4,2.5c-1.5,2-0.8,3-1.2,5.4
	c-0.5-0.3-2.5-0.6-2.3-1.5c0.2-0.7-0.1-2.9-0.7-3.3c-0.6,1-2.1,1.9-1.9,3.1c0.2,1.5-0.5,1.1-1.4,1.2c-2.7,0.2-4.2-1.8-4.7-3.9
	c-0.4-2-1.2-3.7-2-5.5c0,0,0-0.1-0.1-0.1c0.6-0.7,1.3-1.9,0.9-2.9C11,61.6,9.6,61.8,9,61.4c0.4-0.4,1.4-1.3,2.2-1.3
	c0-1,1.3-3.3,1.8-4.4L8,52.4c0.9-2.4,3.6-5.3,5.3-7.2c-0.3-0.5-0.5-1.5-0.9-1.9c-1,0-0.8-0.9-1-1.4h-0.4l-0.3,0.5h-0.5
	c-0.3-1.1-0.5-2.2-1.2-3.2c-1.9-1.9,1.2-2.5,2.5-2.9l-0.3-3.3l1-0.2c-0.6-2,0.7-1.5-1.7-2.8l-1.8,0.7l-0.8-0.2l-0.1,0.6h-1
	c-0.4-0.8,0.3-1.8-1.3-2.3l-0.2-0.8H4.7v-0.3c1.8-0.6,0.9-2.6,0.6-3.7l-0.5-0.2c0-0.8-0.3-1.9-0.5-2.7c0.2-0.2,1.3-1,1.6-1.1
	l0.2-0.4c-0.4-0.5-1-0.9-1-1.7c-1.3-0.2-2.9-0.7-4.1-1c0.4-0.3,0.7-0.7,1.1-1c0.2-2,1.3-2.9,2.4-4.3c-0.2-0.8-0.4-1.8-0.4-2.6
	L2.6,7.9l0.9-2c0.4,0.1,1,0.5,1.2,0.5c0.2-0.1,1.1,0,1.4,0V6l0.4-0.1l0.1-0.1c0.3-0.1,1.9-0.5,2.2-0.5L9,5.6c0.4-0.1,0.7,0,1-0.1V4
	l1.3-0.8c0.4,0.2,1.2,0.6,1.6,0.7l0.4-0.4h0.3c1,0.5,1.5-0.8,2.2-0.2l1.1-0.7l0.7,0.1c0.1,0.2,0.4,0.6,0.5,0.6
	c-0.1,0.4-0.2,0.9,0,1.3l0.2,0.2l1.5-0.2c0.1,0.7,0.9,0.6,0.9,1.1l0.5,0.1l0.3,0.1c0.5,0.8,1.9,0.9,2.6,0.2l0.3,0.5
	c0.5-0.1,3.3-1.3,3.5-1.1l0.2,0.2l1.3-1.2c1.4,1.4,2.7,1.7,4.3,2.7c0.5-0.3,1-0.8,1.5-1c1,0.5,0.6,0.2,1.4-0.2L37,6.2l0.2,0.1
	c0.2,1,1.1,1.8,2.1,1.4c1-1,1.6-1,3-1c1,0,2.3-0.9,3.2-0.8C45.6,6,45.8,6.8,45.8,7C46,7,47.9,6.1,48,6c1.4-0.2,2.1-2.5,3.2-2.1
	c0.3,0.7,0.7,1.9,1,2.6l0.5-0.1c0.3,0.4,0.6,0.9,1,1c0.1-0.2,0.4-0.7,0.6-0.7c1.4,1.9,2.1,1,4.5,1c0.3,0.4,2.2,1,2.8,0.8
	c0.1-0.3-0.1-0.8-0.3-1c-1.5-0.2-1-1.7-1.8-2.5c0-3.7,2.9-2.1,4-4.3l0.4-0.1l0.2,0.2c0,0.1-0.1,0.2-0.2,0.5c0.1,0.2,0.5,0.4,0.9,0.6
	l0.2,0.2c0.5-0.1,0.8-0.3,1.2-0.4c0.5,0.9,0.9,1.6,2,1.8L68.1,5l1.7-0.4l0.9,1.1L72,5.6c0.6,0.7,2.5,2.9,3.7,2.2
	c1.4-0.7,2.5,1.1,4.1,1.1c0.2-0.9-0.2-2,0.5-2.7h0.3c0,0.8,0.4,1.5,0.6,2.2c0.6,0.2,1,0,1.5-0.2c1.5,1.1-0.1,1.7-0.2,3
	c-0.7,0.2-1,0.6-1.4,1.3l-0.6,0.1c-1.6,0.2-2.1,4-2.1,5.4c0.8,0,3-0.1,3.3,0.8c0.9,0.5,1.7,1,1.9,2c0.8,0.2,1.8,0.8,2.7,0.6
	c0.1-0.5,0-0.7,0.2-1.2l0.3,0.1l0.2-0.1l0.2-0.5l-0.2-0.4l0.3-0.1l0.1-0.1l0.1-0.4c0.1,0.3,0.2,0.5,0.6,0.5c0.6-0.7,1-1,2-1
	c0.1-0.2,0.4-0.3,0.6-0.5c0.9,0.2,1.5,0.1,2.5,0.1c0.2,0.2,0.7,0.3,1,0.6l0.3-0.1l0.3,0.2l0.1,0.1l0.5,0.2h0.2v-0.2l0.1-0.2
	c0.3,0,1.3,0.2,1.5,0.4c0.3,0,0.7,0.2,1,0.2l0.2,0.2h0.1l0.2-0.2l0.2-0.1l0.2,0.2l0.3,0.2c0.6-0.3,1.7,0,2.2-0.6h0.2l0.2-0.1L102,19
	h0.3c0,0.1,0,0.2,0,0.3c0.1,0.4,0.4,1-0.5,2c0.3,0.1,0.6,0.4,0.9,0.5c-0.3,0-0.7,0.1-1.1,0.1c-0.6,1,0.1,2.2-0.3,3.3
	c-0.6,1.3-2.6-0.2-3.2,0.7c-0.5,0.6,1.6,1.5,1.3,2.4c-0.6,1.9,0.6,1.7,1.6,3c-0.8,0.1-0.7,0.4-1.2,0.8
	C102.3,31.8,100.5,34.4,102.6,34.9z"/>
</svg>
