<!-- Generator: Adobe Illustrator 19.1.0, SVG Export Plug-In  -->
<svg version="1.1"
	 xmlns="http://www.w3.org/2000/svg" xmlns:xlink="http://www.w3.org/1999/xlink" xmlns:a="http://ns.adobe.com/AdobeSVGViewerExtensions/3.0/"
	 x="0px" y="0px" width="90.3px" height="181.8px" viewBox="0 0 90.3 181.8"
	 style="overflow:scroll;enable-background:new 0 0 90.3 181.8;" xml:space="preserve">
<style type="text/css">
	.st0{fill:#312D2A;}
	.st1{fill:#FDFDFE;}
</style>
<defs>
</defs>
<g>
	<g>
		<g>
			<path class="st0" d="M55.2,40.9l-33.1,0c-2.7,0-5.1,1.7-5.9,4.3c-5,15.4-10.7,35.9-15.7,53c-3.3,9.5,10.3,13.3,13.2,4.4
				l11.5-41.9c0,0,1,32.7,1,32.7l-11.8,55.9l14.1-0.1l0,27.4c0,2.8,2.2,5,5,5l4.9,0.1c2.5,0,4.6-2.1,4.6-4.6l0-27.9h6.3l0,28.4
				c0,2.3,1.8,4.1,4.1,4.1H59c2.5,0,4.5-2,4.5-4.5l-0.1-27.9h11.4L64.2,93.4c0,0,1.8-32.9,1.8-32.9l11.4,43.2
				c3.1,7.4,15.3,3.5,12.5-4.5L75.1,45.5c-0.9-2.9-3.9-4.6-6.9-4.6L55.2,40.9z"/>
			<circle class="st0" cx="44.9" cy="16.9" r="16.9"/>
		</g>
		<polygon class="st0" points="24.3,33.8 28.4,13.3 61.5,13.8 67.2,33.8 		"/>
	</g>
	<path class="st1" d="M38.7,33.8C35.1,30.2,35.9,19,35.9,19s9.7,0.5,14.9-9.4c0,0-0.3,4.7,4.3,8.3c0,0,1.3,12.7-3.2,15.9
		S42.2,37.5,38.7,33.8z"/>
</g>
</svg>
