<!-- Generator: Adobe Illustrator 22.1.0, SVG Export Plug-In  -->
<svg version="1.1"
	 xmlns="http://www.w3.org/2000/svg" xmlns:xlink="http://www.w3.org/1999/xlink" xmlns:a="http://ns.adobe.com/AdobeSVGViewerExtensions/3.0/"
	 x="0px" y="0px" width="42.2px" height="42.2px" viewBox="0 0 42.2 42.2" style="enable-background:new 0 0 42.2 42.2;"
	 xml:space="preserve">
<style type="text/css">
	.st0{fill:#5B897B;}
	.st1{fill:#FFFFFF;}
</style>
<defs>
</defs>
<circle class="st0" cx="21.1" cy="21.1" r="21.1"/>
<polygon class="st1" points="5.8,21.8 6,22.9 4.7,24.9 7.7,26.3 8.4,27.7 7.8,29 6.8,28.8 7.3,29.6 6.7,31.1 8.7,31.4 10.6,32.3 
	16.2,31.9 17.5,29.7 20,31.5 23.6,31.6 25.6,32.3 26.4,31.4 25.7,30.1 25.9,27.5 27.9,26.8 29.8,24.2 28.3,20.1 31.9,19.4 
	32.9,16.7 35.2,17.2 36.2,14.6 38.6,14.3 36.2,11.4 34.3,10 33,11.3 31.5,12.8 28.4,11.3 25.6,12.4 21.8,12.4 16.2,16.7 6.1,14.8 
	3.7,19.5 "/>
</svg>
