<!-- Generator: Adobe Illustrator 22.0.1, SVG Export Plug-In  -->
<svg version="1.1"
	 xmlns="http://www.w3.org/2000/svg" xmlns:xlink="http://www.w3.org/1999/xlink" xmlns:a="http://ns.adobe.com/AdobeSVGViewerExtensions/3.0/"
	 x="0px" y="0px" width="24.4px" height="97.5px" viewBox="0 0 24.4 97.5" style="enable-background:new 0 0 24.4 97.5;"
	 xml:space="preserve">
<style type="text/css">
	.st0{fill:#BC6423;}
	.st1{fill:#CC6D26;}
	.st2{fill:#635144;}
	.st3{fill:#29211C;}
	.st4{fill:#757575;}
	.st5{fill:#A8A8A7;}
	.st6{fill:#9B9B9B;}
	.st7{fill:#C9C9C8;}
</style>
<defs>
</defs>
<g>
	<g>
		<g>
			<g>
				<g>
					<g>
						<rect y="2.8" class="st0" width="24.4" height="5.5"/>
					</g>
					<g>
						<path class="st1" d="M4.4,3.5c0,0,0.5-0.1,1-0.1c0.2,0,0.5,0,0.7,0c0.2,0,0.3,0.1,0.3,0.1s-0.5,0-1,0C4.9,3.5,4.4,3.5,4.4,3.5
							L4.4,3.5z"/>
					</g>
					<g>
						<path class="st1" d="M15.9,6c0,0-0.1,0-0.3,0c-0.2,0-0.4,0-0.7,0c-0.2,0-0.5,0-0.7-0.1c-0.2,0-0.3-0.1-0.3-0.1s0.5,0,1,0
							c0.2,0,0.5,0,0.7,0C15.7,5.9,15.9,6,15.9,6L15.9,6z"/>
					</g>
					<g>
						<path class="st1" d="M17.6,7.5c0,0-0.3,0-0.7,0.1c-0.4,0-1,0-1.6,0c-0.6,0-1.2-0.1-1.6-0.1c-0.4-0.1-0.7-0.1-0.7-0.1
							s0.1,0,0.2,0c0.1,0,0.3,0,0.5,0c0.4,0,1,0,1.6,0c0.6,0,1.2,0.1,1.6,0.1C17.3,7.5,17.6,7.5,17.6,7.5L17.6,7.5z"/>
					</g>
					<g>
						<path class="st1" d="M22.4,2.8c-0.3,0.1-0.5,0.1-0.8,0.2c-0.7,0.1-1.5,0.3-2.3,0.4c-0.4,0.1-0.8,0.1-1.1,0.1
							c-0.2,0-0.4,0-0.6,0c-0.2,0-0.4,0-0.5,0c-0.7,0-1.3-0.2-1.9-0.4c-0.2-0.1-0.4-0.2-0.5-0.2h-0.9c0.3,0.2,0.7,0.4,1.2,0.6
							c0.6,0.2,1.2,0.4,2,0.5c0.2,0,0.4,0,0.6,0c0.2,0,0.4,0,0.6,0c0.4,0,0.8-0.1,1.2-0.2c0.8-0.2,1.5-0.3,2.2-0.5
							c0.5-0.1,1-0.2,1.5-0.3H22.4z"/>
					</g>
					<g>
						<path class="st1" d="M9.1,4.5C9.7,4,10.4,3.6,11,3.4c0.6-0.3,1.1-0.4,1.5-0.5c0,0,0,0,0,0h-0.6c-0.3,0.1-0.6,0.2-1,0.3
							c-0.6,0.2-1.3,0.5-2.1,1C8.5,4.4,8.1,4.7,8,5.3l0,0.2c0,0.1,0,0.1,0,0.2c0,0.1,0.1,0.3,0.1,0.4c0.1,0.2,0.3,0.4,0.5,0.6
							c0.1,0.1,0.2,0.2,0.3,0.2C8.9,6.9,9,7,9.1,7.1c0.2,0.1,0.4,0.2,0.6,0.3c0.4,0.2,0.8,0.3,1.2,0.5C11.3,8,11.6,8.1,12,8.2
							c0.2,0,0.3,0.1,0.5,0.1h0.6c0,0,0,0,0,0c-0.3-0.1-0.6-0.2-1-0.3c-0.4-0.1-0.7-0.3-1.1-0.4C10.6,7.4,10.2,7.2,9.9,7
							c-0.4-0.2-0.7-0.5-1-0.7C8.6,6,8.5,5.7,8.5,5.4C8.6,5.1,8.8,4.8,9.1,4.5z"/>
					</g>
					<g>
						<path class="st1" d="M24.4,6.7c-0.3,0-0.6,0-1,0c-0.9,0-1.8,0-2.8-0.1c-1-0.1-2.1-0.1-3.2-0.1c-1.1,0-2.2-0.1-3.4-0.1
							c-0.6,0-1.2-0.1-1.7-0.1c-0.3,0-0.6-0.1-0.9-0.1c-0.1,0-0.3,0-0.4-0.1L10.7,6c0,0-0.1,0-0.1-0.1c0,0,0,0,0,0
							c0-0.1,0.1-0.1,0.2-0.2c0.2-0.1,0.5-0.2,0.8-0.3c0.5-0.2,1.1-0.3,1.7-0.4C13.8,5,14.4,5,14.9,5c0.5,0,1.1,0.1,1.7,0
							c1.1,0,2.2-0.1,3.2-0.2c1-0.1,2-0.2,2.8-0.3c0.6-0.1,1.2-0.1,1.7-0.2V4.2c-0.5,0.1-1.1,0.1-1.7,0.1c-0.9,0.1-1.8,0.1-2.9,0.1
							c-1,0-2.1,0-3.2,0c-0.5,0-1.1-0.1-1.7-0.1c-0.6,0-1.2,0-1.8,0.1c-0.6,0.1-1.2,0.2-1.8,0.4c-0.3,0.1-0.6,0.2-0.9,0.4
							c-0.1,0.1-0.3,0.2-0.4,0.4C10.1,5.8,10,6,10.1,6.1c0.1,0.2,0.2,0.2,0.3,0.3c0.1,0.1,0.2,0.1,0.3,0.1l0.2,0
							c0.1,0,0.3,0,0.5,0.1c0.3,0,0.6,0.1,0.9,0.1c0.6,0,1.2,0,1.8,0c1.2,0,2.3,0,3.4,0c1.1,0,2.2,0,3.2,0.1c0.5,0,1,0,1.5,0.1
							c0.5,0,0.9,0,1.4,0c0.3,0,0.7,0,1,0V6.7z"/>
					</g>
					<g>
						<path class="st1" d="M24.4,5.8c-0.3,0-0.6,0-1,0c-0.7,0-1.5,0-2.3,0c-0.4,0-0.9,0-1.3-0.1c-0.4,0-0.9-0.1-1.3-0.2
							c0,0,0.1,0,0.1,0c0.1,0,0.2,0,0.3,0c0.2,0,0.4,0,0.7-0.1c0.4,0,0.9-0.1,1.3-0.1c0.8-0.1,1.6-0.1,2.3-0.1c0.5,0,0.9,0,1.2-0.1
							V4.9c-0.3,0-0.8,0.1-1.3,0.1c-0.7,0.1-1.5,0.1-2.3,0.2c-0.4,0-0.9,0.1-1.3,0.1c-0.2,0-0.4,0.1-0.7,0.1c-0.1,0-0.2,0-0.3,0.1
							c-0.1,0-0.1,0-0.2,0c0,0,0,0-0.1,0c0,0,0,0.1,0,0.1c0,0,0.1,0,0.1,0c0.5,0.1,0.9,0.1,1.3,0.2C20.2,5.9,20.6,6,21,6
							c0.8,0,1.6,0.1,2.3,0.1c0.4,0,0.7,0,1,0V5.8z"/>
					</g>
					<g>
						<path class="st1" d="M23.2,7.8c-0.2,0-0.4,0-0.6,0c-0.2,0-0.4,0-0.6,0c-0.4,0-0.8,0.1-1.2,0.1c-0.8,0.1-1.5,0.3-2.3,0.4
							c-0.1,0-0.1,0-0.2,0h1.3c0.4,0,0.8-0.1,1.2-0.1c0.4,0,0.8,0,1.2-0.1c0.2,0,0.4,0,0.6,0c0.2,0,0.4,0,0.5,0.1
							c0.2,0,0.4,0.1,0.5,0.1h0.6V8.1C24,8,23.6,7.9,23.2,7.8z"/>
					</g>
					<g>
						<path class="st1" d="M9.8,8.3C9.6,8.1,9.4,8,9.2,7.8C9,7.8,8.9,7.7,8.7,7.7c-0.1,0-0.3,0-0.5,0C8.1,7.8,8,7.9,7.9,7.9
							C7.8,8,7.7,8.1,7.6,8.1C7.4,8.2,7.2,8.3,7.1,8.3h0.4c0.1,0,0.1,0,0.2-0.1c0.1,0,0.2-0.1,0.4-0.2c0.1,0,0.1-0.1,0.2-0.1
							c0.1,0,0.1,0,0.2,0c0.1,0,0.2,0,0.3,0c0.1,0,0.2,0.1,0.3,0.1c0.1,0.1,0.2,0.1,0.3,0.2L9.8,8.3C9.8,8.3,9.8,8.3,9.8,8.3z"/>
					</g>
					<g>
						<path class="st1" d="M2.6,7.2C2.1,7.1,1.7,7,1.1,6.9c-0.3,0-0.5-0.1-0.8-0.1c-0.1,0-0.2,0-0.3,0v0.3c0.1,0,0.2,0,0.4,0
							c0.2,0,0.5,0,0.7,0c0.5,0.1,1,0.2,1.5,0.2c0.5,0.1,0.9,0.1,1.3,0.1c0.8,0,1.3,0,1.3,0s-0.5,0-1.3-0.1C3.5,7.3,3.1,7.2,2.6,7.2
							z"/>
					</g>
					<g>
						<path class="st1" d="M5.9,6.6c-0.2,0-0.4,0.1-0.7,0.1c-0.2,0-0.5,0-0.8,0c-0.3,0-0.5-0.1-0.8-0.1C3.3,6.5,3,6.4,2.7,6.4
							C1.8,6.2,0.8,6.2,0,6.2v0.4c0.8,0,1.7,0,2.7,0.1c0.3,0,0.6,0.1,0.9,0.1c0.3,0,0.6,0.1,0.8,0.1c0.3,0,0.5,0,0.8,0
							c0.3,0,0.5-0.1,0.7-0.1c0.2-0.1,0.4-0.1,0.6-0.2c0.2-0.1,0.3-0.2,0.4-0.2c0.2-0.1,0.3-0.2,0.3-0.2S7.1,6.2,6.8,6.3
							C6.6,6.4,6.3,6.5,5.9,6.6z"/>
					</g>
					<g>
						<path class="st1" d="M7.6,4.2C7.5,4.1,7.5,4.1,7.4,4.1L7.3,4C6.9,3.9,6.6,4,6.3,4C6,4,5.8,4,5.5,4c-0.6,0-1.1,0-1.6,0
							C2.8,4,1.8,4,1,3.9c-0.3,0-0.7-0.1-1-0.1v0.3c0.3,0,0.6,0,0.9,0.1c0.8,0.1,1.8,0.1,2.9,0.1c0.5,0,1.1,0,1.6,0
							c0.3,0,0.6,0,0.8,0.1c0.2,0,0.4,0.1,0.6,0.1c0,0,0,0,0,0C6.6,4.6,6.4,4.7,6.1,4.8C5.6,4.9,5,5,4.5,5.1c-1,0.2-2,0.3-2.9,0.3
							C1,5.4,0.5,5.5,0,5.5v0.4c0.5,0,1,0,1.7-0.1c0.9,0,1.8-0.1,2.9-0.2c0.5-0.1,1.1-0.1,1.6-0.3c0.3-0.1,0.6-0.1,0.9-0.3
							C7.2,5,7.4,5,7.6,4.8c0,0,0,0,0.1-0.1c0-0.1,0-0.1,0.1-0.2c0-0.1,0-0.2,0-0.2C7.6,4.3,7.6,4.2,7.6,4.2z M7.1,4.6
							C7.1,4.6,7.1,4.6,7.1,4.6C7.1,4.6,7.1,4.6,7.1,4.6C7.1,4.6,7.1,4.6,7.1,4.6z"/>
					</g>
				</g>
				<g>
					<path class="st2" d="M0,3c1.4,0.2,3.4,0.5,5.1,0.5c3.1,0,6.8-0.4,8.7-0.4c1.5,0.1,8.1,0.3,10.5,0.4V2.8H0V3z"/>
				</g>
				<g>
					<path class="st2" d="M19.6,8c-1.7,0.3-8.4-0.1-12.8-0.2C4,7.8,1.5,8,0,8.2v0.2h24.4V7.7C22.6,7.8,20.5,7.9,19.6,8z"/>
				</g>
			</g>
			<g>
				<rect y="2.8" class="st3" width="0.8" height="0.8"/>
			</g>
			<g>
				<rect y="7.6" class="st3" width="0.8" height="0.8"/>
			</g>
			<g>
				<rect x="23.6" y="2.8" class="st3" width="0.8" height="0.8"/>
			</g>
			<g>
				<rect x="23.6" y="7.6" class="st3" width="0.8" height="0.8"/>
			</g>
		</g>
		<g>
			<g>
				<g>
					<path class="st4" d="M2.6,6.3H2.2C1.8,6.3,1.5,6,1.5,5.6V5.5c0-0.4,0.3-0.7,0.7-0.7h0.4V6.3z"/>
				</g>
				<g>
					<polygon class="st5" points="2,5.8 1.8,5.6 2,5.3 2.2,5.3 2.4,5.6 2.2,5.8 					"/>
				</g>
			</g>
			<g>
				<g>
					<path class="st4" d="M5.4,4.8h0.4c0.4,0,0.7,0.3,0.7,0.7v0.1c0,0.4-0.3,0.7-0.7,0.7H5.4V4.8z"/>
				</g>
				<g>
					<polygon class="st5" points="6.1,5.3 6.2,5.6 6.1,5.8 5.8,5.8 5.7,5.6 5.8,5.3 					"/>
				</g>
			</g>
		</g>
		<g>
			<g>
				<g>
					<path class="st4" d="M18.9,6.3h-0.4c-0.4,0-0.7-0.3-0.7-0.7V5.5c0-0.4,0.3-0.7,0.7-0.7h0.4V6.3z"/>
				</g>
				<g>
					<polygon class="st5" points="18.3,5.8 18.2,5.6 18.3,5.3 18.6,5.3 18.7,5.6 18.6,5.8 					"/>
				</g>
			</g>
			<g>
				<g>
					<path class="st4" d="M21.8,4.8h0.4c0.4,0,0.7,0.3,0.7,0.7v0.1c0,0.4-0.3,0.7-0.7,0.7h-0.4V4.8z"/>
				</g>
				<g>
					<polygon class="st5" points="22.4,5.3 22.6,5.6 22.4,5.8 22.1,5.8 22,5.6 22.1,5.3 					"/>
				</g>
			</g>
		</g>
	</g>
	<g>
		<g>
			<g>
				<g>
					<g>
						<rect y="15.1" class="st0" width="24.4" height="5.5"/>
					</g>
					<g>
						<path class="st1" d="M4.4,15.7c0,0,0.5-0.1,1-0.1c0.2,0,0.5,0,0.7,0c0.2,0,0.3,0.1,0.3,0.1s-0.5,0-1,0
							C4.9,15.8,4.4,15.7,4.4,15.7L4.4,15.7z"/>
					</g>
					<g>
						<path class="st1" d="M15.9,18.2c0,0-0.1,0-0.3,0c-0.2,0-0.4,0-0.7,0c-0.2,0-0.5,0-0.7-0.1c-0.2,0-0.3-0.1-0.3-0.1s0.5,0,1,0
							c0.2,0,0.5,0,0.7,0C15.7,18.2,15.9,18.2,15.9,18.2L15.9,18.2z"/>
					</g>
					<g>
						<path class="st1" d="M17.6,19.8c0,0-0.3,0-0.7,0.1c-0.4,0-1,0-1.6,0c-0.6,0-1.2-0.1-1.6-0.1c-0.4-0.1-0.7-0.1-0.7-0.1
							s0.1,0,0.2,0c0.1,0,0.3,0,0.5,0c0.4,0,1,0,1.6,0c0.6,0,1.2,0.1,1.6,0.1C17.3,19.7,17.6,19.8,17.6,19.8L17.6,19.8z"/>
					</g>
					<g>
						<path class="st1" d="M22.4,15.1c-0.3,0.1-0.5,0.1-0.8,0.2c-0.7,0.1-1.5,0.3-2.3,0.4c-0.4,0.1-0.8,0.1-1.1,0.1
							c-0.2,0-0.4,0-0.6,0c-0.2,0-0.4,0-0.5,0c-0.7,0-1.3-0.2-1.9-0.4c-0.2-0.1-0.4-0.2-0.5-0.2h-0.9c0.3,0.2,0.7,0.4,1.2,0.6
							c0.6,0.2,1.2,0.4,2,0.5c0.2,0,0.4,0,0.6,0c0.2,0,0.4,0,0.6,0c0.4,0,0.8-0.1,1.2-0.2c0.8-0.2,1.5-0.3,2.2-0.5
							c0.5-0.1,1-0.2,1.5-0.3H22.4z"/>
					</g>
					<g>
						<path class="st1" d="M9.1,16.8c0.6-0.5,1.3-0.9,1.8-1.1c0.6-0.3,1.1-0.4,1.5-0.5c0,0,0,0,0,0h-0.6c-0.3,0.1-0.6,0.2-1,0.3
							c-0.6,0.2-1.3,0.5-2.1,1C8.5,16.6,8.1,17,8,17.5l0,0.2c0,0.1,0,0.1,0,0.2c0,0.1,0.1,0.3,0.1,0.4c0.1,0.2,0.3,0.4,0.5,0.6
							c0.1,0.1,0.2,0.2,0.3,0.2c0.1,0.1,0.2,0.1,0.3,0.2c0.2,0.1,0.4,0.2,0.6,0.3c0.4,0.2,0.8,0.3,1.2,0.5c0.4,0.1,0.8,0.2,1.1,0.3
							c0.2,0,0.3,0.1,0.5,0.1h0.6c0,0,0,0,0,0c-0.3-0.1-0.6-0.2-1-0.3c-0.4-0.1-0.7-0.3-1.1-0.4c-0.4-0.2-0.7-0.4-1.1-0.6
							c-0.4-0.2-0.7-0.5-1-0.7c-0.3-0.3-0.4-0.6-0.4-0.9C8.6,17.3,8.8,17,9.1,16.8z"/>
					</g>
					<g>
						<path class="st1" d="M24.4,18.9c-0.3,0-0.6,0-1,0c-0.9,0-1.8,0-2.8-0.1c-1-0.1-2.1-0.1-3.2-0.1c-1.1,0-2.2-0.1-3.4-0.1
							c-0.6,0-1.2-0.1-1.7-0.1c-0.3,0-0.6-0.1-0.9-0.1c-0.1,0-0.3,0-0.4-0.1l-0.2-0.1c0,0-0.1,0-0.1-0.1c0,0,0,0,0,0
							c0-0.1,0.1-0.1,0.2-0.2c0.2-0.1,0.5-0.2,0.8-0.3c0.5-0.2,1.1-0.3,1.7-0.4c0.6-0.1,1.1-0.1,1.7-0.1c0.5,0,1.1,0.1,1.7,0
							c1.1,0,2.2-0.1,3.2-0.2c1-0.1,2-0.2,2.8-0.3c0.6-0.1,1.2-0.1,1.7-0.2v-0.1c-0.5,0.1-1.1,0.1-1.7,0.1c-0.9,0.1-1.8,0.1-2.9,0.1
							c-1,0-2.1,0-3.2,0c-0.5,0-1.1-0.1-1.7-0.1c-0.6,0-1.2,0-1.8,0.1c-0.6,0.1-1.2,0.2-1.8,0.4c-0.3,0.1-0.6,0.2-0.9,0.4
							c-0.1,0.1-0.3,0.2-0.4,0.4c-0.1,0.1-0.1,0.3-0.1,0.4c0.1,0.2,0.2,0.2,0.3,0.3c0.1,0.1,0.2,0.1,0.3,0.1l0.2,0
							c0.1,0,0.3,0,0.5,0.1c0.3,0,0.6,0.1,0.9,0.1c0.6,0,1.2,0,1.8,0c1.2,0,2.3,0,3.4,0c1.1,0,2.2,0,3.2,0.1c0.5,0,1,0,1.5,0.1
							c0.5,0,0.9,0,1.4,0c0.3,0,0.7,0,1,0V18.9z"/>
					</g>
					<g>
						<path class="st1" d="M24.4,18.1c-0.3,0-0.6,0-1,0c-0.7,0-1.5,0-2.3,0c-0.4,0-0.9,0-1.3-0.1c-0.4,0-0.9-0.1-1.3-0.2
							c0,0,0.1,0,0.1,0c0.1,0,0.2,0,0.3,0c0.2,0,0.4,0,0.7-0.1c0.4,0,0.9-0.1,1.3-0.1c0.8-0.1,1.6-0.1,2.3-0.1c0.5,0,0.9,0,1.2-0.1
							v-0.3c-0.3,0-0.8,0.1-1.3,0.1c-0.7,0.1-1.5,0.1-2.3,0.2c-0.4,0-0.9,0.1-1.3,0.1c-0.2,0-0.4,0.1-0.7,0.1c-0.1,0-0.2,0-0.3,0.1
							c-0.1,0-0.1,0-0.2,0c0,0,0,0-0.1,0c0,0,0,0.1,0,0.1c0,0,0.1,0,0.1,0c0.5,0.1,0.9,0.1,1.3,0.2c0.4,0,0.9,0.1,1.3,0.1
							c0.8,0,1.6,0.1,2.3,0.1c0.4,0,0.7,0,1,0V18.1z"/>
					</g>
					<g>
						<path class="st1" d="M23.2,20.1c-0.2,0-0.4,0-0.6,0c-0.2,0-0.4,0-0.6,0c-0.4,0-0.8,0.1-1.2,0.1c-0.8,0.1-1.5,0.3-2.3,0.4
							c-0.1,0-0.1,0-0.2,0h1.3c0.4,0,0.8-0.1,1.2-0.1c0.4,0,0.8,0,1.2-0.1c0.2,0,0.4,0,0.6,0c0.2,0,0.4,0,0.5,0.1
							c0.2,0,0.4,0.1,0.5,0.1h0.6v-0.2C24,20.2,23.6,20.1,23.2,20.1z"/>
					</g>
					<g>
						<path class="st1" d="M9.8,20.5c-0.2-0.1-0.4-0.3-0.6-0.4C9,20,8.9,20,8.7,20c-0.1,0-0.3,0-0.5,0c-0.1,0-0.3,0.1-0.4,0.2
							c-0.1,0.1-0.2,0.1-0.3,0.2c-0.2,0.1-0.3,0.2-0.5,0.2h0.4c0.1,0,0.1,0,0.2-0.1c0.1,0,0.2-0.1,0.4-0.2c0.1,0,0.1-0.1,0.2-0.1
							c0.1,0,0.1,0,0.2,0c0.1,0,0.2,0,0.3,0c0.1,0,0.2,0.1,0.3,0.1c0.1,0.1,0.2,0.1,0.3,0.2L9.8,20.5C9.8,20.6,9.8,20.5,9.8,20.5z"
							/>
					</g>
					<g>
						<path class="st1" d="M2.6,19.4c-0.5-0.1-1-0.2-1.5-0.3c-0.3,0-0.5-0.1-0.8-0.1c-0.1,0-0.2,0-0.3,0v0.3c0.1,0,0.2,0,0.4,0
							c0.2,0,0.5,0,0.7,0c0.5,0.1,1,0.2,1.5,0.2c0.5,0.1,0.9,0.1,1.3,0.1c0.8,0,1.3,0,1.3,0s-0.5,0-1.3-0.1
							C3.5,19.6,3.1,19.5,2.6,19.4z"/>
					</g>
					<g>
						<path class="st1" d="M5.9,18.9c-0.2,0-0.4,0.1-0.7,0.1c-0.2,0-0.5,0-0.8,0c-0.3,0-0.5-0.1-0.8-0.1c-0.3-0.1-0.6-0.1-0.9-0.2
							c-1-0.2-1.9-0.2-2.7-0.2v0.4c0.8,0,1.7,0,2.7,0.1C3,19,3.3,19,3.5,19.1c0.3,0,0.6,0.1,0.8,0.1c0.3,0,0.5,0,0.8,0
							c0.3,0,0.5-0.1,0.7-0.1c0.2-0.1,0.4-0.1,0.6-0.2c0.2-0.1,0.3-0.2,0.4-0.2c0.2-0.1,0.3-0.2,0.3-0.2s-0.1,0.1-0.3,0.2
							C6.6,18.7,6.3,18.8,5.9,18.9z"/>
					</g>
					<g>
						<path class="st1" d="M7.6,16.4c-0.1-0.1-0.1-0.1-0.2-0.1l-0.1,0c-0.3-0.1-0.6,0-0.9,0c-0.3,0-0.6,0-0.9,0c-0.6,0-1.1,0-1.6,0
							c-1.1,0-2-0.1-2.9-0.2c-0.3,0-0.7-0.1-1-0.1v0.3c0.3,0,0.6,0,0.9,0.1c0.8,0.1,1.8,0.1,2.9,0.1c0.5,0,1.1,0,1.6,0
							c0.3,0,0.6,0,0.8,0.1c0.2,0,0.4,0.1,0.6,0.1c0,0,0,0,0,0c-0.2,0.1-0.5,0.2-0.8,0.2c-0.5,0.1-1.1,0.2-1.6,0.3
							c-1,0.2-2,0.3-2.9,0.3c-0.6,0-1.2,0.1-1.7,0.1v0.4c0.5,0,1,0,1.7-0.1c0.9,0,1.8-0.1,2.9-0.2c0.5-0.1,1.1-0.1,1.6-0.3
							c0.3-0.1,0.6-0.1,0.9-0.3c0.1-0.1,0.3-0.1,0.5-0.3c0,0,0,0,0.1-0.1c0-0.1,0-0.1,0.1-0.2c0-0.1,0-0.2,0-0.2
							C7.6,16.5,7.6,16.5,7.6,16.4z M7.1,16.9C7.1,16.9,7.1,16.9,7.1,16.9L7.1,16.9C7.1,16.9,7.1,16.9,7.1,16.9z"/>
					</g>
				</g>
				<g>
					<path class="st2" d="M0,15.2c1.4,0.2,3.4,0.5,5.1,0.5c3.1,0,6.8-0.4,8.7-0.4c1.5,0.1,8.1,0.3,10.5,0.4v-0.6H0V15.2z"/>
				</g>
				<g>
					<path class="st2" d="M19.6,20.3c-1.7,0.3-8.4-0.1-12.8-0.2C4,20,1.5,20.2,0,20.4v0.2h24.4V20C22.6,20,20.5,20.1,19.6,20.3z"/>
				</g>
			</g>
			<g>
				<rect y="15.1" class="st3" width="0.8" height="0.8"/>
			</g>
			<g>
				<rect y="19.8" class="st3" width="0.8" height="0.8"/>
			</g>
			<g>
				<rect x="23.6" y="15.1" class="st3" width="0.8" height="0.8"/>
			</g>
			<g>
				<rect x="23.6" y="19.8" class="st3" width="0.8" height="0.8"/>
			</g>
		</g>
		<g>
			<g>
				<g>
					<path class="st4" d="M2.6,18.6H2.2c-0.4,0-0.7-0.3-0.7-0.7v-0.1c0-0.4,0.3-0.7,0.7-0.7h0.4V18.6z"/>
				</g>
				<g>
					<polygon class="st5" points="2,18.1 1.8,17.8 2,17.6 2.2,17.6 2.4,17.8 2.2,18.1 					"/>
				</g>
			</g>
			<g>
				<g>
					<path class="st4" d="M5.4,17.1h0.4c0.4,0,0.7,0.3,0.7,0.7v0.1c0,0.4-0.3,0.7-0.7,0.7H5.4V17.1z"/>
				</g>
				<g>
					<polygon class="st5" points="6.1,17.6 6.2,17.8 6.1,18.1 5.8,18.1 5.7,17.8 5.8,17.6 					"/>
				</g>
			</g>
		</g>
		<g>
			<g>
				<g>
					<path class="st4" d="M18.9,18.6h-0.4c-0.4,0-0.7-0.3-0.7-0.7v-0.1c0-0.4,0.3-0.7,0.7-0.7h0.4V18.6z"/>
				</g>
				<g>
					<polygon class="st5" points="18.3,18.1 18.2,17.8 18.3,17.6 18.6,17.6 18.7,17.8 18.6,18.1 					"/>
				</g>
			</g>
			<g>
				<g>
					<path class="st4" d="M21.8,17.1h0.4c0.4,0,0.7,0.3,0.7,0.7v0.1c0,0.4-0.3,0.7-0.7,0.7h-0.4V17.1z"/>
				</g>
				<g>
					<polygon class="st5" points="22.4,17.6 22.6,17.8 22.4,18.1 22.1,18.1 22,17.8 22.1,17.6 					"/>
				</g>
			</g>
		</g>
	</g>
	<g>
		<g>
			<g>
				<g>
					<g>
						<rect y="27.3" class="st0" width="24.4" height="5.5"/>
					</g>
					<g>
						<path class="st1" d="M4.4,28c0,0,0.5-0.1,1-0.1c0.2,0,0.5,0,0.7,0C6.2,28,6.4,28,6.4,28s-0.5,0-1,0C4.9,28,4.4,28,4.4,28
							L4.4,28z"/>
					</g>
					<g>
						<path class="st1" d="M15.9,30.5c0,0-0.1,0-0.3,0c-0.2,0-0.4,0-0.7,0c-0.2,0-0.5,0-0.7-0.1c-0.2,0-0.3-0.1-0.3-0.1s0.5,0,1,0
							c0.2,0,0.5,0,0.7,0C15.7,30.4,15.9,30.5,15.9,30.5L15.9,30.5z"/>
					</g>
					<g>
						<path class="st1" d="M17.6,32c0,0-0.3,0-0.7,0.1c-0.4,0-1,0-1.6,0c-0.6,0-1.2-0.1-1.6-0.1c-0.4-0.1-0.7-0.1-0.7-0.1
							s0.1,0,0.2,0c0.1,0,0.3,0,0.5,0c0.4,0,1,0,1.6,0c0.6,0,1.2,0.1,1.6,0.1C17.3,32,17.6,32,17.6,32L17.6,32z"/>
					</g>
					<g>
						<path class="st1" d="M22.4,27.3c-0.3,0.1-0.5,0.1-0.8,0.2c-0.7,0.1-1.5,0.3-2.3,0.4C19,27.9,18.6,28,18.2,28
							c-0.2,0-0.4,0-0.6,0c-0.2,0-0.4,0-0.5,0c-0.7,0-1.3-0.2-1.9-0.4c-0.2-0.1-0.4-0.2-0.5-0.2h-0.9c0.3,0.2,0.7,0.4,1.2,0.6
							c0.6,0.2,1.2,0.4,2,0.5c0.2,0,0.4,0,0.6,0c0.2,0,0.4,0,0.6,0c0.4,0,0.8-0.1,1.2-0.2c0.8-0.2,1.5-0.3,2.2-0.5
							c0.5-0.1,1-0.2,1.5-0.3H22.4z"/>
					</g>
					<g>
						<path class="st1" d="M9.1,29c0.6-0.5,1.3-0.9,1.8-1.1c0.6-0.3,1.1-0.4,1.5-0.5c0,0,0,0,0,0h-0.6c-0.3,0.1-0.6,0.2-1,0.3
							c-0.6,0.2-1.3,0.5-2.1,1c-0.3,0.2-0.7,0.6-0.9,1.1l0,0.2c0,0.1,0,0.1,0,0.2c0,0.1,0.1,0.3,0.1,0.4c0.1,0.2,0.3,0.4,0.5,0.6
							c0.1,0.1,0.2,0.2,0.3,0.2c0.1,0.1,0.2,0.1,0.3,0.2c0.2,0.1,0.4,0.2,0.6,0.3c0.4,0.2,0.8,0.3,1.2,0.5c0.4,0.1,0.8,0.2,1.1,0.3
							c0.2,0,0.3,0.1,0.5,0.1h0.6c0,0,0,0,0,0c-0.3-0.1-0.6-0.2-1-0.3c-0.4-0.1-0.7-0.3-1.1-0.4c-0.4-0.2-0.7-0.4-1.1-0.6
							c-0.4-0.2-0.7-0.5-1-0.7c-0.3-0.3-0.4-0.6-0.4-0.9C8.6,29.6,8.8,29.3,9.1,29z"/>
					</g>
					<g>
						<path class="st1" d="M24.4,31.2c-0.3,0-0.6,0-1,0c-0.9,0-1.8,0-2.8-0.1c-1-0.1-2.1-0.1-3.2-0.1c-1.1,0-2.2-0.1-3.4-0.1
							c-0.6,0-1.2-0.1-1.7-0.1c-0.3,0-0.6-0.1-0.9-0.1c-0.1,0-0.3,0-0.4-0.1l-0.2-0.1c0,0-0.1,0-0.1-0.1c0,0,0,0,0,0
							c0-0.1,0.1-0.1,0.2-0.2c0.2-0.1,0.5-0.2,0.8-0.3c0.5-0.2,1.1-0.3,1.7-0.4c0.6-0.1,1.1-0.1,1.7-0.1c0.5,0,1.1,0.1,1.7,0
							c1.1,0,2.2-0.1,3.2-0.2c1-0.1,2-0.2,2.8-0.3c0.6-0.1,1.2-0.1,1.7-0.2v-0.1c-0.5,0.1-1.1,0.1-1.7,0.1c-0.9,0.1-1.8,0.1-2.9,0.1
							c-1,0-2.1,0-3.2,0c-0.5,0-1.1-0.1-1.7-0.1c-0.6,0-1.2,0-1.8,0.1c-0.6,0.1-1.2,0.2-1.8,0.4c-0.3,0.1-0.6,0.2-0.9,0.4
							c-0.1,0.1-0.3,0.2-0.4,0.4c-0.1,0.1-0.1,0.3-0.1,0.4c0.1,0.2,0.2,0.2,0.3,0.3c0.1,0.1,0.2,0.1,0.3,0.1l0.2,0
							c0.1,0,0.3,0,0.5,0.1c0.3,0,0.6,0.1,0.9,0.1c0.6,0,1.2,0,1.8,0c1.2,0,2.3,0,3.4,0c1.1,0,2.2,0,3.2,0.1c0.5,0,1,0,1.5,0.1
							c0.5,0,0.9,0,1.4,0c0.3,0,0.7,0,1,0V31.2z"/>
					</g>
					<g>
						<path class="st1" d="M24.4,30.3c-0.3,0-0.6,0-1,0c-0.7,0-1.5,0-2.3,0c-0.4,0-0.9,0-1.3-0.1c-0.4,0-0.9-0.1-1.3-0.2
							c0,0,0.1,0,0.1,0c0.1,0,0.2,0,0.3,0c0.2,0,0.4,0,0.7-0.1c0.4,0,0.9-0.1,1.3-0.1c0.8-0.1,1.6-0.1,2.3-0.1c0.5,0,0.9,0,1.2-0.1
							v-0.3c-0.3,0-0.8,0.1-1.3,0.1c-0.7,0.1-1.5,0.1-2.3,0.2c-0.4,0-0.9,0.1-1.3,0.1c-0.2,0-0.4,0.1-0.7,0.1c-0.1,0-0.2,0-0.3,0.1
							c-0.1,0-0.1,0-0.2,0c0,0,0,0-0.1,0c0,0,0,0.1,0,0.1c0,0,0.1,0,0.1,0c0.5,0.1,0.9,0.1,1.3,0.2c0.4,0,0.9,0.1,1.3,0.1
							c0.8,0,1.6,0.1,2.3,0.1c0.4,0,0.7,0,1,0V30.3z"/>
					</g>
					<g>
						<path class="st1" d="M23.2,32.3c-0.2,0-0.4,0-0.6,0c-0.2,0-0.4,0-0.6,0c-0.4,0-0.8,0.1-1.2,0.1c-0.8,0.1-1.5,0.3-2.3,0.4
							c-0.1,0-0.1,0-0.2,0h1.3c0.4,0,0.8-0.1,1.2-0.1c0.4,0,0.8,0,1.2-0.1c0.2,0,0.4,0,0.6,0c0.2,0,0.4,0,0.5,0.1
							c0.2,0,0.4,0.1,0.5,0.1h0.6v-0.2C24,32.5,23.6,32.4,23.2,32.3z"/>
					</g>
					<g>
						<path class="st1" d="M9.8,32.8c-0.2-0.1-0.4-0.3-0.6-0.4c-0.1-0.1-0.3-0.1-0.4-0.1c-0.1,0-0.3,0-0.5,0c-0.1,0-0.3,0.1-0.4,0.2
							c-0.1,0.1-0.2,0.1-0.3,0.2c-0.2,0.1-0.3,0.2-0.5,0.2h0.4c0.1,0,0.1,0,0.2-0.1c0.1,0,0.2-0.1,0.4-0.2c0.1,0,0.1-0.1,0.2-0.1
							c0.1,0,0.1,0,0.2,0c0.1,0,0.2,0,0.3,0c0.1,0,0.2,0.1,0.3,0.1c0.1,0.1,0.2,0.1,0.3,0.2L9.8,32.8C9.8,32.8,9.8,32.8,9.8,32.8z"
							/>
					</g>
					<g>
						<path class="st1" d="M2.6,31.7c-0.5-0.1-1-0.2-1.5-0.3c-0.3,0-0.5-0.1-0.8-0.1c-0.1,0-0.2,0-0.3,0v0.3c0.1,0,0.2,0,0.4,0
							c0.2,0,0.5,0,0.7,0c0.5,0.1,1,0.2,1.5,0.2c0.5,0.1,0.9,0.1,1.3,0.1c0.8,0,1.3,0,1.3,0s-0.5,0-1.3-0.1
							C3.5,31.8,3.1,31.7,2.6,31.7z"/>
					</g>
					<g>
						<path class="st1" d="M5.9,31.1c-0.2,0-0.4,0.1-0.7,0.1c-0.2,0-0.5,0-0.8,0c-0.3,0-0.5-0.1-0.8-0.1C3.3,31,3,30.9,2.7,30.9
							c-1-0.2-1.9-0.2-2.7-0.2v0.4c0.8,0,1.7,0,2.7,0.1c0.3,0,0.6,0.1,0.9,0.1c0.3,0,0.6,0.1,0.8,0.1c0.3,0,0.5,0,0.8,0
							c0.3,0,0.5-0.1,0.7-0.1c0.2-0.1,0.4-0.1,0.6-0.2c0.2-0.1,0.3-0.2,0.4-0.2c0.2-0.1,0.3-0.2,0.3-0.2s-0.1,0.1-0.3,0.2
							C6.6,30.9,6.3,31,5.9,31.1z"/>
					</g>
					<g>
						<path class="st1" d="M7.6,28.7c-0.1-0.1-0.1-0.1-0.2-0.1l-0.1,0c-0.3-0.1-0.6,0-0.9,0c-0.3,0-0.6,0-0.9,0c-0.6,0-1.1,0-1.6,0
							c-1.1,0-2-0.1-2.9-0.2c-0.3,0-0.7-0.1-1-0.1v0.3c0.3,0,0.6,0,0.9,0.1c0.8,0.1,1.8,0.1,2.9,0.1c0.5,0,1.1,0,1.6,0
							c0.3,0,0.6,0,0.8,0.1c0.2,0,0.4,0.1,0.6,0.1c0,0,0,0,0,0c-0.2,0.1-0.5,0.2-0.8,0.2c-0.5,0.1-1.1,0.2-1.6,0.3
							c-1,0.2-2,0.3-2.9,0.3C1,29.9,0.5,30,0,30v0.4c0.5,0,1,0,1.7-0.1c0.9,0,1.8-0.1,2.9-0.2c0.5-0.1,1.1-0.1,1.6-0.3
							c0.3-0.1,0.6-0.1,0.9-0.3c0.1-0.1,0.3-0.1,0.5-0.3c0,0,0,0,0.1-0.1c0-0.1,0-0.1,0.1-0.2c0-0.1,0-0.2,0-0.2
							C7.6,28.8,7.6,28.7,7.6,28.7z M7.1,29.1C7.1,29.1,7.1,29.1,7.1,29.1L7.1,29.1C7.1,29.1,7.1,29.1,7.1,29.1z"/>
					</g>
				</g>
				<g>
					<path class="st2" d="M0,27.5c1.4,0.2,3.4,0.5,5.1,0.5c3.1,0,6.8-0.4,8.7-0.4c1.5,0.1,8.1,0.3,10.5,0.4v-0.6H0V27.5z"/>
				</g>
				<g>
					<path class="st2" d="M19.6,32.5c-1.7,0.3-8.4-0.1-12.8-0.2c-2.7,0-5.3,0.2-6.8,0.3v0.2h24.4v-0.6
						C22.6,32.3,20.5,32.4,19.6,32.5z"/>
				</g>
			</g>
			<g>
				<rect y="27.3" class="st3" width="0.8" height="0.8"/>
			</g>
			<g>
				<rect y="32.1" class="st3" width="0.8" height="0.8"/>
			</g>
			<g>
				<rect x="23.6" y="27.3" class="st3" width="0.8" height="0.8"/>
			</g>
			<g>
				<rect x="23.6" y="32.1" class="st3" width="0.8" height="0.8"/>
			</g>
		</g>
		<g>
			<g>
				<g>
					<path class="st4" d="M2.6,30.8H2.2c-0.4,0-0.7-0.3-0.7-0.7V30c0-0.4,0.3-0.7,0.7-0.7h0.4V30.8z"/>
				</g>
				<g>
					<polygon class="st5" points="2,30.3 1.8,30.1 2,29.8 2.2,29.8 2.4,30.1 2.2,30.3 					"/>
				</g>
			</g>
			<g>
				<g>
					<path class="st4" d="M5.4,29.3h0.4c0.4,0,0.7,0.3,0.7,0.7v0.1c0,0.4-0.3,0.7-0.7,0.7H5.4V29.3z"/>
				</g>
				<g>
					<polygon class="st5" points="6.1,29.8 6.2,30.1 6.1,30.3 5.8,30.3 5.7,30.1 5.8,29.8 					"/>
				</g>
			</g>
		</g>
		<g>
			<g>
				<g>
					<path class="st4" d="M18.9,30.8h-0.4c-0.4,0-0.7-0.3-0.7-0.7V30c0-0.4,0.3-0.7,0.7-0.7h0.4V30.8z"/>
				</g>
				<g>
					<polygon class="st5" points="18.3,30.3 18.2,30.1 18.3,29.8 18.6,29.8 18.7,30.1 18.6,30.3 					"/>
				</g>
			</g>
			<g>
				<g>
					<path class="st4" d="M21.8,29.3h0.4c0.4,0,0.7,0.3,0.7,0.7v0.1c0,0.4-0.3,0.7-0.7,0.7h-0.4V29.3z"/>
				</g>
				<g>
					<polygon class="st5" points="22.4,29.8 22.6,30.1 22.4,30.3 22.1,30.3 22,30.1 22.1,29.8 					"/>
				</g>
			</g>
		</g>
	</g>
	<g>
		<g>
			<g>
				<g>
					<g>
						<rect y="39.6" class="st0" width="24.4" height="5.5"/>
					</g>
					<g>
						<path class="st1" d="M4.4,40.2c0,0,0.5-0.1,1-0.1c0.2,0,0.5,0,0.7,0c0.2,0,0.3,0.1,0.3,0.1s-0.5,0-1,0
							C4.9,40.3,4.4,40.2,4.4,40.2L4.4,40.2z"/>
					</g>
					<g>
						<path class="st1" d="M15.9,42.7c0,0-0.1,0-0.3,0c-0.2,0-0.4,0-0.7,0c-0.2,0-0.5,0-0.7-0.1c-0.2,0-0.3-0.1-0.3-0.1s0.5,0,1,0
							c0.2,0,0.5,0,0.7,0C15.7,42.7,15.9,42.7,15.9,42.7L15.9,42.7z"/>
					</g>
					<g>
						<path class="st1" d="M17.6,44.3c0,0-0.3,0-0.7,0.1c-0.4,0-1,0-1.6,0c-0.6,0-1.2-0.1-1.6-0.1c-0.4-0.1-0.7-0.1-0.7-0.1
							s0.1,0,0.2,0c0.1,0,0.3,0,0.5,0c0.4,0,1,0,1.6,0c0.6,0,1.2,0.1,1.6,0.1C17.3,44.2,17.6,44.3,17.6,44.3L17.6,44.3z"/>
					</g>
					<g>
						<path class="st1" d="M22.4,39.6c-0.3,0.1-0.5,0.1-0.8,0.2c-0.7,0.1-1.5,0.3-2.3,0.4c-0.4,0.1-0.8,0.1-1.1,0.1
							c-0.2,0-0.4,0-0.6,0c-0.2,0-0.4,0-0.5,0c-0.7,0-1.3-0.2-1.9-0.4c-0.2-0.1-0.4-0.2-0.5-0.2h-0.9c0.3,0.2,0.7,0.4,1.2,0.6
							c0.6,0.2,1.2,0.4,2,0.5c0.2,0,0.4,0,0.6,0c0.2,0,0.4,0,0.6,0c0.4,0,0.8-0.1,1.2-0.2c0.8-0.2,1.5-0.3,2.2-0.5
							c0.5-0.1,1-0.2,1.5-0.3H22.4z"/>
					</g>
					<g>
						<path class="st1" d="M9.1,41.3c0.6-0.5,1.3-0.9,1.8-1.1c0.6-0.3,1.1-0.4,1.5-0.5c0,0,0,0,0,0h-0.6c-0.3,0.1-0.6,0.2-1,0.3
							c-0.6,0.2-1.3,0.5-2.1,1C8.5,41.1,8.1,41.5,8,42l0,0.2c0,0.1,0,0.1,0,0.2c0,0.1,0.1,0.3,0.1,0.4c0.1,0.2,0.3,0.4,0.5,0.6
							c0.1,0.1,0.2,0.2,0.3,0.2c0.1,0.1,0.2,0.1,0.3,0.2c0.2,0.1,0.4,0.2,0.6,0.3c0.4,0.2,0.8,0.3,1.2,0.5c0.4,0.1,0.8,0.2,1.1,0.3
							c0.2,0,0.3,0.1,0.5,0.1h0.6c0,0,0,0,0,0c-0.3-0.1-0.6-0.2-1-0.3c-0.4-0.1-0.7-0.3-1.1-0.4c-0.4-0.2-0.7-0.4-1.1-0.6
							c-0.4-0.2-0.7-0.5-1-0.7c-0.3-0.3-0.4-0.6-0.4-0.9C8.6,41.8,8.8,41.5,9.1,41.3z"/>
					</g>
					<g>
						<path class="st1" d="M24.4,43.4c-0.3,0-0.6,0-1,0c-0.9,0-1.8,0-2.8-0.1c-1-0.1-2.1-0.1-3.2-0.1c-1.1,0-2.2-0.1-3.4-0.1
							c-0.6,0-1.2-0.1-1.7-0.1c-0.3,0-0.6-0.1-0.9-0.1c-0.1,0-0.3,0-0.4-0.1l-0.2-0.1c0,0-0.1,0-0.1-0.1c0,0,0,0,0,0
							c0-0.1,0.1-0.1,0.2-0.2c0.2-0.1,0.5-0.2,0.8-0.3c0.5-0.2,1.1-0.3,1.7-0.4c0.6-0.1,1.1-0.1,1.7-0.1c0.5,0,1.1,0.1,1.7,0
							c1.1,0,2.2-0.1,3.2-0.2c1-0.1,2-0.2,2.8-0.3c0.6-0.1,1.2-0.1,1.7-0.2V41c-0.5,0.1-1.1,0.1-1.7,0.1c-0.9,0.1-1.8,0.1-2.9,0.1
							c-1,0-2.1,0-3.2,0c-0.5,0-1.1-0.1-1.7-0.1c-0.6,0-1.2,0-1.8,0.1c-0.6,0.1-1.2,0.2-1.8,0.4c-0.3,0.1-0.6,0.2-0.9,0.4
							c-0.1,0.1-0.3,0.2-0.4,0.4c-0.1,0.1-0.1,0.3-0.1,0.4c0.1,0.2,0.2,0.2,0.3,0.3c0.1,0.1,0.2,0.1,0.3,0.1l0.2,0
							c0.1,0,0.3,0,0.5,0.1c0.3,0,0.6,0.1,0.9,0.1c0.6,0,1.2,0,1.8,0c1.2,0,2.3,0,3.4,0c1.1,0,2.2,0,3.2,0.1c0.5,0,1,0,1.5,0.1
							c0.5,0,0.9,0,1.4,0c0.3,0,0.7,0,1,0V43.4z"/>
					</g>
					<g>
						<path class="st1" d="M24.4,42.6c-0.3,0-0.6,0-1,0c-0.7,0-1.5,0-2.3,0c-0.4,0-0.9,0-1.3-0.1c-0.4,0-0.9-0.1-1.3-0.2
							c0,0,0.1,0,0.1,0c0.1,0,0.2,0,0.3,0c0.2,0,0.4,0,0.7-0.1c0.4,0,0.9-0.1,1.3-0.1c0.8-0.1,1.6-0.1,2.3-0.1c0.5,0,0.9,0,1.2-0.1
							v-0.3c-0.3,0-0.8,0.1-1.3,0.1c-0.7,0.1-1.5,0.1-2.3,0.2c-0.4,0-0.9,0.1-1.3,0.1c-0.2,0-0.4,0.1-0.7,0.1c-0.1,0-0.2,0-0.3,0.1
							c-0.1,0-0.1,0-0.2,0c0,0,0,0-0.1,0c0,0,0,0.1,0,0.1c0,0,0.1,0,0.1,0c0.5,0.1,0.9,0.1,1.3,0.2c0.4,0,0.9,0.1,1.3,0.1
							c0.8,0,1.6,0.1,2.3,0.1c0.4,0,0.7,0,1,0V42.6z"/>
					</g>
					<g>
						<path class="st1" d="M23.2,44.6c-0.2,0-0.4,0-0.6,0c-0.2,0-0.4,0-0.6,0c-0.4,0-0.8,0.1-1.2,0.1c-0.8,0.1-1.5,0.3-2.3,0.4
							c-0.1,0-0.1,0-0.2,0h1.3c0.4,0,0.8-0.1,1.2-0.1c0.4,0,0.8,0,1.2-0.1c0.2,0,0.4,0,0.6,0c0.2,0,0.4,0,0.5,0.1
							c0.2,0,0.4,0.1,0.5,0.1h0.6v-0.2C24,44.7,23.6,44.6,23.2,44.6z"/>
					</g>
					<g>
						<path class="st1" d="M9.8,45c-0.2-0.1-0.4-0.3-0.6-0.4c-0.1-0.1-0.3-0.1-0.4-0.1c-0.1,0-0.3,0-0.5,0c-0.1,0-0.3,0.1-0.4,0.2
							c-0.1,0.1-0.2,0.1-0.3,0.2C7.4,45,7.2,45,7.1,45.1h0.4c0.1,0,0.1,0,0.2-0.1c0.1,0,0.2-0.1,0.4-0.2c0.1,0,0.1-0.1,0.2-0.1
							c0.1,0,0.1,0,0.2,0c0.1,0,0.2,0,0.3,0c0.1,0,0.2,0.1,0.3,0.1C9.1,45,9.2,45,9.3,45.1L9.8,45C9.8,45.1,9.8,45,9.8,45z"/>
					</g>
					<g>
						<path class="st1" d="M2.6,43.9c-0.5-0.1-1-0.2-1.5-0.3c-0.3,0-0.5-0.1-0.8-0.1c-0.1,0-0.2,0-0.3,0v0.3c0.1,0,0.2,0,0.4,0
							c0.2,0,0.5,0,0.7,0c0.5,0.1,1,0.2,1.5,0.2c0.5,0.1,0.9,0.1,1.3,0.1c0.8,0,1.3,0,1.3,0s-0.5,0-1.3-0.1
							C3.5,44.1,3.1,44,2.6,43.9z"/>
					</g>
					<g>
						<path class="st1" d="M5.9,43.4c-0.2,0-0.4,0.1-0.7,0.1c-0.2,0-0.5,0-0.8,0c-0.3,0-0.5-0.1-0.8-0.1c-0.3-0.1-0.6-0.1-0.9-0.2
							c-1-0.2-1.9-0.2-2.7-0.2v0.4c0.8,0,1.7,0,2.7,0.1c0.3,0,0.6,0.1,0.9,0.1c0.3,0,0.6,0.1,0.8,0.1c0.3,0,0.5,0,0.8,0
							c0.3,0,0.5-0.1,0.7-0.1c0.2-0.1,0.4-0.1,0.6-0.2c0.2-0.1,0.3-0.2,0.4-0.2c0.2-0.1,0.3-0.2,0.3-0.2S7.1,42.9,6.8,43
							C6.6,43.2,6.3,43.3,5.9,43.4z"/>
					</g>
					<g>
						<path class="st1" d="M7.6,40.9c-0.1-0.1-0.1-0.1-0.2-0.1l-0.1,0c-0.3-0.1-0.6,0-0.9,0c-0.3,0-0.6,0-0.9,0c-0.6,0-1.1,0-1.6,0
							c-1.1,0-2-0.1-2.9-0.2c-0.3,0-0.7-0.1-1-0.1v0.3c0.3,0,0.6,0,0.9,0.1C1.8,41,2.8,41,3.8,41c0.5,0,1.1,0,1.6,0
							c0.3,0,0.6,0,0.8,0.1c0.2,0,0.4,0.1,0.6,0.1c0,0,0,0,0,0c-0.2,0.1-0.5,0.2-0.8,0.2c-0.5,0.1-1.1,0.2-1.6,0.3
							c-1,0.2-2,0.3-2.9,0.3c-0.6,0-1.2,0.1-1.7,0.1v0.4c0.5,0,1,0,1.7-0.1c0.9,0,1.8-0.1,2.9-0.2c0.5-0.1,1.1-0.1,1.6-0.3
							C6.5,42,6.8,42,7.1,41.8c0.1-0.1,0.3-0.1,0.5-0.3c0,0,0,0,0.1-0.1c0-0.1,0-0.1,0.1-0.2c0-0.1,0-0.2,0-0.2
							C7.6,41,7.6,41,7.6,40.9z M7.1,41.4C7.1,41.4,7.1,41.4,7.1,41.4L7.1,41.4C7.1,41.4,7.1,41.4,7.1,41.4z"/>
					</g>
				</g>
				<g>
					<path class="st2" d="M0,39.7c1.4,0.2,3.4,0.5,5.1,0.5c3.1,0,6.8-0.4,8.7-0.4c1.5,0.1,8.1,0.3,10.5,0.4v-0.6H0V39.7z"/>
				</g>
				<g>
					<path class="st2" d="M19.6,44.8c-1.7,0.3-8.4-0.1-12.8-0.2c-2.7,0-5.3,0.2-6.8,0.3v0.2h24.4v-0.6
						C22.6,44.5,20.5,44.6,19.6,44.8z"/>
				</g>
			</g>
			<g>
				<rect y="39.6" class="st3" width="0.8" height="0.8"/>
			</g>
			<g>
				<rect y="44.3" class="st3" width="0.8" height="0.8"/>
			</g>
			<g>
				<rect x="23.6" y="39.6" class="st3" width="0.8" height="0.8"/>
			</g>
			<g>
				<rect x="23.6" y="44.3" class="st3" width="0.8" height="0.8"/>
			</g>
		</g>
		<g>
			<g>
				<g>
					<path class="st4" d="M2.6,43.1H2.2c-0.4,0-0.7-0.3-0.7-0.7v-0.1c0-0.4,0.3-0.7,0.7-0.7h0.4V43.1z"/>
				</g>
				<g>
					<polygon class="st5" points="2,42.6 1.8,42.3 2,42.1 2.2,42.1 2.4,42.3 2.2,42.6 					"/>
				</g>
			</g>
			<g>
				<g>
					<path class="st4" d="M5.4,41.6h0.4c0.4,0,0.7,0.3,0.7,0.7v0.1c0,0.4-0.3,0.7-0.7,0.7H5.4V41.6z"/>
				</g>
				<g>
					<polygon class="st5" points="6.1,42.1 6.2,42.3 6.1,42.6 5.8,42.6 5.7,42.3 5.8,42.1 					"/>
				</g>
			</g>
		</g>
		<g>
			<g>
				<g>
					<path class="st4" d="M18.9,43.1h-0.4c-0.4,0-0.7-0.3-0.7-0.7v-0.1c0-0.4,0.3-0.7,0.7-0.7h0.4V43.1z"/>
				</g>
				<g>
					<polygon class="st5" points="18.3,42.6 18.2,42.3 18.3,42.1 18.6,42.1 18.7,42.3 18.6,42.6 					"/>
				</g>
			</g>
			<g>
				<g>
					<path class="st4" d="M21.8,41.6h0.4c0.4,0,0.7,0.3,0.7,0.7v0.1c0,0.4-0.3,0.7-0.7,0.7h-0.4V41.6z"/>
				</g>
				<g>
					<polygon class="st5" points="22.4,42.1 22.6,42.3 22.4,42.6 22.1,42.6 22,42.3 22.1,42.1 					"/>
				</g>
			</g>
		</g>
	</g>
	<g>
		<g>
			<g>
				<g>
					<g>
						<rect y="51.8" class="st0" width="24.4" height="5.5"/>
					</g>
					<g>
						<path class="st1" d="M4.4,52.5c0,0,0.5-0.1,1-0.1c0.2,0,0.5,0,0.7,0c0.2,0,0.3,0.1,0.3,0.1s-0.5,0-1,0
							C4.9,52.5,4.4,52.5,4.4,52.5L4.4,52.5z"/>
					</g>
					<g>
						<path class="st1" d="M15.9,55c0,0-0.1,0-0.3,0c-0.2,0-0.4,0-0.7,0c-0.2,0-0.5,0-0.7-0.1c-0.2,0-0.3-0.1-0.3-0.1s0.5,0,1,0
							c0.2,0,0.5,0,0.7,0C15.7,55,15.9,55,15.9,55L15.9,55z"/>
					</g>
					<g>
						<path class="st1" d="M17.6,56.5c0,0-0.3,0-0.7,0.1c-0.4,0-1,0-1.6,0c-0.6,0-1.2-0.1-1.6-0.1c-0.4-0.1-0.7-0.1-0.7-0.1
							s0.1,0,0.2,0c0.1,0,0.3,0,0.5,0c0.4,0,1,0,1.6,0c0.6,0,1.2,0.1,1.6,0.1C17.3,56.5,17.6,56.5,17.6,56.5L17.6,56.5z"/>
					</g>
					<g>
						<path class="st1" d="M22.4,51.8c-0.3,0.1-0.5,0.1-0.8,0.2c-0.7,0.1-1.5,0.3-2.3,0.4c-0.4,0.1-0.8,0.1-1.1,0.1
							c-0.2,0-0.4,0-0.6,0c-0.2,0-0.4,0-0.5,0c-0.7,0-1.3-0.2-1.9-0.4c-0.2-0.1-0.4-0.2-0.5-0.2h-0.9c0.3,0.2,0.7,0.4,1.2,0.6
							c0.6,0.2,1.2,0.4,2,0.5c0.2,0,0.4,0,0.6,0c0.2,0,0.4,0,0.6,0c0.4,0,0.8-0.1,1.2-0.2c0.8-0.2,1.5-0.3,2.2-0.5
							c0.5-0.1,1-0.2,1.5-0.3H22.4z"/>
					</g>
					<g>
						<path class="st1" d="M9.1,53.5c0.6-0.5,1.3-0.9,1.8-1.1c0.6-0.3,1.1-0.4,1.5-0.5c0,0,0,0,0,0h-0.6c-0.3,0.1-0.6,0.2-1,0.3
							c-0.6,0.2-1.3,0.5-2.1,1c-0.3,0.2-0.7,0.6-0.9,1.1l0,0.2c0,0.1,0,0.1,0,0.2c0,0.1,0.1,0.3,0.1,0.4c0.1,0.2,0.3,0.4,0.5,0.6
							c0.1,0.1,0.2,0.2,0.3,0.2C8.9,55.9,9,56,9.1,56.1c0.2,0.1,0.4,0.2,0.6,0.3c0.4,0.2,0.8,0.3,1.2,0.5c0.4,0.1,0.8,0.2,1.1,0.3
							c0.2,0,0.3,0.1,0.5,0.1h0.6c0,0,0,0,0,0c-0.3-0.1-0.6-0.2-1-0.3c-0.4-0.1-0.7-0.3-1.1-0.4c-0.4-0.2-0.7-0.4-1.1-0.6
							c-0.4-0.2-0.7-0.5-1-0.7c-0.3-0.3-0.4-0.6-0.4-0.9C8.6,54.1,8.8,53.8,9.1,53.5z"/>
					</g>
					<g>
						<path class="st1" d="M24.4,55.7c-0.3,0-0.6,0-1,0c-0.9,0-1.8,0-2.8-0.1c-1-0.1-2.1-0.1-3.2-0.1c-1.1,0-2.2-0.1-3.4-0.1
							c-0.6,0-1.2-0.1-1.7-0.1c-0.3,0-0.6-0.1-0.9-0.1c-0.1,0-0.3,0-0.4-0.1L10.7,55c0,0-0.1,0-0.1-0.1c0,0,0,0,0,0
							c0-0.1,0.1-0.1,0.2-0.2c0.2-0.1,0.5-0.2,0.8-0.3c0.5-0.2,1.1-0.3,1.7-0.4c0.6-0.1,1.1-0.1,1.7-0.1c0.5,0,1.1,0.1,1.7,0
							c1.1,0,2.2-0.1,3.2-0.2c1-0.1,2-0.2,2.8-0.3c0.6-0.1,1.2-0.1,1.7-0.2v-0.1c-0.5,0.1-1.1,0.1-1.7,0.1c-0.9,0.1-1.8,0.1-2.9,0.1
							c-1,0-2.1,0-3.2,0c-0.5,0-1.1-0.1-1.7-0.1c-0.6,0-1.2,0-1.8,0.1c-0.6,0.1-1.2,0.2-1.8,0.4c-0.3,0.1-0.6,0.2-0.9,0.4
							c-0.1,0.1-0.3,0.2-0.4,0.4c-0.1,0.1-0.1,0.3-0.1,0.4c0.1,0.2,0.2,0.2,0.3,0.3c0.1,0.1,0.2,0.1,0.3,0.1l0.2,0
							c0.1,0,0.3,0,0.5,0.1c0.3,0,0.6,0.1,0.9,0.1c0.6,0,1.2,0,1.8,0c1.2,0,2.3,0,3.4,0c1.1,0,2.2,0,3.2,0.1c0.5,0,1,0,1.5,0.1
							c0.5,0,0.9,0,1.4,0c0.3,0,0.7,0,1,0V55.7z"/>
					</g>
					<g>
						<path class="st1" d="M24.4,54.8c-0.3,0-0.6,0-1,0c-0.7,0-1.5,0-2.3,0c-0.4,0-0.9,0-1.3-0.1c-0.4,0-0.9-0.1-1.3-0.2
							c0,0,0.1,0,0.1,0c0.1,0,0.2,0,0.3,0c0.2,0,0.4,0,0.7-0.1c0.4,0,0.9-0.1,1.3-0.1c0.8-0.1,1.6-0.1,2.3-0.1c0.5,0,0.9,0,1.2-0.1
							v-0.3c-0.3,0-0.8,0.1-1.3,0.1c-0.7,0.1-1.5,0.1-2.3,0.2c-0.4,0-0.9,0.1-1.3,0.1c-0.2,0-0.4,0.1-0.7,0.1c-0.1,0-0.2,0-0.3,0.1
							c-0.1,0-0.1,0-0.2,0c0,0,0,0-0.1,0c0,0,0,0.1,0,0.1c0,0,0.1,0,0.1,0c0.5,0.1,0.9,0.1,1.3,0.2c0.4,0,0.9,0.1,1.3,0.1
							c0.8,0,1.6,0.1,2.3,0.1c0.4,0,0.7,0,1,0V54.8z"/>
					</g>
					<g>
						<path class="st1" d="M23.2,56.8c-0.2,0-0.4,0-0.6,0c-0.2,0-0.4,0-0.6,0c-0.4,0-0.8,0.1-1.2,0.1c-0.8,0.1-1.5,0.3-2.3,0.4
							c-0.1,0-0.1,0-0.2,0h1.3c0.4,0,0.8-0.1,1.2-0.1c0.4,0,0.8,0,1.2-0.1c0.2,0,0.4,0,0.6,0c0.2,0,0.4,0,0.5,0.1
							c0.2,0,0.4,0.1,0.5,0.1h0.6v-0.2C24,57,23.6,56.9,23.2,56.8z"/>
					</g>
					<g>
						<path class="st1" d="M9.8,57.3c-0.2-0.1-0.4-0.3-0.6-0.4c-0.1-0.1-0.3-0.1-0.4-0.1c-0.1,0-0.3,0-0.5,0c-0.1,0-0.3,0.1-0.4,0.2
							c-0.1,0.1-0.2,0.1-0.3,0.2c-0.2,0.1-0.3,0.2-0.5,0.2h0.4c0.1,0,0.1,0,0.2-0.1c0.1,0,0.2-0.1,0.4-0.2c0.1,0,0.1-0.1,0.2-0.1
							c0.1,0,0.1,0,0.2,0c0.1,0,0.2,0,0.3,0c0.1,0,0.2,0.1,0.3,0.1c0.1,0.1,0.2,0.1,0.3,0.2L9.8,57.3C9.8,57.3,9.8,57.3,9.8,57.3z"
							/>
					</g>
					<g>
						<path class="st1" d="M2.6,56.2c-0.5-0.1-1-0.2-1.5-0.3c-0.3,0-0.5-0.1-0.8-0.1c-0.1,0-0.2,0-0.3,0v0.3c0.1,0,0.2,0,0.4,0
							c0.2,0,0.5,0,0.7,0c0.5,0.1,1,0.2,1.5,0.2c0.5,0.1,0.9,0.1,1.3,0.1c0.8,0,1.3,0,1.3,0s-0.5,0-1.3-0.1
							C3.5,56.3,3.1,56.2,2.6,56.2z"/>
					</g>
					<g>
						<path class="st1" d="M5.9,55.6c-0.2,0-0.4,0.1-0.7,0.1c-0.2,0-0.5,0-0.8,0c-0.3,0-0.5-0.1-0.8-0.1c-0.3-0.1-0.6-0.1-0.9-0.2
							c-1-0.2-1.9-0.2-2.7-0.2v0.4c0.8,0,1.7,0,2.7,0.1c0.3,0,0.6,0.1,0.9,0.1c0.3,0,0.6,0.1,0.8,0.1c0.3,0,0.5,0,0.8,0
							c0.3,0,0.5-0.1,0.7-0.1c0.2-0.1,0.4-0.1,0.6-0.2c0.2-0.1,0.3-0.2,0.4-0.2c0.2-0.1,0.3-0.2,0.3-0.2s-0.1,0.1-0.3,0.2
							C6.6,55.4,6.3,55.5,5.9,55.6z"/>
					</g>
					<g>
						<path class="st1" d="M7.6,53.2c-0.1-0.1-0.1-0.1-0.2-0.1l-0.1,0c-0.3-0.1-0.6,0-0.9,0c-0.3,0-0.6,0-0.9,0c-0.6,0-1.1,0-1.6,0
							c-1.1,0-2-0.1-2.9-0.2c-0.3,0-0.7-0.1-1-0.1v0.3c0.3,0,0.6,0,0.9,0.1c0.8,0.1,1.8,0.1,2.9,0.1c0.5,0,1.1,0,1.6,0
							c0.3,0,0.6,0,0.8,0.1c0.2,0,0.4,0.1,0.6,0.1c0,0,0,0,0,0c-0.2,0.1-0.5,0.2-0.8,0.2C5.6,53.9,5,54,4.5,54.1
							c-1,0.2-2,0.3-2.9,0.3c-0.6,0-1.2,0.1-1.7,0.1v0.4c0.5,0,1,0,1.7-0.1c0.9,0,1.8-0.1,2.9-0.2c0.5-0.1,1.1-0.1,1.6-0.3
							c0.3-0.1,0.6-0.1,0.9-0.3C7.2,54,7.4,54,7.6,53.8c0,0,0,0,0.1-0.1c0-0.1,0-0.1,0.1-0.2c0-0.1,0-0.2,0-0.2
							C7.6,53.3,7.6,53.2,7.6,53.2z M7.1,53.6C7.1,53.6,7.1,53.6,7.1,53.6C7.1,53.6,7.1,53.6,7.1,53.6C7.1,53.6,7.1,53.6,7.1,53.6z"
							/>
					</g>
				</g>
				<g>
					<path class="st2" d="M0,52c1.4,0.2,3.4,0.5,5.1,0.5c3.1,0,6.8-0.4,8.7-0.4c1.5,0.1,8.1,0.3,10.5,0.4v-0.6H0V52z"/>
				</g>
				<g>
					<path class="st2" d="M19.6,57c-1.7,0.3-8.4-0.1-12.8-0.2C4,56.8,1.5,57,0,57.2v0.2h24.4v-0.6C22.6,56.8,20.5,56.9,19.6,57z"/>
				</g>
			</g>
			<g>
				<rect y="51.8" class="st3" width="0.8" height="0.8"/>
			</g>
			<g>
				<rect y="56.6" class="st3" width="0.8" height="0.8"/>
			</g>
			<g>
				<rect x="23.6" y="51.8" class="st3" width="0.8" height="0.8"/>
			</g>
			<g>
				<rect x="23.6" y="56.6" class="st3" width="0.8" height="0.8"/>
			</g>
		</g>
		<g>
			<g>
				<g>
					<path class="st4" d="M2.6,55.3H2.2c-0.4,0-0.7-0.3-0.7-0.7v-0.1c0-0.4,0.3-0.7,0.7-0.7h0.4V55.3z"/>
				</g>
				<g>
					<polygon class="st5" points="2,54.8 1.8,54.6 2,54.3 2.2,54.3 2.4,54.6 2.2,54.8 					"/>
				</g>
			</g>
			<g>
				<g>
					<path class="st4" d="M5.4,53.8h0.4c0.4,0,0.7,0.3,0.7,0.7v0.1c0,0.4-0.3,0.7-0.7,0.7H5.4V53.8z"/>
				</g>
				<g>
					<polygon class="st5" points="6.1,54.3 6.2,54.6 6.1,54.8 5.8,54.8 5.7,54.6 5.8,54.3 					"/>
				</g>
			</g>
		</g>
		<g>
			<g>
				<g>
					<path class="st4" d="M18.9,55.3h-0.4c-0.4,0-0.7-0.3-0.7-0.7v-0.1c0-0.4,0.3-0.7,0.7-0.7h0.4V55.3z"/>
				</g>
				<g>
					<polygon class="st5" points="18.3,54.8 18.2,54.6 18.3,54.3 18.6,54.3 18.7,54.6 18.6,54.8 					"/>
				</g>
			</g>
			<g>
				<g>
					<path class="st4" d="M21.8,53.8h0.4c0.4,0,0.7,0.3,0.7,0.7v0.1c0,0.4-0.3,0.7-0.7,0.7h-0.4V53.8z"/>
				</g>
				<g>
					<polygon class="st5" points="22.4,54.3 22.6,54.6 22.4,54.8 22.1,54.8 22,54.6 22.1,54.3 					"/>
				</g>
			</g>
		</g>
	</g>
	<g>
		<g>
			<g>
				<g>
					<g>
						<rect y="64.1" class="st0" width="24.4" height="5.5"/>
					</g>
					<g>
						<path class="st1" d="M4.4,64.7c0,0,0.5-0.1,1-0.1c0.2,0,0.5,0,0.7,0c0.2,0,0.3,0.1,0.3,0.1s-0.5,0-1,0
							C4.9,64.8,4.4,64.7,4.4,64.7L4.4,64.7z"/>
					</g>
					<g>
						<path class="st1" d="M15.9,67.2c0,0-0.1,0-0.3,0c-0.2,0-0.4,0-0.7,0c-0.2,0-0.5,0-0.7-0.1c-0.2,0-0.3-0.1-0.3-0.1s0.5,0,1,0
							c0.2,0,0.5,0,0.7,0C15.7,67.2,15.9,67.2,15.9,67.2L15.9,67.2z"/>
					</g>
					<g>
						<path class="st1" d="M17.6,68.8c0,0-0.3,0-0.7,0.1c-0.4,0-1,0-1.6,0c-0.6,0-1.2-0.1-1.6-0.1c-0.4-0.1-0.7-0.1-0.7-0.1
							s0.1,0,0.2,0c0.1,0,0.3,0,0.5,0c0.4,0,1,0,1.6,0c0.6,0,1.2,0.1,1.6,0.1C17.3,68.7,17.6,68.8,17.6,68.8L17.6,68.8z"/>
					</g>
					<g>
						<path class="st1" d="M22.4,64.1c-0.3,0.1-0.5,0.1-0.8,0.2c-0.7,0.1-1.5,0.3-2.3,0.4c-0.4,0.1-0.8,0.1-1.1,0.1
							c-0.2,0-0.4,0-0.6,0c-0.2,0-0.4,0-0.5,0c-0.7,0-1.3-0.2-1.9-0.4c-0.2-0.1-0.4-0.2-0.5-0.2h-0.9c0.3,0.2,0.7,0.4,1.2,0.6
							c0.6,0.2,1.2,0.4,2,0.5c0.2,0,0.4,0,0.6,0c0.2,0,0.4,0,0.6,0c0.4,0,0.8-0.1,1.2-0.2c0.8-0.2,1.5-0.3,2.2-0.5
							c0.5-0.1,1-0.2,1.5-0.3H22.4z"/>
					</g>
					<g>
						<path class="st1" d="M9.1,65.8c0.6-0.5,1.3-0.9,1.8-1.1c0.6-0.3,1.1-0.4,1.5-0.5c0,0,0,0,0,0h-0.6c-0.3,0.1-0.6,0.2-1,0.3
							c-0.6,0.2-1.3,0.5-2.1,1C8.5,65.6,8.1,66,8,66.5l0,0.2c0,0.1,0,0.1,0,0.2c0,0.1,0.1,0.3,0.1,0.4c0.1,0.2,0.3,0.4,0.5,0.6
							c0.1,0.1,0.2,0.2,0.3,0.2c0.1,0.1,0.2,0.1,0.3,0.2c0.2,0.1,0.4,0.2,0.6,0.3c0.4,0.2,0.8,0.3,1.2,0.5c0.4,0.1,0.8,0.2,1.1,0.3
							c0.2,0,0.3,0.1,0.5,0.1h0.6c0,0,0,0,0,0c-0.3-0.1-0.6-0.2-1-0.3c-0.4-0.1-0.7-0.3-1.1-0.4c-0.4-0.2-0.7-0.4-1.1-0.6
							c-0.4-0.2-0.7-0.5-1-0.7c-0.3-0.3-0.4-0.6-0.4-0.9C8.6,66.3,8.8,66,9.1,65.8z"/>
					</g>
					<g>
						<path class="st1" d="M24.4,67.9c-0.3,0-0.6,0-1,0c-0.9,0-1.8,0-2.8-0.1c-1-0.1-2.1-0.1-3.2-0.1c-1.1,0-2.2-0.1-3.4-0.1
							c-0.6,0-1.2-0.1-1.7-0.1c-0.3,0-0.6-0.1-0.9-0.1c-0.1,0-0.3,0-0.4-0.1l-0.2-0.1c0,0-0.1,0-0.1-0.1c0,0,0,0,0,0
							c0-0.1,0.1-0.1,0.2-0.2c0.2-0.1,0.5-0.2,0.8-0.3c0.5-0.2,1.1-0.3,1.7-0.4c0.6-0.1,1.1-0.1,1.7-0.1c0.5,0,1.1,0.1,1.7,0
							c1.1,0,2.2-0.1,3.2-0.2c1-0.1,2-0.2,2.8-0.3c0.6-0.1,1.2-0.1,1.7-0.2v-0.1c-0.5,0.1-1.1,0.1-1.7,0.1c-0.9,0.1-1.8,0.1-2.9,0.1
							c-1,0-2.1,0-3.2,0c-0.5,0-1.1-0.1-1.7-0.1c-0.6,0-1.2,0-1.8,0.1c-0.6,0.1-1.2,0.2-1.8,0.4c-0.3,0.1-0.6,0.2-0.9,0.4
							c-0.1,0.1-0.3,0.2-0.4,0.4c-0.1,0.1-0.1,0.3-0.1,0.4c0.1,0.2,0.2,0.2,0.3,0.3c0.1,0.1,0.2,0.1,0.3,0.1l0.2,0
							c0.1,0,0.3,0,0.5,0.1c0.3,0,0.6,0.1,0.9,0.1c0.6,0,1.2,0,1.8,0c1.2,0,2.3,0,3.4,0c1.1,0,2.2,0,3.2,0.1c0.5,0,1,0,1.5,0.1
							c0.5,0,0.9,0,1.4,0c0.3,0,0.7,0,1,0V67.9z"/>
					</g>
					<g>
						<path class="st1" d="M24.4,67.1c-0.3,0-0.6,0-1,0c-0.7,0-1.5,0-2.3,0c-0.4,0-0.9,0-1.3-0.1c-0.4,0-0.9-0.1-1.3-0.2
							c0,0,0.1,0,0.1,0c0.1,0,0.2,0,0.3,0c0.2,0,0.4,0,0.7-0.1c0.4,0,0.9-0.1,1.3-0.1c0.8-0.1,1.6-0.1,2.3-0.1c0.5,0,0.9,0,1.2-0.1
							v-0.3c-0.3,0-0.8,0.1-1.3,0.1c-0.7,0.1-1.5,0.1-2.3,0.2c-0.4,0-0.9,0.1-1.3,0.1c-0.2,0-0.4,0.1-0.7,0.1c-0.1,0-0.2,0-0.3,0.1
							c-0.1,0-0.1,0-0.2,0c0,0,0,0-0.1,0c0,0,0,0.1,0,0.1c0,0,0.1,0,0.1,0c0.5,0.1,0.9,0.1,1.3,0.2c0.4,0,0.9,0.1,1.3,0.1
							c0.8,0,1.6,0.1,2.3,0.1c0.4,0,0.7,0,1,0V67.1z"/>
					</g>
					<g>
						<path class="st1" d="M23.2,69.1c-0.2,0-0.4,0-0.6,0c-0.2,0-0.4,0-0.6,0c-0.4,0-0.8,0.1-1.2,0.1c-0.8,0.1-1.5,0.3-2.3,0.4
							c-0.1,0-0.1,0-0.2,0h1.3c0.4,0,0.8-0.1,1.2-0.1c0.4,0,0.8,0,1.2-0.1c0.2,0,0.4,0,0.6,0c0.2,0,0.4,0,0.5,0.1
							c0.2,0,0.4,0.1,0.5,0.1h0.6v-0.2C24,69.2,23.6,69.1,23.2,69.1z"/>
					</g>
					<g>
						<path class="st1" d="M9.8,69.5c-0.2-0.1-0.4-0.3-0.6-0.4C9,69,8.9,69,8.7,69c-0.1,0-0.3,0-0.5,0c-0.1,0-0.3,0.1-0.4,0.2
							c-0.1,0.1-0.2,0.1-0.3,0.2c-0.2,0.1-0.3,0.2-0.5,0.2h0.4c0.1,0,0.1,0,0.2-0.1c0.1,0,0.2-0.1,0.4-0.2c0.1,0,0.1-0.1,0.2-0.1
							c0.1,0,0.1,0,0.2,0c0.1,0,0.2,0,0.3,0c0.1,0,0.2,0.1,0.3,0.1c0.1,0.1,0.2,0.1,0.3,0.2L9.8,69.5C9.8,69.6,9.8,69.5,9.8,69.5z"
							/>
					</g>
					<g>
						<path class="st1" d="M2.6,68.4c-0.5-0.1-1-0.2-1.5-0.3c-0.3,0-0.5-0.1-0.8-0.1c-0.1,0-0.2,0-0.3,0v0.3c0.1,0,0.2,0,0.4,0
							c0.2,0,0.5,0,0.7,0c0.5,0.1,1,0.2,1.5,0.2c0.5,0.1,0.9,0.1,1.3,0.1c0.8,0,1.3,0,1.3,0s-0.5,0-1.3-0.1
							C3.5,68.6,3.1,68.5,2.6,68.4z"/>
					</g>
					<g>
						<path class="st1" d="M5.9,67.9c-0.2,0-0.4,0.1-0.7,0.1c-0.2,0-0.5,0-0.8,0c-0.3,0-0.5-0.1-0.8-0.1c-0.3-0.1-0.6-0.1-0.9-0.2
							c-1-0.2-1.9-0.2-2.7-0.2v0.4c0.8,0,1.7,0,2.7,0.1C3,68,3.3,68,3.5,68.1c0.3,0,0.6,0.1,0.8,0.1c0.3,0,0.5,0,0.8,0
							c0.3,0,0.5-0.1,0.7-0.1c0.2-0.1,0.4-0.1,0.6-0.2c0.2-0.1,0.3-0.2,0.4-0.2c0.2-0.1,0.3-0.2,0.3-0.2s-0.1,0.1-0.3,0.2
							C6.6,67.7,6.3,67.8,5.9,67.9z"/>
					</g>
					<g>
						<path class="st1" d="M7.6,65.4c-0.1-0.1-0.1-0.1-0.2-0.1l-0.1,0c-0.3-0.1-0.6,0-0.9,0c-0.3,0-0.6,0-0.9,0c-0.6,0-1.1,0-1.6,0
							c-1.1,0-2-0.1-2.9-0.2c-0.3,0-0.7-0.1-1-0.1v0.3c0.3,0,0.6,0,0.9,0.1c0.8,0.1,1.8,0.1,2.9,0.1c0.5,0,1.1,0,1.6,0
							c0.3,0,0.6,0,0.8,0.1c0.2,0,0.4,0.1,0.6,0.1c0,0,0,0,0,0c-0.2,0.1-0.5,0.2-0.8,0.2c-0.5,0.1-1.1,0.2-1.6,0.3
							c-1,0.2-2,0.3-2.9,0.3c-0.6,0-1.2,0.1-1.7,0.1v0.4c0.5,0,1,0,1.7-0.1c0.9,0,1.8-0.1,2.9-0.2c0.5-0.1,1.1-0.1,1.6-0.3
							c0.3-0.1,0.6-0.1,0.9-0.3c0.1-0.1,0.3-0.1,0.5-0.3c0,0,0,0,0.1-0.1c0-0.1,0-0.1,0.1-0.2c0-0.1,0-0.2,0-0.2
							C7.6,65.5,7.6,65.5,7.6,65.4z M7.1,65.9C7.1,65.9,7.1,65.9,7.1,65.9L7.1,65.9C7.1,65.9,7.1,65.9,7.1,65.9z"/>
					</g>
				</g>
				<g>
					<path class="st2" d="M0,64.2c1.4,0.2,3.4,0.5,5.1,0.5c3.1,0,6.8-0.4,8.7-0.4c1.5,0.1,8.1,0.3,10.5,0.4v-0.6H0V64.2z"/>
				</g>
				<g>
					<path class="st2" d="M19.6,69.3c-1.7,0.3-8.4-0.1-12.8-0.2C4,69,1.5,69.3,0,69.4v0.2h24.4V69C22.6,69.1,20.5,69.1,19.6,69.3z"
						/>
				</g>
			</g>
			<g>
				<rect y="64.1" class="st3" width="0.8" height="0.8"/>
			</g>
			<g>
				<rect y="68.8" class="st3" width="0.8" height="0.8"/>
			</g>
			<g>
				<rect x="23.6" y="64.1" class="st3" width="0.8" height="0.8"/>
			</g>
			<g>
				<rect x="23.6" y="68.8" class="st3" width="0.8" height="0.8"/>
			</g>
		</g>
		<g>
			<g>
				<g>
					<path class="st4" d="M2.6,67.6H2.2c-0.4,0-0.7-0.3-0.7-0.7v-0.1c0-0.4,0.3-0.7,0.7-0.7h0.4V67.6z"/>
				</g>
				<g>
					<polygon class="st5" points="2,67.1 1.8,66.8 2,66.6 2.2,66.6 2.4,66.8 2.2,67.1 					"/>
				</g>
			</g>
			<g>
				<g>
					<path class="st4" d="M5.4,66.1h0.4c0.4,0,0.7,0.3,0.7,0.7v0.1c0,0.4-0.3,0.7-0.7,0.7H5.4V66.1z"/>
				</g>
				<g>
					<polygon class="st5" points="6.1,66.6 6.2,66.8 6.1,67.1 5.8,67.1 5.7,66.8 5.8,66.6 					"/>
				</g>
			</g>
		</g>
		<g>
			<g>
				<g>
					<path class="st4" d="M18.9,67.6h-0.4c-0.4,0-0.7-0.3-0.7-0.7v-0.1c0-0.4,0.3-0.7,0.7-0.7h0.4V67.6z"/>
				</g>
				<g>
					<polygon class="st5" points="18.3,67.1 18.2,66.8 18.3,66.6 18.6,66.6 18.7,66.8 18.6,67.1 					"/>
				</g>
			</g>
			<g>
				<g>
					<path class="st4" d="M21.8,66.1h0.4c0.4,0,0.7,0.3,0.7,0.7v0.1c0,0.4-0.3,0.7-0.7,0.7h-0.4V66.1z"/>
				</g>
				<g>
					<polygon class="st5" points="22.4,66.6 22.6,66.8 22.4,67.1 22.1,67.1 22,66.8 22.1,66.6 					"/>
				</g>
			</g>
		</g>
	</g>
	<g>
		<g>
			<g>
				<g>
					<g>
						<rect y="76.3" class="st0" width="24.4" height="5.5"/>
					</g>
					<g>
						<path class="st1" d="M4.4,77c0,0,0.5-0.1,1-0.1c0.2,0,0.5,0,0.7,0C6.2,77,6.4,77,6.4,77s-0.5,0-1,0C4.9,77,4.4,77,4.4,77
							L4.4,77z"/>
					</g>
					<g>
						<path class="st1" d="M15.9,79.5c0,0-0.1,0-0.3,0c-0.2,0-0.4,0-0.7,0c-0.2,0-0.5,0-0.7-0.1c-0.2,0-0.3-0.1-0.3-0.1s0.5,0,1,0
							c0.2,0,0.5,0,0.7,0C15.7,79.5,15.9,79.5,15.9,79.5L15.9,79.5z"/>
					</g>
					<g>
						<path class="st1" d="M17.6,81.1c0,0-0.3,0-0.7,0.1c-0.4,0-1,0-1.6,0c-0.6,0-1.2-0.1-1.6-0.1c-0.4-0.1-0.7-0.1-0.7-0.1
							s0.1,0,0.2,0c0.1,0,0.3,0,0.5,0c0.4,0,1,0,1.6,0c0.6,0,1.2,0.1,1.6,0.1C17.3,81,17.6,81,17.6,81.1L17.6,81.1z"/>
					</g>
					<g>
						<path class="st1" d="M22.4,76.3c-0.3,0.1-0.5,0.1-0.8,0.2c-0.7,0.1-1.5,0.3-2.3,0.4C19,76.9,18.6,77,18.2,77
							c-0.2,0-0.4,0-0.6,0c-0.2,0-0.4,0-0.5,0c-0.7,0-1.3-0.2-1.9-0.4c-0.2-0.1-0.4-0.2-0.5-0.2h-0.9c0.3,0.2,0.7,0.4,1.2,0.6
							c0.6,0.2,1.2,0.4,2,0.5c0.2,0,0.4,0,0.6,0c0.2,0,0.4,0,0.6,0c0.4,0,0.8-0.1,1.2-0.2c0.8-0.2,1.5-0.3,2.2-0.5
							c0.5-0.1,1-0.2,1.5-0.3H22.4z"/>
					</g>
					<g>
						<path class="st1" d="M9.1,78c0.6-0.5,1.3-0.9,1.8-1.1c0.6-0.3,1.1-0.4,1.5-0.5c0,0,0,0,0,0h-0.6c-0.3,0.1-0.6,0.2-1,0.3
							c-0.6,0.2-1.3,0.5-2.1,1c-0.3,0.2-0.7,0.6-0.9,1.1l0,0.2c0,0.1,0,0.1,0,0.2c0,0.1,0.1,0.3,0.1,0.4c0.1,0.2,0.3,0.4,0.5,0.6
							c0.1,0.1,0.2,0.2,0.3,0.2c0.1,0.1,0.2,0.1,0.3,0.2c0.2,0.1,0.4,0.2,0.6,0.3c0.4,0.2,0.8,0.3,1.2,0.5c0.4,0.1,0.8,0.2,1.1,0.3
							c0.2,0,0.3,0.1,0.5,0.1h0.6c0,0,0,0,0,0c-0.3-0.1-0.6-0.2-1-0.3c-0.4-0.1-0.7-0.3-1.1-0.4c-0.4-0.2-0.7-0.4-1.1-0.6
							c-0.4-0.2-0.7-0.5-1-0.7c-0.3-0.3-0.4-0.6-0.4-0.9C8.6,78.6,8.8,78.3,9.1,78z"/>
					</g>
					<g>
						<path class="st1" d="M24.4,80.2c-0.3,0-0.6,0-1,0c-0.9,0-1.8,0-2.8-0.1c-1-0.1-2.1-0.1-3.2-0.1c-1.1,0-2.2-0.1-3.4-0.1
							c-0.6,0-1.2-0.1-1.7-0.1c-0.3,0-0.6-0.1-0.9-0.1c-0.1,0-0.3,0-0.4-0.1l-0.2-0.1c0,0-0.1,0-0.1-0.1c0,0,0,0,0,0
							c0-0.1,0.1-0.1,0.2-0.2c0.2-0.1,0.5-0.2,0.8-0.3c0.5-0.2,1.1-0.3,1.7-0.4c0.6-0.1,1.1-0.1,1.7-0.1c0.5,0,1.1,0.1,1.7,0
							c1.1,0,2.2-0.1,3.2-0.2c1-0.1,2-0.2,2.8-0.3c0.6-0.1,1.2-0.1,1.7-0.2v-0.1c-0.5,0.1-1.1,0.1-1.7,0.1c-0.9,0.1-1.8,0.1-2.9,0.1
							c-1,0-2.1,0-3.2,0c-0.5,0-1.1-0.1-1.7-0.1c-0.6,0-1.2,0-1.8,0.1c-0.6,0.1-1.2,0.2-1.8,0.4c-0.3,0.1-0.6,0.2-0.9,0.4
							c-0.1,0.1-0.3,0.2-0.4,0.4c-0.1,0.1-0.1,0.3-0.1,0.4c0.1,0.2,0.2,0.2,0.3,0.3c0.1,0.1,0.2,0.1,0.3,0.1l0.2,0
							c0.1,0,0.3,0,0.5,0.1c0.3,0,0.6,0.1,0.9,0.1c0.6,0,1.2,0,1.8,0c1.2,0,2.3,0,3.4,0c1.1,0,2.2,0,3.2,0.1c0.5,0,1,0,1.5,0.1
							c0.5,0,0.9,0,1.4,0c0.3,0,0.7,0,1,0V80.2z"/>
					</g>
					<g>
						<path class="st1" d="M24.4,79.3c-0.3,0-0.6,0-1,0c-0.7,0-1.5,0-2.3,0c-0.4,0-0.9,0-1.3-0.1c-0.4,0-0.9-0.1-1.3-0.2
							c0,0,0.1,0,0.1,0c0.1,0,0.2,0,0.3,0c0.2,0,0.4,0,0.7-0.1c0.4,0,0.9-0.1,1.3-0.1c0.8-0.1,1.6-0.1,2.3-0.1c0.5,0,0.9,0,1.2-0.1
							v-0.3c-0.3,0-0.8,0.1-1.3,0.1c-0.7,0.1-1.5,0.1-2.3,0.2c-0.4,0-0.9,0.1-1.3,0.1c-0.2,0-0.4,0.1-0.7,0.1c-0.1,0-0.2,0-0.3,0.1
							c-0.1,0-0.1,0-0.2,0c0,0,0,0-0.1,0c0,0,0,0.1,0,0.1c0,0,0.1,0,0.1,0c0.5,0.1,0.9,0.1,1.3,0.2c0.4,0,0.9,0.1,1.3,0.1
							c0.8,0,1.6,0.1,2.3,0.1c0.4,0,0.7,0,1,0V79.3z"/>
					</g>
					<g>
						<path class="st1" d="M23.2,81.3c-0.2,0-0.4,0-0.6,0c-0.2,0-0.4,0-0.6,0c-0.4,0-0.8,0.1-1.2,0.1c-0.8,0.1-1.5,0.3-2.3,0.4
							c-0.1,0-0.1,0-0.2,0h1.3c0.4,0,0.8-0.1,1.2-0.1c0.4,0,0.8,0,1.2-0.1c0.2,0,0.4,0,0.6,0c0.2,0,0.4,0,0.5,0.1
							c0.2,0,0.4,0.1,0.5,0.1h0.6v-0.2C24,81.5,23.6,81.4,23.2,81.3z"/>
					</g>
					<g>
						<path class="st1" d="M9.8,81.8c-0.2-0.1-0.4-0.3-0.6-0.4c-0.1-0.1-0.3-0.1-0.4-0.1c-0.1,0-0.3,0-0.5,0c-0.1,0-0.3,0.1-0.4,0.2
							c-0.1,0.1-0.2,0.1-0.3,0.2c-0.2,0.1-0.3,0.2-0.5,0.2h0.4c0.1,0,0.1,0,0.2-0.1c0.1,0,0.2-0.1,0.4-0.2c0.1,0,0.1-0.1,0.2-0.1
							c0.1,0,0.1,0,0.2,0c0.1,0,0.2,0,0.3,0c0.1,0,0.2,0.1,0.3,0.1c0.1,0.1,0.2,0.1,0.3,0.2L9.8,81.8C9.8,81.8,9.8,81.8,9.8,81.8z"
							/>
					</g>
					<g>
						<path class="st1" d="M2.6,80.7c-0.5-0.1-1-0.2-1.5-0.3c-0.3,0-0.5-0.1-0.8-0.1c-0.1,0-0.2,0-0.3,0v0.3c0.1,0,0.2,0,0.4,0
							c0.2,0,0.5,0,0.7,0c0.5,0.1,1,0.2,1.5,0.2c0.5,0.1,0.9,0.1,1.3,0.1c0.8,0,1.3,0,1.3,0s-0.5,0-1.3-0.1
							C3.5,80.8,3.1,80.8,2.6,80.7z"/>
					</g>
					<g>
						<path class="st1" d="M5.9,80.1c-0.2,0-0.4,0.1-0.7,0.1c-0.2,0-0.5,0-0.8,0c-0.3,0-0.5-0.1-0.8-0.1C3.3,80,3,79.9,2.7,79.9
							c-1-0.2-1.9-0.2-2.7-0.2v0.4c0.8,0,1.7,0,2.7,0.1c0.3,0,0.6,0.1,0.9,0.1c0.3,0,0.6,0.1,0.8,0.1c0.3,0,0.5,0,0.8,0
							c0.3,0,0.5-0.1,0.7-0.1c0.2-0.1,0.4-0.1,0.6-0.2c0.2-0.1,0.3-0.2,0.4-0.2c0.2-0.1,0.3-0.2,0.3-0.2s-0.1,0.1-0.3,0.2
							C6.6,79.9,6.3,80,5.9,80.1z"/>
					</g>
					<g>
						<path class="st1" d="M7.6,77.7c-0.1-0.1-0.1-0.1-0.2-0.1l-0.1,0c-0.3-0.1-0.6,0-0.9,0c-0.3,0-0.6,0-0.9,0c-0.6,0-1.1,0-1.6,0
							c-1.1,0-2-0.1-2.9-0.2c-0.3,0-0.7-0.1-1-0.1v0.3c0.3,0,0.6,0,0.9,0.1c0.8,0.1,1.8,0.1,2.9,0.1c0.5,0,1.1,0,1.6,0
							c0.3,0,0.6,0,0.8,0.1c0.2,0,0.4,0.1,0.6,0.1c0,0,0,0,0,0c-0.2,0.1-0.5,0.2-0.8,0.2c-0.5,0.1-1.1,0.2-1.6,0.3
							c-1,0.2-2,0.3-2.9,0.3C1,79,0.5,79,0,79v0.4c0.5,0,1,0,1.7-0.1c0.9,0,1.8-0.1,2.9-0.2c0.5-0.1,1.1-0.1,1.6-0.3
							c0.3-0.1,0.6-0.1,0.9-0.3c0.1-0.1,0.3-0.1,0.5-0.3c0,0,0,0,0.1-0.1c0-0.1,0-0.1,0.1-0.2c0-0.1,0-0.2,0-0.2
							C7.6,77.8,7.6,77.7,7.6,77.7z M7.1,78.1C7.1,78.1,7.1,78.1,7.1,78.1L7.1,78.1C7.1,78.1,7.1,78.1,7.1,78.1z"/>
					</g>
				</g>
				<g>
					<path class="st2" d="M0,76.5c1.4,0.2,3.4,0.5,5.1,0.5c3.1,0,6.8-0.4,8.7-0.4c1.5,0.1,8.1,0.3,10.5,0.4v-0.6H0V76.5z"/>
				</g>
				<g>
					<path class="st2" d="M19.6,81.5c-1.7,0.3-8.4-0.1-12.8-0.2c-2.7,0-5.3,0.2-6.8,0.3v0.2h24.4v-0.6
						C22.6,81.3,20.5,81.4,19.6,81.5z"/>
				</g>
			</g>
			<g>
				<rect y="76.3" class="st3" width="0.8" height="0.8"/>
			</g>
			<g>
				<rect y="81.1" class="st3" width="0.8" height="0.8"/>
			</g>
			<g>
				<rect x="23.6" y="76.3" class="st3" width="0.8" height="0.8"/>
			</g>
			<g>
				<rect x="23.6" y="81.1" class="st3" width="0.8" height="0.8"/>
			</g>
		</g>
		<g>
			<g>
				<g>
					<path class="st4" d="M2.6,79.8H2.2c-0.4,0-0.7-0.3-0.7-0.7V79c0-0.4,0.3-0.7,0.7-0.7h0.4V79.8z"/>
				</g>
				<g>
					<polygon class="st5" points="2,79.3 1.8,79.1 2,78.8 2.2,78.8 2.4,79.1 2.2,79.3 					"/>
				</g>
			</g>
			<g>
				<g>
					<path class="st4" d="M5.4,78.3h0.4c0.4,0,0.7,0.3,0.7,0.7v0.1c0,0.4-0.3,0.7-0.7,0.7H5.4V78.3z"/>
				</g>
				<g>
					<polygon class="st5" points="6.1,78.8 6.2,79.1 6.1,79.3 5.8,79.3 5.7,79.1 5.8,78.8 					"/>
				</g>
			</g>
		</g>
		<g>
			<g>
				<g>
					<path class="st4" d="M18.9,79.8h-0.4c-0.4,0-0.7-0.3-0.7-0.7V79c0-0.4,0.3-0.7,0.7-0.7h0.4V79.8z"/>
				</g>
				<g>
					<polygon class="st5" points="18.3,79.3 18.2,79.1 18.3,78.8 18.6,78.8 18.7,79.1 18.6,79.3 					"/>
				</g>
			</g>
			<g>
				<g>
					<path class="st4" d="M21.8,78.3h0.4c0.4,0,0.7,0.3,0.7,0.7v0.1c0,0.4-0.3,0.7-0.7,0.7h-0.4V78.3z"/>
				</g>
				<g>
					<polygon class="st5" points="22.4,78.8 22.6,79.1 22.4,79.3 22.1,79.3 22,79.1 22.1,78.8 					"/>
				</g>
			</g>
		</g>
	</g>
	<g>
		<g>
			<g>
				<g>
					<g>
						<rect y="88.6" class="st0" width="24.4" height="5.5"/>
					</g>
					<g>
						<path class="st1" d="M4.4,89.2c0,0,0.5-0.1,1-0.1c0.2,0,0.5,0,0.7,0c0.2,0,0.3,0.1,0.3,0.1s-0.5,0-1,0
							C4.9,89.3,4.4,89.2,4.4,89.2L4.4,89.2z"/>
					</g>
					<g>
						<path class="st1" d="M15.9,91.7c0,0-0.1,0-0.3,0c-0.2,0-0.4,0-0.7,0c-0.2,0-0.5,0-0.7-0.1c-0.2,0-0.3-0.1-0.3-0.1s0.5,0,1,0
							c0.2,0,0.5,0,0.7,0C15.7,91.7,15.9,91.7,15.9,91.7L15.9,91.7z"/>
					</g>
					<g>
						<path class="st1" d="M17.6,93.3c0,0-0.3,0-0.7,0.1c-0.4,0-1,0-1.6,0c-0.6,0-1.2-0.1-1.6-0.1c-0.4-0.1-0.7-0.1-0.7-0.1
							s0.1,0,0.2,0c0.1,0,0.3,0,0.5,0c0.4,0,1,0,1.6,0c0.6,0,1.2,0.1,1.6,0.1C17.3,93.3,17.6,93.3,17.6,93.3L17.6,93.3z"/>
					</g>
					<g>
						<path class="st1" d="M22.4,88.6c-0.3,0.1-0.5,0.1-0.8,0.2c-0.7,0.1-1.5,0.3-2.3,0.4c-0.4,0.1-0.8,0.1-1.1,0.1
							c-0.2,0-0.4,0-0.6,0c-0.2,0-0.4,0-0.5,0c-0.7,0-1.3-0.2-1.9-0.4c-0.2-0.1-0.4-0.2-0.5-0.2h-0.9c0.3,0.2,0.7,0.4,1.2,0.6
							c0.6,0.2,1.2,0.4,2,0.5c0.2,0,0.4,0,0.6,0c0.2,0,0.4,0,0.6,0c0.4,0,0.8-0.1,1.2-0.2c0.8-0.2,1.5-0.3,2.2-0.5
							c0.5-0.1,1-0.2,1.5-0.3H22.4z"/>
					</g>
					<g>
						<path class="st1" d="M9.1,90.3c0.6-0.5,1.3-0.9,1.8-1.1c0.6-0.3,1.1-0.4,1.5-0.5c0,0,0,0,0,0h-0.6c-0.3,0.1-0.6,0.2-1,0.3
							c-0.6,0.2-1.3,0.5-2.1,1C8.5,90.1,8.1,90.5,8,91l0,0.2c0,0.1,0,0.1,0,0.2c0,0.1,0.1,0.3,0.1,0.4c0.1,0.2,0.3,0.4,0.5,0.6
							c0.1,0.1,0.2,0.2,0.3,0.2c0.1,0.1,0.2,0.1,0.3,0.2c0.2,0.1,0.4,0.2,0.6,0.3c0.4,0.2,0.8,0.3,1.2,0.5c0.4,0.1,0.8,0.2,1.1,0.3
							c0.2,0,0.3,0.1,0.5,0.1h0.6c0,0,0,0,0,0c-0.3-0.1-0.6-0.2-1-0.3c-0.4-0.1-0.7-0.3-1.1-0.4c-0.4-0.2-0.7-0.4-1.1-0.6
							c-0.4-0.2-0.7-0.5-1-0.7c-0.3-0.3-0.4-0.6-0.4-0.9C8.6,90.8,8.8,90.5,9.1,90.3z"/>
					</g>
					<g>
						<path class="st1" d="M24.4,92.4c-0.3,0-0.6,0-1,0c-0.9,0-1.8,0-2.8-0.1c-1-0.1-2.1-0.1-3.2-0.1c-1.1,0-2.2-0.1-3.4-0.1
							c-0.6,0-1.2-0.1-1.7-0.1c-0.3,0-0.6-0.1-0.9-0.1c-0.1,0-0.3,0-0.4-0.1l-0.2-0.1c0,0-0.1,0-0.1-0.1c0,0,0,0,0,0
							c0-0.1,0.1-0.1,0.2-0.2c0.2-0.1,0.5-0.2,0.8-0.3c0.5-0.2,1.1-0.3,1.7-0.4c0.6-0.1,1.1-0.1,1.7-0.1c0.5,0,1.1,0.1,1.7,0
							c1.1,0,2.2-0.1,3.2-0.2c1-0.1,2-0.2,2.8-0.3c0.6-0.1,1.2-0.1,1.7-0.2V90c-0.5,0.1-1.1,0.1-1.7,0.1c-0.9,0.1-1.8,0.1-2.9,0.1
							c-1,0-2.1,0-3.2,0c-0.5,0-1.1-0.1-1.7-0.1c-0.6,0-1.2,0-1.8,0.1c-0.6,0.1-1.2,0.2-1.8,0.4c-0.3,0.1-0.6,0.2-0.9,0.4
							c-0.1,0.1-0.3,0.2-0.4,0.4c-0.1,0.1-0.1,0.3-0.1,0.4c0.1,0.2,0.2,0.2,0.3,0.3c0.1,0.1,0.2,0.1,0.3,0.1l0.2,0
							c0.1,0,0.3,0,0.5,0.1c0.3,0,0.6,0.1,0.9,0.1c0.6,0,1.2,0,1.8,0c1.2,0,2.3,0,3.4,0c1.1,0,2.2,0,3.2,0.1c0.5,0,1,0,1.5,0.1
							c0.5,0,0.9,0,1.4,0c0.3,0,0.7,0,1,0V92.4z"/>
					</g>
					<g>
						<path class="st1" d="M24.4,91.6c-0.3,0-0.6,0-1,0c-0.7,0-1.5,0-2.3,0c-0.4,0-0.9,0-1.3-0.1c-0.4,0-0.9-0.1-1.3-0.2
							c0,0,0.1,0,0.1,0c0.1,0,0.2,0,0.3,0c0.2,0,0.4,0,0.7-0.1c0.4,0,0.9-0.1,1.3-0.1c0.8-0.1,1.6-0.1,2.3-0.1c0.5,0,0.9,0,1.2-0.1
							v-0.3c-0.3,0-0.8,0.1-1.3,0.1c-0.7,0.1-1.5,0.1-2.3,0.2c-0.4,0-0.9,0.1-1.3,0.1c-0.2,0-0.4,0.1-0.7,0.1c-0.1,0-0.2,0-0.3,0.1
							c-0.1,0-0.1,0-0.2,0c0,0,0,0-0.1,0c0,0,0,0.1,0,0.1c0,0,0.1,0,0.1,0c0.5,0.1,0.9,0.1,1.3,0.2c0.4,0,0.9,0.1,1.3,0.1
							c0.8,0,1.6,0.1,2.3,0.1c0.4,0,0.7,0,1,0V91.6z"/>
					</g>
					<g>
						<path class="st1" d="M23.2,93.6c-0.2,0-0.4,0-0.6,0c-0.2,0-0.4,0-0.6,0c-0.4,0-0.8,0.1-1.2,0.1c-0.8,0.1-1.5,0.3-2.3,0.4
							c-0.1,0-0.1,0-0.2,0h1.3c0.4,0,0.8-0.1,1.2-0.1c0.4,0,0.8,0,1.2-0.1c0.2,0,0.4,0,0.6,0c0.2,0,0.4,0,0.5,0.1
							c0.2,0,0.4,0.1,0.5,0.1h0.6v-0.2C24,93.7,23.6,93.6,23.2,93.6z"/>
					</g>
					<g>
						<path class="st1" d="M9.8,94c-0.2-0.1-0.4-0.3-0.6-0.4c-0.1-0.1-0.3-0.1-0.4-0.1c-0.1,0-0.3,0-0.5,0c-0.1,0-0.3,0.1-0.4,0.2
							c-0.1,0.1-0.2,0.1-0.3,0.2C7.4,94,7.2,94,7.1,94.1h0.4c0.1,0,0.1,0,0.2-0.1c0.1,0,0.2-0.1,0.4-0.2c0.1,0,0.1-0.1,0.2-0.1
							c0.1,0,0.1,0,0.2,0c0.1,0,0.2,0,0.3,0c0.1,0,0.2,0.1,0.3,0.1C9.1,94,9.2,94,9.3,94.1L9.8,94C9.8,94.1,9.8,94,9.8,94z"/>
					</g>
					<g>
						<path class="st1" d="M2.6,92.9c-0.5-0.1-1-0.2-1.5-0.3c-0.3,0-0.5-0.1-0.8-0.1c-0.1,0-0.2,0-0.3,0v0.3c0.1,0,0.2,0,0.4,0
							c0.2,0,0.5,0,0.7,0c0.5,0.1,1,0.2,1.5,0.2c0.5,0.1,0.9,0.1,1.3,0.1c0.8,0,1.3,0,1.3,0s-0.5,0-1.3-0.1
							C3.5,93.1,3.1,93,2.6,92.9z"/>
					</g>
					<g>
						<path class="st1" d="M5.9,92.4c-0.2,0-0.4,0.1-0.7,0.1c-0.2,0-0.5,0-0.8,0c-0.3,0-0.5-0.1-0.8-0.1c-0.3-0.1-0.6-0.1-0.9-0.2
							C1.8,92,0.8,92,0,91.9v0.4c0.8,0,1.7,0,2.7,0.1c0.3,0,0.6,0.1,0.9,0.1c0.3,0,0.6,0.1,0.8,0.1c0.3,0,0.5,0,0.8,0
							c0.3,0,0.5-0.1,0.7-0.1c0.2-0.1,0.4-0.1,0.6-0.2c0.2-0.1,0.3-0.2,0.4-0.2c0.2-0.1,0.3-0.2,0.3-0.2S7.1,91.9,6.8,92
							C6.6,92.2,6.3,92.3,5.9,92.4z"/>
					</g>
					<g>
						<path class="st1" d="M7.6,89.9c-0.1-0.1-0.1-0.1-0.2-0.1l-0.1,0c-0.3-0.1-0.6,0-0.9,0c-0.3,0-0.6,0-0.9,0c-0.6,0-1.1,0-1.6,0
							c-1.1,0-2-0.1-2.9-0.2c-0.3,0-0.7-0.1-1-0.1v0.3c0.3,0,0.6,0,0.9,0.1C1.8,90,2.8,90,3.8,90c0.5,0,1.1,0,1.6,0
							c0.3,0,0.6,0,0.8,0.1c0.2,0,0.4,0.1,0.6,0.1c0,0,0,0,0,0c-0.2,0.1-0.5,0.2-0.8,0.2c-0.5,0.1-1.1,0.2-1.6,0.3
							c-1,0.2-2,0.3-2.9,0.3c-0.6,0-1.2,0.1-1.7,0.1v0.4c0.5,0,1,0,1.7-0.1c0.9,0,1.8-0.1,2.9-0.2c0.5-0.1,1.1-0.1,1.6-0.3
							C6.5,91,6.8,91,7.1,90.8c0.1-0.1,0.3-0.1,0.5-0.3c0,0,0,0,0.1-0.1c0-0.1,0-0.1,0.1-0.2c0-0.1,0-0.2,0-0.2
							C7.6,90,7.6,90,7.6,89.9z M7.1,90.4C7.1,90.4,7.1,90.4,7.1,90.4L7.1,90.4C7.1,90.4,7.1,90.4,7.1,90.4z"/>
					</g>
				</g>
				<g>
					<path class="st2" d="M0,88.7c1.4,0.2,3.4,0.5,5.1,0.5c3.1,0,6.8-0.4,8.7-0.4c1.5,0.1,8.1,0.3,10.5,0.4v-0.6H0V88.7z"/>
				</g>
				<g>
					<path class="st2" d="M19.6,93.8c-1.7,0.3-8.4-0.1-12.8-0.2c-2.7,0-5.3,0.2-6.8,0.3v0.2h24.4v-0.6
						C22.6,93.6,20.5,93.6,19.6,93.8z"/>
				</g>
			</g>
			<g>
				<rect y="88.6" class="st3" width="0.8" height="0.8"/>
			</g>
			<g>
				<rect y="93.3" class="st3" width="0.8" height="0.8"/>
			</g>
			<g>
				<rect x="23.6" y="88.6" class="st3" width="0.8" height="0.8"/>
			</g>
			<g>
				<rect x="23.6" y="93.3" class="st3" width="0.8" height="0.8"/>
			</g>
		</g>
		<g>
			<g>
				<g>
					<path class="st4" d="M2.6,92.1H2.2c-0.4,0-0.7-0.3-0.7-0.7v-0.1c0-0.4,0.3-0.7,0.7-0.7h0.4V92.1z"/>
				</g>
				<g>
					<polygon class="st5" points="2,91.6 1.8,91.3 2,91.1 2.2,91.1 2.4,91.3 2.2,91.6 					"/>
				</g>
			</g>
			<g>
				<g>
					<path class="st4" d="M5.4,90.6h0.4c0.4,0,0.7,0.3,0.7,0.7v0.1c0,0.4-0.3,0.7-0.7,0.7H5.4V90.6z"/>
				</g>
				<g>
					<polygon class="st5" points="6.1,91.1 6.2,91.3 6.1,91.6 5.8,91.6 5.7,91.3 5.8,91.1 					"/>
				</g>
			</g>
		</g>
		<g>
			<g>
				<g>
					<path class="st4" d="M18.9,92.1h-0.4c-0.4,0-0.7-0.3-0.7-0.7v-0.1c0-0.4,0.3-0.7,0.7-0.7h0.4V92.1z"/>
				</g>
				<g>
					<polygon class="st5" points="18.3,91.6 18.2,91.3 18.3,91.1 18.6,91.1 18.7,91.3 18.6,91.6 					"/>
				</g>
			</g>
			<g>
				<g>
					<path class="st4" d="M21.8,90.6h0.4c0.4,0,0.7,0.3,0.7,0.7v0.1c0,0.4-0.3,0.7-0.7,0.7h-0.4V90.6z"/>
				</g>
				<g>
					<polygon class="st5" points="22.4,91.1 22.6,91.3 22.4,91.6 22.1,91.6 22,91.3 22.1,91.1 					"/>
				</g>
			</g>
		</g>
	</g>
	<g>
		<g>
			<g>
				<rect x="2.6" class="st6" width="2.9" height="97.5"/>
			</g>
			<g>
				<rect x="3" class="st7" width="2" height="97.5"/>
			</g>
		</g>
		<g>
			<g>
				<rect x="18.9" class="st6" width="2.9" height="97.5"/>
			</g>
			<g>
				<rect x="19.3" class="st7" width="2" height="97.5"/>
			</g>
		</g>
	</g>
</g>
</svg>
