<!-- Generator: Adobe Illustrator 22.0.1, SVG Export Plug-In  -->
<svg version="1.1"
	 xmlns="http://www.w3.org/2000/svg" xmlns:xlink="http://www.w3.org/1999/xlink" xmlns:a="http://ns.adobe.com/AdobeSVGViewerExtensions/3.0/"
	 x="0px" y="0px" width="75.3px" height="72.4px" viewBox="0 0 75.3 72.4" style="enable-background:new 0 0 75.3 72.4;"
	 xml:space="preserve">
<style type="text/css">
	.st0{fill:#BC6423;}
	.st1{fill:#CC6D26;}
	.st2{fill:#635144;}
	.st3{fill:#29211C;}
	.st4{fill:#757575;}
	.st5{fill:#A8A8A7;}
	.st6{fill:#9B9B9B;}
	.st7{fill:#C9C9C8;}
</style>
<defs>
</defs>
<g>
	<g>
		<g>
			<g>
				<g>
					<g>
						
							<rect y="62.6" transform="matrix(-1 -1.224647e-16 1.224647e-16 -1 24.3655 130.6437)" class="st0" width="24.4" height="5.5"/>
					</g>
					<g>
						<path class="st1" d="M19.9,63.2c0,0-0.5-0.1-1-0.1c-0.2,0-0.5,0-0.7,0c-0.2,0-0.3,0.1-0.3,0.1s0.5,0,1,0
							C19.5,63.2,19.9,63.2,19.9,63.2L19.9,63.2z"/>
					</g>
					<g>
						<path class="st1" d="M8.5,65.7c0,0,0.1,0,0.3,0c0.2,0,0.4,0,0.7,0c0.2,0,0.5,0,0.7-0.1c0.2,0,0.3-0.1,0.3-0.1s-0.5,0-1,0
							c-0.2,0-0.5,0-0.7,0C8.6,65.7,8.5,65.7,8.5,65.7L8.5,65.7z"/>
					</g>
					<g>
						<path class="st1" d="M6.8,67.3c0,0,0.3,0,0.7,0.1c0.4,0,1,0,1.6,0c0.6,0,1.2-0.1,1.6-0.1c0.4-0.1,0.7-0.1,0.7-0.1
							s-0.1,0-0.2,0c-0.1,0-0.3,0-0.5,0c-0.4,0-1,0-1.6,0c-0.6,0-1.2,0.1-1.6,0.1C7.1,67.2,6.8,67.3,6.8,67.3L6.8,67.3z"/>
					</g>
					<g>
						<path class="st1" d="M2,62.6c0.3,0.1,0.5,0.1,0.8,0.2C3.5,62.9,4.2,63,5,63.1c0.4,0.1,0.8,0.1,1.1,0.1c0.2,0,0.4,0,0.6,0
							c0.2,0,0.4,0,0.5,0c0.7,0,1.3-0.2,1.9-0.4c0.2-0.1,0.4-0.2,0.5-0.2h0.9c-0.3,0.2-0.7,0.4-1.2,0.6c-0.6,0.2-1.2,0.4-2,0.5
							c-0.2,0-0.4,0-0.6,0c-0.2,0-0.4,0-0.6,0c-0.4,0-0.8-0.1-1.2-0.2c-0.8-0.2-1.5-0.3-2.2-0.5c-0.5-0.1-1-0.2-1.5-0.3H2z"/>
					</g>
					<g>
						<path class="st1" d="M15.3,64.2c-0.6-0.5-1.3-0.9-1.8-1.1c-0.6-0.3-1.1-0.4-1.5-0.5c0,0,0,0,0,0h0.6c0.3,0.1,0.6,0.2,1,0.3
							c0.6,0.2,1.3,0.5,2.1,1c0.3,0.2,0.7,0.6,0.9,1.1l0,0.2c0,0.1,0,0.1,0,0.2c0,0.1-0.1,0.3-0.1,0.4c-0.1,0.2-0.3,0.4-0.5,0.6
							c-0.1,0.1-0.2,0.2-0.3,0.2c-0.1,0.1-0.2,0.1-0.3,0.2c-0.2,0.1-0.4,0.2-0.6,0.3c-0.4,0.2-0.8,0.3-1.2,0.5
							c-0.4,0.1-0.8,0.2-1.1,0.3c-0.2,0-0.3,0.1-0.5,0.1h-0.6c0,0,0,0,0,0c0.3-0.1,0.6-0.2,1-0.3c0.4-0.1,0.7-0.3,1.1-0.4
							c0.4-0.2,0.7-0.4,1.1-0.6c0.4-0.2,0.7-0.5,1-0.7c0.3-0.3,0.4-0.6,0.4-0.9C15.8,64.8,15.5,64.5,15.3,64.2z"/>
					</g>
					<g>
						<path class="st1" d="M0,66.4c0.3,0,0.6,0,1,0c0.9,0,1.8,0,2.8-0.1c1-0.1,2.1-0.1,3.2-0.1c1.1,0,2.2-0.1,3.4-0.1
							c0.6,0,1.2-0.1,1.7-0.1c0.3,0,0.6-0.1,0.9-0.1c0.1,0,0.3,0,0.4-0.1l0.2-0.1c0,0,0.1,0,0.1-0.1c0,0,0,0,0,0
							c0-0.1-0.1-0.1-0.2-0.2c-0.2-0.1-0.5-0.2-0.8-0.3c-0.5-0.2-1.1-0.3-1.7-0.4c-0.6-0.1-1.1-0.1-1.7-0.1c-0.5,0-1.1,0.1-1.7,0
							c-1.1,0-2.2-0.1-3.2-0.2c-1-0.1-2-0.2-2.8-0.3c-0.6-0.1-1.2-0.1-1.7-0.2V64c0.5,0.1,1.1,0.1,1.7,0.1c0.9,0.1,1.8,0.1,2.9,0.1
							c1,0,2.1,0,3.2,0c0.5,0,1.1-0.1,1.7-0.1c0.6,0,1.2,0,1.8,0.1c0.6,0.1,1.2,0.2,1.8,0.4c0.3,0.1,0.6,0.2,0.9,0.4
							c0.1,0.1,0.3,0.2,0.4,0.4c0.1,0.1,0.1,0.3,0.1,0.4c-0.1,0.2-0.2,0.2-0.3,0.3c-0.1,0.1-0.2,0.1-0.3,0.1l-0.2,0
							c-0.1,0-0.3,0-0.5,0.1c-0.3,0-0.6,0.1-0.9,0.1c-0.6,0-1.2,0-1.8,0c-1.2,0-2.3,0-3.4,0c-1.1,0-2.2,0-3.2,0.1
							c-0.5,0-1,0-1.5,0.1c-0.5,0-0.9,0-1.4,0c-0.3,0-0.7,0-1,0V66.4z"/>
					</g>
					<g>
						<path class="st1" d="M0,65.6c0.3,0,0.6,0,1,0c0.7,0,1.5,0,2.3,0c0.4,0,0.9,0,1.3-0.1c0.4,0,0.9-0.1,1.3-0.2c0,0-0.1,0-0.1,0
							c-0.1,0-0.2,0-0.3,0c-0.2,0-0.4,0-0.7-0.1c-0.4,0-0.9-0.1-1.3-0.1C2.7,65,1.9,65,1.2,65c-0.5,0-0.9,0-1.2-0.1v-0.3
							c0.3,0,0.8,0.1,1.3,0.1c0.7,0.1,1.5,0.1,2.3,0.2C4,65,4.4,65,4.8,65.1c0.2,0,0.4,0.1,0.7,0.1c0.1,0,0.2,0,0.3,0.1
							c0.1,0,0.1,0,0.2,0c0,0,0,0,0.1,0c0,0,0,0.1,0,0.1c0,0-0.1,0-0.1,0c-0.5,0.1-0.9,0.1-1.3,0.2c-0.4,0-0.9,0.1-1.3,0.1
							c-0.8,0-1.6,0.1-2.3,0.1c-0.4,0-0.7,0-1,0V65.6z"/>
					</g>
					<g>
						<path class="st1" d="M1.1,67.6c0.2,0,0.4,0,0.6,0c0.2,0,0.4,0,0.6,0c0.4,0,0.8,0.1,1.2,0.1C4.2,67.8,5,67.9,5.7,68
							c0.1,0,0.1,0,0.2,0H4.6C4.2,68,3.8,68,3.4,68c-0.4,0-0.8,0-1.2-0.1c-0.2,0-0.4,0-0.6,0c-0.2,0-0.4,0-0.5,0.1
							C1,68,0.8,68,0.6,68.1H0v-0.2C0.4,67.7,0.7,67.6,1.1,67.6z"/>
					</g>
					<g>
						<path class="st1" d="M14.6,68c0.2-0.1,0.4-0.3,0.6-0.4c0.1-0.1,0.3-0.1,0.4-0.1c0.1,0,0.3,0,0.5,0c0.1,0,0.3,0.1,0.4,0.2
							c0.1,0.1,0.2,0.1,0.3,0.2c0.2,0.1,0.3,0.2,0.5,0.2h-0.4c-0.1,0-0.1,0-0.2-0.1c-0.1,0-0.2-0.1-0.4-0.2c-0.1,0-0.1-0.1-0.2-0.1
							c-0.1,0-0.1,0-0.2,0c-0.1,0-0.2,0-0.3,0c-0.1,0-0.2,0.1-0.3,0.1c-0.1,0.1-0.2,0.1-0.3,0.2L14.6,68C14.5,68,14.6,68,14.6,68z"
							/>
					</g>
					<g>
						<path class="st1" d="M21.8,66.9c0.5-0.1,1-0.2,1.5-0.3c0.3,0,0.5-0.1,0.8-0.1c0.1,0,0.2,0,0.3,0v0.3c-0.1,0-0.2,0-0.4,0
							c-0.2,0-0.5,0-0.7,0c-0.5,0.1-1,0.2-1.5,0.2c-0.5,0.1-0.9,0.1-1.3,0.1c-0.8,0-1.3,0-1.3,0s0.5,0,1.3-0.1
							C20.8,67.1,21.3,67,21.8,66.9z"/>
					</g>
					<g>
						<path class="st1" d="M18.5,66.4c0.2,0,0.4,0.1,0.7,0.1c0.2,0,0.5,0,0.8,0c0.3,0,0.5-0.1,0.8-0.1c0.3-0.1,0.6-0.1,0.9-0.2
							c1-0.2,1.9-0.2,2.7-0.2v0.4c-0.8,0-1.7,0-2.7,0.1c-0.3,0-0.6,0.1-0.9,0.1c-0.3,0-0.6,0.1-0.8,0.1c-0.3,0-0.5,0-0.8,0
							c-0.3,0-0.5-0.1-0.7-0.1c-0.2-0.1-0.4-0.1-0.6-0.2c-0.2-0.1-0.3-0.2-0.4-0.2c-0.2-0.1-0.3-0.2-0.3-0.2s0.1,0.1,0.3,0.2
							C17.8,66.1,18.1,66.3,18.5,66.4z"/>
					</g>
					<g>
						<path class="st1" d="M16.7,64.1c0,0.1,0,0.1,0,0.2c0,0.1,0,0.1,0.1,0.2c0,0.1,0.1,0.1,0.1,0.1c0.2,0.2,0.3,0.2,0.5,0.3
							c0.3,0.1,0.6,0.2,0.9,0.3c0.6,0.1,1.1,0.2,1.6,0.3c1.1,0.1,2.1,0.2,2.9,0.2c0.7,0,1.2,0,1.7,0.1v-0.4c-0.5,0-1,0-1.7-0.1
							c-0.8,0-1.8-0.1-2.9-0.3c-0.5-0.1-1-0.2-1.6-0.3c-0.3-0.1-0.5-0.1-0.8-0.2c0,0,0,0,0,0c0.2-0.1,0.4-0.1,0.6-0.1
							c0.3,0,0.6,0,0.8-0.1c0.6,0,1.1,0,1.6,0c1.1,0,2.1-0.1,2.9-0.1c0.3,0,0.6,0,0.9-0.1v-0.3c-0.3,0-0.6,0.1-1,0.1
							c-0.8,0.1-1.8,0.1-2.9,0.2c-0.5,0-1.1,0-1.6,0c-0.3,0-0.6,0-0.9,0c-0.3,0-0.6-0.1-0.9,0l-0.1,0c-0.1,0-0.1,0.1-0.2,0.1
							C16.8,64,16.7,64,16.7,64.1z M17.2,64.4L17.2,64.4C17.2,64.4,17.2,64.4,17.2,64.4C17.2,64.4,17.2,64.4,17.2,64.4z"/>
					</g>
				</g>
				<g>
					<path class="st2" d="M24.4,62.7c-1.4,0.2-3.4,0.5-5.1,0.5c-3.1,0-6.8-0.4-8.7-0.4C9,62.9,2.4,63.1,0,63.2v-0.6h24.4V62.7z"/>
				</g>
				<g>
					<path class="st2" d="M4.8,67.8c1.7,0.3,8.4-0.1,12.8-0.2c2.7,0,5.3,0.2,6.8,0.3v0.2H0v-0.6C1.8,67.5,3.9,67.6,4.8,67.8z"/>
				</g>
			</g>
			<g>
				
					<rect x="23.6" y="62.6" transform="matrix(-1 -1.224647e-16 1.224647e-16 -1 47.9629 125.91)" class="st3" width="0.8" height="0.8"/>
			</g>
			<g>
				
					<rect x="23.6" y="67.3" transform="matrix(-1 -1.224647e-16 1.224647e-16 -1 47.9629 135.3775)" class="st3" width="0.8" height="0.8"/>
			</g>
			<g>
				<rect y="62.6" transform="matrix(-1 -1.224647e-16 1.224647e-16 -1 0.7682 125.91)" class="st3" width="0.8" height="0.8"/>
			</g>
			<g>
				<rect y="67.3" transform="matrix(-1 -1.224647e-16 1.224647e-16 -1 0.7682 135.3775)" class="st3" width="0.8" height="0.8"/>
			</g>
		</g>
		<g>
			<g>
				<g>
					<path class="st4" d="M21.8,66.1h0.4c0.4,0,0.7-0.3,0.7-0.7v-0.1c0-0.4-0.3-0.7-0.7-0.7h-0.4V66.1z"/>
				</g>
				<g>
					<polygon class="st5" points="22.4,65.6 22.5,65.3 22.4,65.1 22.1,65.1 22,65.3 22.1,65.6 					"/>
				</g>
			</g>
			<g>
				<g>
					<path class="st4" d="M18.9,64.6h-0.4c-0.4,0-0.7,0.3-0.7,0.7v0.1c0,0.4,0.3,0.7,0.7,0.7h0.4V64.6z"/>
				</g>
				<g>
					<polygon class="st5" points="18.3,65.1 18.1,65.3 18.3,65.6 18.6,65.6 18.7,65.3 18.6,65.1 					"/>
				</g>
			</g>
		</g>
		<g>
			<g>
				<g>
					<path class="st4" d="M5.4,66.1h0.4c0.4,0,0.7-0.3,0.7-0.7v-0.1c0-0.4-0.3-0.7-0.7-0.7H5.4V66.1z"/>
				</g>
				<g>
					<polygon class="st5" points="6.1,65.6 6.2,65.3 6.1,65.1 5.8,65.1 5.7,65.3 5.8,65.6 					"/>
				</g>
			</g>
			<g>
				<g>
					<path class="st4" d="M2.6,64.6H2.2c-0.4,0-0.7,0.3-0.7,0.7v0.1c0,0.4,0.3,0.7,0.7,0.7h0.4V64.6z"/>
				</g>
				<g>
					<polygon class="st5" points="1.9,65.1 1.8,65.3 1.9,65.6 2.2,65.6 2.4,65.3 2.2,65.1 					"/>
				</g>
			</g>
		</g>
	</g>
	<g>
		<g>
			<g>
				<g>
					<g>
						<rect x="6.8" y="35" transform="matrix(0.866 0.5 -0.5 0.866 21.417 -4.4291)" class="st0" width="24.4" height="5.5"/>
					</g>
					<g>
						<path class="st1" d="M11.2,35.7c0,0,0.4,0.3,0.8,0.5c0.2,0.1,0.4,0.2,0.6,0.3c0.2,0.1,0.3,0.1,0.3,0.1s-0.4-0.2-0.8-0.5
							C11.6,35.9,11.2,35.7,11.2,35.7L11.2,35.7z"/>
					</g>
					<g>
						<path class="st1" d="M22.3,39.3c0,0-0.1-0.1-0.2-0.2c-0.1-0.1-0.4-0.2-0.6-0.3c-0.2-0.1-0.4-0.2-0.6-0.3
							c-0.2-0.1-0.3-0.1-0.3-0.1s0.4,0.2,0.8,0.5c0.2,0.1,0.4,0.2,0.6,0.3C22.2,39.2,22.3,39.3,22.3,39.3L22.3,39.3z"/>
					</g>
					<g>
						<path class="st1" d="M24.6,38.8c0,0-0.2-0.2-0.6-0.4c-0.4-0.2-0.9-0.5-1.4-0.8c-0.5-0.3-1-0.5-1.5-0.7
							c-0.4-0.2-0.7-0.2-0.7-0.2s0.1,0,0.2,0.1c0.1,0.1,0.3,0.2,0.4,0.3c0.4,0.2,0.9,0.5,1.4,0.8c0.5,0.3,1,0.5,1.4,0.7
							C24.4,38.6,24.6,38.8,24.6,38.8L24.6,38.8z"/>
					</g>
					<g>
						<path class="st1" d="M26.5,45.2c-0.2-0.2-0.4-0.3-0.6-0.5c-0.5-0.5-1.1-1-1.8-1.5c-0.3-0.2-0.6-0.5-0.9-0.7
							c-0.2-0.1-0.3-0.2-0.5-0.3c-0.2-0.1-0.3-0.2-0.5-0.3c-0.6-0.3-1.3-0.5-1.8-0.6c-0.2,0-0.4-0.1-0.6-0.1L19,41
							c0.3,0,0.8,0,1.4,0.1c0.6,0.1,1.3,0.3,2,0.6c0.2,0.1,0.3,0.2,0.5,0.3c0.2,0.1,0.3,0.2,0.5,0.3c0.3,0.2,0.6,0.5,0.9,0.7
							c0.6,0.5,1.1,1.1,1.7,1.6c0.4,0.4,0.8,0.7,1.1,1L26.5,45.2z"/>
					</g>
					<g>
						<path class="st1" d="M15.8,37.2c0.3,0.7,0.7,1.4,1,1.9c0.4,0.5,0.7,0.9,1,1.2c0,0,0,0,0,0L17.3,40c-0.2-0.2-0.4-0.5-0.7-0.8
							c-0.4-0.5-0.9-1.1-1.3-1.9c-0.2-0.4-0.3-0.9-0.2-1.4l0.1-0.2c0-0.1,0.1-0.1,0.1-0.2c0.1-0.1,0.2-0.2,0.3-0.3
							c0.2-0.1,0.5-0.2,0.7-0.3c0.1,0,0.2,0,0.3-0.1c0.1,0,0.2,0,0.3,0c0.2,0,0.5,0,0.7,0c0.4,0,0.9,0.1,1.3,0.2
							c0.4,0.1,0.8,0.2,1.2,0.3c0.2,0,0.3,0.1,0.5,0.1l0.5,0.3c0,0,0,0,0,0c-0.3-0.1-0.7-0.2-1-0.2c-0.4-0.1-0.8-0.1-1.2-0.2
							c-0.4,0-0.8-0.1-1.2,0c-0.4,0-0.8,0-1.2,0.2c-0.4,0.1-0.7,0.3-0.8,0.6C15.6,36.4,15.7,36.8,15.8,37.2z"/>
					</g>
					<g>
						<path class="st1" d="M30.1,42.9c-0.3-0.2-0.6-0.3-0.9-0.5c-0.8-0.4-1.6-0.9-2.5-1.3c-0.9-0.4-1.9-1-2.8-1.5
							c-1-0.5-2-1.1-3-1.6c-0.5-0.3-1-0.5-1.6-0.8c-0.3-0.1-0.5-0.2-0.8-0.4c-0.1,0-0.2-0.1-0.4-0.1l-0.2-0.1c0,0-0.1,0-0.1,0
							c0,0,0,0,0,0c0,0.1,0.1,0.2,0.1,0.3c0.1,0.2,0.3,0.4,0.5,0.7c0.4,0.4,0.8,0.8,1.3,1.1c0.5,0.3,0.9,0.6,1.4,0.9
							c0.5,0.3,1,0.5,1.5,0.8c1,0.6,1.8,1.2,2.6,1.8c0.8,0.6,1.6,1.2,2.3,1.7c0.5,0.4,1,0.7,1.4,1l0,0.1c-0.4-0.3-0.9-0.7-1.4-1
							c-0.7-0.5-1.5-1-2.4-1.5c-0.9-0.5-1.8-1.1-2.7-1.6c-0.5-0.3-1-0.5-1.5-0.8c-0.5-0.3-1-0.6-1.5-1c-0.5-0.4-0.9-0.8-1.3-1.2
							c-0.2-0.2-0.4-0.5-0.5-0.8c-0.1-0.1-0.2-0.3-0.2-0.5c0-0.1,0-0.3,0.2-0.4c0.1-0.1,0.3-0.1,0.4-0.1c0.1,0,0.2,0,0.3,0l0.2,0.1
							c0.1,0,0.3,0.1,0.4,0.2c0.3,0.1,0.5,0.3,0.8,0.4c0.5,0.3,1,0.6,1.5,0.8c1,0.6,2,1.2,2.9,1.7c1,0.5,1.9,1.1,2.8,1.5
							c0.5,0.2,0.9,0.5,1.3,0.7c0.4,0.2,0.8,0.5,1.2,0.7c0.3,0.2,0.6,0.3,0.9,0.5L30.1,42.9z"/>
					</g>
					<g>
						<path class="st1" d="M29.6,43.6c-0.3-0.2-0.5-0.3-0.9-0.5c-0.6-0.3-1.3-0.7-2-1.1c-0.4-0.2-0.8-0.4-1.2-0.6
							c-0.4-0.2-0.8-0.4-1.2-0.5c0,0,0,0,0.1,0.1c0.1,0.1,0.2,0.1,0.3,0.2c0.2,0.1,0.4,0.3,0.5,0.4c0.4,0.3,0.7,0.5,1.1,0.7
							c0.7,0.5,1.4,0.9,1.9,1.3c0.4,0.3,0.8,0.5,1,0.7l-0.2,0.3c-0.3-0.2-0.6-0.5-1-0.7c-0.5-0.4-1.2-0.9-1.9-1.3
							c-0.3-0.2-0.7-0.5-1.1-0.8c-0.2-0.1-0.4-0.3-0.5-0.4c-0.1-0.1-0.2-0.1-0.3-0.2c0,0-0.1-0.1-0.1-0.1c0,0,0,0,0-0.1
							c0,0,0-0.1,0.1-0.1c0,0,0.1,0,0.1,0c0.4,0.1,0.8,0.3,1.3,0.5c0.4,0.2,0.8,0.4,1.2,0.6c0.8,0.4,1.5,0.7,2,1.1
							c0.3,0.2,0.6,0.3,0.9,0.5L29.6,43.6z"/>
					</g>
					<g>
						<path class="st1" d="M29.7,41.3c-0.2-0.1-0.4-0.2-0.5-0.3c-0.2-0.1-0.3-0.2-0.5-0.3c-0.3-0.2-0.6-0.4-1-0.7
							c-0.6-0.5-1.2-1-1.8-1.5c0,0-0.1-0.1-0.1-0.1l1.1,0.7c0.3,0.2,0.6,0.5,1,0.7c0.3,0.2,0.6,0.4,1,0.6c0.2,0.1,0.3,0.2,0.5,0.3
							c0.2,0.1,0.3,0.2,0.5,0.2c0.2,0.1,0.4,0.1,0.5,0.2l0.6,0.3l-0.1,0.2C30.4,41.6,30,41.5,29.7,41.3z"/>
					</g>
					<g>
						<path class="st1" d="M18.2,34.2c-0.2,0-0.5,0.1-0.7,0c-0.1,0-0.3,0-0.4-0.1c-0.1-0.1-0.3-0.1-0.4-0.2
							c-0.1-0.1-0.2-0.2-0.3-0.4c-0.1-0.1-0.1-0.2-0.2-0.3c-0.1-0.2-0.2-0.3-0.3-0.4l0.4,0.2c0,0,0.1,0.1,0.1,0.1
							c0.1,0.1,0.2,0.2,0.2,0.3c0,0.1,0.1,0.1,0.1,0.1c0,0,0.1,0.1,0.1,0.1c0.1,0.1,0.2,0.1,0.3,0.2c0.1,0,0.2,0,0.3,0.1
							c0.1,0,0.2,0,0.3,0l0.5,0.3C18.3,34.2,18.3,34.2,18.2,34.2z"/>
					</g>
					<g>
						<path class="st1" d="M11.5,31.6c-0.5-0.2-0.9-0.3-1.4-0.5c-0.2-0.1-0.5-0.2-0.7-0.3c-0.1-0.1-0.2-0.1-0.3-0.2l0.2-0.3
							c0.1,0.1,0.2,0.1,0.3,0.2c0.2,0.1,0.4,0.3,0.7,0.4c0.5,0.2,1,0.4,1.4,0.6c0.4,0.2,0.9,0.4,1.2,0.6c0.7,0.4,1.1,0.6,1.1,0.6
							s-0.5-0.2-1.2-0.5C12.3,31.9,11.9,31.8,11.5,31.6z"/>
					</g>
					<g>
						<path class="st1" d="M14,33.7c-0.2-0.1-0.3-0.3-0.5-0.4c-0.2-0.1-0.4-0.3-0.7-0.4c-0.2-0.1-0.5-0.2-0.8-0.3
							c-0.3-0.1-0.5-0.2-0.8-0.3c-0.9-0.3-1.8-0.8-2.5-1.2l0.2-0.3c0.7,0.4,1.5,0.9,2.4,1.2c0.3,0.1,0.5,0.2,0.8,0.3
							c0.3,0.1,0.5,0.2,0.8,0.3c0.2,0.1,0.5,0.3,0.7,0.4C13.8,33.3,13.9,33.5,14,33.7c0.2,0.1,0.4,0.2,0.5,0.4
							c0.1,0.1,0.2,0.3,0.2,0.4c0.1,0.2,0.1,0.4,0.1,0.4s0-0.1-0.2-0.4C14.6,34.3,14.3,34,14,33.7z"/>
					</g>
					<g>
						<path class="st1" d="M14.4,36.6c0,0,0.1-0.1,0.1-0.2c0-0.1,0-0.1,0-0.2c0-0.1,0-0.1,0-0.1c-0.1-0.3-0.2-0.4-0.3-0.5
							c-0.2-0.2-0.4-0.5-0.6-0.7c-0.4-0.4-0.9-0.7-1.3-1c-0.9-0.6-1.7-1.2-2.4-1.6c-0.6-0.4-1-0.7-1.4-0.9l-0.2,0.3
							c0.4,0.2,0.9,0.5,1.4,0.9c0.7,0.5,1.5,1,2.3,1.7c0.4,0.3,0.8,0.7,1.2,1.1c0.2,0.2,0.4,0.4,0.5,0.6c0,0,0,0,0,0
							c-0.2,0-0.4-0.1-0.5-0.2c-0.3-0.1-0.5-0.2-0.7-0.4c-0.5-0.3-1-0.5-1.4-0.8c-0.9-0.5-1.8-1-2.6-1.3c-0.3-0.1-0.6-0.3-0.8-0.4
							l-0.1,0.2c0.3,0.1,0.6,0.3,0.9,0.4c0.8,0.4,1.7,0.8,2.6,1.3c0.5,0.3,0.9,0.5,1.4,0.8c0.2,0.1,0.5,0.3,0.7,0.5
							c0.2,0.2,0.5,0.3,0.8,0.4l0.1,0c0.1,0,0.1,0,0.2,0C14.3,36.6,14.4,36.6,14.4,36.6z M14.1,36.1L14.1,36.1
							C14.1,36.1,14.1,36.1,14.1,36.1C14.1,36.1,14.1,36.1,14.1,36.1z"/>
					</g>
				</g>
				<g>
					<path class="st2" d="M7.1,33.9c1.3,0.5,3.1,1.3,4.7,2.2c2.7,1.5,5.7,3.8,7.3,4.7c1.3,0.7,7.2,3.8,9.3,4.9l-0.3,0.6L7,34
						L7.1,33.9z"/>
				</g>
				<g>
					<path class="st2" d="M26.6,39.3c-1.3-1.1-7.4-4.1-11.2-6.2c-2.4-1.3-4.5-2.8-5.7-3.7l0.1-0.1l21.1,12.2L30.6,42
						C29.1,41,27.3,39.9,26.6,39.3z"/>
				</g>
			</g>
			<g>
				<rect x="7.2" y="33.5" transform="matrix(0.8661 0.5 -0.5 0.8661 17.9628 0.7552)" class="st3" width="0.8" height="0.8"/>
			</g>
			<g>
				<rect x="9.6" y="29.4" transform="matrix(0.866 0.5 -0.5 0.866 16.2336 -0.9765)" class="st3" width="0.8" height="0.8"/>
			</g>
			<g>
				
					<rect x="27.6" y="45.3" transform="matrix(0.8661 0.4999 -0.4999 0.8661 26.5987 -7.8813)" class="st3" width="0.8" height="0.8"/>
			</g>
			<g>
				<rect x="30" y="41.2" transform="matrix(0.866 0.5 -0.5 0.866 24.8716 -9.6144)" class="st3" width="0.8" height="0.8"/>
			</g>
		</g>
		<g>
			<g>
				<g>
					<path class="st4" d="M11,32.3l-0.3-0.2c-0.3-0.2-0.7-0.1-0.9,0.2l-0.1,0.1c-0.2,0.3-0.1,0.7,0.2,0.9l0.3,0.2L11,32.3z"/>
				</g>
				<g>
					<polygon class="st5" points="10.2,32.4 10,32.6 10,32.8 10.2,33 10.5,32.8 10.5,32.6 					"/>
				</g>
			</g>
			<g>
				<g>
					<path class="st4" d="M12.8,35l0.3,0.2c0.3,0.2,0.7,0.1,0.9-0.2l0.1-0.1c0.2-0.3,0.1-0.7-0.2-0.9l-0.3-0.2L12.8,35z"/>
				</g>
				<g>
					<polygon class="st5" points="13.6,34.9 13.8,34.8 13.8,34.5 13.6,34.4 13.3,34.5 13.3,34.8 					"/>
				</g>
			</g>
		</g>
		<g>
			<g>
				<g>
					<path class="st4" d="M25.2,40.5l-0.3-0.2c-0.3-0.2-0.7-0.1-0.9,0.2l-0.1,0.1c-0.2,0.3-0.1,0.7,0.2,0.9l0.3,0.2L25.2,40.5z"/>
				</g>
				<g>
					<polygon class="st5" points="24.4,40.6 24.2,40.7 24.2,41 24.4,41.1 24.6,41 24.6,40.7 					"/>
				</g>
			</g>
			<g>
				<g>
					<path class="st4" d="M26.9,43.2l0.3,0.2c0.3,0.2,0.7,0.1,0.9-0.2l0.1-0.1c0.2-0.3,0.1-0.7-0.2-0.9l-0.3-0.2L26.9,43.2z"/>
				</g>
				<g>
					<polygon class="st5" points="27.7,43.1 28,42.9 28,42.7 27.7,42.5 27.5,42.7 27.5,42.9 					"/>
				</g>
			</g>
		</g>
	</g>
	<g>
		<g>
			<g>
				<g>
					<g>
						
							<rect x="1.3" y="48.5" transform="matrix(0.9659 0.2588 -0.2588 0.9659 13.7204 -1.7323)" class="st0" width="24.4" height="5.5"/>
					</g>
					<g>
						<path class="st1" d="M5.4,51.3c0,0,0.4,0.2,0.9,0.3c0.2,0.1,0.5,0.1,0.7,0.1c0.2,0,0.3,0,0.3,0s-0.5-0.1-0.9-0.2
							C5.9,51.4,5.4,51.3,5.4,51.3L5.4,51.3z"/>
					</g>
					<g>
						<path class="st1" d="M17.1,51.8c0,0-0.1,0-0.3-0.1c-0.2-0.1-0.4-0.1-0.6-0.2c-0.2-0.1-0.5-0.1-0.7-0.1c-0.2,0-0.3,0-0.3,0
							s0.5,0.1,0.9,0.2c0.2,0.1,0.5,0.1,0.6,0.1C17,51.8,17.1,51.8,17.1,51.8L17.1,51.8z"/>
					</g>
					<g>
						<path class="st1" d="M19.2,50.7c0,0-0.3-0.1-0.7-0.3c-0.4-0.1-1-0.3-1.5-0.4c-0.6-0.1-1.1-0.2-1.6-0.3c-0.4,0-0.7,0-0.7,0
							s0.1,0,0.2,0.1c0.1,0,0.3,0.1,0.5,0.2c0.4,0.1,1,0.3,1.6,0.4c0.6,0.1,1.1,0.2,1.6,0.3C18.9,50.7,19.2,50.7,19.2,50.7
							L19.2,50.7z"/>
					</g>
					<g>
						<path class="st1" d="M22.6,56.5c-0.2-0.1-0.5-0.2-0.7-0.4c-0.7-0.3-1.4-0.7-2.1-1c-0.4-0.2-0.7-0.3-1.1-0.4
							c-0.2-0.1-0.3-0.1-0.5-0.2c-0.2,0-0.4-0.1-0.5-0.1c-0.7-0.1-1.4-0.1-1.9-0.1c-0.2,0-0.4,0.1-0.6,0.1l-0.8-0.2
							c0.3-0.1,0.8-0.2,1.4-0.3c0.6-0.1,1.3-0.1,2.1,0.1c0.2,0,0.4,0.1,0.6,0.1c0.2,0.1,0.4,0.1,0.6,0.2c0.4,0.1,0.7,0.3,1.1,0.5
							c0.7,0.3,1.4,0.7,2,1.1c0.5,0.3,0.9,0.5,1.4,0.7L22.6,56.5z"/>
					</g>
					<g>
						<path class="st1" d="M10.2,51.5c0.4,0.6,1,1.2,1.5,1.6c0.5,0.4,1,0.7,1.3,0.9c0,0,0,0,0,0l-0.6-0.2c-0.2-0.2-0.5-0.4-0.8-0.6
							c-0.5-0.4-1.2-0.8-1.7-1.5c-0.3-0.3-0.6-0.7-0.5-1.3l0-0.2c0-0.1,0-0.1,0.1-0.2c0-0.1,0.1-0.2,0.2-0.3
							c0.2-0.2,0.4-0.4,0.6-0.5c0.1-0.1,0.2-0.1,0.3-0.1c0.1,0,0.2-0.1,0.3-0.1c0.2,0,0.4-0.1,0.7-0.1c0.4-0.1,0.9-0.1,1.3-0.1
							c0.4,0,0.8,0,1.2,0c0.2,0,0.3,0,0.5,0l0.6,0.2c0,0,0,0,0,0c-0.3,0-0.7,0-1,0c-0.4,0-0.8,0.1-1.2,0.1c-0.4,0.1-0.8,0.2-1.2,0.3
							c-0.4,0.1-0.8,0.3-1.1,0.5c-0.3,0.2-0.6,0.5-0.6,0.8C9.8,50.8,10,51.2,10.2,51.5z"/>
					</g>
					<g>
						<path class="st1" d="M25.5,53.3c-0.3-0.1-0.6-0.2-1-0.3c-0.9-0.2-1.8-0.5-2.8-0.7c-1-0.2-2-0.5-3.1-0.7
							c-1.1-0.3-2.2-0.5-3.3-0.8c-0.6-0.1-1.1-0.2-1.7-0.4c-0.3-0.1-0.6-0.1-0.9-0.1c-0.1,0-0.3,0-0.4,0l-0.2,0c0,0-0.1,0-0.1,0
							c0,0,0,0,0,0c0,0.1,0.1,0.2,0.2,0.2c0.2,0.2,0.4,0.4,0.6,0.5c0.5,0.3,1,0.6,1.5,0.8c0.5,0.2,1.1,0.4,1.6,0.5
							c0.5,0.1,1.1,0.2,1.6,0.4c1.1,0.3,2.1,0.7,3,1.1c0.9,0.4,1.8,0.7,2.7,1.1c0.6,0.2,1.1,0.4,1.6,0.6l0,0.1
							c-0.5-0.2-1.1-0.4-1.7-0.6c-0.8-0.3-1.8-0.6-2.7-0.8c-1-0.3-2-0.6-3.1-0.8c-0.5-0.1-1.1-0.2-1.6-0.4c-0.6-0.1-1.1-0.3-1.7-0.6
							c-0.5-0.2-1.1-0.5-1.6-0.8c-0.3-0.2-0.5-0.4-0.7-0.6c-0.1-0.1-0.2-0.2-0.3-0.5c0-0.1-0.1-0.3,0-0.4c0.1-0.1,0.2-0.2,0.3-0.2
							c0.1,0,0.2,0,0.3,0l0.2,0c0.1,0,0.3,0,0.5,0.1c0.3,0.1,0.6,0.1,0.9,0.2c0.6,0.1,1.1,0.3,1.7,0.4c1.1,0.3,2.2,0.6,3.3,0.9
							c1.1,0.3,2.1,0.6,3.1,0.8c0.5,0.1,1,0.2,1.4,0.3c0.5,0.1,0.9,0.2,1.3,0.3c0.3,0.1,0.6,0.2,1,0.3L25.5,53.3z"/>
					</g>
					<g>
						<path class="st1" d="M25.3,54.2c-0.3-0.1-0.6-0.2-1-0.3c-0.6-0.2-1.4-0.4-2.2-0.6c-0.4-0.1-0.8-0.2-1.3-0.3
							c-0.4-0.1-0.9-0.2-1.3-0.2c0,0,0.1,0,0.1,0c0.1,0,0.2,0.1,0.3,0.1c0.2,0.1,0.4,0.2,0.6,0.2c0.4,0.2,0.8,0.3,1.2,0.4
							c0.8,0.3,1.5,0.5,2.2,0.7c0.5,0.1,0.9,0.3,1.2,0.4L25,55.1c-0.3-0.1-0.7-0.3-1.2-0.5c-0.6-0.2-1.4-0.5-2.2-0.8
							c-0.4-0.2-0.8-0.3-1.2-0.5c-0.2-0.1-0.4-0.2-0.6-0.3c-0.1,0-0.2-0.1-0.3-0.1c-0.1,0-0.1-0.1-0.2-0.1c0,0,0,0,0,0
							c0,0,0-0.1,0-0.1c0,0,0.1,0,0.1,0c0.5,0,0.9,0.1,1.3,0.2c0.4,0.1,0.9,0.2,1.3,0.3c0.8,0.2,1.6,0.3,2.3,0.5
							c0.4,0.1,0.7,0.2,1,0.2L25.3,54.2z"/>
					</g>
					<g>
						<path class="st1" d="M24.7,51.9c-0.2,0-0.4-0.1-0.6-0.1c-0.2,0-0.4-0.1-0.6-0.2c-0.4-0.1-0.7-0.3-1.1-0.4
							c-0.7-0.3-1.4-0.6-2.1-1c-0.1,0-0.1,0-0.2-0.1l1.3,0.3c0.4,0.1,0.7,0.3,1.1,0.4c0.4,0.1,0.7,0.2,1.1,0.4
							c0.2,0.1,0.4,0.1,0.5,0.1c0.2,0,0.4,0.1,0.5,0.1c0.2,0,0.4,0,0.6,0l0.6,0.2L25.9,52C25.5,52,25.1,52,24.7,51.9z"/>
					</g>
					<g>
						<path class="st1" d="M11.8,48c-0.2,0.1-0.4,0.2-0.7,0.2c-0.1,0-0.3,0-0.4,0c-0.1,0-0.3-0.1-0.4-0.1c-0.1-0.1-0.2-0.2-0.3-0.3
							c-0.1-0.1-0.2-0.2-0.3-0.3c-0.1-0.1-0.3-0.2-0.4-0.3l0.4,0.1c0,0,0.1,0.1,0.1,0.1c0.1,0.1,0.2,0.2,0.3,0.2
							c0.1,0,0.1,0.1,0.2,0.1c0,0,0.1,0.1,0.2,0.1c0.1,0,0.2,0.1,0.3,0.1c0.1,0,0.2,0,0.3,0c0.1,0,0.2-0.1,0.3-0.1L11.8,48
							C11.9,48,11.8,48,11.8,48z"/>
					</g>
					<g>
						<path class="st1" d="M4.6,47.2c-0.5,0-1,0-1.5-0.1c-0.3,0-0.5-0.1-0.8-0.1c-0.1,0-0.2-0.1-0.3-0.1l0.1-0.3
							c0.1,0,0.2,0.1,0.3,0.1c0.2,0.1,0.5,0.1,0.7,0.2c0.5,0.1,1,0.1,1.5,0.2c0.5,0.1,0.9,0.1,1.3,0.2c0.8,0.2,1.2,0.3,1.2,0.3
							s-0.5-0.1-1.3-0.2C5.5,47.3,5.1,47.3,4.6,47.2z"/>
					</g>
					<g>
						<path class="st1" d="M7.6,48.6c-0.2-0.1-0.4-0.2-0.6-0.3c-0.2-0.1-0.5-0.1-0.7-0.2c-0.3,0-0.5-0.1-0.8-0.1
							c-0.3,0-0.6,0-0.9-0.1c-1-0.1-1.9-0.3-2.7-0.5l0.1-0.4c0.8,0.2,1.7,0.4,2.6,0.6c0.3,0,0.6,0.1,0.9,0.1c0.3,0,0.6,0.1,0.8,0.1
							C6.5,48,6.8,48.1,7,48.2C7.2,48.3,7.5,48.4,7.6,48.6c0.2,0,0.4,0.1,0.5,0.2c0.1,0.1,0.2,0.2,0.3,0.3c0.2,0.2,0.2,0.3,0.2,0.3
							s-0.1-0.1-0.3-0.3C8.3,49,8,48.8,7.6,48.6z"/>
					</g>
					<g>
						<path class="st1" d="M8.7,51.3c0,0,0.1-0.1,0.1-0.2c0-0.1,0-0.1,0-0.2c0-0.1,0-0.1,0-0.1c-0.1-0.2-0.3-0.3-0.4-0.4
							c-0.2-0.2-0.5-0.3-0.8-0.5c-0.5-0.3-1-0.5-1.5-0.7c-1-0.4-2-0.7-2.8-1c-0.6-0.2-1.2-0.4-1.6-0.5l-0.1,0.4
							c0.4,0.1,1,0.3,1.6,0.5c0.8,0.3,1.7,0.6,2.7,1c0.5,0.2,1,0.5,1.4,0.7c0.2,0.1,0.5,0.3,0.7,0.4c0,0,0,0,0,0c-0.2,0-0.4,0-0.6,0
							c-0.3,0-0.5-0.1-0.8-0.2c-0.5-0.1-1.1-0.3-1.6-0.4c-1-0.2-2-0.5-2.8-0.6c-0.3-0.1-0.6-0.1-0.9-0.2l-0.1,0.3
							c0.3,0,0.6,0.1,0.9,0.2C3,50.1,4,50.3,5,50.6c0.5,0.1,1,0.3,1.6,0.4c0.3,0.1,0.5,0.2,0.8,0.3c0.3,0.1,0.5,0.2,0.9,0.2l0.1,0
							c0.1,0,0.1,0,0.2-0.1C8.7,51.4,8.7,51.3,8.7,51.3z M8.3,50.9L8.3,50.9C8.3,50.9,8.3,50.9,8.3,50.9C8.3,50.9,8.3,50.9,8.3,50.9
							z"/>
					</g>
				</g>
				<g>
					<path class="st2" d="M1,50.6c1.4,0.2,3.4,0.4,5.1,0.9c3,0.8,6.5,2.2,8.3,2.6c1.5,0.3,7.9,1.8,10.3,2.3l-0.2,0.6L1,50.7L1,50.6z
						"/>
				</g>
				<g>
					<path class="st2" d="M21.2,50.8c-1.5-0.7-8.2-2.1-12.4-3.1c-2.7-0.7-5.1-1.5-6.5-2.1l0-0.2l23.5,6.3l-0.2,0.6
						C24.1,51.8,22,51.2,21.2,50.8z"/>
				</g>
			</g>
			<g>
				<rect x="1" y="50.1" transform="matrix(0.9659 0.2588 -0.2588 0.9659 13.1114 1.3495)" class="st3" width="0.8" height="0.8"/>
			</g>
			<g>
				
					<rect x="2.3" y="45.5" transform="matrix(0.9659 0.2588 -0.2588 0.9659 11.9698 0.8767)" class="st3" width="0.8" height="0.8"/>
			</g>
			<g>
				
					<rect x="23.8" y="56.2" transform="matrix(0.9659 0.2588 -0.2588 0.9659 15.4685 -4.3412)" class="st3" width="0.8" height="0.8"/>
			</g>
			<g>
				
					<rect x="25.1" y="51.6" transform="matrix(0.9659 0.2588 -0.2588 0.9659 14.3269 -4.8141)" class="st3" width="0.8" height="0.8"/>
			</g>
		</g>
		<g>
			<g>
				<g>
					<path class="st4" d="M4.4,48L4,47.9c-0.4-0.1-0.7,0.1-0.8,0.5l0,0.1c-0.1,0.4,0.1,0.7,0.5,0.8L4,49.5L4.4,48z"/>
				</g>
				<g>
					<polygon class="st5" points="3.6,48.4 3.4,48.6 3.5,48.8 3.8,48.9 4,48.7 3.9,48.4 					"/>
				</g>
			</g>
			<g>
				<g>
					<path class="st4" d="M6.7,50.2l0.4,0.1c0.4,0.1,0.7-0.1,0.8-0.5l0-0.1c0.1-0.4-0.1-0.7-0.5-0.8l-0.4-0.1L6.7,50.2z"/>
				</g>
				<g>
					<polygon class="st5" points="7.5,49.9 7.7,49.7 7.6,49.4 7.3,49.4 7.2,49.6 7.2,49.8 					"/>
				</g>
			</g>
		</g>
		<g>
			<g>
				<g>
					<path class="st4" d="M20.1,52.3l-0.4-0.1c-0.4-0.1-0.7,0.1-0.8,0.5l0,0.1c-0.1,0.4,0.1,0.7,0.5,0.8l0.4,0.1L20.1,52.3z"/>
				</g>
				<g>
					<polygon class="st5" points="19.4,52.6 19.2,52.8 19.3,53.1 19.5,53.1 19.7,52.9 19.7,52.7 					"/>
				</g>
			</g>
			<g>
				<g>
					<path class="st4" d="M22.5,54.4l0.4,0.1c0.4,0.1,0.7-0.1,0.8-0.5l0-0.1c0.1-0.4-0.1-0.7-0.5-0.8L22.9,53L22.5,54.4z"/>
				</g>
				<g>
					<polygon class="st5" points="23.3,54.1 23.5,53.9 23.4,53.7 23.1,53.6 22.9,53.8 23,54 					"/>
				</g>
			</g>
		</g>
	</g>
	<g>
		<path class="st6" d="M2.5,72.4h2.9v-7.2c0-34.4,28-62.4,62.4-62.4h7.6V0h-7.6C31.8,0,2.5,29.3,2.5,65.2V72.4z"/>
	</g>
	<g>
		<path class="st7" d="M2.9,72.4h2v-7.2C5,30.6,33.1,2.5,67.7,2.5h7.6v-2h-7.6C32,0.4,2.9,29.5,2.9,65.2V72.4z"/>
	</g>
	<g>
		<path class="st6" d="M18.9,72.4h2.9v-7.2c0-25.3,20.6-46,46-46h7.6v-2.9h-7.6c-26.9,0-48.8,21.9-48.8,48.8V72.4z"/>
	</g>
	<g>
		<path class="st7" d="M19.3,72.4h2v-7.2c0-25.6,20.8-46.4,46.4-46.4h7.6v-2h-7.6c-26.7,0-48.4,21.7-48.4,48.4V72.4z"/>
	</g>
</g>
</svg>
