<!-- Generator: Adobe Illustrator 22.0.1, SVG Export Plug-In  -->
<svg version="1.1"
	 xmlns="http://www.w3.org/2000/svg" xmlns:xlink="http://www.w3.org/1999/xlink" xmlns:a="http://ns.adobe.com/AdobeSVGViewerExtensions/3.0/"
	 x="0px" y="0px" width="760px" height="746px" viewBox="0 0 760 746" style="enable-background:new 0 0 760 746;"
	 xml:space="preserve">
<style type="text/css">
	.st0{fill:#E8813C;}
	.st1{fill:#F39150;}
	.st2{fill:#F5A26D;}
	.st3{fill:#FFCF5E;}
	.st4{fill:#FFBE23;}
	.st5{fill:#E3A922;}
	.st6{fill:#F08281;}
	.st7{fill:#DE4B49;}
	.st8{fill:#E95F5E;}
	.st9{fill:#C4C4C4;}
	.st10{fill:#ECECEC;}
	.st11{fill:#D9D9D9;}
	.st12{fill:#FBD58C;}
	.st13{fill:#E6E7E8;}
	.st14{fill:#F1F2F2;}
	.st15{fill:#CCCCCC;}
	.st16{fill:#DBB77D;}
</style>
<defs>
</defs>
<g>
	<g>
		<g>
			<path d="M738.9,663.6c-1.4,1.4,0.1,5.5,1.4,9.7c1.2,4,2.3,8.2,0.6,10c-3.4,3.6-13.3-4-16.5-3.3c-0.2,0.1-0.4,0.1-0.5,0.3
				c-1.4,1.2,0.1,5,1.2,8.5l34.8,14.4L743.7,664C741.7,663.1,739.9,662.7,738.9,663.6z"/>
			<path class="st0" d="M712,594.4c-2.1,2.1-9.7-2.5-16.7-5.7c-4.5-2-8.8-3.4-11.5-1.9l56.5,86.5c-1.3-4.2-2.8-8.4-1.4-9.7
				c0.9-0.9,2.7-0.5,4.7,0.4l-32.6-78.9C712.6,589.6,713.2,593.2,712,594.4z"/>
			<path class="st1" d="M683,587.5c-0.2,0.2-0.4,0.5-0.6,0.8l-0.1,0.3c-1.3,2.6-0.5,7.2,0.7,12.5c2.3,9.7,6.1,21.5,1.3,26.6
				c-5.2,5.5-16.4,0-24.9-3c-4.2-1.5-7.7-2.3-9.4-0.8c-0.7,0.6-1.1,1.6-1.3,2.7c-0.1,0.9-0.1,1.9,0,3c0,0.4,0.1,0.7,0.1,1.1
				l75.7,49.4c3.2-0.8,13.1,6.8,16.5,3.3c1.7-1.8,0.7-6-0.6-10l-56.5-86.5C683.5,587,683.2,587.2,683,587.5z"/>
			<path class="st2" d="M724.2,679.9L724.2,679.9l-75.4-49.3c0.2,1.2,0.4,2.5,0.7,3.8c1.7,7.2,4.5,15.7,0.8,19
				c-2.1,1.9-6.7,1.4-11.3-0.1l86,35.6c-1-3.5-2.6-7.4-1.2-8.5c0.1-0.1,0.3-0.2,0.5-0.3L724.2,679.9z"/>
			<path class="st3" d="M151.8,169.5l481.3,481.3l6,2.5c4.6,1.5,9.2,1.9,11.3,0.1c3.7-3.2,0.8-11.7-0.8-19c-0.3-1.3-0.6-2.6-0.7-3.8
				L169.7,151.6L151.8,169.5z"/>
			<path class="st4" d="M207.7,113.6l-37.5,37.5l-0.5,0.5l479.1,479.1c-0.1-0.4-0.1-0.7-0.1-1.1c-0.1-1.1-0.1-2.1,0-3
				c0.2-1.2,0.6-2.1,1.3-2.7c1.7-1.5,5.3-0.7,9.4,0.8c8.4,3,19.6,8.5,24.9,3c4.8-5.1,1-16.9-1.3-26.6c-1.2-5.3-2-9.9-0.7-12.5
				l0.1-0.3c0.2-0.3,0.4-0.5,0.6-0.8c0.3-0.3,0.6-0.5,0.9-0.7L209.2,112.1L207.7,113.6z"/>
			<path class="st5" d="M209.2,112.1l474.7,474.7c2.6-1.5,6.9-0.1,11.5,1.9c7,3.1,14.6,7.8,16.7,5.7c1.2-1.2,0.6-4.8-0.9-9.3
				l-3.6-8.6L226.2,95.1L209.2,112.1z"/>
		</g>
		<g>
			<path class="st6" d="M68.2,85.9c10.3,10.3,28,28,38.4,38.4c6-6,12-12,17.9-17.9L79.7,61.5C75,69.1,71.2,77.3,68.2,85.9z"/>
			<path class="st7" d="M142.6,11.6c-8.2,2.8-16,6.4-23.2,10.7L164,66.9c5.7-5.7,11.3-11.3,17-17C170.6,39.6,152.9,21.9,142.6,11.6z
				"/>
			<path class="st8" d="M79.7,61.5l44.9,44.9c13.1-13.1,26.3-26.3,39.4-39.4l-44.6-44.6C103.1,32,89.6,45.4,79.7,61.5z"/>
		</g>
	</g>
	<g>
		
			<rect x="183.1" y="49.1" transform="matrix(0.7071 -0.7071 0.7071 0.7071 -0.1653 161.671)" class="st9" width="24" height="63.9"/>
		
			<rect x="125.5" y="106" transform="matrix(0.7071 -0.7071 0.7071 0.7071 -57.068 138.1011)" class="st10" width="25.4" height="63.9"/>
		
			<rect x="139" y="77.3" transform="matrix(0.7071 -0.7071 0.7071 0.7071 -28.3796 149.9842)" class="st11" width="55.8" height="63.9"/>
	</g>
</g>
<g>
	<g>
		<g>
			<g>
				
					<rect x="221.5" y="308.9" transform="matrix(0.7071 -0.7071 0.7071 0.7071 -109.0752 380.8991)" class="st12" width="367.4" height="26.4"/>
				<g>
					<path class="st13" d="M162.7,546c-10.3,10.3-10.3,27,0,37.3L20.1,725.9c0,0-45.2-118.5,0-163.7l114.6-114.6l63.2,63.2
						L162.7,546z"/>
					<g>
						<path class="st14" d="M284.7,461.3l-68.2,68.2l-32.3,32.3l-21.5,21.5c-10.3-10.3-10.3-27,0-37.3L266,442.7L284.7,461.3z"/>
					</g>
				</g>
				<g>
					<path class="st13" d="M746,110.3l-28.1,28.1c-1.2,1.2-2.4,2.3-3.6,3.4c-0.1,0.1-0.2,0.2-0.3,0.3c-0.3,0.2-0.5,0.5-0.8,0.7
						c-0.4,0.3-0.8,0.7-1.2,1c-1.6,1.3-3.3,2.6-5,3.8c-0.4,0.3-0.9,0.6-1.3,0.9c-0.6,0.4-1.3,0.9-2,1.2c-0.4,0.2-0.8,0.5-1.2,0.7
						c-0.5,0.3-0.9,0.5-1.3,0.8c-0.3,0.2-0.6,0.3-0.9,0.5c-0.4,0.2-0.9,0.5-1.3,0.7c-0.5,0.3-1,0.5-1.4,0.7c-0.7,0.4-1.4,0.7-2.1,1
						c-0.5,0.2-1,0.5-1.6,0.7c-0.5,0.2-1,0.4-1.5,0.7c-1.8,0.7-3.7,1.4-5.6,2c-0.4,0.1-0.7,0.2-1.1,0.3c-0.1,0-0.1,0-0.2,0
						c-0.4,0.1-0.7,0.2-1.1,0.3c-0.9,0.3-1.8,0.5-2.7,0.7c-1.4,0.3-2.8,0.6-4.1,0.9c-0.1,0-0.1,0-0.2,0c-0.3,0-0.5,0.1-0.8,0.2
						c-0.6,0.1-1.3,0.2-1.9,0.3c-0.8,0.1-1.5,0.2-2.3,0.3c-0.7,0.1-1.5,0.2-2.2,0.2c-0.3,0-0.5,0.1-0.8,0.1
						c-0.6,0.1-1.2,0.1-1.8,0.1c-0.1,0-0.2,0-0.2,0c-0.8,0-1.5,0.1-2.3,0.1c-0.8,0-1.6,0-2.4,0c-0.7,0-1.4,0-2.1,0
						c-0.7,0-1.4,0-2.1-0.1c-0.6,0-1.1-0.1-1.7-0.1c0,0-0.1,0-0.1,0c-0.5,0-1.1-0.1-1.7-0.2c-0.4,0-0.9-0.1-1.3-0.1
						c-0.6-0.1-1.1-0.1-1.7-0.2c-0.7-0.1-1.3-0.2-1.9-0.3c-0.2,0-0.4-0.1-0.6-0.1c-0.5-0.1-0.9-0.1-1.3-0.2c0,0-0.1,0-0.1,0
						c0,0,0,0-0.1,0c-0.7-0.1-1.4-0.3-2-0.4c-0.7-0.2-1.3-0.3-2-0.5c-0.1,0-0.1,0-0.2,0c-0.7-0.2-1.3-0.3-2-0.5
						c-0.7-0.2-1.4-0.4-2.1-0.6c-0.8-0.2-1.5-0.5-2.2-0.7c-1.7-0.6-3.3-1.2-5-1.9c-0.5-0.2-1.1-0.5-1.6-0.7
						c-0.4-0.2-0.8-0.4-1.2-0.6l0,0l-66.4,66.4l-18.7-18.7l72.8-72.8c25,25,65.8,25,90.9,0l28.1-28.1l5,5L746,110.3z"/>
					
						<rect x="634.2" y="14.4" transform="matrix(0.7072 -0.707 0.707 0.7072 158.6228 476.0408)" class="st12" width="39.7" height="64.3"/>
					<polygon class="st12" points="736.3,100.6 736.3,100.6 690.9,55.2 					"/>
					<g>
						<path class="st14" d="M617.3,37.8c-25,25-25,65.8,0,90.9l-72.8,72.8l-18.7-18.7l66.4-66.4c-13.6-28.9-8.5-64.6,15.4-88.4
							L635.7,0l4.8,4.8l5,5L617.3,37.8z"/>
						<path class="st14" d="M630.7,154.4c-0.4-0.2-0.8-0.4-1.2-0.6l0,0C629.9,154,630.3,154.2,630.7,154.4z"/>
						<path class="st14" d="M637.3,157c-2.2-0.8-4.4-1.6-6.6-2.6C632.9,155.4,635.1,156.2,637.3,157z"/>
					</g>
				</g>
			</g>
			<path class="st13" d="M303.3,480l-68.2,68.2h0l-32.3,32.3l-2.8,2.8c-10.3,10.3-27,10.3-37.3,0l21.5-21.5l32.3-32.3l68.2-68.2
				L303.3,480z"/>
			<path class="st15" d="M298.4,611.3L183.8,725.9c-45.2,45.2-163.7,0-163.7,0l142.6-142.6c10.3,10.3,27,10.3,37.3,0l2.8-2.8
				l32.3-32.3L298.4,611.3z"/>
			<polygon class="st13" points="298.4,611.3 235.2,548.2 235.2,548.2 			"/>
			
				<rect x="240.2" y="327.6" transform="matrix(0.7071 -0.7071 0.7071 0.7071 -116.8044 399.5591)" class="st16" width="367.4" height="26.4"/>
			
				<rect x="679.7" y="59.8" transform="matrix(0.7072 -0.707 0.707 0.7072 139.8013 521.4651)" class="st16" width="39.7" height="64.3"/>
		</g>
	</g>
</g>
</svg>
