<!-- Generator: Adobe Illustrator 22.0.1, SVG Export Plug-In  -->
<svg version="1.1"
	 xmlns="http://www.w3.org/2000/svg" xmlns:xlink="http://www.w3.org/1999/xlink" xmlns:a="http://ns.adobe.com/AdobeSVGViewerExtensions/3.0/"
	 x="0px" y="0px" width="48.7px" height="117.9px" viewBox="0 0 48.7 117.9" style="enable-background:new 0 0 48.7 117.9;"
	 xml:space="preserve">
<style type="text/css">
	.st0{fill:#BC6423;}
	.st1{fill:#CC6D26;}
	.st2{fill:#635144;}
	.st3{fill:#29211C;}
	.st4{fill:#757575;}
	.st5{fill:#A8A8A7;}
	.st6{fill:#9B9B9B;}
	.st7{fill:#C9C9C8;}
	.st8{fill:#E6E6E4;}
	.st9{fill:#F90F0E;}
	.st10{fill:#DBDBDA;}
	.st11{fill:#BABAB9;}
	.st12{fill:#5C636E;}
	.st13{fill:#565C66;}
	.st14{fill:#4B5059;}
	.st15{fill:#7C8594;}
	.st16{fill:#D8A240;}
</style>
<defs>
</defs>
<g>
	<g>
		<g>
			<g>
				<g>
					<g>
						<g>
							<g>
								<rect x="5.2" y="23.2" class="st0" width="24.4" height="5.5"/>
							</g>
							<g>
								<path class="st1" d="M9.6,23.9c0,0,0.5-0.1,1-0.1c0.2,0,0.5,0,0.7,0c0.2,0,0.3,0.1,0.3,0.1s-0.5,0-1,0
									C10.1,23.9,9.6,23.9,9.6,23.9L9.6,23.9z"/>
							</g>
							<g>
								<path class="st1" d="M21,26.3c0,0-0.1,0-0.3,0c-0.2,0-0.4,0-0.7,0c-0.2,0-0.5,0-0.7-0.1c-0.2,0-0.3-0.1-0.3-0.1s0.5,0,1,0
									c0.2,0,0.5,0,0.7,0C20.9,26.3,21,26.3,21,26.3L21,26.3z"/>
							</g>
							<g>
								<path class="st1" d="M22.8,27.9c0,0-0.3,0-0.7,0.1c-0.4,0-1,0-1.6,0c-0.6,0-1.2-0.1-1.6-0.1c-0.4-0.1-0.7-0.1-0.7-0.1
									s0.1,0,0.2,0c0.1,0,0.3,0,0.5,0c0.4,0,1,0,1.6,0c0.6,0,1.2,0.1,1.6,0.1C22.5,27.9,22.8,27.9,22.8,27.9L22.8,27.9z"/>
							</g>
							<g>
								<path class="st1" d="M27.6,23.2c-0.3,0.1-0.5,0.1-0.8,0.2c-0.7,0.1-1.5,0.3-2.3,0.4c-0.4,0.1-0.8,0.1-1.1,0.1
									c-0.2,0-0.4,0-0.6,0c-0.2,0-0.4,0-0.5,0c-0.7,0-1.3-0.2-1.9-0.4c-0.2-0.1-0.4-0.2-0.5-0.2h-0.9c0.3,0.2,0.7,0.4,1.2,0.6
									c0.6,0.2,1.2,0.4,2,0.5c0.2,0,0.4,0,0.6,0c0.2,0,0.4,0,0.6,0c0.4,0,0.8-0.1,1.2-0.2c0.8-0.2,1.5-0.3,2.2-0.5
									c0.5-0.1,1-0.2,1.5-0.3H27.6z"/>
							</g>
							<g>
								<path class="st1" d="M14.3,24.9c0.6-0.5,1.3-0.9,1.8-1.1c0.6-0.3,1.1-0.4,1.5-0.5c0,0,0,0,0,0H17c-0.3,0.1-0.6,0.2-1,0.3
									c-0.6,0.2-1.3,0.5-2.1,1c-0.3,0.2-0.7,0.6-0.9,1.1l0,0.2c0,0.1,0,0.1,0,0.2c0,0.1,0.1,0.3,0.1,0.4c0.1,0.2,0.3,0.4,0.5,0.6
									c0.1,0.1,0.2,0.2,0.3,0.2c0.1,0.1,0.2,0.1,0.3,0.2c0.2,0.1,0.4,0.2,0.6,0.3c0.4,0.2,0.8,0.3,1.2,0.5
									c0.4,0.1,0.8,0.2,1.1,0.3c0.2,0,0.3,0.1,0.5,0.1h0.6c0,0,0,0,0,0c-0.3-0.1-0.6-0.2-1-0.3c-0.4-0.1-0.7-0.3-1.1-0.4
									c-0.4-0.2-0.7-0.4-1.1-0.6c-0.4-0.2-0.7-0.5-1-0.7c-0.3-0.3-0.4-0.6-0.4-0.9C13.8,25.4,14,25.1,14.3,24.9z"/>
							</g>
							<g>
								<path class="st1" d="M29.6,27c-0.3,0-0.6,0-1,0c-0.9,0-1.8,0-2.8-0.1c-1-0.1-2.1-0.1-3.2-0.1c-1.1,0-2.2-0.1-3.4-0.1
									c-0.6,0-1.2-0.1-1.7-0.1c-0.3,0-0.6-0.1-0.9-0.1c-0.1,0-0.3,0-0.4-0.1l-0.2-0.1c0,0-0.1,0-0.1-0.1c0,0,0,0,0,0
									c0-0.1,0.1-0.1,0.2-0.2c0.2-0.1,0.5-0.2,0.8-0.3c0.5-0.2,1.1-0.3,1.7-0.4c0.6-0.1,1.1-0.1,1.7-0.1c0.5,0,1.1,0.1,1.7,0
									c1.1,0,2.2-0.1,3.2-0.2c1-0.1,2-0.2,2.8-0.3c0.6-0.1,1.2-0.1,1.7-0.2v-0.1c-0.5,0.1-1.1,0.1-1.7,0.1
									c-0.9,0.1-1.8,0.1-2.9,0.1c-1,0-2.1,0-3.2,0c-0.5,0-1.1-0.1-1.7-0.1c-0.6,0-1.2,0-1.8,0.1c-0.6,0.1-1.2,0.2-1.8,0.4
									c-0.3,0.1-0.6,0.2-0.9,0.4c-0.1,0.1-0.3,0.2-0.4,0.4c-0.1,0.1-0.1,0.3-0.1,0.4c0.1,0.2,0.2,0.2,0.3,0.3
									c0.1,0.1,0.2,0.1,0.3,0.1l0.2,0c0.1,0,0.3,0,0.5,0.1c0.3,0,0.6,0.1,0.9,0.1c0.6,0,1.2,0,1.8,0c1.2,0,2.3,0,3.4,0
									c1.1,0,2.2,0,3.2,0.1c0.5,0,1,0,1.5,0.1c0.5,0,0.9,0,1.4,0c0.3,0,0.7,0,1,0V27z"/>
							</g>
							<g>
								<path class="st1" d="M29.6,26.2c-0.3,0-0.6,0-1,0c-0.7,0-1.5,0-2.3,0c-0.4,0-0.9,0-1.3-0.1c-0.4,0-0.9-0.1-1.3-0.2
									c0,0,0.1,0,0.1,0c0.1,0,0.2,0,0.3,0c0.2,0,0.4,0,0.7-0.1c0.4,0,0.9-0.1,1.3-0.1c0.8-0.1,1.6-0.1,2.3-0.1
									c0.5,0,0.9,0,1.2-0.1v-0.3c-0.3,0-0.8,0.1-1.3,0.1c-0.7,0.1-1.5,0.1-2.3,0.2c-0.4,0-0.9,0.1-1.3,0.1c-0.2,0-0.4,0.1-0.7,0.1
									c-0.1,0-0.2,0-0.3,0.1c-0.1,0-0.1,0-0.2,0c0,0,0,0-0.1,0c0,0,0,0.1,0,0.1c0,0,0.1,0,0.1,0c0.5,0.1,0.9,0.1,1.3,0.2
									c0.4,0,0.9,0.1,1.3,0.1c0.8,0,1.6,0.1,2.3,0.1c0.4,0,0.7,0,1,0V26.2z"/>
							</g>
							<g>
								<path class="st1" d="M28.4,28.2c-0.2,0-0.4,0-0.6,0c-0.2,0-0.4,0-0.6,0c-0.4,0-0.8,0.1-1.2,0.1c-0.8,0.1-1.5,0.3-2.3,0.4
									c-0.1,0-0.1,0-0.2,0H25c0.4,0,0.8-0.1,1.2-0.1c0.4,0,0.8,0,1.2-0.1c0.2,0,0.4,0,0.6,0c0.2,0,0.4,0,0.5,0.1
									c0.2,0,0.4,0.1,0.5,0.1h0.6v-0.2C29.2,28.3,28.8,28.2,28.4,28.2z"/>
							</g>
							<g>
								<path class="st1" d="M15,28.6c-0.2-0.1-0.4-0.3-0.6-0.4c-0.1-0.1-0.3-0.1-0.4-0.1c-0.1,0-0.3,0-0.5,0
									c-0.1,0-0.3,0.1-0.4,0.2c-0.1,0.1-0.2,0.1-0.3,0.2c-0.2,0.1-0.3,0.2-0.5,0.2h0.4c0.1,0,0.1,0,0.2-0.1c0.1,0,0.2-0.1,0.4-0.2
									c0.1,0,0.1-0.1,0.2-0.1c0.1,0,0.1,0,0.2,0c0.1,0,0.2,0,0.3,0c0.1,0,0.2,0.1,0.3,0.1c0.1,0.1,0.2,0.1,0.3,0.2L15,28.6
									C15,28.7,15,28.6,15,28.6z"/>
							</g>
							<g>
								<path class="st1" d="M7.8,27.5c-0.5-0.1-1-0.2-1.5-0.3c-0.3,0-0.5-0.1-0.8-0.1c-0.1,0-0.2,0-0.3,0v0.3c0.1,0,0.2,0,0.4,0
									c0.2,0,0.5,0,0.7,0c0.5,0.1,1,0.2,1.5,0.2c0.5,0.1,0.9,0.1,1.3,0.1c0.8,0,1.3,0,1.3,0s-0.5,0-1.3-0.1
									C8.7,27.7,8.3,27.6,7.8,27.5z"/>
							</g>
							<g>
								<path class="st1" d="M11.1,27c-0.2,0-0.4,0.1-0.7,0.1c-0.2,0-0.5,0-0.8,0c-0.3,0-0.5-0.1-0.8-0.1c-0.3-0.1-0.6-0.1-0.9-0.2
									c-1-0.2-1.9-0.2-2.7-0.2v0.4c0.8,0,1.7,0,2.7,0.1c0.3,0,0.6,0.1,0.9,0.1c0.3,0,0.6,0.1,0.8,0.1c0.3,0,0.5,0,0.8,0
									c0.3,0,0.5-0.1,0.7-0.1c0.2-0.1,0.4-0.1,0.6-0.2c0.2-0.1,0.3-0.2,0.4-0.2c0.2-0.1,0.3-0.2,0.3-0.2s-0.1,0.1-0.3,0.2
									C11.8,26.8,11.5,26.9,11.1,27z"/>
							</g>
							<g>
								<path class="st1" d="M12.8,24.5c-0.1-0.1-0.1-0.1-0.2-0.1l-0.1,0c-0.3-0.1-0.6,0-0.9,0c-0.3,0-0.6,0-0.9,0
									c-0.6,0-1.1,0-1.6,0c-1.1,0-2-0.1-2.9-0.2c-0.3,0-0.7-0.1-1-0.1v0.3c0.3,0,0.6,0,0.9,0.1C7,24.6,8,24.6,9,24.7
									c0.5,0,1.1,0,1.6,0c0.3,0,0.6,0,0.8,0.1c0.2,0,0.4,0.1,0.6,0.1c0,0,0,0,0,0c-0.2,0.1-0.5,0.2-0.8,0.2
									c-0.5,0.1-1.1,0.2-1.6,0.3c-1,0.2-2,0.3-2.9,0.3c-0.6,0-1.2,0.1-1.7,0.1v0.4c0.5,0,1,0,1.7-0.1c0.9,0,1.8-0.1,2.9-0.2
									c0.5-0.1,1.1-0.1,1.6-0.3c0.3-0.1,0.6-0.1,0.9-0.3c0.1-0.1,0.3-0.1,0.5-0.3c0,0,0,0,0.1-0.1c0-0.1,0-0.1,0.1-0.2
									c0-0.1,0-0.2,0-0.2C12.8,24.6,12.8,24.6,12.8,24.5z M12.3,25C12.3,25,12.3,25,12.3,25C12.3,25,12.3,25,12.3,25
									C12.3,25,12.3,25,12.3,25z"/>
							</g>
						</g>
						<g>
							<path class="st2" d="M5.2,23.3c1.4,0.2,3.4,0.5,5.1,0.5c3.1,0,6.8-0.4,8.7-0.4c1.5,0.1,8.1,0.3,10.5,0.4v-0.6H5.2V23.3z"/>
						</g>
						<g>
							<path class="st2" d="M24.8,28.4c-1.7,0.3-8.4-0.1-12.8-0.2c-2.7,0-5.3,0.2-6.8,0.3v0.2h24.4v-0.6
								C27.8,28.2,25.7,28.2,24.8,28.4z"/>
						</g>
					</g>
					<g>
						<rect x="5.2" y="23.2" class="st3" width="0.8" height="0.8"/>
					</g>
					<g>
						<rect x="5.2" y="27.9" class="st3" width="0.8" height="0.8"/>
					</g>
					<g>
						<rect x="28.8" y="23.2" class="st3" width="0.8" height="0.8"/>
					</g>
					<g>
						<rect x="28.8" y="27.9" class="st3" width="0.8" height="0.8"/>
					</g>
				</g>
				<g>
					<g>
						<g>
							<path class="st4" d="M7.8,26.7H7.4c-0.4,0-0.7-0.3-0.7-0.7v-0.1c0-0.4,0.3-0.7,0.7-0.7h0.4V26.7z"/>
						</g>
						<g>
							<polygon class="st5" points="7.2,26.2 7,25.9 7.2,25.7 7.4,25.7 7.6,25.9 7.4,26.2 							"/>
						</g>
					</g>
					<g>
						<g>
							<path class="st4" d="M10.6,25.2H11c0.4,0,0.7,0.3,0.7,0.7V26c0,0.4-0.3,0.7-0.7,0.7h-0.4V25.2z"/>
						</g>
						<g>
							<polygon class="st5" points="11.3,25.7 11.4,25.9 11.3,26.2 11,26.2 10.9,25.9 11,25.7 							"/>
						</g>
					</g>
				</g>
				<g>
					<g>
						<g>
							<path class="st4" d="M24.1,26.7h-0.4c-0.4,0-0.7-0.3-0.7-0.7v-0.1c0-0.4,0.3-0.7,0.7-0.7h0.4V26.7z"/>
						</g>
						<g>
							<polygon class="st5" points="23.5,26.2 23.4,25.9 23.5,25.7 23.8,25.7 23.9,25.9 23.8,26.2 							"/>
						</g>
					</g>
					<g>
						<g>
							<path class="st4" d="M27,25.2h0.4c0.4,0,0.7,0.3,0.7,0.7V26c0,0.4-0.3,0.7-0.7,0.7H27V25.2z"/>
						</g>
						<g>
							<polygon class="st5" points="27.6,25.7 27.7,25.9 27.6,26.2 27.3,26.2 27.2,25.9 27.3,25.7 							"/>
						</g>
					</g>
				</g>
			</g>
			<g>
				<g>
					<g>
						<g>
							<g>
								<rect x="5.2" y="35.4" class="st0" width="24.4" height="5.5"/>
							</g>
							<g>
								<path class="st1" d="M9.6,36.1c0,0,0.5-0.1,1-0.1c0.2,0,0.5,0,0.7,0c0.2,0,0.3,0.1,0.3,0.1s-0.5,0-1,0
									C10.1,36.1,9.6,36.1,9.6,36.1L9.6,36.1z"/>
							</g>
							<g>
								<path class="st1" d="M21,38.6c0,0-0.1,0-0.3,0c-0.2,0-0.4,0-0.7,0c-0.2,0-0.5,0-0.7-0.1c-0.2,0-0.3-0.1-0.3-0.1s0.5,0,1,0
									c0.2,0,0.5,0,0.7,0C20.9,38.6,21,38.6,21,38.6L21,38.6z"/>
							</g>
							<g>
								<path class="st1" d="M22.8,40.2c0,0-0.3,0-0.7,0.1c-0.4,0-1,0-1.6,0c-0.6,0-1.2-0.1-1.6-0.1C18.4,40,18.1,40,18.1,40
									s0.1,0,0.2,0c0.1,0,0.3,0,0.5,0c0.4,0,1,0,1.6,0c0.6,0,1.2,0.1,1.6,0.1C22.5,40.1,22.8,40.2,22.8,40.2L22.8,40.2z"/>
							</g>
							<g>
								<path class="st1" d="M27.6,35.4c-0.3,0.1-0.5,0.1-0.8,0.2c-0.7,0.1-1.5,0.3-2.3,0.4c-0.4,0.1-0.8,0.1-1.1,0.1
									c-0.2,0-0.4,0-0.6,0c-0.2,0-0.4,0-0.5,0c-0.7,0-1.3-0.2-1.9-0.4c-0.2-0.1-0.4-0.2-0.5-0.2h-0.9c0.3,0.2,0.7,0.4,1.2,0.6
									c0.6,0.2,1.2,0.4,2,0.5c0.2,0,0.4,0,0.6,0c0.2,0,0.4,0,0.6,0c0.4,0,0.8-0.1,1.2-0.2c0.8-0.2,1.5-0.3,2.2-0.5
									c0.5-0.1,1-0.2,1.5-0.3H27.6z"/>
							</g>
							<g>
								<path class="st1" d="M14.3,37.1c0.6-0.5,1.3-0.9,1.8-1.1c0.6-0.3,1.1-0.4,1.5-0.5c0,0,0,0,0,0H17c-0.3,0.1-0.6,0.2-1,0.3
									c-0.6,0.2-1.3,0.5-2.1,1c-0.3,0.2-0.7,0.6-0.9,1.1l0,0.2c0,0.1,0,0.1,0,0.2c0,0.1,0.1,0.3,0.1,0.4c0.1,0.2,0.3,0.4,0.5,0.6
									c0.1,0.1,0.2,0.2,0.3,0.2c0.1,0.1,0.2,0.1,0.3,0.2c0.2,0.1,0.4,0.2,0.6,0.3c0.4,0.2,0.8,0.3,1.2,0.5
									c0.4,0.1,0.8,0.2,1.1,0.3c0.2,0,0.3,0.1,0.5,0.1h0.6c0,0,0,0,0,0c-0.3-0.1-0.6-0.2-1-0.3c-0.4-0.1-0.7-0.3-1.1-0.4
									c-0.4-0.2-0.7-0.4-1.1-0.6c-0.4-0.2-0.7-0.5-1-0.7c-0.3-0.3-0.4-0.6-0.4-0.9C13.8,37.7,14,37.4,14.3,37.1z"/>
							</g>
							<g>
								<path class="st1" d="M29.6,39.3c-0.3,0-0.6,0-1,0c-0.9,0-1.8,0-2.8-0.1c-1-0.1-2.1-0.1-3.2-0.1c-1.1,0-2.2-0.1-3.4-0.1
									c-0.6,0-1.2-0.1-1.7-0.1c-0.3,0-0.6-0.1-0.9-0.1c-0.1,0-0.3,0-0.4-0.1l-0.2-0.1c0,0-0.1,0-0.1-0.1c0,0,0,0,0,0
									c0-0.1,0.1-0.1,0.2-0.2c0.2-0.1,0.5-0.2,0.8-0.3c0.5-0.2,1.1-0.3,1.7-0.4c0.6-0.1,1.1-0.1,1.7-0.1c0.5,0,1.1,0.1,1.7,0
									c1.1,0,2.2-0.1,3.2-0.2c1-0.1,2-0.2,2.8-0.3c0.6-0.1,1.2-0.1,1.7-0.2v-0.1c-0.5,0.1-1.1,0.1-1.7,0.1
									c-0.9,0.1-1.8,0.1-2.9,0.1c-1,0-2.1,0-3.2,0c-0.5,0-1.1-0.1-1.7-0.1c-0.6,0-1.2,0-1.8,0.1c-0.6,0.1-1.2,0.2-1.8,0.4
									c-0.3,0.1-0.6,0.2-0.9,0.4c-0.1,0.1-0.3,0.2-0.4,0.4c-0.1,0.1-0.1,0.3-0.1,0.4c0.1,0.2,0.2,0.2,0.3,0.3
									c0.1,0.1,0.2,0.1,0.3,0.1l0.2,0c0.1,0,0.3,0,0.5,0.1c0.3,0,0.6,0.1,0.9,0.1c0.6,0,1.2,0,1.8,0c1.2,0,2.3,0,3.4,0
									c1.1,0,2.2,0,3.2,0.1c0.5,0,1,0,1.5,0.1c0.5,0,0.9,0,1.4,0c0.3,0,0.7,0,1,0V39.3z"/>
							</g>
							<g>
								<path class="st1" d="M29.6,38.4c-0.3,0-0.6,0-1,0c-0.7,0-1.5,0-2.3,0c-0.4,0-0.9,0-1.3-0.1c-0.4,0-0.9-0.1-1.3-0.2
									c0,0,0.1,0,0.1,0c0.1,0,0.2,0,0.3,0c0.2,0,0.4,0,0.7-0.1c0.4,0,0.9-0.1,1.3-0.1c0.8-0.1,1.6-0.1,2.3-0.1
									c0.5,0,0.9,0,1.2-0.1v-0.3c-0.3,0-0.8,0.1-1.3,0.1c-0.7,0.1-1.5,0.1-2.3,0.2c-0.4,0-0.9,0.1-1.3,0.1c-0.2,0-0.4,0.1-0.7,0.1
									c-0.1,0-0.2,0-0.3,0.1c-0.1,0-0.1,0-0.2,0c0,0,0,0-0.1,0c0,0,0,0.1,0,0.1c0,0,0.1,0,0.1,0c0.5,0.1,0.9,0.1,1.3,0.2
									c0.4,0,0.9,0.1,1.3,0.1c0.8,0,1.6,0.1,2.3,0.1c0.4,0,0.7,0,1,0V38.4z"/>
							</g>
							<g>
								<path class="st1" d="M28.4,40.4c-0.2,0-0.4,0-0.6,0c-0.2,0-0.4,0-0.6,0c-0.4,0-0.8,0.1-1.2,0.1c-0.8,0.1-1.5,0.3-2.3,0.4
									c-0.1,0-0.1,0-0.2,0H25c0.4,0,0.8-0.1,1.2-0.1c0.4,0,0.8,0,1.2-0.1c0.2,0,0.4,0,0.6,0c0.2,0,0.4,0,0.5,0.1
									c0.2,0,0.4,0.1,0.5,0.1h0.6v-0.2C29.2,40.6,28.8,40.5,28.4,40.4z"/>
							</g>
							<g>
								<path class="st1" d="M15,40.9c-0.2-0.1-0.4-0.3-0.6-0.4c-0.1-0.1-0.3-0.1-0.4-0.1c-0.1,0-0.3,0-0.5,0
									c-0.1,0-0.3,0.1-0.4,0.2c-0.1,0.1-0.2,0.1-0.3,0.2c-0.2,0.1-0.3,0.2-0.5,0.2h0.4c0.1,0,0.1,0,0.2-0.1c0.1,0,0.2-0.1,0.4-0.2
									c0.1,0,0.1-0.1,0.2-0.1c0.1,0,0.1,0,0.2,0c0.1,0,0.2,0,0.3,0c0.1,0,0.2,0.1,0.3,0.1c0.1,0.1,0.2,0.1,0.3,0.2L15,40.9
									C15,40.9,15,40.9,15,40.9z"/>
							</g>
							<g>
								<path class="st1" d="M7.8,39.8c-0.5-0.1-1-0.2-1.5-0.3c-0.3,0-0.5-0.1-0.8-0.1c-0.1,0-0.2,0-0.3,0v0.3c0.1,0,0.2,0,0.4,0
									c0.2,0,0.5,0,0.7,0c0.5,0.1,1,0.2,1.5,0.2C8.3,40,8.7,40,9.1,40.1c0.8,0,1.3,0,1.3,0s-0.5,0-1.3-0.1
									C8.7,39.9,8.3,39.9,7.8,39.8z"/>
							</g>
							<g>
								<path class="st1" d="M11.1,39.2c-0.2,0-0.4,0.1-0.7,0.1c-0.2,0-0.5,0-0.8,0c-0.3,0-0.5-0.1-0.8-0.1
									c-0.3-0.1-0.6-0.1-0.9-0.2c-1-0.2-1.9-0.2-2.7-0.2v0.4c0.8,0,1.7,0,2.7,0.1c0.3,0,0.6,0.1,0.9,0.1c0.3,0,0.6,0.1,0.8,0.1
									c0.3,0,0.5,0,0.8,0c0.3,0,0.5-0.1,0.7-0.1c0.2-0.1,0.4-0.1,0.6-0.2c0.2-0.1,0.3-0.2,0.4-0.2c0.2-0.1,0.3-0.2,0.3-0.2
									s-0.1,0.1-0.3,0.2C11.8,39,11.5,39.1,11.1,39.2z"/>
							</g>
							<g>
								<path class="st1" d="M12.8,36.8c-0.1-0.1-0.1-0.1-0.2-0.1l-0.1,0c-0.3-0.1-0.6,0-0.9,0c-0.3,0-0.6,0-0.9,0
									c-0.6,0-1.1,0-1.6,0c-1.1,0-2-0.1-2.9-0.2c-0.3,0-0.7-0.1-1-0.1v0.3c0.3,0,0.6,0,0.9,0.1C7,36.8,8,36.9,9,36.9
									c0.5,0,1.1,0,1.6,0c0.3,0,0.6,0,0.8,0.1c0.2,0,0.4,0.1,0.6,0.1c0,0,0,0,0,0c-0.2,0.1-0.5,0.2-0.8,0.2
									c-0.5,0.1-1.1,0.2-1.6,0.3c-1,0.2-2,0.3-2.9,0.3c-0.6,0-1.2,0.1-1.7,0.1v0.4c0.5,0,1,0,1.7-0.1c0.9,0,1.8-0.1,2.9-0.2
									c0.5-0.1,1.1-0.1,1.6-0.3c0.3-0.1,0.6-0.1,0.9-0.3c0.1-0.1,0.3-0.1,0.5-0.3c0,0,0,0,0.1-0.1c0-0.1,0-0.1,0.1-0.2
									c0-0.1,0-0.2,0-0.2C12.8,36.9,12.8,36.8,12.8,36.8z M12.3,37.2C12.3,37.2,12.3,37.2,12.3,37.2
									C12.3,37.2,12.3,37.2,12.3,37.2C12.3,37.2,12.3,37.2,12.3,37.2z"/>
							</g>
						</g>
						<g>
							<path class="st2" d="M5.2,35.6c1.4,0.2,3.4,0.5,5.1,0.5c3.1,0,6.8-0.4,8.7-0.4c1.5,0.1,8.1,0.3,10.5,0.4v-0.6H5.2V35.6z"/>
						</g>
						<g>
							<path class="st2" d="M24.8,40.6c-1.7,0.3-8.4-0.1-12.8-0.2c-2.7,0-5.3,0.2-6.8,0.3v0.2h24.4v-0.6
								C27.8,40.4,25.7,40.5,24.8,40.6z"/>
						</g>
					</g>
					<g>
						<rect x="5.2" y="35.4" class="st3" width="0.8" height="0.8"/>
					</g>
					<g>
						<rect x="5.2" y="40.2" class="st3" width="0.8" height="0.8"/>
					</g>
					<g>
						<rect x="28.8" y="35.4" class="st3" width="0.8" height="0.8"/>
					</g>
					<g>
						<rect x="28.8" y="40.2" class="st3" width="0.8" height="0.8"/>
					</g>
				</g>
				<g>
					<g>
						<g>
							<path class="st4" d="M7.8,38.9H7.4c-0.4,0-0.7-0.3-0.7-0.7v-0.1c0-0.4,0.3-0.7,0.7-0.7h0.4V38.9z"/>
						</g>
						<g>
							<polygon class="st5" points="7.2,38.4 7,38.2 7.2,38 7.4,38 7.6,38.2 7.4,38.4 							"/>
						</g>
					</g>
					<g>
						<g>
							<path class="st4" d="M10.6,37.5H11c0.4,0,0.7,0.3,0.7,0.7v0.1c0,0.4-0.3,0.7-0.7,0.7h-0.4V37.5z"/>
						</g>
						<g>
							<polygon class="st5" points="11.3,38 11.4,38.2 11.3,38.4 11,38.4 10.9,38.2 11,38 							"/>
						</g>
					</g>
				</g>
				<g>
					<g>
						<g>
							<path class="st4" d="M24.1,38.9h-0.4c-0.4,0-0.7-0.3-0.7-0.7v-0.1c0-0.4,0.3-0.7,0.7-0.7h0.4V38.9z"/>
						</g>
						<g>
							<polygon class="st5" points="23.5,38.4 23.4,38.2 23.5,38 23.8,38 23.9,38.2 23.8,38.4 							"/>
						</g>
					</g>
					<g>
						<g>
							<path class="st4" d="M27,37.5h0.4c0.4,0,0.7,0.3,0.7,0.7v0.1c0,0.4-0.3,0.7-0.7,0.7H27V37.5z"/>
						</g>
						<g>
							<polygon class="st5" points="27.6,38 27.7,38.2 27.6,38.4 27.3,38.4 27.2,38.2 27.3,38 							"/>
						</g>
					</g>
				</g>
			</g>
			<g>
				<g>
					<g>
						<g>
							<g>
								<rect x="5.2" y="47.7" class="st0" width="24.4" height="5.5"/>
							</g>
							<g>
								<path class="st1" d="M9.6,48.4c0,0,0.5-0.1,1-0.1c0.2,0,0.5,0,0.7,0c0.2,0,0.3,0.1,0.3,0.1s-0.5,0-1,0
									C10.1,48.4,9.6,48.4,9.6,48.4L9.6,48.4z"/>
							</g>
							<g>
								<path class="st1" d="M21,50.8c0,0-0.1,0-0.3,0c-0.2,0-0.4,0-0.7,0c-0.2,0-0.5,0-0.7-0.1c-0.2,0-0.3-0.1-0.3-0.1s0.5,0,1,0
									c0.2,0,0.5,0,0.7,0C20.9,50.8,21,50.8,21,50.8L21,50.8z"/>
							</g>
							<g>
								<path class="st1" d="M22.8,52.4c0,0-0.3,0-0.7,0.1c-0.4,0-1,0-1.6,0c-0.6,0-1.2-0.1-1.6-0.1c-0.4-0.1-0.7-0.1-0.7-0.1
									s0.1,0,0.2,0c0.1,0,0.3,0,0.5,0c0.4,0,1,0,1.6,0c0.6,0,1.2,0.1,1.6,0.1C22.5,52.4,22.8,52.4,22.8,52.4L22.8,52.4z"/>
							</g>
							<g>
								<path class="st1" d="M27.6,47.7c-0.3,0.1-0.5,0.1-0.8,0.2c-0.7,0.1-1.5,0.3-2.3,0.4c-0.4,0.1-0.8,0.1-1.1,0.1
									c-0.2,0-0.4,0-0.6,0c-0.2,0-0.4,0-0.5,0c-0.7,0-1.3-0.2-1.9-0.4c-0.2-0.1-0.4-0.2-0.5-0.2h-0.9c0.3,0.2,0.7,0.4,1.2,0.6
									c0.6,0.2,1.2,0.4,2,0.5c0.2,0,0.4,0,0.6,0c0.2,0,0.4,0,0.6,0c0.4,0,0.8-0.1,1.2-0.2c0.8-0.2,1.5-0.3,2.2-0.5
									c0.5-0.1,1-0.2,1.5-0.3H27.6z"/>
							</g>
							<g>
								<path class="st1" d="M14.3,49.4c0.6-0.5,1.3-0.9,1.8-1.1c0.6-0.3,1.1-0.4,1.5-0.5c0,0,0,0,0,0H17c-0.3,0.1-0.6,0.2-1,0.3
									c-0.6,0.2-1.3,0.5-2.1,1c-0.3,0.2-0.7,0.6-0.9,1.1l0,0.2c0,0.1,0,0.1,0,0.2c0,0.1,0.1,0.3,0.1,0.4c0.1,0.2,0.3,0.4,0.5,0.6
									c0.1,0.1,0.2,0.2,0.3,0.2c0.1,0.1,0.2,0.1,0.3,0.2c0.2,0.1,0.4,0.2,0.6,0.3c0.4,0.2,0.8,0.3,1.2,0.5
									c0.4,0.1,0.8,0.2,1.1,0.3c0.2,0,0.3,0.1,0.5,0.1h0.6c0,0,0,0,0,0c-0.3-0.1-0.6-0.2-1-0.3c-0.4-0.1-0.7-0.3-1.1-0.4
									c-0.4-0.2-0.7-0.4-1.1-0.6c-0.4-0.2-0.7-0.5-1-0.7c-0.3-0.3-0.4-0.6-0.4-0.9C13.8,49.9,14,49.6,14.3,49.4z"/>
							</g>
							<g>
								<path class="st1" d="M29.6,51.5c-0.3,0-0.6,0-1,0c-0.9,0-1.8,0-2.8-0.1c-1-0.1-2.1-0.1-3.2-0.1c-1.1,0-2.2-0.1-3.4-0.1
									c-0.6,0-1.2-0.1-1.7-0.1c-0.3,0-0.6-0.1-0.9-0.1c-0.1,0-0.3,0-0.4-0.1l-0.2-0.1c0,0-0.1,0-0.1-0.1c0,0,0,0,0,0
									c0-0.1,0.1-0.1,0.2-0.2c0.2-0.1,0.5-0.2,0.8-0.3c0.5-0.2,1.1-0.3,1.7-0.4c0.6-0.1,1.1-0.1,1.7-0.1c0.5,0,1.1,0.1,1.7,0
									c1.1,0,2.2-0.1,3.2-0.2c1-0.1,2-0.2,2.8-0.3c0.6-0.1,1.2-0.1,1.7-0.2v-0.1c-0.5,0.1-1.1,0.1-1.7,0.1
									c-0.9,0.1-1.8,0.1-2.9,0.1c-1,0-2.1,0-3.2,0c-0.5,0-1.1-0.1-1.7-0.1c-0.6,0-1.2,0-1.8,0.1c-0.6,0.1-1.2,0.2-1.8,0.4
									c-0.3,0.1-0.6,0.2-0.9,0.4c-0.1,0.1-0.3,0.2-0.4,0.4c-0.1,0.1-0.1,0.3-0.1,0.4c0.1,0.2,0.2,0.2,0.3,0.3
									c0.1,0.1,0.2,0.1,0.3,0.1l0.2,0c0.1,0,0.3,0,0.5,0.1c0.3,0,0.6,0.1,0.9,0.1c0.6,0,1.2,0,1.8,0c1.2,0,2.3,0,3.4,0
									c1.1,0,2.2,0,3.2,0.1c0.5,0,1,0,1.5,0.1c0.5,0,0.9,0,1.4,0c0.3,0,0.7,0,1,0V51.5z"/>
							</g>
							<g>
								<path class="st1" d="M29.6,50.7c-0.3,0-0.6,0-1,0c-0.7,0-1.5,0-2.3,0c-0.4,0-0.9,0-1.3-0.1c-0.4,0-0.9-0.1-1.3-0.2
									c0,0,0.1,0,0.1,0c0.1,0,0.2,0,0.3,0c0.2,0,0.4,0,0.7-0.1c0.4,0,0.9-0.1,1.3-0.1c0.8-0.1,1.6-0.1,2.3-0.1
									c0.5,0,0.9,0,1.2-0.1v-0.3c-0.3,0-0.8,0.1-1.3,0.1c-0.7,0.1-1.5,0.1-2.3,0.2c-0.4,0-0.9,0.1-1.3,0.1c-0.2,0-0.4,0.1-0.7,0.1
									c-0.1,0-0.2,0-0.3,0.1c-0.1,0-0.1,0-0.2,0c0,0,0,0-0.1,0c0,0,0,0.1,0,0.1c0,0,0.1,0,0.1,0c0.5,0.1,0.9,0.1,1.3,0.2
									c0.4,0,0.9,0.1,1.3,0.1c0.8,0,1.6,0.1,2.3,0.1c0.4,0,0.7,0,1,0V50.7z"/>
							</g>
							<g>
								<path class="st1" d="M28.4,52.7c-0.2,0-0.4,0-0.6,0c-0.2,0-0.4,0-0.6,0c-0.4,0-0.8,0.1-1.2,0.1c-0.8,0.1-1.5,0.3-2.3,0.4
									c-0.1,0-0.1,0-0.2,0H25c0.4,0,0.8-0.1,1.2-0.1c0.4,0,0.8,0,1.2-0.1c0.2,0,0.4,0,0.6,0c0.2,0,0.4,0,0.5,0.1
									c0.2,0,0.4,0.1,0.5,0.1h0.6V53C29.2,52.8,28.8,52.7,28.4,52.7z"/>
							</g>
							<g>
								<path class="st1" d="M15,53.1c-0.2-0.1-0.4-0.3-0.6-0.4c-0.1-0.1-0.3-0.1-0.4-0.1c-0.1,0-0.3,0-0.5,0
									c-0.1,0-0.3,0.1-0.4,0.2c-0.1,0.1-0.2,0.1-0.3,0.2c-0.2,0.1-0.3,0.2-0.5,0.2h0.4c0.1,0,0.1,0,0.2-0.1c0.1,0,0.2-0.1,0.4-0.2
									c0.1,0,0.1-0.1,0.2-0.1c0.1,0,0.1,0,0.2,0c0.1,0,0.2,0,0.3,0c0.1,0,0.2,0.1,0.3,0.1c0.1,0.1,0.2,0.1,0.3,0.2L15,53.1
									C15,53.2,15,53.1,15,53.1z"/>
							</g>
							<g>
								<path class="st1" d="M7.8,52c-0.5-0.1-1-0.2-1.5-0.3c-0.3,0-0.5-0.1-0.8-0.1c-0.1,0-0.2,0-0.3,0V52c0.1,0,0.2,0,0.4,0
									c0.2,0,0.5,0,0.7,0c0.5,0.1,1,0.2,1.5,0.2c0.5,0.1,0.9,0.1,1.3,0.1c0.8,0,1.3,0,1.3,0s-0.5,0-1.3-0.1
									C8.7,52.2,8.3,52.1,7.8,52z"/>
							</g>
							<g>
								<path class="st1" d="M11.1,51.5c-0.2,0-0.4,0.1-0.7,0.1c-0.2,0-0.5,0-0.8,0c-0.3,0-0.5-0.1-0.8-0.1
									c-0.3-0.1-0.6-0.1-0.9-0.2c-1-0.2-1.9-0.2-2.7-0.2v0.4c0.8,0,1.7,0,2.7,0.1c0.3,0,0.6,0.1,0.9,0.1c0.3,0,0.6,0.1,0.8,0.1
									c0.3,0,0.5,0,0.8,0c0.3,0,0.5-0.1,0.7-0.1c0.2-0.1,0.4-0.1,0.6-0.2c0.2-0.1,0.3-0.2,0.4-0.2c0.2-0.1,0.3-0.2,0.3-0.2
									S12.2,51,12,51.1C11.8,51.3,11.5,51.4,11.1,51.5z"/>
							</g>
							<g>
								<path class="st1" d="M12.8,49c-0.1-0.1-0.1-0.1-0.2-0.1l-0.1,0c-0.3-0.1-0.6,0-0.9,0c-0.3,0-0.6,0-0.9,0c-0.6,0-1.1,0-1.6,0
									c-1.1,0-2-0.1-2.9-0.2c-0.3,0-0.7-0.1-1-0.1v0.3c0.3,0,0.6,0,0.9,0.1C7,49.1,8,49.1,9,49.2c0.5,0,1.1,0,1.6,0
									c0.3,0,0.6,0,0.8,0.1c0.2,0,0.4,0.1,0.6,0.1c0,0,0,0,0,0c-0.2,0.1-0.5,0.2-0.8,0.2c-0.5,0.1-1.1,0.2-1.6,0.3
									c-1,0.2-2,0.3-2.9,0.3c-0.6,0-1.2,0.1-1.7,0.1v0.4c0.5,0,1,0,1.7-0.1c0.9,0,1.8-0.1,2.9-0.2c0.5-0.1,1.1-0.1,1.6-0.3
									c0.3-0.1,0.6-0.1,0.9-0.3c0.1-0.1,0.3-0.1,0.5-0.3c0,0,0,0,0.1-0.1c0-0.1,0-0.1,0.1-0.2c0-0.1,0-0.2,0-0.2
									C12.8,49.1,12.8,49.1,12.8,49z M12.3,49.5C12.3,49.5,12.3,49.5,12.3,49.5C12.3,49.5,12.3,49.5,12.3,49.5
									C12.3,49.5,12.3,49.5,12.3,49.5z"/>
							</g>
						</g>
						<g>
							<path class="st2" d="M5.2,47.8c1.4,0.2,3.4,0.5,5.1,0.5c3.1,0,6.8-0.4,8.7-0.4c1.5,0.1,8.1,0.3,10.5,0.4v-0.6H5.2V47.8z"/>
						</g>
						<g>
							<path class="st2" d="M24.8,52.9c-1.7,0.3-8.4-0.1-12.8-0.2c-2.7,0-5.3,0.2-6.8,0.3v0.2h24.4v-0.6
								C27.8,52.7,25.7,52.7,24.8,52.9z"/>
						</g>
					</g>
					<g>
						<rect x="5.2" y="47.7" class="st3" width="0.8" height="0.8"/>
					</g>
					<g>
						<rect x="5.2" y="52.4" class="st3" width="0.8" height="0.8"/>
					</g>
					<g>
						<rect x="28.8" y="47.7" class="st3" width="0.8" height="0.8"/>
					</g>
					<g>
						<rect x="28.8" y="52.4" class="st3" width="0.8" height="0.8"/>
					</g>
				</g>
				<g>
					<g>
						<g>
							<path class="st4" d="M7.8,51.2H7.4c-0.4,0-0.7-0.3-0.7-0.7v-0.1c0-0.4,0.3-0.7,0.7-0.7h0.4V51.2z"/>
						</g>
						<g>
							<polygon class="st5" points="7.2,50.7 7,50.4 7.2,50.2 7.4,50.2 7.6,50.4 7.4,50.7 							"/>
						</g>
					</g>
					<g>
						<g>
							<path class="st4" d="M10.6,49.7H11c0.4,0,0.7,0.3,0.7,0.7v0.1c0,0.4-0.3,0.7-0.7,0.7h-0.4V49.7z"/>
						</g>
						<g>
							<polygon class="st5" points="11.3,50.2 11.4,50.4 11.3,50.7 11,50.7 10.9,50.4 11,50.2 							"/>
						</g>
					</g>
				</g>
				<g>
					<g>
						<g>
							<path class="st4" d="M24.1,51.2h-0.4c-0.4,0-0.7-0.3-0.7-0.7v-0.1c0-0.4,0.3-0.7,0.7-0.7h0.4V51.2z"/>
						</g>
						<g>
							<polygon class="st5" points="23.5,50.7 23.4,50.4 23.5,50.2 23.8,50.2 23.9,50.4 23.8,50.7 							"/>
						</g>
					</g>
					<g>
						<g>
							<path class="st4" d="M27,49.7h0.4c0.4,0,0.7,0.3,0.7,0.7v0.1c0,0.4-0.3,0.7-0.7,0.7H27V49.7z"/>
						</g>
						<g>
							<polygon class="st5" points="27.6,50.2 27.7,50.4 27.6,50.7 27.3,50.7 27.2,50.4 27.3,50.2 							"/>
						</g>
					</g>
				</g>
			</g>
			<g>
				<g>
					<g>
						<g>
							<g>
								<rect x="5.2" y="59.9" class="st0" width="24.4" height="5.5"/>
							</g>
							<g>
								<path class="st1" d="M9.6,60.6c0,0,0.5-0.1,1-0.1c0.2,0,0.5,0,0.7,0c0.2,0,0.3,0.1,0.3,0.1s-0.5,0-1,0
									C10.1,60.6,9.6,60.6,9.6,60.6L9.6,60.6z"/>
							</g>
							<g>
								<path class="st1" d="M21,63.1c0,0-0.1,0-0.3,0c-0.2,0-0.4,0-0.7,0c-0.2,0-0.5,0-0.7-0.1c-0.2,0-0.3-0.1-0.3-0.1s0.5,0,1,0
									c0.2,0,0.5,0,0.7,0C20.9,63.1,21,63.1,21,63.1L21,63.1z"/>
							</g>
							<g>
								<path class="st1" d="M22.8,64.7c0,0-0.3,0-0.7,0.1c-0.4,0-1,0-1.6,0c-0.6,0-1.2-0.1-1.6-0.1c-0.4-0.1-0.7-0.1-0.7-0.1
									s0.1,0,0.2,0c0.1,0,0.3,0,0.5,0c0.4,0,1,0,1.6,0c0.6,0,1.2,0.1,1.6,0.1C22.5,64.6,22.8,64.7,22.8,64.7L22.8,64.7z"/>
							</g>
							<g>
								<path class="st1" d="M27.6,59.9c-0.3,0.1-0.5,0.1-0.8,0.2c-0.7,0.1-1.5,0.3-2.3,0.4c-0.4,0.1-0.8,0.1-1.1,0.1
									c-0.2,0-0.4,0-0.6,0c-0.2,0-0.4,0-0.5,0c-0.7,0-1.3-0.2-1.9-0.4c-0.2-0.1-0.4-0.2-0.5-0.2h-0.9c0.3,0.2,0.7,0.4,1.2,0.6
									c0.6,0.2,1.2,0.4,2,0.5c0.2,0,0.4,0,0.6,0c0.2,0,0.4,0,0.6,0c0.4,0,0.8-0.1,1.2-0.2c0.8-0.2,1.5-0.3,2.2-0.5
									c0.5-0.1,1-0.2,1.5-0.3H27.6z"/>
							</g>
							<g>
								<path class="st1" d="M14.3,61.6c0.6-0.5,1.3-0.9,1.8-1.1c0.6-0.3,1.1-0.4,1.5-0.5c0,0,0,0,0,0H17c-0.3,0.1-0.6,0.2-1,0.3
									c-0.6,0.2-1.3,0.5-2.1,1c-0.3,0.2-0.7,0.6-0.9,1.1l0,0.2c0,0.1,0,0.1,0,0.2c0,0.1,0.1,0.3,0.1,0.4c0.1,0.2,0.3,0.4,0.5,0.6
									c0.1,0.1,0.2,0.2,0.3,0.2c0.1,0.1,0.2,0.1,0.3,0.2c0.2,0.1,0.4,0.2,0.6,0.3c0.4,0.2,0.8,0.3,1.2,0.5
									c0.4,0.1,0.8,0.2,1.1,0.3c0.2,0,0.3,0.1,0.5,0.1h0.6c0,0,0,0,0,0c-0.3-0.1-0.6-0.2-1-0.3c-0.4-0.1-0.7-0.3-1.1-0.4
									c-0.4-0.2-0.7-0.4-1.1-0.6c-0.4-0.2-0.7-0.5-1-0.7c-0.3-0.3-0.4-0.6-0.4-0.9C13.8,62.2,14,61.9,14.3,61.6z"/>
							</g>
							<g>
								<path class="st1" d="M29.6,63.8c-0.3,0-0.6,0-1,0c-0.9,0-1.8,0-2.8-0.1c-1-0.1-2.1-0.1-3.2-0.1c-1.1,0-2.2-0.1-3.4-0.1
									c-0.6,0-1.2-0.1-1.7-0.1c-0.3,0-0.6-0.1-0.9-0.1c-0.1,0-0.3,0-0.4-0.1l-0.2-0.1c0,0-0.1,0-0.1-0.1c0,0,0,0,0,0
									c0-0.1,0.1-0.1,0.2-0.2c0.2-0.1,0.5-0.2,0.8-0.3c0.5-0.2,1.1-0.3,1.7-0.4c0.6-0.1,1.1-0.1,1.7-0.1c0.5,0,1.1,0.1,1.7,0
									c1.1,0,2.2-0.1,3.2-0.2c1-0.1,2-0.2,2.8-0.3c0.6-0.1,1.2-0.1,1.7-0.2v-0.1c-0.5,0.1-1.1,0.1-1.7,0.1
									c-0.9,0.1-1.8,0.1-2.9,0.1c-1,0-2.1,0-3.2,0c-0.5,0-1.1-0.1-1.7-0.1c-0.6,0-1.2,0-1.8,0.1c-0.6,0.1-1.2,0.2-1.8,0.4
									c-0.3,0.1-0.6,0.2-0.9,0.4c-0.1,0.1-0.3,0.2-0.4,0.4c-0.1,0.1-0.1,0.3-0.1,0.4c0.1,0.2,0.2,0.2,0.3,0.3
									c0.1,0.1,0.2,0.1,0.3,0.1l0.2,0c0.1,0,0.3,0,0.5,0.1c0.3,0,0.6,0.1,0.9,0.1c0.6,0,1.2,0,1.8,0c1.2,0,2.3,0,3.4,0
									c1.1,0,2.2,0,3.2,0.1c0.5,0,1,0,1.5,0.1c0.5,0,0.9,0,1.4,0c0.3,0,0.7,0,1,0V63.8z"/>
							</g>
							<g>
								<path class="st1" d="M29.6,62.9c-0.3,0-0.6,0-1,0c-0.7,0-1.5,0-2.3,0c-0.4,0-0.9,0-1.3-0.1c-0.4,0-0.9-0.1-1.3-0.2
									c0,0,0.1,0,0.1,0c0.1,0,0.2,0,0.3,0c0.2,0,0.4,0,0.7-0.1c0.4,0,0.9-0.1,1.3-0.1c0.8-0.1,1.6-0.1,2.3-0.1
									c0.5,0,0.9,0,1.2-0.1V62c-0.3,0-0.8,0.1-1.3,0.1c-0.7,0.1-1.5,0.1-2.3,0.2c-0.4,0-0.9,0.1-1.3,0.1c-0.2,0-0.4,0.1-0.7,0.1
									c-0.1,0-0.2,0-0.3,0.1c-0.1,0-0.1,0-0.2,0c0,0,0,0-0.1,0c0,0,0,0.1,0,0.1c0,0,0.1,0,0.1,0C24,63,24.5,63,24.9,63
									c0.4,0,0.9,0.1,1.3,0.1c0.8,0,1.6,0.1,2.3,0.1c0.4,0,0.7,0,1,0V62.9z"/>
							</g>
							<g>
								<path class="st1" d="M28.4,64.9c-0.2,0-0.4,0-0.6,0c-0.2,0-0.4,0-0.6,0c-0.4,0-0.8,0.1-1.2,0.1c-0.8,0.1-1.5,0.3-2.3,0.4
									c-0.1,0-0.1,0-0.2,0H25c0.4,0,0.8-0.1,1.2-0.1c0.4,0,0.8,0,1.2-0.1c0.2,0,0.4,0,0.6,0c0.2,0,0.4,0,0.5,0.1
									c0.2,0,0.4,0.1,0.5,0.1h0.6v-0.2C29.2,65.1,28.8,65,28.4,64.9z"/>
							</g>
							<g>
								<path class="st1" d="M15,65.4c-0.2-0.1-0.4-0.3-0.6-0.4c-0.1-0.1-0.3-0.1-0.4-0.1c-0.1,0-0.3,0-0.5,0
									c-0.1,0-0.3,0.1-0.4,0.2c-0.1,0.1-0.2,0.1-0.3,0.2c-0.2,0.1-0.3,0.2-0.5,0.2h0.4c0.1,0,0.1,0,0.2-0.1c0.1,0,0.2-0.1,0.4-0.2
									c0.1,0,0.1-0.1,0.2-0.1c0.1,0,0.1,0,0.2,0c0.1,0,0.2,0,0.3,0c0.1,0,0.2,0.1,0.3,0.1c0.1,0.1,0.2,0.1,0.3,0.2L15,65.4
									C15,65.4,15,65.4,15,65.4z"/>
							</g>
							<g>
								<path class="st1" d="M7.8,64.3c-0.5-0.1-1-0.2-1.5-0.3c-0.3,0-0.5-0.1-0.8-0.1c-0.1,0-0.2,0-0.3,0v0.3c0.1,0,0.2,0,0.4,0
									c0.2,0,0.5,0,0.7,0c0.5,0.1,1,0.2,1.5,0.2c0.5,0.1,0.9,0.1,1.3,0.1c0.8,0,1.3,0,1.3,0s-0.5,0-1.3-0.1
									C8.7,64.4,8.3,64.4,7.8,64.3z"/>
							</g>
							<g>
								<path class="st1" d="M11.1,63.7c-0.2,0-0.4,0.1-0.7,0.1c-0.2,0-0.5,0-0.8,0c-0.3,0-0.5-0.1-0.8-0.1
									c-0.3-0.1-0.6-0.1-0.9-0.2c-1-0.2-1.9-0.2-2.7-0.2v0.4c0.8,0,1.7,0,2.7,0.1c0.3,0,0.6,0.1,0.9,0.1C9,64,9.3,64,9.6,64
									c0.3,0,0.5,0,0.8,0c0.3,0,0.5-0.1,0.7-0.1c0.2-0.1,0.4-0.1,0.6-0.2c0.2-0.1,0.3-0.2,0.4-0.2c0.2-0.1,0.3-0.2,0.3-0.2
									s-0.1,0.1-0.3,0.2C11.8,63.5,11.5,63.6,11.1,63.7z"/>
							</g>
							<g>
								<path class="st1" d="M12.8,61.3c-0.1-0.1-0.1-0.1-0.2-0.1l-0.1,0c-0.3-0.1-0.6,0-0.9,0c-0.3,0-0.6,0-0.9,0
									c-0.6,0-1.1,0-1.6,0c-1.1,0-2-0.1-2.9-0.2c-0.3,0-0.7-0.1-1-0.1v0.3c0.3,0,0.6,0,0.9,0.1C7,61.3,8,61.4,9,61.4
									c0.5,0,1.1,0,1.6,0c0.3,0,0.6,0,0.8,0.1c0.2,0,0.4,0.1,0.6,0.1c0,0,0,0,0,0c-0.2,0.1-0.5,0.2-0.8,0.2
									c-0.5,0.1-1.1,0.2-1.6,0.3c-1,0.2-2,0.3-2.9,0.3c-0.6,0-1.2,0.1-1.7,0.1V63c0.5,0,1,0,1.7-0.1c0.9,0,1.8-0.1,2.9-0.2
									c0.5-0.1,1.1-0.1,1.6-0.3c0.3-0.1,0.6-0.1,0.9-0.3c0.1-0.1,0.3-0.1,0.5-0.3c0,0,0,0,0.1-0.1c0-0.1,0-0.1,0.1-0.2
									c0-0.1,0-0.2,0-0.2C12.8,61.4,12.8,61.3,12.8,61.3z M12.3,61.7C12.3,61.7,12.3,61.7,12.3,61.7
									C12.3,61.7,12.3,61.7,12.3,61.7C12.3,61.7,12.3,61.7,12.3,61.7z"/>
							</g>
						</g>
						<g>
							<path class="st2" d="M5.2,60.1c1.4,0.2,3.4,0.5,5.1,0.5c3.1,0,6.8-0.4,8.7-0.4c1.5,0.1,8.1,0.3,10.5,0.4v-0.6H5.2V60.1z"/>
						</g>
						<g>
							<path class="st2" d="M24.8,65.1c-1.7,0.3-8.4-0.1-12.8-0.2c-2.7,0-5.3,0.2-6.8,0.3v0.2h24.4v-0.6
								C27.8,64.9,25.7,65,24.8,65.1z"/>
						</g>
					</g>
					<g>
						<rect x="5.2" y="59.9" class="st3" width="0.8" height="0.8"/>
					</g>
					<g>
						<rect x="5.2" y="64.7" class="st3" width="0.8" height="0.8"/>
					</g>
					<g>
						<rect x="28.8" y="59.9" class="st3" width="0.8" height="0.8"/>
					</g>
					<g>
						<rect x="28.8" y="64.7" class="st3" width="0.8" height="0.8"/>
					</g>
				</g>
				<g>
					<g>
						<g>
							<path class="st4" d="M7.8,63.4H7.4c-0.4,0-0.7-0.3-0.7-0.7v-0.1C6.7,62.3,7,62,7.4,62h0.4V63.4z"/>
						</g>
						<g>
							<polygon class="st5" points="7.2,62.9 7,62.7 7.2,62.5 7.4,62.5 7.6,62.7 7.4,62.9 							"/>
						</g>
					</g>
					<g>
						<g>
							<path class="st4" d="M10.6,62H11c0.4,0,0.7,0.3,0.7,0.7v0.1c0,0.4-0.3,0.7-0.7,0.7h-0.4V62z"/>
						</g>
						<g>
							<polygon class="st5" points="11.3,62.5 11.4,62.7 11.3,62.9 11,62.9 10.9,62.7 11,62.5 							"/>
						</g>
					</g>
				</g>
				<g>
					<g>
						<g>
							<path class="st4" d="M24.1,63.4h-0.4c-0.4,0-0.7-0.3-0.7-0.7v-0.1c0-0.4,0.3-0.7,0.7-0.7h0.4V63.4z"/>
						</g>
						<g>
							<polygon class="st5" points="23.5,62.9 23.4,62.7 23.5,62.5 23.8,62.5 23.9,62.7 23.8,62.9 							"/>
						</g>
					</g>
					<g>
						<g>
							<path class="st4" d="M27,62h0.4c0.4,0,0.7,0.3,0.7,0.7v0.1c0,0.4-0.3,0.7-0.7,0.7H27V62z"/>
						</g>
						<g>
							<polygon class="st5" points="27.6,62.5 27.7,62.7 27.6,62.9 27.3,62.9 27.2,62.7 27.3,62.5 							"/>
						</g>
					</g>
				</g>
			</g>
			<g>
				<g>
					<g>
						<g>
							<g>
								<rect x="5.2" y="72.2" class="st0" width="24.4" height="5.5"/>
							</g>
							<g>
								<path class="st1" d="M9.6,72.9c0,0,0.5-0.1,1-0.1c0.2,0,0.5,0,0.7,0c0.2,0,0.3,0.1,0.3,0.1s-0.5,0-1,0
									C10.1,72.9,9.6,72.9,9.6,72.9L9.6,72.9z"/>
							</g>
							<g>
								<path class="st1" d="M21,75.3c0,0-0.1,0-0.3,0c-0.2,0-0.4,0-0.7,0c-0.2,0-0.5,0-0.7-0.1c-0.2,0-0.3-0.1-0.3-0.1s0.5,0,1,0
									c0.2,0,0.5,0,0.7,0C20.9,75.3,21,75.3,21,75.3L21,75.3z"/>
							</g>
							<g>
								<path class="st1" d="M22.8,76.9c0,0-0.3,0-0.7,0.1c-0.4,0-1,0-1.6,0c-0.6,0-1.2-0.1-1.6-0.1c-0.4-0.1-0.7-0.1-0.7-0.1
									s0.1,0,0.2,0c0.1,0,0.3,0,0.5,0c0.4,0,1,0,1.6,0c0.6,0,1.2,0.1,1.6,0.1C22.5,76.9,22.8,76.9,22.8,76.9L22.8,76.9z"/>
							</g>
							<g>
								<path class="st1" d="M27.6,72.2c-0.3,0.1-0.5,0.1-0.8,0.2c-0.7,0.1-1.5,0.3-2.3,0.4c-0.4,0.1-0.8,0.1-1.1,0.1
									c-0.2,0-0.4,0-0.6,0c-0.2,0-0.4,0-0.5,0c-0.7,0-1.3-0.2-1.9-0.4c-0.2-0.1-0.4-0.2-0.5-0.2h-0.9c0.3,0.2,0.7,0.4,1.2,0.6
									c0.6,0.2,1.2,0.4,2,0.5c0.2,0,0.4,0,0.6,0c0.2,0,0.4,0,0.6,0c0.4,0,0.8-0.1,1.2-0.2c0.8-0.2,1.5-0.3,2.2-0.5
									c0.5-0.1,1-0.2,1.5-0.3H27.6z"/>
							</g>
							<g>
								<path class="st1" d="M14.3,73.9c0.6-0.5,1.3-0.9,1.8-1.1c0.6-0.3,1.1-0.4,1.5-0.5c0,0,0,0,0,0H17c-0.3,0.1-0.6,0.2-1,0.3
									c-0.6,0.2-1.3,0.5-2.1,1c-0.3,0.2-0.7,0.6-0.9,1.1l0,0.2c0,0.1,0,0.1,0,0.2c0,0.1,0.1,0.3,0.1,0.4c0.1,0.2,0.3,0.4,0.5,0.6
									c0.1,0.1,0.2,0.2,0.3,0.2c0.1,0.1,0.2,0.1,0.3,0.2c0.2,0.1,0.4,0.2,0.6,0.3c0.4,0.2,0.8,0.3,1.2,0.5
									c0.4,0.1,0.8,0.2,1.1,0.3c0.2,0,0.3,0.1,0.5,0.1h0.6c0,0,0,0,0,0c-0.3-0.1-0.6-0.2-1-0.3c-0.4-0.1-0.7-0.3-1.1-0.4
									c-0.4-0.2-0.7-0.4-1.1-0.6c-0.4-0.2-0.7-0.5-1-0.7c-0.3-0.3-0.4-0.6-0.4-0.9C13.8,74.4,14,74.1,14.3,73.9z"/>
							</g>
							<g>
								<path class="st1" d="M29.6,76c-0.3,0-0.6,0-1,0c-0.9,0-1.8,0-2.8-0.1c-1-0.1-2.1-0.1-3.2-0.1c-1.1,0-2.2-0.1-3.4-0.1
									c-0.6,0-1.2-0.1-1.7-0.1c-0.3,0-0.6-0.1-0.9-0.1c-0.1,0-0.3,0-0.4-0.1l-0.2-0.1c0,0-0.1,0-0.1-0.1c0,0,0,0,0,0
									c0-0.1,0.1-0.1,0.2-0.2c0.2-0.1,0.5-0.2,0.8-0.3c0.5-0.2,1.1-0.3,1.7-0.4c0.6-0.1,1.1-0.1,1.7-0.1c0.5,0,1.1,0.1,1.7,0
									c1.1,0,2.2-0.1,3.2-0.2c1-0.1,2-0.2,2.8-0.3c0.6-0.1,1.2-0.1,1.7-0.2v-0.1c-0.5,0.1-1.1,0.1-1.7,0.1
									c-0.9,0.1-1.8,0.1-2.9,0.1c-1,0-2.1,0-3.2,0c-0.5,0-1.1-0.1-1.7-0.1c-0.6,0-1.2,0-1.8,0.1c-0.6,0.1-1.2,0.2-1.8,0.4
									c-0.3,0.1-0.6,0.2-0.9,0.4c-0.1,0.1-0.3,0.2-0.4,0.4c-0.1,0.1-0.1,0.3-0.1,0.4c0.1,0.2,0.2,0.2,0.3,0.3
									c0.1,0.1,0.2,0.1,0.3,0.1l0.2,0c0.1,0,0.3,0,0.5,0.1c0.3,0,0.6,0.1,0.9,0.1c0.6,0,1.2,0,1.8,0c1.2,0,2.3,0,3.4,0
									c1.1,0,2.2,0,3.2,0.1c0.5,0,1,0,1.5,0.1c0.5,0,0.9,0,1.4,0c0.3,0,0.7,0,1,0V76z"/>
							</g>
							<g>
								<path class="st1" d="M29.6,75.2c-0.3,0-0.6,0-1,0c-0.7,0-1.5,0-2.3,0c-0.4,0-0.9,0-1.3-0.1c-0.4,0-0.9-0.1-1.3-0.2
									c0,0,0.1,0,0.1,0c0.1,0,0.2,0,0.3,0c0.2,0,0.4,0,0.7-0.1c0.4,0,0.9-0.1,1.3-0.1c0.8-0.1,1.6-0.1,2.3-0.1
									c0.5,0,0.9,0,1.2-0.1v-0.3c-0.3,0-0.8,0.1-1.3,0.1c-0.7,0.1-1.5,0.1-2.3,0.2c-0.4,0-0.9,0.1-1.3,0.1c-0.2,0-0.4,0.1-0.7,0.1
									c-0.1,0-0.2,0-0.3,0.1c-0.1,0-0.1,0-0.2,0c0,0,0,0-0.1,0c0,0,0,0.1,0,0.1c0,0,0.1,0,0.1,0c0.5,0.1,0.9,0.1,1.3,0.2
									c0.4,0,0.9,0.1,1.3,0.1c0.8,0,1.6,0.1,2.3,0.1c0.4,0,0.7,0,1,0V75.2z"/>
							</g>
							<g>
								<path class="st1" d="M28.4,77.2c-0.2,0-0.4,0-0.6,0c-0.2,0-0.4,0-0.6,0c-0.4,0-0.8,0.1-1.2,0.1c-0.8,0.1-1.5,0.3-2.3,0.4
									c-0.1,0-0.1,0-0.2,0H25c0.4,0,0.8-0.1,1.2-0.1c0.4,0,0.8,0,1.2-0.1c0.2,0,0.4,0,0.6,0c0.2,0,0.4,0,0.5,0.1
									c0.2,0,0.4,0.1,0.5,0.1h0.6v-0.2C29.2,77.3,28.8,77.2,28.4,77.2z"/>
							</g>
							<g>
								<path class="st1" d="M15,77.6c-0.2-0.1-0.4-0.3-0.6-0.4c-0.1-0.1-0.3-0.1-0.4-0.1c-0.1,0-0.3,0-0.5,0
									c-0.1,0-0.3,0.1-0.4,0.2c-0.1,0.1-0.2,0.1-0.3,0.2c-0.2,0.1-0.3,0.2-0.5,0.2h0.4c0.1,0,0.1,0,0.2-0.1c0.1,0,0.2-0.1,0.4-0.2
									c0.1,0,0.1-0.1,0.2-0.1c0.1,0,0.1,0,0.2,0c0.1,0,0.2,0,0.3,0c0.1,0,0.2,0.1,0.3,0.1c0.1,0.1,0.2,0.1,0.3,0.2L15,77.6
									C15,77.7,15,77.6,15,77.6z"/>
							</g>
							<g>
								<path class="st1" d="M7.8,76.5c-0.5-0.1-1-0.2-1.5-0.3c-0.3,0-0.5-0.1-0.8-0.1c-0.1,0-0.2,0-0.3,0v0.3c0.1,0,0.2,0,0.4,0
									c0.2,0,0.5,0,0.7,0c0.5,0.1,1,0.2,1.5,0.2c0.5,0.1,0.9,0.1,1.3,0.1c0.8,0,1.3,0,1.3,0s-0.5,0-1.3-0.1
									C8.7,76.7,8.3,76.6,7.8,76.5z"/>
							</g>
							<g>
								<path class="st1" d="M11.1,76c-0.2,0-0.4,0.1-0.7,0.1c-0.2,0-0.5,0-0.8,0c-0.3,0-0.5-0.1-0.8-0.1c-0.3-0.1-0.6-0.1-0.9-0.2
									c-1-0.2-1.9-0.2-2.7-0.2v0.4c0.8,0,1.7,0,2.7,0.1c0.3,0,0.6,0.1,0.9,0.1c0.3,0,0.6,0.1,0.8,0.1c0.3,0,0.5,0,0.8,0
									c0.3,0,0.5-0.1,0.7-0.1c0.2-0.1,0.4-0.1,0.6-0.2c0.2-0.1,0.3-0.2,0.4-0.2c0.2-0.1,0.3-0.2,0.3-0.2s-0.1,0.1-0.3,0.2
									C11.8,75.8,11.5,75.9,11.1,76z"/>
							</g>
							<g>
								<path class="st1" d="M12.8,73.6c-0.1-0.1-0.1-0.1-0.2-0.1l-0.1,0c-0.3-0.1-0.6,0-0.9,0c-0.3,0-0.6,0-0.9,0
									c-0.6,0-1.1,0-1.6,0c-1.1,0-2-0.1-2.9-0.2c-0.3,0-0.7-0.1-1-0.1v0.3c0.3,0,0.6,0,0.9,0.1C7,73.6,8,73.6,9,73.7
									c0.5,0,1.1,0,1.6,0c0.3,0,0.6,0,0.8,0.1c0.2,0,0.4,0.1,0.6,0.1c0,0,0,0,0,0c-0.2,0.1-0.5,0.2-0.8,0.2
									c-0.5,0.1-1.1,0.2-1.6,0.3c-1,0.2-2,0.3-2.9,0.3c-0.6,0-1.2,0.1-1.7,0.1v0.4c0.5,0,1,0,1.7-0.1c0.9,0,1.8-0.1,2.9-0.2
									c0.5-0.1,1.1-0.1,1.6-0.3c0.3-0.1,0.6-0.1,0.9-0.3c0.1-0.1,0.3-0.1,0.5-0.3c0,0,0,0,0.1-0.1c0-0.1,0-0.1,0.1-0.2
									c0-0.1,0-0.2,0-0.2C12.8,73.6,12.8,73.6,12.8,73.6z M12.3,74C12.3,74,12.3,74,12.3,74C12.3,74,12.3,74,12.3,74
									C12.3,74,12.3,74,12.3,74z"/>
							</g>
						</g>
						<g>
							<path class="st2" d="M5.2,72.3c1.4,0.2,3.4,0.5,5.1,0.5c3.1,0,6.8-0.4,8.7-0.4c1.5,0.1,8.1,0.3,10.5,0.4v-0.6H5.2V72.3z"/>
						</g>
						<g>
							<path class="st2" d="M24.8,77.4c-1.7,0.3-8.4-0.1-12.8-0.2c-2.7,0-5.3,0.2-6.8,0.3v0.2h24.4v-0.6
								C27.8,77.2,25.7,77.2,24.8,77.4z"/>
						</g>
					</g>
					<g>
						<rect x="5.2" y="72.2" class="st3" width="0.8" height="0.8"/>
					</g>
					<g>
						<rect x="5.2" y="76.9" class="st3" width="0.8" height="0.8"/>
					</g>
					<g>
						<rect x="28.8" y="72.2" class="st3" width="0.8" height="0.8"/>
					</g>
					<g>
						<rect x="28.8" y="76.9" class="st3" width="0.8" height="0.8"/>
					</g>
				</g>
				<g>
					<g>
						<g>
							<path class="st4" d="M7.8,75.7H7.4c-0.4,0-0.7-0.3-0.7-0.7v-0.1c0-0.4,0.3-0.7,0.7-0.7h0.4V75.7z"/>
						</g>
						<g>
							<polygon class="st5" points="7.2,75.2 7,74.9 7.2,74.7 7.4,74.7 7.6,74.9 7.4,75.2 							"/>
						</g>
					</g>
					<g>
						<g>
							<path class="st4" d="M10.6,74.2H11c0.4,0,0.7,0.3,0.7,0.7V75c0,0.4-0.3,0.7-0.7,0.7h-0.4V74.2z"/>
						</g>
						<g>
							<polygon class="st5" points="11.3,74.7 11.4,74.9 11.3,75.2 11,75.2 10.9,74.9 11,74.7 							"/>
						</g>
					</g>
				</g>
				<g>
					<g>
						<g>
							<path class="st4" d="M24.1,75.7h-0.4c-0.4,0-0.7-0.3-0.7-0.7v-0.1c0-0.4,0.3-0.7,0.7-0.7h0.4V75.7z"/>
						</g>
						<g>
							<polygon class="st5" points="23.5,75.2 23.4,74.9 23.5,74.7 23.8,74.7 23.9,74.9 23.8,75.2 							"/>
						</g>
					</g>
					<g>
						<g>
							<path class="st4" d="M27,74.2h0.4c0.4,0,0.7,0.3,0.7,0.7V75c0,0.4-0.3,0.7-0.7,0.7H27V74.2z"/>
						</g>
						<g>
							<polygon class="st5" points="27.6,74.7 27.7,74.9 27.6,75.2 27.3,75.2 27.2,74.9 27.3,74.7 							"/>
						</g>
					</g>
				</g>
			</g>
			<g>
				<g>
					<g>
						<g>
							<g>
								<rect x="5.2" y="84.4" class="st0" width="24.4" height="5.5"/>
							</g>
							<g>
								<path class="st1" d="M9.6,85.1c0,0,0.5-0.1,1-0.1c0.2,0,0.5,0,0.7,0c0.2,0,0.3,0.1,0.3,0.1s-0.5,0-1,0
									C10.1,85.1,9.6,85.1,9.6,85.1L9.6,85.1z"/>
							</g>
							<g>
								<path class="st1" d="M21,87.6c0,0-0.1,0-0.3,0c-0.2,0-0.4,0-0.7,0c-0.2,0-0.5,0-0.7-0.1c-0.2,0-0.3-0.1-0.3-0.1s0.5,0,1,0
									c0.2,0,0.5,0,0.7,0C20.9,87.6,21,87.6,21,87.6L21,87.6z"/>
							</g>
							<g>
								<path class="st1" d="M22.8,89.2c0,0-0.3,0-0.7,0.1c-0.4,0-1,0-1.6,0c-0.6,0-1.2-0.1-1.6-0.1C18.4,89,18.1,89,18.1,89
									s0.1,0,0.2,0c0.1,0,0.3,0,0.5,0c0.4,0,1,0,1.6,0c0.6,0,1.2,0.1,1.6,0.1C22.5,89.1,22.8,89.2,22.8,89.2L22.8,89.2z"/>
							</g>
							<g>
								<path class="st1" d="M27.6,84.4c-0.3,0.1-0.5,0.1-0.8,0.2c-0.7,0.1-1.5,0.3-2.3,0.4c-0.4,0.1-0.8,0.1-1.1,0.1
									c-0.2,0-0.4,0-0.6,0c-0.2,0-0.4,0-0.5,0c-0.7,0-1.3-0.2-1.9-0.4c-0.2-0.1-0.4-0.2-0.5-0.2h-0.9c0.3,0.2,0.7,0.4,1.2,0.6
									c0.6,0.2,1.2,0.4,2,0.5c0.2,0,0.4,0,0.6,0c0.2,0,0.4,0,0.6,0c0.4,0,0.8-0.1,1.2-0.2c0.8-0.2,1.5-0.3,2.2-0.5
									c0.5-0.1,1-0.2,1.5-0.3H27.6z"/>
							</g>
							<g>
								<path class="st1" d="M14.3,86.1c0.6-0.5,1.3-0.9,1.8-1.1c0.6-0.3,1.1-0.4,1.5-0.5c0,0,0,0,0,0H17c-0.3,0.1-0.6,0.2-1,0.3
									c-0.6,0.2-1.3,0.5-2.1,1c-0.3,0.2-0.7,0.6-0.9,1.1l0,0.2c0,0.1,0,0.1,0,0.2c0,0.1,0.1,0.3,0.1,0.4c0.1,0.2,0.3,0.4,0.5,0.6
									c0.1,0.1,0.2,0.2,0.3,0.2c0.1,0.1,0.2,0.1,0.3,0.2c0.2,0.1,0.4,0.2,0.6,0.3c0.4,0.2,0.8,0.3,1.2,0.5
									c0.4,0.1,0.8,0.2,1.1,0.3c0.2,0,0.3,0.1,0.5,0.1h0.6c0,0,0,0,0,0c-0.3-0.1-0.6-0.2-1-0.3c-0.4-0.1-0.7-0.3-1.1-0.4
									c-0.4-0.2-0.7-0.4-1.1-0.6c-0.4-0.2-0.7-0.5-1-0.7c-0.3-0.3-0.4-0.6-0.4-0.9C13.8,86.7,14,86.4,14.3,86.1z"/>
							</g>
							<g>
								<path class="st1" d="M29.6,88.3c-0.3,0-0.6,0-1,0c-0.9,0-1.8,0-2.8-0.1c-1-0.1-2.1-0.1-3.2-0.1c-1.1,0-2.2-0.1-3.4-0.1
									c-0.6,0-1.2-0.1-1.7-0.1c-0.3,0-0.6-0.1-0.9-0.1c-0.1,0-0.3,0-0.4-0.1l-0.2-0.1c0,0-0.1,0-0.1-0.1c0,0,0,0,0,0
									c0-0.1,0.1-0.1,0.2-0.2c0.2-0.1,0.5-0.2,0.8-0.3c0.5-0.2,1.1-0.3,1.7-0.4c0.6-0.1,1.1-0.1,1.7-0.1c0.5,0,1.1,0.1,1.7,0
									c1.1,0,2.2-0.1,3.2-0.2c1-0.1,2-0.2,2.8-0.3c0.6-0.1,1.2-0.1,1.7-0.2v-0.1C29,85.9,28.4,86,27.8,86
									c-0.9,0.1-1.8,0.1-2.9,0.1c-1,0-2.1,0-3.2,0c-0.5,0-1.1-0.1-1.7-0.1c-0.6,0-1.2,0-1.8,0.1c-0.6,0.1-1.2,0.2-1.8,0.4
									c-0.3,0.1-0.6,0.2-0.9,0.4c-0.1,0.1-0.3,0.2-0.4,0.4c-0.1,0.1-0.1,0.3-0.1,0.4c0.1,0.2,0.2,0.2,0.3,0.3
									c0.1,0.1,0.2,0.1,0.3,0.1l0.2,0c0.1,0,0.3,0,0.5,0.1c0.3,0,0.6,0.1,0.9,0.1c0.6,0,1.2,0,1.8,0c1.2,0,2.3,0,3.4,0
									c1.1,0,2.2,0,3.2,0.1c0.5,0,1,0,1.5,0.1c0.5,0,0.9,0,1.4,0c0.3,0,0.7,0,1,0V88.3z"/>
							</g>
							<g>
								<path class="st1" d="M29.6,87.4c-0.3,0-0.6,0-1,0c-0.7,0-1.5,0-2.3,0c-0.4,0-0.9,0-1.3-0.1c-0.4,0-0.9-0.1-1.3-0.2
									c0,0,0.1,0,0.1,0c0.1,0,0.2,0,0.3,0c0.2,0,0.4,0,0.7-0.1c0.4,0,0.9-0.1,1.3-0.1c0.8-0.1,1.6-0.1,2.3-0.1
									c0.5,0,0.9,0,1.2-0.1v-0.3c-0.3,0-0.8,0.1-1.3,0.1c-0.7,0.1-1.5,0.1-2.3,0.2c-0.4,0-0.9,0.1-1.3,0.1c-0.2,0-0.4,0.1-0.7,0.1
									c-0.1,0-0.2,0-0.3,0.1c-0.1,0-0.1,0-0.2,0c0,0,0,0-0.1,0c0,0,0,0.1,0,0.1c0,0,0.1,0,0.1,0c0.5,0.1,0.9,0.1,1.3,0.2
									c0.4,0,0.9,0.1,1.3,0.1c0.8,0,1.6,0.1,2.3,0.1c0.4,0,0.7,0,1,0V87.4z"/>
							</g>
							<g>
								<path class="st1" d="M28.4,89.4c-0.2,0-0.4,0-0.6,0c-0.2,0-0.4,0-0.6,0c-0.4,0-0.8,0.1-1.2,0.1c-0.8,0.1-1.5,0.3-2.3,0.4
									c-0.1,0-0.1,0-0.2,0H25c0.4,0,0.8-0.1,1.2-0.1c0.4,0,0.8,0,1.2-0.1c0.2,0,0.4,0,0.6,0c0.2,0,0.4,0,0.5,0.1
									c0.2,0,0.4,0.1,0.5,0.1h0.6v-0.2C29.2,89.6,28.8,89.5,28.4,89.4z"/>
							</g>
							<g>
								<path class="st1" d="M15,89.9c-0.2-0.1-0.4-0.3-0.6-0.4c-0.1-0.1-0.3-0.1-0.4-0.1c-0.1,0-0.3,0-0.5,0
									c-0.1,0-0.3,0.1-0.4,0.2c-0.1,0.1-0.2,0.1-0.3,0.2c-0.2,0.1-0.3,0.2-0.5,0.2h0.4c0.1,0,0.1,0,0.2-0.1c0.1,0,0.2-0.1,0.4-0.2
									c0.1,0,0.1-0.1,0.2-0.1c0.1,0,0.1,0,0.2,0c0.1,0,0.2,0,0.3,0c0.1,0,0.2,0.1,0.3,0.1c0.1,0.1,0.2,0.1,0.3,0.2L15,89.9
									C15,89.9,15,89.9,15,89.9z"/>
							</g>
							<g>
								<path class="st1" d="M7.8,88.8c-0.5-0.1-1-0.2-1.5-0.3c-0.3,0-0.5-0.1-0.8-0.1c-0.1,0-0.2,0-0.3,0v0.3c0.1,0,0.2,0,0.4,0
									c0.2,0,0.5,0,0.7,0c0.5,0.1,1,0.2,1.5,0.2C8.3,89,8.7,89,9.1,89.1c0.8,0,1.3,0,1.3,0s-0.5,0-1.3-0.1
									C8.7,88.9,8.3,88.9,7.8,88.8z"/>
							</g>
							<g>
								<path class="st1" d="M11.1,88.2c-0.2,0-0.4,0.1-0.7,0.1c-0.2,0-0.5,0-0.8,0c-0.3,0-0.5-0.1-0.8-0.1
									c-0.3-0.1-0.6-0.1-0.9-0.2c-1-0.2-1.9-0.2-2.7-0.2v0.4c0.8,0,1.7,0,2.7,0.1c0.3,0,0.6,0.1,0.9,0.1c0.3,0,0.6,0.1,0.8,0.1
									c0.3,0,0.5,0,0.8,0c0.3,0,0.5-0.1,0.7-0.1c0.2-0.1,0.4-0.1,0.6-0.2c0.2-0.1,0.3-0.2,0.4-0.2c0.2-0.1,0.3-0.2,0.3-0.2
									s-0.1,0.1-0.3,0.2C11.8,88,11.5,88.1,11.1,88.2z"/>
							</g>
							<g>
								<path class="st1" d="M12.8,85.8c-0.1-0.1-0.1-0.1-0.2-0.1l-0.1,0c-0.3-0.1-0.6,0-0.9,0c-0.3,0-0.6,0-0.9,0
									c-0.6,0-1.1,0-1.6,0c-1.1,0-2-0.1-2.9-0.2c-0.3,0-0.7-0.1-1-0.1v0.3c0.3,0,0.6,0,0.9,0.1C7,85.8,8,85.9,9,85.9
									c0.5,0,1.1,0,1.6,0c0.3,0,0.6,0,0.8,0.1c0.2,0,0.4,0.1,0.6,0.1c0,0,0,0,0,0c-0.2,0.1-0.5,0.2-0.8,0.2
									c-0.5,0.1-1.1,0.2-1.6,0.3c-1,0.2-2,0.3-2.9,0.3c-0.6,0-1.2,0.1-1.7,0.1v0.4c0.5,0,1,0,1.7-0.1c0.9,0,1.8-0.1,2.9-0.2
									c0.5-0.1,1.1-0.1,1.6-0.3c0.3-0.1,0.6-0.1,0.9-0.3c0.1-0.1,0.3-0.1,0.5-0.3c0,0,0,0,0.1-0.1c0-0.1,0-0.1,0.1-0.2
									c0-0.1,0-0.2,0-0.2C12.8,85.9,12.8,85.8,12.8,85.8z M12.3,86.2C12.3,86.2,12.3,86.2,12.3,86.2
									C12.3,86.2,12.3,86.2,12.3,86.2C12.3,86.2,12.3,86.2,12.3,86.2z"/>
							</g>
						</g>
						<g>
							<path class="st2" d="M5.2,84.6c1.4,0.2,3.4,0.5,5.1,0.5c3.1,0,6.8-0.4,8.7-0.4c1.5,0.1,8.1,0.3,10.5,0.4v-0.6H5.2V84.6z"/>
						</g>
						<g>
							<path class="st2" d="M24.8,89.6c-1.7,0.3-8.4-0.1-12.8-0.2c-2.7,0-5.3,0.2-6.8,0.3v0.2h24.4v-0.6
								C27.8,89.4,25.7,89.5,24.8,89.6z"/>
						</g>
					</g>
					<g>
						<rect x="5.2" y="84.4" class="st3" width="0.8" height="0.8"/>
					</g>
					<g>
						<rect x="5.2" y="89.2" class="st3" width="0.8" height="0.8"/>
					</g>
					<g>
						<rect x="28.8" y="84.4" class="st3" width="0.8" height="0.8"/>
					</g>
					<g>
						<rect x="28.8" y="89.2" class="st3" width="0.8" height="0.8"/>
					</g>
				</g>
				<g>
					<g>
						<g>
							<path class="st4" d="M7.8,87.9H7.4c-0.4,0-0.7-0.3-0.7-0.7v-0.1c0-0.4,0.3-0.7,0.7-0.7h0.4V87.9z"/>
						</g>
						<g>
							<polygon class="st5" points="7.2,87.4 7,87.2 7.2,87 7.4,87 7.6,87.2 7.4,87.4 							"/>
						</g>
					</g>
					<g>
						<g>
							<path class="st4" d="M10.6,86.5H11c0.4,0,0.7,0.3,0.7,0.7v0.1c0,0.4-0.3,0.7-0.7,0.7h-0.4V86.5z"/>
						</g>
						<g>
							<polygon class="st5" points="11.3,87 11.4,87.2 11.3,87.4 11,87.4 10.9,87.2 11,87 							"/>
						</g>
					</g>
				</g>
				<g>
					<g>
						<g>
							<path class="st4" d="M24.1,87.9h-0.4c-0.4,0-0.7-0.3-0.7-0.7v-0.1c0-0.4,0.3-0.7,0.7-0.7h0.4V87.9z"/>
						</g>
						<g>
							<polygon class="st5" points="23.5,87.4 23.4,87.2 23.5,87 23.8,87 23.9,87.2 23.8,87.4 							"/>
						</g>
					</g>
					<g>
						<g>
							<path class="st4" d="M27,86.5h0.4c0.4,0,0.7,0.3,0.7,0.7v0.1c0,0.4-0.3,0.7-0.7,0.7H27V86.5z"/>
						</g>
						<g>
							<polygon class="st5" points="27.6,87 27.7,87.2 27.6,87.4 27.3,87.4 27.2,87.2 27.3,87 							"/>
						</g>
					</g>
				</g>
			</g>
			<g>
				<g>
					<g>
						<g>
							<g>
								<rect x="5.2" y="96.7" class="st0" width="24.4" height="5.5"/>
							</g>
							<g>
								<path class="st1" d="M9.6,97.4c0,0,0.5-0.1,1-0.1c0.2,0,0.5,0,0.7,0c0.2,0,0.3,0.1,0.3,0.1s-0.5,0-1,0
									C10.1,97.4,9.6,97.4,9.6,97.4L9.6,97.4z"/>
							</g>
							<g>
								<path class="st1" d="M21,99.8c0,0-0.1,0-0.3,0c-0.2,0-0.4,0-0.7,0c-0.2,0-0.5,0-0.7-0.1c-0.2,0-0.3-0.1-0.3-0.1s0.5,0,1,0
									c0.2,0,0.5,0,0.7,0C20.9,99.8,21,99.8,21,99.8L21,99.8z"/>
							</g>
							<g>
								<path class="st1" d="M22.8,101.4c0,0-0.3,0-0.7,0.1c-0.4,0-1,0-1.6,0c-0.6,0-1.2-0.1-1.6-0.1c-0.4-0.1-0.7-0.1-0.7-0.1
									s0.1,0,0.2,0c0.1,0,0.3,0,0.5,0c0.4,0,1,0,1.6,0c0.6,0,1.2,0.1,1.6,0.1C22.5,101.4,22.8,101.4,22.8,101.4L22.8,101.4z"/>
							</g>
							<g>
								<path class="st1" d="M27.6,96.7c-0.3,0.1-0.5,0.1-0.8,0.2c-0.7,0.1-1.5,0.3-2.3,0.4c-0.4,0.1-0.8,0.1-1.1,0.1
									c-0.2,0-0.4,0-0.6,0c-0.2,0-0.4,0-0.5,0c-0.7,0-1.3-0.2-1.9-0.4c-0.2-0.1-0.4-0.2-0.5-0.2h-0.9c0.3,0.2,0.7,0.4,1.2,0.6
									c0.6,0.2,1.2,0.4,2,0.5c0.2,0,0.4,0,0.6,0c0.2,0,0.4,0,0.6,0c0.4,0,0.8-0.1,1.2-0.2c0.8-0.2,1.5-0.3,2.2-0.5
									c0.5-0.1,1-0.2,1.5-0.3H27.6z"/>
							</g>
							<g>
								<path class="st1" d="M14.3,98.4c0.6-0.5,1.3-0.9,1.8-1.1c0.6-0.3,1.1-0.4,1.5-0.5c0,0,0,0,0,0H17c-0.3,0.1-0.6,0.2-1,0.3
									c-0.6,0.2-1.3,0.5-2.1,1c-0.3,0.2-0.7,0.6-0.9,1.1l0,0.2c0,0.1,0,0.1,0,0.2c0,0.1,0.1,0.3,0.1,0.4c0.1,0.2,0.3,0.4,0.5,0.6
									c0.1,0.1,0.2,0.2,0.3,0.2c0.1,0.1,0.2,0.1,0.3,0.2c0.2,0.1,0.4,0.2,0.6,0.3c0.4,0.2,0.8,0.3,1.2,0.5
									c0.4,0.1,0.8,0.2,1.1,0.3c0.2,0,0.3,0.1,0.5,0.1h0.6c0,0,0,0,0,0c-0.3-0.1-0.6-0.2-1-0.3c-0.4-0.1-0.7-0.3-1.1-0.4
									c-0.4-0.2-0.7-0.4-1.1-0.6c-0.4-0.2-0.7-0.5-1-0.7c-0.3-0.3-0.4-0.6-0.4-0.9C13.8,98.9,14,98.6,14.3,98.4z"/>
							</g>
							<g>
								<path class="st1" d="M29.6,100.5c-0.3,0-0.6,0-1,0c-0.9,0-1.8,0-2.8-0.1c-1-0.1-2.1-0.1-3.2-0.1c-1.1,0-2.2-0.1-3.4-0.1
									c-0.6,0-1.2-0.1-1.7-0.1c-0.3,0-0.6-0.1-0.9-0.1c-0.1,0-0.3,0-0.4-0.1l-0.2-0.1c0,0-0.1,0-0.1-0.1c0,0,0,0,0,0
									c0-0.1,0.1-0.1,0.2-0.2c0.2-0.1,0.5-0.2,0.8-0.3c0.5-0.2,1.1-0.3,1.7-0.4c0.6-0.1,1.1-0.1,1.7-0.1c0.5,0,1.1,0.1,1.7,0
									c1.1,0,2.2-0.1,3.2-0.2c1-0.1,2-0.2,2.8-0.3c0.6-0.1,1.2-0.1,1.7-0.2v-0.1c-0.5,0.1-1.1,0.1-1.7,0.1
									c-0.9,0.1-1.8,0.1-2.9,0.1c-1,0-2.1,0-3.2,0c-0.5,0-1.1-0.1-1.7-0.1c-0.6,0-1.2,0-1.8,0.1c-0.6,0.1-1.2,0.2-1.8,0.4
									c-0.3,0.1-0.6,0.2-0.9,0.4c-0.1,0.1-0.3,0.2-0.4,0.4c-0.1,0.1-0.1,0.3-0.1,0.4c0.1,0.2,0.2,0.2,0.3,0.3
									c0.1,0.1,0.2,0.1,0.3,0.1l0.2,0c0.1,0,0.3,0,0.5,0.1c0.3,0,0.6,0.1,0.9,0.1c0.6,0,1.2,0,1.8,0c1.2,0,2.3,0,3.4,0
									c1.1,0,2.2,0,3.2,0.1c0.5,0,1,0,1.5,0.1c0.5,0,0.9,0,1.4,0c0.3,0,0.7,0,1,0V100.5z"/>
							</g>
							<g>
								<path class="st1" d="M29.6,99.7c-0.3,0-0.6,0-1,0c-0.7,0-1.5,0-2.3,0c-0.4,0-0.9,0-1.3-0.1c-0.4,0-0.9-0.1-1.3-0.2
									c0,0,0.1,0,0.1,0c0.1,0,0.2,0,0.3,0c0.2,0,0.4,0,0.7-0.1c0.4,0,0.9-0.1,1.3-0.1c0.8-0.1,1.6-0.1,2.3-0.1
									c0.5,0,0.9,0,1.2-0.1v-0.3c-0.3,0-0.8,0.1-1.3,0.1c-0.7,0.1-1.5,0.1-2.3,0.2c-0.4,0-0.9,0.1-1.3,0.1c-0.2,0-0.4,0.1-0.7,0.1
									c-0.1,0-0.2,0-0.3,0.1c-0.1,0-0.1,0-0.2,0c0,0,0,0-0.1,0c0,0,0,0.1,0,0.1c0,0,0.1,0,0.1,0c0.5,0.1,0.9,0.1,1.3,0.2
									c0.4,0,0.9,0.1,1.3,0.1c0.8,0,1.6,0.1,2.3,0.1c0.4,0,0.7,0,1,0V99.7z"/>
							</g>
							<g>
								<path class="st1" d="M28.4,101.7c-0.2,0-0.4,0-0.6,0c-0.2,0-0.4,0-0.6,0c-0.4,0-0.8,0.1-1.2,0.1c-0.8,0.1-1.5,0.3-2.3,0.4
									c-0.1,0-0.1,0-0.2,0H25c0.4,0,0.8-0.1,1.2-0.1c0.4,0,0.8,0,1.2-0.1c0.2,0,0.4,0,0.6,0c0.2,0,0.4,0,0.5,0.1
									c0.2,0,0.4,0.1,0.5,0.1h0.6V102C29.2,101.8,28.8,101.7,28.4,101.7z"/>
							</g>
							<g>
								<path class="st1" d="M15,102.1c-0.2-0.1-0.4-0.3-0.6-0.4c-0.1-0.1-0.3-0.1-0.4-0.1c-0.1,0-0.3,0-0.5,0
									c-0.1,0-0.3,0.1-0.4,0.2c-0.1,0.1-0.2,0.1-0.3,0.2c-0.2,0.1-0.3,0.2-0.5,0.2h0.4c0.1,0,0.1,0,0.2-0.1c0.1,0,0.2-0.1,0.4-0.2
									c0.1,0,0.1-0.1,0.2-0.1c0.1,0,0.1,0,0.2,0c0.1,0,0.2,0,0.3,0c0.1,0,0.2,0.1,0.3,0.1c0.1,0.1,0.2,0.1,0.3,0.2L15,102.1
									C15,102.2,15,102.1,15,102.1z"/>
							</g>
							<g>
								<path class="st1" d="M7.8,101c-0.5-0.1-1-0.2-1.5-0.3c-0.3,0-0.5-0.1-0.8-0.1c-0.1,0-0.2,0-0.3,0v0.3c0.1,0,0.2,0,0.4,0
									c0.2,0,0.5,0,0.7,0c0.5,0.1,1,0.2,1.5,0.2c0.5,0.1,0.9,0.1,1.3,0.1c0.8,0,1.3,0,1.3,0s-0.5,0-1.3-0.1
									C8.7,101.2,8.3,101.1,7.8,101z"/>
							</g>
							<g>
								<path class="st1" d="M11.1,100.5c-0.2,0-0.4,0.1-0.7,0.1c-0.2,0-0.5,0-0.8,0c-0.3,0-0.5-0.1-0.8-0.1
									c-0.3-0.1-0.6-0.1-0.9-0.2c-1-0.2-1.9-0.2-2.7-0.2v0.4c0.8,0,1.7,0,2.7,0.1c0.3,0,0.6,0.1,0.9,0.1c0.3,0,0.6,0.1,0.8,0.1
									c0.3,0,0.5,0,0.8,0c0.3,0,0.5-0.1,0.7-0.1c0.2-0.1,0.4-0.1,0.6-0.2c0.2-0.1,0.3-0.2,0.4-0.2c0.2-0.1,0.3-0.2,0.3-0.2
									s-0.1,0.1-0.3,0.2C11.8,100.3,11.5,100.4,11.1,100.5z"/>
							</g>
							<g>
								<path class="st1" d="M12.8,98.1c-0.1-0.1-0.1-0.1-0.2-0.1l-0.1,0c-0.3-0.1-0.6,0-0.9,0c-0.3,0-0.6,0-0.9,0
									c-0.6,0-1.1,0-1.6,0c-1.1,0-2-0.1-2.9-0.2c-0.3,0-0.7-0.1-1-0.1v0.3c0.3,0,0.6,0,0.9,0.1C7,98.1,8,98.1,9,98.2
									c0.5,0,1.1,0,1.6,0c0.3,0,0.6,0,0.8,0.1c0.2,0,0.4,0.1,0.6,0.1c0,0,0,0,0,0c-0.2,0.1-0.5,0.2-0.8,0.2
									c-0.5,0.1-1.1,0.2-1.6,0.3c-1,0.2-2,0.3-2.9,0.3c-0.6,0-1.2,0.1-1.7,0.1v0.4c0.5,0,1,0,1.7-0.1c0.9,0,1.8-0.1,2.9-0.2
									c0.5-0.1,1.1-0.1,1.6-0.3c0.3-0.1,0.6-0.1,0.9-0.3c0.1-0.1,0.3-0.1,0.5-0.3c0,0,0,0,0.1-0.1c0-0.1,0-0.1,0.1-0.2
									c0-0.1,0-0.2,0-0.2C12.8,98.1,12.8,98.1,12.8,98.1z M12.3,98.5C12.3,98.5,12.3,98.5,12.3,98.5
									C12.3,98.5,12.3,98.5,12.3,98.5C12.3,98.5,12.3,98.5,12.3,98.5z"/>
							</g>
						</g>
						<g>
							<path class="st2" d="M5.2,96.8c1.4,0.2,3.4,0.5,5.1,0.5c3.1,0,6.8-0.4,8.7-0.4c1.5,0.1,8.1,0.3,10.5,0.4v-0.6H5.2V96.8z"/>
						</g>
						<g>
							<path class="st2" d="M24.8,101.9c-1.7,0.3-8.4-0.1-12.8-0.2c-2.7,0-5.3,0.2-6.8,0.3v0.2h24.4v-0.6
								C27.8,101.7,25.7,101.8,24.8,101.9z"/>
						</g>
					</g>
					<g>
						<rect x="5.2" y="96.7" class="st3" width="0.8" height="0.8"/>
					</g>
					<g>
						<rect x="5.2" y="101.4" class="st3" width="0.8" height="0.8"/>
					</g>
					<g>
						<rect x="28.8" y="96.7" class="st3" width="0.8" height="0.8"/>
					</g>
					<g>
						<rect x="28.8" y="101.4" class="st3" width="0.8" height="0.8"/>
					</g>
				</g>
				<g>
					<g>
						<g>
							<path class="st4" d="M7.8,100.2H7.4c-0.4,0-0.7-0.3-0.7-0.7v-0.1c0-0.4,0.3-0.7,0.7-0.7h0.4V100.2z"/>
						</g>
						<g>
							<polygon class="st5" points="7.2,99.7 7,99.4 7.2,99.2 7.4,99.2 7.6,99.4 7.4,99.7 							"/>
						</g>
					</g>
					<g>
						<g>
							<path class="st4" d="M10.6,98.7H11c0.4,0,0.7,0.3,0.7,0.7v0.1c0,0.4-0.3,0.7-0.7,0.7h-0.4V98.7z"/>
						</g>
						<g>
							<polygon class="st5" points="11.3,99.2 11.4,99.4 11.3,99.7 11,99.7 10.9,99.4 11,99.2 							"/>
						</g>
					</g>
				</g>
				<g>
					<g>
						<g>
							<path class="st4" d="M24.1,100.2h-0.4c-0.4,0-0.7-0.3-0.7-0.7v-0.1c0-0.4,0.3-0.7,0.7-0.7h0.4V100.2z"/>
						</g>
						<g>
							<polygon class="st5" points="23.5,99.7 23.4,99.4 23.5,99.2 23.8,99.2 23.9,99.4 23.8,99.7 							"/>
						</g>
					</g>
					<g>
						<g>
							<path class="st4" d="M27,98.7h0.4c0.4,0,0.7,0.3,0.7,0.7v0.1c0,0.4-0.3,0.7-0.7,0.7H27V98.7z"/>
						</g>
						<g>
							<polygon class="st5" points="27.6,99.2 27.7,99.4 27.6,99.7 27.3,99.7 27.2,99.4 27.3,99.2 							"/>
						</g>
					</g>
				</g>
			</g>
			<g>
				<g>
					<g>
						<g>
							<g>
								<rect x="5.2" y="108.9" class="st0" width="24.4" height="5.5"/>
							</g>
							<g>
								<path class="st1" d="M9.6,109.6c0,0,0.5-0.1,1-0.1c0.2,0,0.5,0,0.7,0c0.2,0,0.3,0.1,0.3,0.1s-0.5,0-1,0
									C10.1,109.6,9.6,109.6,9.6,109.6L9.6,109.6z"/>
							</g>
							<g>
								<path class="st1" d="M21,112.1c0,0-0.1,0-0.3,0c-0.2,0-0.4,0-0.7,0c-0.2,0-0.5,0-0.7-0.1c-0.2,0-0.3-0.1-0.3-0.1s0.5,0,1,0
									c0.2,0,0.5,0,0.7,0C20.9,112.1,21,112.1,21,112.1L21,112.1z"/>
							</g>
							<g>
								<path class="st1" d="M22.8,113.7c0,0-0.3,0-0.7,0.1c-0.4,0-1,0-1.6,0c-0.6,0-1.2-0.1-1.6-0.1c-0.4-0.1-0.7-0.1-0.7-0.1
									s0.1,0,0.2,0c0.1,0,0.3,0,0.5,0c0.4,0,1,0,1.6,0c0.6,0,1.2,0.1,1.6,0.1C22.5,113.6,22.8,113.7,22.8,113.7L22.8,113.7z"/>
							</g>
							<g>
								<path class="st1" d="M27.6,108.9c-0.3,0.1-0.5,0.1-0.8,0.2c-0.7,0.1-1.5,0.3-2.3,0.4c-0.4,0.1-0.8,0.1-1.1,0.1
									c-0.2,0-0.4,0-0.6,0c-0.2,0-0.4,0-0.5,0c-0.7,0-1.3-0.2-1.9-0.4c-0.2-0.1-0.4-0.2-0.5-0.2h-0.9c0.3,0.2,0.7,0.4,1.2,0.6
									c0.6,0.2,1.2,0.4,2,0.5c0.2,0,0.4,0,0.6,0c0.2,0,0.4,0,0.6,0c0.4,0,0.8-0.1,1.2-0.2c0.8-0.2,1.5-0.3,2.2-0.5
									c0.5-0.1,1-0.2,1.5-0.3H27.6z"/>
							</g>
							<g>
								<path class="st1" d="M14.3,110.6c0.6-0.5,1.3-0.9,1.8-1.1c0.6-0.3,1.1-0.4,1.5-0.5c0,0,0,0,0,0H17c-0.3,0.1-0.6,0.2-1,0.3
									c-0.6,0.2-1.3,0.5-2.1,1c-0.3,0.2-0.7,0.6-0.9,1.1l0,0.2c0,0.1,0,0.1,0,0.2c0,0.1,0.1,0.3,0.1,0.4c0.1,0.2,0.3,0.4,0.5,0.6
									c0.1,0.1,0.2,0.2,0.3,0.2c0.1,0.1,0.2,0.1,0.3,0.2c0.2,0.1,0.4,0.2,0.6,0.3c0.4,0.2,0.8,0.3,1.2,0.5
									c0.4,0.1,0.8,0.2,1.1,0.3c0.2,0,0.3,0.1,0.5,0.1h0.6c0,0,0,0,0,0c-0.3-0.1-0.6-0.2-1-0.3c-0.4-0.1-0.7-0.3-1.1-0.4
									c-0.4-0.2-0.7-0.4-1.1-0.6c-0.4-0.2-0.7-0.5-1-0.7c-0.3-0.3-0.4-0.6-0.4-0.9C13.8,111.2,14,110.9,14.3,110.6z"/>
							</g>
							<g>
								<path class="st1" d="M29.6,112.8c-0.3,0-0.6,0-1,0c-0.9,0-1.8,0-2.8-0.1c-1-0.1-2.1-0.1-3.2-0.1c-1.1,0-2.2-0.1-3.4-0.1
									c-0.6,0-1.2-0.1-1.7-0.1c-0.3,0-0.6-0.1-0.9-0.1c-0.1,0-0.3,0-0.4-0.1l-0.2-0.1c0,0-0.1,0-0.1-0.1c0,0,0,0,0,0
									c0-0.1,0.1-0.1,0.2-0.2c0.2-0.1,0.5-0.2,0.8-0.3c0.5-0.2,1.1-0.3,1.7-0.4c0.6-0.1,1.1-0.1,1.7-0.1c0.5,0,1.1,0.1,1.7,0
									c1.1,0,2.2-0.1,3.2-0.2c1-0.1,2-0.2,2.8-0.3c0.6-0.1,1.2-0.1,1.7-0.2v-0.1c-0.5,0.1-1.1,0.1-1.7,0.1
									c-0.9,0.1-1.8,0.1-2.9,0.1c-1,0-2.1,0-3.2,0c-0.5,0-1.1-0.1-1.7-0.1c-0.6,0-1.2,0-1.8,0.1c-0.6,0.1-1.2,0.2-1.8,0.4
									c-0.3,0.1-0.6,0.2-0.9,0.4c-0.1,0.1-0.3,0.2-0.4,0.4c-0.1,0.1-0.1,0.3-0.1,0.4c0.1,0.2,0.2,0.2,0.3,0.3
									c0.1,0.1,0.2,0.1,0.3,0.1l0.2,0c0.1,0,0.3,0,0.5,0.1c0.3,0,0.6,0.1,0.9,0.1c0.6,0,1.2,0,1.8,0c1.2,0,2.3,0,3.4,0
									c1.1,0,2.2,0,3.2,0.1c0.5,0,1,0,1.5,0.1c0.5,0,0.9,0,1.4,0c0.3,0,0.7,0,1,0V112.8z"/>
							</g>
							<g>
								<path class="st1" d="M29.6,111.9c-0.3,0-0.6,0-1,0c-0.7,0-1.5,0-2.3,0c-0.4,0-0.9,0-1.3-0.1c-0.4,0-0.9-0.1-1.3-0.2
									c0,0,0.1,0,0.1,0c0.1,0,0.2,0,0.3,0c0.2,0,0.4,0,0.7-0.1c0.4,0,0.9-0.1,1.3-0.1c0.8-0.1,1.6-0.1,2.3-0.1
									c0.5,0,0.9,0,1.2-0.1V111c-0.3,0-0.8,0.1-1.3,0.1c-0.7,0.1-1.5,0.1-2.3,0.2c-0.4,0-0.9,0.1-1.3,0.1c-0.2,0-0.4,0.1-0.7,0.1
									c-0.1,0-0.2,0-0.3,0.1c-0.1,0-0.1,0-0.2,0c0,0,0,0-0.1,0c0,0,0,0.1,0,0.1c0,0,0.1,0,0.1,0c0.5,0.1,0.9,0.1,1.3,0.2
									c0.4,0,0.9,0.1,1.3,0.1c0.8,0,1.6,0.1,2.3,0.1c0.4,0,0.7,0,1,0V111.9z"/>
							</g>
							<g>
								<path class="st1" d="M28.4,113.9c-0.2,0-0.4,0-0.6,0c-0.2,0-0.4,0-0.6,0c-0.4,0-0.8,0.1-1.2,0.1c-0.8,0.1-1.5,0.3-2.3,0.4
									c-0.1,0-0.1,0-0.2,0H25c0.4,0,0.8-0.1,1.2-0.1c0.4,0,0.8,0,1.2-0.1c0.2,0,0.4,0,0.6,0c0.2,0,0.4,0,0.5,0.1
									c0.2,0,0.4,0.1,0.5,0.1h0.6v-0.2C29.2,114.1,28.8,114,28.4,113.9z"/>
							</g>
							<g>
								<path class="st1" d="M15,114.4c-0.2-0.1-0.4-0.3-0.6-0.4c-0.1-0.1-0.3-0.1-0.4-0.1c-0.1,0-0.3,0-0.5,0
									c-0.1,0-0.3,0.1-0.4,0.2c-0.1,0.1-0.2,0.1-0.3,0.2c-0.2,0.1-0.3,0.2-0.5,0.2h0.4c0.1,0,0.1,0,0.2-0.1c0.1,0,0.2-0.1,0.4-0.2
									c0.1,0,0.1-0.1,0.2-0.1c0.1,0,0.1,0,0.2,0c0.1,0,0.2,0,0.3,0c0.1,0,0.2,0.1,0.3,0.1c0.1,0.1,0.2,0.1,0.3,0.2L15,114.4
									C15,114.4,15,114.4,15,114.4z"/>
							</g>
							<g>
								<path class="st1" d="M7.8,113.3c-0.5-0.1-1-0.2-1.5-0.3c-0.3,0-0.5-0.1-0.8-0.1c-0.1,0-0.2,0-0.3,0v0.3c0.1,0,0.2,0,0.4,0
									c0.2,0,0.5,0,0.7,0c0.5,0.1,1,0.2,1.5,0.2c0.5,0.1,0.9,0.1,1.3,0.1c0.8,0,1.3,0,1.3,0s-0.5,0-1.3-0.1
									C8.7,113.4,8.3,113.4,7.8,113.3z"/>
							</g>
							<g>
								<path class="st1" d="M11.1,112.7c-0.2,0-0.4,0.1-0.7,0.1c-0.2,0-0.5,0-0.8,0c-0.3,0-0.5-0.1-0.8-0.1
									c-0.3-0.1-0.6-0.1-0.9-0.2c-1-0.2-1.9-0.2-2.7-0.2v0.4c0.8,0,1.7,0,2.7,0.1c0.3,0,0.6,0.1,0.9,0.1c0.3,0,0.6,0.1,0.8,0.1
									c0.3,0,0.5,0,0.8,0c0.3,0,0.5-0.1,0.7-0.1c0.2-0.1,0.4-0.1,0.6-0.2c0.2-0.1,0.3-0.2,0.4-0.2c0.2-0.1,0.3-0.2,0.3-0.2
									s-0.1,0.1-0.3,0.2C11.8,112.5,11.5,112.7,11.1,112.7z"/>
							</g>
							<g>
								<path class="st1" d="M12.8,110.3c-0.1-0.1-0.1-0.1-0.2-0.1l-0.1,0c-0.3-0.1-0.6,0-0.9,0c-0.3,0-0.6,0-0.9,0
									c-0.6,0-1.1,0-1.6,0c-1.1,0-2-0.1-2.9-0.2c-0.3,0-0.7-0.1-1-0.1v0.3c0.3,0,0.6,0,0.9,0.1c0.8,0.1,1.8,0.1,2.9,0.1
									c0.5,0,1.1,0,1.6,0c0.3,0,0.6,0,0.8,0.1c0.2,0,0.4,0.1,0.6,0.1c0,0,0,0,0,0c-0.2,0.1-0.5,0.2-0.8,0.2
									c-0.5,0.1-1.1,0.2-1.6,0.3c-1,0.2-2,0.3-2.9,0.3c-0.6,0-1.2,0.1-1.7,0.1v0.4c0.5,0,1,0,1.7-0.1c0.9,0,1.8-0.1,2.9-0.2
									c0.5-0.1,1.1-0.1,1.6-0.3c0.3-0.1,0.6-0.1,0.9-0.3c0.1-0.1,0.3-0.1,0.5-0.3c0,0,0,0,0.1-0.1c0-0.1,0-0.1,0.1-0.2
									c0-0.1,0-0.2,0-0.2C12.8,110.4,12.8,110.3,12.8,110.3z M12.3,110.7C12.3,110.7,12.3,110.7,12.3,110.7
									C12.3,110.7,12.3,110.7,12.3,110.7C12.3,110.7,12.3,110.7,12.3,110.7z"/>
							</g>
						</g>
						<g>
							<path class="st2" d="M5.2,109.1c1.4,0.2,3.4,0.5,5.1,0.5c3.1,0,6.8-0.4,8.7-0.4c1.5,0.1,8.1,0.3,10.5,0.4v-0.6H5.2V109.1z"/>
						</g>
						<g>
							<path class="st2" d="M24.8,114.1c-1.7,0.3-8.4-0.1-12.8-0.2c-2.7,0-5.3,0.2-6.8,0.3v0.2h24.4v-0.6
								C27.8,113.9,25.7,114,24.8,114.1z"/>
						</g>
					</g>
					<g>
						<rect x="5.2" y="108.9" class="st3" width="0.8" height="0.8"/>
					</g>
					<g>
						<rect x="5.2" y="113.7" class="st3" width="0.8" height="0.8"/>
					</g>
					<g>
						<rect x="28.8" y="108.9" class="st3" width="0.8" height="0.8"/>
					</g>
					<g>
						<rect x="28.8" y="113.7" class="st3" width="0.8" height="0.8"/>
					</g>
				</g>
				<g>
					<g>
						<g>
							<path class="st4" d="M7.8,112.4H7.4c-0.4,0-0.7-0.3-0.7-0.7v-0.1c0-0.4,0.3-0.7,0.7-0.7h0.4V112.4z"/>
						</g>
						<g>
							<polygon class="st5" points="7.2,111.9 7,111.7 7.2,111.5 7.4,111.5 7.6,111.7 7.4,111.9 							"/>
						</g>
					</g>
					<g>
						<g>
							<path class="st4" d="M10.6,111H11c0.4,0,0.7,0.3,0.7,0.7v0.1c0,0.4-0.3,0.7-0.7,0.7h-0.4V111z"/>
						</g>
						<g>
							<polygon class="st5" points="11.3,111.5 11.4,111.7 11.3,111.9 11,111.9 10.9,111.7 11,111.5 							"/>
						</g>
					</g>
				</g>
				<g>
					<g>
						<g>
							<path class="st4" d="M24.1,112.4h-0.4c-0.4,0-0.7-0.3-0.7-0.7v-0.1c0-0.4,0.3-0.7,0.7-0.7h0.4V112.4z"/>
						</g>
						<g>
							<polygon class="st5" points="23.5,111.9 23.4,111.7 23.5,111.5 23.8,111.5 23.9,111.7 23.8,111.9 							"/>
						</g>
					</g>
					<g>
						<g>
							<path class="st4" d="M27,111h0.4c0.4,0,0.7,0.3,0.7,0.7v0.1c0,0.4-0.3,0.7-0.7,0.7H27V111z"/>
						</g>
						<g>
							<polygon class="st5" points="27.6,111.5 27.7,111.7 27.6,111.9 27.3,111.9 27.2,111.7 27.3,111.5 							"/>
						</g>
					</g>
				</g>
			</g>
			<g>
				<g>
					<g>
						<rect x="7.8" y="20.4" class="st6" width="2.9" height="97.5"/>
					</g>
					<g>
						<rect x="8.2" y="20.4" class="st7" width="2" height="97.5"/>
					</g>
				</g>
				<g>
					<g>
						<rect x="24.1" y="20.4" class="st6" width="2.9" height="97.5"/>
					</g>
					<g>
						<rect x="24.5" y="20.4" class="st7" width="2" height="97.5"/>
					</g>
				</g>
			</g>
		</g>
		<g>
			<rect y="18.3" transform="matrix(-1 -1.224647e-16 1.224647e-16 -1 34.753 38.8988)" class="st8" width="34.8" height="2.4"/>
			<polygon class="st9" points="29.9,18.3 33.5,18.3 31.2,20.6 27.6,20.6 			"/>
			<polygon class="st9" points="23.3,18.3 26.9,18.3 24.6,20.6 21,20.6 			"/>
			<polygon class="st9" points="16.7,18.3 20.3,18.3 18,20.6 14.4,20.6 			"/>
			<polygon class="st9" points="10.1,18.3 13.7,18.3 11.4,20.6 7.8,20.6 			"/>
			<polygon class="st9" points="3.5,18.3 7.1,18.3 4.8,20.6 1.2,20.6 			"/>
		</g>
		<rect y="0.1" class="st10" width="34.8" height="15.9"/>
		<polygon class="st11" points="26.9,8 17.4,8 7.8,8 0,16 17.4,16 34.7,16 		"/>
		<polygon class="st8" points="7.8,8 17.4,8 26.9,8 34.7,0 17.4,0 0,0 		"/>
	</g>
	<g>
		<g>
			<g>
				
					<rect x="31.5" y="30.5" transform="matrix(-1 -1.224647e-16 1.224647e-16 -1 80.1243 71.4255)" class="st12" width="17.2" height="10.5"/>
				<polygon class="st13" points="40.1,30.5 48.7,30.5 47,32.1 40.1,32.1 33.1,32.1 31.5,30.5 				"/>
				<polygon class="st13" points="40.1,40.9 31.5,40.9 33.1,39.3 40.1,39.3 47,39.3 48.7,40.9 				"/>
				<polygon class="st14" points="31.4,39.1 31.4,30.5 33.1,32.1 33.1,39.1 33.1,39.3 31.4,40.9 				"/>
				<polygon class="st15" points="48.7,32.3 48.7,40.9 47,39.3 47,32.3 47,32.1 48.7,30.5 				"/>
			</g>
			<g>
				<rect x="34.9" y="33.7" class="st10" width="10.2" height="4.6"/>
				<rect x="36.7" y="32.4" class="st16" width="6.7" height="1.3"/>
				<g>
					<path class="st9" d="M35.6,38.3c0,0.4,0.4,0.7,0.8,0.7h2.1c0.5,0,0.8-0.3,0.8-0.7H35.6z"/>
					<path class="st9" d="M40.7,38.3c0,0.4,0.4,0.7,0.8,0.7h2.1c0.5,0,0.8-0.3,0.8-0.7H40.7z"/>
				</g>
			</g>
		</g>
		<rect x="34.9" y="37.2" class="st11" width="10.2" height="1.1"/>
	</g>
</g>
</svg>
