<!-- Generator: Adobe Illustrator 22.1.0, SVG Export Plug-In  -->
<svg version="1.1"
	 xmlns="http://www.w3.org/2000/svg" xmlns:xlink="http://www.w3.org/1999/xlink" xmlns:a="http://ns.adobe.com/AdobeSVGViewerExtensions/3.0/"
	 x="0px" y="0px" width="62.9px" height="34.2px" viewBox="0 0 62.9 34.2" style="enable-background:new 0 0 62.9 34.2;"
	 xml:space="preserve">
<style type="text/css">
	.st0{fill:#323232;}
</style>
<defs>
</defs>
<path class="st0" d="M62.9,20.5c0-7.6-6.1-13.7-13.7-13.7c-3.8,0-7.2,1.6-9.7,4.1C37,4.5,30.8,0,23.5,0C14.1,0,6.4,7.7,6.4,17.1
	c0,0.6,0,1.2,0.1,1.8C2.8,19.5,0,22.7,0,26.6c0,4.2,3.5,7.7,7.7,7.7h42.6c1.1,0,2.1-0.2,3.1-0.7C58.9,31.8,62.9,26.7,62.9,20.5z"/>
</svg>
