<!-- Generator: Adobe Illustrator 22.1.0, SVG Export Plug-In  -->
<svg version="1.1"
	 xmlns="http://www.w3.org/2000/svg" xmlns:xlink="http://www.w3.org/1999/xlink" xmlns:a="http://ns.adobe.com/AdobeSVGViewerExtensions/3.0/"
	 x="0px" y="0px" width="42.2px" height="42.2px" viewBox="0 0 42.2 42.2" style="enable-background:new 0 0 42.2 42.2;"
	 xml:space="preserve">
<style type="text/css">
	.st0{fill:#5B897B;}
	.st1{fill:#FFFFFF;}
</style>
<defs>
</defs>
<circle class="st0" cx="21.1" cy="21.1" r="21.1"/>
<g>
	<polygon class="st1" points="6.4,26.5 6.4,26.9 5.3,27.3 4.9,28 5.6,29.1 6.9,27.3 7.1,25.9 7.5,25.6 9.3,26 9.5,25.1 10.3,24.7 
		10.8,24.1 11.3,23.6 11.9,23.8 12,23.2 11.3,22.5 10.7,21.9 8.7,22.2 7.8,22 6.5,22.9 7.1,23.3 6.2,22.9 6.1,23.5 4.9,22.6 4.6,23 
		5.4,24.3 4.4,24.4 5.1,25.3 	"/>
	<polygon class="st1" points="7.3,19.6 6.4,19.5 5.6,19.3 5.5,18.9 6.5,18.6 7.2,18.6 7.7,18.1 8,17.6 9.5,17.8 10,18.5 10.4,19.5 
		10.1,19.7 9.8,19.4 9.3,19.7 8.9,20.5 8.5,21.1 7.8,21.1 7.2,20.5 	"/>
	<polygon class="st1" points="22.8,27.4 24.6,27.7 25.2,28.5 30.3,31.5 31.5,30.7 34.3,31.5 35.8,31.3 36.8,29.5 37.1,28.2 35.3,26 
		34.3,23.2 33.7,22 34.2,19.3 36.8,18.1 37.6,16.8 37.8,14.1 37.2,13.2 36.2,13.5 35.9,13.6 34.9,13.1 32.2,13.3 30.2,12 28.7,11.8 
		26.7,11.1 25.8,11.6 25,11.2 24.6,11.5 24.1,11.3 23.7,11.7 24.3,12.3 21.9,12.4 21.4,12.6 20.7,12.2 20,13 18.3,13 17.5,13.5 
		16.4,13.7 16.3,14.6 15.3,14.9 13.2,16 13,17.1 13.9,17.8 13.4,18.1 13.3,19.4 13.7,19.9 15,20.3 15.1,20.5 14,20.9 13.2,21.5 
		13.2,21.9 14.2,22.8 14.3,24.4 14.5,24.5 14.8,24.7 15.6,24.3 16.9,25.7 17.4,25.4 17.7,24.7 18.8,24 19.2,24.7 18.9,25.8 
		18.5,26.6 17.9,28.9 21.9,26.6 	"/>
</g>
</svg>
