<!-- Generator: Adobe Illustrator 22.0.1, SVG Export Plug-In  -->
<svg version="1.1"
	 xmlns="http://www.w3.org/2000/svg" xmlns:xlink="http://www.w3.org/1999/xlink" xmlns:a="http://ns.adobe.com/AdobeSVGViewerExtensions/3.0/"
	 x="0px" y="0px" width="326.9px" height="389.6px" viewBox="0 0 326.9 389.6" style="enable-background:new 0 0 326.9 389.6;"
	 xml:space="preserve">
<style type="text/css">
	.st0{fill:#EFA08B;}
	.st1{fill:#EDA87A;}
	.st2{fill:#FABE8C;}
	.st3{fill:url(#SVGID_1_);}
	.st4{fill:url(#SVGID_2_);}
	.st5{fill:#BAB9B9;}
	.st6{fill:#636363;}
	.st7{fill:#F9BD8C;}
	.st8{fill:url(#SVGID_3_);}
	.st9{fill:url(#SVGID_4_);}
	.st10{fill:url(#SVGID_5_);}
	.st11{fill:#87817E;}
	.st12{fill:#FFFFFF;}
	.st13{fill:#2E1710;}
	.st14{fill:#1A2230;}
	.st15{fill:#211011;}
	.st16{fill:#0C436B;}
	.st17{fill:#0E3759;}
	.st18{fill:#09324C;}
	.st19{fill:url(#SVGID_6_);}
	.st20{fill:#E28A76;}
	.st21{fill:url(#SVGID_7_);}
	.st22{fill:url(#SVGID_8_);}
	.st23{fill:url(#SVGID_9_);}
	.st24{fill:#0D3759;}
	.st25{fill:#BDE5EF;}
	.st26{fill:#DEF1F7;}
	.st27{fill:#2C5BAF;}
	.st28{fill:#356CBC;}
	.st29{fill:#07446B;}
	.st30{fill:#054E77;}
	.st31{fill:#D14937;}
	.st32{fill:url(#SVGID_10_);}
	.st33{fill:#F1B085;}
	.st34{fill:#F6C299;}
	.st35{fill:url(#SVGID_11_);}
	.st36{fill:url(#SVGID_12_);}
	.st37{fill:#603124;}
	.st38{fill:#844F31;}
	.st39{fill:url(#SVGID_13_);}
	.st40{fill:url(#SVGID_14_);}
	.st41{fill:url(#SVGID_15_);}
	.st42{fill:#722815;}
	.st43{fill:#F4784D;}
	.st44{fill:url(#SVGID_16_);}
	.st45{fill:#2F150C;}
	.st46{fill:#85A9A0;}
	.st47{fill:#FFE9E9;}
	.st48{fill:#264C41;}
	.st49{fill:url(#SVGID_17_);}
	.st50{fill:url(#SVGID_18_);}
	.st51{fill:#BDE5F0;}
	.st52{fill:#A8DDE9;}
	.st53{fill:#102E42;}
	.st54{fill:#C6E8F4;}
	.st55{fill:#AFD6E2;}
	.st56{fill:url(#SVGID_19_);}
	.st57{fill:url(#SVGID_20_);}
	.st58{fill:url(#SVGID_21_);}
	.st59{fill:url(#SVGID_22_);}
	.st60{fill:url(#SVGID_23_);}
	.st61{fill:url(#SVGID_24_);}
	.st62{fill:url(#SVGID_25_);}
	.st63{fill:url(#SVGID_26_);}
	.st64{fill:url(#SVGID_27_);}
	.st65{fill:url(#SVGID_28_);}
	.st66{fill:url(#SVGID_29_);}
	.st67{fill:url(#SVGID_30_);}
	.st68{fill:url(#SVGID_31_);}
	.st69{fill:url(#SVGID_32_);}
	.st70{fill:url(#SVGID_33_);}
	.st71{fill:url(#SVGID_34_);}
	.st72{fill:url(#SVGID_35_);}
	.st73{fill:url(#SVGID_36_);}
	.st74{fill:url(#SVGID_37_);}
	.st75{fill:url(#SVGID_38_);}
</style>
<defs>
</defs>
<path class="st0" d="M185.3,156.4c5.7-3.7,10.4-3.7,11.9-3.4c4.3,0.8,5.4,0.7,6.9,2.3c2.2,2.3,0.7,1.9,4.2,4.5
	c1.4,1,4.6,1.3,1.7,2.5c-1.4,0.6-1.4,1.6-1.4,1.6s1.5,0.6,1.3,1.7c-0.2,0.9-1.4,2-2.7,2.5c-1.5,0.6-3,0.5-3,0.5s1.4,0.7,0.8,1.9
	c-0.8,1.5-3.3,1.9-4.9,1.8c-1.6-0.1-2.6-0.2-4.1-0.8c-0.7-0.3-1.9,2-3.5,4.2c-1,1.4-3.6,3.4-5.2,3.5c-5.2,0.3-8.9-2.3-8.2-5.3
	C181,164.2,178.6,160.8,185.3,156.4z"/>
<g>
	<g>
		<path class="st1" d="M252.4,148c0.3,7.3-27.4,7.1-27.5-0.1c0-2.5,0.6-11.7,0.1-14.2c-1.4-7.1,28.4-7.1,27.5,0.1
			C252.1,136.8,252.3,145.4,252.4,148z"/>
		<path class="st2" d="M265,20.7l-26.1,4.2l-26.1-4.4l-12.4,15.2c0,0,0.5,35.5,2.7,60.6c2.3,25.4,9.5,33.4,13.1,36.1
			c6.7,4.9,21.3,4.6,22.2,4.6c0.9,0,15.5,0.5,22.2-4.4c3.6-2.6,10.9-10.5,13.4-35.9c2.5-25.1,3.3-60.6,3.3-60.6L265,20.7z"/>
		
			<linearGradient id="SVGID_1_" gradientUnits="userSpaceOnUse" x1="278.8145" y1="41.0827" x2="205.4682" y2="41.0827" gradientTransform="matrix(1 4.700000e-03 -4.700000e-03 1 -2.7002 -2.6145)">
			<stop  offset="0" style="stop-color:#F19C7C"/>
			<stop  offset="0.3924" style="stop-color:#F4A781"/>
			<stop  offset="0.936" style="stop-color:#FABE8C"/>
		</linearGradient>
		<path class="st3" d="M202.9,31l-0.4,19c21.8-9.7,61.4-1.3,70.9-10.3c1.3-1.3,2.9-7.7,2.4-9.8c-0.4-2.1-19.7,2-23.4,2
			c-3.7,0-30.3,0.6-33.7-0.2C215.4,30.9,202.9,31,202.9,31z"/>
		
			<linearGradient id="SVGID_2_" gradientUnits="userSpaceOnUse" x1="273.6428" y1="40.6105" x2="275.4319" y2="65.63" gradientTransform="matrix(1 4.700000e-03 -4.700000e-03 1 -2.7002 -2.6145)">
			<stop  offset="0" style="stop-color:#F19C7C"/>
			<stop  offset="0.3924" style="stop-color:#F4A781"/>
			<stop  offset="0.936" style="stop-color:#FABE8C"/>
		</linearGradient>
		<path class="st4" d="M277,33.2c-0.1-0.3-15.9,10.5-12.1,9.9c1-0.1,2.5-0.6,2.9,2.7c0.4,3.3,0.6,4.5,1.3,7.7
			c0.8,3.6,2.2,7.7,3.2,9.1c1,1.4,3.2,2.5,4.3,1.9c1.1-0.6,1.3-5,0.5-9.3c-0.9-4.8-1.4-7-1.5-10.9C275.6,40.6,277,33.2,277,33.2z"/>
		<path class="st5" d="M197.6,16c-8.4,3.8-11.5,9.7-11.9,16.2c-0.8,12,7.3,26.2,8.4,33.8c0.3,2,6.7,1.3,7.4-1
			c3.9-13.6,3.3-25.3,2.2-34.8C202.9,23.4,198.7,15.5,197.6,16z"/>
		<path class="st6" d="M279.2,16.2c8.4,3.8,11.4,9.7,11.8,16.3c0.8,12-7.5,26.2-8.6,33.7c-0.3,2-6.7,1.3-7.4-1
			c-3.8-13.6-3.2-25.4-2-34.9C273.8,23.6,278.2,15.7,279.2,16.2z"/>
		<path class="st5" d="M287,33c-1-5.5-4.2-9.9-11.2-11.8c-1.2,2.7-2.3,6-2.7,9.2c-1.1,9.5-1.8,21.2,2,34.9c0.2,0.6,0.8,1.2,1.6,1.5
			c2.1,0.7,5.1,0.6,5.1-0.8C282.3,58.4,288.9,44,287,33z"/>
		<g>
			<path class="st7" d="M282.2,63.2c4.4-0.3,8.9,1.9,10.3,5.7c0.9,2.5,0.6,5-0.1,7.7c-1.2,4.3-3.4,7.7-6,9.6
				c-2.9,2.1-5.2,1.9-7.4,1.3c-3.4-0.9-5.6-3.5-6.2-5.1c-1.4-3.8-0.9-9.2-0.4-13.2C272.4,67.9,275.6,63.6,282.2,63.2z"/>
			
				<linearGradient id="SVGID_3_" gradientUnits="userSpaceOnUse" x1="278.095" y1="76.2427" x2="290.1657" y2="76.2427" gradientTransform="matrix(1 4.700000e-03 -4.700000e-03 1 -2.7002 -2.6145)">
				<stop  offset="0.1945" style="stop-color:#FABE8C"/>
				<stop  offset="1" style="stop-color:#F48655"/>
			</linearGradient>
			<path class="st8" d="M276.6,69.2c1.3-1.9,4.9-2,7.2-0.8c2.3,1.3,3.5,4.3,3.2,7.5c-0.3,2.8-2.8,5.1-5.5,6c-2,0.7-4.2,0.4-5.4-1.4
				c-1-1.6-1.2-4.1-1.2-5.3C275.1,73.2,275.5,70.9,276.6,69.2z"/>
		</g>
		<g>
			<path class="st7" d="M193.7,62.8c-4.4-0.3-8.9,1.8-10.3,5.6c-0.9,2.5-0.7,5,0.1,7.7c1.2,4.3,3.3,7.7,5.9,9.7
				c2.9,2.2,5.1,2,7.4,1.4c3.4-0.9,5.7-3.5,6.3-5c1.4-3.8,0.9-9.2,0.5-13.2C203.4,67.6,200.3,63.3,193.7,62.8z"/>
			
				<linearGradient id="SVGID_4_" gradientUnits="userSpaceOnUse" x1="-6.9744" y1="75.5509" x2="5.0962" y2="75.5509" gradientTransform="matrix(-1 -4.700000e-03 -4.700000e-03 1 194.0854 -1.0014)">
				<stop  offset="0.1945" style="stop-color:#FABE8C"/>
				<stop  offset="1" style="stop-color:#F48655"/>
			</linearGradient>
			<path class="st9" d="M199.2,68.9c-1.3-1.9-4.9-2.1-7.2-0.8c-2.4,1.3-3.6,4.3-3.3,7.4c0.3,2.8,2.7,5.1,5.4,6.1
				c2,0.7,4.2,0.5,5.4-1.3c1-1.6,1.3-4,1.3-5.3C200.7,72.9,200.3,70.6,199.2,68.9z"/>
		</g>
		<path class="st5" d="M207.5,3.5c-16.3,7.1-15.1,28.8,3.2,33.8c12.5,3.4,43.2,2.9,57-3c29.1-12.4,15.9-31,0.3-28.5
			c-2.7,0.4-5.4,0.8-7.6,0.9C245,7.3,219.9-1.9,207.5,3.5z"/>
		<path class="st6" d="M207.2,2.5c-5.6,2.4-9.5,6.5-10.6,11.2c-1.3,5.2,0.6,11.2,2.1,14c2.1,3.9,3.4,4.7,4,4.6
			c0.9-0.1-0.9-6.4,1.7-12.3c2-4.5,9.2-8.8,19.7-9.2c11.4-0.4,25.2,3.1,37.2,1.2c6.5-1,15.1,0.8,16-3.8c1.2-6.2-24.6-6.3-28.3-6.3
			C233.7,2.2,219.6-2.9,207.2,2.5z"/>
		
			<linearGradient id="SVGID_5_" gradientUnits="userSpaceOnUse" x1="241.2377" y1="86.3167" x2="241.2377" y2="38.5717" gradientTransform="matrix(1 4.700000e-03 -4.700000e-03 1 -2.7002 -2.6145)">
			<stop  offset="0.1945" style="stop-color:#FABE8C"/>
			<stop  offset="1" style="stop-color:#E0713F"/>
		</linearGradient>
		<path class="st10" d="M267.9,58.9c-5-5.1-13.9-7.2-24.9-7.7c-1.3,0-3.8,11.3-3.8,11.3l-3.9-0.1c0,0-0.4-11.3-1.9-11.2
			c-10.7,0.4-19.8,2.4-24.7,7.4c-2.5,2.5-3.2,5-3.2,8.1c0,7,0,13.1,3.8,16.2c6.5,5.4,16.1,0.8,28.3,0.8c0.2,0,0.4,0,0.6,0
			c0.2,0,0.4,0,0.6,0c12.2,0.1,21.8,4.8,28.3-0.5c3.8-3.1,3.9-9.2,4-16.2C271,64,270.4,61.5,267.9,58.9z"/>
		<path class="st11" d="M232.5,53.3c-3,0.5-7.1,1.2-10.9,2.1c-3.3,0.8-6.3,1.8-8.4,2.4c-0.7,0.2-2.1,0.8-2.4,0.3
			c-0.1-0.1-0.1-0.3-0.2-0.4c-0.1-0.7,0.1-1.9,0.6-2.5c0.4-0.7,1.5-1.2,2.2-1.5c4.5-2.1,12.9-4.5,17.5-5.4c0.3-0.1,0.9-0.1,1.5,0.5
			c0.6,0.7,1.7,2.2,1.8,3.1C234.3,52.7,233.4,53.1,232.5,53.3z"/>
		<path class="st11" d="M243.6,53.2c3,0.6,7.1,1.3,10.9,2.3c3.3,0.9,6.3,1.9,8.3,2.5c0.7,0.2,2.1,0.9,2.4,0.3
			c0.1-0.1,0.1-0.3,0.2-0.4c0.1-0.7-0.1-1.9-0.5-2.5c-0.4-0.8-1.5-1.3-2.2-1.5c-4.5-2.1-12.8-4.7-17.4-5.6c-0.3-0.1-0.9-0.1-1.5,0.5
			c-0.7,0.7-1.8,2.1-1.9,3.1C241.7,52.6,242.7,53,243.6,53.2z"/>
		<path class="st12" d="M228.5,69.8c0,3.4-2.4,6.1-5.2,6.1c-2.9,0-5.2-2.8-5.2-6.1c0-3.4,2.4-6.1,5.2-6.1
			C226.2,63.6,228.5,66.4,228.5,69.8z"/>
		<path class="st12" d="M246,69.8c0,3.4,2.3,6.1,5.2,6.1c2.9,0,5.2-2.7,5.2-6.1c0-3.4-2.3-6.1-5.2-6.1C248.3,63.7,246,66.5,246,69.8
			z"/>
		<path class="st13" d="M253.4,68.5c0,1.1-0.9,2.1-2.1,2.1c-1.1,0-2.1-0.9-2.1-2.1s0.9-2.1,2.1-2.1
			C252.4,66.4,253.4,67.4,253.4,68.5z"/>
		<path class="st13" d="M225.4,68.2c0,1.1-0.9,2.1-2.1,2.1c-1.1,0-2.1-0.9-2.1-2.1c0-1.1,0.9-2.1,2.1-2.1S225.4,67.1,225.4,68.2z"/>
	</g>
	<g>
		<g>
			<path class="st14" d="M253.7,372c-0.4,0.1-2.6,4.8-3.3,8.4c-0.3,1.6-0.5,3.2-0.5,4.7c0,0.7,0.2,1.1,0.6,1.3
				c5.1,3,39.8,4.3,46,0.2c0.2-0.1,0.7-0.5,0.8-0.8c0.2-0.8,0-1.8-0.7-2.9c-2.2-3.3-18-10.6-22.4-11.3
				C270.1,371.1,256.2,371.2,253.7,372z"/>
			<path class="st15" d="M297.1,383.9c-0.2,0.2-0.5,0.3-0.6,0.4c-6.2,4.1-40.9,2.8-46-0.2c-0.2-0.1-0.4-0.3-0.5-0.4
				c-0.1,0.5-0.2,1.2-0.1,1.9c0.1,0.7,0.3,1.1,0.7,1.3c5.1,3,39.8,4.3,46,0.2c0.2-0.1,0.6-0.5,0.8-0.8
				C297.5,385.6,297.6,384.8,297.1,383.9z"/>
		</g>
		<g>
			<path class="st14" d="M240,372c0.4,0.1,2.6,4.8,3.3,8.4c0.3,1.6,0.5,3.2,0.5,4.7c0,0.7-0.2,1.1-0.6,1.3c-5.1,3-39.8,4.3-46,0.2
				c-0.2-0.1-0.7-0.5-0.8-0.8c-0.2-0.8,0-1.8,0.7-2.9c2.2-3.3,18-10.6,22.4-11.3C223.6,371.1,237.5,371.2,240,372z"/>
			<path class="st15" d="M196.7,383.9c0.2,0.2,0.5,0.3,0.6,0.4c6.2,4.1,40.9,2.8,46-0.2c0.2-0.1,0.4-0.3,0.5-0.4
				c0.1,0.5,0.2,1.2,0.1,1.9c-0.1,0.7-0.3,1.1-0.7,1.3c-5.1,3-39.8,4.3-46,0.2c-0.2-0.1-0.6-0.5-0.8-0.8
				C196.2,385.6,196.2,384.8,196.7,383.9z"/>
		</g>
		<path class="st16" d="M285.5,230.6c0,0-14.8,6.4-19.8,7.9c-10.8,3.1-16.2,5.4-19,7.2c-2.8-1.8-6.3,26.7,0,26.7
			c6.6,0,11.8-1.8,11.8-1.8s-2.5,20.2-4.6,49.3c-1.9,26.1-2.4,44.4-2.6,50.3c0,1.1,0.2,1.2,0.5,1.3c1.5,0.7,5.9,2.4,13.1,2.4
			c6.7,0,10.5-1,12.1-1.5c0.5-0.2,0.7-0.7,0.7-1.3c-0.1-5.3-0.2-29.5,0.8-54.7c1-25,6.2-69.6,6.4-72.5
			C285.4,237.8,285.5,230.6,285.5,230.6z"/>
		<path class="st17" d="M249.4,246.1c-2.8-1.8-10.8-4.6-21.6-7.7c-5-1.4-20.1-1.6-20.1-1.6s6,45.9,7.3,79.4
			c1,25.2,0.9,49.4,0.8,54.7c0,0.7,0.2,1.2,0.7,1.3c1.5,0.5,5.4,1.5,12.1,1.5c7.1,0,11.6-1.7,13.1-2.4c0.4-0.2,0.6-0.2,0.5-1.3
			c-0.2-5.9-0.8-24.2-2.6-50.3c-2.1-29-4.6-49.3-4.6-49.3s5.5,1.8,11.8,1.8C251.8,272.6,253.1,248.2,249.4,246.1z"/>
		<path class="st18" d="M256.7,287.2c0,0,3.8,1.8,11.7,1.3c7.4-0.5,12.3-3,12.3-3c1.8-20.3,4.1-39.8,4.2-41.7
			c0.5-6,0.6-13.2,0.6-13.2s-14.8,6.4-19.8,7.9c-10.8,3.1-16.2,5.4-19,7.2c-2.8-1.8-6.3,26.7,0,26.7c6.6,0,11.8-1.8,11.8-1.8
			S257.7,276.8,256.7,287.2z"/>
		<path class="st18" d="M236.7,286.6c-1-10.1-1.7-16-1.7-16s5.5,1.8,11.8,1.8c5.1,0.1,6.3-24.2,2.6-26.3c-2.8-1.8-10.8-4.6-21.6-7.7
			c-5-1.4-20.1-1.6-20.1-1.6s3.2,24.2,5.4,50.3c0,0,5.6,1.9,12,1.8C233.1,288.9,236.7,286.6,236.7,286.6z"/>
	</g>
	
		<linearGradient id="SVGID_6_" gradientUnits="userSpaceOnUse" x1="193.5909" y1="269.2735" x2="219.8677" y2="269.2735" gradientTransform="matrix(0.9991 -4.230000e-02 4.230000e-02 0.9991 -7.9935 3.5501)">
		<stop  offset="0.1718" style="stop-color:#FFBE8C"/>
		<stop  offset="0.8808" style="stop-color:#F2B791"/>
	</linearGradient>
	<path class="st19" d="M211.3,252.5c0,0,12.3-0.4,11.7,9.5c-0.5,6.8-1.5,10-3.1,12c-1,1.2-4.9,1.8-11.6-2.2
		c-6.8-4.1-11.6-13.5-11.8-15.1C196.3,255,211.3,252.5,211.3,252.5z"/>
	<path class="st18" d="M213,285.1c-0.2-1.5-1.4-5.7-3.2-8.8c-1.9-3.2-3.6-5.2-3.8-6.2c3.6-0.5,5.5-7.1,5.3-11.7
		c-0.2-5.4,10.3,0.3,12.2,5.6c1.3,3.4,0.8,11.4-1.2,13.8C218.7,281.9,213.2,287.7,213,285.1z"/>
	<g>
		<g>
			<path class="st20" d="M316.3,274c-2,1.1-4,2.2-4.6,3.7c-0.6,1.6-0.1,3.4,0.9,4c2.1,1.3,4.5-2.3,4.5-4
				C317.1,275.8,316.3,274,316.3,274z"/>
			<path class="st20" d="M312.9,279.3c-2,1.1-4,2.2-4.6,3.7c-0.6,1.6-0.1,3.4,0.9,4c2.1,1.3,4.5-2.3,4.5-4
				C313.7,281.1,312.9,279.3,312.9,279.3z"/>
			
				<linearGradient id="SVGID_7_" gradientUnits="userSpaceOnUse" x1="7128.5923" y1="2519.4275" x2="7152.979" y2="2519.4275" gradientTransform="matrix(-0.3775 0.926 -0.926 -0.3775 5344.9048 -5396.2568)">
				<stop  offset="0.1718" style="stop-color:#FFBE8C"/>
				<stop  offset="0.8808" style="stop-color:#F2B791"/>
			</linearGradient>
			<path class="st21" d="M324.1,273.7c5-3,2.4-12.9-0.7-17.1c-6.7-9-11.2-9.1-12.6-8.5c-1.4,0.6,5.2,15.7,5.7,17.6
				C317,267.6,321.7,275.1,324.1,273.7z"/>
			<path class="st20" d="M321.8,269.3l2.4,4.3c0,0,0.7-0.3,1-0.9c-0.6-5.4-4.8-8-5.2-8.1c-0.6-0.2-1.1-0.1-1.1-0.1L321.8,269.3z"/>
			
				<linearGradient id="SVGID_8_" gradientUnits="userSpaceOnUse" x1="7140.1152" y1="2524.3127" x2="7150.1875" y2="2509.1733" gradientTransform="matrix(-0.3775 0.926 -0.926 -0.3775 5344.9048 -5396.2568)">
				<stop  offset="0.1718" style="stop-color:#FFBE8C"/>
				<stop  offset="0.8808" style="stop-color:#F2B791"/>
			</linearGradient>
			<path class="st22" d="M319.6,284.2c4-1.7,8.6-11.7,1.1-18.7c-1.1-1-2.8-2.3-4.2,0.2C315.2,268.2,319.6,284.2,319.6,284.2z"/>
			<path class="st20" d="M319.2,277.4l1.2,6.5c0,0,0.8-0.5,0.9-0.8c1.5-6.8-2.3-11.5-2.7-11.8c-0.6-0.5-1-0.6-1-0.6L319.2,277.4z"/>
			
				<linearGradient id="SVGID_9_" gradientUnits="userSpaceOnUse" x1="7131.4849" y1="2534.3159" x2="7169.6899" y2="2511.7434" gradientTransform="matrix(-0.3775 0.926 -0.926 -0.3775 5344.9048 -5396.2568)">
				<stop  offset="0.1718" style="stop-color:#FFBE8C"/>
				<stop  offset="0.8808" style="stop-color:#F2B791"/>
			</linearGradient>
			<path class="st23" d="M307.5,248.1c-1.2,0.6-5.5,1.5-10.1,12.9c-4.3,10.6,0.5,15.9,1.1,20.7c0.4,3.2,2.8,3.5,4.8,2
				c1.4-1.1,2.8-4.6,2.5-7.3c-0.3-2.6-1.8-6.2-1.8-6.2s2.5-0.2,5.8,1.9c1.7,1.1,3.4,7.1,2.8,8.8c-0.9,2.7-3,3.9-6.2,5.4
				c-3.2,1.6-2.8,4.9-2.1,6.1c0.7,1.2,2.9,2.9,7.6,1.5c4.6-1.4,7.8-5.2,8.6-8.6c2.5-9.7-2.9-14.6-2.7-15.1
				c0.2-0.5,3.6-11.3,2.3-14.2C318.7,252.9,312,246.1,307.5,248.1z"/>
		</g>
		<g>
			<path class="st24" d="M262.2,155.3c1.9-3.9,4.9-3.3,6.7-2.5c0.9,0.4,19.5,8,36.9,40.5c12.2,22.7,16.7,51.9,16.2,60.4
				c-0.2,3.5-6,4.5-9.7,4.8c-6.1,0.5-12.2,0-12.8-1.9c-1.4-4.6,1.9-27.8-9.6-55c-7.4-17.4-24.2-32.6-26.1-35.4
				C260.9,161.7,260.7,158.4,262.2,155.3z"/>
		</g>
	</g>
	<g>
		<path class="st25" d="M280.7,216.8c-2.4-21.6-6.9-56.1-14.6-64.6c-3.6-4-19.8-3.7-25.9-3.3c0,0,0,0,0,0c-0.1,0-0.6,0-0.8,0.1
			c0,0,0,0,0,0c-6.2,0.4-22.3,1.3-25.4,5.7c-6.5,9.4-6.3,45.4-5.8,67.2c0.1,6.1,0.6,11.2,1.5,14.4c3.6,12.2,69.5,7.6,71.4-5
			C281.6,228,281.3,222.9,280.7,216.8z"/>
		<g>
			<path class="st26" d="M221.8,151.4l13.1,2.7c0.2,0,0.4-0.1,0.5-0.3l3-10.9c0.1-0.3-0.1-0.6-0.3-0.6l-13.9-2
				c-0.2,0-0.4,0.1-0.4,0.4l-2.3,10.2C221.5,151.1,221.6,151.4,221.8,151.4z"/>
			<path class="st26" d="M257.7,149l-11.9,4.5c-0.2,0.1-0.4-0.1-0.5-0.3l-4.1-10.3c-0.1-0.2,0-0.5,0.2-0.6l11.4-3.6
				c0.2-0.1,0.4,0.1,0.5,0.3l4.6,9.4C257.9,148.7,257.9,148.9,257.7,149z"/>
		</g>
		<g>
			<path class="st27" d="M254.2,204.1c-2.7-16.9-7.1-36.7-9.9-48.1c-0.2-0.9-2.1-0.9-3.7-0.7c-1.6,0.1-3.5,0.3-3.6,1.2
				c-1.2,11.7-3,31.8-3.5,49c0,0.3,0.1,1.3,0.2,1.6c1.5,3.3,7.7,10.2,10,12.3c0.2,0.2,0.7,0.4,1.1,0.4c0.3,0,0.7-0.3,0.9-0.5
				c2-2.4,7.3-10.1,8.3-13.5C254.3,205.3,254.2,204.4,254.2,204.1z"/>
			<path class="st28" d="M243.2,143.4c-0.2-0.3-0.6-0.5-1-0.4L241,143c0,0,0,0,0,0l-1.3,0.1l-1.3,0.1c0,0,0,0,0,0l-1.1,0.1
				c-0.4,0-0.8,0.2-0.9,0.6c0,0-3.5,4.7-2.8,6.8c0.8,2.4,2.9,5.9,4.7,5.8l0.5,0l3.7-0.2l0.5,0c1.8-0.1,3.4-3.9,3.9-6.4
				C247.3,147.5,243.2,143.4,243.2,143.4z"/>
		</g>
	</g>
	<g>
		<path class="st24" d="M221.6,149.8c-1.5,0.3-7.2,2.1-10.7,6.2c-1.5,1.8-6.3,17.9-7.4,50.4c-0.7,19.1,0.9,31.8-2,38.6
			c-0.9,2.2,7.1,11,10.2,14.6c5.7,6.5,4.1,22.4,5.8,22.7c18.3,1.9,25.6-4.1,26.1-4.7c0.9-1.2,4.4-7.5,4.3-14.8
			c-0.2-19.9-3.2-57.2-3.6-60.1C243.9,198.7,221.6,149.8,221.6,149.8z"/>
		<path class="st29" d="M260.3,148.5c1.5,0.2,7.3,1.6,11.1,5.5c1.6,1.7,7.8,26.8,10.9,49.7c2.5,19,5.4,36.6,7.3,47.8
			c0.4,2.3,4,12.6,5.7,16.1c1,2.1-11.4,6.9-25.7,9.3c-18.2,3.1-22.7,1-23.2,0.4c-1-1-4.5-6.6-5.3-13.5c-1.8-14.7-2.9-41.1-1.8-53.3
			c0.1-1,1.5-7.1,1.7-7.8c0.8-3.3,4.9-20,9.9-33.6C255,157.6,260.3,148.5,260.3,148.5z"/>
		<path class="st29" d="M209.6,232.1c7.1,1,16.5,1.6,23.4,1.2c1.3-0.1,0.3,9.8-0.2,12.7c-0.5,2.7-2.1,8.8-11.4,8.2
			c-6.6-0.5-11.9-2.6-12.7-8.4C208.1,242,208.6,232,209.6,232.1z"/>
		<path class="st24" d="M276.9,229.8c-7,1.5-16.4,2.7-23.2,2.8c-1.3,0,0.4,9.8,1.1,12.7c0.6,2.7,2.7,8.6,12,7.4
			c6.5-0.9,11.7-3.4,12.1-9.3C279.1,239.5,277.9,229.6,276.9,229.8z"/>
		<g>
			<path class="st24" d="M247.5,238.4c0,1.4-1.1,2.7-2.5,2.7c-1.4,0-2.7-1.1-2.7-2.5c0-1.4,1.1-2.7,2.5-2.7
				C246.3,235.8,247.5,237,247.5,238.4z"/>
			<path class="st24" d="M247.7,223c0,1.4-1.1,2.7-2.5,2.7c-1.4,0-2.7-1.1-2.7-2.5c0-1.4,1.1-2.7,2.5-2.7
				C246.4,220.4,247.6,221.6,247.7,223z"/>
		</g>
		<path class="st24" d="M220.4,154.9c-3-3.1-5.3-2-7.2-0.9c-0.9,0.5-29.5,16.9-34.6,49.2c-3.4,21.5,7.6,51.7,17,64
			c2.1,2.8,7.3-0.8,10.4-2.9c5.1-3.4,9.5-7.6,8.7-9.5c-1.8-4.5-18.8-24.4-17.1-49.7c1.5-22.3,23.1-38.5,24.3-41.6
			C223.3,160,222.8,157.4,220.4,154.9z"/>
		<path class="st29" d="M215.6,152.3c0.9-1.2,4.5-3,6-3c0.7,0,8.1,11.9,11.8,20.9c7.5,18.1,10.3,29,10.3,30.3
			c0,0.8-23.8-21.8-23.8-22.6c0.2-2,9.7-7.1,9.6-7.4c-0.1-0.4-7.4,0.6-9.3-0.7C219.3,169.5,214.6,153.7,215.6,152.3z"/>
		<path class="st24" d="M266,151c-1-1.1-2.1-1.7-3.6-1.6c-0.7,0.1-10.2,13.1-13.3,22.3c-6.2,18.6-9.9,37.3-9.7,38.6
			c0.1,0.8,24.3-30.6,24.2-31.4c-0.3-2-11.9-8.4-11.8-8.6c0.1-0.4,8.7,0.6,10.6-0.7C263.1,169,267,152.2,266,151z"/>
		<path class="st30" d="M264.8,149.8c-1-1.1-4.7-2.7-6.2-2.6c-0.7,0.1-7.5,13.3-10.6,22.5c-4.8,14.3-9,40.8-8.8,40.9
			c0.1,0.1,23-33.4,22.8-34.1c-0.3-2-10.1-6.4-10.1-6.7c0.1-0.4,7.4,0.1,9.3-1.3C262,168,265.8,151.1,264.8,149.8z"/>
	</g>
	<g>
		<path class="st5" d="M275.2,64.8c-0.8-0.3-0.4,22.1-12,32.5c-4.9,4.4-15.8,6.3-25,6.3c-9.2,0-20.1-1.9-25-6.3
			c-11.6-10.4-11.2-32.9-12-32.5c-1.4,0.6-1.3,51,8.9,67.3c5.7,9.1,16.4,12.1,28.2,12.1c12.7,0,22.4-3,28.2-12.1
			C276.6,115.8,276.6,65.4,275.2,64.8z"/>
		<path class="st31" d="M238.2,106.7c-4.5,0-12.7,0.5-12.3,0.9c2.5,2.1,6.3,5.1,12.4,5.1c7.1,0,9.6-3,12.1-5.1
			C250.9,107.2,242.1,106.7,238.2,106.7z"/>
		<g>
			<path class="st6" d="M238.5,97.6c-5.2-3-16.6,5.1-28.3,0.5c0.1,2.2,0.4,8.8,9.7,12.5c4.4,1.8,15.2,1.3,18.9-1.8
				C242.9,105.5,241.3,99.2,238.5,97.6z"/>
			<path class="st6" d="M239,97.6c5.2-3,16.6,5.1,28.3,0.5c-0.1,2.2-0.4,8.8-9.7,12.5c-4.4,1.8-15.2,1.3-18.9-1.8
				C234.5,105.5,236.2,99.2,239,97.6z"/>
		</g>
		
			<linearGradient id="SVGID_10_" gradientUnits="userSpaceOnUse" x1="243.509" y1="100.4792" x2="243.1326" y2="62.9215" gradientTransform="matrix(1 4.700000e-03 -4.700000e-03 1 -2.7002 -2.6145)">
			<stop  offset="0" style="stop-color:#F07A4A"/>
			<stop  offset="0.2436" style="stop-color:#F28555"/>
			<stop  offset="0.6734" style="stop-color:#F6A372"/>
			<stop  offset="1" style="stop-color:#FABE8C"/>
		</linearGradient>
		<path class="st32" d="M239.2,62c0.1,7.3-0.7,14.7,1,21.8c1.2,5.1,6.7,7.8,6.7,10.9c0,2.6-4.7,4.5-8.5,4.9
			c-0.9,0.1-2.9,0.3-4.2-3.8c-0.9-2.6-0.3-24.3,1.2-33.8C235.5,61,239.2,61,239.2,62z"/>
	</g>
</g>
<g>
	
		<rect x="64.6" y="152.8" transform="matrix(0.9991 -4.191475e-02 4.191475e-02 0.9991 -6.6099 3.4103)" class="st33" width="26.8" height="13"/>
	<path class="st34" d="M97.6,48.2l-23.7,5l-24-3L39.2,64.7c0,0,1.9,32.5,5,55.4c3.1,23.2,10.1,30.2,13.5,32.4
		c6.3,4.2,19.7,3.3,20.5,3.3c0.8,0,14.2-0.2,20.1-5c3.2-2.5,9.5-10.1,10.7-33.5c1.2-23.1,0.4-55.6,0.4-55.6L97.6,48.2z"/>
	
		<linearGradient id="SVGID_11_" gradientUnits="userSpaceOnUse" x1="111.674" y1="66.5208" x2="44.4797" y2="66.5208" gradientTransform="matrix(0.9991 -4.190000e-02 4.190000e-02 0.9991 -5.9676 3.4314)">
		<stop  offset="0" style="stop-color:#F49F7C"/>
		<stop  offset="0.3837" style="stop-color:#F5AA85"/>
		<stop  offset="0.936" style="stop-color:#F6C299"/>
	</linearGradient>
	<path class="st35" d="M41.2,60.3l0.5,17.4c19.6-9.8,56.1-3.9,64.5-12.5c1.2-1.2,2.3-7.2,1.8-9.1c-0.5-1.9-18,2.7-21.4,2.8
		c-3.4,0.1-27.7,1.8-30.8,1.3C52.6,59.7,41.2,60.3,41.2,60.3z"/>
	
		<linearGradient id="SVGID_12_" gradientUnits="userSpaceOnUse" x1="106.9363" y1="66.0861" x2="108.5755" y2="89.0075" gradientTransform="matrix(0.9991 -4.190000e-02 4.190000e-02 0.9991 -5.9676 3.4314)">
		<stop  offset="0" style="stop-color:#F49F7C"/>
		<stop  offset="0.3837" style="stop-color:#F5AA85"/>
		<stop  offset="0.936" style="stop-color:#F6C299"/>
	</linearGradient>
	<path class="st36" d="M109.1,59.1C109,58.9,95,69.4,98.5,68.8c0.9-0.2,2.3-0.7,2.8,2.4c0.5,3,0.8,4.1,1.5,7c0.9,3.2,2.4,7,3.3,8.2
		c1,1.2,3,2.1,4,1.5c1-0.6,1-4.6,0.1-8.5c-1-4.3-1.6-6.4-1.9-9.9C108.1,66,109.1,59.1,109.1,59.1z"/>
	<g>
		<path class="st37" d="M35.6,46.9c-19.6,4.1-8.1,42.1-1.3,46c1.6,0.9,6.2,1,6.8-1.2c3.1-12.7,2-23.4,0.7-32.1
			C40.8,53.5,36.7,46.7,35.6,46.9z"/>
		<path class="st38" d="M111.2,44c19.9,2.6,11.3,41.4,4.7,45.8c-1.5,1-6.1,1.4-6.8-0.7c-4-12.4-3.8-23.2-3.1-31.9
			C106.5,51,110.1,43.9,111.2,44z"/>
		<path class="st37" d="M109.7,50.9c16.4,1.2,11.4,33.4,4.9,37.8c-1.5,1-5.3,2.7-6,0.6c-4-12.4-3.8-23.2-3.1-31.9
			C106.1,51.2,108.7,50.9,109.7,50.9z"/>
		<path class="st37" d="M44.2,35c-14.7,7.2-12.7,27,4.3,30.9c11.6,2.7,42.4,1.9,52.2-2.6c8.9-4.1,12.7-13.2,11.9-22.1
			c-0.6-6.8-4.5-15.6-10.8-17.5c-1,6-4.4,8.5-9.9,8.9C77.8,33.8,55.4,29.5,44.2,35z"/>
		<path class="st38" d="M43.9,34.1c-5,2.4-8.4,6.3-9.3,10.7c-1,4.8,1,10.2,2.5,12.8c2.1,3.5,3.3,4.2,3.9,4c0.9-0.2-1.1-5.9,1.1-11.4
			c1.6-4.2,8.1-8.5,17.8-9.2c10.4-0.8,21.8,1.5,32.7-0.7c5.9-1.2,11.8-4.8,12.4-9.1c0.9-5.8-2.7-7.7-3.3-7.5c-0.2,0.1-0.5,1.2-1.3,2
			c-3.6,4.2-12.9,5.9-16.3,6.1C70.1,32.7,55.1,28.7,43.9,34.1z"/>
	</g>
	<g>
		<g>
			<path class="st34" d="M115.1,86.4c4-0.5,8.2,1.3,9.7,4.8c0.9,2.2,0.8,4.6,0.2,7c-0.9,3.9-2.8,7.2-5.1,9c-2.6,2.1-4.6,2-6.7,1.5
				c-3.1-0.7-5.3-3-5.9-4.4c-1.4-3.4-1.2-8.4-0.9-12C106.4,91.1,109.1,87,115.1,86.4z"/>
		</g>
		
			<linearGradient id="SVGID_13_" gradientUnits="userSpaceOnUse" x1="111.0172" y1="98.7299" x2="122.0756" y2="98.7299" gradientTransform="matrix(0.9991 -4.190000e-02 4.190000e-02 0.9991 -5.9676 3.4314)">
			<stop  offset="0" style="stop-color:#F6C299"/>
			<stop  offset="1" style="stop-color:#F48253"/>
		</linearGradient>
		<path class="st39" d="M110.3,92.1c1.1-1.8,4.4-2.1,6.6-1c2.2,1.1,3.4,3.8,3.2,6.7c-0.1,2.6-2.3,4.8-4.7,5.7c-1.8,0.7-3.9,0.6-5-1
			c-1-1.4-1.3-3.7-1.3-4.8C109,95.9,109.3,93.7,110.3,92.1z"/>
	</g>
	<g>
		<g>
			<path class="st34" d="M34.1,89.8c-4-0.1-8.1,2-9.2,5.6c-0.7,2.3-0.4,4.6,0.4,7c1.2,3.9,3.4,6.9,5.8,8.6c2.8,1.9,4.8,1.6,6.8,0.9
				c3-1,5-3.4,5.5-4.9c1.1-3.5,0.5-8.5-0.1-12.1C43.2,93.7,40.2,89.9,34.1,89.8z"/>
		</g>
		
			<linearGradient id="SVGID_14_" gradientUnits="userSpaceOnUse" x1="154.3323" y1="98.9903" x2="165.3907" y2="98.9903" gradientTransform="matrix(-0.9991 4.190000e-02 4.190000e-02 0.9991 191.0954 -5.0924)">
			<stop  offset="0" style="stop-color:#F6C299"/>
			<stop  offset="1" style="stop-color:#F48253"/>
		</linearGradient>
		<path class="st40" d="M39.4,95.1c-1.2-1.7-4.5-1.7-6.6-0.4c-2.1,1.3-3.1,4-2.7,6.9c0.4,2.6,2.7,4.6,5.2,5.3
			c1.9,0.5,3.9,0.2,4.9-1.4c0.8-1.5,1-3.8,0.9-4.9C41,98.7,40.5,96.6,39.4,95.1z"/>
	</g>
	
		<linearGradient id="SVGID_15_" gradientUnits="userSpaceOnUse" x1="77.2503" y1="107.9609" x2="77.2503" y2="70.9823" gradientTransform="matrix(0.9991 -4.190000e-02 4.190000e-02 0.9991 -5.9676 3.4314)">
		<stop  offset="0.308" style="stop-color:#F6C299"/>
		<stop  offset="1" style="stop-color:#F68953"/>
	</linearGradient>
	<path class="st41" d="M101.9,83.1c-4.8-4.5-13-6-23.1-6c-1.2,0-3,10.5-3,10.5l-3.5,0.1c0,0-0.9-10.3-2.3-10.2
		c-9.8,0.8-18,3.1-22.3,7.8c-2.2,2.4-2.7,4.7-2.6,7.6c0.3,6.4,0.6,12,4.2,14.7c6.2,4.7,14.7,0,25.9-0.5c0.2,0,0.4,0,0.6,0
		c0.2,0,0.4,0,0.6,0c11.2-0.5,20.1,3.4,25.9-1.7c3.3-3,3.2-8.6,2.9-15C104.9,87.5,104.3,85.3,101.9,83.1z"/>
	
		<ellipse transform="matrix(0.9991 -4.193768e-02 4.193768e-02 0.9991 -3.9248 2.6619)" class="st12" cx="61.5" cy="94.9" rx="4.8" ry="5.6"/>
	<path class="st42" d="M69.2,80.3c-2.7,0.4-6.5,0.8-10.1,1.5c-3,0.6-5.9,1.4-7.8,1.9c-0.7,0.2-1.9,0.7-2.2,0.1
		c-0.1-0.1-0.1-0.2-0.1-0.4c0-0.7,0.2-1.7,0.6-2.3c0.4-0.7,1.5-1.1,2.1-1.3c4.2-1.7,12-3.6,16.3-4.2c0.3,0,0.9-0.1,1.4,0.5
		c0.6,0.7,1.5,2,1.6,2.9C70.9,79.8,70.1,80.2,69.2,80.3z"/>
	<path class="st12" d="M82.3,94c0.1,3.1,2.4,5.5,5,5.4c2.6-0.1,4.7-2.7,4.5-5.8c-0.1-3.1-2.4-5.5-5-5.4C84.2,88.3,82.1,90.9,82.3,94
		z"/>
	<path class="st42" d="M79.4,81.2c2.8-0.1,6.6-0.4,10.2-0.3c3.1,0.1,6,0.3,8,0.5c0.7,0.1,2,0.3,2.2-0.3c0-0.1,0.1-0.3,0.1-0.4
		c-0.1-0.7-0.5-1.6-1-2.2c-0.5-0.6-1.6-0.8-2.2-0.9c-4.5-0.9-12.4-1.4-16.7-1.3c-0.3,0-0.9,0.1-1.3,0.8c-0.4,0.7-1.1,2.3-1,3.2
		C77.6,81,78.6,81.2,79.4,81.2z"/>
	<path class="st43" d="M59.7,124.5c-0.3-1,0.2-1.2,0.7-0.6c0.4,0.4,0.9,1,1.4,1.5c3.7,4.2,9.2,6.4,14.3,7.1
		c4.6,0.6,9.4-0.4,13.8-2.6c0.5-0.2,0.6,0.2,0.2,0.6c-2.4,2.1-8.2,4.5-14.3,3.8c-5.2-0.6-10.9-2.6-15.1-7.7
		C60.4,126,59.9,125.2,59.7,124.5z"/>
	
		<linearGradient id="SVGID_16_" gradientUnits="userSpaceOnUse" x1="79.3325" y1="120.9361" x2="78.9877" y2="86.5281" gradientTransform="matrix(0.9991 -4.190000e-02 4.190000e-02 0.9991 -5.9676 3.4314)">
		<stop  offset="0" style="stop-color:#F48253"/>
		<stop  offset="0.2381" style="stop-color:#F48C5E"/>
		<stop  offset="0.6583" style="stop-color:#F5A87C"/>
		<stop  offset="1" style="stop-color:#F6C299"/>
	</linearGradient>
	<path class="st44" d="M75.8,87.1c0.4,6.7,0,13.5,1.8,19.9c1.3,4.6,6.5,6.9,6.6,9.7c0.1,2.4-4.1,4.3-7.6,4.9c-0.9,0.1-2.6,0.4-4-3.3
		c-0.9-2.4-1.3-22.2-0.3-31C72.3,86.4,75.7,86.2,75.8,87.1z"/>
	<path class="st45" d="M88.9,92.5c0,1-0.8,1.9-1.8,2c-1,0-1.9-0.8-2-1.8c0-1,0.8-1.9,1.8-2C88,90.6,88.8,91.4,88.9,92.5z"/>
	<path class="st45" d="M63.3,93.4c0,1-0.8,1.9-1.8,2c-1,0-1.9-0.8-2-1.8c0-1,0.8-1.9,1.8-2C62.4,91.5,63.3,92.4,63.3,93.4z"/>
</g>
<g>
	<g>
		<path class="st46" d="M87.8,371c-0.4,0.1-2.4,4.4-3,7.7c-0.3,1.4-0.5,2.9-0.5,4.3c0,0.6,0.2,1,0.5,1.2c4.7,2.7,36.4,3.9,42.1,0.2
			c0.2-0.1,0.6-0.4,0.7-0.7c0.1-0.7,0-1.6-0.6-2.6c-2-3.1-16.4-9.7-20.5-10.3C102.8,370.2,90.1,370.3,87.8,371z"/>
		<path class="st47" d="M127.4,381.9c-0.2,0.1-0.4,0.3-0.5,0.4c-5.7,3.7-37.4,2.5-42.1-0.2c-0.1-0.1-0.4-0.2-0.5-0.4
			c-0.1,0.5-0.2,1.1-0.1,1.7c0.1,0.6,0.3,1,0.6,1.2c4.7,2.7,36.4,3.9,42.1,0.2c0.2-0.1,0.6-0.4,0.7-0.7
			C127.8,383.5,127.8,382.7,127.4,381.9z"/>
		<g>
			<path class="st48" d="M110.4,371.9c-0.9,0.8-2.3,4.7-2.2,4.7c0.2,0.3,1.7,0.7,2.1,0.7c0.1,0,0.8-3.3,1.9-4.6
				C112.6,372,110.8,371.5,110.4,371.9z"/>
			<path class="st48" d="M110.8,376.9c0,0.9-0.7,1.6-1.6,1.6s-1.6-0.7-1.6-1.6c0-0.9,0.7-1.6,1.6-1.6S110.8,376,110.8,376.9z"/>
		</g>
		<g>
			<path class="st48" d="M105.7,370c-0.9,0.8-2.3,4.7-2.2,4.7c0.2,0.3,1.7,0.7,2.1,0.7c0.1,0,0.8-3.3,1.9-4.6
				C107.9,370.2,106.1,369.7,105.7,370z"/>
			<path class="st48" d="M106,375.1c0,0.9-0.7,1.6-1.6,1.6c-0.9,0-1.6-0.7-1.6-1.6c0-0.9,0.7-1.6,1.6-1.6
				C105.3,373.5,106,374.2,106,375.1z"/>
		</g>
		<g>
			<path class="st48" d="M114.7,373.6c-0.9,0.8-2.1,4.4-2,4.5c0.2,0.3,1.7,0.7,2.1,0.7c0.1,0,0.7-3.1,1.7-4.4
				C116.9,373.8,115.1,373.3,114.7,373.6z"/>
			<path class="st48" d="M115.4,378c0,0.9-0.7,1.6-1.6,1.6c-0.9,0-1.6-0.7-1.6-1.6c0-0.9,0.7-1.6,1.6-1.6
				C114.7,376.4,115.4,377.1,115.4,378z"/>
		</g>
	</g>
	<g>
		<path class="st46" d="M75.2,371c0.4,0.1,2.4,4.4,3,7.7c0.3,1.4,0.5,2.9,0.5,4.3c0,0.6-0.2,1-0.5,1.2c-4.7,2.7-36.4,3.9-42.1,0.2
			c-0.2-0.1-0.6-0.4-0.7-0.7c-0.1-0.7,0-1.6,0.6-2.6c2-3.1,16.4-9.7,20.5-10.3C60.2,370.2,72.9,370.3,75.2,371z"/>
		<path class="st47" d="M35.6,381.9c0.2,0.1,0.4,0.3,0.5,0.4c5.7,3.7,37.4,2.5,42.1-0.2c0.1-0.1,0.4-0.2,0.5-0.4
			c0.1,0.5,0.2,1.1,0.1,1.7c-0.1,0.6-0.3,1-0.6,1.2c-4.7,2.7-36.4,3.9-42.1,0.2c-0.2-0.1-0.6-0.4-0.7-0.7
			C35.2,383.5,35.2,382.7,35.6,381.9z"/>
		<g>
			<path class="st48" d="M52.6,371.9c0.9,0.8,2.3,4.7,2.2,4.7c-0.2,0.3-1.7,0.7-2.1,0.7c-0.1,0-0.8-3.3-1.9-4.6
				C50.4,372,52.2,371.5,52.6,371.9z"/>
			<path class="st48" d="M52.2,376.9c0,0.9,0.7,1.6,1.6,1.6c0.9,0,1.6-0.7,1.6-1.6c0-0.9-0.7-1.6-1.6-1.6
				C52.9,375.3,52.2,376,52.2,376.9z"/>
		</g>
		<g>
			<path class="st48" d="M57.3,370c0.9,0.8,2.3,4.7,2.2,4.7c-0.2,0.3-1.7,0.7-2.1,0.7c-0.1,0-0.8-3.3-1.9-4.6
				C55.1,370.2,56.9,369.7,57.3,370z"/>
			<path class="st48" d="M56.9,375.1c0,0.9,0.7,1.6,1.6,1.6c0.9,0,1.6-0.7,1.6-1.6c0-0.9-0.7-1.6-1.6-1.6
				C57.7,373.5,56.9,374.2,56.9,375.1z"/>
		</g>
		<g>
			<path class="st48" d="M48.3,373.6c0.9,0.8,2.1,4.4,2,4.5c-0.2,0.3-1.7,0.7-2.1,0.7c-0.1,0-0.7-3.1-1.7-4.4
				C46.1,373.8,47.9,373.3,48.3,373.6z"/>
			<path class="st48" d="M47.6,378c0,0.9,0.7,1.6,1.6,1.6s1.6-0.7,1.6-1.6c0-0.9-0.7-1.6-1.6-1.6S47.6,377.1,47.6,378z"/>
		</g>
	</g>
	<linearGradient id="SVGID_17_" gradientUnits="userSpaceOnUse" x1="33.4667" y1="237.0841" x2="54.0802" y2="237.0841">
		<stop  offset="0" style="stop-color:#F4BC95"/>
		<stop  offset="1" style="stop-color:#F4BC95"/>
	</linearGradient>
	<path class="st49" d="M48.1,222.3c-0.6-0.3-3.4,0-4.5,0.4c-3.2,1.2-7.3,5.6-8.9,10.3c-1.9,5.7-1.2,9.2-0.3,11.7
		c1.1,2.9,4.9,6.5,8.9,7.1c3.8,0.6,7.2-0.4,9.3-1.7c2.1-1.2,1.6-13.9,0.6-16.1C52.2,232,48.1,222.3,48.1,222.3z"/>
	
		<linearGradient id="SVGID_18_" gradientUnits="userSpaceOnUse" x1="175.5612" y1="164.583" x2="213.3563" y2="164.583" gradientTransform="matrix(0.9995 -3.220000e-02 3.220000e-02 0.9995 -4.3016 2.5951)">
		<stop  offset="0" style="stop-color:#F4BC95"/>
		<stop  offset="1" style="stop-color:#F4BC95"/>
	</linearGradient>
	<path class="st50" d="M183.9,150.9c5.7-3.7,12.8-3.3,14.3-3c4.3,0.8,5.7,3.2,7.2,4.9c2.2,2.3,4.3,4,7.7,6.6c1.4,1,1.9,2.7-1,4
		c-1.4,0.6-2.7,0.7-3.6,0.5c-1.4-0.2-4-1.5-5.2-2.2c-1.4-0.8-5.2-4.2-5.9-3c-0.8,1.5-5.6,7.4-7.2,9.6c-1,1.4-9.7,8.1-11.4,5.5
		C174.1,166.2,177.2,155.3,183.9,150.9z"/>
	<path class="st51" d="M61.6,168.7c0.2-0.5-22.7,2.9-39.3,13C7.6,190.6,0.1,201.9,0,207c-0.1,4.8,1.8,14.1,11,25.2
		c7.2,8.7,20.7,15.7,23.1,15.8s5.1-14.6,3.7-19.3c-0.6-2-5.2-3.1-10.3-9c-5.1-5.8-7-10.4-6.9-12.8c0.1-3.1,5.2-9.1,12.1-14.1
		c9.5-6.8,26.2-10.9,27.5-11.5S61.6,168.7,61.6,168.7z"/>
	<path class="st52" d="M44.8,172.1c0,0-2.1,3.8-2.6,7.2c-0.8,5.2-0.4,8.5-0.4,8.5c7.7-3.2,17.6-6.1,18.4-6.5
		c1.2-0.6,1.4-12.7,1.4-12.7C61.7,168.4,54.2,169.3,44.8,172.1z"/>
	<g>
		<path class="st16" d="M116.8,241.8c0,0-13.5,5.9-18.1,7.2c-9.9,2.8-14.8,5-17.4,6.6c-2.5-1.6-5.7,27.2,0,27.2
			c6,0,10.7-1.7,10.7-1.7s-2.3,15.8-4.2,42.3c-1.7,23.8-2.2,40.6-2.4,46c0,1,0.1,1.1,0.5,1.2c1.4,0.6,5.4,2.2,11.9,2.2
			c6.1,0,9.6-0.9,11-1.4c0.5-0.2,0.7-0.6,0.7-1.2c-0.1-4.8-0.2-27,0.8-50c0.9-22.9,5.7-63.6,5.9-66.3
			C116.7,248.3,116.8,241.8,116.8,241.8z"/>
		<path class="st17" d="M83.8,256c-2.5-1.6-9.9-4.2-19.7-7c-4.6-1.3-18.3-1.4-18.3-1.4s5.5,41.9,6.7,72.6c0.9,23,0.9,45.1,0.8,50
			c0,0.6,0.2,1.1,0.7,1.2c1.4,0.5,4.9,1.4,11,1.4c6.5,0,10.6-1.6,11.9-2.2c0.3-0.2,0.5-0.2,0.5-1.2c-0.2-5.4-0.7-22.2-2.4-46
			c-1.9-26.5-4.2-42.3-4.2-42.3s5,1.7,10.7,1.7C86,282.9,87.2,257.9,83.8,256z"/>
		<g>
			<path class="st53" d="M49.5,281.4l-0.1-1.3c11.4-7.9,8.6-24.5,8.6-24.6l1.7,0.5C59.7,256.2,61.5,273.1,49.5,281.4z"/>
		</g>
		<g>
			<path class="st17" d="M113.5,280.8l0.1-1.3c-11.4-7.9-8.6-25.8-8.6-25.9l-2.2,0.8C102.8,254.6,101.5,272.6,113.5,280.8z"/>
		</g>
	</g>
	<path class="st51" d="M101.7,168.8c11.5,7.6,25.9,9.4,36.2,7.9c18.9-2.6,33.9-12.3,37-15.7c3.3-3.5,12.2,12.9,11.1,17.6
		c-1.3,5.3-27.2,15.7-43.2,15.5c-13.1-0.1-29.8-2.5-37.5-9.1c-2.2-1.9-4.4-5.8-4.4-6.6C100.9,177.8,100.2,167.9,101.7,168.8z"/>
	<path class="st52" d="M117.6,175.6c-5.5-1.3-11-3.5-15.9-6.8c-1.4-1-0.8,9-0.8,9.7c0,0.7,2.1,4.6,4.4,6.6c3.6,3.1,9.2,5.3,15.5,6.7
		c0,0,0-4.3-0.8-8.9C119,177.6,117.6,175.6,117.6,175.6z"/>
	<path class="st54" d="M117.1,229.4c-1.5-19.8-8.2-52.4-15-60.3c-3.2-3.8-7-3.2-11-3.2c-1.5,0-7,0.1-12.6,0.3c0,0,0,0,0,0
		c-0.1,0-0.6,0-0.7,0c0,0,0,0,0,0c-5.7,0.2-11.1,0.4-12.6,0.5c-3.9,0.3-7.8-0.1-10.7,3.9c-6.2,8.4-10.8,41.3-11.1,61.2
		c-0.1,5.6,0.2,10.3,0.9,13.2c2.9,11.3,25.1,13.3,36.6,13c0,0,0.4,0,0.5,0c11.5-0.5,33.5-3.9,35.7-15.4
		C117.6,239.7,117.5,235,117.1,229.4z"/>
	<g>
		<path class="st26" d="M60.3,167.5l13.1,3.1c0.2,0,0.4-0.1,0.5-0.3l3.2-9.3c0.1-0.2-0.1-0.5-0.3-0.6l-13.7-2.8
			c-0.2,0-0.4,0.1-0.5,0.3l-2.6,9C59.9,167.2,60.1,167.5,60.3,167.5z"/>
		<path class="st26" d="M96.8,166.4l-12.9,3.9c-0.2,0.1-0.4,0-0.5-0.2l-3.8-9c-0.1-0.2,0-0.5,0.3-0.6l13.5-3.7
			c0.2-0.1,0.4,0.1,0.5,0.3l3.2,8.8C97.1,166.1,97,166.3,96.8,166.4z"/>
	</g>
	<g>
		<path class="st55" d="M77.5,258.2c-0.4,0-0.6,0-0.6-0.2c0.1-2.5-0.9-9.3-1-10c-0.9-6.3-1.2-16.4-0.5-22.7l1.8-0.5
			c-0.9,6.4-1.1,16.9-0.2,23.1c0.1,0.7,1.4,7.5,1.4,10.1C78.4,258.1,77.7,258.2,77.5,258.2z"/>
	</g>
	<path class="st55" d="M83.1,228.4c0,1.1-0.9,2.1-2,2.1c-1.2,0-2.1-0.9-2.1-2c0-1.2,0.9-2.1,2-2.1C82.1,226.3,83.1,227.2,83.1,228.4
		z"/>
	<path class="st55" d="M84.2,254.5c0,1.1-0.9,2.1-2,2.1c-1.2,0-2.1-0.9-2.1-2c0-1.2,0.9-2.1,2-2.1C83.2,252.5,84.1,253.4,84.2,254.5
		z"/>
	<path class="st55" d="M82.3,240.5c0,1.1-0.9,2.1-2,2.1c-1.2,0-2.1-0.9-2.1-2c0-1.1,0.9-2.1,2-2.1C81.3,238.5,82.3,239.4,82.3,240.5
		z"/>
	<g>
		<path class="st46" d="M89.6,216.9c-1.9-15.6-5.4-33.7-7.6-44.2c-0.2-0.8-1.9-0.9-3.3-0.8c-1.4,0-3.2,0.2-3.3,1
			c-1.5,10.6-3.8,29-4.7,44.6c0,0.3,0,1.1,0.2,1.5c1.2,3.1,6.7,9.5,8.8,11.6c0.2,0.2,0.6,0.4,1,0.4c0.3,0,0.7-0.3,0.9-0.5
			c1.9-2.1,7-9,8-12.1C89.7,218.1,89.6,217.2,89.6,216.9z"/>
		
			<linearGradient id="SVGID_19_" gradientUnits="userSpaceOnUse" x1="77.52" y1="173.2425" x2="77.52" y2="160.337" gradientTransform="matrix(0.9995 -3.220000e-02 3.220000e-02 0.9995 -4.3016 2.5951)">
			<stop  offset="0" style="stop-color:#57897C"/>
			<stop  offset="0.457" style="stop-color:#85A9A0"/>
		</linearGradient>
		<path class="st56" d="M81.4,161.1c-0.2-0.3-0.5-0.4-0.9-0.4l-1,0c0,0,0,0,0,0l-1.2,0l-1.2,0c0,0,0,0,0,0l-1,0
			c-0.4,0-0.7,0.2-0.9,0.5c0,0-3.4,4.2-2.8,6.1c0.7,2.2,2.5,5.5,4.1,5.4l0.4,0l3.4-0.1l0.4,0c1.6-0.1,3.2-3.5,3.7-5.7
			C85.1,165.1,81.4,161.1,81.4,161.1z"/>
	</g>
	<g>
		<path class="st55" d="M53.1,187.8c0.3-0.4,16.5-0.2,16.7,0.1c0.2,0.4-0.3,15.4-0.8,16.7c-0.6,1.5-4.3,4.7-9.1,4.4
			c-4.7-0.2-7.7-3.2-8-4.8C51.5,202.8,52.9,188,53.1,187.8z"/>
		<path class="st55" d="M107,186.1c-0.4-0.4-16.5,0.9-16.6,1.2c-0.2,0.4,1.3,15.4,1.9,16.6c0.7,1.5,4.6,4.4,9.4,3.8
			c4.7-0.6,7.4-3.7,7.7-5.3C109.6,200.9,107.2,186.3,107,186.1z"/>
	</g>
</g>
</svg>
