<!-- Generator: Adobe Illustrator 22.0.1, SVG Export Plug-In  -->
<svg version="1.1"
	 xmlns="http://www.w3.org/2000/svg" xmlns:xlink="http://www.w3.org/1999/xlink" xmlns:a="http://ns.adobe.com/AdobeSVGViewerExtensions/3.0/"
	 x="0px" y="0px" width="136.4px" height="382.5px" viewBox="0 0 136.4 382.5" style="enable-background:new 0 0 136.4 382.5;"
	 xml:space="preserve">
<style type="text/css">
	.st0{fill:#EDAD81;}
	.st1{fill:#EEBD90;}
	.st2{fill:url(#SVGID_1_);}
	.st3{fill:url(#SVGID_2_);}
	.st4{fill:url(#SVGID_3_);}
	.st5{fill:#603125;}
	.st6{fill:#845031;}
	.st7{fill:url(#SVGID_4_);}
	.st8{fill:#FFFFFF;}
	.st9{fill:#2D1814;}
	.st10{fill:#722A17;}
	.st11{fill:url(#SVGID_5_);}
	.st12{fill:#E38977;}
	.st13{fill:#DD5152;}
	.st14{fill:#F8F9EF;}
	.st15{fill:url(#SVGID_6_);}
	.st16{fill:#ED9E89;}
	.st17{fill:url(#SVGID_7_);}
	.st18{fill:url(#SVGID_8_);}
	.st19{fill:url(#SVGID_9_);}
	.st20{fill:url(#SVGID_10_);}
	.st21{fill:#4799BA;}
	.st22{fill:#3E8BAD;}
	.st23{fill:#774401;}
	.st24{fill:#38230A;}
	.st25{fill:#996B33;}
	.st26{fill:#CE7C05;}
	.st27{fill:#E88F00;}
	.st28{fill:#29A6CC;}
	.st29{fill:#2DB4D3;}
	.st30{fill:#FCA235;}
	.st31{fill:#AF5B10;}
	.st32{fill:#BECACC;}
	.st33{fill:#91490F;}
	.st34{fill:#9B4E0E;}
	.st35{fill:#D8C987;}
	.st36{fill:#CCB862;}
	.st37{fill:#B7A041;}
	.st38{fill:#CEBB6A;}
	.st39{fill:#BAA654;}
	.st40{fill:#E5DA9C;}
	.st41{fill:url(#SVGID_11_);}
	.st42{fill:#FFDA00;}
	.st43{fill:#F7C800;}
	.st44{fill:#F2AD00;}
	.st45{fill:#F4BA00;}
	.st46{fill:url(#SVGID_12_);}
	.st47{fill:url(#SVGID_13_);}
	.st48{fill:url(#SVGID_14_);}
	.st49{fill:url(#SVGID_15_);}
	.st50{fill:url(#SVGID_16_);}
	.st51{fill:url(#SVGID_17_);}
	.st52{fill:url(#SVGID_18_);}
	.st53{fill:url(#SVGID_19_);}
	.st54{fill:url(#SVGID_20_);}
	.st55{fill:url(#SVGID_21_);}
	.st56{fill:url(#SVGID_22_);}
</style>
<defs>
</defs>
<g>
	<g>
		<path class="st0" d="M83.6,150.3l-1.3,10c0,0-6,4-11.8,4c-7-0.1-13.3-3.3-13.3-3.3l-1-13.1c0,0,10.3,2.6,18.8,3
			C77.2,150.8,83.6,150.3,83.6,150.3z"/>
		<path class="st1" d="M40,53.3c-1,5.4-5.1,21.1-6.2,30.4c-1.8,15.3-8.5,49,22,65.2c2.7,1.4,11.6,4.7,18.3,4.7
			c5.4,0,11-1.2,15.9-7.8c6-8.2,11-18.9,15.2-30.8c2.4-6.7,5.7-25.3,6.7-30.7c1-5.4-7-26.8-8.8-31.1C101.3,49,78.8,42.6,74.5,40
			C70.2,37.4,40,53.3,40,53.3z"/>
		
			<linearGradient id="SVGID_1_" gradientUnits="userSpaceOnUse" x1="6.5914" y1="371.5886" x2="6.2516" y2="342.8975" gradientTransform="matrix(-0.9919 -0.1271 -0.1271 0.9919 107.7671 -269.4738)">
			<stop  offset="0.3159" style="stop-color:#EEBD90"/>
			<stop  offset="1" style="stop-color:#F28455"/>
		</linearGradient>
		<path class="st2" d="M59.5,71.6c5.9-0.8,10,2.8,12,4.4c1.7,1.4,4.3,5.3,5.4,9.7c0.9,3.6-1.4,12.4-3.7,15.5c-2.1,2.9-15-2-20.7-2.9
			c-5.4-0.9-16.3-1.3-17.6-2c-1.9-1.1-1.3-7.5-0.7-11.7c0.5-4.2,1.7-9.5,4.1-11.7c2.8-2.7,8.3-4.5,11.8-2c2,1.4,1.7,3.2,1.3,5.8
			c-0.1,0.9,3.6,1.3,3.6,0.8C55.4,74.1,56.6,72,59.5,71.6z"/>
		
			<linearGradient id="SVGID_2_" gradientUnits="userSpaceOnUse" x1="-28.3377" y1="340.09" x2="26.7786" y2="340.09" gradientTransform="matrix(-0.9919 -0.1271 -0.1271 0.9919 107.7671 -269.4738)">
			<stop  offset="0" style="stop-color:#EF9A7C"/>
			<stop  offset="0.3837" style="stop-color:#EFA582"/>
			<stop  offset="0.936" style="stop-color:#EEBD90"/>
		</linearGradient>
		<path class="st3" d="M91.6,52.9l0.5,12.8l-0.5,14.1l-0.9,4.5c0,0-2.4,4.3-3.9,4.7c-0.5,0.1-3.4-6.5-3.5-13.1
			c0-3.8,0.4-9.9-0.7-10.3c-1-0.4-10,0.1-17.6-0.3c-6.2-0.3-13.6-1.1-16.8-1.9c-2.2-0.6-7.3-2.1-8.8-3.9c-0.8-1-0.4-4.1-0.4-4.1
			L91.6,52.9z"/>
		
			<linearGradient id="SVGID_3_" gradientUnits="userSpaceOnUse" x1="-46.4252" y1="382.908" x2="-36.0998" y2="382.908" gradientTransform="matrix(-0.9919 -0.1271 -0.1271 0.9919 107.7671 -269.4738)">
			<stop  offset="0" style="stop-color:#EF9A7C"/>
			<stop  offset="0.3837" style="stop-color:#EFA582"/>
			<stop  offset="0.936" style="stop-color:#EEBD90"/>
		</linearGradient>
		<path class="st4" d="M97.2,109.5l-1.7,0.3c0,0,0.3,2.9,0.6,3.9c1.6,5.5,5.1,9.6,6.8,6.9c1.2-1.9,2.5-6.7,2.5-6.7l-3.7-3.4
			L97.2,109.5z"/>
		<path class="st5" d="M89.6,58.9c-5.1,1.7-14.6,2.7-25.1,2.5C59,61.3,49.3,61,40.4,57.9c-12-4.2-15-12-15-20.9
			c-0.1-10.4,5.7-17.4,7.9-15.2c2.1,2.1,4.5,2.4,5.1,2.4c0.2-1.9,4.3-5.5,5.9-4.3c2.1,1.6,3.7,2.1,6,2.5c0.2-1,3.2-2.8,4.3-1.9
			c1.2,0.9,3.8,2.7,5.4,2.8c4,0.3,7.1,0.6,11.8,1.1c7.7,0.8,15.5,1.9,20.9,4c5.6,2.1,12.8,4.4,17.2,10.3c2.1,2.8,1.6,4.1,1.5,4.9
			c0,0.2,2.6-1,4.9,2.2c2.5,3.5,4.6,7.6,6,12.3c5.9,19.1,1.3,33.2-1.9,40.8c-3.6,8.6-9.1,16.3-13,17.9c-3.1,1.3-10.7-4.6-13.5-9.3
			c-3.2-5.3-6.9-13.2-7.6-22.5c-0.6-7.6-0.2-19.7,3.9-25.5C91.2,58,90.7,58.5,89.6,58.9z"/>
		<path class="st6" d="M96.6,36.4c-8.8-3.4-21.6-6.3-32.9-7.7c-11.8-1.4-8.7-6.1,6.9-5c9.1,0.6,17.5,2.2,23.1,4.2
			c4.2,1.5,9.1,4,13,7.4C112.6,40.5,106.8,40.4,96.6,36.4z"/>
		<g>
			<g>
				<path class="st1" d="M95,87.1c4.2,0.2,8.3,2.9,9.1,6.7c0.5,2.5,0,4.9-1,7.3c-1.7,3.9-4.1,6.9-6.9,8.4c-3,1.7-5.1,1.2-7.2,0.4
					c-3.1-1.3-5-4-5.3-5.6c-0.9-3.8,0.3-8.9,1.2-12.6C85.2,90.4,88.7,86.7,95,87.1z"/>
			</g>
			
				<linearGradient id="SVGID_4_" gradientUnits="userSpaceOnUse" x1="-250.8907" y1="366.4347" x2="-239.2995" y2="366.4347" gradientTransform="matrix(0.9919 0.1271 -0.1271 0.9919 382.2834 -234.1384)">
				<stop  offset="0" style="stop-color:#EEBD90"/>
				<stop  offset="1" style="stop-color:#EB7F51"/>
			</linearGradient>
			<path class="st7" d="M89,92.2c1.4-1.7,4.9-1.4,7,0.1c2.1,1.5,2.8,4.5,2.2,7.5c-0.6,2.7-3.2,4.6-5.9,5.1c-2,0.4-4.1-0.1-4.9-1.9
				c-0.8-1.7-0.7-4-0.5-5.2C87.1,95.8,87.8,93.7,89,92.2z"/>
		</g>
		<g>
			<path class="st8" d="M47.2,85.5c-0.4,3.2-2.8,5.6-5.3,5.2s-4.2-3.2-3.8-6.4c0.4-3.2,2.8-5.6,5.3-5.2
				C45.9,79.4,47.6,82.2,47.2,85.5z"/>
			<path class="st9" d="M38.7,84.3c-0.1,1.1,0.6,2.1,1.6,2.2c1,0.1,1.9-0.7,2.1-1.7c0.1-1.1-0.6-2.1-1.6-2.2
				C39.7,82.5,38.8,83.2,38.7,84.3z"/>
		</g>
		<g>
			<path class="st8" d="M65.5,87.9c-0.4,3.2-2.8,5.6-5.3,5.2c-2.5-0.3-4.2-3.2-3.8-6.4c0.4-3.2,2.8-5.6,5.3-5.2
				C64.2,81.8,65.9,84.7,65.5,87.9z"/>
			<ellipse transform="matrix(0.1271 -0.9919 0.9919 0.1271 -34.9478 134.3102)" class="st9" cx="58.8" cy="87" rx="2" ry="1.8"/>
		</g>
		<path class="st10" d="M70.5,75.4c-2.1-1.3-4-2.5-6.6-3.2c-2.8-0.7-4.6-0.6-6.1-0.5c-0.6,0-2.3,0.5-2.2-0.1c0-0.1,0-0.3,0.1-0.4
			c0.3-0.6,0.8-1.2,1.4-1.6c0.6-0.4,1.6-0.7,2.1-0.8c4.5-0.7,10.1,0.3,12.8,2.1c0.2,0.1,0.6,0.4,0.6,1.1c0,0.8,0,2.2-0.4,2.9
			C71.9,75.5,71.1,75.7,70.5,75.4z"/>
		<path class="st6" d="M123.8,68.5c-0.6,0.1-3.8-11.5-12.2-14c-5-1.5-9.3-1.3-14.9,3.8c-1.6,1.5-7.1,8.1-7.7,8.1
			c-1.1,0-1.2-1.4-0.4-3.4c3.1-7.9,9.6-13,10.6-13.8c9.3-7.3,14.3-6,16-4.6c0.6,0.5,3.8,4.3,6.2,9.9c0.9,2.2,2.3,7.6,2.6,10
			C124,65.3,124.7,68.4,123.8,68.5z"/>
		
			<linearGradient id="SVGID_5_" gradientUnits="userSpaceOnUse" x1="-0.252" y1="389.538" x2="-0.5906" y2="355.7483" gradientTransform="matrix(-0.9831 -0.1832 -0.1832 0.9831 115.4951 -274.6197)">
			<stop  offset="0" style="stop-color:#EC7F52"/>
			<stop  offset="0.2554" style="stop-color:#ED8A5D"/>
			<stop  offset="0.7063" style="stop-color:#EFA77B"/>
			<stop  offset="1" style="stop-color:#F0BE92"/>
		</linearGradient>
		<path class="st11" d="M51.5,75.8c-1.3,6.4-2.2,14.3-4.8,20.2c-2.2,5.1-6.9,3.3-7.4,5.7c-1.4,6.5,1.7,6.8,6.7,7.3
			c2.7,0.2,4.2-1.4,5.2-3.4c1-2.2,3.3-20.3,3.9-29.1C55.1,75.6,51.7,75,51.5,75.8z"/>
		<path class="st10" d="M39.3,71.4c2.1-0.7,4.1-1.4,6.3-1.4c2.4,0,3.7,0.5,4.8,0.9c0.4,0.1,1.5,1,1.7,0.4c0-0.1,0.1-0.2,0.1-0.4
			c0-0.6-0.1-1.3-0.4-1.7c-0.3-0.5-0.9-1-1.3-1.2c-3.1-1.7-7.7-2-10.5-1c-0.2,0.1-0.6,0.2-0.9,0.8c-0.3,0.7-0.9,1.9-0.9,2.7
			C38.2,71.3,38.8,71.6,39.3,71.4z"/>
		<g>
			<path class="st12" d="M75.5,112.6c-2.2,0.1-6.9,0.5-17.3,2.2c-9.3,1.5-12.4,2.1-13.9,2.5c-1,0.2-1.2,0.4-1.1,1.1
				c1.1,5.7,7.3,15.5,16.8,14.2c13.4-1.8,16.2-17.1,15.9-19.6C75.8,112.8,75.8,112.6,75.5,112.6z"/>
			<path class="st13" d="M59.9,132.6c3.6-0.5,6.4-1.9,8.5-3.8c-2-1.1-5.7-2.4-8.3-1.8c-3.7,0.9-6.3,3.3-7.5,4.4
				C54.9,132.5,57.3,133,59.9,132.6z"/>
			<path class="st14" d="M75.5,112.6c-2.2,0.1-6.9,0.5-17.3,2.2c-6.2,1-9.6,1.6-11.7,2l-0.4,0.1c0,0,0.3,4.3,1.3,4.9
				c5.5,3.3,27.8-4.2,27.9-4.7c0.5-1.9,0.6-3.5,0.5-4.1C75.8,112.8,75.8,112.6,75.5,112.6z"/>
		</g>
	</g>
	<g>
		<g>
			
				<linearGradient id="SVGID_6_" gradientUnits="userSpaceOnUse" x1="285.6876" y1="197.3031" x2="317.3663" y2="154.0526" gradientTransform="matrix(0.3454 -0.9385 -0.9385 -0.3454 96.4148 588.7355)">
				<stop  offset="0" style="stop-color:#EFB990"/>
				<stop  offset="0.861" style="stop-color:#FAC5AD"/>
			</linearGradient>
			<path class="st15" d="M27.2,236.1c6.3,0.7,12.7,4.6,14.4,4.4c11-1.2,13-5.9,14.7-6.4c0.8-0.3,1.7-0.1,2.7,0.5
				c1.1,0.7,2.2,2.3,2.5,4.2c0.2,1.6-0.2,4.6-2.4,6.9c-1.6,1.7-6.6,4.2-16.1,5.3c-1.4,0.2-3.7,4.4-3.7,4.4s-19.1,8.4-24.9,5.8
				c-1.6-0.7-3.7-4.1-3.9-5.8c-0.9-8,1.8-12.5,5.5-15.8C19.4,236.6,24.5,235.8,27.2,236.1z"/>
			<path class="st16" d="M10.7,257.3c-0.2-0.5-0.3-1.8,0.1-2.5c2-3.7,4.5-3.3,4.9-3.3c1.4,0.1,2.3,0.8,2.7,1.5
				c0.4,0.6-1.4,3.1-2.5,3.6C14.2,257.4,10.9,257.8,10.7,257.3z"/>
			
				<linearGradient id="SVGID_7_" gradientUnits="userSpaceOnUse" x1="271.6226" y1="188.1682" x2="288.0091" y2="188.1682" gradientTransform="matrix(0.3454 -0.9385 -0.9385 -0.3454 96.4148 588.7355)">
				<stop  offset="0" style="stop-color:#F0BA91"/>
				<stop  offset="1" style="stop-color:#F0BA91"/>
			</linearGradient>
			<path class="st17" d="M22.6,265.2c-0.1,1-1,3.4-3.1,4.5c-2.2,1.1-4.7-0.4-5.4-1.2c-1.5-1.5-4.8-8.8-3.5-12.1
				c0.9-2.4,2.4-3.5,3.7-3.9c2.7-0.8,4.6,1.4,5.2,2.1C21.2,256.6,22.8,262.4,22.6,265.2z"/>
			<path class="st16" d="M21.3,269.8c0,0-1.9,0.2-2.6-0.5c-1.1-1-1.8-3.2-2.4-4.6c-0.5-1.4-1-4.3-0.9-5.8c0.1-1.6,1.3-4.5,2.4-5.7
				c0.9-1,2.9-2.7,5.5-2.3c2,0.3,2.9,1.5,3,2.3c0.1,1.2-1.2,6.3-1.2,6.3L21.3,269.8z"/>
			
				<linearGradient id="SVGID_8_" gradientUnits="userSpaceOnUse" x1="270.7387" y1="180.9951" x2="291.2701" y2="180.9951" gradientTransform="matrix(0.3454 -0.9385 -0.9385 -0.3454 96.4148 588.7355)">
				<stop  offset="0" style="stop-color:#F0BA91"/>
				<stop  offset="1" style="stop-color:#F0BA91"/>
			</linearGradient>
			<path class="st18" d="M30.9,267.4c-0.1,1.3-1.3,4.3-3.9,5.6c-2.7,1.4-5.7-0.5-6.5-1.4c-1.7-1.9-5.6-10.9-4-15.1
				c1.9-5,5.1-5.3,6.5-5.1c2.2,0.2,3.5,1.8,4.2,2.6C29.4,256.8,31.3,264,30.9,267.4z"/>
			<path class="st16" d="M29.3,269.6c0,0-0.1,3.5-0.9,3.5c-0.7-0.1-1.5-0.6-2-1.1c-2.6-2.3-4.9-10.5-4.9-12.9
				c-0.1-2.3,1.6-5.8,3.4-7.2c2.1-1.6,4.4-1.9,6.5-0.8c0.6,0.3-1.7,5.5-1.7,5.5l-0.9,6.3L29.3,269.6z"/>
			
				<linearGradient id="SVGID_9_" gradientUnits="userSpaceOnUse" x1="272.4178" y1="174.4582" x2="293.8453" y2="174.4582" gradientTransform="matrix(0.3454 -0.9385 -0.9385 -0.3454 96.4148 588.7355)">
				<stop  offset="0" style="stop-color:#F0BA91"/>
				<stop  offset="1" style="stop-color:#F0BA91"/>
			</linearGradient>
			<path class="st19" d="M38.4,268.1c-0.1,1.3-1.3,4.4-4.1,5.8c-2.8,1.4-6.1-0.6-7-1.5c-1.9-2-6.2-11.4-4.6-15.8
				c2-5.2,6.4-5.5,7.5-5.3c1.2,0.2,3.3,2,4.1,2.9C36.6,257,38.7,264.5,38.4,268.1z"/>
			<path class="st16" d="M39,269.4c-0.2,0.3-1.2,1-1.6,0.9c-2.9-0.3-5.2-3.8-6-5.7c-0.6-1.5-2.7-7.8-1.5-11.9
				c0.9-3.3,4.7-4.2,6.8-3.3c2.4,1,3.2,2.6,3.8,3.5c1,1.4,2.6,4.4,2.6,6.6C43,264.1,39.8,268.6,39,269.4z"/>
			
				<linearGradient id="SVGID_10_" gradientUnits="userSpaceOnUse" x1="280.0025" y1="167.7619" x2="309.5341" y2="171.5992" gradientTransform="matrix(0.3454 -0.9385 -0.9385 -0.3454 96.4148 588.7355)">
				<stop  offset="0" style="stop-color:#EFB990"/>
				<stop  offset="0.861" style="stop-color:#FAC5AD"/>
			</linearGradient>
			<path class="st20" d="M41.9,250.4c0.8,2,2.2,4.9,2.9,7.5c0.3,1.1,1.2,5.1-0.6,9c-0.6,1.2-2.7,4.1-5.8,3.4c-4.4-0.9-5.8-5-6.6-6.6
				c-0.8-1.9-1.4-4.9-1.6-7.1c-0.2-1.7,0.4-4.7,1.1-5.6c2.9-3.2,7.7-0.6,8.1,2.8c0.3,2.9,1.6,6.7,2.1,6.5c2.1-0.8-1.7-8.1-1.4-8.9
				C40.4,251,41.7,249.9,41.9,250.4z"/>
		</g>
		<path class="st21" d="M63.4,172c-8.5,3.6-24.2,11.7-30.2,24.8c-8.4,18.3,0.8,38.9,0.9,40.2c0.2,3.5-18.3,7.6-21.6,5
			c-1.3-1-8.2-29.3,5-53.4c5.5-10,14.4-19.3,28.7-25.6c4.6-2.1,9.9-1.1,12.9-0.3C62,163.4,66.8,170.5,63.4,172z"/>
		<path class="st22" d="M59.1,162.6c2.9,0.8,7.7,7.9,4.3,9.3c-6.5,2.7-17.2,8.1-24.5,16.4c0,0-4.2,2.7-11.1,2.2
			c-5.7-0.5-8.9-1.7-9.8-2.6c5.5-9.7,14.3-18.7,28.2-24.9C50.8,160.9,56.1,161.8,59.1,162.6z"/>
	</g>
	<g>
		<g>
			<path class="st23" d="M45.2,354.5c2.9,2.3,3.3,14.4,3.5,15.9c0.2,1.5-13.6,2.5-22.6,2.8c-8.5,0.2-21.6,0.6-23-1.1
				c-1.4-1.7-2.7-5.2-0.8-8.5c3.5-6.2,15.6-5.1,18.1-5.4c2.6-0.3,3.8-3.3,5.3-4.3c1.6-1,3.6-2,9.3-2
				C40.4,351.9,42.5,352.4,45.2,354.5z"/>
			<path class="st24" d="M2,370.1c0.2,0.1,0.5,0.3,0.6,0.4c6.2,3.8,40.5,2.6,45.6-0.2c0.2-0.1,0.4-0.2,0.5-0.4
				c0.1,0.5,0.2,1.1,0.1,1.7c-0.1,0.6-0.3,1-0.7,1.2c-5.1,2.8-39.5,4-45.6,0.2c-0.2-0.1-0.6-0.4-0.8-0.7
				C1.5,371.8,1.5,370.9,2,370.1z"/>
			<g>
				<path class="st25" d="M23.4,356.2c1.3,0.5,4.2,4.1,4.1,4.2c-0.1,0.3-1.5,1.3-2,1.5c-0.1,0.1-2.1-3.2-3.7-4.2
					C21.1,357.3,22.9,356,23.4,356.2z"/>
				<path class="st25" d="M24.9,361.8c0.3,0.9,1.4,1.4,2.3,1.1c0.9-0.3,1.4-1.4,1.1-2.3c-0.3-0.9-1.4-1.4-2.3-1.1
					S24.6,360.9,24.9,361.8z"/>
			</g>
			<g>
				<path class="st25" d="M17.3,358.3c0.7,1.2,0.6,5.5,0.5,5.6c-0.3,0.2-2,0.1-2.5-0.1c-0.1,0,0.5-3.6-0.1-5.3
					C14.8,357.6,17,357.8,17.3,358.3z"/>
				<path class="st25" d="M14.8,362.6c-0.3,0.9,0.2,2,1.1,2.3c0.9,0.3,2-0.2,2.3-1.1c0.3-0.9-0.2-2-1.1-2.3
					C16.2,361.2,15.1,361.7,14.8,362.6z"/>
			</g>
			<g>
				<path class="st25" d="M20.8,357.6c1,1,2.2,5.9,2.2,6c-0.2,0.3-1.9,0.6-2.4,0.6c-0.2,0-0.8-4.3-1.8-5.9
					C18.2,357.6,20.4,357.2,20.8,357.6z"/>
				<path class="st25" d="M19.8,362.8c-0.1,1,0.7,1.9,1.7,1.9c1,0.1,1.9-0.7,1.9-1.7c0.1-1-0.7-1.9-1.7-1.9
					C20.7,361.1,19.9,361.8,19.8,362.8z"/>
			</g>
		</g>
		<path class="st26" d="M50.3,270.2c-1.2,5.7-10.7,44.8-1.9,84.1c0.3,1.3-1.2,3.3-10.9,3.5c-7.8,0.1-15.2-0.8-15.2-1.8
			c-1.8-57.7,7.3-88.4,11.6-96.8c1-1.9,10.5-2.9,12.5-1.7C52.1,260.9,50.3,270.2,50.3,270.2z"/>
	</g>
	<g>
		<g>
			<path class="st23" d="M94.5,361.7c2.9,2.3,3.3,14.4,3.5,15.9c0.2,1.5-13.6,2.5-22.6,2.8c-8.5,0.2-21.6,0.6-23-1.1
				c-1.4-1.7-2.7-5.2-0.8-8.5c3.5-6.2,15.6-5.1,18.1-5.4c2.6-0.3,3.8-3.3,5.3-4.3c1.6-1,3.6-2,9.3-2C89.7,359,91.8,359.5,94.5,361.7
				z"/>
			<path class="st24" d="M51.3,377.3c0.2,0.1,0.5,0.3,0.6,0.4c6.2,3.8,40.5,2.6,45.6-0.2c0.2-0.1,0.4-0.2,0.5-0.4
				c0.1,0.5,0.2,1.1,0.1,1.7c-0.1,0.6-0.3,1-0.7,1.2c-5.1,2.8-39.5,4-45.6,0.2c-0.2-0.1-0.6-0.4-0.8-0.7
				C50.8,378.9,50.8,378.1,51.3,377.3z"/>
			<g>
				<path class="st25" d="M72.7,363.4c1.3,0.5,4.2,4.1,4.1,4.2c-0.1,0.3-1.5,1.3-2,1.5c-0.1,0.1-2.1-3.2-3.7-4.2
					C70.4,364.4,72.2,363.2,72.7,363.4z"/>
				<path class="st25" d="M74.3,368.9c0.3,0.9,1.4,1.4,2.3,1.1c0.9-0.3,1.4-1.4,1.1-2.3c-0.3-0.9-1.4-1.4-2.3-1.1
					C74.4,367,73.9,368,74.3,368.9z"/>
			</g>
			<g>
				<path class="st25" d="M66.6,365.4c0.7,1.2,0.6,5.5,0.5,5.6c-0.3,0.2-2,0.1-2.5-0.1c-0.1,0,0.5-3.6-0.1-5.3
					C64.1,364.8,66.3,364.9,66.6,365.4z"/>
				<path class="st25" d="M64.2,369.8c-0.3,0.9,0.2,2,1.1,2.3c0.9,0.3,2-0.2,2.3-1.1c0.3-0.9-0.2-2-1.1-2.3
					C65.5,368.3,64.5,368.8,64.2,369.8z"/>
			</g>
			<g>
				<path class="st25" d="M70.1,364.7c1,1,2.2,5.9,2.2,6c-0.2,0.3-1.9,0.6-2.4,0.6c-0.2,0-0.8-4.3-1.8-5.9
					C67.6,364.7,69.7,364.3,70.1,364.7z"/>
				<path class="st25" d="M69.1,369.9c-0.1,1,0.7,1.9,1.7,1.9c1,0.1,1.9-0.7,1.9-1.7c0.1-1-0.7-1.9-1.7-1.9
					C70.1,368.2,69.2,368.9,69.1,369.9z"/>
			</g>
		</g>
		<path class="st27" d="M73,263c-3.6,1.8-4.5,6.2-4.8,7.4c-2.5,10.8-3.9,65,2.4,91c0.6,2.7,7.3,4.2,13.7,3.9
			c6.1-0.3,12.4-2.1,12-3.6c-6.8-29.6-9.4-65.1-9.1-99C87.3,260.7,78.4,260.4,73,263z"/>
	</g>
	<g>
		<path class="st28" d="M92.6,167c1.2,2.2,4.8,15,2.1,45.8c-6.3,2.7-33.6,3.7-39.2,2.4c-7.9-1.8-20.1-6.8-23.1-10.3
			c0-3.3,2.3-20.5,6.7-30c3.1-6.7,8.2-16,17.4-18.4c-0.2,2.8,1.3,7.1,9.7,7.8c8.8,0.8,18.9-5,19.4-4.4
			C86.2,160.5,90.1,162.4,92.6,167z"/>
		<path class="st29" d="M56.7,156.3c0.2,0.8-0.1,4.6,6.5,5.7c14.4,2.3,19.4-4.1,19.4-4.5c0-0.5,1.8,0.9,2.4,1.9
			c0.7,0.9,0,3.9-2.7,5.2c-2.2,1-10.9,3.3-18,2.4c-6.3-0.8-10.9-2.3-12.5-4c-1.4-1.6-0.9-3.3,0.1-4.3
			C53,157.5,56.7,156.3,56.7,156.3z"/>
		<path class="st27" d="M92.4,166.5c-0.3,0.6-2.3-3.9-8.1-2.4c-5.8,1.5-11.4,8.1-14.1,22c-1.9,9.9-4.3,25.7-5.4,32.6
			c-0.3,2.1-10,0.6-9.7-1c1.3-7.5,4.5-26.9,5.8-32.5c3-13.4,8.3-22.5,16.7-25.4c4.9-1.7,9-0.1,9.8,0.4
			C89.9,161.6,92.7,165.9,92.4,166.5z"/>
		<path class="st27" d="M56.7,157c-0.6,0.8-4,4.9-7.7,16.2c-2.5,7.8-7.6,35.6-8.1,37.9c-0.3,1.2-2.4,3.8-5.6,1.9
			c-2.5-1.5-2.2-4.4-2.1-5.9c0.2-2.3,3.6-17.4,5.7-25.8c3.1-12.4,6.5-16.7,8.4-19.3C50.6,157.7,58.6,154.5,56.7,157z"/>
		<path class="st27" d="M29.8,233.5c-0.4,3.1-2.1,11.9,0,19.2c2.5,8.7,7.5,18.2,27.8,20.4c14,1.5,24.1-1,29.8-7.6
			c4.2-4.9,6.3-15.8,6.3-25.1c-10.4,3-23.5,2.6-32.2,1.8C41.8,240.4,29.8,233.5,29.8,233.5z"/>
		<path class="st27" d="M32.3,204.7c1.2,1,8.1,4.1,11.7,5.2c5.8,1.8,15.4,3.6,21,4c20.2,1.4,29.8-1.4,29.8-1.4s-1.1,11.5-0.9,25.7
			c-3.5,1.7-23.1,5.8-27.9,6c-4.8,0.2-14.6,0.4-21.6-2.1c-6.9-2.5-12.1-3.9-14.8-6.5C30,225.6,32.3,204.7,32.3,204.7z"/>
		<path class="st30" d="M35.8,210.5c7.2,3.7,20.1,5.6,26.2,6.5c-0.4,4.6-0.3,14.4-2.8,16.1c-6.9,4.7-21.6,0.6-24.3-6.1
			C33.4,223.4,34.8,215.2,35.8,210.5z"/>
		<path class="st31" d="M62.3,240.7c-12.1-0.2-26.8-4.4-32.4-8.9c-0.1-0.1,0-0.5-0.1-0.5c-0.4,0.1-0.6,0.3-0.7,0.7
			c0,0-0.3,1.5-0.6,4.1c-0.2,2-0.2,3.7-0.1,4.4c0.1,0.4,0.1,0.7,0.3,0.8c5.2,4.5,23.7,8.5,33.4,8.6c0.6,0,1.1,0,1.7,0
			c11.5,0,23.6-2.3,29.7-5.1c0.1,0,0.4-0.3,0.4-0.5c0,0,0.2-1.2,0.3-4.9c0-2.7,0.1-3.3,0-4.4c0-0.3-0.2-0.5-0.4-0.5
			c-0.1,0,0.1,0.1-0.1,0.2C89,237.9,76.5,240.9,62.3,240.7z"/>
		<g>
			<path class="st32" d="M65.1,208.6c-0.2,0-0.4,0-0.6,0l-5.6-0.9c-2.1-0.3-3.5-2.3-3.2-4.3l0.9-5.5c0.3-2.1,2.2-3.5,4.3-3.2
				l5.6,0.9c2.1,0.3,3.5,2.3,3.2,4.3l-0.9,5.5C68.6,207.2,67,208.6,65.1,208.6z M60.4,196.5c-0.9,0-1.7,0.7-1.8,1.6l-0.9,5.5
				c-0.2,1,0.5,2,1.5,2.1l5.6,0.9c1,0.2,2-0.6,2.1-1.5l0.9-5.5c0.2-1-0.5-2-1.5-2.1l-5.6-0.9C60.6,196.5,60.5,196.5,60.4,196.5z"/>
			<path class="st30" d="M59.1,200.9c0.6,0.9,5.9,1.8,7.3,1.1c0.5-0.2,0.8-1.6,0.9-2.1c0-0.6-0.4-1.5-1.2-1.7
				c-0.8-0.2-5-0.8-5.4-0.8c-0.5,0-1.6,0.2-1.8,1.3C58.7,199.7,58.9,200.4,59.1,200.9z"/>
		</g>
		<g>
			<path class="st32" d="M41.2,202.8c-0.2,0-0.3,0-0.5-0.1l-4.5-1.2c-1.6-0.4-2.6-2.3-2.2-4.3l1-5.1c0.4-1.9,2-3.2,3.7-2.9l4.6,1
				c1.7,0.4,2.8,2.3,2.4,4.3l-1.1,5.4C44.2,201.7,42.8,202.9,41.2,202.8z M38.1,191c-0.7,0-1.4,0.6-1.6,1.4l-1,5.2
				c-0.2,0.9,0.3,1.9,1.1,2.1l4.5,1.2c0.8,0.2,1.7-0.4,1.9-1.4l1.1-5.3c0.2-1-0.3-1.9-1.2-2.1l-4.6-1C38.2,191,38.1,191,38.1,191z"
				/>
			<path class="st30" d="M36.8,195.1c0.4,0.8,4.7,2,5.9,1.4c0.4-0.2,0.8-1.5,0.9-2c0.1-0.6-0.3-1.5-0.9-1.7c-0.6-0.2-4-0.9-4.4-0.9
				c-0.4,0-1.3,0.1-1.6,1.1C36.5,194,36.6,194.7,36.8,195.1z"/>
		</g>
		<g>
			<path class="st33" d="M49.4,250c-0.2,0-0.5,0-0.7-0.1l-5.5-1c-1-0.2-1.8-0.7-2.5-1.5c-0.6-0.8-0.9-1.8-0.8-2.7l0.5-5.3
				c0.2-1.7,1.5-3,3.3-3c0.2,0,0.5,0,0.7,0.1l5.5,1c2,0.4,3.5,2.3,3.3,4.2l-0.5,5.3C52.5,248.7,51.1,249.9,49.4,250z M43.9,238.3
				c-0.8,0-1.5,0.6-1.6,1.5l-0.5,5.3c0,0.5,0.1,0.9,0.4,1.3c0.3,0.4,0.7,0.7,1.2,0.7l5.5,1c1,0.2,1.9-0.5,2-1.4l0.5-5.3
				c0.1-1-0.6-1.9-1.6-2.1l-5.5-1C44.1,238.3,44,238.3,43.9,238.3z"/>
			<path class="st34" d="M44.3,246.6l-1.1-0.3c-0.3-0.1-0.6-0.4-0.7-0.7c-0.1-0.2-0.1-0.4-0.1-0.5l0.6-5.3c0-0.3,0.2-0.5,0.4-0.6
				c0.2-0.1,0.4-0.2,0.7-0.1l1.1,0.3c0.2,0.1,0.5,0.2,0.6,0.4c0.2,0.2,0.3,0.5,0.2,0.8l-0.6,5.3c0,0.3-0.2,0.5-0.4,0.7
				C44.7,246.6,44.5,246.6,44.3,246.6z"/>
		</g>
		<g>
			<path class="st30" d="M65.6,251.8l-3.1,0c-0.5,0-0.9-0.2-1.1-0.5c-0.3-0.3-0.4-0.7-0.4-1.2l0.9-10.3c0-0.3,0.2-0.5,0.4-0.7
				c0.2-0.2,0.6-0.3,0.9-0.2l2.3,0.1c0.3,0,0.6,0.1,0.9,0.3c0.2,0.2,0.4,0.4,0.4,0.7l0.4,10c0,0.5-0.2,0.9-0.5,1.2
				C66.3,251.7,66,251.8,65.6,251.8z"/>
			<path class="st30" d="M86.1,249.3l-2.6,0.4c-0.4,0.1-0.7-0.1-1-0.3c-0.3-0.2-0.4-0.5-0.4-0.9l-0.4-9.9c0-0.3,0.1-0.6,0.3-0.8
				c0.2-0.2,0.5-0.4,0.8-0.4L85,237c0.3,0,0.6,0,0.9,0.2c0.2,0.2,0.4,0.4,0.4,0.7l1,9.8c0,0.4-0.1,0.8-0.3,1.1
				C86.8,249,86.5,249.2,86.1,249.3z"/>
			<path class="st30" d="M32.7,244.8l-2.2-0.8c-0.3-0.1-0.6-0.4-0.7-0.7c-0.2-0.3-0.2-0.7-0.2-1.1l1.7-9.6c0-0.3,0.2-0.5,0.4-0.6
				c0.2-0.1,0.5-0.2,0.8-0.1l1.9,0.6c0.3,0.1,0.5,0.3,0.7,0.5c0.2,0.2,0.2,0.6,0.2,0.8l-1.2,10c0,0.4-0.2,0.7-0.5,0.9
				C33.2,244.9,33,244.9,32.7,244.8z"/>
		</g>
	</g>
	<g>
		<g>
			<path class="st35" d="M40.1,270.2c-2.4,6.3-7.4,9.9-11.1,8.4c-3.7-1.4-4.8-7.3-2.3-13.6c2.4-6.3,7.4-10.3,11.2-8.9
				C41.5,257.6,42.5,263.9,40.1,270.2z"/>
			<path class="st36" d="M30.4,264.2c3.2,1,8.4,2.8,8.4,2.8s-0.6-3.9-1.7-5.1c-1.1-1.2-1-2-3.1-0.8
				C31.9,262.2,30.4,264.2,30.4,264.2z"/>
			<path class="st37" d="M30.4,264.2c3.2,1,8.4,2.8,8.4,2.8s-0.6-3.9-1.7-5.1c-1.1-1.2-1-2-3.1-0.8
				C31.9,262.2,30.4,264.2,30.4,264.2z"/>
			<path class="st38" d="M40.8,263.1c-1.4-0.7-2.9-1.5-5-2.7c0.6,0.4,2.8,3.3-0.3,11.6c-1.5,3.9-5.9,6.8-8,5.7c0,0.6,0.2,3.7,1.9,4
				c1.3,0.2,5.4-0.7,6.4-1.7c4-4.1,5.2-9,5.5-10.5C41.6,266.4,40.8,263.1,40.8,263.1z"/>
			<path class="st39" d="M32.5,278.2c-1.7-0.2-4.2-0.3-4.2-0.3c-0.3,0-0.6-0.1-0.9-0.2c0,0.6,0.2,3.7,1.9,4c1.3,0.2,5.5,0,7.7-2.2
				C37.3,279.1,36.4,278.6,32.5,278.2z"/>
			<path class="st40" d="M29.3,281.7c11.7,1.8,33.3,5.7,53.6,11.1c23.2,6.2,42.6,12.1,44,11.9c9.2-1.2,14-19.8,3.3-25.2
				c-3.1-1.5-17-0.3-43-6.9C54.6,264.2,41,257.7,37.6,256c0.5,0.4,3.6,3.9,1.6,12.3C36.3,280.2,31.7,281.7,29.3,281.7z"/>
		</g>
		<g>
			<g>
				<linearGradient id="SVGID_11_" gradientUnits="userSpaceOnUse" x1="90.6176" y1="265.1231" x2="79.236" y2="294.9055">
					<stop  offset="0.1442" style="stop-color:#EFB990"/>
					<stop  offset="0.861" style="stop-color:#FAC5AD"/>
				</linearGradient>
				<path class="st41" d="M95.9,262.7c2.7,0.9,5.1,2.8,4.6,5.4c-0.5,2.6-1.2,3-1.3,4.7c-0.1,1.6,0.5,8.1-0.4,12.4
					c-0.9,4.1-3.2,8.9-6.9,10.3c-3.7,1.4-5.3,0.1-5.3,0.1s-2.5,2.6-6.1,0.1c-2.5,0.6-5.5-0.8-5.8-2.2c-2.7,0-5.2-1.5-6.1-4.3
					c6-0.9,8.9-5,9.7-8.1c0.8-3.2,0.6-8.7-2-10.9c-1.9-1.6-3.3-1.5-3.3-1.5s1.3-1.7,4-2.3c1.7-0.4,10.1-0.3,11.3-2.4
					C89.9,261.3,94.1,262.1,95.9,262.7z"/>
				<path class="st16" d="M87.2,296l-0.6-0.3c0.7-0.3,1.5-1.3,2.1-2.2c0.1-0.2,0.2-0.4,0.3-0.5c0.1,0,0,0.2-0.1,0.5
					c-0.1,0.3-0.2,0.7-0.3,1C88.1,295.2,87.6,295.7,87.2,296z"/>
				<path class="st16" d="M81,296.1l-0.5-0.3c1.2-0.1,2.8-1,3.6-2.4c0.1-0.2,0.2-0.6,0.3-0.6c0.2,0,0,0.3-0.1,0.7
					c0,0.2-0.1,0.3-0.2,0.5C83.6,295.3,82.2,296.1,81,296.1z"/>
				<path class="st16" d="M75,294.1l-0.2-0.4c0.6,0.1,2.7-0.8,4-2.1c0.2-0.2,0.5-0.6,0.5-0.6c0.2,0.1,0,0.3-0.2,0.8
					c-0.1,0.2-0.2,0.4-0.4,0.6C77.7,293.3,76.4,294.1,75,294.1z"/>
			</g>
			<path class="st22" d="M82.3,175.3c-2.5,0.7-2.1,7.1-1.5,9.8c4.3,20.8,3.3,29.1,3.3,29.1s11.7-1.2,12.3-3.5
				c1.4-5.2-5.7-25.4-7.4-28.5C87.2,179.1,84.6,174.7,82.3,175.3z"/>
			<path class="st28" d="M80.6,178.7c17.3,44,1.8,83,3,85.9c1.2,2.7,16.7,7.2,19.7,5.7c4.9-2.5,15.5-60.2-8.3-97.7
				c-3.6-5.7-8.9-6.6-11.7-4.9C80.4,169.4,79.2,175.3,80.6,178.7z"/>
		</g>
	</g>
	<g>
		<path class="st42" d="M19.8,55.5C18.1,55.3-0.7,60.1,0,60.7c3.2,3.2,26.5,12.7,61.4,13c1.6,0,15.9-3.8,17.9-4.2
			c2-0.4,53.8,0.3,55-2.2c0.1-0.2-3.7-3.2-4.9-3.3c-1.1-0.1-42.3-0.7-45.7-0.8c-3.4-0.2-31.7-2.8-34.9-3.5
			C45.5,59,19.8,55.5,19.8,55.5z"/>
		<path class="st43" d="M19.5,55.7c6.2,3.3,21.2,8,59.2,9.5c14.4,0.6,49.6,0.9,51.7-0.6c-0.1-18.7-0.6-28.1-4.8-36
			c-15.6-29.1-70-34.4-92.1-11.9C27.5,22.7,22.5,34.5,19.5,55.7z"/>
		<path class="st44" d="M78.7,66.1C78.4,65.2,81,54,81.8,52.7c0.6-0.9,11-0.5,11.4,0.5c0.4,1,1.9,12.7,1.3,13.4
			C94,67.4,79.2,67.1,78.7,66.1z"/>
		<path class="st44" d="M118.9,66.3c-0.4-0.8,1.1-11.7,1.8-13.1c0.5-1,8.8-1.6,9.3-0.6c0.5,0.9,2.7,12.3,2.2,13
			C131.8,66.3,119.4,67.2,118.9,66.3z"/>
		<path class="st42" d="M43.7,59.7c0.4,0.5,7.6,5.7,9,5.3c1.4-0.4,3.1-1,3.5-1.5c0.3-0.4,2.7-19.7,1.9-21.4c-0.9-1.8-3.1-2.8-4-3.9
			c-0.6-0.8,1.2-10.3,1.6-12.8c1.2-8.1,11.1-16.4,29.6-16.9c7-0.2,19.6,0.6,24.5,4.1C108.3,6.9,95.6,0.5,81.6,0
			C63.4-0.5,42.4,6.4,38.3,25C37.6,28.3,43.7,59.7,43.7,59.7z"/>
		<path class="st45" d="M26.3,59.4c0.6,1.4,24.3,6.6,26.4,5.7c0.5-0.2,3.1-20.7,2.5-22.3c-0.6-1.6-4-2.6-4.1-4.5
			C51,37,54.9,21.9,45.6,20.9c-8.5-0.9-9.3,13.4-10.2,14.9c-0.9,1.4-4.2,1.8-5.1,3C29.4,40.1,25.7,58.2,26.3,59.4z"/>
	</g>
</g>
</svg>
