<!-- Generator: Adobe Illustrator 22.1.0, SVG Export Plug-In  -->
<svg version="1.1"
	 xmlns="http://www.w3.org/2000/svg" xmlns:xlink="http://www.w3.org/1999/xlink" xmlns:a="http://ns.adobe.com/AdobeSVGViewerExtensions/3.0/"
	 x="0px" y="0px" width="187.7px" height="144.3px" viewBox="0 0 187.7 144.3" style="enable-background:new 0 0 187.7 144.3;"
	 xml:space="preserve">
<style type="text/css">
	.st0{fill:#312D2A;}
	.st1{fill:#FFFFFF;}
</style>
<defs>
</defs>
<g>
	<path class="st0" d="M85.6,131h-78V5.9c0-3.3,2.7-5.9,5.9-5.9h66.1c3.3,0,5.9,2.7,5.9,5.9V131z"/>
	<path class="st1" d="M75,44H17.8c-3.3,0-6-2.7-6-6V10.6c0-3.3,2.7-6,6-6H75c3.3,0,6,2.7,6,6V38C80.9,41.3,78.3,44,75,44z"/>
	<g>
		<path class="st0" d="M130.7,38.8c-2.8,0.3-5.3,0.9-7.5,1.8c-3.3,1.4-6,3.5-7.7,6.2c-1.8,2.7-2.6,6-2.6,9.6c0,5.6,2,11.9,5.9,18.8
			c2.6,4.6,3.8,9.4,3.8,13.8c0,5.7-1.9,10.8-5.4,14.4c-1.7,1.8-3.8,3.3-6.2,4.4c-2.4,1-5.2,1.6-8.4,1.6v2.5l0.2-2.5l0,0
			c-0.2,0-6.3-0.5-13-3c-3.3-1.2-6.8-3-9.7-5.3c-2.9-2.4-5.4-5.3-6.8-9.1l-4.7,1.8c1.9,4.8,5,8.5,8.5,11.3
			c5.3,4.2,11.6,6.5,16.6,7.7c5,1.3,8.6,1.5,8.7,1.5l0.1,0h0.1c3.8,0,7.3-0.7,10.3-2c4.6-2,8.3-5.3,10.8-9.4c2.5-4.1,3.8-8.9,3.8-14
			c0-5.3-1.4-11-4.5-16.3c-3.6-6.3-5.3-11.9-5.3-16.3c0-1.8,0.3-3.5,0.8-4.9c0.8-2.1,2.1-3.8,4.2-5.1c2-1.3,4.8-2.3,8.4-2.6
			L130.7,38.8L130.7,38.8z"/>
	</g>
	<path class="st0" d="M92.3,144.3H0v-9.7c0-2.6,2.1-4.7,4.7-4.7h82.9c2.6,0,4.7,2.1,4.7,4.7V144.3z"/>
	<path class="st0" d="M155.7,50l-20.8,1.9c-1.7,0.2-3.3-1.1-3.5-2.9l-0.8-8.9c-0.2-1.7,1.1-3.3,2.9-3.5l20.8-1.9
		c1.7-0.2,3.3,1.1,3.5,2.9l0.8,8.9C158.7,48.3,157.4,49.9,155.7,50z"/>
	<path class="st1" d="M155.2,48.1l-20.1,1.8c-0.8,0.1-1.4-0.5-1.5-1.3l-0.3-2.9c-0.1-0.8,0.5-1.4,1.3-1.5l20.1-1.8
		c0.8-0.1,1.4,0.5,1.5,1.3l0.3,2.9C156.5,47.3,156,48,155.2,48.1z"/>
	<g>
		<path class="st0" d="M154.5,40.8l15.4-1.5l-0.2-2.3v2.3c2,0,3.4,0.2,4.4,0.5c0.8,0.3,1.4,0.6,1.9,0.9c0.8,0.5,1.4,1.2,2.2,2.2
			c0.7,0.9,1.6,2,2.7,3.2l2.7-3.3c-0.8-0.9-1.5-1.7-2.2-2.6c-0.5-0.7-1.1-1.4-1.8-2c-1-1-2.3-1.9-3.9-2.5c-1.6-0.6-3.6-0.9-6.1-0.9
			h-0.1l-15.5,1.5L154.5,40.8L154.5,40.8z"/>
	</g>
	<path class="st0" d="M181.9,55c-2.5,4.7-5,9.1-5,14.3c0,6.1,10.7,7.6,10.7,0C187.7,63.8,184.4,59.6,181.9,55z"/>
</g>
</svg>
