<!-- Generator: Adobe Illustrator 22.1.0, SVG Export Plug-In  -->
<svg version="1.1"
	 xmlns="http://www.w3.org/2000/svg" xmlns:xlink="http://www.w3.org/1999/xlink" xmlns:a="http://ns.adobe.com/AdobeSVGViewerExtensions/3.0/"
	 x="0px" y="0px" width="223.3px" height="223.3px" viewBox="0 0 223.3 223.3" style="enable-background:new 0 0 223.3 223.3;"
	 xml:space="preserve">
<style type="text/css">
	.st0{fill:#AC1F23;}
	.st1{fill:#FFFFFF;}
	.st2{fill:#312D2A;}
</style>
<defs>
</defs>
<path class="st0" d="M185.2,27.7C138.8-13,68.3-8.3,27.7,38.1C-13,84.4-8.3,155,38.1,195.6s116.9,36,157.5-10.4
	C236.2,138.8,231.6,68.3,185.2,27.7z M54.8,61.8c23.8-27.2,62.9-33.2,93.3-16.4l-97.3,111C30.2,128.5,31,89,54.8,61.8z M75.1,177.8
	l97.3-111c20.7,27.9,19.9,67.4-4,94.6C144.6,188.6,105.6,194.6,75.1,177.8z"/>
<polygon class="st1" points="80,172.7 87.1,113.6 131.6,64.1 137.6,68.7 139.8,69.3 137.1,106.8 "/>
<g>
	<g>
		<path class="st2" d="M121.8,63.9c-5.5-1.3-10.8-2.6-11.2-2.7c-1.2-0.3-2.6-0.4-4-0.4c-1.3,0-2.5,0.1-3.7,0.4l-1.3,0.3l-0.4-1.2
			c-2-5.7-5.6-10.6-10.3-14.1L87,43.2l4.7,0.1c8.9,0.3,20.8,1.5,26.8,6l0.4,1.5l-0.3-1.5c0.1-0.1,0.1-0.2,0-0.3
			c-0.5-0.3-1.1-0.7-1.8-1.1l-3.5-1.9l3.9-0.9c4.6-1,10.1-1.6,16.5-1.8l4.7-0.1l-3.8,2.8c-5.4,4-9.3,10-11.1,16.7l-0.4,1.4
			L121.8,63.9z"/>
		<path class="st1" d="M133.8,44.9L133.8,44.9 M133.8,44.9c-5.6,4.2-9.8,10.4-11.7,17.6c-5.5-1.3-10.9-2.6-11.2-2.7
			c-1.3-0.3-2.8-0.5-4.4-0.5c-1.3,0-2.7,0.1-4,0.4c-2.2-6-6-11.1-10.8-14.8c10.5,0.3,20.8,1.9,25.9,5.7c0.3,0.2,0.6,0.3,1,0.3
			c0.1,0,0.2,0,0.4,0c0.4-0.1,0.7-0.3,1-0.6c0.5-0.7,0.4-1.8-0.4-2.3c-0.6-0.4-1.3-0.8-2-1.2C122.4,45.6,128.1,45,133.8,44.9
			 M143.2,41.6l-9.5,0.3c-6.5,0.2-12.1,0.8-16.8,1.9l-4.6,1c-6.3-2-14.2-2.7-20.6-2.9l-9.5-0.3l7.6,5.7c4.5,3.3,7.8,8,9.8,13.4
			l0.9,2.4l2.5-0.5c1.1-0.2,2.3-0.3,3.4-0.3c1.3,0,2.6,0.1,3.7,0.4l0,0c1.8,0.4,6.4,1.5,11.2,2.7l2.9,0.7l0.8-2.9
			c1.7-6.4,5.4-12.1,10.6-15.9L143.2,41.6L143.2,41.6z M133.8,41.9L133.8,41.9L133.8,41.9L133.8,41.9z M133.8,47.9L133.8,47.9
			L133.8,47.9L133.8,47.9z"/>
	</g>
	<g>
		<path class="st2" d="M125.9,108.3c-3.5,0-6.3-2.8-6.3-6.3c0-1.9,0.8-3.6,2.2-4.8c-1.3-1.2-2.2-2.9-2.2-4.8c0-1.9,0.8-3.6,2.2-4.8
			c-1.3-1.2-2.2-2.9-2.2-4.8c0-0.6,0.1-1.3,0.3-2l0.4-1.1l9.4,0.9l1.1,0.1c3.5-0.2,6.4-3,6.8-6.5c0.2-1.8-0.2-3.5-1-4.9l-1.4-2.3
			h6.1c3.5,0,6.3,2.8,6.3,6.3c0,1.4-0.5,2.8-1.3,3.8c2.1,1,3.5,3.2,3.5,5.6c0,2.3-1.2,4.3-3,5.4c1,1.1,1.5,2.6,1.5,4.1
			c0,2.3-1.2,4.3-3,5.4c1,1.1,1.5,2.6,1.5,4.1c0,3.5-2.8,6.3-6.3,6.3H125.9z"/>
		<path class="st1" d="M141.2,68.7c2.7,0,4.8,2.2,4.8,4.8c0,2.3-1.6,4.1-3.7,4.7h1c2.7,0,4.8,2.2,4.8,4.8c0,2.7-2.2,4.8-4.8,4.8
			h-0.5c2.2,0.4,3.8,2.4,3.8,4.7c0,2.7-2.2,4.8-4.8,4.8h-0.5c2.2,0.5,3.8,2.4,3.8,4.7c0,2.7-2.2,4.8-4.8,4.8h-14.4
			c-2.7,0-4.8-2.2-4.8-4.8c0-2.5,1.9-4.5,4.3-4.8c-2.4-0.3-4.3-2.3-4.3-4.8c0-2.5,1.9-4.5,4.3-4.8c-2.4-0.2-4.3-2.3-4.3-4.8
			c0-0.5,0.1-1,0.3-1.5l8.2,0.8l1.1,0.1c4.3-0.2,7.9-3.6,8.4-7.8c0.2-2.2-0.2-4.2-1.2-5.8H141.2 M141.2,65.7h-3.4h-5.4l2.8,4.6
			c0.7,1.1,1,2.4,0.8,4c-0.3,2.7-2.5,4.9-5.3,5.1l-0.8-0.1l-0.1,0l-0.1,0l-8.2-0.8l-2.4-0.2l-0.8,2.3c-0.3,0.8-0.4,1.6-0.4,2.4
			c0,1.8,0.6,3.4,1.6,4.8c-1,1.3-1.6,3-1.6,4.8c0,1.8,0.6,3.4,1.6,4.8c-1,1.3-1.6,3-1.6,4.8c0,4.3,3.5,7.8,7.8,7.8h14.4
			c4.3,0,7.8-3.5,7.8-7.8c0-1.4-0.4-2.7-1-3.8c1.5-1.4,2.5-3.5,2.5-5.7c0-1.4-0.4-2.7-1-3.8c1.5-1.4,2.5-3.5,2.5-5.7
			c0-2.5-1.1-4.7-2.9-6.1c0.5-1,0.8-2.2,0.8-3.4C149,69.2,145.5,65.7,141.2,65.7L141.2,65.7z"/>
	</g>
	<g>
		<rect x="59.6" y="67.8" class="st2" width="9.6" height="42.5"/>
		<path class="st1" d="M67.7,69.3v39.5h-6.6V69.3H67.7 M70.7,66.3h-3h-6.6h-3v3v39.5v3h3h6.6h3v-3V69.3V66.3L70.7,66.3z"/>
	</g>
	<g>
		<path class="st2" d="M79.8,112.9c-6.3-4-9.3-8.3-9.4-8.5l-0.3-0.4V73.1l2.2-0.8c0.2-0.1,27.5-10.3,28.4-10.6
			c1.7-0.6,3.7-0.9,5.8-0.9c1.4,0,2.7,0.1,4,0.4c0.2,0,16.2,3.9,21.4,5.3c3.7,1,5.7,3.9,5.3,7.8c-0.4,3.4-3.2,6.1-6.7,6.2l-0.3,0
			l-0.1,0c-1.3-0.1-11.6-1.1-18.7-1.8L100.2,82c0,0-0.1,0-0.1,0.1c0,0,0,0.1,0,0.1l1.1,0.9l-0.9,1.2c-4,5-11.7,15.2-18.3,28.1
			l-0.8,1.5L79.8,112.9z"/>
		<path class="st1" d="M106.6,62.3c1.3,0,2.5,0.1,3.6,0.4c0,0,16.1,3.8,21.4,5.3c2.6,0.7,4.6,2.7,4.2,6.2c-0.3,2.5-2.4,4.8-5.2,4.9
			c-0.1,0-19.2-1.8-19.2-1.8l-11.6,3.3c-0.9,0.2-1.4,1.2-1.1,2c0.1,0.3,0.3,0.6,0.5,0.8c-3.8,4.8-11.7,15.2-18.5,28.3
			c-6.1-3.9-9-8.1-9-8.1V74.1c0,0,0.4-0.1,1.2-0.4c5.2-2,27.6-10.4,28.4-10.6C103,62.5,104.8,62.3,106.6,62.3 M106.6,59.3
			c-2.2,0-4.3,0.3-6.2,1c-0.9,0.3-25.5,9.5-28.5,10.7l-1.1,0.4l-2,0.7v2.1v29.4v0.9l0.5,0.8c0.1,0.2,3.2,4.7,9.8,9l2.8,1.8l1.5-2.9
			c6.6-12.7,14.2-22.9,18.2-27.8l1.8-2.3l-0.3-0.2l8.6-2.4c6.8,0.6,16.5,1.6,18.3,1.7l0.2,0.1l0.6,0c4.2-0.2,7.7-3.4,8.1-7.6
			c0.5-4.6-2-8.2-6.4-9.4c-5.3-1.5-20.8-5.2-21.5-5.3l0,0l0,0C109.5,59.4,108,59.3,106.6,59.3L106.6,59.3z"/>
	</g>
	<g>
		<path class="st2" d="M87.6,176c-9.6,0-15.2-7.1-16.4-14.1c-1.8-10.4-1-28.2,13.4-53.8c8.6-15.2,18-26.2,18.1-26.3l0.3-0.3l8.5-2.4
			l8.4,0.8l-0.4,1.7c-0.1,0.6-0.2,1-0.2,1.4c0,1.4,0.4,2.7,1.3,3.9l0.6,0.9l-0.6,0.9c-0.8,1.1-1.3,2.5-1.3,3.9
			c0,1.4,0.4,2.7,1.3,3.9l0.6,0.9l-0.6,0.9c-0.8,1.1-1.3,2.5-1.3,3.9c0,3.6,3,6.6,6.6,6.6h15.3l0.4,0.8
			c11.1,20.1,15.3,37.8,12.7,52.6c-1.2,7-6.8,14.1-16.4,14.1H87.6z M103.7,147.7l0.3,1.1c0.6,2.3,1.5,4.3,2.7,5.9
			c2.3,3,5.3,4.5,9.3,4.5c3.2,0,5.7-1.1,7.7-3.3c1.8-1.9,3-4.4,3.6-7.3h-3.4c-0.4,1.5-1,2.7-1.6,3.6c-1.4,2.1-3.7,3.3-6.4,3.3
			c-2.7,0-5-1.2-6.7-3.7c-0.4-0.6-0.8-1.3-1.1-2.1l-0.8-2.1h8.1l0.4-2h-8.8l-0.1-1.4c-0.1-0.8-0.1-1.7-0.1-2.6c0-0.9,0-1.8,0.1-2.6
			l0.1-1.4H117l0.4-2h-10.2l0.7-2c0.3-0.9,0.7-1.6,1.1-2.3c1.6-2.7,4-4.1,6.9-4.1c2.8,0,5,1,6.4,3c0.6,0.8,1.1,2,1.6,3.4h3.6
			c-0.3-1.5-0.9-3.1-1.8-4.6c-2.1-3.6-5.5-5.4-10.1-5.4c-3.5,0-6.2,1.3-8.5,4c-1.5,1.8-2.6,4.1-3.3,6.9l-0.3,1.2h-6.8l-0.4,2h7
			l-0.1,1.6c0,0.7-0.1,1.5-0.1,2.3c0,0.9,0,1.7,0.1,2.5l0.1,1.6h-6.6l-0.4,2H103.7z"/>
		<path class="st1" d="M111.7,80.6c2,0.2,4.2,0.4,6.4,0.6c-0.1,0.6-0.2,1.2-0.2,1.8c0,1.8,0.6,3.4,1.6,4.8c-1,1.3-1.6,3-1.6,4.8
			c0,1.8,0.6,3.4,1.6,4.8c-1,1.3-1.6,3-1.6,4.8c0,4.5,3.6,8.1,8.1,8.1h14.4c8.3,15.1,15.6,34.2,12.6,51.6c-1.2,7-6.7,12.9-14.9,12.9
			l0,0c-0.1,0-0.2,0-0.4,0h-50c-8.2,0-13.7-5.9-14.9-12.9c-6.3-35.6,31.2-78.9,31.2-78.9L111.7,80.6 M94.5,139.2h7.2
			c-0.1,0.8-0.1,1.5-0.1,2.3c0,0.9,0,1.8,0.1,2.6h-6.2l-1.1,5h8c0.6,2.5,1.6,4.6,3,6.4c2.6,3.4,6.1,5.1,10.5,5.1
			c3.6,0,6.6-1.3,8.9-3.8c2.3-2.5,3.7-5.8,4.3-9.8h-6.4c-0.4,1.9-1,3.3-1.7,4.3c-1.2,1.8-2.9,2.6-5.2,2.6c-2.2,0-4-1-5.5-3.1
			c-0.4-0.5-0.7-1.1-1-1.8h7.1l1-5h-9.3c-0.1-0.8-0.1-1.6-0.1-2.5c0-0.9,0-1.7,0.1-2.5h9.9l1.1-5h-9.9c0.3-0.8,0.6-1.5,0.9-2.1
			c1.4-2.3,3.2-3.4,5.6-3.4c2.3,0,4.1,0.8,5.2,2.4c0.7,0.9,1.2,2.2,1.6,4h6.5c-0.1-2.3-0.8-4.6-2.1-6.9c-2.4-4.1-6.2-6.1-11.4-6.1
			c-3.9,0-7.1,1.5-9.6,4.6c-1.7,2-2.9,4.5-3.6,7.5h-6.9L94.5,139.2 M111.4,77.5l-0.5,0.2l-7.8,2.2l-0.9,0.2l-0.6,0.7
			c-0.4,0.5-9.7,11.2-18.3,26.6c-11.7,20.9-16.3,39.3-13.6,54.8c1.6,9.2,8.8,15.4,17.9,15.4h50c0,0,0.1,0,0.1,0l0.2,0
			c9.1,0,16.2-6.2,17.9-15.4c2.7-15.1-1.7-33.2-12.9-53.6l-0.9-1.6h-1.8h-14.4c-2.8,0-5.1-2.3-5.1-5.1c0-1.1,0.3-2.1,1-3l1.3-1.8
			l-1.3-1.8c-0.6-0.9-1-1.9-1-3c0-1.1,0.3-2.1,1-3l1.3-1.8l-1.3-1.8c-0.6-0.9-1-1.9-1-3c0-0.3,0.1-0.6,0.2-1.1l0.8-3.4l-3.4-0.3
			l-6.4-0.6L111.4,77.5L111.4,77.5z M104.9,136.8l0.5-2c0.6-2.5,1.6-4.6,3-6.3c1.9-2.3,4.3-3.5,7.3-3.5c4.2,0,7,1.5,8.9,4.6
			c0.5,0.8,0.8,1.6,1.1,2.3h-0.6c-0.4-1.1-0.9-2-1.5-2.8c-1.2-1.6-3.5-3.6-7.6-3.6c-2.4,0-5.7,0.8-8.1,4.9c-0.5,0.8-0.9,1.7-1.2,2.6
			l-1.4,4h0.3l-0.1,1.8c-0.1,0.8-0.1,1.7-0.1,2.7c0,1,0,1.9,0.1,2.7l0.1,1.8H105l1.7,4.1c0.3,0.8,0.8,1.6,1.3,2.3
			c2,2.9,4.8,4.4,7.9,4.4c3.3,0,5.9-1.4,7.7-4c0.6-0.8,1-1.8,1.4-3h0.4c-0.6,1.9-1.5,3.4-2.8,4.8c-1.7,1.9-3.9,2.8-6.6,2.8
			c-3.5,0-6.1-1.2-8.1-3.9c-1.1-1.5-1.9-3.3-2.4-5.3l-0.5-1.9l-0.2-2.7c-0.1-0.7-0.1-1.5-0.1-2.4c0-0.7,0-1.5,0.1-2.2L104.9,136.8
			L104.9,136.8z M104.9,136.2L104.9,136.2L104.9,136.2L104.9,136.2z M101.7,142.2L101.7,142.2L101.7,142.2L101.7,142.2z"/>
	</g>
</g>
</svg>
