<!-- Generator: Adobe Illustrator 22.1.0, SVG Export Plug-In  -->
<svg version="1.1"
	 xmlns="http://www.w3.org/2000/svg" xmlns:xlink="http://www.w3.org/1999/xlink" xmlns:a="http://ns.adobe.com/AdobeSVGViewerExtensions/3.0/"
	 x="0px" y="0px" width="1541.5px" height="1173.5px" viewBox="0 0 1541.5 1173.5"
	 style="enable-background:new 0 0 1541.5 1173.5;" xml:space="preserve">
<style type="text/css">
	.st0{fill:#D6BC03;}
	.st1{fill:#323232;}
</style>
<defs>
</defs>
<polygon class="st0" points="1454.1,146.7 1013.2,231.7 915.3,0 734.9,192.1 440.4,18.2 497.5,382.2 0,683.7 525.8,769.1 
	555.7,1103.7 917.1,911.1 1005.2,1173.5 1074.9,907 1391.6,988.3 1211.9,772.4 1505.1,658.1 1232.8,540.8 "/>
<path class="st1" d="M663.1,755.4c1.5,5,0.1,13.3-3.1,18.4l-3.9,6.1c-3.2,5.1-5.1,14.2-4.3,20.1l0.6,3.9c0.9,6-1.1,15-4.4,20.1
	l-7.3,11.3c-3.3,5.1-10.7,10.5-16.6,12.1l-4.4,1.2c-5.8,1.6-10.5,6.9-10.4,11.8c0.1,4.9-2.2,13.2-5.1,18.5l-5.7,10.1
	c-3,5.3-9.5,9.7-14.5,9.8c-5,0.1-9.1,2.9-9.1,6.2c0,3.3-3.2,9.7-7,14.4l-16.1,19.3c-3.9,4.6-7.5,13.3-8.2,19.3l0,0.1
	c-0.6,6-3.2,15.2-5.7,20.5c-2.5,5.3-2,13.8,1,19l0.2,0.3c3.1,5.2,3.2,12.6,0.4,16.5c-2.9,3.9-8.7,3.5-12.9-0.8l-8.6-8.9
	c-4.2-4.3-7.1-12.8-6.6-18.8l15.3-160.1c0.6-6-2.7-14.1-7.4-18l-6.1-5.1c-4.6-3.9-9.3-11.9-10.5-17.8l-2.2-11.4
	c-1.2-5.9-5.4-14.5-9.4-19l-0.1-0.1c-4-4.5-5.9-12.9-4.1-18.7l14.7-48.5c1.7-5.8,7.9-12,13.6-13.8l8.3-2.6c5.8-1.8,15-1.4,20.6,1
	l8.1,3.4c5.6,2.3,13.7,7.6,18.1,11.8l1.4,1.4c4.4,4.1,10.8,8,14.4,8.5c3.5,0.5,9,5.1,12.3,10.2l10.2,16.2
	c3.2,5.1,10.6,10.7,16.4,12.4l24.7,7.4C655.6,744.8,661.6,750.3,663.1,755.4z M491,685.4c1.6-2-1.3-6.2-6.4-9.3l-0.9-0.5
	c-5.2-3.1-8.8-10.1-8-15.5c0.8-5.4-2.3-10.8-6.9-11.9c-4.5-1.1-7.5-6.9-6.5-12.9l0.7-4.4c0.9-6-1.1-11.2-4.5-11.8
	c-3.4-0.5-7.4,2.5-8.9,6.6c-1.5,4.1-5.7,7.6-9.4,7.8c-3.6,0.1-8.7-2.1-11.2-5c-2.5-2.9-5.1-10.2-5.7-16.2l-0.4-4.2
	c-0.6-6,1.6-14.8,5-19.6c3.4-4.8,11-9.5,17-10.5l11.3-1.9c6-1,13.3,2.5,16.3,7.7l2.2,3.9c3,5.2,7.5,9.5,9.8,9.5
	c2.4,0,3.8-4.9,3.2-10.9l-0.5-4.7c-0.6-6,2.1-14.6,6-19.2l6.2-7.2c3.9-4.6,7.6-11.7,8.1-15.8c0.5-4.1,4.3-11.1,8.4-15.5l23.3-24.7
	c4.1-4.4,6.3-11.9,4.8-16.7c-1.5-4.8,2-10.1,7.8-11.8l0.9-0.3c5.8-1.7,13.7,0.7,17.6,5.3l2.4,2.8c3.9,4.6,9.7,7.6,13,6.6
	c3.3-1,3.8-5.5,1.1-10.1c-2.6-4.5-4.1-12.9-3.2-18.5c0.9-5.7-2.1-13.5-6.7-17.5l-4.5-3.9c-4.6-4-8.2-8.4-8.1-9.9
	c0.1-1.5-2.1-5.8-5-9.6c-2.9-3.8-8.4-5.7-12.3-4.3c-3.9,1.4-10-1.4-13.7-6.3l-0.5-0.7c-3.6-4.8-11.1-10.8-16.6-13.3l-0.1-0.1
	c-5.5-2.5-12,0-14.5,5.4l-0.1,0.1c-2.5,5.5-3,14.7-1,20.4l1.2,3.5c1.9,5.7,1.3,11.7-1.5,13.4c-2.8,1.6-4.6,6.9-4.1,11.7
	c0.5,4.8-1.7,9.1-4.8,9.6c-3.1,0.5-8-3.4-10.9-8.8l-0.6-1.2c-2.8-5.3-9.2-12.6-14.1-16.1L443,412.5c-4.9-3.5-5.9-10.3-2.3-15.1
	l8.6-11.3c3.7-4.8,10.7-5.9,15.6-2.4l0.3,0.2c4.9,3.5,10.8,4.1,13.1,1.5c2.3-2.6,2.7-7.7,0.9-11.2c-1.8-3.5-0.4-9.3,3-12.8
	c3.4-3.5,4.3-8.7,2.1-11.4c-2.3-2.8-1.6-7.6,1.4-10.7c3-3.1,10-3.8,15.6-1.5l10.4,4.3c5.6,2.3,9.6,8.9,9,14.5
	c-0.6,5.7-1.1,13.5-1.1,17.4c0,3.9,4.4,9.4,9.7,12.1l3.4,1.8c5.4,2.8,12.6,1.1,16.2-3.8l11.8-16.1c3.6-4.9,1.9-10.8-3.6-13.3l-6-2.6
	c-5.5-2.4-12.1-8.9-14.6-14.4l-0.1-0.1c-2.5-5.5-8.6-12.8-13.5-16.3c0,0-30.3-21.1-30.3-22.5c0-1.4,6.2-16,6.2-16
	c2.4-5.6,8.5-12.7,13.6-16l33.2-21.1c5.1-3.2,7.2-7.5,4.7-9.6c-2.5-2-9.5-3.4-15.5-3l-81.4,4.7c-6,0.3-13.3,2.3-16.2,4.3
	c-2.9,2-3.8,8.4-1.9,14.1l7,22.1c1.8,5.7,6.9,13.9,11.3,18c0,0,2.1,2,3.9,2s0.8,4.4,0.8,4.4c-1.4,5.9-6.1,9.6-10.4,8.4
	c-4.3-1.3-9.8-6.8-12.3-12.3l-1.9-4.2c-2.5-5.5-7.4-14-10.9-18.9l0,0c-3.5-4.9-10.8-8.9-16.2-8.9c-5.4,0-10,3.5-10.3,7.8
	c-0.3,4.3,4.3,9.2,10,11l0,0c5.8,1.8,10.8,6.2,11.2,9.8c0.4,3.6-1.7,7.3-4.6,8.2c-2.9,0.9-3.9,4.9-2.3,8.9c1.6,4,7.5,9.3,13,11.7
	l9.6,4.1c5.5,2.4,7.1,8.3,3.4,13l-3.5,4.6c-3.7,4.8-11.6,8.3-17.6,7.7l-4.2-0.4c-6-0.5-13.5-2.1-16.6-3.5c-3.1-1.4-2-5.7,2.5-9.6
	c4.5-3.9,5.2-11,1.4-15.7l-7.4-9.3c-3.7-4.7-11.5-7.2-17.3-5.4l0,0c-5.8,1.8-11.4,0.1-12.6-3.7c-1.1-3.8,2.8-8,8.6-9.3l8.3-1.9
	c5.9-1.4,7.9-6.3,4.5-10.9c-3.4-4.7-10-9.6-14.6-11c-4.7-1.4-13-0.5-18.5,2l-19.7,8.9c-5.5,2.5-10.5,9.4-11,15.4l-0.7,7.4
	c-0.6,6,3,11.7,7.9,12.8c4.9,1,12.7,5,17.4,8.8l3.6,3c4.7,3.8,7.2,10,5.7,13.6c-1.5,3.6-6.9,4-12.1,0.8l-1.9-1.2
	c-5.1-3.2-14.1-7.1-19.9-8.7L313,334c-5.8-1.6-14.5,0.2-19.2,3.9l-3.3,2.5c-4.8,3.7-13.2,4.8-18.8,2.5l-4-1.6c-5.6-2.3-15-5-21-5.9
	l-37.3-5.8c-6-0.9-15.6-0.5-21.5,1l-14.8,3.8c-5.8,1.5-12.5,7.3-14.7,12.9l-2.8,7.1c-2.2,5.6,0.2,12.6,5.5,15.6l1,0.6
	c5.2,3,6.5,9,2.7,13.4c-3.8,4.4-4.5,9.5-1.6,11.4c2.9,1.9,6.8,6.8,8.7,11c1.9,4.1,8.2,7.7,13.9,8c5.8,0.3,14.8-2,20.1-4.9l9.2-5.2
	c5.3-3,14.3-4.2,20.2-2.7l13.5,3.4c5.9,1.5,14.2,6.1,18.5,10.3l14.4,14c4.3,4.2,11.1,11.4,14.9,16l12.8,15.2
	c3.9,4.6,7.2,13.3,7.4,19.4l1.1,35.7c0.2,6,2.9,15.2,6.1,20.3l13.7,22.4c3.1,5.1,9.1,9,13.3,8.4c4.1-0.5,10.4,3.1,13.9,8l22,30.6
	c3.5,4.9,5.9,11.7,5.2,15.1c-0.6,3.4,2.7,9.3,7.4,13.1l12.2,9.9c4.7,3.8,12.3,5.7,17,4.2c4.7-1.5,10.9,0.3,13.9,4.1
	c3,3.8,9,7.8,13.3,8.9c4.3,1.1,8.2,4.7,8.7,8c0.5,3.3,5,8.6,10.1,11.9l4,2.6C483.9,686.4,489.4,687.4,491,685.4z M719.7,325.2
	l0.4-2.6c0.8-6,4.3-14.5,7.7-18.9c3.4-4.4,5.2-12.9,4-18.8c0,0-2.6-12.9-2.6-14.3c0-1.4,23-18.9,22.3-20.6c-0.7-1.7-0.7-1.7-0.7-1.7
	c-0.9-5.1-6.5-8-12.3-6.5l-9.6,2.5c-5.8,1.5-11.2,0.9-12-1.2c-0.8-2.2-0.1-5,1.5-6.3c1.6-1.3-1.7-4-7.4-6.1l-12.2-4.3
	c-5.7-2-15.3-3.2-21.3-2.7l-31.3,2.8c-6,0.5-14.9,3.9-19.8,7.4l-0.7,0.5c-4.9,3.5-13.7,5.5-19.7,4.3l-1.1-0.2
	c-5.9-1.2-15.4-0.4-21,1.7L556,250.6c-5.6,2.1-9.8,6.7-9.2,10.2c0.6,3.5-2.6,8.4-7,11c-4.4,2.5-7.6,7.5-7,11c0.6,3.5,6,6.3,12,6.3
	h11.7c6,0,14.6,3.3,19.1,7.4l8.2,7.5c4.5,4.1,6.8,9.6,5.1,12.4c-1.6,2.7,0,7.7,3.5,11c3.6,3.3,5.5,10.8,4.4,16.8l-0.8,4.2
	c-1.2,5.9,0.6,14.9,4,19.9l17.2,25.7c3.4,5,10.4,8.4,15.5,7.6c5.2-0.8,10.2-6.4,11.2-12.4l2.2-13.3c1-6,4.3-10.1,7.3-9.1
	c3,0.9,8.7-0.4,12.7-2.9c4-2.5,8.4-7.6,9.9-11.1c1.5-3.6,6.4-6.2,11-5.8c4.5,0.4,12.7-1.5,18.1-4.2l3.3-1.6
	C713.8,338.2,718.9,331.2,719.7,325.2z M752.5,366.7c-0.6-3.9-5.9-6.5-11.9-5.8l-19.7,2.3c-6,0.7-11.7,2.8-12.8,4.7
	c-1,1.9,2,5.9,6.7,8.9c4.7,3,13.3,4.1,19.1,2.5l9.1-2.6C748.8,375.1,753,370.6,752.5,366.7z M1535.3,362.9c0,0-27.5-18.5-29.8-20.4
	c-2.3-1.8-21.7-5.7-21.7-5.7c-5.9-1.2-13.2,0.2-16.3,3.1c-3,2.9-10.4,4.8-16.4,4.1l-5.1-0.5c-6-0.6-14.2-3.5-18.2-6.4
	c-4-2.9-12.2-5.7-18.2-6.3l-3.3-0.3c-6-0.5-13.4-2.8-16.4-5.1c-3-2.3-10.4-4.7-16.4-5.3l-11.1-1.2c-6-0.7-12.1,0.5-13.6,2.7
	c-1.5,2.1-7.5,5.3-13.2,7.1l-5.6,1.7c-5.8,1.8-14.6,0.6-19.7-2.7l-3.5-2.3c-5.1-3.3-13.8-5.3-19.5-4.6c-5.7,0.8-13.5-1.1-17.4-4.1
	c-3.9-3-10.5-5.8-14.6-6.2c-4.1-0.4-7.5-4.7-7.5-9.6c0-4.9-2.9-11.3-6.4-14.2c-3.5-2.9-8.9-4.2-11.9-3c-3,1.3-9.3,0-13.9-2.7
	s-12.2-1.8-16.8,2.1l-1.1,0.9c-4.6,3.9-13.3,7.2-19.3,7.4l-13.7,0.4c-6,0.2-13.2,3.9-16,8.3c-2.8,4.4-9.9,8.9-15.8,10.1l-1.8,0.3
	c-5.9,1.1-14.8,4.9-19.8,8.3l-5.8,4c-5,3.5-10.9,2.5-13.1-2c-2.3-4.6-7.3-8.3-11.2-8.3s-9.2,4.5-11.8,9.9l-3.4,7.2
	c-2.6,5.5-8.9,7.3-14.1,4.2l-16.5-10.1c-5.1-3.1-8-7.6-6.4-9.8c1.6-2.3,7.7-5.5,13.5-7.2l21-6.2c5.8-1.7,9.6-6.3,8.5-10.2
	c-1.1-3.9-6.9-6.3-12.9-5.3l-21.8,3.7c-6,1-13.8,5.8-17.4,10.6l-10.6,14c-3.6,4.8-2.1,10.8,3.4,13.2l18.3,8.1
	c5.5,2.4,10.6,6.4,11.2,8.8c0.6,2.4-3.8,4.4-9.8,4.5l-11.4,0.2c-6,0.1-15.3,2.5-20.7,5.3l-1.7,0.9c-5.3,2.8-12.6,3-16.1,0.5
	c-3.5-2.6-7.5-1.3-8.9,2.9c-1.4,4.1-6.3,10.8-10.8,14.7l-3,2.6c-4.6,3.9-11.2,3.2-14.7-1.7l-5-6.9c-3.5-4.9-1.8-7.3,3.9-5.3l0.3,0.1
	c5.7,2,11.4,0.3,12.6-3.7c1.3-4-2.2-9.5-7.6-12.1l-25.5-12.4c-5.4-2.6-14.8-4.8-20.8-4.8h-11c-6,0-13.7,4.1-17.1,9.1l-8.8,13.1
	c-3.4,5-9.8,12.4-14.3,16.4l-19.3,17.2c-4.5,4-7.8,12.2-7.4,18.2l0.3,3.7c0.4,6,3.4,11,6.5,11.2c3.1,0.1,6.2,5.1,6.8,11.1l0,0.1
	c0.6,6,5.7,9.3,11.4,7.3l4.1-1.4c5.7-2,12.7-8,15.5-13.3l3.4-6.3c2.8-5.3,3.1-12.4,0.6-15.8c-2.5-3.4-2-10.4,1.1-15.6l6.5-10.9
	c3.1-5.2,9.1-8.2,13.4-6.7c4.3,1.5,4.9,6.8,1.5,11.7l-1.5,2.2c-3.5,4.9-4.7,11.5-2.7,14.7c2,3.1,8.3,4,14,2l10.9-4
	c5.7-2.1,11.8-1,13.5,2.4c1.8,3.4-1.5,7.6-7.3,9.4l-22.4,6.9c-5.8,1.8-12.3,7.8-14.5,13.4l-2.5,6.5c-2.2,5.6-8.9,10.9-14.9,11.6
	l-27.6,3.6c-6,0.8-14.9,4.3-19.8,7.7l-25.5,18c-4.9,3.5-5.6,10-1.5,14.4l0.7,0.8c4.1,4.4,6.7,9.8,5.8,12c-0.9,2.1-6.5,3.6-12.6,3.2
	l-9.2-0.5c-6-0.4-11.3,4.3-11.7,10.3l-0.8,11.5c-0.4,6,2.5,12.6,6.6,14.6c4,2,11.5,2,16.7,0c5.2-2,12.5-7.4,16.4-12.1l4.7-5.6
	c3.9-4.6,11.7-9.9,17.5-11.7l0.9-0.3c5.8-1.8,14,0.1,18.3,4.3c4.3,4.1,6.8,10.4,5.6,13.9c-1.3,3.5-0.5,8.1,1.6,10.3
	c2.1,2.1,7.2,0.3,11.2-4.1c4-4.4,4-11.7-0.1-16.1l-8.1-8.9c-4.1-4.5-6.9-9.1-6.2-10.4c0.6-1.3,5.2,0.5,10.2,4l5.7,4
	c5,3.4,11,10.7,13.5,16.3l5.2,11.5c2.5,5.5,6.3,9.1,8.6,8c2.3-1.1,2.7-5.9,0.9-10.5c-1.8-4.7-0.6-9,2.5-9.6
	c3.1-0.6,7.8,3.3,10.3,8.8l0.5,1.1c2.5,5.5,9.5,10.1,15.5,10.3c0,0,19.2,0.6,20.6,1.5c1.4,0.9,1.2,2.4,1.2,2.4c-0.9,6-4,14-6.9,17.9
	c-2.9,3.9-8.4,7.7-12.3,8.5c-3.9,0.8-11.8-0.1-17.5-1.9l-16.6-5.3c-5.8-1.8-10.3-0.4-10,3.1c0.3,3.5-2.7,6.5-6.6,6.6
	c-3.9,0.1-11.5-2.1-16.8-4.8l-1.6-0.8c-5.3-2.8-10.3-10-11.1-16l-0.1-0.6c-0.7-6-6.3-10.9-12.3-10.9h-11.4c-6,0-14.6,2.4-19,5.3
	c-4.4,2.9-11,4.6-14.6,3.9c-3.6-0.8-10.5,1.6-15.3,5.3c-4.8,3.6-9.3,10.6-10.1,15.5c-0.8,4.9-4.2,12.9-7.8,17.8l-11.5,16
	c-3.5,4.9-6.7,13.8-7,19.9l-1.1,19c-0.3,6,1.9,15.2,5,20.4l16.7,28c3.1,5.2,10.5,9,16.5,8.4l7.9-0.7c6-0.6,15.3-3.3,20.7-6.1
	l3.4-1.8c5.4-2.8,11.7-1.6,14.1,2.7c2.4,4.3,8,8.9,12.6,10.3c4.5,1.4,7.1,7.3,5.7,13.2l-0.4,1.5c-1.4,5.9,0.7,14.4,4.7,18.9l3.3,3.7
	c4,4.5,7.9,13.1,8.6,19.1l1.4,11.6c0.7,6-0.3,15.5-2.3,21.2l-2.2,6.3c-2,5.7-1.9,13.8,0.2,18.1c2.1,4.3,4.5,12.7,5.3,18.6l1.7,13
	c0.8,6,3.3,13.4,5.5,16.6c2.3,3.1,5.5,10.5,7.1,16.3l0.4,1.3c1.7,5.8,7.9,10.1,13.9,9.6l8.3-0.8c6-0.5,14-4.8,17.9-9.5l8.5-10.4
	c3.8-4.7,6.9-11.5,6.9-15.1c0-3.6,2.6-8.2,5.7-10.1c3.1-1.9,5.9-4.9,6.2-6.6c0.3-1.8-0.4-7.2-1.4-12.1c-1-4.9,2.2-11.8,7-15.4
	l2.9-2.1c4.9-3.6,9.6-11.4,10.6-17.3l0.2-1.2c1-6,1.1-15.7,0.3-21.7l-2.1-15.3c-0.8-6,1.7-14.7,5.5-19.3l22.5-27
	c3.9-4.6,8.9-13,11.3-18.5l1.1-2.6c2.3-5.6,3.2-11.9,2-14c-1.3-2.1-7.2-3.4-13.2-2.7l-4.2,0.4c-6,0.6-12.9-3.4-15.3-8.9l-29.5-66.8
	c-2.4-5.5-2.7-10.9-0.6-11.9c2.1-1,5.9,2.7,8.3,8.2l26,59.9c2.4,5.5,8.6,7.6,13.8,4.5l31.4-18.6c5.2-3.1,11.7-9.4,14.5-14
	c2.8-4.7,1.3-11.2-3.2-14.6c-4.5-3.4-11.1-5.6-14.6-4.8c-3.5,0.8-9.1-2.7-12.5-7.8l-7-10.5c-3.3-5-4-10.2-1.5-11.4
	c2.5-1.3,8.5,0.6,13.4,4.2l18.9,13.9c4.9,3.6,13.8,6.3,19.8,6l6.4-0.3c6-0.3,14.8,2.5,19.5,6.3l5.2,4.2c4.7,3.8,9.2,11.7,9.9,17.7
	l0.1,1.1c0.7,6,3.2,15.4,5.6,21l10.6,25.1c2.4,5.6,6,7.4,8.2,4.2c2.1-3.3,4.6-10.8,5.5-16.8l0.8-5.3c0.9-6,5.7-13.7,10.7-17.1
	l22.2-15.4c5-3.4,11.9-2.2,15.4,2.7l9.7,13.7c3.5,4.9,7.2,13.8,8.2,19.8l3.7,21.8c1,6,4.4,12.6,7.5,14.7c3.1,2.1,5-1,4.2-7l-1.1-8
	c-0.8-6,2-8.5,6.3-5.6c4.3,2.9,11.5,2,16-2l1.3-1.1c4.5-4,6-11.6,3.2-16.9l-0.8-1.6c-2.8-5.3-6-13.7-7.1-18.6
	c-1.1-4.9,2.5-10.8,8.1-13l26.3-10.6c5.6-2.3,12.8-8.3,16.1-13.4l2.9-4.6c3.2-5.1,6.4-12.5,7-16.5c0.6-4-1.1-11.2-3.9-16.1
	c-2.8-4.9-3.6-11.2-1.8-13.9c1.8-2.8,1.3-6.5-0.9-8.2c-2.3-1.8-2.5-6.3-0.5-10.1c2-3.8,6.3-6.4,9.6-5.9c3.3,0.5,8.3,3.6,11.2,6.9
	c2.9,3.3,4.3,9.3,3.2,13.5c-1.1,4.1-0.8,8.7,0.7,10.1c1.5,1.4,4.9-1.3,7.5-5.9c2.6-4.7,3.5-12,1.8-16.2c-1.6-4.3,0.7-11,5.3-15
	c0,0,15.1-13.3,16.5-13.3s12.1-12.7,12.1-12.7c3.9-4.6,8.3-12.6,9.8-17.7c1.5-5.2,2.8-12.5,3-16.2c0.1-3.8-4.1-9.2-9.4-12.1
	c-5.3-2.9-6.3-8.9-2.3-13.5l14.7-16.5c4-4.5,12.2-7.8,18.2-7.4l20.6,1.6c6,0.5,15-1.9,20-5.3l5.6-3.7c5-3.4,13.5-3.9,18.9-1.2
	c0,0,1.2,0.6,2.5,1c1.4,0.5-27,27.4-27.4,28.8c-0.5,1.4-0.8,21.5-0.8,21.5c-0.1,6,1.8,10.8,4.2,10.5c2.4-0.3,6.9-4.7,10.1-9.8
	l12.3-20.1c3.1-5.1,6.4-13.4,7.3-18.3c0.9-4.9,6.5-8.4,12.5-7.7l3.3,0.4c6,0.7,12-1.2,13.4-4.1c1.4-2.9,7.3-6.5,13.1-8.1l0.8-0.2
	c5.8-1.6,10.5-5.2,10.4-8.1c-0.1-2.9,3.2-7,7.3-9.1c4.1-2.1,12.1-2,17.6,0.4l4.5,1.9c5.6,2.4,11.7,1.3,13.8-2.3
	C1542.8,372.1,1540.3,366.3,1535.3,362.9z M991.3,786.7c-0.5,3.1-2.8,8.3-5,11.5c-2.3,3.2-6.7,6.7-9.9,7.8c-3.2,1.1-5.2,4.3-4.3,7.1
	c0.8,2.8,2,6.5,2.6,8.2c0.6,1.7-0.3,4.5-2.2,6.2c-1.8,1.7-2.1,7.2-0.7,12.2c1.4,5,4.9,9.7,7.8,10.4c2.8,0.7,5.7,0.5,6.4-0.5
	c0.7-0.9,2.4-6.5,3.9-12.4l7.8-31.5c1.4-5.9,0.8-13.8-1.4-17.7C994,784.1,991.8,783.5,991.3,786.7z M1395.7,859.7
	c-1.2-5.9-4.9-14.9-8.2-19.9l-6.4-9.8c-3.3-5-7.9-13.8-10.1-19.4l-5-12.5c-2.2-5.6-5.9-11.2-8.2-12.4c-2.3-1.2-4.6,2.7-5.2,8.7
	l-0.9,9c-0.6,6-5.3,8.3-10.4,5.1l-0.6-0.4c-5.1-3.2-9.2-7.5-9.1-9.6c0.1-2.1,1.2-4.3,2.4-5c1.2-0.7,2.2-2.4,2.2-3.9
	c0-1.5-4.9-2.2-10.9-1.5l-0.1,0c-6,0.7-12.8,3.7-15,6.7c-2.3,3-6.7,4.5-9.8,3.3c-3.1-1.2-8.5,1.8-11.9,6.8l-4.9,7
	c-3.5,4.9-10.7,11.3-16,14l-11,5.7c-5.4,2.8-11,6.7-12.5,8.8c-1.5,2.1-0.9,8.4,1.4,13.9c0,0,6.5,16.2,6.5,17.3
	c0,1,3.5,17.1,3.5,17.1c1.3,5.9,7.1,9.4,12.9,7.7l37.5-10.8c5.8-1.7,13.1-0.3,16.2,3.1c3.1,3.4,7.8,5.4,10.5,4.6
	c2.6-0.8,6.8,3,9.2,8.6l2.8,6.3c2.4,5.5,7.7,9.7,11.6,9.2c4-0.5,12-1.8,17.8-2.9c5.8-1.1,12.1-6,13.9-10.9
	c1.8-4.8,5.1-12.6,7.4-17.1c2.3-4.6,3.1-13.2,2-19.1L1395.7,859.7z M1372.3,930.9c-4,0-5.6,3.8-3.6,8.4c2,4.6,5.2,4.6,7.2,0
	C1377.9,934.7,1376.3,930.9,1372.3,930.9z M1314.3,743.5l2.3,0.5c5.9,1.2,14.1,5.9,18.1,10.4l8.5,9.4c4.1,4.5,12.3,8.9,18.2,9.9
	l11.3,1.9c6,1,10.8-3.1,10.8-9.2v-2.7c0-6-4.4-13.3-9.7-16.1l-9.4-4.9c-5.3-2.8-14.6-5.9-20.6-6.8l-15.4-2.5c-6-1-14,0.4-17.9,3.1
	C1306.7,739,1308.4,742.2,1314.3,743.5z M1293.7,691.6l3.8-10.1c2.1-5.7,1.1-14.4-2.1-19.5l-10.9-16.8c-3.3-5.1-7.8-4.6-9.9,1
	l-3.1,7.9c-2.2,5.6-1.4,14.5,1.7,19.6l11.1,18.6C1287.3,697.6,1291.5,697.2,1293.7,691.6z M1252.7,704.6l-16.7,10.6
	c-5.1,3.2-5.8,9.4-1.5,13.6l6.4,6.4c4.3,4.3,12.6,8.5,18.6,9.4l18.1,2.7c6,0.9,7.2-1.7,2.7-5.7l-10.2-9.1c-4.5-4-8.2-12.3-8.2-18.3
	v-4.6C1261.9,703.6,1257.8,701.3,1252.7,704.6z M1286.4,774.1c1.1-3.8-2.7-8.3-8.5-10l-40.7-12.1c-5.8-1.7-13.7-6.9-17.7-11.4
	l-21.4-24.9c-3.9-4.6-11.4-8.3-16.5-8.3c-5.2,0-6.6,4.1-3.1,9l26.8,38.7c3.4,5,11.1,10.1,16.9,11.5l51.3,11.9
	C1279.5,779.8,1285.3,777.9,1286.4,774.1z M1322.6,569.3l20.5-7.3c5.7-2,10.9-8.6,11.6-14.6l10.2-85.6c0.7-6-0.7-12.3-3-14.1
	c-2.4-1.8-5.2,1.7-6.3,7.6l-12.6,69.8c-1.1,5.9-5.8,13.9-10.5,17.6l-11.6,9.2c-4.7,3.8-8.6,10-8.6,13.9
	C1312.2,569.8,1316.9,571.3,1322.6,569.3z M766.1,457.6c3,0.8,7.5-2.9,10.1-8.3c2.6-5.4,5.4-8.9,6.3-7.6c0.9,1.2,0.7,7.1-0.4,13
	l-0.1,0.7c-1.1,5.9,2.8,9.8,8.7,8.5l0,0c5.9-1.2,12.8-5,15.3-8.4c2.5-3.4,1.3-9.9-2.7-14.4l-1.1-1.2c-4-4.5-7.9-12.5-8.6-17.7
	c-0.8-5.2-5.4-9.5-10.3-9.5c-4.9,0-8.1,4.9-7.1,10.8c0,0,0.9,5.1,0.9,5.8c0,0.7-10.6,17.5-10.6,17.5
	C763.3,451.9,763.1,456.7,766.1,457.6z"/>
</svg>
