<!-- Generator: Adobe Illustrator 23.0.3, SVG Export Plug-In  -->
<svg version="1.1" xmlns="http://www.w3.org/2000/svg" xmlns:xlink="http://www.w3.org/1999/xlink" x="0px" y="0px"
	 width="1049.6px" height="2122.4px" viewBox="0 0 1049.6 2122.4" style="enable-background:new 0 0 1049.6 2122.4;"
	 xml:space="preserve">
<style type="text/css">
	.st0{fill:#FFFFFF;}
</style>
<defs>
</defs>
<path class="st0" d="M930.3,351.2c2.6-6.1,9.6-9,15.7-6.4l99.7,42.1c23.3-148.2-56.2-299.8-200.2-360.6l0,0
	C701.4-34.6,537.3,14.1,447.2,134l383.9,162.2c6.1,2.6,9,9.6,6.4,15.7l-17.6,41.7c-2.6,6.1-9.6,9-15.7,6.4L411.4,194.1
	c-1.5,3.4-3.1,6.7-4.5,10.2l-30.9,73.2l392.9,166c6.1,2.6,9,9.6,6.4,15.7l-17.6,41.7c-2.6,6.1-9.6,9-15.7,6.4L349,341.3l-35.2,83.4
	l392.9,166c6.1,2.6,9,9.6,6.4,15.7l-17.6,41.7c-2.6,6.1-9.6,9-15.7,6.4l-392.9-166l-35.2,83.4l392.9,166c6.1,2.6,9,9.6,6.4,15.7
	l-17.6,41.7c-2.6,6.1-9.6,9-15.7,6.4l-392.9-166l-35.2,83.4l392.9,166c6.1,2.6,9,9.6,6.4,15.7L571,942.7c-2.6,6.1-9.6,9-15.7,6.4
	L165.5,784.4c-37.1,141.3,23.1,292.2,146.8,369.3l-52.7,126.6c-48.4,5.8-90.4,40.9-102.7,91c-13.5,55.2,13.3,110.9,61.8,135.9v455.2
	H99.9c-54.9,0-99.9,45-99.9,99.9v60.2h547.8v-60.2c0-54.9-45-99.9-99.9-99.9H329.3v-455.2c29.8-15.4,53.1-43.2,61.8-78.4
	c9.9-40.4-1.8-81-27.7-109.7l51.3-123.2c139.7,31.8,286.7-30.2,361.1-153.5l-105.6-44.6c-6.1-2.6-9-9.6-6.4-15.7l17.6-41.7
	c2.6-6.1,9.6-9,15.7-6.4l108.7,45.9l35.2-83.4l-108.7-45.9c-6.1-2.6-9-9.6-6.4-15.7l17.6-41.7c2.6-6.1,9.6-9,15.7-6.4l108.7,45.9
	l35.2-83.4l-108.7-45.9c-6.1-2.6-9-9.6-6.4-15.7l17.6-41.7c2.6-6.1,9.6-9,15.7-6.4l108.7,45.9l35.2-83.4l-108.7-45.9
	c-6.1-2.6-9-9.6-6.4-15.7l17.6-41.7c2.6-6.1,9.6-9,15.7-6.4L992.5,538l30.9-73.2c1.4-3.4,2.8-6.9,4.1-10.3L919,408.6
	c-6.1-2.6-9-9.6-6.4-15.7L930.3,351.2z"/>
</svg>
