<!-- Generator: Adobe Illustrator 22.0.1, SVG Export Plug-In  -->
<svg version="1.1"
	 xmlns="http://www.w3.org/2000/svg" xmlns:xlink="http://www.w3.org/1999/xlink" xmlns:a="http://ns.adobe.com/AdobeSVGViewerExtensions/3.0/"
	 x="0px" y="0px" width="154.4px" height="386.9px" viewBox="0 0 154.4 386.9" style="enable-background:new 0 0 154.4 386.9;"
	 xml:space="preserve">
<style type="text/css">
	.st0{fill:#561A15;}
	.st1{fill:#EDA87A;}
	.st2{fill:#FFC599;}
	.st3{fill:url(#SVGID_1_);}
	.st4{fill:url(#SVGID_2_);}
	.st5{fill:#451615;}
	.st6{fill:#FFFFFF;}
	.st7{fill:#2E1710;}
	.st8{fill:url(#SVGID_3_);}
	.st9{fill:url(#SVGID_4_);}
	.st10{fill:url(#SVGID_5_);}
	.st11{fill:#7D4027;}
	.st12{display:none;}
	.st13{display:inline;fill:#F16E5C;}
	.st14{display:inline;fill:#F7F8EE;}
	.st15{fill:#DB463B;}
	.st16{fill:#0A0D0D;}
	.st17{fill:#15191B;}
	.st18{fill:#181E22;}
	.st19{fill:#EFA98E;}
	.st20{fill:#BDE5EF;}
	.st21{fill:#C7E5EA;}
	.st22{fill:#ADDFEA;}
	.st23{fill:#0D3759;}
	.st24{fill:#09324C;}
	.st25{fill:#EC2C26;}
	.st26{fill:#E28A76;}
	.st27{fill:#442113;}
	.st28{fill:#7D3D1D;}
	.st29{fill:#A35625;}
	.st30{fill:#552A17;}
	.st31{fill:#602F1C;}
	.st32{fill:#4C2515;}
	.st33{fill:#441C0C;}
	.st34{fill:#DA9828;}
	.st35{fill:#EEB01E;}
	.st36{fill:#0A446B;}
	.st37{fill:#DDF1F7;}
	.st38{fill:#205682;}
	.st39{fill:url(#SVGID_6_);}
	.st40{fill:url(#SVGID_7_);}
	.st41{fill:url(#SVGID_8_);}
	.st42{fill:url(#SVGID_9_);}
	.st43{fill:url(#SVGID_10_);}
</style>
<defs>
</defs>
<g>
	<g>
		<path class="st0" d="M76.6,5.5c6.3-9.8,59.1-16.3,75.8,84.5c4.8,29.3,1.4,60.9-69.6,58.4C6.5,145.7,19.5,93.2,21,84.9
			C30.7,30.6,62.8-5.4,76.6,5.5z"/>
		<path class="st1" d="M95.5,162.3c1.4,5.4-23.2,4.7-22.2-0.8c0.5-2.7,1.8-16.8,0.8-22.2c-1-5.5,23-4.7,22.2,0.8
			C95.5,145.1,94.6,159,95.5,162.3z"/>
		<path class="st2" d="M123.3,54c-0.9-10.3-7.3-28.2-19-32.1c-1.3-0.6-28.5-1.6-29.8-1.1c-12,3.1-19.6,19.6-21.3,30.7
			C51.5,63.1,49.4,94,51,108.1c0.8,6.5,6.6,36.4,32.3,38.6c0.2,0,0.8,0,1.5,0.1c0.8,0,1.7,0,2.1,0c25.4-0.9,33.3-29.8,34.5-36.2
			C124.1,96.7,124.4,65.7,123.3,54z"/>
		
			<linearGradient id="SVGID_1_" gradientUnits="userSpaceOnUse" x1="1383.808" y1="94.784" x2="1380.7509" y2="63.9588" gradientTransform="matrix(0.9924 0.1232 -0.1232 0.9924 -1272.4366 -154.7259)">
			<stop  offset="0" style="stop-color:#F2885E"/>
			<stop  offset="0.2652" style="stop-color:#F49369"/>
			<stop  offset="0.7333" style="stop-color:#FBB186"/>
			<stop  offset="1" style="stop-color:#FFC599"/>
		</linearGradient>
		<path class="st3" d="M89.5,79.4c-0.4,21.1,6.1,21.7,6,24.7c-0.1,1.9-7.4,5.2-10.7,2.8c-3.6-2.6,0.1-26.4,0.4-28.5
			C85.7,74.7,89.6,75,89.5,79.4z"/>
		<g>
			<g>
				
					<linearGradient id="SVGID_2_" gradientUnits="userSpaceOnUse" x1="1412.3097" y1="-88.061" x2="1407.6591" y2="-113.6991" gradientTransform="matrix(0.9862 0.1653 -0.1653 0.9862 -1303.5005 -54.8716)">
					<stop  offset="0.3265" style="stop-color:#FFC59C"/>
					<stop  offset="1" style="stop-color:#F5A680"/>
				</linearGradient>
				<path class="st4" d="M92.7,69.9c-2.1,6.8-1.9,24.9,11.5,24.7c12.6-0.2,13-21,9.6-25C107.6,62.3,94.9,62.7,92.7,69.9z"/>
				<path class="st5" d="M113.7,70.2c0.4,0.3,0.7,0.5,0.9,0.5c0.2,0-0.4-1.5-1.6-3c-1.7-2.2-5.3-4.8-9.8-4.9c-2.6-0.1-6,0.5-8.4,2.5
					c-1.6,1.3-1.5,2.4-1,2.3C95.9,67.1,104.7,61.9,113.7,70.2z"/>
				
					<ellipse transform="matrix(2.659737e-02 -0.9996 0.9996 2.659737e-02 18.2467 182.613)" class="st6" cx="102.9" cy="81.9" rx="6.5" ry="5.5"/>
				<path class="st7" d="M104.9,80.9c0,1.2-1,2.2-2.3,2.1c-1.2,0-2.2-1-2.1-2.3c0-1.2,1-2.2,2.3-2.1C104,78.6,104.9,79.7,104.9,80.9
					z"/>
			</g>
			<g>
				
					<linearGradient id="SVGID_3_" gradientUnits="userSpaceOnUse" x1="220.0318" y1="68.1854" x2="215.3813" y2="42.5481" gradientTransform="matrix(-0.9955 9.470000e-02 9.470000e-02 0.9955 282.52 1.813)">
					<stop  offset="0.3265" style="stop-color:#FFC59C"/>
					<stop  offset="1" style="stop-color:#F5A680"/>
				</linearGradient>
				<path class="st8" d="M82.6,69.5c1.6,6.9,0.1,25-13.2,23.8c-12.6-1.1-11.5-21.9-7.8-25.6C68.3,60.9,80.9,62.2,82.6,69.5z"/>
				<path class="st5" d="M61.6,68.3c-0.4,0.3-0.7,0.4-0.9,0.4c-0.2-0.1,0.5-1.5,1.8-2.9c1.9-2,5.6-4.4,10.1-4.2
					c2.6,0.1,5.9,0.9,8.2,3c1.5,1.4,1.4,2.5,0.8,2.4C79.6,66.5,71.2,60.7,61.6,68.3z"/>
				<path class="st6" d="M77.1,81.1c-0.2,3.6-2.8,6.4-5.8,6.2c-3-0.1-5.4-3.1-5.2-6.7c0.2-3.6,2.8-6.4,5.8-6.2
					C75,74.5,77.3,77.5,77.1,81.1z"/>
				<path class="st7" d="M69.7,79.6c-0.1,1.2,0.9,2.2,2.1,2.3C73,82,74,81,74.1,79.8c0.1-1.2-0.9-2.2-2.1-2.3
					C70.8,77.5,69.8,78.4,69.7,79.6z"/>
			</g>
		</g>
		
			<linearGradient id="SVGID_4_" gradientUnits="userSpaceOnUse" x1="771.9423" y1="-51.8348" x2="817.0181" y2="-51.8348" gradientTransform="matrix(0.9862 0.1653 -0.1653 0.9862 -694.4594 -33.1785)">
			<stop  offset="0" style="stop-color:#F39E7C"/>
			<stop  offset="0.3524" style="stop-color:#F6A984"/>
			<stop  offset="0.936" style="stop-color:#FFC599"/>
		</linearGradient>
		<path class="st9" d="M117.6,61.9c-1.8,2.3-9.4,4.4-26-7.4C83,48.5,75.5,37.9,77,34.2c4.1-10.1,17.6,1.6,23.9,6.3
			C107.5,45.4,121.6,56.7,117.6,61.9z"/>
		
			<linearGradient id="SVGID_5_" gradientUnits="userSpaceOnUse" x1="740.4814" y1="-122.3104" x2="721.068" y2="-98.1215" gradientTransform="matrix(1.0245 0.2333 -0.2278 1.0423 -704.2418 -12.5934)">
			<stop  offset="0" style="stop-color:#F39E7C"/>
			<stop  offset="0.3524" style="stop-color:#F6A984"/>
			<stop  offset="0.936" style="stop-color:#FFC599"/>
		</linearGradient>
		<path class="st10" d="M79.3,29.9c1.2-0.1,4.1,1.1,4.4,2.3C85,37.3,77,47.1,73.1,50.5c-4,3.5-18.2,9.5-20.5,4.6
			C48.6,46.8,70.1,30.3,79.3,29.9z"/>
		<path class="st0" d="M76.1,16.4C75.6,44.1,100.6,59,118.8,65c29.1,9.6,0.7-43-9.4-51.6C95,1,76.2,11.6,76.1,16.4z"/>
		<path class="st0" d="M73.8,14.1c4.6,0.2,6.4,7.9,6,12.6c-0.6,5.9-6.8,23.9-28.5,32.8c-5.5,2.3-7.2-11.6-5.7-16.5
			C47.3,37.5,67.3,13.8,73.8,14.1z"/>
		<path class="st11" d="M76.6,5.5c0,0-1.7,1.2-1.9,4.3c-0.2,4.3,5.8,11.5,4.5,22.2C76.8,52.4,59.5,63.7,50,63.6
			c-7.9-0.2-6.2-9.1-5.8-9.2c0.7-0.2,1.8,7.5,13.6-1.4c5.1-3.9,9.6-13,8.9-24c-0.4-7.3-1.2-15.2,2.6-20.2C72,5.1,76.6,5.5,76.6,5.5z
			"/>
		<path class="st11" d="M95,5c20.1,4.1,36.8,28.8,44.7,55.1c4.3,14.2,16.1,57.3-0.1,77c15.6-11.4,16.1-28.8,13.5-46.3
			C137.9-10.7,83.9-5.2,76.6,5.5C76.6,5.5,83.3,2.6,95,5z"/>
		<g class="st12">
			<path class="st13" d="M99.9,115.8c-0.4-0.5-3,1.8-14,1.2c-11.1-0.6-13.9-3.2-14.3-2.8c-0.3,0.3,3.4,12.3,14.7,12.8
				C97.2,127.5,100.2,116.1,99.9,115.8z"/>
			<path class="st14" d="M86,116.3c-10.9-0.5-14.1-2.9-14.5-2.5c-0.1,0.1,0.1,1.1,0.5,2c0.1,0.2,4.9,3.3,13.9,3.7
				c9.1,0.5,13.7-2,13.7-2.1c0.4-1,0.5-2,0.4-2.1C100,114.9,96.7,116.8,86,116.3z"/>
		</g>
		<path class="st15" d="M74.7,115.3c-0.8-0.9-1.2-2.1,0.5-0.8c1.7,1.3,6.4,4.3,12,4.5c4.2,0.1,7.7-0.8,11.3-3.4
			c1.4-1,1.7-0.7,0.7,0.5c-3.2,3.6-8.2,6.3-12.1,6.2C81.2,122.1,76.2,117,74.7,115.3z"/>
	</g>
	<g>
		<g>
			<path class="st16" d="M87,369.4c0,0,0,10.1,0.6,10.4c0.5,0.2,2.8-0.5,2.8-0.5l0.6-6L87,369.4z"/>
			<path class="st17" d="M84,366.6c0,0,0.6,11.5,1,11.8c1.2,0.8,2.1,1.2,2.7,1.5c0.5,0.2,0.2-8.3,0.2-8.3L84,366.6z"/>
			<path class="st18" d="M104.4,374c1.4,1.6,1.1,1.9-0.5,3.1c-1.1,0.9-2.4,0.8-3.3,0.3c-2.1-1.4-12.9-11.3-13.9-12.5
				c-1.6-2.1-1.3-3.5-1.4-3.6c-0.1-0.1-3.1,4-0.2,8.9c2.7,4.5,7.4,9.7,11.8,13c8.2,6.1,14.9,3.6,15,1.6c0.2-3.3-3.2-8.2-5.8-10.9
				c-1.2-1.3-3.4-3.1-3.5-3C102.5,371,102.6,372,104.4,374z"/>
			<path class="st2" d="M86.1,365c0.9,2.1,6.8,9.4,11.8,12.6c1.5,1,4.4,2.8,7.3,1.6c2.4-1,1.9-3.1,0.9-5c-0.6-1.2-1.2-1.9-1.6-2.3
				c-3.7-3.7-7.6-7-9.7-8.7c-1.2-1-1.1-0.8-0.8-2c1.6-7.3,10.3-47.6,10.7-63.9c0-1-18.3-1-20,3.8c-4.8,12.9-1.2,48.7,0.7,60.3
				C85.4,361.9,85.1,362.7,86.1,365z"/>
			<path class="st19" d="M104.1,305.6c0.4-3.2,0.6-6,0.6-8.4c0-1-18.3-1-20,3.8c-0.7,1.8-1.2,4.1-1.6,6.8
				C93.2,307.6,100.1,306.5,104.1,305.6z"/>
		</g>
		<g>
			<path class="st16" d="M75.7,369.4c0,0,0,10.1-0.6,10.4c-0.5,0.2-2.8-0.5-2.8-0.5l-0.6-6L75.7,369.4z"/>
			<path class="st17" d="M78.7,366.6c0,0-0.6,11.5-1,11.8c-1.2,0.8-2.1,1.2-2.7,1.5c-0.5,0.2-0.2-8.3-0.2-8.3L78.7,366.6z"/>
			<path class="st18" d="M58.4,374c-1.4,1.6-1.1,1.9,0.5,3.1c1.1,0.9,2.4,0.8,3.3,0.3c2.1-1.4,12.9-11.3,13.9-12.5
				c1.6-2.1,1.3-3.5,1.4-3.6c0.1-0.1,3.1,4,0.2,8.9c-2.7,4.5-7.4,9.7-11.8,13c-8.2,6.1-14.9,3.6-15,1.6c-0.2-3.3,3.2-8.2,5.8-10.9
				c1.2-1.3,3.4-3.1,3.5-3C60.3,371,60.2,372,58.4,374z"/>
			<path class="st2" d="M76.6,365c-0.9,2.1-6.8,9.4-11.8,12.6c-1.5,1-4.4,2.8-7.3,1.6c-2.4-1-1.9-3.1-0.9-5c0.6-1.2,1.2-1.9,1.6-2.3
				c3.7-3.7,7.6-7,9.7-8.7c1.2-1,1.1-0.8,0.8-2c-1.6-7.3-10.3-47.6-10.7-63.9c0-1,18.3-1,20,3.8c4.8,12.9,1.2,48.7-0.7,60.3
				C77.3,361.9,77.6,362.7,76.6,365z"/>
			<path class="st19" d="M58.7,305.6c-0.4-3.2-0.6-6-0.6-8.4c0-1,18.3-1,20,3.8c0.7,1.8,1.2,4.1,1.6,6.8
				C69.5,307.6,62.6,306.5,58.7,305.6z"/>
		</g>
	</g>
	<g>
		<path class="st20" d="M96.5,152.3c-0.2,0-4.3,3.7-11.3,3.3c-7-0.6-10.4-4.9-10.7-4.9c-8.4-0.8-18.2,5.5-17.2,23.3
			c0.1,2.2,4,20.7,3.4,28.3c-0.3,4.1,13.7,5.3,20.6,5.8c6.9,0.6,20.9,1.4,21.2-2.7c0.6-7.9,7.1-25.3,7.5-27.5
			C113.7,160.3,104.9,152.7,96.5,152.3z"/>
		<g>
			<path class="st21" d="M97.7,164.9c15.6,15.5,10.2,30.4-0.6,32.5c-1.9,0.4-8.4-1.6-9.4-10.2C86.8,178.6,93.7,161,97.7,164.9z"/>
			<path class="st21" d="M71.5,163c-17.6,13-14.5,28.6-4.1,32.2c1.8,0.6,8.6-0.4,10.7-8.8C80.2,178.2,75.9,159.7,71.5,163z"/>
		</g>
		<path class="st22" d="M82.8,194.3c-0.1,0-0.2,0-0.3,0c0,0,0,0,0,0c0,0,0,0,0,0c0,0,0,0,0,0c0,0,0,0,0,0c0,0,0,0,0,0c0,0,0,0,0,0
			c0,0,0,0,0,0c0,0,0,0,0,0c-0.2,0-0.5,0-0.7,0c-7.3-0.3-15.1,2.4-21.7-3.5c1,5,0.8,10.2,0.8,11.6c0.9,0.9,3.5,4.2,15.1,5.4
			c1.8,0.2,3.6,0.4,5.5,0.6c0,0,0,0,0,0c0,0,0,0,0,0c0,0,0,0,0,0c0,0,0,0,0,0c1.8,0.2,3.7,0.2,5.5,0.2c11.7,0.4,14.7-2.4,15.8-3.2
			c0.2-1.4,0.7-6.5,2.5-11.4C97.7,199.1,90.3,195,82.8,194.3z"/>
	</g>
	<g>
		<path class="st23" d="M104.5,208.2c-1.1-1.2-22-1.7-23.1-1.6c-1.2,0-21.8,0.6-22.9,1.7c-13.4,13.4-16,43.6-3.5,90.6
			c0.3,1.1,6.2,4.4,25.6,4.4c0.2,0,1.3,0,1.6,0c19.4,0,25.6-3.2,25.9-4.3C120.6,252.1,117.9,221.7,104.5,208.2z"/>
		<path class="st24" d="M71.8,206.9c-6.1,0.3-12.9,0.7-13.5,1.3c-13.4,13.4-16.1,43.9-3.6,90.8c0.2,0.9,4.3,3.1,16.1,4
			C60.2,252.6,61.1,225.9,71.8,206.9z"/>
		<path id="belt_1_" class="st25" d="M102.6,201.1c-5.7,2-13.5,2.7-21.2,2.8c-7.7-0.1-15.5-0.8-21.2-2.8c-1.1-0.4-3.8,7.3-2,8.2
			c2.4,1.1,11.6,2.7,23.2,2.6c11.6,0.1,20.8-1.5,23.2-2.6C106.3,208.4,103.7,200.7,102.6,201.1z"/>
	</g>
	<g>
		<path class="st26" d="M34.9,236.2c1.7,1.2,4.5,5.1,5.3,8c0.8,2.8-3,8.2-5,9c-0.9,0.4-1.5-1.7,0-4.8c0.5-1,0.5-1.3,0.5-1.6
			c-0.3-0.6-1.9-2-2.5-2.7C32.6,243.3,32.8,234.8,34.9,236.2z"/>
		<g>
			<path class="st27" d="M25.9,356.7c-0.4,0-0.8,0-1.3-0.1C2.6,354.8,4,303.1,4,300.9l4.1-0.4c-0.4,13.8,1.7,53.8,16.8,55.1
				C27.6,355.9,29.2,356.7,25.9,356.7z"/>
			<path class="st28" d="M38.5,306.6c-2.2-0.4-5.1-4-20.5-5.5c-12.9-1.3-17.9,3.4-18-5C-0.1,282,1.7,268,3.4,259.9
				c1.5-7.1,4.5-8.2,6-8.5c5.2-1,36.1,1.5,38.1,4c2,2.5,0.3,17.9-3,32.7C43.3,293.4,38.5,306.6,38.5,306.6z"/>
			<path class="st29" d="M46.8,255c-2.1,0-3.9,3.4-5.3,8.3c-4.2,14.3-5.6,42.1-3.7,43c2.9,1.4,4.9-1.4,9-1.3
				c4.8,0.1,5.3,2.6,7.8,1.8c3.1-1.1,1.7-29.8-2.6-44C50.6,258.2,48.8,255,46.8,255z"/>
			<path class="st30" d="M42.3,253.6c-0.1-0.5-1.5,0.1-3.2-2.6c-3-4.6-6.5-8.4-12.3-8.7c-4.6-0.2-9.3,2.4-12.3,6.5
				c-1.8,2.4-3.1,1.5-3.2,2c0,0.3,0,1,0.3,1c0.5,0.1,4.1,0.3,5.6-1.2c2.7-2.9,6.3-4.4,9.5-4.2c3.3,0.2,7.1,2.5,9.8,5.9
				c1.4,1.8,5.1,2.2,5.6,2.3C42.4,254.5,42.4,253.8,42.3,253.6z"/>
			<path class="st31" d="M25.9,356.7c-0.4,0-0.8,0-1.3-0.1c-1.4-0.1-3.4-1.3,0.3-1c2.7,0.2,5.9-2.1,7.7-4.1
				c7.8-8.5,9.2-36.1,10.1-62.1c0.3-9.8,0.7-19.9,1.4-28.9l0.2-1.7c0.1-0.6,0.1-2.1,0-3.1c-0.1-0.5-0.1-1.2,1.9-1
				c1.6,0.1,1.8,0.2,2,0.7c0.5,1.2,0.3,2.3,0.1,3.8l-0.2,1.7c-0.8,8.9-1.1,18.9-1.4,28.7c-0.9,28.1-1.8,54.6-12.1,63.8
				C32.1,355.6,29.2,356.7,25.9,356.7z"/>
			<g>
				<path class="st30" d="M33.6,269.7C26,267.9,16.7,266.9,9,267c-0.3,0-0.5-0.2-0.5-0.5l0-1c0-0.3,0.2-0.5,0.5-0.5
					c7.9-0.1,17.4,0.9,25.1,2.7c0.3,0.1,0.5,0.4,0.4,0.6l-0.2,0.9C34.2,269.6,33.9,269.7,33.6,269.7z"/>
				<path class="st32" d="M33.6,269.7C26,267.9,16.7,266.9,9,267c-0.3,0-0.5-0.2-0.5-0.5l0,0c0-0.3,0.2-0.5,0.5-0.5
					c7.9-0.1,17.2,0.7,25,2.5c0.3,0.1,0.5,0.4,0.4,0.6l0,0.1C34.2,269.6,33.9,269.7,33.6,269.7z"/>
				<path class="st33" d="M33.1,270.3l-1.4-0.4c-0.2-0.1-0.4-0.3-0.3-0.5l0.6-2.2c0.1-0.2,0.3-0.4,0.5-0.3l1.4,0.4
					c0.2,0.1,0.4,0.3,0.3,0.5l-0.6,2.2C33.6,270.2,33.4,270.4,33.1,270.3z"/>
				<path class="st33" d="M33.6,270.4c0-0.2-0.7-0.5-0.8-0.5c-0.1,0-0.7,0.3-0.7,0.5c0,0-0.7,3.7-0.7,5.1c0,0.8,0.7,1.5,1.5,1.5
					c0.8,0,1.5-0.7,1.5-1.5C34.4,274.1,33.6,270.4,33.6,270.4z M32.9,276.5c-0.5,0-1-0.4-1-1s0.4-1,1-1c0.5,0,1,0.4,1,1
					S33.4,276.5,32.9,276.5z"/>
			</g>
		</g>
		<path class="st2" d="M35,254c0.7-1.2,0.2-6.2,0.5-7.7c0.4-2.4,1.8-4.5,1.8-6.5c0-1.2-0.8-2.4-2-3.8c-2.4-2.8-9.7-2.7-12.3-0.8
			c-1.7,1.3-5.3,6.7-5.9,8.6c-0.7,2,0.9,6.8,2.1,8.5c0.7,0.9,2.1,1.5,2.9,1.5c1.3,2.3,3.8,2.4,4.7,1.9c0,0,0,0,0,0
			c1.7,1.2,3.4,0.7,4.2,0c0.1-0.1,0.2-0.2,0.3-0.4C32.3,255.7,34,255.9,35,254z"/>
		<g>
			<path class="st34" d="M47.3,266.1l-3.3-0.3c-0.9-0.1-1.6-0.9-1.5-1.8l0.2-3c0.1-0.9,0.9-1.6,1.8-1.5l3.3,0.3
				c0.9,0.1,1.6,0.9,1.5,1.8l-0.2,3C49.1,265.5,48.2,266.2,47.3,266.1z M44.5,260.7c-0.3,0-0.5,0.2-0.6,0.5l-0.2,3
				c0,0.3,0.2,0.5,0.5,0.6l3.3,0.3c0.3,0,0.5-0.2,0.6-0.5l0.2-3c0-0.3-0.2-0.5-0.5-0.6L44.5,260.7z"/>
			<path class="st35" d="M49.3,263l0.1-1.4c0.1-0.9-0.6-1.7-1.5-1.8l-3.3-0.3c-0.9-0.1-1.7,0.6-1.8,1.5l-0.1,1.4l1.1,0.1l0.1-1.4
				c0-0.3,0.3-0.5,0.6-0.5l3.3,0.3c0.3,0,0.5,0.3,0.5,0.6l-0.1,1.4L49.3,263z"/>
		</g>
	</g>
	<g>
		<g>
			<path class="st36" d="M70.3,150.3c0,0-7.1,2.3-9,3.8c-3.7,2.8-7.4,9.8-4.3,25.9c1.8,9.1,0.7,14.8,0.3,15.8
				c-2.6,6.1-9.2,11.8-11,13.4c-2.3,2.2,20.9,7,24.2,4.7c5.4-3.9,8-12.4,8.7-25.1C80.8,157.3,70.3,150.3,70.3,150.3z"/>
			<g>
				<g>
					<path class="st37" d="M36,231.7c0,1.4-0.1,2.8-0.1,4.4c0,3.2-14.7,2.3-14.5-0.5c0.1-1.7,0.2-3.4,0.4-5
						C22.1,227.6,35.9,227.9,36,231.7z"/>
					<path class="st36" d="M62.2,167.7c-10.7,8.6-23.1,32.7-25.6,66.1c0,0.5-2.2,1.9-8.4,1.2c-5.3-0.6-7.1-2.1-7.1-2.6
						c2.2-47.5,27.9-73.9,40.9-77.8c1.4-0.4,2.4,2.6,3.3,5.5C66.8,165.2,62.2,167.7,62.2,167.7z"/>
				</g>
			</g>
			<path class="st38" d="M70.2,149.9c-0.7-0.4-7.1,1.2-7.5,2c-0.5,1.3,1,10.4,3.2,14.2c0.6,1.1,9-0.4,9-0.3c0.3,0.7-8.9,3.1-8.7,4
				c2.5,9.3,12.3,19.6,12.5,19.6c1.3,0.1,1.9-12.4-0.4-23.4c-0.3-1.2-0.6-2.5-0.9-3.7C75.5,154.9,70.2,149.9,70.2,149.9z"/>
			<path class="st37" d="M73.9,147.1c2.3,2.7,9.8,6.6,10.2,7.4c0.5,1-4.4,9.9-6,10.5c-3.4,1.3-7.6-7.8-8.3-13.2
				C69.7,150.5,73.2,146.3,73.9,147.1z"/>
			<path class="st23" d="M77.3,192.9c-0.1,1-0.9,1.8-1.9,1.7c-1-0.1-1.8-0.9-1.7-1.9c0.1-1,0.9-1.8,1.9-1.7
				C76.7,191,77.4,191.9,77.3,192.9z"/>
		</g>
		<g>
			<path class="st36" d="M99.6,152.2c0,0,6.7,3.2,8.5,4.9c3.3,3.2,6.1,10.6,1,26.3c-2.9,8.8-2.5,14.6-2.2,15.6
				c1.8,6.4,7.7,12.9,9.2,14.7c2,2.4-21.6,4.3-24.6,1.6c-4.9-4.5-6.4-13.3-5.5-26C88.3,157.7,99.6,152.2,99.6,152.2z"/>
			<g>
				<g>
					<path class="st26" d="M117.8,226.4c-1.9-2.1-4.1-4.5-5.8-8.8c-0.9-2.4-0.7-4.5-0.7-5.5c0-0.9-3.8,0.1-4.1,3.9
						c-0.3,3.5,0.8,5.5,1.5,6.5C109.8,224.2,119.3,228,117.8,226.4z"/>
					<path class="st2" d="M105,221.5c-2.1-2.4-10.7-4.8-11.8-4.1c-0.4,0.3-1.6,3.1-3.8,5c-1.8,1.6-4.9,2.8-5.4,3.1
						c-0.6,0.4,0.8,3.8,5.2,2.4c2.5-0.8,5.7-5,5.8-5.2c0.1-0.2,4.6,0.7,7.4,3.6c0.7,0.7,1.9-1.8,2-2.8
						C104.4,222.6,105.4,222,105,221.5z"/>
					<path class="st26" d="M103.1,224.9c-0.1-1.1-3.8-2.9-6.7-3.5c-1.6-0.3-3.1-0.4-3.7,0.5c-2.3,3.5-4.5,5.8-4.4,6.1
						c0.3,1.2,4.7-3.7,5.5-4.1c0.8-0.4,5.7,0.6,8,1C102.2,225.1,103.2,225.4,103.1,224.9z"/>
					<path class="st2" d="M103.3,225c-2.2-2.3-8.8-3.7-9.8-2.9c-0.4,0.3-2.4,3.3-4.5,5.3c-1.7,1.7-3.6,3-4.1,3.4
						c-0.6,0.4,1.3,3.7,5.2,1.9c2.4-1.1,5.5-5.2,5.6-5.4c0.1-0.2,3.6,0.4,6.6,3.2c0.7,0.7,1.8-2,1.8-2.9
						C104,226.6,103.8,225.5,103.3,225z"/>
					<path class="st26" d="M102.5,226.9c-0.3-0.7-3.8-2-5.5-2.1c-0.9-0.1-1.3,0.6-1.5,1c-1.4,2.1-4.1,5-6.3,7.2
						c-0.3,0.3,1.3-0.1,1.7-0.3c2.1-0.8,4.6-4.6,6.7-5.3c1-0.4,3.4,0.3,4.4-0.2C102.1,227.1,102.6,227.1,102.5,226.9z"/>
					<path class="st2" d="M124.1,226.4c-4.1-3.5-6-2.8-7.2-2.5c-2.1,0.4-5.4-3.1-7.4-5.1c-1.6-1.5-7.5-7.6-8.7-7.3
						c-0.5,0.1-3.6,1.9-6.3,2.9c-2.3,0.8-4.6,1.2-5.2,1.3c-0.7,0.2-1,2.9,3.9,3.8c2.6,0.5,7.1-2.3,7.3-2.4c0.2-0.1,2.8,1.7,4.3,5.1
						c-0.3,0.4-0.6,0.8-0.9,1.3c-0.4,0.6-0.9,2-1.3,3.4c-2.4-1.2-5.4-1.7-6.2-1.2c-0.4,0.3-1.8,2.7-3.8,4.6
						c-1.6,1.6-3.3,2.8-3.8,3.1c-0.5,0.4,1.5,3.5,4.9,2c2.3-1,4.5-4.8,4.6-5c0.1-0.2,2.2,0.3,4.5,2.3c6.1,4.4,9.6,6.8,13.9,6.4
						c4.7-0.5,8.7-6.2,9.5-7.7C126.9,229.8,124.5,226.7,124.1,226.4z"/>
				</g>
				<g>
					<path class="st37" d="M120.4,220.9c-1.2,0.7-2.4,1.5-3.7,2.2c-2.8,1.5,5.2,13.9,7.6,12.4c1.5-0.9,2.9-1.8,4.2-2.8
						C130.7,231.1,123.7,219.1,120.4,220.9z"/>
					<path class="st36" d="M109.1,170.7c4.9,2.2,21.4,17.7,22.5,31.7c0.6,7.6-2.8,14.8-13.4,19.1c-0.5,0.2-0.7,2.8,2.8,8
						c2.9,4.5,5.1,5.4,5.6,5.1c17.4-9.7,21.9-21.8,19.7-33.5c-3.9-21.4-29-40.7-38.6-43.4c-1.4-0.4-2.8,2.7-3.4,5.6
						C103.2,168.5,107.3,169.9,109.1,170.7z"/>
				</g>
			</g>
			<path class="st38" d="M99.8,151.7c0.8-0.3,6.9,2.1,7.1,2.9c0.4,1.3-2.3,10.2-4.9,13.6c-0.7,1-8.9-1.5-8.9-1.5
				c-0.4,0.7,8.4,4.2,8.1,5c-3.7,8.9-14.6,17.9-14.9,17.9c-1.3-0.1-0.3-12.6,3.3-23.2c0.4-1.2,0.9-2.4,1.4-3.5
				C93.8,156.1,99.8,151.7,99.8,151.7z"/>
			<path class="st37" d="M96.4,148.5c-2.6,2.4-10.6,5.3-11.1,6.1c-0.6,0.9,3.2,10.4,4.6,11.2c3.2,1.7,8.6-6.8,9.9-12
				C100.2,152.4,97.2,147.8,96.4,148.5z"/>
			<path class="st23" d="M87.2,193.5c-0.1,1,0.7,1.9,1.7,1.9c1,0.1,1.9-0.7,1.9-1.7c0.1-1-0.7-1.9-1.7-1.9
				C88.2,191.8,87.3,192.5,87.2,193.5z"/>
		</g>
	</g>
</g>
</svg>
