<!-- Generator: Adobe Illustrator 22.1.0, SVG Export Plug-In  -->
<svg version="1.1"
	 xmlns="http://www.w3.org/2000/svg" xmlns:xlink="http://www.w3.org/1999/xlink" xmlns:a="http://ns.adobe.com/AdobeSVGViewerExtensions/3.0/"
	 x="0px" y="0px" width="209.7px" height="441px" viewBox="0 0 209.7 441" style="enable-background:new 0 0 209.7 441;"
	 xml:space="preserve">
<style type="text/css">
	.st0{fill:#373735;}
</style>
<defs>
</defs>
<g>
	<path class="st0" d="M1.2,0.1C0.6-0.4,0.2,1.3,0,1.5C1.3,1.7,1.3-0.3,1.2,0.1z"/>
	<polygon class="st0" points="14.5,1.6 14,2.2 16.5,1.4 	"/>
	<path class="st0" d="M25.3,7.2c0.2-1.5-0.9-2-2.1-2.3c-1.3-0.3-2.7-0.3-3.5-1.3l0-0.7l-1.9,1.6c1.2,0.4,2.8,0.7,4.2,1
		C23.5,5.9,24.7,6.4,25.3,7.2z"/>
	<path class="st0" d="M27.9,15.7c0.2-1.2,1.7-0.1-1.1-1.1c0.1,0.2,0.1,0.3,0.1,0.4C27.1,15.1,27.4,15.3,27.9,15.7z"/>
	<path class="st0" d="M26.9,15C25.8,14.4,27.1,16.2,26.9,15L26.9,15z"/>
	<path class="st0" d="M32.2,17.4l-1.9,0c0,0.7,1.1,1.6,0.4,1.7C32.4,19.6,32.4,18.8,32.2,17.4z"/>
	<path class="st0" d="M34.6,16.5l-1-0.1C33.6,16.7,33.8,16.9,34.6,16.5z"/>
	<path class="st0" d="M31.6,16.2l2,0.2c0-0.5,0.5-1.3-0.9-0.2C33.3,15.6,32.6,16.1,31.6,16.2z"/>
	<path class="st0" d="M30.9,15.3c-0.5-1-1.3-2,0.6-2C28.6,12,28,14,30.9,15.3z"/>
	<path class="st0" d="M27.3,4.9l-0.7-1.4l-1.4,0.3C25.9,3.7,26.9,5.7,27.3,4.9z"/>
	<path class="st0" d="M40,24.2c0.4-0.4,0.5-1.7,0.8-2.4l-1.4-0.1C39.6,22.5,40.4,23.4,40,24.2z"/>
	<path class="st0" d="M40.7,21.9l2.1,0.2C41.6,21,41,21.2,40.7,21.9z"/>
	<path class="st0" d="M36.5,13.9c0,0-0.9,0-1.9,0.1c-0.9,0.1-1.9,0.2-1.9,0.2s1.1,0,2.1,0c1.1,0,2.1,0,2.1,0L36.5,13.9z"/>
	<polygon class="st0" points="45.6,28.3 44,28.8 46.7,28.2 	"/>
	<path class="st0" d="M49.5,30.8c-1.3,0.5-0.3,2.2-1.4,2.3c1.1,0.6,2.6,0.4,3.9,0.3C50.8,33.2,50.1,32.4,49.5,30.8z"/>
	<path class="st0" d="M54,33.4c-0.6-0.1-1.3,0-2.1,0C52.5,33.5,53.2,33.6,54,33.4z"/>
	<path class="st0" d="M45.3,24.1c-0.1,0.4-0.4,1.3,0.2,2.2l0.4-1.8C45.7,24.4,45.5,24.2,45.3,24.1z"/>
	<path class="st0" d="M45.9,24.5L45.9,24.5c0.6,0.5,1,0.9,1.2,1.1C46.9,25.4,46.6,25,45.9,24.5z"/>
	<path class="st0" d="M45.1,24c0.1,0,0.1,0.1,0.1,0.1C45.3,23.9,45.3,23.8,45.1,24z"/>
	<path class="st0" d="M39.8,17.9c1.4-0.2,3.9,0.2,2.9-2.2C41.4,16.2,42,17.6,39.8,17.9z"/>
	<path class="st0" d="M45.6,21.7l-1.4-1.4c-0.2,0.4-0.3,1.1-1,1.2L45.6,21.7z"/>
	<polygon class="st0" points="46.7,21.8 45.6,21.7 46.1,22.2 	"/>
	<path class="st0" d="M52.4,30.1c1.1-0.1,1.9,0.5,2.8,1c-0.7-1-1.5-1.8-2.4-2.5C52.3,28.9,51.4,29.4,52.4,30.1z"/>
	<path class="st0" d="M49.3,27.2c0.1,0,0.1,0,0.2,0C49.5,27.1,49.5,27,49.3,27.2z"/>
	<path class="st0" d="M63.2,37.6c0-0.1,0-0.2,0.1-0.3c-0.1,0.1-0.1,0.1-0.2,0.2L63.2,37.6z"/>
	<path class="st0" d="M52.8,28.2c-0.5-0.8-1.1-0.7-1.8-0.6c0.6,0.2,1.2,0.5,1.8,1C53,28.4,53.1,28.3,52.8,28.2z"/>
	<path class="st0" d="M56.8,34.5c-0.1-0.5-0.3-1.1-0.6-1.6C56.2,33.6,56.4,34.8,56.8,34.5z"/>
	<path class="st0" d="M49.5,27.8c-0.1,0-0.1,0-0.1,0C49.3,28.2,49.4,28.1,49.5,27.8z"/>
	<path class="st0" d="M49.5,27.8c0.5,0.1,1-0.1,1.5-0.2c-0.5-0.2-1-0.3-1.5-0.4C49.5,27.4,49.5,27.6,49.5,27.8z"/>
	<path class="st0" d="M72.7,31.3c-0.6,0.5-1.5,0.7-2.4,0.4c-0.9-0.3-1.7-1-1.9-2.3c-2.3-0.3-4.6,4.5-5.2,7.8c0.5-0.5,0.9-1,3-0.4
		c0-1.1-2.1-4.3,0.1-4.4c2.6,1.1,1.3,1.8,1.7,3.3c0.5-2.2,4.4,0,5.9-2.5l-2.4-0.8C71.9,32,73,32,72.7,31.3z"/>
	<path class="st0" d="M60.5,34.7l-0.7-0.4c0.5,0.8,0.6,1.7,0.8,3.4c1.5,0.2,2.1,0,2.5-0.4l-2.9-2.7L60.5,34.7z"/>
	<path class="st0" d="M57,32.1c1.6-1,3.6-0.3,3.8-2.5c-2-1.4-2.2,0.1-3.8-0.2c3.3,2-1.5,0.1,0.1,2.5c-0.8-0.2-1.4-0.6-1.9-0.9
		c0.4,0.6,0.8,1.2,1.1,1.8c0-0.1,0-0.1,0-0.1l0,0l0,0c0-0.3,0-0.4,0.1-0.2c0,0,0.1,0,0.1,0C56.6,32.4,56.8,32.3,57,32.1
		c0.6,1-0.1,0.5-0.5,0.4c-0.1,0.1-0.1,0.1-0.2,0.2c0,0,0,0,0,0c0,0,0.9,0.4,1.8,0.8c0.9,0.4,1.8,0.8,1.8,0.8
		C59.3,33.7,58.5,33.1,57,32.1z"/>
	<path class="st0" d="M46.4,13.7c0,0.2-0.1,0.3-0.1,0.4C46.7,14.1,46.8,14,46.4,13.7z"/>
	<path class="st0" d="M47.2,15.5c-0.4,0-1,0.5-1.6-0.2c-0.4-0.9,0.5-0.7,0.7-1.2c-0.7,0.1-2.3-0.1-1.3,1.6l0.4,0
		c1,1.4,1.4,4.3,1,4.3C46.9,18.5,47.2,17.4,47.2,15.5z"/>
	<path class="st0" d="M52.6,23.5l3.1,1.2l-0.4-2.2l-0.5,0.8C53.5,21.9,53.2,23.1,52.6,23.5z"/>
	<polygon class="st0" points="62.9,38.5 61.4,39.6 64.5,38.8 	"/>
	<polygon class="st0" points="66.2,41 65.1,42.1 66.5,42.1 	"/>
	<path class="st0" d="M201.3,235l0.6,0.9C201.7,235.4,201.5,235.2,201.3,235z"/>
	<path class="st0" d="M200.2,227.8l-0.8,0C199.8,228.1,200.2,228.1,200.2,227.8z"/>
	<path class="st0" d="M132.9,117.3c-0.5,2-1.6,4.5-0.2,3.4l1.2-1.3C133.2,118.8,132.9,118.1,132.9,117.3z"/>
	<path class="st0" d="M174.9,174.9c0.1-0.2,0.2-0.4,0.3-0.6c-0.7-0.1-1.3-0.2-1.9-0.3C173.8,174.3,174.3,174.6,174.9,174.9z"/>
	<path class="st0" d="M181.9,173.2l-0.3,2.2C181.8,174.8,181.9,174.1,181.9,173.2z"/>
	<path class="st0" d="M206.8,274.2l1.8,1.2C208.5,273.5,207.7,274.3,206.8,274.2z"/>
	<path class="st0" d="M96.9,70.2c0.3,1.3,0.7,2.2,1.2,2.9C97.9,71.4,98.2,69.5,96.9,70.2z"/>
	<path class="st0" d="M182.7,235.4c0.4,0.5,0.8,0.7,1.2,0.6C183.5,235.5,183.1,235.2,182.7,235.4z"/>
	<path class="st0" d="M100.3,75.6c0-0.3-0.1-0.5-0.1-0.7c-0.8-0.5-1.5-0.9-2.2-1.8C98.2,74.4,98.6,75.6,100.3,75.6z"/>
	<path class="st0" d="M157.3,407.9c-0.1,0-0.3,0.1-0.4,0.1C157,408.1,157.1,408,157.3,407.9z"/>
	<path class="st0" d="M114,412.7c0.3-0.2,0.9-0.3,1.4-0.5C115.1,412.2,114.7,412.3,114,412.7z"/>
	<path class="st0" d="M77.9,52.7C77.2,52.2,77.7,52.7,77.9,52.7L77.9,52.7z"/>
	<path class="st0" d="M79.5,44.8c0.3,0,0.5-0.1,0.8-0.4C80,44.6,79.8,44.7,79.5,44.8z"/>
	<path class="st0" d="M114.3,75.3C114.3,75.3,114.3,75.4,114.3,75.3C114.4,75,114.4,75,114.3,75.3z"/>
	<path class="st0" d="M77.5,51.2c0.1,0.4,0.2,0.8,0.5,1.1C77.9,52.2,77.8,51.8,77.5,51.2z"/>
	<path class="st0" d="M77.1,51.9c-0.2-0.3-0.3-0.5-0.4-0.7C76.4,51.4,76.3,51.6,77.1,51.9z"/>
	<path class="st0" d="M78.9,53.5c-0.4-0.3-0.7-0.7-0.9-1.1c0,0.2,0,0.3,0,0.3C78.1,52.9,78.4,53.1,78.9,53.5z"/>
	<path class="st0" d="M192.7,339.1c-0.1,0-0.1,0.1-0.2,0.1C192.9,340.4,192.9,340,192.7,339.1z"/>
	<path class="st0" d="M160.5,127.9c0,0-0.1,0-0.1,0c0,0,0,0.1,0,0.1L160.5,127.9z"/>
	<path class="st0" d="M163.3,130.1c-2.6-0.2-2.7-1-2.9-2.2l-3.8,3.4L163.3,130.1z"/>
	<path class="st0" d="M204.1,252l1.3-2.5c2.9,2.6,2.2,4.8,4.2,2.3c-5.4,0.2-1.6-9.2-7.1-8.8l0.9-1.7c0,0.4,0.3,0.5,0.3,0.9
		c2.1-3.4-4.2-1.7-4-5.6c0.2-1.4,0.8-2.5,1.6-1.7l-1.9-2.7c-0.1-0.9,0.9-0.8,1,0l-1.2-4.4l0.2,0c-0.9-0.5-2.6-1.7-3.3-2.3
		c0.5-1.3,0.7,0.5,1.3,0l-1.8-2.2c1.2-1.3,2.9,0.5,3.1,2.2c4.8-3.4-1.8-1.8,0.3-7.5l1.2,2.2c1.3-1.1,1.6-2.1,1.8-3.1
		c0.1-1.1,0-2.2,0.6-3.8c-0.8,0.9-3.4,6.4-5.4,4.1c0.2-0.8,0.2-1.9-1.3-3.1c1.9-0.5,1.1-1.8,0.5-3.5l2.5-0.5
		c-1.2-1.7-2.4-1.3-3.8-2.1c-0.3-2.2,1.4-3.1,2.9-4.1c-0.6-3.5-2.4,3.2-4-0.7c0.2-3.1-1.5-4.8-3.9-7.6c0.2-2.2,1.6-0.1,2.1-1
		l-2.5-1.1c-0.1-0.4,0.6-0.5,0.9-0.5c-1.2-1.2-2.4,0.7-3.9-1.4c-2.9,0.3,2.3-5.9-1.7-7.7c0.4-0.9,1.6-0.2,2.5-0.7
		c-3.4-3.1-2.7-2.7-6.4-4.8l0.6-3.2c-1,2.6-4.1,1-6.7-0.4c-0.6,1-1.1,1.9-1.3,2.4l-2.6-2.8c0.2-0.6,1.2-0.6,2.4-0.4
		c-0.3-0.1-0.6-0.3-0.8-0.4c0.4-1.6,2-1.5,3.7-1.2c-0.3,0.6-0.6,1.2-1,1.8c1.8,0.3,3.7,0.4,5-0.3c-0.4-0.1-0.8-0.4-1.1-0.9
		c0.5,0.1,0.9,0.1,1.1-0.1c0.2-0.2-0.5-0.4-1.3-0.7l2.3-1.8l-1.1,0.2c0,0,0-1.3-0.1-2.6c0-0.6,0-1.3-0.1-1.8c0-0.5,0-0.8,0-0.8
		c-2-1-4.3-1.8-6.5-2.9c-1.1-0.5-2.1-1.1-3.1-1.9c-1-0.7-2-1.6-2.8-2.7c2.5,0.3,3.2-1.2,5.5-2.2c-0.9,1.2-0.2,2.1,0.8,3
		c1,0.9,2.3,1.9,2.6,3.3c-0.3-1.5,0.9-1.7,1.4-1.5c0,0-1.1-0.9-2.1-1.8c-1.1-0.9-2.2-1.8-2.2-1.8c1.9-0.7,0.9-1.6,1.1-3.2
		c-3.2,2.6-4-2.3-6-3.6c1.1-0.7,2.6-0.9,3.4,1.6c1.5-3.9-5.8-1.2-4.7-4.7c0.3,0.5,0.3,0.9,1,0.8c-1.7-0.7-2.4-4.3-1-4.1l0.3,0.5
		c-0.7-1.9-2.2-4.7-3.8-6.8c-1.7-2.1-3.6-3.6-5.2-3.1c0.4-0.2,3.8-1.5,4.6-1.6c0,0-3.4-0.2-6.8-0.4c-3.4-0.1-6.7-0.3-6.7-0.3
		c2.8-0.9,7.7-6.5,10.8-4.4c-0.1-1-0.3-2.4-2.2-3.6c0,0.8-2.8,3.5-3.5,2.9c1.5-3.8,0.6-2.3,1.4-6.4c0,1.2-4.5,2.6-5.2,1.2
		c0.7-0.1,3.8-2.5,4.5-2.2c0,0-1.5-0.3-2.9-0.5c-1.5-0.2-2.9-0.5-2.9-0.5c1.2,0.4,3.3-1.9,3.9-3.3c-0.5,0.8-1.7-2.9-2.7-3.6l0,2
		c-1.8-4.1-7.6-0.3-9.8-4c1.1-0.1,5.5-2.1,4.7-4.2c-1.2,0.2-4.2,0.8-7.2,1.1c-3,0.3-6.3,0.4-8.1-0.7l0.7-1.3l-2.9-1.5
		c3.8-0.6,12.8-0.6,16.7,0.2c-0.1-2,1.1-1.3-0.5-3.2c0.5-1.4,2.3,0,2.8,0.6c0,0-0.2-0.3-0.4-0.8c-0.3-0.5-0.6-1.1-0.9-1.8
		c-0.7-1.3-1.3-2.6-1.3-2.6c-2.1,1.8-4.7-2.1-6.4-0.6l5.9,3.5c-2.1,1.7-8.3,1.4-10.3-2.1c0.3-1.5,4.3-2.2,5-2.8
		c-1.1,0.1-3.7-2.1-3.4-2.8l2.2,0.5c-0.5-2.4-5.1-0.9-4.6-4.6c-0.4-0.8,1-4.3-0.3-3.5c-1.5,3.1-8.9,9.1-11.3,9.7
		c0-0.4-0.6-5.6-0.1-7.4c1-2.7,5.9-1.7,6.7-4c-0.6,0.4-1.8,0.3-2.3,0.2c-0.1-1.2,2-1.1,0.4-2.6c-2.4,1.4-2.6-3.5-2.4,0.7
		c-1.9-1.1-1-2.1-2.6-3.9c-0.9,1.7-6,2.1-7.9,1c0.6-0.4,1-1.3,1.2-1.7c-2.5-3.4-3.1-5.9-5.7-8.9c0.3-0.7-0.4-2.7,1-2.8
		c-0.7-0.1-1.8,0.1-2.6-0.8c0.2-3.4,2.1,1.8,3-1.4c-1.3,0.9-3.7-0.9-5.7-1.5c-1.4,2,2.4,3.3,4.3,3.9c-2.5,2.2-7.1,2.3-11.1,0.4
		c-2.8-1.8,0.6-2.5-0.1-2.6c-3.8-4.8-7.8,0.3-9.6-5c0.1-2.9,3-3.1,3.8-4.5c2.5,1.3,1.9,3.9,3.2,5.1L94,55c1.1,0.1,2.7,1,2.9,2.2
		c0.1-1.3-1.6-3.2-3.7-5.4c-2.1-2.2-4.4-4.6-5.5-6.9c-1.1-0.1-2.7-0.5-2.8,0.6l1.3,0.8c-0.2,2.2-3.7-0.2-2.9,1.7
		c-2.3-0.5-5.2-0.7-6.6-3.3l1.3-2.2c-0.4,0.6,0.4,2.3,1.4,2.3c-1.6,0-0.9-5.4-4-3.8l0.3,2.6c-2.3-0.4-5.8-0.2-7.2-2.3
		c-0.8,2.5,0.6,0.2,0,3.4c1.2-3.7,4.5,4.3,5.2-0.1c-0.9,3.6,1.4,3.1,1.1,6.7c0.5-0.6,0.5-1.7,1.7,0c0.2-0.1,0.6-0.2,0.8-0.2
		c0,0.1,0,0.1,0.1,0.1c0-0.1,0-0.1,0-0.1c0.1,0,0.2,0,0-0.1c-0.1-0.6-0.1-1.2,0.1-1.6c2-0.6,4.4,1.7,5.8,1.8c0.6,1.1-1,0.3-1.1,1.4
		l2.2,0.1c-1.1,1.4,0.2,4.4-2.6,3.1l1.8,1.9c0.4,1.8,1.6,3.5,3,3.9c0.6,1.1,3.6,0.8,1.8,1.1l3.6,2.2l-0.3,0.3
		c2.5,3.1,7.8,4.1,8.4,9.7c1.2,0.7,2.6,1.4,3.7,3.4l-0.9,1.3c1.5,1,2.2,5,3.9,4.5c-1,2,0.1,3.8,1.7,5.4c1.6,1.6,3.6,3.1,4.2,4.5
		l1.7-1.2c1.2,1.7,2.9,3,5.1,4.5l1.3-1.2c2.5,0.9,2.4,5.4,4.7,8.2c-0.7,0.2-1.1-0.6-1.1-1.4c-0.4,2.9,1.5,4.3,3.5,5.6
		c2,1.3,4.1,2.5,3.9,4.9c1.1,0.4,1.3,1.1,1.3,2c-0.1-0.1-0.1-0.1-0.2-0.1c0,0.1,0.1,0.2,0.2,0.3c0,0.5-0.1,1.1-0.1,1.6
		c0.1-0.6,0.2-1.1,0.2-1.5c0.4,0.6,1.2,1.4,2.2,2.1l-1.4,1.4c0.1,0.1,0.1,0.1,0.2,0.2c0,1.3,1.2,0.2,2.1-1c0.6,0.3,1.2,0.5,1.8,0.6
		c-2.2,2.4,2.4,1.9,0.3,4.7c0.9-0.1,1.9,0.9,3.1,1.8c1.2,0.9,2.5,1.7,4.1,1c-0.4,0.3-0.4,0.7-0.7,0.2c0.3,1.3,0.6,2.5,2,3l-1.8,1.7
		c0,0,1.1,0.2,2.1,0.3c1.1,0.2,2.1,0.3,2.1,0.3c-0.5,2.2-0.9,3.2-3.3,2.7c4.4,2,2.5,2.2,6.7,3.7l-1.5,0.6c0.7,1,3.4,1.7,2.6,3
		c-0.3,0.9-0.2,2.2,0.3,3.6c0.5,1.4,1.3,3,2.1,4.7c0.8,1.7,1.7,3.6,2.4,5.4c0.7,1.9,1.2,3.8,1.3,5.6c3.7-3.2-0.6,3.7,2.8,2.5
		c-0.8,0.8-1,1.9-2.3,1.3c2.4,2.7,0.5,5.5,4.2,6.4c-0.9,0.8-1.8,0-2.2,0.5c0.3,0.2,1.3,0.6,0.9,1.2c-0.5,0.6-1.1-0.1-1.7-0.4
		c1.5,3.2,4.8,2.2,7.8,1.2c-0.7,2.3-0.2,3,2.3,3.4c-0.7,1-1.4,2.3-2.5,0.4c0.4,1.2,1.3,7.6,3.7,6.9c-0.5,0.6,0.4,1.7,0.8,1.9
		c0.8,2.7,0.6,3,1.8,5.5l0.1-0.9c3.3,0,1.4,2,2.5,3.9l-0.3,0c-0.6,5.5,1.7,1.8,0.7,7.3l1.8-0.8c2-0.4,1.8,0.9,1.3,2.5
		c-0.5,1.6-1.2,3.6-0.1,4.8l0.8-1.3c1.8,1.2-4.2,5.8-4.4,7.4c-0.3,0.4-0.7-0.4-1.1-0.8c-1.4,4.6,2.6-0.1,3.9,2.7
		c-1.2,0.9-3.5,0.1-3.3,2.2c-0.4,0.6,1,1.8,2.3,3.3c1.2,1.5,2.4,3.2,1.4,4.9c0.9-0.8,1.8-1.6,2.9-0.4c0.9,2.1-2.7,6.6,0.8,7.9
		c-0.2,0.3-0.5,0.5-0.7,0.5c0.6,0.8,1.2,2,1.8,3.2c0.6,1.2,1.4,2.3,2.4,2.7c-3.2,1.3-2,3.7-0.8,6c1.1,2.3,2.3,4.4-0.7,4.7
		c0,0,0.2,1.3,0.4,2.5c0.1,0.6,0.2,1.3,0.3,1.8c0.1,0.5,0.1,0.8,0.1,0.8l-0.6-0.1c-0.2,3.3,1.4,4.4,3,5.4c-0.4,0.8-1,0.3-1.3,0.2
		c-1,4.9-0.7,5.3,2.5,9.3l-2,0.5c0.6,0.5-0.2,2.3-0.8,4.5c-0.3,1.1-0.6,2.3-0.6,3.5c-0.1,1.2,0,2.5,0.6,3.7
		c-0.2-0.1-0.6-0.2-0.9-0.5c1.1,2.7-0.3,5.8-1.3,8.5c-1,2.7-1.2,4.9,2.3,6.2l1.4,3.7c1-4.5,3,1,4.4-0.8c0.2,1.9-2.7,4.5-2.8,2.2
		l0.4-0.3c-1.8-0.6-2.3,0.8-2.7,2.2c-0.3,1.5-0.6,3-1.9,2.8c-0.3,2.2-0.7,4.4-1.2,6.5c-0.6,2.1-1.2,4.2-1.9,6.3
		c-1.3,4.2-2.8,8-4,11.9l3.1-0.1l-0.9,2.7c-0.9,0.5-2.5,0.3-1.8-1.6c-1.9,0.6,0.3,3.7,0.9,3.9c-2.3,3.5-2.8-2.5-3.2-1.3l-0.3,1.6
		l0.4-0.3c0.7,1.6,1.9,2.2,1,4.5c-1.1,1.3-2,0.2-2.3,0.7c-0.2-0.1-0.4,0.1-0.4,0.8l-1.5,3.3l2.7-0.5c0.5,1.9-1.4,3.1,1.7,2.5
		c-1.2,0.2-2.2,1.1-3,2.2c-0.9,1.2-1.6,2.7-2.3,4.1c-0.7,1.5-1.3,3-1.9,4.1c-0.6,1.1-1.1,2-1.5,2.2c0.3,1.4,0.1,2.6-0.3,3.7
		c-0.4,1.1-1.1,2.2-1.9,3.3c0.8-0.3,3.2,0.6,1.7,2.5c-2.1-1.7-3.1-1.1-4.2-0.1c-1.1,1-2.2,2.4-4.3,2.1c1.5,0,0.7,1.5,0.1,2.9
		c-0.6,1.5-1.1,2.9,1.1,2.8c-1.5,1.4-1.7-1.1-3.6-0.6c-0.3,1.2-0.8,2.3-1.6,3.3c-0.8,1-1.7,1.9-2.8,2.7c-2.1,1.7-4.4,3.3-6.2,5.6
		c0.4,0.6,1.9,0.6,1.8,2.2c0,0-1.2-0.1-2.3-0.2c-1.1-0.1-2.3-0.2-2.3-0.2c-0.6,1,2,3.7-1.1,3.3c0.6,0.2,1.5,0.6,1.1,1.3
		c-5.3,2.4-9.3,6.3-14.1,9.4c-1.2,0.8-2.4,1.5-3.7,2.1c-0.6,0.3-1.3,0.6-1.9,0.9c-0.7,0.3-1.3,0.5-2,0.7c-0.7,0.2-1.4,0.4-2.1,0.5
		c-0.7,0.1-1.4,0.2-2.1,0.2c-1.4,0.1-2.9-0.1-4.4-0.5c1.8,0.9,0.9,1.3-0.2,1.7c0.8,0.1,0.5,1.7,0.9,2.5c0,0-0.3-0.1-0.8-0.2
		c-0.5-0.1-1.1-0.3-1.8-0.5c-0.6-0.2-1.3-0.4-1.7-0.5c-0.5-0.1-0.8-0.2-0.8-0.2c-0.1,1.4-1.4,1.6-2.5,1.9c-1.2,0.3-2.3,0.4-2.4,1.7
		l1.4-0.6c-0.8,1.6,0.1,3.2,1.4,4.8c1.2,1.6,2.8,3.2,3,5.1c0.5-1,1.2-1.2,2-1.1c0.8,0,1.8,0.4,2.9,0.7c2.1,0.6,4.5,0.8,5.7-2.2
		c1.1,0.4-0.4,1.4,0.4,2.1c0.5-1.9,1.6-2.7,4.1-2.8l-0.1,0.5c1.5-0.7,2.9-1.3,4.1-1.7c1.3-0.5,2.4-0.9,3.7-1.2
		c1.3-0.3,2.5-0.8,3.9-1.2c1.4-0.4,3-1.1,4.7-1.9l-1.5-1.3c1.5-0.7,2.1-0.4,3-0.4c-0.1-1.7-1-1.1-2-0.5c-1,0.6-2.1,1.1-2.2-0.7
		c2,1.1,4.3-0.6,6.6-2.1c1.1-0.8,2.2-1.6,3.3-2c1.1-0.5,2.1-0.6,3.1,0c1.9-1.6-2-1.2-0.1-2.8l1.3,0.5l-0.6-1.6
		c1.4-0.9,3-0.4,3.7,0.3c-0.4,0.2-0.6,1-0.9,1.3c1.3-0.2,2.3-1.3,3.1-2.5c0.8-1.1,1.3-2.2,1.8-2.3l-2.2,1.2c1-1.4,2.2-2.8,3.4-4.2
		c0.6-0.7,1.2-1.4,1.8-2.1c0.6-0.7,1.2-1.4,1.8-2.2c2.4-2.9,4.4-6,5.3-9.3l-1-0.1c1.4-5,3.1-2.7,5.3-7.6l0.1,0.3
		c-0.2-1.4,0.1-2.8,1-4c0.2,1.7,3.1-1.2,3.2,0.9c0.6-2.8,0.5-3.5,0.3-4.2c-0.3-0.6-0.8-1.2-1.5-3.5l1.7,0c-0.7-1.7-1.2-2.1-0.4-4.6
		c0.2,2.5,2.8-0.5,3.2,2.4c2.7-1.8,2.8-4.1,2.9-5.9c0.1-1.8,0.2-3.2,2.9-3.5c-1.4-2-2.4-1.1-3.1,0.1c-0.7,1.2-1.1,2.6-1.2,1.8
		c-1.7,0.5-2-3.1-1-4.5c0.4-0.8,1.9-1,3.5-1.5c1.6-0.6,3.3-1.5,4-3.6c-0.2,0.4,0.1,0.6-0.1,1c1.6-1.3-0.3-3.6,2-5
		c-2-1.9,0.9-2.5-2-3.8c0,0-0.1,1-0.3,2.1c-0.1,1-0.3,2.1-0.3,2.1c0-1.2-0.8-2.7-1.1-4.1c-0.4-1.5-0.4-3,0.9-4.6
		c0.5,0.5,1,1.8,1.3,2.7c1.2-0.8,0-2.2,1.2-3.1c1.5,0.6,1.3,1.8,1,3.3c-0.3,1.5-0.9,3.2-0.1,4.8c1.6-0.8-0.8-5.2,2.1-3
		c-1.8-1.5-1.4-2.5-0.8-3.7c0.6-1.1,1.3-2.5,0.1-4.3l1.8,0.7c-0.2-0.5-0.8-1.7-0.5-2.6l2,2.2c-0.7-1.5,0-2.5,0.8-3.6
		c0.8-1,1.8-2.1,1.4-3.4c-1,4.9-2.5,0.6-4.3,2.4c-0.3-1.6-0.1-2.6,0.4-3.2c0.5-0.6,1.2-1,2-1.3c1.6-0.7,3.4-1.4,3.6-4.9
		c0.1,1-1.8,3.2-2.4,1.7c0.6-1.2,1.7-2.8,2.8-3.4c0.3-4.6-2,0.4-2.9-1.7c2.5-1.2-0.6-2.3-1.1-4.4l1.9,0.3c2-4.9-3.8-1.9-1.8-6.2
		l2.4,2.2l-0.4-2.5l2.1,0.7c-1.3-2.8-0.8-3.6,0.1-6.1c-1.4,0.5-3.5-0.6-3.4-2.9c1.2-1.5,1.8,1,1.7-2.2c1.2,0.8,2.6,1.7,0.7,3
		c0.6,0.2,1.2,0.8,1.8,1c1.4-1.6,0.6-4.2,0.7-5.4c-0.1,0.4-0.2,1-0.5,1.2c0,0-0.6-1.2-1.2-2.4c-0.3-0.6-0.6-1.2-0.8-1.7
		c-0.2-0.4-0.4-0.7-0.4-0.7c0.7-0.7,1.3-0.1,1.9,0.5c-0.2-1-1-1.7-1.2-3.1c1.6,0.4,3.2,0.4,3.9,2.4l-1.6-4.6
		c0.7-0.3,1.9-2.3,2.5-1.7c0.5-1.2-0.2-2.8-1-4.4c-0.7-1.6-1.4-3.4-0.8-5c-0.3-0.2-0.6-0.5-0.8-1.2c0.3-3.1,2-5.9-0.3-9.5l2.7-2.3
		c-0.9-2.8-3.3,3-4.7-1.6c-1.2-3.3,2.3-1.4,3-2.7c-0.8-0.8-1.9-1.8-2.7-3.1c-0.8-1.3-1.1-2.7-0.1-4.4
		C204.1,250.2,203.8,251.1,204.1,252z M197.1,217.5c0.6,0.6,2.1,1.6,1.1,2.4C195.8,219.6,196.8,218.8,197.1,217.5z M176.4,168.8
		c0.8,0.2,0.8,1,0.4,2.1C176.4,170.4,176.2,169.8,176.4,168.8z M85.9,58.3c0,0,0.1,0,0.1,0C86.5,59.9,86.3,59.3,85.9,58.3z
		 M84.4,55.6c-0.4,0-0.6,0.2-0.7,0.5c0.5-0.2,1,0.3,1.4,0.9C85.3,56.5,85.3,56,84.4,55.6z M177.4,344.2l0.7-0.4
		C178.2,345.3,177.8,344.7,177.4,344.2z"/>
	<path class="st0" d="M181.1,173.4c-0.2,0.3-0.5,0.5-0.9,0.7C180.6,174.1,181,174,181.1,173.4z"/>
	<path class="st0" d="M206.5,274c0,0,0,0.1,0,0.1c0.1,0.1,0.2,0.1,0.3,0.1L206.5,274z"/>
	<path class="st0" d="M128,80c0.2,0.7,0.1,1.2,0,1.6C128.3,81.4,128.5,80.9,128,80z"/>
	<path class="st0" d="M70.7,47.2l1.7,0.9c-0.7-0.5-0.7-1.1-0.8-1.6C71.4,46.8,71.2,47.6,70.7,47.2z"/>
	<path class="st0" d="M65.9,27.3c-0.4,0-0.5-0.4-0.9-0.4l-0.5,0.7C65.5,28.4,66.6,28.4,65.9,27.3z"/>
	<path class="st0" d="M73.7,41.2c1-1.3-0.3-1.7-1.5-2.4c0.1,0,0.1,0.1,0.2,0.2C70.6,40.5,72.2,40.8,73.7,41.2z"/>
	<path class="st0" d="M72,38.7c-0.4-0.2-0.7-0.5-1-0.8C70.3,38.5,71.2,38.4,72,38.7z"/>
	<path class="st0" d="M80.9,53.7c-0.2-0.7-1.7,1.2-1.5,0.5C77.5,55.2,84.2,55.4,80.9,53.7z"/>
	<polygon class="st0" points="76.5,36.5 75.5,38.3 77.2,37.6 	"/>
	<path class="st0" d="M83.4,44.9L82.2,43c-0.2,0.3-0.5,0.2-0.9,0.1C82.3,44.1,83,45.4,83.4,44.9z"/>
	<path class="st0" d="M81.3,43.1c-0.5-0.5-1-0.9-1.5-0.9C80.1,42.4,80.8,42.9,81.3,43.1z"/>
	<polygon class="st0" points="79.1,38.1 79.3,38.8 80.3,40 	"/>
	<path class="st0" d="M99.6,61.9l2,1.4c0.7-0.3,0.5-1-0.3-1.5C100.6,61.6,99.8,61.1,99.6,61.9z"/>
	<path class="st0" d="M98.6,52.8c0.2,0.8-0.1,1.1-0.4,1.8l1.8-1.7L98.6,52.8z"/>
	<path class="st0" d="M103.8,57.5c0.7-0.3,3.8,1.2,1.6-0.9C104.8,56.9,102.8,55.5,103.8,57.5z"/>
	<polygon class="st0" points="124.9,87.2 124.5,86.7 121.3,89.3 	"/>
	<path class="st0" d="M151.5,107.8c-0.8-3-2.5,0.8-2.9-2c-1.2,0,0.4,2.3-0.7,2.2C149.7,108.8,149.7,109.9,151.5,107.8z"/>
	<path class="st0" d="M147.8,107.9c-0.3-0.1-0.6-0.3-1-0.4C147.3,107.8,147.6,107.9,147.8,107.9z"/>
	<path class="st0" d="M107.8,411.8c0,0-0.4-0.1-0.8-0.3c-0.4-0.2-0.8-0.3-0.8-0.3l1.2,1.2L107.8,411.8z"/>
	<path class="st0" d="M105.1,415.2l-0.7-2.5c0,0-0.2,0.6-0.4,1.2c-0.2,0.6-0.4,1.2-0.4,1.2C104.1,415,104.8,414.6,105.1,415.2z"/>
	<path class="st0" d="M200.9,211.2l-0.6,0c-0.6,0.5-0.5,0.9-0.4,1.8L200.9,211.2z"/>
	<polygon class="st0" points="204.2,236.9 204.2,236.5 202,237.6 	"/>
	<path class="st0" d="M209.7,258.2c0-0.9-0.6-1.9-0.5-2.8C209.7,257.3,206.8,258.7,209.7,258.2z"/>
</g>
<g>
	<path class="st0" d="M196.7,411.8c0.1,0.1,0-1.5-0.1-1.8C196.4,410.3,196.7,412.2,196.7,411.8z"/>
	<polygon class="st0" points="195,415.7 195,415 194.8,416.7 	"/>
	<path class="st0" d="M193.1,415.8c0.4,2.8,0.6-0.5,1.1,0.5l0.1,0.6l0-2.3C193.9,415,193.5,416.6,193.1,415.8z"/>
	<path class="st0" d="M191.6,409.8c0.2,1.1-0.1,1,0.3,0.3c0-0.1,0-0.2-0.1-0.3C191.8,409.8,191.7,409.8,191.6,409.8z"/>
	<path class="st0" d="M191.8,409.8C192,409.7,191.6,408.9,191.8,409.8L191.8,409.8z"/>
	<path class="st0" d="M190.9,410.5l0.2-1c-0.1-0.6-0.4-0.8-0.3-1.3C190.6,408.8,190.7,409.5,190.9,410.5z"/>
	<path class="st0" d="M190.9,412.6l0.1-0.4C190.9,411.9,190.9,411.8,190.9,412.6z"/>
	<path class="st0" d="M191.2,411.3l-0.2,0.9c0.1,0.5,0.2,1.4,0.1-0.3C191.1,412.7,191.1,411.9,191.2,411.3z"/>
	<path class="st0" d="M191.4,411.7c0.2,0.6,0.4,1,0.2,2C192.1,413.3,191.8,411.3,191.4,411.7z"/>
	<path class="st0" d="M193.3,418.8l0.3,0.8l0.1-1C193.6,419.1,193.2,417.9,193.3,418.8z"/>
	<path class="st0" d="M189.2,409.2c0,0.6,0.2,1.6,0.3,2.4l0.1-0.7C189.5,410.5,189.3,410.1,189.2,409.2z"/>
	<path class="st0" d="M189.5,411.6l-0.2,1.1C189.6,412.7,189.6,412.2,189.5,411.6z"/>
	<polygon class="st0" points="191.1,415.8 191.4,413.6 191,415.8 	"/>
	<polygon class="st0" points="188.1,409.2 188.2,407.8 188,409.9 	"/>
	<path class="st0" d="M187.4,409.5c0-1.2-0.3-2-0.3-2.7c-0.2,0.2-0.3,1.2-0.3,2.1C186.9,408.5,187.1,408.6,187.4,409.5z"/>
	<path class="st0" d="M186.6,410.3c0.1-0.3,0.1-0.8,0.1-1.3C186.7,409.3,186.7,409.6,186.6,410.3z"/>
	<path class="st0" d="M188.8,412.4c-0.1-0.4-0.2-1.3-0.4-1.7l0.3,1.7C188.7,412.4,188.8,412.4,188.8,412.4z"/>
	<path class="st0" d="M188.7,412.4L188.7,412.4c-0.1-0.1-0.2-0.1-0.3-0.1C188.5,412.3,188.5,412.3,188.7,412.4z"/>
	<path class="st0" d="M188.8,412.4C188.8,412.4,188.8,412.4,188.8,412.4C188.8,412.5,188.8,412.6,188.8,412.4z"/>
	<path class="st0" d="M190.2,414.3c-0.1,1-0.4,2,0.1,3.4C190.3,416.6,190.1,415.8,190.2,414.3z"/>
	<path class="st0" d="M189.1,414.5l0.3,0.4c0-0.4-0.2-1.1-0.1-1.6L189.1,414.5z"/>
	<polygon class="st0" points="189,415 189.1,414.5 189,414.4 	"/>
	<path class="st0" d="M187.3,411.9c-0.1,0.8-0.2,0.8-0.4,1c0.2,0.3,0.4,0.5,0.6,0.5C187.5,412.7,187.5,411.8,187.3,411.9z"/>
	<path class="st0" d="M188,412.3C188,412.3,188,412.3,188,412.3C188,412.5,188,412.6,188,412.3z"/>
	<path class="st0" d="M185.3,412.9c0,0.1,0,0.2,0.1,0.3C185.4,413.1,185.4,413,185.3,412.9L185.3,412.9z"/>
	<path class="st0" d="M187.6,413.6c0.2,0.3,0.2-0.1,0.2-0.6c-0.1,0.2-0.2,0.3-0.3,0.3C187.5,413.5,187.5,413.7,187.6,413.6z"/>
	<path class="st0" d="M186.3,411.1c0.1,0.4,0.2,0.6,0.3,0.9C186.5,411.5,186.3,410.7,186.3,411.1z"/>
	<path class="st0" d="M187.9,411.9C187.9,411.9,187.9,411.8,187.9,411.9C187.8,411.5,187.8,411.6,187.9,411.9z"/>
	<path class="st0" d="M187.9,411.9c0,0.3-0.1,0.7-0.1,1.1c0.1-0.1,0.1-0.3,0.2-0.6C187.9,412.3,187.9,412.1,187.9,411.9z"/>
	<path class="st0" d="M185.8,423.9c-0.1-1.6,0.1-3.1,0.6-1.4c0.2-1.2-0.4-6.4-0.9-9.3c0,0.7,0.1,1.3-0.1,2.3c0.2,0.9,0.8,2,0.7,3.4
		c-0.3,0.8-0.4-0.5-0.6-1.4c0.3,2-0.3,2.9,0.1,5.8l0.3-1C185.7,422.8,185.6,423.5,185.8,423.9z"/>
	<path class="st0" d="M186,413.4l0.1-0.2c-0.2-0.3-0.3-0.9-0.6-2.1c-0.1,0.8-0.1,1.4-0.1,1.9l0.6,0.2L186,413.4z"/>
	<path class="st0" d="M186.6,413.1c0,1.7-0.2,2.5,0.1,4.3c0.4-0.1,0.1-1.5,0.3-2.2c-0.6,0.5,0.1-1-0.4-1.9c0.1-0.3,0.2-0.4,0.3-0.5
		c-0.1-0.2-0.2-0.4-0.4-0.8c0,0,0,0.1,0,0.1l0,0c0,0,0,0,0,0c0,0.2,0.1,0.3,0,0.2c0,0,0,0,0,0C186.6,412.7,186.6,412.9,186.6,413.1
		c-0.2-0.3-0.1-0.5,0-0.7c0-0.1,0-0.2,0-0.3c0,0,0,0,0,0l-0.5,1C186.2,413.4,186.4,413.3,186.6,413.1z"/>
	<path class="st0" d="M190.3,421.5c0-0.2,0-0.3-0.1-0.4C190.2,421.3,190.2,421.4,190.3,421.5z"/>
	<path class="st0" d="M190,420.5c0-0.2,0-0.9,0.2-0.8c0.2,0.5,0.1,0.8,0.1,1.4c0-0.5,0.2-1.3-0.1-2.1l0,0.2
		c-0.3-0.6-0.8-2.7-0.7-2.9C189.5,417.9,189.7,418.9,190,420.5z"/>
	<path class="st0" d="M188.3,417.2l-0.4,0.9l0.4,1.5l-0.1-0.9C188.5,419,188.4,417.9,188.3,417.2z"/>
	<polygon class="st0" points="185.2,412.1 185.1,410.3 185.1,412.9 	"/>
	<polygon class="st0" points="184.6,412.4 184.5,410.8 184.4,411.7 	"/>
	<path class="st0" d="M150.3,434.9l-0.1,0.5C150.3,435.2,150.3,435.1,150.3,434.9z"/>
	<path class="st0" d="M151.4,434.9l0-0.8C151.3,434.6,151.3,434.9,151.4,434.9z"/>
	<path class="st0" d="M169,413.8c-0.3-1.5-0.8-3.7-0.6-1.9l0.2,1.7C168.7,413.3,168.9,413.5,169,413.8z"/>
	<path class="st0" d="M159.1,425c0,0.2,0.1,0.3,0.1,0.5c0-0.6,0-1.1,0-1.7C159.2,424.3,159.2,424.6,159.1,425z"/>
	<path class="st0" d="M159.6,432.2l-0.4-1.1C159.3,431.5,159.4,431.9,159.6,432.2z"/>
	<path class="st0" d="M144.8,437.2l0,1.8C145,438.9,144.8,438.1,144.8,437.2z"/>
	<path class="st0" d="M178.1,413.5c-0.2-0.7-0.4-0.9-0.5-1C177.9,413.5,178.2,415,178.1,413.5z"/>
	<path class="st0" d="M149.2,416.5c-0.1,0.3-0.1,0.7,0,1.1C149.2,417.3,149.3,416.9,149.2,416.5z"/>
	<path class="st0" d="M177.1,412.6c0,0.2,0.1,0.3,0.1,0.4c0.1-0.3,0.2-0.5,0.4-0.4C177.4,411.8,177.2,411.4,177.1,412.6z"/>
	<path class="st0" d="M124,437.5c0-0.1,0-0.1-0.1-0.2C124,437.5,124,437.5,124,437.5z"/>
	<path class="st0" d="M116.6,420.5c0.1-0.1,0.1-0.1,0.2-0.2C116.8,420.3,116.7,420.3,116.6,420.5z"/>
	<path class="st0" d="M182,411.8C182.1,411.7,182,411.6,182,411.8L182,411.8z"/>
	<path class="st0" d="M183.2,418.6c0,0.2,0,0.4,0,0.8C183.2,419,183.2,418.8,183.2,418.6z"/>
	<path class="st0" d="M176.6,423.5C176.6,423.5,176.6,423.4,176.6,423.5C176.7,423.8,176.7,423.7,176.6,423.5z"/>
	<path class="st0" d="M182.2,412.6c-0.1-0.2-0.1-0.4-0.2-0.5C182.1,412.2,182.1,412.4,182.2,412.6z"/>
	<path class="st0" d="M182.1,411.8c0.1,0.1,0.1,0.1,0.1,0.2C182.3,411.6,182.2,411.5,182.1,411.8z"/>
	<path class="st0" d="M181.8,411.9c0.1,0,0.2,0,0.2,0.2c0-0.1-0.1-0.2-0.1-0.3C181.9,411.8,181.9,411.9,181.8,411.9z"/>
	<path class="st0" d="M134.7,431.9c0-0.1,0-0.1,0-0.2C134.6,432.5,134.6,432.4,134.7,431.9z"/>
	<path class="st0" d="M167,432.1C167,432.1,167,432,167,432.1c0-0.1,0-0.1,0-0.1L167,432.1z"/>
	<path class="st0" d="M166.6,433.4c0-2.2,0.2-1.9,0.4-1.5l-0.6-5L166.6,433.4z"/>
	<path class="st0" d="M147.9,435.6l0.5,1.5c-0.2,2.6-0.6,1.7-0.1,3.9c-0.4-5.4,1.3-0.7,0.9-6.1l0.3,1.1c-0.1,0-0.1,0.3-0.1,0.2
		c0.7,2.6,0-3.9,0.6-3.2c0.2,0.4,0.4,1.2,0.4,1.8l0.3-1.4c0.1,0.1,0.2,1,0,0.9l0.6-0.5l0,0.2c0-0.9,0.1-2.2,0.2-2.8
		c0.2,0.8,0,0.6,0.1,1.3l0.3-1.3c0.3,1.4,0.1,2.8-0.2,2.6c0.8,5.4,0.2-1.4,1.2,1.7l-0.3,0.7c0.5,3.1,0.7,1.9,1.2,3.8
		c-0.2-1-1.2-4.8-0.9-6.1c0.1,0.4,0.3,0.6,0.4-0.5c0.2,1.9,0.3,1.4,0.6,1.3l0.2,2.6c0.2-0.8,0.1-2.1,0.2-3.2
		c0.3,0.2,0.6,2.2,0.8,3.9c0.5,0.4-0.6-3.1-0.1-3.7c0.5,0.9,0.7-0.1,1.1-1.7c0.4,0.9,0.1,1.6,0.2,2.3l0.1-2.1c0.1,0,0.1,0.7,0.1,1
		c0.2-0.8-0.2-2.5,0.1-3.3c-0.1-2.8,1.1,4,1.2,0.8c0.2,0.7,0.1,1.6,0.2,2.6c0.4-2.1,0.4-1.6,0.6-4.4l0.6,1.6
		c-0.5-1.9-0.3-4.2-0.1-6.1c-0.2-0.9-0.3-1.7-0.4-2.1l0.4-1.4c0.1,0.4,0.1,1.3,0.1,2.4c0-0.2,0-0.4,0-0.6c0.3,0.9,0.3,2.4,0.3,3.8
		c-0.1-0.5-0.2-1-0.3-1.6c0,1.6,0,3.3,0.2,4.8c0-0.3,0.1-0.6,0.1-0.7c0,0.4,0,0.8,0,1.1c0,0.3,0.1-0.3,0.1-1l0.4,2.8l-0.1-1.1
		l0.9,1.7c0.3-2.9,0.4-7.2,1.1-8.4c0,2.1,0.2,3.4,0.4,5.9c-0.4-2.6-0.5,1.2-1,0.7c0.2,0.3,0.3,1.4,0.3,1.9l0.5-2.4
		c0.2,2,0.3,1.5,0.5,2.3c-0.5-4,0.3-2.7,0.5-4c0.1,1.3,0.2,2.7-0.2,2.4c0.7,3,0.1-4.7,0.8-2.2c-0.1,0-0.2-0.2-0.1,0.5
		c0.1-1.2,0.7-0.3,0.7,0.9l-0.1,0c0.6,0.4,1.8-0.1,1.6-3.5c0,0.4,0.3,4.1,0.3,4.8l0.1-11.5c0.1,2.9,1.1,9.8,0.7,11.5
		c0.2,0.4,0.4,0.9,0.6-0.2c-0.1-0.4-0.6-4.2-0.5-4.5c0.6,3.2,0.4,1.7,1.1,4.4c-0.2-0.6-0.4-5.2-0.2-5.1c0,0.7,0.4,4.5,0.3,5l0.2-4.5
		c-0.1,0.8,0.3,3.8,0.5,5.1c-0.1-0.9,0.5,0,0.6-0.4l-0.3-1c0.7,0.6,0.1-6.4,0.8-6.2c0,0.9,0.3,5.7,0.7,6.3c0-2.3-0.3-11.1,0.2-12.9
		l0.2,1.3l0.3-1.5c0,3.5-0.1,10.8-0.3,13.7c0.3,1,0.2,1.5,0.5,1.4c0.2,1.2,0,1.9-0.1,2l0.9,0.7c-0.3-2.7,0.4-2.7,0.2-5l-0.7,2.9
		c-0.3-2.7-0.1-7.7,0.5-7.2c0.2,1.1,0.3,4.8,0.4,5.7c0-0.9,0.4-1.8,0.5-1.2l-0.1,1.5c0.4,1,0.2-3.6,0.9-1.1c0.2,0.2,0.7,3.4,0.6,1.8
		c-0.5-3-1.3-12.5-1.3-14.8c0.1,0.2,1,2.9,1.3,4.4c0.4,2.4,0.1,5.7,0.5,7.8c-0.1-0.7,0-1.6,0-1.9c0.2,0.6,0.1,2.3,0.4,1.9
		c-0.2-2.7,0.7,0.2,0-2.3c0.2-0.8,0.4,0.5,0.7,0.4c-0.3-1.7-0.2-6,0.1-6.8c0,0.7,0.2,1.6,0.3,2c0.7,0.2,1.1,1.4,1.7,1.4
		c0.1,0.7,0.5,1.4,0.4,2.6c0-0.5,0-1.4,0.2-1.5c0.5,2.3-0.4,0.4,0.1,3.2c-0.1-1.6,0.3-2.2,0.5-3.2c-0.3-2.4-0.6-0.4-0.8,0.6
		c-0.3-3.4-0.1-6.9,0.4-8.5c0.4-0.9,0.4,2.2,0.4,1.7c1,0.5,0.3-5.9,1.3-3.6c0.5,2.1,0.4,4.3,0.6,5.8c-0.3,0.8-0.7-1.3-1-1.2l0.4,1
		c-0.1,0.7-0.3,1.3-0.5,0.7c0.4,1.9,1.6,0.2,2.4,2c0.1-0.7,0.2-1.5,0-2.3l-0.2,0.3c-0.3-1.7,0.2-2.4-0.1-3.2
		c0.2-1.2,0.4-3.2,0.9-2.2l0.3,2.4c-0.1-0.7-0.4-1.4-0.5-0.7c0.1-1.1,0.9,3.3,0.9,0l-0.4-1.7c0.2-1.3,0.4-3.9,0.8-3.1
		c-0.4-2.4-0.1,0.3-0.6-2.5c0.5,3.5-1-0.1-0.3,3.6c-0.5-3.3-0.6-1.4-1.2-4.1c0.1,0.8,0.3,1.5-0.1,1.2c0,0.2,0,0.5,0,0.7
		c0,0,0,0,0-0.1c0,0,0,0.1,0,0.1c0,0.1,0,0.1,0,0c0.1,0.3,0.2,0.8,0.3,1.2c0,1.9-0.5,1.8-0.6,2.8c-0.2-0.4,0-0.9-0.2-1.8l-0.1,1.5
		c-0.2-1.8-0.7-2.9-0.4-4l-0.4,0c-0.3-1-0.7-1.4-0.8-0.6c-0.2-0.4-0.3,2-0.3,0.6l-0.5,1.2l0-0.4c-0.6-0.2-1,3.1-2-0.1
		c-0.2,0.5-0.3,1-0.7,0.6l-0.2-1.5c-0.2,0.6-0.9-1.5-0.9,0.1c-0.6-4.1-1.4-0.8-1.9-1.5l0.1,2c-0.3-0.1-0.6,0.5-0.9,1.4l0.2,1.8
		c-0.2,1.5-1-1.2-1.5-1c0-0.7,0.1-0.5,0.3-0.1c-1-4-1.1,3.1-2,0.2c-0.1,0.7-0.2,0.4-0.4,0c0,0,0,0,0-0.1c0,0,0,0-0.1,0
		c-0.1-0.3-0.2-0.7-0.3-0.9c0.1,0.4,0.2,0.8,0.3,0.9c-0.1,0-0.3,0.3-0.4,0.7l-0.2-1.9c0,0,0,0,0,0.1c-0.2-0.7-0.1,0.9,0.2,2.4
		c-0.1,0.3-0.1,0.7-0.1,1.2c-0.4-3.1-0.4,1.1-0.8-2.2c0,1.6-0.7,1.3-0.6,4.7c0-0.4-0.1-0.6,0-0.7c-0.2-0.4-0.4-0.7-0.5,0.2l-0.3-2.4
		l-0.1,3.3c-0.4-1.5-0.5-2.3-0.5-4.2c-0.4,2.9-0.4,1.1-0.7,4l-0.1-1.6c-0.2,0.1-0.3,2.2-0.5,0.9c-0.7-3-2-0.2-3.3-2.9
		c0.6,4.6-0.7-2-0.4,1.6c-0.2-1.1-0.3-1.7-0.3-2.7c-0.4,1.1-0.9-1.7-1.1,1.4c-0.2-1.1,0-1.6-0.1-2.3c0,0.2-0.1,1-0.2,0.3
		c-0.1-0.6,0-0.9,0-1.4c-0.5,0.2-0.3,3.6-0.1,6.8c-0.4-1.5-0.5-1.3-0.5,0.8c-0.2-1-0.4-2.1-0.1-2.5c-0.2-0.1-1.3-1.4-1.1,1.1
		c-0.1-0.6-0.3-0.2-0.3,0.1c-0.4-0.1-0.5-0.3-0.9-0.1l0.2,0.4c0.1,3.1-0.3,0.7-0.6,1.1l0-0.3c-1-2.2-0.2,1.1-1.2-1.4l0.2,1.9
		c0.3,4.1-0.9-2.4-1.2-0.8l0.3,1.1c-0.1,1.4-1.1-5.5-1.4-6c-0.1-0.4,0-0.6,0.1-0.9c-0.8-2.4,0.1,2.5-0.3,3.1
		c-0.2-1.3-0.2-3.4-0.5-3.7c-0.2-1.1-0.6,4.5-1.2,1.9c0.2,1,0.4,2.1,0.2,2.9c-0.3,0.4-1.2-3.9-1.3-0.6c-0.1-0.3-0.1-0.6-0.1-0.8
		c-0.2,0.9-0.7,1.5-0.7,3.3c-0.8-6.6-1.3,3.3-1.8-2.7l-0.8,0.4l0-0.6c-0.5-0.4-0.6,1.1-0.7,2.6c-0.2-0.4-0.1-1-0.1-1.3
		c-0.8-1.2-0.9-0.9-1.3,2.2l-0.2-2c-0.1,1.2-1.3-3-1.9-0.6c0-0.2,0-0.6,0-0.9c-0.6,2.4-2.4-5.3-2.1,1.9l-0.4,1.8
		c0.7,0.5,0.2,3.1,0.5,4.3c-0.2,0.4-0.9-2.1-0.6-2.5l0.1,0.4c-0.2-3.8-1-1.3-1.2-3.8c-1.4,0.3-2.9-1.7-4.2-1.7l0.4,2.9l-0.5-0.1
		c-0.2-0.7-0.3-2.3,0-2.2c-0.3-1.6-0.4,1.4-0.4,2.1c-0.7-1.1,0-3.4-0.2-3.5l-0.2,0.2l0.1,0.3c-0.1,1.2,0,2.5-0.4,2.4
		c-0.3-0.6-0.3-1.8-0.4-1.9c0-0.2-0.1-0.3-0.2-0.1l-0.6-0.2l0.4,2.3c-0.2,1.2-0.5-0.1-0.1,2.5c-0.7-4-2.2-1.3-2.6-2.5
		c-0.2,1.7-0.6,1.7-1,1.5c0.1,0.5,0.4,3.1,0,2.8c-0.3-5.4-0.9-2.3-1.5-6.1c0.5,2.5-1,0.7-0.3,4.3c-0.3-0.4-0.2-2-0.5-3.2
		c-0.6,2.1-1.7-1.2-2.6-0.4c0,0.7,0.3,1.8,0.2,2.8l-0.8-3.5c-0.2,0.4,0.2,4.1-0.4,1.7c0.1,0.6,0.2,1.5,0.1,1.7
		c-2.1-3.3-3.4,3.1-5.8-3.2c0.4,1.3,0.2,1.5,0,1.6c0.1,0.3,0.1,1.7,0.2,2.7l-1-2.6c0.1,2.6-0.8,0.2-0.7,2.8l0.2-0.5
		c-0.1,3,1,6.6,1.3,10.4c0.1-3.4,1.4,4.9,1.5,0c0.2,0.8,0,1.2,0.1,2.1c0-1.6,0.2-2,0.6-1.3l0,0.4c0.9-0.5,1.4,1.1,2.6,2.1l-0.2-1.9
		c0.2,0.2,0.3,0.8,0.5,1.3c0-2.9-0.6-0.1-0.7-3.3c0.6,3.8,1.6-0.1,2.2,4.3c0.3,0-0.3-2.2,0.1-2.2l0.2,1.2l0-1.5
		c0.2,0.2,0.5,1.7,0.6,2.7c-0.1-0.1-0.1,0.3-0.2,0.4c0.4,1.4,0.8-0.5,0.9-0.1l-0.4-0.7c0.9-1.2,2.1,0.3,2.9-2.2l-0.1-0.9
		c0.6-1.7,0.6,0.9,1.3,0.1l0,0.2c0.1-0.9,0.2-1.4,0.5-1.3c-0.1,1.1,0.5,2,0.4,3.2c0.6-1.8,0.3-1.4,0.5-4.8l0.2,1.5
		c0.1-1.4,0-2.1,0.4-2.5c-0.2,1.3,0.4,2.2,0.2,3.9c1.1,3.2,0.9-3.4,1.7,1.3c0-4.1-0.9-2.2-0.7-3.1c-0.3-1.3,0.1-3.1,0.3-2.7
		c0.3,0.1,0.9,5.2,1.5,5.1c-0.1,0,0,0.3-0.1,0.3c0.3,1,0.4-1.5,0.8,0.2c0-2.5,0.4,0.1,0.2-3l-0.5,0.8c0.3-0.9,0.3-4.6,1-2.8
		c0,0.6-0.1,1.5-0.2,2c0.2,0.9,0.3-0.6,0.5,0.3c0.2,3.2-0.7,0.7-0.8,3.2c0.3,1.3,0.5-2.3,0.6,1.1c-0.1-4.4,0.7,0.5,0.8-2.9l0.1,1.9
		c0-0.3,0.1-1.2,0.2-1.2l0,2.5c0.2-2.1,0.8,1.8,1.1,0.6c-0.7,0.1-0.3-2.3-0.8-3.6c0.7-2.6,0.9,4.9,1.8,3.9c-0.1,0.3-0.6-1.1-0.5-2
		c0.2,0.4,0.5,1.1,0.7,2.1c0.6-0.4-0.3-1.9-0.1-3.1c0.4,2.3,0.2-1,0.5-1.7l0.2,1.9c0.8,1.2-0.1-4,0.7-2.6l-0.1,2.7l0.3-0.7l0.1,2.2
		c0.2-1.7,0.4-1.2,0.8-0.7c-0.2-1.3-0.2-3.5,0.1-3.6c0.3,1.1,0,1.8,0.5,1.5c0,1.2,0,2.7-0.3,1c0,0.6,0,1.2,0,1.8
		c0.3,1.3,0.6,0.2,0.8,0.2c-0.1-0.1-0.2-0.2-0.2-0.4l0.5-2.7c0.2,0.7,0.1,1.3,0.1,1.9c0.1-0.2,0.1-1.1,0.3-1.3
		c0.1,1.6,0.2,3.2,0,3.9l0.5-1.8c0.1,0.7,0.5,1.8,0.4,2.4c0.4,0.9,0.6-3.1,1.2-1.9c0-0.3,0-0.6,0.1-0.8c0.5,0.3,1,2.2,1.4,0l0.5,2.8
		c0.4-0.7-0.7-3.5-0.1-4.6c0.4-0.9,0.4,2.4,0.6,3.1c0.1-1.4,0.3-4.3,0.9-2.1C148.1,435.8,148,435.4,147.9,435.6z M152.9,433.9
		c-0.1,0.4-0.2,1.7-0.3,0.5C152.5,432.3,152.6,433.3,152.9,433.9z M160.2,428.7c0,0.6-0.2,0.3-0.3-0.4
		C159.9,428.1,160,428.2,160.2,428.7z M180.6,413.5C180.6,413.5,180.6,413.6,180.6,413.5C180.3,412.9,180.4,413.2,180.6,413.5z
		 M181.1,414.3c0-0.3,0-0.5,0-0.8c0,0.5-0.1,0.5-0.2,0.4C181,414.4,181,414.7,181.1,414.3z M132.2,419.1l0.1,0.5
		C132.2,420.2,132.2,419.7,132.2,419.1z"/>
	<path class="st0" d="M159.5,431.4c-0.1-0.3-0.1-0.7-0.1-1C159.4,430.7,159.4,431,159.5,431.4z"/>
	<path class="st0" d="M144.8,436.9C144.8,436.9,144.8,436.9,144.8,436.9c0,0.1,0,0.2,0,0.3L144.8,436.9z"/>
	<path class="st0" d="M175.4,431.2c-0.1-0.3-0.2-0.6-0.3-1C175.2,430.7,175.3,431.1,175.4,431.2z"/>
	<path class="st0" d="M183.3,410.8l-0.3,0.5c0.1-0.1,0.2,0.3,0.3,0.6C183.3,411.5,183.2,410.9,183.3,410.8z"/>
	<path class="st0" d="M186.8,422.5c0-0.2,0.1,0,0.1-0.3l-0.1-0.9C186.7,421.4,186.6,422.2,186.8,422.5z"/>
	<path class="st0" d="M184.1,417.2c0.2,1.6,0.3,1.1,0.5,0.7c0,0,0,0,0,0C184.4,415.7,184.3,416.4,184.1,417.2z"/>
	<path class="st0" d="M184.6,417.9c0.1-0.1,0.1-0.1,0.2-0.1C184.7,416.9,184.7,417.6,184.6,417.9z"/>
	<path class="st0" d="M181.6,413.2c0.1,0.4-0.1-2.1,0-1.4C181.6,409.7,181.2,414.3,181.6,413.2z"/>
	<polygon class="st0" points="184.7,422.5 184.5,420.5 184.5,422.1 	"/>
	<path class="st0" d="M183,421.2l0.4,0.5c0-0.3,0-0.5,0-0.7C183.2,421,182.9,420.6,183,421.2z"/>
	<path class="st0" d="M183.4,421c0.1,0,0.2,0,0.2-0.4C183.6,420.7,183.4,420.8,183.4,421z"/>
	<polygon class="st0" points="184.3,423.1 184.2,422.7 183.9,422.6 	"/>
	<path class="st0" d="M179.4,421.1l-0.3,0.6c0,0.7,0.2,1.1,0.3,0.8C179.4,422,179.5,421.7,179.4,421.1z"/>
	<path class="st0" d="M180.9,426.5c-0.1-0.4-0.2-0.9-0.3-1.5l0.2,2.5L180.9,426.5z"/>
	<path class="st0" d="M180,427.1c0,0.7-0.4,2,0.1,1.8C180,428.3,180.3,427.7,180,427.1z"/>
	<polygon class="st0" points="174.3,424.4 174.4,424.4 174.1,420.3 	"/>
	<path class="st0" d="M170.4,434.6c0.5,0.9-0.1-2.5,0.4-1.3c0-1-0.4-1-0.4-1.8C170.2,432.5,170,431.9,170.4,434.6z"/>
	<path class="st0" d="M170.4,431.4c0-0.2,0.1-0.4,0.1-0.6C170.4,431,170.4,431.2,170.4,431.4z"/>
	<polygon class="st0" points="115.4,418.4 115.1,417.6 115.4,419 	"/>
	<path class="st0" d="M115.1,421.5l-0.3-2.6l0,2.4C114.9,421.1,115,420.9,115.1,421.5z"/>
	<path class="st0" d="M154,439.1l0-0.6c-0.1-0.7-0.2-0.7-0.3-0.8L154,439.1z"/>
	<polygon class="st0" points="150.2,437.5 150.3,437.5 149.9,435.2 	"/>
	<path class="st0" d="M147.3,440.7c0.1,0.1,0.2-0.4,0.4-0.4C147.5,440.8,147.1,437.8,147.3,440.7z"/>
</g>
<g>
	<path class="st0" d="M110.3,347.5c0.1-0.1-1.5,0.1-1.8,0.1C108.8,347.7,110.7,347.4,110.3,347.5z"/>
	<polygon class="st0" points="114.2,349 113.5,349 115.2,349.1 	"/>
	<path class="st0" d="M114.3,350.6c2.8-0.3-0.5-0.6,0.5-0.9l0.6-0.1l-2.3,0C113.5,350,115.1,350.3,114.3,350.6z"/>
	<path class="st0" d="M108.2,351.9c1.1-0.1,1,0.1,0.3-0.2c-0.1,0-0.2,0-0.3,0.1C108.3,351.8,108.3,351.8,108.2,351.9z"/>
	<path class="st0" d="M108.3,351.7C108.2,351.6,107.3,351.9,108.3,351.7L108.3,351.7z"/>
	<path class="st0" d="M108.9,352.5l-1-0.2c-0.7,0.1-0.8,0.3-1.3,0.2C107.2,352.8,107.9,352.7,108.9,352.5z"/>
	<path class="st0" d="M111,352.6l-0.4-0.1C110.3,352.5,110.2,352.6,111,352.6z"/>
	<path class="st0" d="M109.7,352.3l0.9,0.2c0.5-0.1,1.4-0.1-0.3-0.1C111.1,352.4,110.3,352.4,109.7,352.3z"/>
	<path class="st0" d="M110.1,352.1c0.6-0.2,1-0.4,2-0.2C111.7,351.5,109.7,351.7,110.1,352.1z"/>
	<path class="st0" d="M117.3,350.5l0.8-0.2l-1-0.1C117.6,350.2,116.4,350.6,117.3,350.5z"/>
	<path class="st0" d="M107.5,354c0.6,0,1.6-0.2,2.4-0.2l-0.7-0.1C108.8,353.7,108.4,353.9,107.5,354z"/>
	<path class="st0" d="M109.9,353.8l1.1,0.2C111.1,353.7,110.6,353.7,109.9,353.8z"/>
	<polygon class="st0" points="114.2,352.4 112,352.1 114.2,352.5 	"/>
	<polygon class="st0" points="107.5,354.9 106.1,354.8 108.2,355 	"/>
	<path class="st0" d="M107.8,355.5c-1.2-0.1-2,0.2-2.7,0.1c0.2,0.2,1.2,0.3,2.1,0.4C106.7,355.9,106.8,355.8,107.8,355.5z"/>
	<path class="st0" d="M108.5,356.2c-0.3-0.1-0.8-0.1-1.3-0.2C107.5,356.1,107.9,356.2,108.5,356.2z"/>
	<path class="st0" d="M110.7,354.4c-0.4,0-1.3,0.1-1.7,0.3l1.7-0.2C110.7,354.5,110.7,354.4,110.7,354.4z"/>
	<path class="st0" d="M110.7,354.5L110.7,354.5c-0.1,0.1-0.1,0.2-0.1,0.2C110.6,354.7,110.6,354.6,110.7,354.5z"/>
	<path class="st0" d="M110.7,354.4C110.7,354.4,110.7,354.4,110.7,354.4C110.9,354.4,110.9,354.4,110.7,354.4z"/>
	<path class="st0" d="M112.7,353.2c1,0.1,2,0.4,3.4,0C115,353.1,114.1,353.4,112.7,353.2z"/>
	<path class="st0" d="M112.8,354.1l0.4-0.3c-0.5,0-1.1,0.1-1.6,0.1L112.8,354.1z"/>
	<polygon class="st0" points="113.4,354.3 112.8,354.1 112.7,354.3 	"/>
	<path class="st0" d="M110.1,355.7c0.7,0.1,0.8,0.2,0.9,0.3c0.3-0.2,0.5-0.3,0.5-0.5C111,355.6,110,355.5,110.1,355.7z"/>
	<path class="st0" d="M110.6,355.1C110.6,355.1,110.6,355.1,110.6,355.1C110.8,355.1,110.8,355.1,110.6,355.1z"/>
	<path class="st0" d="M111.1,357.5c0.1,0,0.2,0,0.3,0L111.1,357.5L111.1,357.5z"/>
	<path class="st0" d="M111.9,355.5c0.3-0.1-0.1-0.2-0.6-0.2c0.2,0.1,0.3,0.2,0.3,0.3C111.8,355.6,112,355.6,111.9,355.5z"/>
	<path class="st0" d="M109.4,356.6c0.4-0.1,0.7-0.2,0.9-0.2C109.7,356.4,108.9,356.6,109.4,356.6z"/>
	<path class="st0" d="M110.2,355.2C110.2,355.2,110.1,355.2,110.2,355.2C109.7,355.2,109.9,355.2,110.2,355.2z"/>
	<path class="st0" d="M110.2,355.2c0.2,0,0.7,0.1,1,0.1c-0.1-0.1-0.3-0.1-0.6-0.2C110.5,355.1,110.4,355.2,110.2,355.2z"/>
	<path class="st0" d="M122.1,357.6c-1.6,0-3.1-0.3-1.4-0.6c-1.2-0.2-6.4,0.1-9.3,0.4c0.7,0,1.3,0,2.3,0.2c0.9-0.1,2-0.7,3.4-0.5
		c0.8,0.3-0.6,0.3-1.4,0.5c2-0.2,2.9,0.4,5.8,0.2l-1-0.3C120.9,357.6,121.7,357.7,122.1,357.6z"/>
	<path class="st0" d="M111.5,356.9l-0.2-0.1c-0.3,0.1-0.9,0.2-2.1,0.4c0.8,0.2,1.4,0.2,1.9,0.2l0.2-0.5L111.5,356.9z"/>
	<path class="st0" d="M111.3,356.3c1.7,0,2.5,0.3,4.3,0c-0.1-0.3-1.4-0.2-2.2-0.3c0.5,0.5-1-0.1-1.9,0.3c-0.3-0.1-0.4-0.2-0.5-0.3
		c-0.2,0.1-0.5,0.2-0.8,0.3c0,0,0.1,0,0.1,0l0,0c0,0,0,0,0,0c0.2,0,0.3,0,0.2,0c0,0,0,0,0,0C110.9,356.3,111.1,356.3,111.3,356.3
		c-0.4,0.2-0.5,0-0.7,0c-0.1,0-0.2,0-0.3,0c0,0,0,0,0,0l1,0.5C111.6,356.7,111.5,356.6,111.3,356.3z"/>
	<path class="st0" d="M119.8,353.3c-0.2,0-0.3,0-0.4,0C119.7,353.3,119.8,353.4,119.8,353.3z"/>
	<path class="st0" d="M118.8,353.6c-0.2,0-0.9,0-0.8-0.2c0.5-0.1,0.8,0,1.4-0.1c-0.5-0.1-1.2-0.2-2.1,0.1l0.2,0
		c-0.6,0.2-2.7,0.6-3,0.6C116.2,353.9,117.3,353.8,118.8,353.6z"/>
	<path class="st0" d="M115.5,355l0.9,0.4l1.5-0.3l-0.9,0C117.3,354.9,116.2,355,115.5,355z"/>
	<polygon class="st0" points="110.2,357.5 108.4,357.5 111,357.7 	"/>
	<polygon class="st0" points="110.5,358.1 108.9,358.1 109.8,358.2 	"/>
	<path class="st0" d="M128,392.4l0.4,0.2C128.3,392.5,128.2,392.4,128,392.4z"/>
	<path class="st0" d="M128.3,391.4l-0.8-0.1C127.9,391.4,128.2,391.4,128.3,391.4z"/>
	<path class="st0" d="M110.5,371.8c-1.5,0.1-3.8,0.2-2,0.3l1.7,0C109.9,372,110.1,371.9,110.5,371.8z"/>
	<path class="st0" d="M120.1,382.2c0.2,0,0.4,0,0.5,0c-0.6-0.1-1.1-0.2-1.6-0.3C119.3,382,119.7,382.1,120.1,382.2z"/>
	<path class="st0" d="M127.2,383.1l-1.1,0.2C126.5,383.2,126.9,383.2,127.2,383.1z"/>
	<path class="st0" d="M129,398.1l1.7,0.5C130.7,398.4,129.8,398.3,129,398.1z"/>
	<path class="st0" d="M111.2,363.8c-0.7,0.2-1,0.3-1,0.4C111.1,364,112.6,363.9,111.2,363.8z"/>
	<path class="st0" d="M109.9,389.4c0.3,0.1,0.6,0.2,1,0.3C110.6,389.5,110.3,389.4,109.9,389.4z"/>
	<path class="st0" d="M110.1,364.7c0.2,0,0.3-0.1,0.4-0.1c-0.3-0.1-0.5-0.2-0.4-0.4C109.4,364.3,108.9,364.5,110.1,364.7z"/>
	<path class="st0" d="M123.1,417.5c-0.1,0-0.1,0-0.2,0C123.2,417.6,123.2,417.5,123.1,417.5z"/>
	<path class="st0" d="M104.8,418c-0.1-0.1-0.1-0.2-0.1-0.2C104.6,417.7,104.6,417.8,104.8,418z"/>
	<path class="st0" d="M109.8,360.3C109.6,360.2,109.6,360.3,109.8,360.3L109.8,360.3z"/>
	<path class="st0" d="M116.6,359.6c0.2,0,0.4,0,0.8,0C117,359.7,116.8,359.7,116.6,359.6z"/>
	<path class="st0" d="M120.9,366L120.9,366C121.2,366,121.2,366,120.9,366z"/>
	<path class="st0" d="M110.5,360.1c-0.2,0-0.4,0.1-0.5,0.2C110.2,360.3,110.3,360.2,110.5,360.1z"/>
	<path class="st0" d="M109.7,360.2c0.1,0,0.1-0.1,0.2-0.1C109.6,360.1,109.4,360.1,109.7,360.2z"/>
	<path class="st0" d="M109.9,360.5c0-0.1,0.1-0.1,0.2-0.2c-0.1,0-0.2,0-0.3,0C109.8,360.4,109.8,360.4,109.9,360.5z"/>
	<path class="st0" d="M121.2,406c-0.1,0-0.1,0-0.2,0C121.7,406.3,121.6,406.2,121.2,406z"/>
	<path class="st0" d="M128.3,376.1C128.3,376.1,128.2,376.1,128.3,376.1c-0.1,0-0.1,0-0.1,0L128.3,376.1z"/>
	<path class="st0" d="M129.6,376.6c-2.1-0.3-1.9-0.4-1.4-0.6l-5-0.2L129.6,376.6z"/>
	<path class="st0" d="M128.2,394.8l1.6-0.1c2.5,0.8,1.6,1,3.8,1c-5.4-0.9-0.4-1.4-5.7-2.3l1.2,0c-0.1,0.1,0.3,0.1,0.2,0.2
		c2.6,0-3.8-0.9-3-1.3c0.4-0.1,1.2-0.1,1.9,0.1l-1.3-0.6c0.1-0.1,1.1,0.1,0.9,0.2l-0.3-0.7l0.2,0c-0.8-0.2-2.1-0.6-2.6-0.8
		c0.8-0.1,0.6,0.2,1.2,0.2l-1.3-0.5c1.4,0,2.7,0.5,2.5,0.7c5.4,0.4-1.3-0.5,1.9-0.8l0.6,0.4c3.1,0.2,2-0.2,4-0.4
		c-1,0-4.9,0.1-6.2-0.4c0.4-0.1,0.6-0.2-0.4-0.5c1.9,0.2,1.5,0,1.4-0.3l2.5,0.3c-0.7-0.4-2-0.5-3.1-0.8c0.3-0.3,2.3-0.1,3.9,0
		c0.5-0.4-3.2-0.1-3.6-0.7c1-0.3,0-0.7-1.4-1.4c0.9-0.2,1.5,0.2,2.3,0.2l-2-0.5c0.1-0.1,0.7,0,1,0.1c-0.8-0.3-2.5-0.3-3.2-0.7
		c-2.8-0.4,4.2-0.2,1-1c0.7,0,1.6,0.2,2.5,0.3c-2-0.8-1.5-0.7-4.2-1.4l1.7-0.2c-1.9,0.1-4.2-0.5-6-1c-0.9,0-1.7,0-2.1,0l-1.3-0.6
		c0.4,0,1.3,0.1,2.3,0.3c-0.2-0.1-0.4-0.1-0.6-0.2c1-0.1,2.4,0.1,3.8,0.4c-0.5,0-1.1,0-1.6,0c1.5,0.3,3.2,0.6,4.7,0.7
		c-0.3-0.1-0.5-0.2-0.7-0.2c0.4,0.1,0.8,0.1,1,0.1c0.3,0-0.3-0.1-0.9-0.2l2.8,0.2l-1.1-0.1l1.8-0.5c-2.8-0.8-7-1.6-8.1-2.4
		c2.1,0.4,3.4,0.3,5.9,0.6c-2.6,0,1.1,0.7,0.5,1c0.3-0.2,1.5,0,1.9,0.1l-2.3-0.9c2,0.2,1.5,0,2.4-0.1c-4-0.2-2.6-0.8-3.8-1.1
		c1.3,0.1,2.7,0.3,2.4,0.6c3-0.1-4.7-0.9-2.1-1.1c0,0.1-0.2,0.1,0.5,0.2c-1.2-0.3-0.2-0.7,1-0.5l0,0.1c0.5-0.5,0.2-1.7-3.2-2.1
		c0.4,0,4.1,0.4,4.8,0.4l-11.3-1.8c2.9,0.3,9.9,0.4,11.5,1c0.4-0.1,0.9-0.3-0.1-0.6c-0.4,0.1-4.2,0-4.5-0.2c3.3-0.1,1.7-0.1,4.5-0.4
		c-0.6,0.1-5.2-0.3-5-0.5c0.7,0.1,4.5,0.2,5,0.4l-4.5-0.8c0.8,0.2,3.8,0.2,5.1,0.2c-0.9,0,0.1-0.5-0.3-0.6l-1.1,0.2
		c0.7-0.6-6.3-0.9-6-1.5c0.9,0.1,5.7,0.5,6.3,0.2c-2.3-0.3-11-1.1-12.8-1.7l1.3,0l-1.5-0.5c3.5,0.4,10.7,1.4,13.5,1.9
		c1.1-0.2,1.6,0,1.5-0.4c1.2-0.1,1.9,0.3,1.9,0.4l0.8-0.8c-2.7-0.1-2.7-0.7-4.9-0.8l2.7,1c-2.7-0.1-7.6-0.8-7.1-1.4
		c1.1-0.1,4.8,0.3,5.7,0.3c-0.9-0.1-1.8-0.6-1.1-0.6l1.4,0.3c1-0.3-3.5-0.6-1-0.9c0.2-0.1,3.5-0.3,1.9-0.4
		c-3.1,0.1-12.6-0.1-14.9-0.3c0.2,0,2.9-0.6,4.5-0.7c2.4-0.2,5.7,0.5,7.8,0.3c-0.7,0-1.6-0.2-1.9-0.2c0.6-0.1,2.3,0.1,1.9-0.2
		c-2.7-0.1,0.2-0.6-2.3-0.2c-0.8-0.3,0.6-0.3,0.5-0.6c-1.8,0.1-6-0.4-6.8-0.7c0.7,0,1.6,0,2,0c0.3-0.6,1.5-0.9,1.5-1.4
		c0.7,0,1.5-0.3,2.6-0.2c-0.5-0.1-1.4-0.2-1.5-0.3c2.4-0.3,0.4,0.4,3.2,0.2c-1.6,0-2.2-0.5-3.2-0.7c-2.4,0.1-0.5,0.6,0.5,0.8
		c-3.4,0-6.9-0.5-8.5-1c-0.8-0.4,2.2-0.2,1.7-0.3c0.6-0.8-5.9-0.7-3.5-1.4c2.2-0.3,4.3,0,5.8-0.1c0.8,0.4-1.4,0.6-1.3,0.8l1-0.3
		c0.7,0.1,1.3,0.4,0.6,0.5c1.9-0.2,0.4-1.4,2.1-2.1c-0.7-0.1-1.5-0.3-2.3-0.2l0.3,0.2c-1.7,0.2-2.4-0.4-3.2-0.1
		c-1.2-0.3-3.1-0.5-2.2-0.9l2.5-0.1c-0.7,0-1.5,0.3-0.7,0.4c-1.1-0.1,3.3-0.7,0.1-0.8l-1.7,0.3c-1.2-0.3-3.8-0.5-3.1-0.9
		c-2.4,0.2,0.3,0.1-2.5,0.4c3.5-0.3-0.1,0.8,3.6,0.4c-3.3,0.3-1.4,0.4-4.2,0.8c0.8,0,1.5-0.1,1.2,0.1c0.2,0,0.5,0,0.7,0.1
		c0,0,0,0-0.1,0l0.1,0c0.1,0,0.1,0,0,0c0.4-0.1,0.8-0.1,1.2-0.2c1.9,0.1,1.8,0.6,2.8,0.7c-0.4,0.2-0.9-0.1-1.8,0l1.4,0.2
		c-1.8,0-3,0.5-4,0.1l-0.1,0.3c-1,0.2-1.4,0.5-0.7,0.7c-0.4,0.2,2,0.4,0.6,0.3l1.1,0.5l-0.4,0c-0.2,0.5,3,1.1-0.3,1.7
		c0.5,0.2,1,0.4,0.5,0.7l-1.6,0c0.5,0.2-1.6,0.7,0,0.8c-4.2,0.2-0.9,1.1-1.7,1.5l2,0.1c-0.1,0.3,0.4,0.6,1.3,0.9l1.8,0
		c1.5,0.4-1.3,0.7-1.1,1.2c-0.7-0.1-0.5-0.2-0.1-0.2c-4.1,0.4,2.9,1.3-0.1,1.7c0.6,0.2,0.4,0.2,0,0.3c0,0,0,0-0.1,0c0,0,0,0,0,0.1
		c-0.3,0-0.7,0.1-1,0.1c0.4,0,0.8-0.1,1-0.1c0,0.1,0.2,0.3,0.7,0.4l-1.9,0c0,0,0,0,0.1,0c-0.7,0.1,0.9,0.2,2.4,0.2
		c0.3,0.1,0.7,0.2,1.2,0.3c-3.1,0,1,0.5-2.3,0.4c1.6,0.2,1.2,0.8,4.6,1.1c-0.4,0-0.7,0-0.7-0.1c-0.4,0.1-0.8,0.3,0.2,0.5l-2.4-0.1
		l3.3,0.6c-1.5,0.1-2.4,0.2-4.2-0.2c2.9,0.7,1.1,0.5,3.9,1.2l-1.6-0.1c0,0.2,2.1,0.6,0.8,0.6c-3,0.1-0.6,1.8-3.4,2.5
		c4.7,0.2-2.1,0.2,1.5,0.6c-1.1,0-1.7,0-2.7-0.2c1,0.6-1.8,0.5,1.2,1.1c-1.1-0.1-1.6-0.3-2.3-0.3c0.2,0.1,0.9,0.2,0.3,0.2
		c-0.7,0-0.9-0.2-1.4-0.3c0.1,0.5,3.5,0.9,6.7,1.2c-1.5,0.1-1.3,0.2,0.7,0.6c-1,0-2.1,0-2.5-0.3c-0.2,0.2-1.6,0.9,0.9,1.2
		c-0.7,0-0.2,0.2,0.1,0.3c-0.2,0.4-0.4,0.4-0.2,0.8l0.4-0.1c3.1,0.5,0.6,0.4,1,0.7l-0.3,0c-2.3,0.4,1,0.4-1.6,0.8l1.9,0.2
		c4.1,0.6-2.5,0.3-1,0.9l1.1,0c1.4,0.4-5.6-0.1-6.2,0.1c-0.4,0-0.6-0.1-0.8-0.2c-2.5,0.2,2.5,0.4,3,0.9c-1.4-0.1-3.4-0.5-3.7-0.3
		c-1.1,0,4.3,1.4,1.6,1.4c1,0.1,2.1,0.1,2.8,0.4c0.3,0.4-4,0.3-0.8,1c-0.3,0-0.6,0-0.8-0.1c0.8,0.3,1.3,0.9,3,1.3
		c-6.6-0.8,3,1.9-3.1,1l0.2,0.8l-0.6-0.1c-0.5,0.4,0.9,0.8,2.4,1.2c-0.4,0-1-0.1-1.3-0.2c-1.3,0.5-1.1,0.6,1.8,1.6l-2-0.3
		c1.1,0.4-3.2,0.4-1.1,1.4c-0.2,0-0.6-0.1-0.9-0.2c2.2,1.2-5.7,0.7,1.3,2.3l1.7,0.8c0.7-0.5,3.1,0.7,4.3,0.7
		c0.4,0.3-2.3,0.2-2.6-0.2l0.4,0c-3.7-0.8-1.5,0.5-4,0c-0.1,1.3-2.3,2-2.7,3.1l2.9,0.5l-0.3,0.4c-0.7,0-2.3-0.4-2.1-0.6
		c-1.7-0.2,1.3,0.8,1.9,0.9c-1.3,0.3-3.3-1-3.4-0.8l0.2,0.3l0.3,0c1.1,0.4,2.4,0.7,2.1,1c-0.6,0.1-1.8-0.3-1.9-0.2
		c-0.2,0-0.3,0-0.1,0.1l-0.4,0.4l2.3,0.3c1.1,0.5-0.2,0.4,2.4,0.8c-4-0.6-1.8,1.5-3.1,1.4c1.6,0.7,1.5,1,1.2,1.3
		c0.5,0,3,0.6,2.6,0.8c-5.2-1.4-2.4,0-6.2-0.7c2.5,0.4,0.4,1.1,4,1.6c-0.5,0.2-1.9-0.5-3.2-0.6c1.9,1.2-1.7,1.1-1.2,2
		c0.7,0.2,1.7,0.3,2.7,0.8l-3.5-0.5c0.3,0.2,3.9,1.2,1.4,0.9c0.6,0.1,1.5,0.3,1.6,0.5c-1.9,0.3-1.4,1.3-1.3,2.2
		c0.1,0.9-0.2,1.7-3.5,1.5c1.4,0.2,1.5,0.4,1.5,0.5c0.3,0,1.7,0.5,2.6,0.8l-2.7-0.1c2.5,0.9,0,0.7,2.4,1.6l-0.4-0.3
		c2.8,1.2,6.5,1.6,10.1,2.8c-3.1-1.3,5.1,0.6,0.6-1.3c0.8,0.1,1.1,0.5,2,0.7c-1.5-0.6-1.8-0.9-1-1l0.4,0.2c-0.1-1,1.5-0.9,2.9-1.6
		l-1.8-0.5c0.3-0.1,0.9,0,1.4,0c-2.7-1-0.3,0.5-3.3-0.6c3.8,0.8,0.5-1.4,4.7-0.4c0.1-0.3-2.1-0.5-2-0.8l1.2,0.2l-1.4-0.5
		c0.3-0.1,1.8,0.1,2.7,0.4c-0.1,0,0.2,0.2,0.3,0.3c1.4,0.1-0.2-0.9,0.2-0.9l-0.8,0.1c-0.8-1.2,1-1.9-1.1-3.3l-0.9-0.2
		c-1.4-1.1,1.1-0.3,0.5-1.2l0.2,0.1c-0.8-0.4-1.2-0.7-1.1-0.8c1,0.4,2.1,0.2,3.1,0.7c-1.5-1.1-1.3-0.7-4.4-1.9l1.5,0.2
		c-1.3-0.5-1.9-0.7-2.2-1.1c1.2,0.6,2.3,0.3,3.8,1c3.3,0-2.9-1.9,1.8-1.1c-3.9-1.3-2.4,0.1-3.2-0.3c-1.3-0.1-2.9-1-2.5-1.1
		c0.1-0.2,5.2,0.8,5.3,0.2c0,0.1,0.3,0.1,0.2,0.2c1.1,0-1.3-0.8,0.4-0.7c-2.4-0.7,0.2-0.3-2.9-1.1l0.6,0.7c-0.7-0.5-4.3-1.6-2.4-1.7
		c0.6,0.2,1.4,0.5,1.8,0.7c0.9,0.1-0.5-0.4,0.4-0.4c3.1,0.7,0.5,0.8,2.8,1.7c1.3,0.1-2.1-1.1,1.2-0.2c-4.2-1.2,0.7-0.5-2.5-1.6
		l1.8,0.4c-0.3-0.1-1.1-0.5-1-0.6l2.4,0.7c-2-0.8,1.9-0.3,0.9-0.8c-0.1,0.7-2.3-0.3-3.7-0.3c-2.3-1.3,5,0.5,4.3-0.6
		c0.2,0.2-1.2,0.2-2-0.1c0.4-0.1,1.2-0.2,2.2-0.1c-0.3-0.7-1.9-0.3-3-0.8c2.3,0.2-0.9-0.5-1.5-0.9l1.9,0.4c1.4-0.5-3.9-1-2.3-1.3
		l2.6,0.8l-0.6-0.5l2.1,0.5c-1.5-0.7-1.1-0.7-0.4-0.9c-1.4-0.2-3.4-0.7-3.4-1c1.2,0,1.8,0.5,1.6,0c1.2,0.3,2.6,0.7,0.8,0.6
		c0.6,0.1,1.2,0.3,1.8,0.5c1.3,0,0.4-0.5,0.4-0.7c-0.1,0-0.2,0.1-0.5,0.1l-2.5-1.1c0.7,0,1.3,0.2,1.8,0.4c-0.2-0.2-1-0.4-1.2-0.6
		c1.5,0.3,3.1,0.6,3.8,1l-1.6-0.9c0.7,0.1,1.9,0,2.5,0.2c1-0.2-2.8-1.4-1.6-1.6c-0.3-0.1-0.6-0.2-0.8-0.3c0.4-0.4,2.4-0.4,0.4-1.3
		l2.8,0.2c-0.6-0.5-3.6-0.2-4.5-1c-0.8-0.6,2.4,0.2,3.2,0.2c-1.4-0.5-4.2-1.3-1.8-1.4C128.4,394.6,128,394.7,128.2,394.8z
		 M127.6,389.8c0.4,0.1,1.6,0.5,0.5,0.4C125.9,389.8,127,389.9,127.6,389.8z M123.9,381.9c0.6,0.1,0.3,0.2-0.4,0.3
		C123.3,382,123.4,382,123.9,381.9z M111.3,361.6C111.4,361.6,111.4,361.6,111.3,361.6C110.7,361.8,111,361.8,111.3,361.6z
		 M112.2,361.2c-0.3,0-0.5,0-0.8,0c0.5,0,0.5,0.1,0.4,0.2C112.3,361.4,112.6,361.3,112.2,361.2z M108.2,404.5l0.5,0
		C109.3,404.8,108.8,404.7,108.2,404.5z"/>
	<path class="st0" d="M126.4,383c-0.3,0-0.7,0-1-0.1C125.7,383,126.1,383,126.4,383z"/>
	<path class="st0" d="M128.6,398.1C128.6,398.1,128.6,398.1,128.6,398.1c0.1,0,0.2,0.1,0.3,0.1L128.6,398.1z"/>
	<path class="st0" d="M128.5,367.9c-0.3,0.1-0.6,0.1-1,0.1C127.9,368.1,128.3,368,128.5,367.9z"/>
	<path class="st0" d="M108.9,359.1l0.5,0.2c-0.1-0.1,0.3-0.2,0.6-0.2C109.5,359.2,108.9,359.2,108.9,359.1z"/>
	<path class="st0" d="M120.7,356.5c-0.2,0,0-0.1-0.3-0.1l-0.9,0C119.6,356.6,120.4,356.7,120.7,356.5z"/>
	<path class="st0" d="M115.3,358.8c1.6-0.1,1.1-0.2,0.8-0.4c0,0,0,0,0,0C113.8,358.4,114.5,358.6,115.3,358.8z"/>
	<path class="st0" d="M116,358.3c-0.1-0.1-0.1-0.1,0-0.2C115,358.2,115.7,358.2,116,358.3z"/>
	<path class="st0" d="M111.1,360.7c0.4-0.1-2.1,0-1.4-0.1C107.6,360.6,112.2,361.2,111.1,360.7z"/>
	<polygon class="st0" points="120.6,358.5 118.6,358.6 120.2,358.7 	"/>
	<path class="st0" d="M119.2,360l0.5-0.3c-0.3,0-0.5,0-0.7-0.1C119,359.8,118.6,360,119.2,360z"/>
	<path class="st0" d="M119,359.6c0-0.1,0-0.2-0.3-0.2C118.7,359.4,118.8,359.6,119,359.6z"/>
	<polygon class="st0" points="121.2,358.9 120.8,359 120.7,359.2 	"/>
	<path class="st0" d="M118.8,363.2l0.6,0.3c0.7,0,1.1-0.1,0.8-0.2C119.7,363.3,119.5,363.2,118.8,363.2z"/>
	<path class="st0" d="M124.3,362.2c-0.4,0.1-0.9,0.1-1.5,0.2l2.5,0L124.3,362.2z"/>
	<path class="st0" d="M124.9,363.2c0.7,0,2,0.5,1.8,0.1C126,363.2,125.4,362.9,124.9,363.2z"/>
	<polygon class="st0" points="121.6,368.2 121.6,368.1 117.5,368 	"/>
	<path class="st0" d="M131.2,373.1c1-0.4-2.5-0.2-1.3-0.5c-1-0.1-1,0.3-1.8,0.1C129.1,373,128.5,373.1,131.2,373.1z"/>
	<path class="st0" d="M128.1,372.7c-0.2,0-0.4-0.1-0.6-0.2C127.7,372.6,127.9,372.7,128.1,372.7z"/>
	<polygon class="st0" points="102.4,418.2 101.5,418.1 102.9,418.4 	"/>
	<path class="st0" d="M105.2,419.5l-2.5-0.7l2.2,0.8C104.8,419.5,104.6,419.4,105.2,419.5z"/>
	<path class="st0" d="M132.9,389.7l-0.6-0.1c-0.7,0-0.7,0-0.9,0.1L132.9,389.7z"/>
	<polygon class="st0" points="130.5,393.1 130.6,393 128.2,392.8 	"/>
	<path class="st0" d="M133,396.6c0.1-0.1-0.4-0.3-0.3-0.4C133.1,396.5,130.1,396.1,133,396.6z"/>
</g>
</svg>
