<!-- Generator: Adobe Illustrator 22.0.1, SVG Export Plug-In  -->
<svg version="1.1"
	 xmlns="http://www.w3.org/2000/svg" xmlns:xlink="http://www.w3.org/1999/xlink" xmlns:a="http://ns.adobe.com/AdobeSVGViewerExtensions/3.0/"
	 x="0px" y="0px" width="148.9px" height="397.1px" viewBox="0 0 148.9 397.1" style="enable-background:new 0 0 148.9 397.1;"
	 xml:space="preserve">
<style type="text/css">
	.st0{fill:#EDA87A;}
	.st1{fill:#FFC599;}
	.st2{fill:url(#SVGID_1_);}
	.st3{fill:url(#SVGID_2_);}
	.st4{fill:url(#SVGID_3_);}
	.st5{fill:url(#SVGID_4_);}
	.st6{fill:#562918;}
	.st7{fill:#7A4726;}
	.st8{fill:url(#SVGID_5_);}
	.st9{fill:#722916;}
	.st10{fill:url(#SVGID_6_);}
	.st11{fill:#FFFFFF;}
	.st12{fill:#2E1710;}
	.st13{fill:#D14937;}
	.st14{fill:#1A2230;}
	.st15{fill:#211011;}
	.st16{fill:#0C436B;}
	.st17{fill:#0E3759;}
	.st18{fill:#09324C;}
	.st19{fill:url(#SVGID_7_);}
	.st20{fill:#6D3319;}
	.st21{fill:#552A15;}
	.st22{fill:#D39416;}
	.st23{fill:#E28A76;}
	.st24{fill:url(#SVGID_8_);}
	.st25{fill:url(#SVGID_9_);}
	.st26{fill:#EEB01E;}
	.st27{fill:#F9EC29;}
	.st28{fill:#A35625;}
	.st29{fill:#7D3D1D;}
	.st30{fill:#0D3759;}
	.st31{fill:#BDE5EF;}
	.st32{fill:#85A9A0;}
	.st33{fill:url(#SVGID_10_);}
	.st34{fill:#DEF1F7;}
	.st35{fill:#07446B;}
	.st36{fill:#054E77;}
	.st37{fill:url(#SVGID_11_);}
	.st38{fill:url(#SVGID_12_);}
	.st39{fill:url(#SVGID_13_);}
	.st40{fill:url(#SVGID_14_);}
	.st41{fill:url(#SVGID_15_);}
	.st42{fill:url(#SVGID_16_);}
	.st43{fill:url(#SVGID_17_);}
	.st44{fill:url(#SVGID_18_);}
	.st45{fill:url(#SVGID_19_);}
	.st46{fill:url(#SVGID_20_);}
</style>
<defs>
</defs>
<g>
	<g>
		<path class="st0" d="M74.7,154.9c0.7,7.2-26.9,8.7-27.5,1.4c-0.2-2.5-0.1-11.7-0.7-14.2c-1.8-7,28-8.7,27.5-1.4
			C73.8,143.6,74.5,152.3,74.7,154.9z"/>
		<path class="st1" d="M80.1,27l-25.8,5.7L28,29.7L16.5,45.7c0,0,2.5,35.4,6.2,60.4c3.7,25.3,11.4,32.8,15.1,35.2
			c6.9,4.5,21.5,3.4,22.4,3.3c0.9,0,15.5-0.4,21.9-5.7c3.4-2.8,10.3-11.1,11.3-36.6c1-25.2-0.2-60.7-0.2-60.7L80.1,27z"/>
		
			<linearGradient id="SVGID_1_" gradientUnits="userSpaceOnUse" x1="102.3477" y1="30.7495" x2="29.0011" y2="30.7495" gradientTransform="matrix(0.9986 -5.260000e-02 5.260000e-02 0.9986 -11.7848 20.1122)">
			<stop  offset="0" style="stop-color:#F19C7C"/>
			<stop  offset="0.3389" style="stop-color:#F5A784"/>
			<stop  offset="0.936" style="stop-color:#FFC599"/>
		</linearGradient>
		<path class="st2" d="M18.6,40.8l0.7,19c21.3-10.9,61.2-4.9,70.2-14.4c1.3-1.3,2.4-7.8,1.9-9.9c-0.6-2.1-19.6,3.1-23.3,3.3
			C64.4,39,38,41.1,34.5,40.6C31.1,40,18.6,40.8,18.6,40.8z"/>
		
			<linearGradient id="SVGID_2_" gradientUnits="userSpaceOnUse" x1="97.1763" y1="30.2741" x2="98.9656" y2="55.2944" gradientTransform="matrix(0.9986 -5.260000e-02 5.260000e-02 0.9986 -11.7848 20.1122)">
			<stop  offset="0" style="stop-color:#F19C7C"/>
			<stop  offset="0.3389" style="stop-color:#F5A784"/>
			<stop  offset="0.936" style="stop-color:#FFC599"/>
		</linearGradient>
		<path class="st3" d="M92.7,38.8c-0.1-0.3-15.3,11.4-11.5,10.6c0.9-0.2,2.5-0.7,3.1,2.6c0.6,3.3,0.9,4.4,1.8,7.7
			c1,3.5,2.7,7.6,3.7,8.9c1.1,1.3,3.3,2.3,4.4,1.6c1.1-0.6,1-5,0-9.3c-1.1-4.7-1.9-6.9-2.2-10.8C91.8,46.3,92.7,38.8,92.7,38.8z"/>
		<g>
			<path class="st1" d="M99.6,68.4c4.4-0.5,9,1.4,10.6,5.1c1,2.4,0.9,5,0.3,7.7c-1,4.3-2.9,7.8-5.5,9.9c-2.8,2.3-5,2.2-7.3,1.7
				c-3.4-0.7-5.8-3.2-6.5-4.7c-1.6-3.7-1.4-9.2-1.1-13.1C90.2,73.7,93.1,69.2,99.6,68.4z"/>
			
				<linearGradient id="SVGID_3_" gradientUnits="userSpaceOnUse" x1="101.6318" y1="65.9069" x2="113.7028" y2="65.9069" gradientTransform="matrix(0.9986 -5.260000e-02 5.260000e-02 0.9986 -11.7848 20.1122)">
				<stop  offset="0" style="stop-color:#FFC599"/>
				<stop  offset="1" style="stop-color:#EE7F52"/>
			</linearGradient>
			<path class="st4" d="M94.4,74.8c1.2-2,4.8-2.3,7.2-1.2c2.4,1.2,3.8,4.1,3.6,7.3c-0.1,2.8-2.5,5.3-5.1,6.3c-2,0.8-4.2,0.7-5.4-1.1
				c-1.1-1.6-1.4-4-1.5-5.2C93.1,78.9,93.4,76.6,94.4,74.8z"/>
		</g>
		<g>
			<path class="st1" d="M11.3,73.1c-4.4-0.1-8.8,2.3-10,6.2c-0.8,2.5-0.4,5.1,0.5,7.7c1.4,4.2,3.7,7.5,6.5,9.3c3,2,5.2,1.7,7.5,1
				c3.3-1.1,5.5-3.8,6-5.4c1.2-3.8,0.4-9.2-0.3-13.2C21.2,77.3,17.9,73.2,11.3,73.1z"/>
			
				<linearGradient id="SVGID_4_" gradientUnits="userSpaceOnUse" x1="922.1859" y1="66.5807" x2="934.257" y2="66.5807" gradientTransform="matrix(-0.9986 5.260000e-02 5.260000e-02 0.9986 936.3348 -30.5001)">
				<stop  offset="0" style="stop-color:#FFC599"/>
				<stop  offset="1" style="stop-color:#EE7F52"/>
			</linearGradient>
			<path class="st5" d="M17.1,78.9c-1.4-1.8-5-1.8-7.3-0.4S6.5,82.9,7,86.1c0.4,2.8,3,5,5.7,5.7c2,0.6,4.3,0.2,5.3-1.6
				c0.9-1.7,1-4.1,0.9-5.3C18.8,82.8,18.3,80.5,17.1,78.9z"/>
		</g>
		<g id="hair_1_">
			<path class="st6" d="M12.5,26.2C4.3,30.4,1.6,36.5,1.5,43c-0.1,12,8.8,25.8,10.4,33.2c0.4,1.9,6.8,1,7.3-1.4
				C22.3,61.1,21,49.4,19.4,40C18.2,33.2,13.5,25.6,12.5,26.2z"/>
			<path class="st7" d="M94,21.7c8.6,3.3,12,9,12.8,15.6c1.4,11.9-6,26.6-6.7,34.2c-0.2,2-6.7,1.7-7.4-0.6
				c-4.6-13.4-4.6-25.1-4-34.7C89,29.4,92.9,21.3,94,21.7z"/>
			<path class="st6" d="M102.7,38c-1.3-5.5-4.7-9.7-11.9-11.1c-1.1,2.7-2,6.1-2.2,9.3c-0.6,9.5-0.6,21.3,4,34.7
				c0.2,0.6,0.9,1.1,1.7,1.4c2.1,0.6,5.1,0.3,5.1-1.1C99.4,63.6,105.3,48.9,102.7,38z"/>
			<path class="st6" d="M21.6,13.1C5.7,21.2,8.2,42.7,26.8,46.7c12.7,2.7,43.7,1.2,56.7-6.2c23.1-13.2,9.6-36.9,7.8-36
				c-0.9,0.5-2.6,5.6-9.2,7.6c-2.6,0.8-5.3,1.1-7.5,1.3C59.3,14.8,33.7,7,21.6,13.1z"/>
			<path class="st7" d="M21.3,12.2c-5.4,2.7-9.1,7-10,11.8c-1,5.3,1.2,11.1,2.9,13.9c2.3,3.8,3.6,4.5,4.3,4.3
				c0.9-0.2-1.3-6.4,1-12.4c1.7-4.6,8.7-9.4,19.2-10.3c11.3-1,25.3,1.6,37.2-1c6.4-1.4,10.3-4.6,10.9-9.3C87.7,2.9,82.5-0.2,82,0
				c-0.2,0.1-0.5,1.3-1.3,2.2c-3.8,4.6-14,6.6-17.6,6.9C47.7,10.3,33.3,6.1,21.3,12.2z"/>
		</g>
		
			<linearGradient id="SVGID_5_" gradientUnits="userSpaceOnUse" x1="64.7729" y1="75.9847" x2="64.7729" y2="28.2378" gradientTransform="matrix(0.9986 -5.260000e-02 5.260000e-02 0.9986 -11.7848 20.1122)">
			<stop  offset="0.1945" style="stop-color:#FFC599"/>
			<stop  offset="1" style="stop-color:#F48655"/>
		</linearGradient>
		<path class="st8" d="M85.1,65c-5.3-4.8-14.3-6.4-25.3-6.2c-1.3,0-3.2,11.5-3.2,11.5l-3.9,0.1c0,0-1.1-11.2-2.6-11.1
			c-10.6,1-19.6,3.6-24.3,8.8c-2.4,2.7-2.9,5.2-2.7,8.3c0.4,6.9,0.8,13.1,4.7,16c6.8,5,16.1-0.2,28.3-0.8c0.2,0,0.4,0,0.6,0
			c0.2,0,0.4,0,0.6,0c12.2-0.6,22,3.5,28.2-2.2c3.6-3.3,3.4-9.4,3-16.4C88.5,69.8,87.8,67.4,85.1,65z"/>
		<g id="eyebrows_1_">
			<path class="st9" d="M49.5,61.4c-2.9,0.7-7,1.6-10.8,2.8c-3.2,1-6.2,2.1-8.2,2.9c-0.7,0.3-2,1-2.4,0.4c-0.1-0.1-0.2-0.3-0.2-0.4
				c-0.1-0.7,0-1.9,0.4-2.6c0.4-0.8,1.5-1.3,2.1-1.6c4.4-2.3,12.6-5.2,17.2-6.4c0.3-0.1,0.9-0.2,1.5,0.4c0.7,0.6,1.9,2.1,2,3
				C51.3,60.7,50.4,61.2,49.5,61.4z"/>
			<path class="st9" d="M60.5,60.7c3,0.4,7.1,0.9,11,1.7c3.3,0.7,6.4,1.5,8.5,2c0.7,0.2,2.1,0.7,2.4,0.1c0.1-0.1,0.1-0.3,0.1-0.4
				c0-0.7-0.2-1.8-0.7-2.5c-0.5-0.7-1.6-1.2-2.2-1.4c-4.6-1.9-13.1-3.9-17.7-4.6c-0.3,0-0.9-0.1-1.5,0.6c-0.6,0.7-1.7,2.2-1.7,3.2
				C58.6,60.2,59.6,60.6,60.5,60.7z"/>
		</g>
		
			<linearGradient id="SVGID_6_" gradientUnits="userSpaceOnUse" x1="67.0463" y1="90.1476" x2="66.6699" y2="52.5889" gradientTransform="matrix(0.9986 -5.260000e-02 5.260000e-02 0.9986 -11.7848 20.1122)">
			<stop  offset="0" style="stop-color:#F07A4A"/>
			<stop  offset="0.2166" style="stop-color:#F28555"/>
			<stop  offset="0.6003" style="stop-color:#F8A173"/>
			<stop  offset="1" style="stop-color:#FFC599"/>
		</linearGradient>
		<path class="st10" d="M56.7,69.7c0.5,7.3,0.2,14.7,2.2,21.7c1.5,5,7.1,7.4,7.3,10.5c0.1,2.6-4.4,4.8-8.2,5.4
			c-0.9,0.1-2.8,0.4-4.4-3.5c-1-2.6-1.7-24.3-0.7-33.8C52.9,68.9,56.6,68.7,56.7,69.7z"/>
		<path class="st11" d="M46.4,78.1c0.2,3.4-2,6.2-4.9,6.4c-2.9,0.2-5.4-2.5-5.5-5.8c-0.2-3.4,2-6.2,4.9-6.4
			C43.7,72.1,46.2,74.7,46.4,78.1z"/>
		<path class="st11" d="M63.9,77.2c0.2,3.4,2.7,6,5.5,5.8c2.9-0.2,5.1-3,4.9-6.4c-0.2-3.4-2.7-6-5.5-5.8
			C65.9,70.9,63.7,73.8,63.9,77.2z"/>
		<path class="st12" d="M71.2,75.4c0.1,1.1-0.8,2.1-2,2.2c-1.1,0.1-2.1-0.8-2.2-2c-0.1-1.1,0.8-2.1,2-2.2
			C70.1,73.4,71.1,74.3,71.2,75.4z"/>
		<path class="st12" d="M43.3,76.7c0.1,1.1-0.8,2.1-2,2.2c-1.1,0.1-2.1-0.8-2.2-2c-0.1-1.1,0.8-2.1,2-2.2
			C42.2,74.7,43.2,75.6,43.3,76.7z"/>
		<path class="st13" d="M39.9,110.6c-0.4-1.1,0.2-1.3,0.7-0.7c0.4,0.4,1,1.1,1.6,1.6c4.3,4.3,10.4,6.5,16.1,6.9
			c5.1,0.4,10.3-1,15-3.7c0.5-0.3,0.7,0.2,0.3,0.6c-2.5,2.4-8.7,5.4-15.3,5c-5.7-0.3-12.1-2.2-16.9-7.6
			C40.7,112.3,40.1,111.4,39.9,110.6z"/>
	</g>
	<g>
		<g>
			<path class="st14" d="M75.8,379.6c-0.4,0.1-2.6,4.8-3.3,8.4c-0.3,1.6-0.5,3.2-0.5,4.7c0,0.7,0.2,1.1,0.6,1.3
				c5.1,3,39.8,4.3,46,0.2c0.2-0.1,0.7-0.5,0.8-0.8c0.2-0.8,0-1.8-0.7-2.9c-2.2-3.3-18-10.6-22.4-11.3
				C92.2,378.7,78.3,378.8,75.8,379.6z"/>
			<path class="st15" d="M119.1,391.5c-0.2,0.2-0.5,0.3-0.6,0.4c-6.2,4.1-40.9,2.8-46-0.2c-0.2-0.1-0.4-0.3-0.5-0.4
				c-0.1,0.5-0.2,1.2-0.1,1.9c0.1,0.7,0.3,1.1,0.7,1.3c5.1,3,39.8,4.3,46,0.2c0.2-0.1,0.6-0.5,0.8-0.8
				C119.6,393.2,119.6,392.3,119.1,391.5z"/>
		</g>
		<g>
			<path class="st14" d="M62,379.6c0.4,0.1,2.6,4.8,3.3,8.4c0.3,1.6,0.5,3.2,0.5,4.7c0,0.7-0.2,1.1-0.6,1.3c-5.1,3-39.8,4.3-46,0.2
				c-0.2-0.1-0.7-0.5-0.8-0.8c-0.2-0.8,0-1.8,0.7-2.9c2.2-3.3,18-10.6,22.4-11.3C45.6,378.7,59.6,378.8,62,379.6z"/>
			<path class="st15" d="M18.7,391.5c0.2,0.2,0.5,0.3,0.6,0.4c6.2,4.1,40.9,2.8,46-0.2c0.2-0.1,0.4-0.3,0.5-0.4
				c0.1,0.5,0.2,1.2,0.1,1.9c-0.1,0.7-0.3,1.1-0.7,1.3c-5.1,3-39.8,4.3-46,0.2c-0.2-0.1-0.6-0.5-0.8-0.8
				C18.3,393.2,18.2,392.3,18.7,391.5z"/>
		</g>
		<path class="st16" d="M107.6,238.2c0,0-14.8,6.4-19.8,7.9c-10.8,3.1-16.2,5.4-19,7.2c-2.8-1.8-6.3,26.7,0,26.7
			c6.6,0,11.8-1.8,11.8-1.8s-2.5,20.2-4.6,49.3c-1.9,26.1-2.4,44.4-2.6,50.3c0,1.1,0.2,1.2,0.5,1.3c1.5,0.7,5.9,2.4,13.1,2.4
			c6.7,0,10.5-1,12.1-1.5c0.5-0.2,0.7-0.7,0.7-1.3c-0.1-5.3-0.2-29.5,0.8-54.7c1-25,6.2-69.6,6.4-72.5
			C107.5,245.4,107.6,238.2,107.6,238.2z"/>
		<path class="st17" d="M71.4,253.7c-2.8-1.8-10.8-4.6-21.6-7.7c-5-1.4-20.1-1.6-20.1-1.6s6,45.9,7.3,79.4c1,25.2,0.9,49.4,0.8,54.7
			c0,0.7,0.2,1.2,0.7,1.3c1.5,0.5,5.4,1.5,12.1,1.5c7.1,0,11.6-1.7,13.1-2.4c0.4-0.2,0.6-0.2,0.5-1.3c-0.2-5.9-0.8-24.2-2.6-50.3
			c-2.1-29-4.6-49.3-4.6-49.3s5.5,1.8,11.8,1.8C73.9,280.2,75.1,255.8,71.4,253.7z"/>
		<path class="st18" d="M78.8,294.8c0,0,3.8,1.8,11.7,1.3c7.4-0.5,12.3-3,12.3-3c1.8-20.3,4.1-39.8,4.2-41.7
			c0.5-6,0.6-13.2,0.6-13.2s-14.8,6.4-19.8,7.9c-10.8,3.1-16.2,5.4-19,7.2c-2.8-1.8-6.3,26.7,0,26.7c6.6,0,11.8-1.8,11.8-1.8
			S79.8,284.4,78.8,294.8z"/>
		<path class="st18" d="M58.8,294.2c-1-10.1-1.7-16-1.7-16s5.5,1.8,11.8,1.8c5.1,0.1,6.3-24.2,2.6-26.3c-2.8-1.8-10.8-4.6-21.6-7.7
			c-5-1.4-20.1-1.6-20.1-1.6s3.2,24.2,5.4,50.3c0,0,5.6,1.9,12,1.8C55.1,296.5,58.8,294.2,58.8,294.2z"/>
	</g>
	
		<linearGradient id="SVGID_7_" gradientUnits="userSpaceOnUse" x1="15.2345" y1="253.3948" x2="41.5113" y2="253.3948" gradientTransform="matrix(0.9991 -4.230000e-02 4.230000e-02 0.9991 -7.0646 19.4479)">
		<stop  offset="0.1718" style="stop-color:#FFBE8C"/>
		<stop  offset="0.8808" style="stop-color:#F2B791"/>
	</linearGradient>
	<path class="st19" d="M33.3,260c0,0,12.3-0.4,11.7,9.5c-0.5,6.8-1.5,10-3.1,12c-1,1.2-4.9,1.8-11.6-2.2
		c-6.8-4.1-11.6-13.5-11.8-15.1C18.4,262.6,33.3,260,33.3,260z"/>
	<g>
		<g>
			<g>
				<path class="st20" d="M121.4,301.8c1.4-3.4,3.5-3.5,5.5-3.5c1.9-0.1,4-0.2,5.7,3.2c1.8,3.6,9,28.3,8.5,48.7
					c0,1.3-0.7,3.5-2.6,4.8c-1.2,0.8-5.3,4.4-10.7,4.6c-5.3,0.2-6.9-2.1-9-3.6c-1.9-1.4-3.1-3.6-3.2-4.9
					C113.7,330.7,119.8,305.6,121.4,301.8z"/>
				<g>
					<path class="st21" d="M124.6,297.8l6.9-0.2l-0.5-15.6c0-1-0.5-1.9-1.2-2.5c-0.6-0.5-1.4-0.8-2.3-0.8l0,0
						c-0.8,0-1.6,0.4-2.2,0.9c-0.7,0.7-1.2,1.6-1.1,2.7L124.6,297.8z"/>
					<path class="st22" d="M124.4,299l7.3-0.2c0.2,0,0.4-0.2,0.4-0.4l-0.1-2.2c0-0.2-0.2-0.4-0.4-0.4l-7.3,0.2
						c-0.2,0-0.4,0.2-0.4,0.4l0.1,2.2C124,298.8,124.2,299,124.4,299z"/>
				</g>
			</g>
			<g>
				<path class="st23" d="M124.3,283.4c-1.8-0.9-4.5,1.6-4.9,3.2c-0.4,1.6,0.7,3.5,1.2,5c0.5,1.5,1.4,3.4,2.3,3.8
					c0.8,0.4,4.4,0.7,5.6,0.7c1.2,0,1.1-3.4,0.5-4.5C128.5,290.4,126.4,284.5,124.3,283.4z"/>
				<path class="st23" d="M131.7,267.9c6.3,1.8,9.2,14.1,8.7,16.5c-0.7,3-3.2,6.2-7,6.7c-4,0.6-8.3-3.9-8.7-5.4
					C123,279.3,129.4,267.2,131.7,267.9z"/>
				
					<linearGradient id="SVGID_8_" gradientUnits="userSpaceOnUse" x1="1057.7001" y1="454.4781" x2="1057.5862" y2="483.2544" gradientTransform="matrix(-0.9653 -0.2613 -0.2613 0.9653 1276.4691 106.3533)">
					<stop  offset="0.1718" style="stop-color:#FFBE8C"/>
					<stop  offset="0.8808" style="stop-color:#F2B791"/>
				</linearGradient>
				<path class="st24" d="M141.5,262.1c2.1,1.6,5.7,19.9,5.6,23.4c-0.1,1.9-6.6,9.3-10.3,10.7c-3,1.2-11.5-0.5-13.4-2.1
					c-1.5-1.3-1.1-5.4-3.1-8.9c-1-1.7-3.2-5.7,0.1-5.9c8.7-0.5,7.3,5.9,8.1,9.1c0.1,0.5,3,1.2,5.3-0.1c1.4-0.8,3.7-5.5,3.6-6.6
					c-3.9-2.3-6.7-3.3-7.7-6.2c-2.3-6.7,1.3-12.3,2.2-12.8C134.3,261.3,140.1,261,141.5,262.1z"/>
				<path class="st23" d="M120.1,284.6c0,0-0.3,1,1.1,1.2c1.2,0.2,3.4-0.4,5.2-2.5c2.1-2.6,2.7-6.4,3-7.9c0.4-2.2-0.2-3-0.2-3
					s-1.6,5-2.5,6.6c-0.7,1.2-2.7,3.5-3.9,4.2C121.4,284,120.1,284.6,120.1,284.6z"/>
				
					<linearGradient id="SVGID_9_" gradientUnits="userSpaceOnUse" x1="1064.7661" y1="456.9261" x2="1071.6372" y2="474.9202" gradientTransform="matrix(-0.9653 -0.2613 -0.2613 0.9653 1276.4691 106.3533)">
					<stop  offset="0.1718" style="stop-color:#FFBE8C"/>
					<stop  offset="0.8808" style="stop-color:#F2B791"/>
				</linearGradient>
				<path class="st25" d="M132.6,264.3c-1.4-2.5-8,1-9.5,5.3c-0.4,1.1-1.4,5.6-4.2,9.2c-1.3,1.8-3.7,2-3.4,3.9
					c0.3,2,3.6,3.9,7.2,2.3c2.3-1,4.6-3.5,5.4-7.1c0.9-3.8,2.9-5.3,4-7C133.6,268.7,133.3,265.7,132.6,264.3z"/>
			</g>
			<g>
				<path class="st26" d="M146.7,336.4l1.7-0.2c0.3,0,0.6-0.3,0.5-0.7l-1.3-9.9c0-0.3-0.3-0.6-0.7-0.5l-1.7,0.2
					c-0.3,0-0.6,0.3-0.5,0.7l1.3,9.9C146,336.2,146.3,336.5,146.7,336.4z"/>
				<path class="st27" d="M145.6,328l1.7-0.2c0.3,0,0.6-0.3,0.5-0.7l-0.2-1.5c0-0.3-0.3-0.6-0.7-0.5l-1.7,0.2
					c-0.3,0-0.6,0.3-0.5,0.7l0.2,1.5C144.9,327.8,145.2,328.1,145.6,328z"/>
				<g>
					<path class="st21" d="M128.7,299c0,1.7,6.8,1.5,6.9-0.2c0.2-12.6-0.9-16.4-0.9-16.4c-0.3-1-0.9-1.8-1.7-2.2
						c-2.4-1-3.9,0.4-4.4,1.1c-0.6,0.8-0.8,1.8-0.5,2.9C128,284.1,129,289.4,128.7,299z"/>
					<path class="st26" d="M128.5,300.2l7.3-0.2c0.2,0,0.4-0.2,0.4-0.4l-0.1-2.2c0-0.2-0.2-0.4-0.4-0.4l-7.3,0.2
						c-0.2,0-0.4,0.2-0.4,0.4l0.1,2.2C128.1,300.1,128.3,300.2,128.5,300.2z"/>
				</g>
				<path class="st28" d="M134.3,360.2c4.3-0.1,8.4-0.9,10.7-1.8c2.7-1,2.5-4.7,2.5-6c0.5-21.4-6.9-46.7-8.8-50.5
					c-1.9-3.8-5.1-3.7-6.2-3.6l-0.3,0c-1.4,0.1-4.5,0.2-6.2,4.1c-1.6,3.9-7.2,29.6-5.3,50.9c0.1,1.3,0.3,5,3,5.8
					C125.2,359.5,128.7,360.4,134.3,360.2z"/>
				<path class="st28" d="M140,303c2.8,5.3,4.6,13.1,6.4,17.9c0.6,1.6,2,3.1,2,3.4c0,0.7-2.4,2.1-4.3,2.5
					c-1,0.2-13.2-16.5-15.8-24.2c-1.1-3.4,2.8-4.2,4.7-4.2C136.5,298.5,138.7,300.4,140,303z"/>
				<path class="st29" d="M126.9,303c1.4-3.4,4.2-3.5,5.5-3.5c1.2-0.1,4-0.2,5.7,3.2c1.5,2.9,5.8,18.9,7.5,35.6
					c0.5,4.4,1.1,8.9,1,13.1c0,1.3-0.4,4-2.6,4.8c-0.9,0.3-4.6-0.7-4.9-0.5c-1,0.8-2.8,1.9-4.7,1.9c-2.3,0.1-4.5-0.9-5.2-1.1
					c-1.2-0.2-3.7,0.5-4.5,0.3c-2.2-0.7-2.8-3.3-2.9-4.6c-0.5-5,0.3-10.3,0.6-15.5c0.3-6.8,0.5-13.7,1.2-19.3
					C124.5,309.9,126.2,304.6,126.9,303z"/>
			</g>
		</g>
		<path class="st30" d="M84.3,162.8c1.9-3.9,4.9-3.3,6.7-2.5c0.9,0.4,19.5,8,36.9,40.5c12.2,22.7,16.7,51.9,16.2,60.4
			c-0.2,3.5-6,4.5-9.7,4.8c-6.1,0.5-12.2,0-12.8-1.9c-1.4-4.6,1.9-27.8-9.6-55c-7.4-17.4-24.2-32.6-26.1-35.4
			C82.9,169.3,82.8,166,84.3,162.8z"/>
	</g>
	<g id="tie_1_">
		<path class="st31" d="M102.7,224.4c-2.4-21.6-6.9-56.1-14.6-64.6c-3.6-4-19.8-3.7-25.9-3.3c0,0,0,0,0,0c-0.1,0-0.6,0-0.8,0.1
			c0,0,0,0,0,0c-6.2,0.4-22.3,1.3-25.4,5.7c-6.5,9.4-6.3,45.4-5.8,67.2c0.1,6.1,0.6,11.2,1.5,14.4c3.6,12.2,69.5,7.6,71.4-5
			C103.7,235.6,103.4,230.5,102.7,224.4z"/>
		<g>
			<path class="st32" d="M76.2,211.7c-2.7-16.9-7.1-36.7-9.9-48.1c-0.2-0.9-2.1-0.9-3.7-0.7c-1.6,0.1-3.5,0.3-3.6,1.2
				c-1.2,11.7-3,31.8-3.5,49c0,0.3,0.1,1.3,0.2,1.6c1.5,3.3,7.7,10.2,10,12.3c0.2,0.2,0.7,0.4,1.1,0.4c0.3,0,0.7-0.3,0.9-0.5
				c2-2.4,7.3-10.1,8.3-13.5C76.3,212.9,76.3,212,76.2,211.7z"/>
			
				<linearGradient id="SVGID_10_" gradientUnits="userSpaceOnUse" x1="66.42" y1="137.2012" x2="66.42" y2="123.0793" gradientTransform="matrix(0.9978 -6.630000e-02 6.630000e-02 0.9978 -12.6358 31.7915)">
				<stop  offset="0" style="stop-color:#57897C"/>
				<stop  offset="0.457" style="stop-color:#85A9A0"/>
			</linearGradient>
			<path class="st33" d="M65.2,150.9c-0.2-0.3-0.6-0.5-1-0.4l-1.1,0.1c0,0,0,0,0,0l-1.3,0.1l-1.3,0.1c0,0,0,0,0,0l-1.1,0.1
				c-0.4,0-0.8,0.2-0.9,0.6c0,0-3.5,4.7-2.8,6.8c0.8,2.4,2.9,5.9,4.7,5.8l0.5,0l3.7-0.2l0.5,0c1.8-0.1,3.4-3.9,3.9-6.4
				C69.4,155.1,65.2,150.9,65.2,150.9z"/>
		</g>
		<g>
			<path class="st34" d="M43.9,159l13.1,2.7c0.2,0,0.4-0.1,0.5-0.3l3-10.9c0.1-0.3-0.1-0.6-0.3-0.6l-13.9-2c-0.2,0-0.4,0.1-0.4,0.4
				l-2.3,10.2C43.5,158.7,43.7,159,43.9,159z"/>
			<path class="st34" d="M79.7,156.6l-11.9,4.5c-0.2,0.1-0.4-0.1-0.5-0.3l-4.1-10.3c-0.1-0.2,0-0.5,0.2-0.6l11.4-3.6
				c0.2-0.1,0.4,0.1,0.5,0.3l4.6,9.4C80,156.2,79.9,156.5,79.7,156.6z"/>
		</g>
	</g>
	<path class="st18" d="M35,292.7c-0.2-1.5-1.4-5.7-3.2-8.8c-1.9-3.2-3.6-5.2-3.8-6.2c3.6-0.5,5.5-7.1,5.3-11.7
		c-0.2-5.4,10.3,0.3,12.2,5.6c1.3,3.4,0.8,11.4-1.2,13.8C40.8,289.5,35.3,295.3,35,292.7z"/>
	<g>
		<path class="st30" d="M43.6,157.4c-1.5,0.3-7.2,2.1-10.7,6.2c-1.5,1.8-6.3,17.9-7.4,50.4c-0.7,19.1,0.9,31.8-2,38.6
			c-0.9,2.2,7.1,11,10.2,14.6c5.7,6.5,4.1,22.4,5.8,22.7c18.3,1.9,25.6-4.1,26.2-4.7c0.9-1.2,4.4-7.5,4.3-14.8
			c-0.2-19.9-3.2-57.2-3.6-60.1C65.9,206.3,43.6,157.4,43.6,157.4z"/>
		<path class="st35" d="M82.3,156.1c1.5,0.2,7.3,1.6,11.1,5.5c1.6,1.7,7.8,26.8,10.9,49.7c2.5,19,5.4,36.6,7.3,47.8
			c0.4,2.3,4,12.6,5.7,16.1c1,2.1-11.4,6.9-25.7,9.3c-18.2,3.1-22.7,1-23.2,0.4c-1-1-4.5-6.6-5.3-13.5c-1.8-14.7-2.9-41.1-1.8-53.3
			c0.1-1,1.5-7.1,1.7-7.8c0.8-3.3,4.9-20,9.9-33.6C77.1,165.2,82.3,156.1,82.3,156.1z"/>
		<path class="st35" d="M31.7,239.7c7.1,1,16.5,1.6,23.4,1.2c1.3-0.1,0.3,9.8-0.2,12.7c-0.5,2.7-2.1,8.8-11.4,8.2
			c-6.6-0.5-11.9-2.6-12.7-8.4C30.2,249.6,30.7,239.6,31.7,239.7z"/>
		<path class="st30" d="M99,237.4c-7,1.5-16.4,2.7-23.2,2.8c-1.3,0,0.4,9.8,1.1,12.7c0.6,2.7,2.7,8.6,12,7.4
			c6.5-0.9,11.7-3.4,12.1-9.3C101.1,247.1,99.9,237.2,99,237.4z"/>
		<g>
			<path class="st30" d="M69.6,246c0,1.4-1.1,2.7-2.5,2.7c-1.4,0-2.7-1.1-2.7-2.5c0-1.4,1.1-2.7,2.5-2.7
				C68.3,243.4,69.5,244.5,69.6,246z"/>
			<path class="st30" d="M69.7,230.6c0,1.4-1.1,2.7-2.5,2.7c-1.4,0-2.7-1.1-2.7-2.5c0-1.4,1.1-2.7,2.5-2.7
				C68.5,228,69.7,229.1,69.7,230.6z"/>
		</g>
		<path class="st30" d="M42.5,162.5c-3-3.1-5.3-2-7.2-0.9c-0.9,0.5-29.5,16.9-34.6,49.2c-3.4,21.5,7.6,51.7,17,64
			c2.1,2.8,7.3-0.8,10.4-2.9c5.1-3.4,9.5-7.6,8.7-9.5c-1.8-4.5-18.8-24.4-17.1-49.7c1.5-22.3,23.1-38.5,24.3-41.6
			C45.4,167.6,44.9,165,42.5,162.5z"/>
		<path class="st35" d="M37.6,159.9c0.9-1.2,4.5-3,6-3c0.7,0,8.1,11.9,11.8,20.9c7.5,18.1,10.3,29,10.3,30.3
			c0,0.8-23.8-21.8-23.8-22.6c0.2-2,9.7-7.1,9.6-7.4c-0.1-0.4-7.4,0.6-9.3-0.7C41.4,177,36.7,161.2,37.6,159.9z"/>
		<path class="st30" d="M88,158.6c-1-1.1-2.1-1.7-3.6-1.6c-0.7,0.1-10.2,13.1-13.3,22.3c-6.2,18.6-9.9,37.3-9.7,38.6
			c0.1,0.8,24.3-30.6,24.2-31.4c-0.3-2-11.9-8.4-11.8-8.6c0.1-0.4,8.7,0.6,10.6-0.7C85.2,176.6,89.1,159.8,88,158.6z"/>
		<path class="st36" d="M86.8,157.4c-1-1.1-4.7-2.7-6.2-2.6c-0.7,0.1-7.5,13.3-10.6,22.5c-4.8,14.3-9,40.8-8.8,40.9
			c0.1,0.1,23-33.4,22.8-34.1c-0.3-2-10.1-6.4-10.1-6.7c0.1-0.4,7.4,0.1,9.3-1.3C84,175.6,87.9,158.6,86.8,157.4z"/>
	</g>
</g>
</svg>
