<!-- Generator: Adobe Illustrator 22.0.1, SVG Export Plug-In  -->
<svg version="1.1"
	 xmlns="http://www.w3.org/2000/svg" xmlns:xlink="http://www.w3.org/1999/xlink" xmlns:a="http://ns.adobe.com/AdobeSVGViewerExtensions/3.0/"
	 x="0px" y="0px" width="183.9px" height="380.1px" viewBox="0 0 183.9 380.1" style="enable-background:new 0 0 183.9 380.1;"
	 xml:space="preserve">
<style type="text/css">
	.st0{fill:#847047;}
	.st1{fill:#EDA87A;}
	.st2{fill:#FFC599;}
	.st3{fill:url(#SVGID_1_);}
	.st4{fill:url(#SVGID_2_);}
	.st5{fill:#FFFFFF;}
	.st6{fill:#2E528D;}
	.st7{fill:url(#SVGID_3_);}
	.st8{fill:#D35353;}
	.st9{fill:#F7F8EE;}
	.st10{fill:url(#SVGID_4_);}
	.st11{opacity:0.85;fill:#A08150;}
	.st12{fill:#0A0D0D;}
	.st13{fill:#15191B;}
	.st14{fill:#181E22;}
	.st15{fill:#EFA98E;}
	.st16{fill:#E28A76;}
	.st17{fill:#BDE5EF;}
	.st18{fill:#ACDAE2;}
	.st19{fill:#DDF1F7;}
	.st20{fill:#DD2A2A;}
	.st21{fill:#8C0D0D;}
	.st22{fill:#AF8E54;}
	.st23{fill:#BC9C6C;}
	.st24{fill:url(#SVGID_5_);}
	.st25{fill:url(#SVGID_6_);}
	.st26{fill:url(#SVGID_7_);}
	.st27{fill:url(#SVGID_8_);}
</style>
<defs>
</defs>
<g>
	<path class="st0" d="M92.5,149.2c3.5-20.6,13.3-64.6,12.4-78.7C102.4,32.2,69.9,21,63.7,21c-6.2,0-40.8,11.2-43.3,49.6
		c-0.9,14,11.8,57.9,15.4,78.5c9.9-1.1,20.7-1.9,27.9-1.9C70.1,147.2,81.9,148,92.5,149.2z"/>
	<g>
		<path class="st1" d="M74.5,155c1.6,5.3-23.1,5.4-22.2-0.1c0.4-2.7,1.2-16.8,0.1-22.2c-1.1-5.4,22.9-5.4,22.2,0.1
			C74,137.9,73.6,151.8,74.5,155z"/>
		<path class="st2" d="M98.9,46c-1.3-10.3-8.2-27.9-20-31.5c-1.3-0.6-28.5-0.7-29.8-0.1c-11.9,3.5-19,20.2-20.3,31.4
			c-1.4,11.6-2.4,42.6-0.4,56.6c1,6.5,7.8,36.1,33.6,37.6c0.2,0,0.8,0,1.5,0c0.8,0,1.7,0,2.1,0c25.4-1.7,32.3-30.8,33.3-37.3
			C101,88.6,100.3,57.6,98.9,46z"/>
		
			<linearGradient id="SVGID_1_" gradientUnits="userSpaceOnUse" x1="1366.5924" y1="101.6864" x2="1363.9542" y2="75.0849" gradientTransform="matrix(0.9958 9.130000e-02 -9.130000e-02 0.9958 -1285.0669 -128.5996)">
			<stop  offset="0" style="stop-color:#F2885E"/>
			<stop  offset="0.2652" style="stop-color:#F49369"/>
			<stop  offset="0.7333" style="stop-color:#FBB186"/>
			<stop  offset="1" style="stop-color:#FFC599"/>
		</linearGradient>
		<path class="st3" d="M65.9,72.4c0.3,21.1,6.8,21.5,6.8,24.5c0,1.9-7.3,5.4-10.6,3.2c-3.7-2.5-0.7-26.4-0.5-28.5
			C61.9,67.9,65.8,68,65.9,72.4z"/>
		<g>
			<g>
				
					<linearGradient id="SVGID_2_" gradientUnits="userSpaceOnUse" x1="1396.3514" y1="-67.8753" x2="1391.7008" y2="-93.5133" gradientTransform="matrix(0.991 0.1336 -0.1336 0.991 -1312.1986 -35.0201)">
					<stop  offset="0.3265" style="stop-color:#FFC59C"/>
					<stop  offset="1" style="stop-color:#F5A680"/>
				</linearGradient>
				<path class="st4" d="M68.8,62.8c-1.9,6.9-1.1,25,12.3,24.3c12.6-0.6,12.3-21.4,8.8-25.3C83.4,54.7,70.8,55.5,68.8,62.8z"/>
				
					<ellipse transform="matrix(1 -5.443088e-03 5.443088e-03 1 -0.4044 0.433)" class="st5" cx="79.4" cy="74.5" rx="5.5" ry="6.5"/>
				<circle class="st6" cx="79.1" cy="73.4" r="2.2"/>
			</g>
			<g>
				
					<linearGradient id="SVGID_3_" gradientUnits="userSpaceOnUse" x1="602.7768" y1="35.1718" x2="598.1266" y2="9.5359" gradientTransform="matrix(-0.992 0.1266 0.1266 0.992 640.1943 -27.0547)">
					<stop  offset="0.3265" style="stop-color:#FFC59C"/>
					<stop  offset="1" style="stop-color:#F5A680"/>
				</linearGradient>
				<path class="st7" d="M58.7,62.8c1.8,6.9,0.9,25-12.5,24.2c-12.6-0.7-12.2-21.5-8.6-25.4C44.2,54.6,56.8,55.5,58.7,62.8z"/>
				<path class="st5" d="M53.6,74.5c0,3.6-2.6,6.4-5.6,6.4s-5.5-3-5.4-6.5c0-3.6,2.6-6.4,5.6-6.4C51.2,68,53.6,70.9,53.6,74.5z"/>
				<path class="st6" d="M46.1,73.2c0,1.2,1,2.2,2.2,2.2c1.2,0,2.2-1,2.2-2.2c0-1.2-1-2.2-2.2-2.2C47.1,71.1,46.1,72,46.1,73.2z"/>
			</g>
		</g>
		<g>
			<path class="st8" d="M77.4,108.4c-0.4-0.4-3,1.9-14,1.7c-11.1-0.2-14-2.8-14.4-2.3c-0.3,0.3,3.8,12.2,15.1,12.3
				C75.2,120.2,77.7,108.8,77.4,108.4z"/>
			<path class="st9" d="M63.6,109.4c-10.9-0.2-14.2-2.5-14.6-2c-0.1,0.1,0.1,1,0.5,2c0.1,0.2,5,3.1,14,3.3
				c9.2,0.2,13.6-2.4,13.6-2.6c0.3-1,0.4-2,0.4-2.1C77.5,107.5,74.3,109.6,63.6,109.4z"/>
		</g>
		<linearGradient id="SVGID_4_" gradientUnits="userSpaceOnUse" x1="26.554" y1="36.5808" x2="100.8753" y2="36.5808">
			<stop  offset="0" style="stop-color:#F39E7C"/>
			<stop  offset="0.3524" style="stop-color:#F6A984"/>
			<stop  offset="0.936" style="stop-color:#FFC599"/>
		</linearGradient>
		<path class="st10" d="M89.1,25.8c-8.3-7.3-19.8-9.5-25.4-9.5c-5.4,0-17.1,2.2-25.4,9.5c-13.9,12.3-13.3,22.5-9.5,24.6
			c8.6,4.9,23.4,6.4,34.8,6.4c11.6,0,26.2-1.5,34.8-6.4C102.3,48.3,102.9,38.1,89.1,25.8z"/>
		<path class="st11" d="M89.8,62.4c0.4,0.3,0.7,0.5,0.9,0.4c0.2,0-0.4-1.5-1.7-3c-1.8-2.1-5.4-4.6-9.9-4.6c-2.6,0-6,0.7-8.3,2.7
			c-1.6,1.4-1.5,2.5-0.9,2.3C71.9,59.9,80.6,54.4,89.8,62.4z"/>
		<path class="st11" d="M37.7,62.2c-0.4,0.3-0.7,0.5-0.9,0.4c-0.2,0,0.5-1.5,1.7-3c1.8-2.1,5.5-4.5,10-4.6c2.6,0,5.9,0.8,8.2,2.8
			c1.6,1.4,1.4,2.5,0.9,2.3C55.6,59.8,47,54.3,37.7,62.2z"/>
	</g>
	<g>
		<g>
			<path class="st12" d="M69.2,362.7c0,0,0,10.1,0.6,10.4c0.5,0.2,2.8-0.5,2.8-0.5l0.6-6L69.2,362.7z"/>
			<path class="st13" d="M66.2,359.8c0,0,0.6,11.5,1,11.8c1.2,0.8,2.1,1.2,2.7,1.5c0.5,0.2,0.2-8.3,0.2-8.3L66.2,359.8z"/>
			<path class="st14" d="M86.6,367.3c1.4,1.6,1.1,1.9-0.5,3.1c-1.1,0.9-2.4,0.8-3.3,0.3c-2.1-1.4-12.9-11.3-13.9-12.5
				c-1.6-2.1-1.3-3.5-1.4-3.6c-0.1-0.1-3.1,4-0.2,8.9c2.7,4.5,7.4,9.7,11.8,13c8.2,6.1,14.9,3.6,15,1.6c0.2-3.3-3.2-8.2-5.8-10.9
				c-1.2-1.3-3.4-3.1-3.5-3C84.6,364.2,84.8,365.2,86.6,367.3z"/>
			<path class="st2" d="M68.3,358.2c0.9,2.1,6.8,9.4,11.8,12.6c1.5,1,4.4,2.8,7.3,1.6c2.4-1,1.9-3.1,0.9-5c-0.6-1.2-1.2-1.9-1.6-2.3
				c-3.7-3.7-7.6-7-9.7-8.7c-1.2-1-1.1-0.8-0.8-2c1.6-7.3,10.3-47.6,10.7-63.9c0-1-18.3-1-20,3.8c-4.8,12.9-1.2,48.7,0.7,60.3
				C67.6,355.2,67.3,355.9,68.3,358.2z"/>
			<path class="st15" d="M86.3,298.8c0.4-3.2,0.6-6,0.6-8.4c0-1-18.3-1-20,3.8c-0.7,1.8-1.2,4.1-1.6,6.8
				C75.4,300.8,82.3,299.7,86.3,298.8z"/>
		</g>
		<g>
			<path class="st12" d="M57.9,362.7c0,0,0,10.1-0.6,10.4c-0.5,0.2-2.8-0.5-2.8-0.5l-0.6-6L57.9,362.7z"/>
			<path class="st13" d="M60.9,359.8c0,0-0.6,11.5-1,11.8c-1.2,0.8-2.1,1.2-2.7,1.5c-0.5,0.2-0.2-8.3-0.2-8.3L60.9,359.8z"/>
			<path class="st14" d="M40.5,367.3c-1.4,1.6-1.1,1.9,0.5,3.1c1.1,0.9,2.4,0.8,3.3,0.3c2.1-1.4,12.9-11.3,13.9-12.5
				c1.6-2.1,1.3-3.5,1.4-3.6c0.1-0.1,3.1,4,0.2,8.9c-2.7,4.5-7.4,9.7-11.8,13c-8.2,6.1-14.9,3.6-15,1.6c-0.2-3.3,3.2-8.2,5.8-10.9
				c1.2-1.3,3.4-3.1,3.5-3C42.5,364.2,42.3,365.2,40.5,367.3z"/>
			<path class="st2" d="M58.8,358.2c-0.9,2.1-6.8,9.4-11.8,12.6c-1.5,1-4.4,2.8-7.3,1.6c-2.4-1-1.9-3.1-0.9-5
				c0.6-1.2,1.2-1.9,1.6-2.3c3.7-3.7,7.6-7,9.7-8.7c1.2-1,1.1-0.8,0.8-2c-1.6-7.3-10.3-47.6-10.7-63.9c0-1,18.3-1,20,3.8
				c4.8,12.9,1.2,48.7-0.7,60.3C59.5,355.2,59.8,355.9,58.8,358.2z"/>
			<path class="st15" d="M40.8,298.8c-0.4-3.2-0.6-6-0.6-8.4c0-1,18.3-1,20,3.8c0.7,1.8,1.2,4.1,1.6,6.8
				C51.7,300.8,44.8,299.7,40.8,298.8z"/>
		</g>
	</g>
	<g>
		<g>
			<path class="st2" d="M141.5,131c-3.1-1.4,0.4-4.1,1.8-5.2c2.1-1.7,5-3.3,8-6.1c2.8-2.6,3.3-4.3,3.7-4.7c0.4-0.4,2.6,0.2,3.2,1.9
				c0.3,0.9,0.5,2.3-1.3,4.7c-1.1,1.4-4,3.9-4.9,4.5C151.2,126.6,143.6,131.9,141.5,131z"/>
			<path class="st2" d="M173.1,115.7c-1.4,1.1-6.4,6.2-10.1,7.4c-9.1,2.9-11,0.6-17.3,1.7c-1.4,0.2-2.7,0.5-5.1,3.5
				c-1.8,2.3-4.8,10.3-4.9,13.4c0,3,2,4.9,3.5,5.9c0.8,0.5,3.9,1.5,6.2,0.4c2.5-1.2,2.7-3.6,3.9-5.7c0.7-1.2,3-4.1,5.1-4.7
				c4-1.1,6.9-2,9.9-3.7c1.8-1,2.9-2.7,2.7-3.2c-0.1-0.3-0.7-1.7-1.4-3.1c1.7-1,3.9-2.5,5.4-3.9c4.1-3.6,3.8-5.3,7.5-7.6
				C180.2,115,176.3,113,173.1,115.7z"/>
			<path class="st16" d="M182.1,116.6c0.6,0.1-1.5-3.6-5.9-1c-1.7,1-3.7,4-6.1,5.9c-2.3,1.8-6,3.2-6.5,3.6c-0.4,0.3,3.1-0.3,7.3-2.9
				C175,119.7,180,116.2,182.1,116.6z"/>
			<path class="st2" d="M165,128.8c0.5-0.1,5.6-2,8.9-4.3c3-2.1,3.9-3.5,5.3-4.8c0.9-0.8,2.9-2.6,4-3.5c0.5-0.4-1.5-3.5-5.9-0.9
				c-1.7,1-3.5,3.8-5.9,5.7c-2.3,1.8-4.9,2.8-6.6,3.6c-2.6,1.2-1.9,0.7-1.6,2.8C163.3,128.1,163.5,129.2,165,128.8z"/>
			<path class="st16" d="M172.9,124.1c4-2.9,7.2-4.5,10.1-5.6c1-0.4-1.1-3.2-5.1-1c-1.8,1-4.4,4.2-6.7,6.1c-2.2,1.8-6,3.9-6.2,4.1
				C164.5,128.2,169.3,126.6,172.9,124.1z"/>
			<path class="st2" d="M164.9,132.1c0.9-0.4,5.8-2.7,9.3-5.3c4-2.9,3.8-3.6,9.4-8.2c0.9-0.7-1.6-3-5.6-0.8c-1.8,1-3.8,3.8-6.1,5.7
				c-2.2,1.8-4.1,2.9-6.2,3.9c-2.4,1.1-2.8,1.3-2.4,3.3C163.5,131.4,164.4,132.3,164.9,132.1z"/>
			<path class="st16" d="M178.9,121.7c-3.7,0.2-7,4.5-9.5,6.3c-1,0.7-3.1,1.7-4.1,2.3c-0.3,0.2-0.7,0.7-0.4,0.8
				c1.1,0.2,3.1-0.6,3.7-0.8c6.8-2.5,8.2-5.2,11-6.9C180.4,122.9,180.1,121.7,178.9,121.7z"/>
			<path class="st2" d="M179,121.9c-3.7,0.2-6.2,4.1-8.7,6c-1.3,1-4.5,2.5-5.6,3c-4,1.9-8.5-0.2-13.1,2.4c-6.3,3.5-3.5,8.1-1.9,7.7
				c4.9-1.3,14.9-4.6,18.7-7c6.1-3.9,10.4-8.6,13.1-10.2C182.5,123.2,180.2,121.9,179,121.9z"/>
		</g>
		<path class="st17" d="M85.2,148.5c4.6,3.5,13.6,20.6,28.7,20.6c12.9,0,19.8-23.6,21.1-28.9c0.7-2.8,14.5,0.4,14.3,2.7
			c-0.7,7.4-12.1,39.9-34.8,39.9c-21,0-34.7-24.9-35-27.5C79.2,152.6,83.5,147.2,85.2,148.5z"/>
		<path class="st18" d="M95.1,159.6c-4.5-4.6-7.7-9.4-9.9-11.1c-1.7-1.3-5.9,4.1-5.7,6.7c0.2,1.6,5.2,11.2,13.7,18.6
			C97,170.2,96.3,162,95.1,159.6z"/>
	</g>
	<g>
		<path class="st17" d="M75.1,144.6c-0.2,0-4,4-11,4c-7-0.2-10.7-4.2-10.9-4.2c-8.5-0.3-19.1,6.8-14.7,24.4c0.5,2.2,4.3,20.4,4.2,28
			c0,4.1,14,4.5,20.9,4.5c6.9,0.1,21,0.1,21-4.1c0.1-8,4.1-25.7,4.8-27.9C94.5,151.9,83.6,144.6,75.1,144.6z"/>
		<g>
			<path class="st17" d="M79.1,157.1c16.5,14.5,12.1,29.7,1.5,32.5c-1.9,0.5-8.5-1.1-10-9.6C69.1,171.6,74.9,153.5,79.1,157.1z"/>
			<path class="st17" d="M48.8,157c-16.8,14.1-12.7,29.4-2.1,32.4c1.9,0.5,8.5-0.9,10.2-9.4C58.6,171.6,53.1,153.4,48.8,157z"/>
		</g>
		<path class="st18" d="M64.2,187.5c-0.1,0-0.2,0-0.3,0c0,0,0,0,0,0c0,0,0,0,0,0c0,0,0,0,0,0c0,0,0,0,0,0c0,0,0,0,0,0c0,0,0,0,0,0
			c0,0,0,0,0,0c0,0,0,0,0,0c-0.2,0-0.5,0-0.7,0c-7.3,0.2-14.9,3.4-21.9-2.1c1.3,5,1.5,10.1,1.5,11.5c1,0.9,3.8,3.9,15.4,4.5
			c1.8,0.1,3.7,0.2,5.5,0.2c0,0,0,0,0,0c0,0,0,0,0,0c0,0,0,0,0,0c0,0,0,0,0,0c1.9,0,3.7-0.1,5.5-0.1c11.7-0.3,14.5-3.3,15.5-4.2
			c0.1-1.4,0.3-6.6,1.7-11.5C79.3,191.3,71.6,187.7,64.2,187.5z"/>
		<path class="st19" d="M52.3,140.9c2.5,2.6,10.2,6,10.7,6.8c0.6,0.9-3.8,10.2-5.3,10.9c-3.3,1.5-8.1-7.3-9.1-12.6
			C48.3,144.5,51.6,140.1,52.3,140.9z"/>
		<path class="st19" d="M74.8,140.9c-2.5,2.6-10.2,6-10.7,6.8c-0.6,0.9,3.8,10.2,5.3,10.9c3.3,1.5,8.1-7.3,9.1-12.6
			C78.8,144.5,75.6,140.1,74.8,140.9z"/>
	</g>
	<g>
		<path class="st20" d="M86.7,201.4c-1.1-1.2-22-1.7-23.1-1.6c-1.2,0-21.8,0.6-22.9,1.7c-13.4,13.4-16,43.6-3.5,90.6
			c0.3,1.1,6.2,4.4,25.6,4.4c0.2,0,1.3,0,1.6,0c19.4,0,25.6-3.2,25.9-4.3C102.7,245.3,100,214.9,86.7,201.4z"/>
		<path class="st21" d="M53.9,200.1c-6.1,0.3-12.9,0.7-13.5,1.3c-13.4,13.4-16.1,43.9-3.6,90.8c0.2,0.9,4.3,3.1,16.1,4
			C42.4,245.8,43.2,219.1,53.9,200.1z"/>
		<path class="st21" d="M84.7,194.3c-5.7,2-13.5,2.7-21.2,2.8c-7.7-0.1-15.5-0.8-21.2-2.8c-1.1-0.4-3.8,7.3-2,8.2
			c2.4,1.1,11.6,2.7,23.2,2.6c11.6,0.1,20.8-1.5,23.2-2.6C88.5,201.7,85.9,193.9,84.7,194.3z"/>
	</g>
	<g>
		<g>
			<g>
				<path class="st16" d="M26.3,214c2.2-1.9,4.6-3.9,6.9-8c1.2-2.2,1.2-4.4,1.3-5.3c0.1-0.9,3.8,0.5,3.6,4.4
					c-0.1,3.5-1.5,5.4-2.2,6.2C34.4,212.9,24.5,215.5,26.3,214z"/>
				<path class="st2" d="M39.6,210.8c2.3-2.1,11.2-3.4,12.2-2.6c0.4,0.3,1.2,3.2,3.2,5.4c1.6,1.8,4.5,3.4,4.9,3.8
					c0.5,0.5-1.3,3.6-5.4,1.7c-2.4-1.1-5-5.6-5.1-5.9c-0.1-0.2-4.7,0.1-7.8,2.7c-0.8,0.6-1.7-2.1-1.6-3
					C40,211.9,39.1,211.2,39.6,210.8z"/>
				<path class="st16" d="M41,214.4c0.3-1.1,4.1-2.4,7.1-2.6c1.7-0.1,3.1,0,3.6,1c1.8,3.8,3.8,6.3,3.6,6.6c-0.4,1.2-4.2-4.2-4.9-4.8
					c-0.8-0.5-5.8-0.1-8.1,0C41.9,214.7,40.9,214.9,41,214.4z"/>
				<path class="st2" d="M40.8,214.5c2.5-2,9.2-2.5,10.1-1.6c0.3,0.3,2,3.5,3.8,5.8c1.5,1.9,3.2,3.4,3.7,3.9
					c0.5,0.5-1.8,3.5-5.4,1.3c-2.3-1.4-4.8-5.9-4.8-6.1c-0.1-0.2-3.7,0-6.9,2.4c-0.8,0.6-1.6-2.2-1.4-3.1
					C39.9,216,40.2,214.9,40.8,214.5z"/>
				<path class="st16" d="M41.3,216.4c0.3-0.7,4-1.5,5.8-1.4c0.9,0,1.2,0.8,1.4,1.2c1.1,2.2,3.5,5.5,5.3,7.9
					c0.3,0.4-1.3-0.3-1.6-0.5c-2-1-4-5.1-5.9-6.1c-1-0.5-3.4-0.1-4.3-0.7C41.7,216.7,41.2,216.7,41.3,216.4z"/>
				<path class="st2" d="M20,213.3c4.5-2.9,6.3-2,7.5-1.6c2,0.7,5.7-2.4,8-4.1c1.7-1.3,8.4-6.6,9.6-6.2c0.5,0.2,3.3,2.3,5.9,3.6
					c2.2,1.1,4.4,1.7,5,1.9c0.7,0.2,0.6,3-4.4,3.3c-2.7,0.2-6.8-3.1-6.9-3.3c-0.2-0.2-3,1.4-4.9,4.5c0.3,0.4,0.5,0.9,0.8,1.4
					c0.3,0.6,0.7,2.1,0.9,3.6c2.5-0.8,5.6-1,6.3-0.4c0.3,0.3,1.5,2.9,3.2,5c1.4,1.7,3,3.2,3.4,3.6c0.5,0.5-1.9,3.2-5.1,1.4
					c-2.1-1.2-3.9-5.3-3.9-5.5c-0.1-0.2-2.2,0.1-4.8,1.7c-6.6,3.6-10.4,5.6-14.6,4.6c-4.6-1-7.9-7.2-8.4-8.9S19.5,213.6,20,213.3z"
					/>
			</g>
			<g>
				<path class="st17" d="M41.8,159.9c-5.1,2.7-23.5,14.9-26.3,28.6C14,196,17.6,205.7,27.1,211c0.4,0.2,0.3,2.7-3.5,7.2
					c-3.3,3.8-5.4,4.4-5.8,4.1c-15.1-11-20.2-25.4-16.6-36.8c6.5-20.7,33.9-36.8,43.7-38.3c1.4-0.2,2.4,3,2.7,6
					C47.9,158.4,43.6,159,41.8,159.9z"/>
			</g>
		</g>
	</g>
	<g>
		<g>
			<path class="st22" d="M63.7,0c-23,0-48.4,16.4-53.1,65.1c-2.2,22.4-0.7,61.8,8,86.8c0.5,1.5,20-1.8,19.8-3.3
				C17.1,36.5,41.3,21.8,63.7,21.8C90.7,21.8,87.6,0,63.7,0z"/>
			<path class="st22" d="M63.7,0c23,0,48.4,16.4,53.1,65.1c2.2,22.4,0.7,61.8-8,86.8c-0.5,1.5-20-1.8-19.8-3.3
				C110.2,36.5,86,21.8,63.7,21.8C36.6,21.8,39.7,0,63.7,0z"/>
		</g>
		<path class="st23" d="M89.1,18.8c-8.3-7.3-19.8-9.5-25.4-9.5c-5.4,0-17.1,2.2-25.4,9.5c-13.9,12.3-13.3,26.5-9.5,28.6
			c8.6,4.9,23.4,6.4,34.8,6.4c11.6,0,26.2-1.5,34.8-6.4C102.3,45.3,102.9,31.1,89.1,18.8z"/>
		<path class="st11" d="M62.2,9.4c-5.8,0.3-16.3,2.7-23.9,9.4c-13.9,12.3-13.3,26.5-9.5,28.6c1.8,1,3.9,1.9,6.2,2.6
			C34.1,28.9,43.1,13.5,62.2,9.4z"/>
		<path class="st22" d="M88.6,51.1c1.2-12.2-8.7-25.6-8.7-25.6s5.9,13,4,26.6C85.5,51.9,87.1,51.5,88.6,51.1z"/>
	</g>
</g>
</svg>
