<!-- Generator: Adobe Illustrator 22.1.0, SVG Export Plug-In  -->
<svg version="1.1"
	 xmlns="http://www.w3.org/2000/svg" xmlns:xlink="http://www.w3.org/1999/xlink" xmlns:a="http://ns.adobe.com/AdobeSVGViewerExtensions/3.0/"
	 x="0px" y="0px" width="42.2px" height="42.2px" viewBox="0 0 42.2 42.2" style="enable-background:new 0 0 42.2 42.2;"
	 xml:space="preserve">
<style type="text/css">
	.st0{fill:#E0D96F;}
	.st1{fill:#FFFFFF;}
</style>
<defs>
</defs>
<circle class="st0" cx="21.1" cy="21.1" r="21.1"/>
<g>
	<g>
		<path class="st1" d="M30.4,14.6c-0.4-0.4-0.9-0.7-1.5-0.7h-2.4v1c0,0.5-0.2,0.9-0.4,1.2c-0.3,0.3-0.7,0.5-1.1,0.5
			c-0.4,0-0.8-0.2-1.1-0.5c-0.3-0.3-0.4-0.7-0.4-1.2v-1h-5.1v1c0,0.5-0.2,0.9-0.4,1.2c-0.3,0.3-0.7,0.5-1.1,0.5
			c-0.4,0-0.8-0.2-1.1-0.5c-0.3-0.3-0.4-0.7-0.4-1.2v-1h-1.8c-0.6,0-1.1,0.3-1.5,0.7c-0.4,0.4-0.6,1.1-0.6,1.7v12.1
			c0,0.7,0.2,1.3,0.6,1.7c0.4,0.4,0.9,0.7,1.5,0.7h15.4c0.6,0,1.1-0.3,1.5-0.7c0.4-0.4,0.6-1.1,0.6-1.7V16.3
			C31,15.6,30.8,15,30.4,14.6z M29.9,28.3c0,0.3-0.1,0.6-0.3,0.9c-0.2,0.2-0.5,0.4-0.8,0.4H13.4c-0.3,0-0.6-0.1-0.8-0.4
			c-0.2-0.2-0.3-0.5-0.3-0.9v-8.9h17.6V28.3z"/>
	</g>
	<path class="st1" d="M17.6,12.4c0-0.3-0.1-0.5-0.2-0.7c-0.2-0.2-0.4-0.3-0.6-0.3c-0.2,0-0.4,0.1-0.6,0.3c-0.2,0.2-0.2,0.4-0.2,0.7
		v2.5c0,0.3,0.1,0.5,0.2,0.7c0.2,0.2,0.4,0.3,0.6,0.3c0.2,0,0.4-0.1,0.6-0.3c0.2-0.2,0.2-0.4,0.2-0.7V12.4z"/>
	<path class="st1" d="M25.8,15v-2.5c0-0.3-0.1-0.5-0.2-0.7c-0.2-0.2-0.4-0.3-0.6-0.3h0c-0.2,0-0.4,0.1-0.6,0.3
		c-0.2,0.2-0.2,0.4-0.2,0.7V15c0,0.3,0.1,0.5,0.2,0.7c0.2,0.2,0.4,0.3,0.6,0.3h0c0.2,0,0.4-0.1,0.6-0.3C25.7,15.5,25.8,15.2,25.8,15
		z"/>
	<text transform="matrix(1 0 0 1 18.3314 27.7244)" class="st1" style="font-family:'Roboto-Bold'; font-size:9.4614px;">3</text>
</g>
</svg>
