<!-- Generator: Adobe Illustrator 22.1.0, SVG Export Plug-In  -->
<svg version="1.1"
	 xmlns="http://www.w3.org/2000/svg" xmlns:xlink="http://www.w3.org/1999/xlink" xmlns:a="http://ns.adobe.com/AdobeSVGViewerExtensions/3.0/"
	 x="0px" y="0px" width="42.2px" height="42.2px" viewBox="0 0 42.2 42.2" style="enable-background:new 0 0 42.2 42.2;"
	 xml:space="preserve">
<style type="text/css">
	.st0{fill:#B1353A;}
	.st1{fill:#FFFFFF;}
</style>
<defs>
</defs>
<circle class="st0" cx="21.1" cy="21.1" r="21.1"/>
<g>
	<path class="st1" d="M9.9,18.1H12c0.3-1.6,0.7-3,1.3-4.1c0.6-1.1,1.4-2.1,2.4-2.8c0.9-0.7,2-1.3,3.2-1.6C20.1,9.2,21.3,9,22.7,9
		c1.5,0,2.9,0.1,4.1,0.3c1.2,0.2,2.2,0.5,3,0.9c0,0.4,0,0.8-0.1,1.4c0,0.6-0.1,1.2-0.2,1.8c-0.1,0.6-0.2,1.3-0.3,1.9
		c-0.1,0.6-0.2,1.1-0.3,1.5h-1.4l-1.9-5.2c-0.2-0.1-0.5-0.2-0.9-0.3c-0.4-0.1-0.9-0.1-1.3-0.1c-1.6,0-2.9,0.5-4,1.6
		s-1.8,2.8-2.2,5.3h8.4L25,20.3h-8.1v1.1c0,0.2,0,0.4,0,0.6c0,0.2,0,0.4,0,0.6h7.5l-0.6,2.2h-6.7c0.3,2.2,1.1,3.9,2.1,5.1
		c1.1,1.2,2.5,1.8,4.3,1.8c1.3,0,2.1-0.2,2.5-0.6l1.7-4.8h1.4c0.1,0.4,0.2,0.8,0.3,1.3c0.1,0.5,0.1,1.1,0.2,1.7
		c0.1,0.6,0.1,1.2,0.1,1.7c0,0.6,0,1.1,0,1.5c-0.8,0.5-1.8,0.9-3,1.1c-1.2,0.2-2.4,0.3-3.7,0.3c-6.5,0-10.2-3-11.2-9.1H9.3l0.6-2.2
		h1.9c0-0.3,0-0.5,0-0.8s0-0.5,0-0.8c0-0.1,0-0.2,0-0.4c0-0.1,0-0.2,0-0.4H9.3L9.9,18.1z"/>
</g>
</svg>
