<!-- Generator: Adobe Illustrator 22.1.0, SVG Export Plug-In  -->
<svg version="1.1"
	 xmlns="http://www.w3.org/2000/svg" xmlns:xlink="http://www.w3.org/1999/xlink" xmlns:a="http://ns.adobe.com/AdobeSVGViewerExtensions/3.0/"
	 x="0px" y="0px" width="42.2px" height="42.2px" viewBox="0 0 42.2 42.2" style="enable-background:new 0 0 42.2 42.2;"
	 xml:space="preserve">
<style type="text/css">
	.st0{fill:#3C76BA;}
	.st1{fill:#FFFFFF;}
</style>
<defs>
</defs>
<circle class="st0" cx="21.1" cy="21.1" r="21.1"/>
<g>
	<path class="st1" d="M22.5,34.6h-5.7V8.2h9.1c2.5,0,4.4,0.6,5.7,1.9c1.3,1.3,2,3.1,2,5.4c0,2.3-0.7,4.1-2,5.4
		c-1.3,1.3-3.2,1.9-5.7,1.9h-3.4V34.6z M22.5,18.2h1.9c2.1,0,3.1-0.9,3.1-2.7s-1-2.7-3.1-2.7h-1.9V18.2z"/>
</g>
<rect x="12.2" y="24.6" class="st1" width="15.4" height="4.9"/>
<rect x="12.2" y="18" class="st1" width="10.3" height="4.9"/>
</svg>
