<!-- Generator: Adobe Illustrator 22.1.0, SVG Export Plug-In  -->
<svg version="1.1"
	 xmlns="http://www.w3.org/2000/svg" xmlns:xlink="http://www.w3.org/1999/xlink" xmlns:a="http://ns.adobe.com/AdobeSVGViewerExtensions/3.0/"
	 x="0px" y="0px" width="42.2px" height="42.2px" viewBox="0 0 42.2 42.2" style="enable-background:new 0 0 42.2 42.2;"
	 xml:space="preserve">
<style type="text/css">
	.st0{fill:#5B897B;}
	.st1{fill:#FFFFFF;}
</style>
<defs>
</defs>
<circle class="st0" cx="21.1" cy="21.1" r="21.1"/>
<g>
	<g>
		<circle class="st1" cx="21.8" cy="8.8" r="2.9"/>
		<path class="st1" d="M29.7,24l-2.8-10.3c-0.2-0.5-0.7-0.8-1.2-0.8h-2.2h-0.1c0.1,0.1,0.1,0.2,0,0.3l-1,0.7c-0.1,0-0.1,0.1-0.1,0.1
			l0.6,6.2c0,0,0,0.1,0,0.1l-0.8,1c-0.1,0.1-0.3,0.1-0.3,0l-0.7-1c0,0,0-0.1,0-0.1l0.5-6.2c0-0.1,0-0.1-0.1-0.1l-1-0.7
			c-0.1-0.1-0.1-0.2,0-0.2H18c-0.5,0-0.9,0.3-1,0.7c-0.8,2.6-2.3,7.5-3.1,10.4c-0.6,1.6,1.7,2.2,2.2,0.7l1.9-6.9c0,0,0,0,0,0l0,17.9
			c0,0.5,0.4,0.8,0.8,0.8h1.9c0.4,0,0.8-0.3,0.8-0.8V25.3c0-0.3,0.2-0.5,0.5-0.5c0.3,0,0.5,0.2,0.5,0.5v10.6c0,0.4,0.3,0.7,0.7,0.7
			H25c0.4,0,0.8-0.3,0.8-0.8l0-18c0,0,0,0,0,0l1.8,6.9C28.1,26,30.1,25.3,29.7,24z"/>
	</g>
</g>
</svg>
