<!-- Generator: Adobe Illustrator 22.1.0, SVG Export Plug-In  -->
<svg version="1.1"
	 xmlns="http://www.w3.org/2000/svg" xmlns:xlink="http://www.w3.org/1999/xlink" xmlns:a="http://ns.adobe.com/AdobeSVGViewerExtensions/3.0/"
	 x="0px" y="0px" width="42.2px" height="42.2px" viewBox="0 0 42.2 42.2" style="enable-background:new 0 0 42.2 42.2;"
	 xml:space="preserve">
<style type="text/css">
	.st0{fill:#B1353A;}
	.st1{fill:#FFFFFF;}
</style>
<defs>
</defs>
<circle class="st0" cx="21.1" cy="21.1" r="21.1"/>
<polygon class="st1" points="12.3,25.5 14,25.2 15.5,25.5 17.9,25.2 20.3,25.6 21.7,25 23,26.4 24.9,26.7 27.1,28.5 28.5,29.1 
	30.1,28.2 31.4,28.9 32.3,28.6 32.9,27.5 34,26.7 34.3,25.2 33.5,23.9 33.2,22.1 33.7,21.7 34.7,21.3 34.8,19.1 34.1,18.6 
	34.2,16.2 32.9,16 32.4,15.4 31.7,16.6 30.8,16.7 28.9,16.2 28.1,16.8 24.7,14.8 24.3,14.2 23.1,14 22.5,13.5 19.8,15.1 20,18.8 
	19.9,19.9 19,20.6 18.9,21.1 18.6,21.1 17.6,21.3 16.4,20.9 16.1,20.4 15.9,20.1 15.8,19.7 15.7,19.4 15.3,18.9 15.3,19.1 
	15.4,19.9 15,19.7 15.2,18.7 14,17.7 13.6,17.2 13.5,16.4 13.3,16.2 12.8,16.6 11.9,17 10.9,17.1 9.5,18.3 9.1,19.2 9.1,20.7 
	8,22.4 7.4,23.7 7.5,25.4 8.2,26.9 11,25.3 "/>
</svg>
