<!-- Generator: Adobe Illustrator 22.1.0, SVG Export Plug-In  -->
<svg version="1.1"
	 xmlns="http://www.w3.org/2000/svg" xmlns:xlink="http://www.w3.org/1999/xlink" xmlns:a="http://ns.adobe.com/AdobeSVGViewerExtensions/3.0/"
	 x="0px" y="0px" width="42.2px" height="42.2px" viewBox="0 0 42.2 42.2" style="enable-background:new 0 0 42.2 42.2;"
	 xml:space="preserve">
<style type="text/css">
	.st0{fill:#5B897B;}
	.st1{fill:#FFFFFF;}
</style>
<defs>
</defs>
<circle class="st0" cx="21.1" cy="21.1" r="21.1"/>
<g>
	<path class="st1" d="M19.8,29.6v-1.6H9.2v-14h23.6v3.7H35V12H7.1v18.2H20C19.9,30,19.8,29.8,19.8,29.6z"/>
	<rect x="10.3" y="15.1" style="fill:none;" width="10.4" height="12.8"/>
	<text transform="matrix(1 0 0 1 10.2685 26.4879)" class="st1" style="font-family:'Roboto-Bold'; font-size:15.211px;">€</text>
	<g>
		<rect x="26.8" y="18.6" class="st1" width="10" height="2.1"/>
		<rect x="20.6" y="21.6" class="st1" width="10" height="2.1"/>
		<rect x="20.6" y="24.5" class="st1" width="10" height="2.1"/>
		<rect x="20.6" y="27.5" class="st1" width="10" height="2.1"/>
		<rect x="31.5" y="21.6" class="st1" width="5.3" height="2.1"/>
		<rect x="31.5" y="24.5" class="st1" width="5.3" height="2.1"/>
		<rect x="31.5" y="27.5" class="st1" width="5.3" height="2.1"/>
	</g>
</g>
</svg>
