<!-- Generator: Adobe Illustrator 22.1.0, SVG Export Plug-In  -->
<svg version="1.1"
	 xmlns="http://www.w3.org/2000/svg" xmlns:xlink="http://www.w3.org/1999/xlink" xmlns:a="http://ns.adobe.com/AdobeSVGViewerExtensions/3.0/"
	 x="0px" y="0px" width="42.2px" height="42.2px" viewBox="0 0 42.2 42.2" style="enable-background:new 0 0 42.2 42.2;"
	 xml:space="preserve">
<style type="text/css">
	.st0{fill:#E0D96F;}
	.st1{fill:#FFFFFF;}
</style>
<defs>
</defs>
<circle class="st0" cx="21.1" cy="21.1" r="21.1"/>
<polygon class="st1" points="33.9,17.9 32.1,17.2 29.4,14.9 27,14.6 25.3,12.8 23.6,13.5 20.6,13.1 17.5,13.4 15.6,13.1 13.6,13.4 
	11.9,13.1 8.3,15.2 8.5,17.6 9.2,18.8 9.3,19.8 8.9,21.3 9.8,22.1 10.4,22.1 12.1,23.3 13.4,23.6 15.3,23.6 16.8,25.4 16.1,27.2 
	16.7,29.4 17.3,29.3 18.6,30.2 20.3,31.7 20.3,33.7 20.7,33.3 23,33.1 24.2,32.7 24.8,30.8 25.6,30.7 25.6,30.2 27.5,29.3 28.3,30 
	28.7,29.7 28.4,27.7 29.7,24.4 30.5,23.7 31.6,23.8 31.9,22.7 33.3,22.6 33.5,21.3 32.7,20.9 "/>
</svg>
