<!-- Generator: Adobe Illustrator 22.1.0, SVG Export Plug-In  -->
<svg version="1.1"
	 xmlns="http://www.w3.org/2000/svg" xmlns:xlink="http://www.w3.org/1999/xlink" xmlns:a="http://ns.adobe.com/AdobeSVGViewerExtensions/3.0/"
	 x="0px" y="0px" width="42.2px" height="42.2px" viewBox="0 0 42.2 42.2" style="enable-background:new 0 0 42.2 42.2;"
	 xml:space="preserve">
<style type="text/css">
	.st0{fill:#5B897B;}
	.st1{fill:#FFFFFF;}
</style>
<defs>
</defs>
<circle class="st0" cx="21.1" cy="21.1" r="21.1"/>
<g>
	<g>
		<path class="st1" d="M25.8,11.8c-0.2-0.2-0.4-0.3-0.7-0.3H24V12c0,0.2-0.1,0.4-0.2,0.6c-0.1,0.1-0.3,0.2-0.5,0.2
			c-0.2,0-0.4-0.1-0.5-0.2c-0.1-0.1-0.2-0.3-0.2-0.6v-0.5h-2.4V12c0,0.2-0.1,0.4-0.2,0.6c-0.1,0.1-0.3,0.2-0.5,0.2
			c-0.2,0-0.4-0.1-0.5-0.2c-0.1-0.1-0.2-0.3-0.2-0.6v-0.5h-0.9c-0.3,0-0.5,0.1-0.7,0.3c-0.2,0.2-0.3,0.5-0.3,0.8v5.7
			c0,0.3,0.1,0.6,0.3,0.8c0.2,0.2,0.4,0.3,0.7,0.3h7.3c0.3,0,0.5-0.1,0.7-0.3c0.2-0.2,0.3-0.5,0.3-0.8v-5.7
			C26.1,12.3,26,12.1,25.8,11.8z M25.6,18.4c0,0.2-0.1,0.3-0.2,0.4c-0.1,0.1-0.2,0.2-0.4,0.2h-7.3c-0.1,0-0.3-0.1-0.4-0.2
			s-0.2-0.2-0.2-0.4v-4.2h8.3V18.4z"/>
	</g>
	<path class="st1" d="M19.8,10.8c0-0.1,0-0.2-0.1-0.3c-0.1-0.1-0.2-0.1-0.3-0.1c-0.1,0-0.2,0-0.3,0.1c-0.1,0.1-0.1,0.2-0.1,0.3V12
		c0,0.1,0,0.2,0.1,0.3c0.1,0.1,0.2,0.1,0.3,0.1c0.1,0,0.2,0,0.3-0.1c0.1-0.1,0.1-0.2,0.1-0.3V10.8z"/>
	<path class="st1" d="M23.7,12v-1.2c0-0.1,0-0.2-0.1-0.3c-0.1-0.1-0.2-0.1-0.3-0.1h0c-0.1,0-0.2,0-0.3,0.1c-0.1,0.1-0.1,0.2-0.1,0.3
		V12c0,0.1,0,0.2,0.1,0.3c0.1,0.1,0.2,0.1,0.3,0.1h0c0.1,0,0.2,0,0.3-0.1C23.6,12.3,23.7,12.2,23.7,12z"/>
	<text transform="matrix(1 0 0 1 20.1507 18.0707)" class="st1" style="font-family:'Roboto-Bold'; font-size:4.4754px;">1</text>
</g>
<g>
	<path class="st1" d="M32.1,8.5H11.5c-0.5,0-0.9,0.4-0.9,0.9v11.8c0,0.5,0.4,0.9,0.9,0.9h20.5c0.5,0,0.9-0.4,0.9-0.9V9.4
		C33,8.9,32.6,8.5,32.1,8.5z M32,20.5c0,0.3-0.3,0.6-0.6,0.6H12.1c-0.3,0-0.6-0.3-0.6-0.6V10.2c0-0.3,0.3-0.6,0.6-0.6h19.3
		c0.3,0,0.6,0.3,0.6,0.6V20.5z"/>
	<g>
		<path class="st1" d="M31.1,23.5c0-0.1-0.1-0.1-0.2-0.1H12.2c-0.1,0-0.2,0.1-0.2,0.1l-1.8,4.8c0,0,0,0,0,0.1c0,0.1,0,0.1,0.1,0.1
			c0,0,0.1,0.1,0.1,0.1h21.7c0.1,0,0.1,0,0.1-0.1c0,0,0.1-0.1,0.1-0.1c0,0,0,0,0,0L31.1,23.5z"/>
		<path class="st1" d="M33,23.1c0-0.5-0.4-0.9-0.9-0.9H11.5c-0.5,0-0.9,0.4-0.9,0.9l-4,8.8c0,0.5,0.4,0.9,0.9,0.9h27.6
			c0.5,0,0.9-0.4,0.9-0.9L33,23.1z M23.4,31.7h-4.1c-0.1,0-0.3-0.1-0.2-0.3l0.3-2c0-0.1,0.1-0.2,0.2-0.2h3.5c0.1,0,0.2,0.1,0.2,0.2
			l0.2,2C23.6,31.6,23.5,31.7,23.4,31.7z M32.1,28.6H10.4c-0.1,0-0.2,0-0.2-0.1c-0.1-0.1-0.1-0.1-0.1-0.2c0,0,0-0.1,0-0.1l1.8-4.8
			c0-0.1,0.2-0.2,0.3-0.2h18.7c0.1,0,0.3,0.1,0.3,0.2l1.2,4.8c0,0,0,0.1,0,0.1C32.4,28.5,32.3,28.6,32.1,28.6z"/>
	</g>
</g>
</svg>
