<!-- Generator: Adobe Illustrator 22.1.0, SVG Export Plug-In  -->
<svg version="1.1"
	 xmlns="http://www.w3.org/2000/svg" xmlns:xlink="http://www.w3.org/1999/xlink" xmlns:a="http://ns.adobe.com/AdobeSVGViewerExtensions/3.0/"
	 x="0px" y="0px" width="42.2px" height="42.2px" viewBox="0 0 42.2 42.2" style="enable-background:new 0 0 42.2 42.2;"
	 xml:space="preserve">
<style type="text/css">
	.st0{fill:#3C76BA;}
	.st1{fill:#FFFFFF;}
</style>
<defs>
</defs>
<circle class="st0" cx="21.1" cy="21.1" r="21.1"/>
<polygon class="st1" points="20.3,10.9 19.6,11.1 18.6,10.6 17.3,11.3 16.5,13.1 17.1,13.4 17,14.2 16.1,14.3 15.9,14.9 15.2,14.8 
	14.7,15.3 13.9,17.3 14.1,18.6 13.9,18.7 13.4,18.3 12.2,18.9 12.2,19.2 11.7,19.3 11.3,20.4 10.6,20.6 9.2,20.8 8.9,21 8.8,21.4 
	9.5,23.6 9.9,24.6 9.8,25 9.7,26.1 8,27 7.7,28.1 9.1,28.8 8.7,30.2 9,31.7 9.5,31.6 9.5,31.4 9.6,31.2 10.1,31.5 10.9,30.5 
	10.8,30.1 11.1,29.8 14.6,30.1 15.9,30.1 17.6,30.8 18.2,30.7 19.1,30.5 19.8,31.2 21.7,31.1 22.2,31.5 23.3,31.2 23.6,31.6 
	24.2,30.9 24.8,31.2 24.7,31.6 25.3,31.5 25.5,31.8 26.6,31.5 27.1,32.5 27.8,32.5 28,32.7 28.4,32.1 28.1,31.9 28.3,30.4 
	29.6,28.6 32,28.3 31.5,27.4 31.6,26.9 31.2,26.8 31.6,25.9 30.9,24.7 31.3,23.9 32.8,24.1 34.4,22.8 34.5,21.7 33.8,21.3 
	33.6,20.8 32.8,20.6 32.2,20.8 32.3,20.4 32,19.4 30.6,18.2 30.6,17.9 29.3,15 29.7,13.9 29.3,13.3 29.5,11.5 28.5,10.8 26.9,10.8 
	26.5,11.2 25.7,11.2 25.2,10 24.3,9.7 24.2,10 23.3,10 22.8,9.6 22,9.8 21.6,9.5 20.7,10.1 "/>
</svg>
