<!-- Generator: Adobe Illustrator 22.1.0, SVG Export Plug-In  -->
<svg version="1.1"
	 xmlns="http://www.w3.org/2000/svg" xmlns:xlink="http://www.w3.org/1999/xlink" xmlns:a="http://ns.adobe.com/AdobeSVGViewerExtensions/3.0/"
	 x="0px" y="0px" width="65.1px" height="79.9px" viewBox="0 0 65.1 79.9" style="enable-background:new 0 0 65.1 79.9;"
	 xml:space="preserve">
<style type="text/css">
	.st0{fill:#323232;}
</style>
<defs>
</defs>
<path class="st0" d="M31.5,22.4c-0.2,0-0.3,0-0.5-0.1c-2.7-1.7-5.8-2.6-8.9-2.6c-3.1,0-6.2,0.9-8.9,2.6c-0.4,0.3-1,0.1-1.3-0.3
	c-0.3-0.4-0.1-1,0.3-1.3c3-1.8,6.4-2.8,9.9-2.8c3.5,0,6.9,1,9.9,2.8c0.4,0.3,0.6,0.8,0.3,1.3C32.1,22.3,31.8,22.4,31.5,22.4z"/>
<path class="st0" d="M22.1,19.8c-0.5,0-0.9-0.4-0.9-0.9v-2.6c0-0.5,0.4-0.9,0.9-0.9c0.5,0,0.9,0.4,0.9,0.9v2.6
	C23,19.3,22.6,19.8,22.1,19.8z"/>
<path class="st0" d="M13.1,22.1c-0.3,0-0.6-0.2-0.8-0.5L11,19.4c-0.2-0.4-0.1-1,0.3-1.2c0.4-0.3,1-0.1,1.2,0.3l1.3,2.3
	c0.2,0.4,0.1,1-0.3,1.2C13.5,22.1,13.3,22.1,13.1,22.1z"/>
<path class="st0" d="M31,22.1c-0.2,0-0.3,0-0.5-0.1c-0.4-0.2-0.6-0.8-0.3-1.2l1.3-2.3c0.2-0.4,0.8-0.6,1.2-0.3
	c0.4,0.2,0.6,0.8,0.3,1.2l-1.3,2.3C31.6,22,31.3,22.1,31,22.1z"/>
<path class="st0" d="M40.6,72.2H3.7C1.7,72.2,0,73.9,0,76v3.9h44.4V76C44.4,73.9,42.7,72.2,40.6,72.2z M62.3,49.9
	c-1.6-3.1-2.7-7.4-3.4-11.7c-0.3,0.2-0.6,0.3-0.9,0.3l-2.1,0.3c-0.1,0-0.2,0-0.3,0c-0.3,0-0.5,0-0.7-0.1c0.7,4.8,2,9.6,3.8,13.1
	c2.4,4.6,3,9.5,1.5,12c-0.9,1.4-2.4,2.1-4.8,2.1c-2.2,0-3.7-0.5-4.6-1.4c-2.2-2.3-2.1-8-1.9-15.2l0.1-2.4c0.1-5.5-0.8-9-2.9-11.1
	c-1.9-1.8-4.2-2.1-6.5-2.2V15.7c0-5.4-4.4-9.8-9.8-9.8H14.8c-5.4,0-9.8,4.4-9.8,9.8v55h34.5v-33c1.5,0,2.8,0.2,3.6,1
	c1.2,1.2,1.8,3.9,1.7,8.1l-0.1,2.3c-0.2,8.5-0.4,14.6,3.1,18.1c1.8,1.8,4.2,2.7,7.6,2.7c4.8,0,7.2-2.2,8.3-4.1
	C66.4,61.3,64.7,54.6,62.3,49.9z M33.7,32.9H10.4V14.1h23.3V32.9z"/>
<path class="st0" d="M45.4,21.2l1.4,12.1c0.2,2,2.1,3.4,4.1,3.2l3.5-0.4c0,0-0.2-2-0.2-2l-3.5,0.4c-0.9,0.1-1.7-0.5-1.8-1.4
	l-1.4-12.1L45.4,21.2z"/>
<path class="st0" d="M47.5,11.6c0.1-0.1,0.3-0.2,0.5-0.3l2.1-1.1c0.2-0.1,0.4-0.2,0.7-0.2l-1.5-2.8c-0.6-1.2-1.4-2.3-2.4-3.3
	l-3.3-3.4c-0.5-0.5-1.3-0.5-1.9,0L41,1c-0.5,0.5-0.5,1.4,0,1.9l3.3,3.4C45,7.1,45.6,7.9,46,8.8L47.5,11.6z"/>
<path class="st0" d="M54.1,36.6l-1.3-11.1l4.9-0.6L59.1,36c0.1,0.8-0.5,1.5-1.2,1.6l-2.1,0.3C54.9,37.9,54.2,37.4,54.1,36.6z"/>
<path class="st0" d="M50.8,25.3l-4.2-2.5c-1.7-1-1.7-3.5,0-4.5l0.6-0.4c1-0.6,1.4-1.8,1-2.8l-0.5-1.3c-0.3-0.7,0-1.5,0.7-1.8
	l2.1-1.1c0.6-0.3,1.4-0.2,1.8,0.4l3,3.7c1.9,2.4,3.1,5.2,3.5,8.2l0,0c0.1,1.1-0.7,2.1-1.8,2.3L54,26C52.9,26.1,51.7,25.9,50.8,25.3z
	"/>
</svg>
