<!-- Generator: Adobe Illustrator 22.1.0, SVG Export Plug-In  -->
<svg version="1.1"
	 xmlns="http://www.w3.org/2000/svg" xmlns:xlink="http://www.w3.org/1999/xlink" xmlns:a="http://ns.adobe.com/AdobeSVGViewerExtensions/3.0/"
	 x="0px" y="0px" width="105.5px" height="60.4px" viewBox="0 0 105.5 60.4" style="enable-background:new 0 0 105.5 60.4;"
	 xml:space="preserve">
<style type="text/css">
	.st0{fill:#323232;}
</style>
<defs>
</defs>
<g>
	<g>
		<g>
			<path class="st0" d="M12.1,52.8c0-1.7,1.4-3.1,3.1-3.1h5c0.8,0,1.6,0.3,2.2,0.9l2.8,2.6h0.9c0.5,0,1-0.4,1-1v-4.2
				c0-0.5-0.4-1-1-1H12.9c-0.5,0-1,0.4-1,1v4.2C11.9,52.5,12,52.7,12.1,52.8L12.1,52.8z"/>
			<path class="st0" d="M20.7,54.8c-0.4-0.4-0.9-0.6-1.4-0.6h-6.6c-0.1,0.4-0.2,0.8-0.2,1.3c0,2.7,2.2,4.9,4.9,4.9
				c2.5,0,4.5-1.8,4.8-4.2L20.7,54.8z"/>
			<path class="st0" d="M45.9,52.8c0-1.7-1.4-3.1-3.1-3.1h-5c-0.8,0-1.6,0.3-2.2,0.9l-2.8,2.6h-0.9c-0.5,0-1-0.4-1-1v-4.2
				c0-0.5,0.4-1,1-1h13.3c0.5,0,1,0.4,1,1v4.2C46.2,52.5,46.1,52.7,45.9,52.8L45.9,52.8z"/>
			<path class="st0" d="M37.4,54.8c0.4-0.4,0.9-0.6,1.4-0.6h6.6c0.1,0.4,0.2,0.8,0.2,1.3c0,2.7-2.2,4.9-4.9,4.9
				c-2.5,0-4.5-1.8-4.8-4.2L37.4,54.8z"/>
			<path class="st0" d="M42.8,50.3h-5c-0.7,0-1.3,0.3-1.8,0.7l-0.1,0.1l-3,2.8c-0.5,0.4-1,0.7-1.7,0.7h-4.5c-0.6,0-1.2-0.2-1.7-0.7
				l-3-2.8L22,51c-0.5-0.5-1.1-0.7-1.8-0.7h-5c-1.4,0-2.5,1.1-2.5,2.5v0.9h6.6c0.7,0,1.3,0.3,1.8,0.7l3.4,3.2l0.1,0.1
				c0.5,0.4,1,0.7,1.7,0.7h5.5c0.6,0,1.2-0.2,1.7-0.7l0.1-0.1l3.4-3.2c0.5-0.5,1.1-0.7,1.8-0.7h6.6v-0.9
				C45.4,51.4,44.2,50.3,42.8,50.3z M23,54.8c-0.4,0-0.7-0.3-0.7-0.7c0-0.4,0.3-0.7,0.7-0.7c0.4,0,0.7,0.3,0.7,0.7
				C23.7,54.5,23.4,54.8,23,54.8z M29,57.2c-0.4,0-0.7-0.3-0.7-0.7s0.3-0.7,0.7-0.7c0.4,0,0.7,0.3,0.7,0.7S29.4,57.2,29,57.2z
				 M35,54.8c-0.4,0-0.7-0.3-0.7-0.7c0-0.4,0.3-0.7,0.7-0.7c0.4,0,0.7,0.3,0.7,0.7C35.7,54.5,35.4,54.8,35,54.8z"/>
		</g>
		<g>
			<path class="st0" d="M59.6,52.8c0-1.7,1.4-3.1,3.1-3.1h5c0.8,0,1.6,0.3,2.2,0.9l2.8,2.6h0.9c0.5,0,1-0.4,1-1v-4.2
				c0-0.5-0.4-1-1-1H60.3c-0.5,0-1,0.4-1,1v4.2C59.4,52.5,59.5,52.7,59.6,52.8L59.6,52.8z"/>
			<path class="st0" d="M68.2,54.8c-0.4-0.4-0.9-0.6-1.4-0.6h-6.6C60,54.7,60,55.1,60,55.5c0,2.7,2.2,4.9,4.9,4.9
				c2.5,0,4.5-1.8,4.8-4.2L68.2,54.8z"/>
			<path class="st0" d="M93.4,52.8c0-1.7-1.4-3.1-3.1-3.1h-5c-0.8,0-1.6,0.3-2.2,0.9l-2.8,2.6h-0.9c-0.5,0-1-0.4-1-1v-4.2
				c0-0.5,0.4-1,1-1h13.3c0.5,0,1,0.4,1,1v4.2C93.6,52.5,93.6,52.7,93.4,52.8L93.4,52.8z"/>
			<path class="st0" d="M84.9,54.8c0.4-0.4,0.9-0.6,1.4-0.6h6.6c0.1,0.4,0.2,0.8,0.2,1.3c0,2.7-2.2,4.9-4.9,4.9
				c-2.5,0-4.5-1.8-4.8-4.2L84.9,54.8z"/>
			<path class="st0" d="M90.3,50.3h-5c-0.7,0-1.3,0.3-1.8,0.7l-0.1,0.1l-3,2.8c-0.5,0.4-1,0.7-1.7,0.7h-4.5c-0.6,0-1.2-0.2-1.7-0.7
				l-3-2.8L69.5,51c-0.5-0.5-1.1-0.7-1.8-0.7h-5c-1.4,0-2.5,1.1-2.5,2.5v0.9h6.6c0.7,0,1.3,0.3,1.8,0.7l3.4,3.2l0.1,0.1
				c0.5,0.4,1,0.7,1.7,0.7h5.5c0.6,0,1.2-0.2,1.7-0.7l0.1-0.1l3.4-3.2c0.5-0.5,1.1-0.7,1.8-0.7h6.6v-0.9
				C92.9,51.4,91.7,50.3,90.3,50.3z M70.5,54.8c-0.4,0-0.7-0.3-0.7-0.7c0-0.4,0.3-0.7,0.7-0.7c0.4,0,0.7,0.3,0.7,0.7
				C71.2,54.5,70.9,54.8,70.5,54.8z M76.5,57.2c-0.4,0-0.7-0.3-0.7-0.7s0.3-0.7,0.7-0.7s0.7,0.3,0.7,0.7S76.9,57.2,76.5,57.2z
				 M82.5,54.8c-0.4,0-0.7-0.3-0.7-0.7c0-0.4,0.3-0.7,0.7-0.7s0.7,0.3,0.7,0.7C83.2,54.5,82.9,54.8,82.5,54.8z"/>
		</g>
	</g>
	<path class="st0" d="M48.3,42.4H3.4c-1.1,0-2.1,0.9-2.1,2.1v2h47C47.7,45.2,47.7,43.7,48.3,42.4z M102.1,42.4H57.6
		c0.6,1.3,0.6,2.8,0,4.1h46.6v-2C104.2,43.3,103.3,42.4,102.1,42.4z"/>
	<g>
		<path class="st0" d="M98.4,54.7h4.5c0.7,0,1.4-0.6,1.4-1.4v-7.2H97v7.2C97,54.1,97.6,54.7,98.4,54.7z M103.6,46.8v6.6
			c0,0.4-0.3,0.7-0.7,0.7h-4.5c-0.4,0-0.7-0.3-0.7-0.7v-6.6H103.6z"/>
		<g>
			<rect x="97.3" y="48.8" class="st0" width="6.6" height="0.6"/>
			<rect x="97.3" y="51.4" class="st0" width="6.6" height="0.6"/>
		</g>
	</g>
	<g>
		<path class="st0" d="M2.7,54.7h4.5c0.7,0,1.4-0.6,1.4-1.4v-7.2H1.3v7.2C1.3,54.1,1.9,54.7,2.7,54.7z M7.9,46.8v6.6
			c0,0.4-0.3,0.7-0.7,0.7H2.7c-0.4,0-0.7-0.3-0.7-0.7v-6.6H7.9z"/>
		<g>
			<rect x="1.6" y="48.8" class="st0" width="6.6" height="0.6"/>
			<rect x="1.6" y="51.4" class="st0" width="6.6" height="0.6"/>
		</g>
	</g>
	<path class="st0" d="M60.9,6.2H44.7V2.4C44.7,1.1,45.7,0,47,0h11.5c1.3,0,2.4,1.1,2.4,2.4V6.2z"/>
	<path class="st0" d="M11.7,41.4H34V7.6H11.7V41.4z M22.6,39c-2.2,0-4.1-1.8-4.1-4c0-2.2,1.8-4.1,4.1-4.1c2.2,0,4,1.8,4,4.1
		C26.6,37.2,24.8,39,22.6,39z M17.4,13.9h10.4c1.7,0,2.7,1.7,2,3.2l-1.1,2.3c-0.4,0.8-1.2,1.3-2,1.3h-8.1c-0.9,0-1.7-0.5-2-1.3
		l-1.1-2.3C14.6,15.6,15.7,13.9,17.4,13.9z M17.2,17.2h0.4c-0.2,0.1-0.3,0.2-0.3,0.4c0,0.3,0.2,0.5,0.5,0.5h0.4
		c-0.2,0.1-0.3,0.2-0.3,0.4c0,0.3,0.2,0.5,0.5,0.5h2c0.5,0.7,1.3,1.3,2.2,1.3c0.9,0,1.7-0.5,2.2-1.3h2c0.3,0,0.5-0.2,0.5-0.5
		c0-0.2-0.1-0.3-0.3-0.4h0.4c0.3,0,0.5-0.2,0.5-0.5c0-0.2-0.1-0.3-0.3-0.4h0.4c0.3,0,0.5-0.2,0.5-0.5c0-0.3-0.2-0.5-0.5-0.5h-3.2
		c-0.5-0.7-1.3-1.3-2.2-1.3c-0.9,0-1.7,0.5-2.2,1.3h-3.2c-0.3,0-0.5,0.2-0.5,0.5C16.7,17,16.9,17.2,17.2,17.2z M22.6,32.2
		c-1.5,0-2.8,1.3-2.8,2.8c0,1.5,1.3,2.8,2.8,2.8c1.5,0,2.8-1.2,2.8-2.8C25.3,33.4,24.1,32.2,22.6,32.2z M23.4,36.9h-1.7v-1.1h1.7
		V36.9z M24.6,34.7h-4.1v-1.1h4.1V34.7z M0,24.5c0,9.3,4.6,16.9,10.3,16.9c0,0,0,0,0,0V7.6c0,0,0,0,0,0C4.6,7.6,0,15.2,0,24.5z
		 M35.5,41.4h6.1v-2.1h-6.1V41.4z M43.1,41.4h5.8c0.4-0.5,0.8-0.9,1.4-1.3c0.8-0.5,1.7-0.8,2.7-0.8c1.6,0,3.1,0.8,4.1,2h36.8V7.6
		H43.1V41.4z M67.8,13.9c2,6,7,9.6,7,13.4c0,3.8-3.1,7-7,7c-3.8,0-7-3.1-7-7C60.9,23.5,65.8,19.9,67.8,13.9z M65.4,32.2
		c0,0.5,1.1,0.9,2.4,0.9s2.4-0.4,2.4-0.9c0-0.5-1.1-0.9-2.4-0.9S65.4,31.7,65.4,32.2z M35.5,10.5h6.1V7.6h-6.1V10.5z M64.8,32
		c-1.4-1.8-1.7-3.8-1.3-5.6c0.4-1.9,1.5-4.1,2.8-6.1c-0.2,0.3-0.5,0.5-0.7,0.7c-1.9,1.9-3.1,3.4-3.3,5.5C62.1,28.9,63,30.9,64.8,32z
		 M95.2,7.6C95.2,7.6,95.2,7.6,95.2,7.6l0,33.8c0,0,0,0,0,0c5.7,0,10.3-7.6,10.3-16.9C105.5,15.2,100.9,7.6,95.2,7.6z M35.5,17.3
		h6.1V12h-6.1V17.3z M35.5,30.9h6.1v-5.3h-6.1V30.9z M35.5,24.1h6.1v-5.3h-6.1V24.1z M35.5,37.7h6.1v-5.3h-6.1V37.7z"/>
	<g>
		<g>
			<polygon class="st0" points="52,44.2 53.2,43.5 51.3,41 50.6,41.4 			"/>
			<polygon class="st0" points="53.2,43.5 53.9,44.7 56.5,42.7 56.1,42.1 			"/>
			<polygon class="st0" points="53.9,44.6 52.7,45.4 54.7,47.9 55.3,47.5 			"/>
			<polygon class="st0" points="52.8,45.4 52,44.2 49.5,46.2 49.9,46.8 			"/>
		</g>
		<g>
			<path class="st0" d="M49.1,46.8c1.3,2.1,4.1,2.8,6.2,1.5c2.1-1.3,2.8-4.1,1.5-6.2c-1.3-2.1-4.1-2.8-6.2-1.5
				C48.5,41.9,47.8,44.7,49.1,46.8z M50,46.3c-1-1.6-0.5-3.7,1.1-4.7c1.6-1,3.7-0.5,4.7,1.1c1,1.6,0.5,3.7-1.1,4.7
				C53.2,48.4,51,47.9,50,46.3z"/>
		</g>
		<path class="st0" d="M51.7,45.2c0.4,0.7,1.4,0.9,2.1,0.5c0.7-0.4,0.9-1.4,0.5-2.1c-0.4-0.7-1.4-0.9-2.1-0.5
			C51.5,43.6,51.2,44.5,51.7,45.2z"/>
	</g>
</g>
</svg>
