<!-- Generator: Adobe Illustrator 22.1.0, SVG Export Plug-In  -->
<svg version="1.1"
	 xmlns="http://www.w3.org/2000/svg" xmlns:xlink="http://www.w3.org/1999/xlink" xmlns:a="http://ns.adobe.com/AdobeSVGViewerExtensions/3.0/"
	 x="0px" y="0px" width="181px" height="285.8px" viewBox="0 0 181 285.8" style="enable-background:new 0 0 181 285.8;"
	 xml:space="preserve">
<style type="text/css">
	.st0{fill:#373735;}
</style>
<defs>
</defs>
<g>
	<path class="st0" d="M1.8,73.1c-0.3,0.6-1.5-0.5-1.8-0.6C0.9,71.8,2.2,73.3,1.8,73.1z"/>
	<polygon class="st0" points="11.2,66.5 10.5,66.3 12.8,66 	"/>
	<path class="st0" d="M17.3,58.7c1.6,2.5-2.6,2.5-2.9,4.5l0.3,0.6l-2.3-0.8c0.8-0.7,1.9-1.4,2.9-2.1C16.3,60.2,17.1,59.5,17.3,58.7z
		"/>
	<path class="st0" d="M17,49.4c0.4,1.3,1.9-0.8-1.2,1.9c0-0.2,0-0.3,0-0.5C16.1,50.5,16.5,50.2,17,49.4z"/>
	<path class="st0" d="M15.9,50.8C14.6,52.2,16,49.2,15.9,50.8L15.9,50.8z"/>
	<path class="st0" d="M21.8,45.2c0,0-0.5,0.2-1.1,0.4c-0.5,0.2-1.1,0.5-1.1,0.5c0-0.9,1.4-2.7,0.6-2.5
		C22.3,42.1,22.2,43.2,21.8,45.2z"/>
	<path class="st0" d="M24.2,45.6c0,0-0.2,0.1-0.5,0.2c-0.2,0.1-0.5,0.2-0.5,0.2C23.3,45.6,23.5,45.3,24.2,45.6z"/>
	<path class="st0" d="M21.2,47l2.1-1c0,0.7,0.5,1.5-0.9,0.5C22.9,47.2,22.2,46.8,21.2,47z"/>
	<path class="st0" d="M20.5,48.4c-0.5,1.5-1.2,2.9,0.8,2.1c-1.4,1.3-2.4,1.5-2.7,1C18.4,51.1,18.9,49.8,20.5,48.4z"/>
	<path class="st0" d="M19.9,60.2l0,1.3l-1.3,0.1C19.2,61.5,19.2,59.5,19.9,60.2z"/>
	<path class="st0" d="M31.5,33.2c0.2,0.7-0.3,2.6-0.3,3.6l-1.3,0.3C30.4,36,31.5,34.4,31.5,33.2z"/>
	<path class="st0" d="M31.2,36.8c0,0,0.5-0.1,0.9-0.2c0.4-0.1,0.9-0.1,0.9-0.1C31.6,38.1,31.2,37.8,31.2,36.8z"/>
	<path class="st0" d="M25.9,48.4c0,0-0.8,0.1-1.7,0.2c-0.9,0.2-1.8,0.4-1.8,0.4s1.1-0.3,2-0.6c1-0.3,1.9-0.4,1.9-0.4L25.9,48.4z"/>
	<path class="st0" d="M38.6,26.6c0,0-0.2-0.3-0.5-0.5c-0.2-0.3-0.5-0.5-0.5-0.5s0.5,0.3,0.9,0.7c0.4,0.3,0.8,0.7,0.8,0.7
		s-0.2-0.1-0.4-0.2C38.8,26.7,38.6,26.6,38.6,26.6z"/>
	<path class="st0" d="M43.2,23c-0.5-1.1,1.6-4,0.9-4.4c1.3-0.8,2.1-0.1,2.8,0.6C46.1,19.2,44.9,20.3,43.2,23z"/>
	<path class="st0" d="M48,20c-0.4-0.1-0.7-0.5-1.1-0.9C47.4,19.2,47.7,19.4,48,20z"/>
	<path class="st0" d="M35.8,33.5c0.1-0.6,0.4-2.2,1.4-3.7l-0.7,3C36.3,33.1,36.1,33.3,35.8,33.5z"/>
	<path class="st0" d="M36.5,33L36.5,33c0.7-0.8,1.2-1.3,1.4-1.5C37.7,31.6,37.3,32.1,36.5,33z"/>
	<path class="st0" d="M35.7,33.7c0.1-0.1,0.1-0.1,0.2-0.2C35.8,33.8,35.7,33.9,35.7,33.7z"/>
	<path class="st0" d="M29.2,42.8c0.6,0.1,1.4,0,1.8,0.4c0.5,0.3,0.6,1.1-0.1,2.8c-0.4-0.4-0.5-1.1-0.6-1.7
		C30.3,43.5,30.1,42.9,29.2,42.8z"/>
	<path class="st0" d="M34.9,37.3c0,0-0.4,0.5-0.8,1c-0.4,0.5-0.8,1-0.8,1c0-0.6,0.2-1.8-0.3-1.9c0,0,0.5-0.1,1-0.1
		C34.5,37.3,34.9,37.3,34.9,37.3z"/>
	<polygon class="st0" points="35.7,37.3 34.9,37.3 35.5,36.6 	"/>
	<path class="st0" d="M44.3,25.2c0.5,0.6,1.3,0,2.2-0.6c-1.1,1.4-2.2,2.5-3.1,3.3C43.4,27.2,43.2,26,44.3,25.2z"/>
	<path class="st0" d="M40.4,29.2c0,0,0.1,0,0.2,0C40.5,29.5,40.4,29.6,40.4,29.2z"/>
	<path class="st0" d="M55.6,17.1c-0.1,0.2-0.2,0.5-0.4,0.7c0.1-0.2,0.1-0.3,0.2-0.5L55.6,17.1z"/>
	<path class="st0" d="M43.1,28.5c-0.8,1.1-1.1,0.9-1.4,0.4c0.5-0.2,1.1-0.6,1.7-1.1C43.4,28.2,43.3,28.5,43.1,28.5z"/>
	<path class="st0" d="M50.3,19.2c-0.6,0.9-1.2,1.8-1.8,2.7C49.2,20.7,50.4,18.5,50.3,19.2z"/>
	<path class="st0" d="M40.9,28.2c0,0-0.1,0-0.1,0C41.2,27.4,41.1,27.7,40.9,28.2z"/>
	<path class="st0" d="M40.9,28.2c0.3,0,0.6,0.4,0.8,0.7c-0.4,0.2-0.8,0.3-1.1,0.2C40.7,28.9,40.8,28.5,40.9,28.2z"/>
	<path class="st0" d="M49.4,36.6c1.6-4,1.1-5.2-1.3-1c-0.1-0.7,0.7-3.4,2.1-6.9c1.3-3.4,3.2-7.6,5-10.9c-0.4,1.2-0.8,2.4,0.1,2.8
		c-0.6,1-1.8,2.7-2.8,4.3c-1,1.6-1.8,3-1.7,3.9c1.2,0,1.9-2.3,3.5-4.7c-1.2,2.2-1.1,3.1-1.1,4.2c0,0.6-0.1,1.2-0.3,2
		c-0.1,0.4-0.3,0.9-0.5,1.5c-0.2,0.6-0.6,1.5-1,2.4c0,0-0.1-0.4-0.1-0.7c0-0.2-0.1-0.3-0.1-0.5c0-0.1-0.1-0.1-0.1-0.1
		C50.5,33.9,50.2,35.3,49.4,36.6z"/>
	<path class="st0" d="M51.9,20.8L51.3,21c1-1.1,1.9-2.7,3.8-5.9c0.8,0.4,0.6,1.3,0.3,2.2l-3.6,3.2L51.9,20.8z"/>
	<path class="st0" d="M48.2,23.5C48,26,49.1,26,47.3,30c-1.7,1.3-0.6-1.4-1.4-1.7c1.4-0.9,1.3-1.2,1.2-1.6c-0.1-0.4-0.4-1,1-2.8
		c-0.5,0-1.1,0.4-1.6,0.7c0.7-0.8,1.4-1.8,2.1-2.7c0,0.1-0.1,0.2-0.1,0.2l0,0c0,0,0,0,0,0c-0.2,0.5-0.3,0.7-0.1,0.4c0,0,0,0,0.1,0
		C48.3,22.9,48.2,23.2,48.2,23.5c1.1-1.4,0.4-0.9,0.1-1c0-0.1,0-0.2,0.1-0.4l0,0l2.9-1.1C50.5,22,49.6,22.6,48.2,23.5z"/>
	<path class="st0" d="M33,49.1c0-0.3,0-0.4,0-0.6C33.2,48.6,33.3,48.7,33,49.1z"/>
	<path class="st0" d="M33.8,46.8c-0.2-0.1-0.4-0.9-1-0.1c-0.4,1.1,0.1,1,0.2,1.8c-0.4-0.3-1.4-0.3-0.5-2.5l0.2,0.1
		c0.4-0.9,1-2.4,1.4-3.7c0.4-1.3,0.7-2.4,0.6-2.5C34.5,42.4,34.2,44.2,33.8,46.8z"/>
	<path class="st0" d="M39.9,36.3c0,0,0.5-0.2,1.1-0.4c0.5-0.2,1-0.4,1-0.4s-0.4,0.8-0.8,1.7c-0.4,0.8-0.7,1.7-0.7,1.7l0.3-1.4
		C39.5,39.1,39.9,37.2,39.9,36.3z"/>
	<path class="st0" d="M56.5,15.3l0.9-3.1c0,0,0,0.8,0,1.7c0,0.9-0.1,1.7-0.1,1.7s-0.2-0.1-0.4-0.2C56.7,15.4,56.5,15.3,56.5,15.3z"
		/>
	<path class="st0" d="M60.1,12.6l1.2-3c0,0,0.1,0.3,0.1,0.5c0.1,0.3,0.1,0.5,0.1,0.5L60.1,12.6z"/>
	<path class="st0" d="M40.2,207.2l-0.4,0.8C39.9,207.6,40.1,207.3,40.2,207.2z"/>
	<path class="st0" d="M39.6,201.7l0.8-0.2C40,201.8,39.7,201.9,39.6,201.7z"/>
	<path class="st0" d="M58.4,101.9c1.4,1.2,3.6,2.5,1.9,2.3l-1.7-0.4C58.9,103,58.7,102.4,58.4,101.9z"/>
	<path class="st0" d="M46.7,156.7c-0.2-0.1-0.4-0.2-0.5-0.3c0.6-0.3,1.1-0.5,1.6-0.8C47.5,156,47.1,156.3,46.7,156.7z"/>
	<path class="st0" d="M39.5,157.6l1.1,1.4C40.3,158.7,39.9,158.3,39.5,157.6z"/>
	<path class="st0" d="M42.2,237.9l-1.5,1.4C40.3,237.7,41.4,238.2,42.2,237.9z"/>
	<path class="st0" d="M64.4,44.1c0.6,0.8,0.7,1.8,0.6,2.9C64.1,45.9,62.6,46.1,64.4,44.1z"/>
	<path class="st0" d="M58.4,203.4c-0.3,0.5-0.6,0.7-1,0.7C57.6,203.7,58,203.4,58.4,203.4z"/>
	<path class="st0" d="M64.3,51.6c-0.2-0.2-0.2-0.4-0.3-0.5c0.5-1.4,0.9-2.8,1-4.1C65.6,47.7,65.9,49.1,64.3,51.6z"/>
	<path class="st0" d="M142.2,285.2c0.1-0.1,0.2-0.1,0.2-0.2C142.5,285.2,142.4,285.2,142.2,285.2z"/>
	<path class="st0" d="M172.1,265.4c-0.3-0.1-0.8,0-1.3,0C171.1,265.3,171.5,265.3,172.1,265.4z"/>
	<path class="st0" d="M71.9,6.5C72.2,5,72.2,5.8,71.9,6.5L71.9,6.5z"/>
	<path class="st0" d="M62.3,20.4c-0.2,0.6-0.6,1.3-1.1,2.3C61.7,21.6,62.1,20.9,62.3,20.4z"/>
	<path class="st0" d="M51.4,66.2C51.4,66.2,51.4,66.2,51.4,66.2C51.1,66.1,51.1,66.2,51.4,66.2z"/>
	<path class="st0" d="M71,6.7c0.2-0.1,0.4,0,0.5,0.2C71.4,7,71.2,6.9,71,6.7z"/>
	<path class="st0" d="M72.2,4.8c0-0.2-0.1-0.4-0.1-0.6C72.6,3.3,72.8,2.9,72.2,4.8z"/>
	<path class="st0" d="M71.5,8.4c0.2-0.8,0.1-1.2,0.1-1.5c0.1-0.1,0.3-0.2,0.3-0.4C71.8,6.9,71.6,7.5,71.5,8.4z"/>
	<path class="st0" d="M83.6,275c0.1,0,0.1-0.1,0.2-0.1C84.3,275.8,84,275.6,83.6,275z"/>
	<path class="st0" d="M39.5,119.1C39.5,119.1,39.5,119.1,39.5,119.1c0.1,0,0.1,0,0.1,0L39.5,119.1z"/>
	<path class="st0" d="M38.1,121.6c2.2-1,2-1.6,1.5-2.5l5,1L38.1,121.6z"/>
	<path class="st0" d="M41.1,218.1c2.5,2.1-0.1,4.6-1.4,6c0.9,0.8,4-1.2,3.4,1.5c-0.6,3.8-4-0.2-4.4,2.1l3,1.3
		c-1.7,3.2,0.5,5.2,1.4,7.6c-0.1,0.6-0.3,1-0.6,1.2c0.9,1.2,0.5,2.8,0.2,4.4c-0.3,1.6-0.7,3.1,0.1,4.1c0.4-0.7,2.1,0.7,2.8,0.7
		c0,0-0.1,1.1-0.1,2.2c0,1.1,0,2.3,0,2.3c0-2,1.5-2.5,2.9-3.4c0.3,1.2-0.3,2.1-0.1,3c0.3-0.7,0.7-1.4,1.6-1.1c0,0-0.2,1.2-0.3,2.5
		c-0.1,1.2-0.2,2.5-0.2,2.5c-0.4-0.1-0.7-0.5-1-0.8c0.3,0.5,0.4,1.4,0.8,2.3c0.4,0.9,1,1.7,2,2c0.4-0.5,0.6-1.2,1.1-1.7
		c-2.2-0.2-1.3-1.6-0.5-2.8c1.2,2.7,0.7,0.4,2.4,1c1,1.7-0.2,3.6-1.7,3.9c0.9,0.9,1.7,1.3,2.1,1.9c0.5,0.6,0.7,1.5,1,2.9l1.3-1.8
		l1,2.1c0,0,0.2-0.8,0.4-1.6c0.2-0.8,0.4-1.5,0.4-1.5c1.9,1,1.4,1.7,0.9,2.6c-0.5,0.9-1,1.9,1.2,3l1.3-1.4c0.4,0.8,0.2,2,0.3,2.8
		c0,0.8,0.3,1.3,1.6,0.8c0.3,1-0.6,1.1-1.4,1.3c-0.7,0.2-1.2,0.5,0.4,1.9c1.2-0.3,2.9-0.1,4.1,0.2c0.7,1.5-2.1,1.4-2.7,0.7
		c1.2,1.1,2.3,1.4,3.2,1.3c0.9-0.1,1.7-0.6,2.4-1c1.5-0.9,2.6-1.6,4.4,0.6c-1.1,0.3-1.2,1.3-1.4,2c-0.3,0.7-0.7,1.2-2.7,0.1
		c0.7,1,2,0.8,3.1,0.7c1.2-0.1,2.3-0.1,2.9,1.2c0,0-0.1-0.7-0.2-1.4c-0.1-0.7-0.2-1.4-0.2-1.4c0.7,0.2,1.2,1.4,1.4,1.8l0.5-1.8
		c0.6,2,1.9,2.1,2.9,2.1c1.1,0.1,2,0.2,2.1,2.5c0-3.6,1.8,0.7,3.1-0.3c-0.7-1.4-2.1-1.8-3.3-2.3c-1.2-0.5-2.1-1-1.7-2.5
		c1.2-0.6,1.5,1.2,2.6,0.5c-0.5-0.6-1.1-1.7-1.1-2.4c1.7-0.3,2.7,0.4,3.4,1.5c0.8,1.1,1.4,2.4,2.2,3c0,0-0.8-0.4-1.5-0.7
		c-0.7-0.4-1.5-0.8-1.5-0.8c-0.6,3.1,1.3,1,1.6,3.6c2-1.2,2.7,1.5,4.3,0.7c-0.4-0.1-0.3-0.4-0.7-0.4c3.6,0.8,5.4-4.1,6.8-4
		c1.4-0.2,3.6,1.9,2.5,3.1c1,1-4.4-1.6-3.1,2.7c1.4-2.2,2.3-1.6,3.6-0.8c1.2,0.8,2.8,1.8,5.1,0.4c-1.7-1.9,1.4-2.5-0.2-4
		c2,0.6,2,1.3,2.8,2.7l0.7-1.4c2.3,3.5,0.4,3,4.2,5.1c-1.3-1.2,1.8-2,0.8-3.1c1.1,0,2.2,0.5,2.9,1.4l-0.1-0.2c4,1,3.4-1.7,7,0.1
		l-0.4,0.9c4.8,2.6,11,1.2,16.1,2.2l-1.8,0.7c0.5-0.5,3.4,1.4,5-0.1c-0.3-0.1-0.9-0.5-1.2-0.3c0-1,0.6-2.5,1.8-2.8l0.5,1.5l0.5-1.2
		c1.8-0.1-0.5,2.2,1.4,2.1c0.5-2.2,2.4-2.4,4.5-2.6c2-0.2,4.2-0.3,4.8-2.3c1.4,3.1-3.4,0.7-1.9,3.4c0.5-0.5,0.8-1.1,1.9-1.4
		l-0.3,1.9c5.5-1.5,7.5-3.2,12.5-3.3l-0.2-0.4c1.7-0.9,2.6-0.7,3.6,0.9c0.3-0.9-1-1.2-0.5-2.1c1.8,2.2,3.3,1.2,4.5-0.1
		c1.2-1.3,2.3-2.7,3.5-1.1c-0.8-3.7,2.6-8,0.6-10.7l1.3,0.3c-0.8-2.4-3.8,0.5-4.9-2c0,0-0.9,0.8-1.7,1.6c-0.9,0.8-1.7,1.6-1.7,1.6
		c0-1-0.8-2.3-0.2-2.7c-0.9,0.1-1.8,0-0.7-1.5c-4.1,3.8-8.8,4.3-13.5,4.3c-4.7,0-9.3-0.5-13.8,1.4c-0.6-0.2-0.3-1.1-0.1-1.7
		c-1.6,2.5-1.6-1.2-2.5-1.6l-2.4,3.5c-1-1-0.2-2.1-0.3-2.8c-4.6-0.7-9.1,2.7-12.8,0.5c-1.2,1.2,0.2,2.8-1.4,3.2
		c1.1-1.8,0-2.2-1.2-2.6c-1.2-0.3-2.5-0.6-1.8-1.8c-1.7,3.8-5.7,0.5-5.3,5.9c-1.9,0.2-1.4-2.4-0.8-2.8c-2.2,0.1-4-0.1-5.6-1.9
		c-0.6,0.6-3.1,0-5.6-0.3c-2.5-0.3-5.1-0.4-6.4,1.5c1.7-2.4,0.1-1.4-0.9-2.7l1.5-2.1c0,0-0.7-0.1-1.4-0.1c-0.7-0.1-1.3-0.2-1.3-0.2
		c-0.5-0.3-0.7-0.3-0.7-0.1c-0.5,0-0.2,1.3-1.5,1.7c-1.8-0.3-1.6-1.6-2.3-2.9l0.4-0.3c0,0-0.3-0.1-0.6-0.3c-0.3-0.1-0.5-0.3-0.5-0.3
		c-0.4-0.1,0.2,0.7,0.5,1.5c0.3,0.8,0.4,1.7-1.2,1.9c0.1-0.6-0.7-4-1.9-2.7c1.4,0.3,0.8,1.8,0.1,2.3c0,0-0.5-0.1-1-0.2
		c-0.5-0.1-1-0.3-1-0.3l1.6-2.6c-2.8-0.8-5.7-1.4-8.6-2.4c-2.8-0.9-5.6-2.2-7.7-4.3c-0.4,0.5-0.8,0.6-1.3,0.4
		c-0.4-0.1-0.8-0.5-1.2-0.8c-0.4-0.3-0.9-0.6-1.4-0.6c-0.5,0-1,0.2-1.6,0.9l0.4,0c0.4,0.7-0.2,1.1-1,1.2c-0.8,0.1-1.8-0.3-2.1-1
		c0.9,0.2,1.3-0.9,1.7-1.7c0.5-0.8,1-1.4,2.2-0.3c0,0,0-0.7,0-1.5c0-0.4,0-0.7,0-1c0-0.3,0-0.5,0-0.5c2.6-2.6,1.8-3.5,0.3-4.7
		c-1.5-1.1-3.6-2.6-3.1-4.7c-0.2,0.3-0.5,0.5-0.7,0.6c0.6-1.9-0.4-3.5-1.4-4.9c-1-1.4-2-2.5-1.5-3l-2,0.1c2.4-3.6,2.7-3.9,0.9-7.4
		c-0.3,0.1-0.8,0.6-1.3,0.1c1.3-1.1,2.7-2.1,2-4.7l-0.6,0.2l-0.1-4.1c-6.1,0.7,3-7.3-3.7-7.9c1.7-1,2-4,2.7-5.4
		c-0.3,0-0.5,0-0.8-0.2c3.1-1.8-1.4-4.4-1.2-6.2c0.7-1.2,1.8-0.8,2.9-0.4c-2.7-2,2.5-6.3,1.3-7.1c-0.4-1.6-2.4-0.5-3.8-0.8
		c0.4-2.5,5.5,0.1,2.9-3c-0.2,0.4-0.4,1.1-0.8,0.9c-0.6-1.2-7.7-3-6.4-4.4l1.1,0.8c1.5-2.4-5.2-5.2-1.1-5.7l1.9,0.1
		c-2.7-3.8,0.7-1.7-1.7-5.6l-0.3,0.1c0.3-1.8-2.1-2.6,0.9-3.6l0.4,0.6c0.2-2.2-0.1-2.3-0.3-4.5c0.3-0.3,0.7-1.3,0.1-1.6
		c2.5-0.2,1.1-5.1,0.9-6.1c-0.4,1.7-1.5,0.9-2.5,0.5c2.1-1.1,2.3-1.8,0.8-3.2c3.2-0.2,6.6-0.6,6.7-3.3c-0.5,0.4-0.7,1.1-1.4,0.8
		c-0.7-0.3,0-0.9,0.3-1.2c-0.7-0.3-1.2,0.6-2.3,0.3c3-1.9,0.2-3.3,1.3-6c-1,0.9-1.6,0.1-2.7-0.2c3.6-0.2-3.1-3.8,1.5-2.7
		c-2.8-5.4,0-13.6-3-15.7c-1.3-0.6,0.9-2,1-3l-1.6,0.1c3-2.5,1.1-2,4.2-5c-1.9,1.2-2.8,0.6-4.2-0.7l3.4-2l-2.4-0.5
		c1-0.8,0.6-1.8,0.3-2.8c-0.1,0.5-0.2,0.2-0.7,0.1c3.4-0.3,3.2-4.1,4.9-4.6c-3.3-1.1,1-2.5-2.1-3.3c0.5-0.3,0.9-0.7,1.2-1.1
		c1.4,0.5,3,0.8,2.4-0.1c0-0.1,0-0.1,0.1-0.2l-1.9-0.5c0.5-0.8,0.8-1.7,0.8-2.3c0.1,0.3,0.5,0.6,0.9,0.9c-0.3-0.4-0.6-0.8-0.9-1.1
		c0-0.1,0-0.2,0-0.3c-0.1,0.1-0.1,0.1-0.1,0.2c-0.4-0.6-0.6-1.1,0.1-1.8c-2.7-3.2,4.5-6.4,0.8-10c0.4,0.5,0.5,1.3-0.2,1.4
		c0.4-2.8-2-5.8-0.4-7.4l1.8,0.3c1-2,1.7-3.5,1.8-5.1l2,0.1c-0.3-1.2,0.6-3,1-4.7l0-0.2l0-0.3l0.1-0.6c0.1-0.4,0.1-0.8,0.1-1.2
		c0.1-0.8,0.1-1.5,0-2.2c-0.1-1.3-0.6-2.4-1.6-2.8c0.9-0.6,1-2.1,0.9-3.7c-0.1-1.6-0.2-3.2,0.2-4.5c0,0-0.4,0-0.8,0.1
		c-0.4,0-0.8,0.1-0.8,0.1c-0.1-2.7,0.7-4.8,1.5-6.9c-1.4-1.8-1-4.3-0.2-7.5c0.8-3.1,2.2-6.9,2.5-9.4l-0.6,0.6l2.3-7.3
		c-1,1.9-0.7,1.2-0.1-0.1c0.6-1.3,1.4-3.3,1.3-3.8c1.3-3.2,1.3-5.7,0.3-5.6l0.5-3.3c-1.1,3.1-1.8,4.2-2.6,5.1
		c-0.8,0.9-1.7,1.6-2.9,3.5l2.3-5.3c-1.1,1.3-2.2,4.5-2.5,4c1.6-3.5,2.1-7.1,5-13.3c0.6-1,1.2-1.6,1.6-1.9c-0.2,0.5-0.2,0.4,0,0
		c0,0,0.1-0.1,0.1-0.1c0,0,0,0-0.1,0c0.3-0.6,0.8-1.7,1.1-2.5c0-0.3,0-0.6,0-0.8c-0.7,0.4,0.5-1.4,1.5-3.2c-2.8,4.1-3.5,4.8-4.4,5.7
		c-0.9,0.9-1.5,1.5-4.2,5.9C68.2,6.9,67,7.9,65.6,9c-1.4,1.1-2.9,2.4-0.5-1.8c-2.2,3.6-2.5,3.8-2.7,4c-0.2,0.1-0.3,0.1-1.8,2.9
		c1.4-1.6,2.1-1.6,2.4-1c0.3,0.7,0.2,2,0.3,2.7l-3.3,4.8c-0.6,1.5-0.6,2-0.4,1.8c0.1-0.1,0.4-0.3,0.6-0.6l0.1-0.1l0,0l0.1-0.1
		c0.1-0.1,0.2-0.1,0.3-0.2c0.7-0.7,2-2.4,1.4-0.9c0.4-1.1,0.3-1.3,0-1c-0.3,0.2-0.8,0.9-1.2,1.7l3-5.4c0.9-0.8,1.1-0.2,0.7,1.3
		c-1,2.7-2.3,5.9-3.4,8.4c-0.4,0.1-1.1,1.6-1.8,3.4c-0.8,1.8-1.7,3.8-2.9,5.3l0.6-1.9c-1.2,1.7-2.3,4.5-3.4,6.7
		c0.9-0.4,0.5,2.1,0.3,4.1c-0.1,1-0.2,2-0.2,2.6c0.1,0.6,0.3,0.8,0.9,0.4c-0.7,0.2,0.2-2,1.3-4c0,0,1,0.1,1,0.2
		c0.2-0.9-0.4-0.7-0.8-0.7c-0.4,0-0.8-0.1-0.1-2c1-1.4,2.3-3.5,3.7-5.7c1.4-2.2,2.8-4.4,4.1-5.4c0.6,0.3,0.5,1.3,0,2.6
		c-0.5,1.3-1.3,3-2.2,4.7C61,37.2,60,39,59.2,40.6c-0.8,1.6-1.3,3.1-1.3,4.3c-0.7,1.3,3.3-4.9,1.8-0.3c-1.3,3.2-3,6.3-4.9,8.9
		c-1.9,2.6-3.9,4.6-5.7,6c0.6-0.9,1.6-2.5,2-3.6c0.5-1.1,0.4-1.7-1-0.4c-1.3,2.2-2.2,4.5-3.9,5.9c3-1.6,1.2-2.6,3.7-3.5
		c-0.2,0.8-1.2,2-1.8,2.7c1.4-1.5,2.1-1,2.8-1.2c-0.2,1.3,0,2.2,0.3,3.1c0.2,1,0.4,2,0.4,3.6c0.4,0.1,1.3,0.2,2,0
		c-0.5,1-1.9,2.2-3.4,2.9c-1.5,0.7-3,1-3.9,0.8c-0.1,0.6,0.1,1,0.3,1.3c0.2,0.5,0.3,0.9-0.2,1.7c-2.2-2.8,0.4,0.5-2.4,0.5
		c-0.5,1.6,1.2,0.7,1.8,1.5c-0.3,0.2-1.3,0.8-2,0.8c2,1.2,5.6-1.4,7.8,0c1.4,1,3.8,4.7,4,5c-2.4,0.5-11.8-0.6-14.7-2.1
		c-1.6,0,1.5,1.7,1.6,2.5c2.4,2.3-2.3,3-1.5,4.8l1.6-1.2c0.6,0.3-0.5,2.8-1.4,3.2c0.9,0.1,4.7-0.9,5.7-0.1c0.2,3.1-4.9,5.7-7.6,5.3
		l3.1-4.6c-2.2-0.4-2.5,3.2-5.2,2.8l0.5,4.5c0.1-0.6,0.9-2.2,2.1-1.5c-0.3,1.9,0.3,1,1.3,2.4c3-2,10.6-5.4,14.1-6.5l-1.7,2.1
		l1.3,0.7c-2,2.8-10.9,4.8-13.3,5.4c0.4,1.7,5.3,1.5,6.2,1.1c0,3.3-7,2.9-6.5,6.3l-1-1.3c-0.5,0.8,0.3,3.7-0.6,3.4
		c1.2,0.7,4.2,1.5,5,0.8l-4.7,2.8c0.5-0.4,4.3,0.1,5-0.1c0.1,1.2-4.5,1.8-5.1,1c2.7,2.5,1.2,1.8,4.4,3.9c-0.3,0.7-4.1-0.2-4.5-0.8
		c-1.1,1.5-0.6,2.5-0.3,3.2c1.8-2.5,8.6-0.4,11.6-0.7c0,0-2.9,1.3-5.8,2.5c-2.9,1.3-5.8,2.6-5.8,2.6c0.7-0.2,4.4-0.5,4.8-0.4
		c-3.5,0.3-4,6.8-3.6,9.9l0-0.5c1.2-0.6,2.1,2.1,0.9,3.2c0.7-0.2,0.5-0.4,0.5-0.9c2.5,2.1-5.2,2.6-2.2,4.8c-0.3-1.9,1.1-2.3,2.4-2.2
		c-1.2,1.6,0.1,5.3-3.9,4.5c0.8,1,0.3,1.9,2.4,1.9l-2.4,3.9c0.4-0.3,1.6-0.5,1.9,0.6c-0.5-2.2,3.2-4.3,0.6-5.5
		c2.5,0,3.8,0.8,5.9-0.3c-1.2,4.2-5.5,6.5-8.3,9.2l1.8,3.7l-1.1,0.2l2.9,0.6c-0.6,0.5-1.2,0.8-0.9,0.9c0.3,0.1,0.6,0,1.1-0.2
		c-0.1,0.4-0.4,0.8-0.7,0.9c1.5,0.1,3.2-0.6,4.8-1.3c-0.5-0.3-1.1-0.7-1.6-1c1.4-0.7,2.9-1.3,3.8-0.3c-0.2,0.1-0.4,0.3-0.6,0.5
		c1.1-0.5,1.9-0.8,2.4-0.4l-1.3,2.8c-0.4-0.3-1.2-0.8-2.1-1.3c-1.8,1.8-4.1,3.9-6,2.3l1.7,2.1c-2.8,2.6-2.2,2.1-4.2,5.3
		c1,0.1,1.8-0.7,2.6-0.2c-3.1,2.4,3.9,5.4,1.1,6c-0.6,1.8-2.4,0.9-3.2,2c0.3-0.1,0.9-0.2,1,0.1l-2,1.5c0.8,0.5,1.4-1.3,2.3,0.2
		c-1.4,2.7-2.4,4.3-1.3,6.5c-0.3,3.2-4.1-1.1-3.6,1.5c1.7,0.3,3.7,0.5,4,2.2c-1.1,0.9-2.4,0.9-3,2.5l2.5-0.3c0,1.4-0.4,2.5,1.5,2.4
		c-1,1.2-0.8,2-0.3,2.5c-1.2,2.2-5.3-1.2-6.3-1.6c2.1,2,1,3.5,4.2,4.4l0.6-1.9c3.4,3.7-3.4,4,2.2,5.4c-0.3-1.3,0.9-3,2.4-2.3l-1.2,2
		c0.7,0.2,0.4-1.1,1.2-0.3c-0.5,0.6-1.7,1.8-2.5,2.4l0.2,0l-0.1,3.5c-0.2-0.7,0.8-0.9,0.9-0.2l-1.1,2.4c0.6-0.8,1.4-0.1,1.9,0.9
		c1,2.9-5.5,2.9-2.7,4.9c-0.1-0.3,0.2-0.4,0.1-0.7l1.3,1.1c-5.4,0.8,0.2,7-5.2,7.8c2.4,1.4,1.3,0,3.6-2.5l1.7,1.6
		C41.1,219.5,40.7,219,41.1,218.1z M39.5,195.5c-1.2-0.3,0-1.4,0.4-2C40.6,194.3,41.7,194.7,39.5,195.5z M43.4,154.5
		c-0.7-0.7-1.1-1.2-0.4-1.6C43.4,153.5,43.5,154,43.4,154.5z M67.4,23.3c0-0.1,0.1-0.2,0.1-0.3C67.8,23.6,68.1,23.7,67.4,23.3z
		 M67.3,21.9c0-0.7,0.2-1.6,0.9-2.9c-0.3,0.4-0.7,1-1.1,1.9C66.3,22.9,66.7,22.6,67.3,21.9z M93.4,264.7l0.5-0.4
		C94.1,264.9,94.3,265.4,93.4,264.7z"/>
	<path class="st0" d="M40.3,157.5c0.3,0.1,0.7,0.2,1.1,0.2C41.1,157.9,40.7,157.9,40.3,157.5z"/>
	<path class="st0" d="M42.5,237.7C42.5,237.7,42.5,237.7,42.5,237.7c-0.1,0.2-0.2,0.2-0.3,0.2L42.5,237.7z"/>
	<path class="st0" d="M42.8,74.7c0.2,0.5,0.5,0.8,0.9,1C43.2,75.7,42.8,75.5,42.8,74.7z"/>
	<path class="st0" d="M68.9,3.5c0,0,0.3-0.1,0.7-0.2c0.4-0.2,0.5,0.1,0.5,0c-0.1,0-0.2,0.1-0.4,0.3c-0.2,0.2-0.4,0.4-0.6,0.7
		c-0.4,0.5-0.8,1-1.2,1.5C68.4,4.8,69.5,3.1,68.9,3.5z"/>
	<path class="st0" d="M46.2,37.4c0-0.3-0.3,0.2-0.3-0.1l0.5-1.6C47.1,35.2,47.2,35.9,46.2,37.4z"/>
	<path class="st0" d="M60.7,18.3c-1.8,3.5-2.1,3-2.8,3.3c0.1,0,0.1-0.1,0.2-0.1C59.8,17,60.3,17.6,60.7,18.3z"/>
	<path class="st0" d="M57.7,21.6c-0.2,0.1-0.5,0.3-0.9,0.7C57.5,20.6,57.3,21.6,57.7,21.6z"/>
	<path class="st0" d="M69.3,13.6c-0.5,0.2,3-5.5,2.2-4.4c1.5-3,0.4,0-0.8,2.7C69.5,14.7,68.2,17.1,69.3,13.6z"/>
	<polygon class="st0" points="54.6,29.9 56.9,25.6 55.8,28.5 	"/>
	<path class="st0" d="M58.6,29c-0.1-0.1-0.2-0.2-0.3-0.2c-0.1,0-0.2,0-0.3,0c0.5-0.8,0.8-1.5,1-2.1c0,0.2,0.1,0.4,0.2,0.5
		C59.2,27.6,59.1,28,58.6,29z"/>
	<path class="st0" d="M59,26.6c0-0.3,0-0.9,0.4-1.9C59.4,25,59.3,25.7,59,26.6z"/>
	<path class="st0" d="M55.6,30.1l0.9-1.4c0,0,0.1-0.1,0.2-0.2c0.1-0.1,0.1-0.1,0.2-0.2l0.1-0.1l0.1-0.1c0,0,0,0,0,0
		c0,0.2,0,0.4,0,0.4s0,0-0.1,0c0,0-0.1,0-0.1,0l0,0c0,0,0,0,0,0l0,0.1l-0.2,0.2C56.2,29.5,55.6,30.1,55.6,30.1z"/>
	<path class="st0" d="M55.9,48.4l-1,2.8c-0.8,1-1.3,1-0.9-0.1C54.7,50.1,55.1,49,55.9,48.4z"/>
	<path class="st0" d="M50.1,51.1c0.4-0.3,1-1,1.7-1.7l-3,3.9L50.1,51.1z"/>
	<path class="st0" d="M48.8,55.9c-0.4,0.5-1.1,1.6-1.5,2.3c-0.5,0.7-0.8,1-0.6,0.2C47.4,57.5,48.3,55.4,48.8,55.9z"/>
	<polygon class="st0" points="49.3,78.3 49.4,77.8 53.4,78.3 	"/>
	<path class="st0" d="M37.6,102.2c-0.8-2.3,2.5-0.4,1.4-2.5c1-0.5,0.9,1.7,1.8,1.2C39.7,102.3,40.2,103,37.6,102.2z"/>
	<path class="st0" d="M40.8,101c0.2-0.2,0.4-0.4,0.7-0.6C41.1,100.7,40.9,100.9,40.8,101z"/>
	<polygon class="st0" points="176.8,262.6 178,261.5 177.4,263 	"/>
	<path class="st0" d="M179.9,265.2l-0.1-2.6l1.2,2.2C180.6,264.7,180,264.5,179.9,265.2z"/>
	<path class="st0" d="M34.4,189.9l0.6-0.1c0.7,0.2,0.8,0.5,0.9,1.2L34.4,189.9z"/>
	<polygon class="st0" points="37.8,209.2 37.8,208.9 40.2,209.3 	"/>
	<path class="st0" d="M36.6,225.8c-0.2-0.7,0.2-1.5,0.1-2.2C36.4,225.2,39.5,225.7,36.6,225.8z"/>
</g>
<g>
	<path class="st0" d="M98.4,81.5c0.2,0.1-1.5,0.1-1.8,0.1C96.9,81.4,98.9,81.5,98.4,81.5z"/>
	<polygon class="st0" points="102.1,79.4 101.4,79.5 103.1,79.1 	"/>
	<path class="st0" d="M101.8,77.7c2.9-0.2-0.4,0.7,0.7,0.9l0.7,0l-2.3,0.4C101.2,78.5,102.7,77.8,101.8,77.7z"/>
	<path class="st0" d="M95.6,77.8c1.1-0.1,0.9-0.3,0.4,0.1c-0.1,0-0.2,0-0.3,0C95.7,77.9,95.7,77.8,95.6,77.8z"/>
	<path class="st0" d="M95.7,77.9C95.7,78.1,94.8,77.9,95.7,77.9L95.7,77.9z"/>
	<path class="st0" d="M96.2,77.1l-0.9,0.4c-0.7,0.1-0.8-0.1-1.3,0.1C94.5,77.2,95.1,77.1,96.2,77.1z"/>
	<path class="st0" d="M98.2,76.5l-0.4,0.2C97.5,76.7,97.4,76.7,98.2,76.5z"/>
	<path class="st0" d="M97,77.1l0.8-0.4c0.5-0.1,1.4-0.2-0.3,0.2C98.4,76.7,97.6,76.9,97,77.1z"/>
	<path class="st0" d="M97.5,77.1c0.6,0,1.1,0.1,2-0.3C99.1,77.3,97.2,77.6,97.5,77.1z"/>
	<path class="st0" d="M104.8,77.2l0.9,0.1l-0.9,0.3C105.1,77.4,103.9,77.3,104.8,77.2z"/>
	<path class="st0" d="M94.5,76.1c0.6-0.2,1.6-0.3,2.4-0.5L96.2,76C95.8,76,95.4,75.9,94.5,76.1z"/>
	<path class="st0" d="M96.9,75.7l1-0.5C98,75.4,97.5,75.5,96.9,75.7z"/>
	<path class="st0" d="M101.3,75.8l-2.1,0.8c0,0,0.5-0.2,1-0.5C100.8,76,101.3,75.7,101.3,75.8L101.3,75.8z"/>
	<polygon class="st0" points="94.2,75.3 92.9,75.8 94.9,75 	"/>
	<path class="st0" d="M94.3,74.7c-1.1,0.4-1.9,0.4-2.6,0.7c0.2-0.2,1.1-0.6,1.9-1C93.2,74.6,93.3,74.7,94.3,74.7z"/>
	<path class="st0" d="M94.8,73.8c-0.3,0.1-0.7,0.4-1.2,0.6C93.9,74.2,94.2,74.1,94.8,73.8z"/>
	<path class="st0" d="M97.4,74.8c-0.4,0.1-1.3,0.3-1.7,0.2L97.4,74.8C97.4,74.8,97.4,74.8,97.4,74.8z"/>
	<path class="st0" d="M97.4,74.7L97.4,74.7c-0.1-0.1-0.2-0.1-0.2-0.2C97.2,74.6,97.3,74.6,97.4,74.7z"/>
	<path class="st0" d="M97.4,74.9C97.4,74.8,97.4,74.8,97.4,74.9C97.6,74.8,97.6,74.8,97.4,74.9z"/>
	<path class="st0" d="M99.7,75.4c0.9-0.3,1.8-0.9,3.3-0.9C101.9,74.9,101,74.9,99.7,75.4z"/>
	<path class="st0" d="M99.5,74.5l0.5,0.2c-0.4,0.1-1.1,0.2-1.5,0.4L99.5,74.5z"/>
	<polygon class="st0" points="100,74.2 99.5,74.5 99.4,74.4 	"/>
	<path class="st0" d="M96.5,73.8c0.7-0.3,0.7-0.5,0.8-0.6c0.4,0.1,0.6,0.2,0.6,0.3C97.4,73.6,96.5,74,96.5,73.8z"/>
	<path class="st0" d="M97.1,74.2L97.1,74.2C97.3,74.1,97.4,74.1,97.1,74.2z"/>
	<path class="st0" d="M96.8,71.8c0.1,0,0.2-0.1,0.3-0.1L96.8,71.8L96.8,71.8z"/>
	<path class="st0" d="M98.2,73.4c0.3,0,0,0.2-0.5,0.4c0.1-0.1,0.2-0.3,0.2-0.4C98.1,73.4,98.3,73.3,98.2,73.4z"/>
	<path class="st0" d="M95.5,73.2c0.4-0.1,0.7-0.1,1-0.1C95.9,73.2,95.1,73.4,95.5,73.2z"/>
	<path class="st0" d="M96.7,74.2L96.7,74.2C96.3,74.3,96.4,74.3,96.7,74.2z"/>
	<path class="st0" d="M96.7,74.2c0.2-0.1,0.6-0.3,1-0.4c-0.1,0.1-0.3,0.2-0.5,0.3C97,74.2,96.9,74.2,96.7,74.2z"/>
	<path class="st0" d="M107,67.7c-1.5,0.6-2.8,1.4-1,1.2c-1,0.7-6,2.1-8.9,2.8c0.7-0.2,1.3-0.4,2.1-1c0.8-0.2,2.1,0,3.4-0.7
		c0.6-0.7-0.6-0.1-1.5-0.1c1.9-0.5,2.5-1.5,5.3-2.4l-0.8,0.7C106,68.1,106.6,67.8,107,67.7z"/>
	<path class="st0" d="M97.4,72.2l-0.2,0.2c-0.3,0-0.9,0.1-2.2,0.3c0.7-0.4,1.2-0.6,1.7-0.8l0.4,0.5L97.4,72.2z"/>
	<path class="st0" d="M97.4,72.8c1.6-0.6,2.2-1.1,4.1-1.5c0,0.4-1.3,0.7-2,1.1c0.2-0.7-0.9,0.4-1.9,0.3c-0.2,0.2-0.3,0.3-0.4,0.4
		c-0.2,0-0.5,0-0.8,0c0,0,0.1,0,0.1,0l0,0c0,0,0,0,0,0c0.2,0,0.3-0.1,0.2-0.1c0,0,0,0,0,0C97,72.9,97.2,72.9,97.4,72.8
		c-0.4,0-0.4,0.1-0.6,0.2c-0.1,0-0.2,0.1-0.2,0.1c0,0,0,0,0,0l0.7-0.8C97.5,72.4,97.5,72.5,97.4,72.8z"/>
	<path class="st0" d="M106.5,73.4c-0.2,0-0.3,0-0.4,0.1C106.3,73.4,106.5,73.3,106.5,73.4z"/>
	<path class="st0" d="M105.5,73.4c-0.2,0.1-0.9,0.3-0.7,0.4c0.5,0,0.8-0.2,1.4-0.3c-0.4,0.2-1.1,0.6-2,0.5l0.2-0.1
		c-0.6-0.1-2.8,0.1-3,0.2C102.9,73.8,104,73.6,105.5,73.4z"/>
	<path class="st0" d="M101.8,72.8l0.7-0.7L104,72l-0.9,0.2C103.6,72.4,102.5,72.6,101.8,72.8z"/>
	<polygon class="st0" points="96,72 94.3,72.6 96.6,71.6 	"/>
	<polygon class="st0" points="96,71.4 94.5,72 95.4,71.5 	"/>
	<path class="st0" d="M92.3,28.6l0.3-0.4C92.5,28.3,92.4,28.5,92.3,28.6z"/>
	<path class="st0" d="M93,29.4l-0.6,0.5C92.7,29.6,92.9,29.4,93,29.4z"/>
	<path class="st0" d="M89.2,57.9c-1.4,0.6-3.4,1.7-1.9,0.7l1.5-0.9C88.6,58.1,88.9,58.1,89.2,57.9z"/>
	<path class="st0" d="M91.1,42.5c0.1-0.1,0.3-0.2,0.5-0.3c-0.4,0.4-0.9,0.8-1.2,1.1C90.6,43.1,90.8,42.8,91.1,42.5z"/>
	<path class="st0" d="M96.8,38.1l-1.1,0.4C96.1,38.4,96.4,38.2,96.8,38.1z"/>
	<path class="st0" d="M90.4,22.6l1.4-1.1C91.9,21.7,91.1,22.1,90.4,22.6z"/>
	<path class="st0" d="M94.2,65.6c-0.7,0.1-1,0.2-1.1,0.1C94,65.4,95.4,64.9,94.2,65.6z"/>
	<path class="st0" d="M77.5,39.6c0.2-0.3,0.5-0.5,0.8-0.7C78.1,39.1,77.9,39.4,77.5,39.6z"/>
	<path class="st0" d="M92.8,65.2c0.2-0.1,0.3-0.1,0.4-0.1c-0.2,0.2-0.4,0.5-0.2,0.6C92.3,65.9,91.8,65.9,92.8,65.2z"/>
	<path class="st0" d="M80.5,5.7c-0.1,0-0.1,0-0.2,0C80.6,5.6,80.6,5.7,80.5,5.7z"/>
	<path class="st0" d="M62.2,2.3c-0.1,0.1-0.1,0.2-0.1,0.3C62,2.6,62,2.5,62.2,2.3z"/>
	<path class="st0" d="M94.5,69.5C94.4,69.7,94.3,69.6,94.5,69.5L94.5,69.5z"/>
	<path class="st0" d="M101.1,67.5c0.2-0.1,0.4-0.2,0.8-0.4C101.4,67.3,101.2,67.4,101.1,67.5z"/>
	<path class="st0" d="M101.7,58.9C101.7,58.9,101.7,58.9,101.7,58.9C102,58.8,102,58.8,101.7,58.9z"/>
	<path class="st0" d="M95.3,69.4c-0.2,0-0.4,0.1-0.5,0.1C94.9,69.4,95,69.4,95.3,69.4z"/>
	<path class="st0" d="M94.5,69.7c0.1,0,0.1,0,0.2,0C94.4,69.8,94.3,69.9,94.5,69.7z"/>
	<path class="st0" d="M94.5,69.3c0,0.1,0.1,0.1,0.2,0.1c-0.1,0-0.2,0.1-0.3,0.1C94.5,69.5,94.5,69.4,94.5,69.3z"/>
	<path class="st0" d="M80.1,17.2c-0.1,0-0.1,0-0.2,0C80.6,16.8,80.5,17,80.1,17.2z"/>
	<path class="st0" d="M102.1,44.7C102.1,44.7,102,44.8,102.1,44.7c-0.1,0.1-0.1,0.1-0.1,0.1L102.1,44.7z"/>
	<path class="st0" d="M102.8,43.5c-1.6,1.4-1.3,1.4-0.9,1.3l-4.2,2.7L102.8,43.5z"/>
	<path class="st0" d="M91.1,26.6c-2.2,0.9,0-1.1,1-2.1c-0.7,0.3-3.3,2.4-2.8,1.5c0.5-1.2,3.4-2.1,3.6-2.8l-2.5,1.3
		c1.5-1.7-0.3-0.9-0.9-1.1c0.1-0.2,0.3-0.4,0.6-0.6c-1.3,0.3,1.7-2.4,0.8-2.1c-0.4,0.4-1.6,0.8-2.2,1.1l1.1-1.5
		c-0.5,0.6-1.8,1.5-3.1,2.4c0-0.3,0.7-0.8,0.8-1.1c-0.4,0.4-0.9,0.8-1.6,1.1l1.9-2c0.3-0.1,0.4-0.1,0.5-0.1c-0.1-0.2,0.6-1-0.7-0.5
		c-0.5,0.3-1,0.7-1.5,1.1c1.6-0.8,0.4,0.1-0.6,0.9c0-0.6-0.4,0.1-1.5,0.5c-0.1-0.3,1.6-1.6,2.8-2.2c-0.7,0-1.1,0.1,0.1-1.1l-1.8,1.2
		l0.4-0.7l-2.1,1.6c-1.6,0.2,3.2-2,1.7-2.1l-1.7,1c0.5-0.6,3.3-2.3,1.1-1.4c0.9-0.8,2.6-1,2.6-1.7c-0.9,0.4-1.7,0.5-2.1,0.6
		c0.7-0.6,2.1-1,1.9-0.7c0.3-1.3-6.1,2.7-4.3,0.7c1.4-0.4,3.2-2,3.4-1.4c0.8-0.8-2.8,0.8-1.1-0.5L83,17.2c-0.1-0.1,0.6-0.6,0.9-0.8
		l-1.7,0.9c2.7-1.9-1.8,0,2-2.2c-3,1.7,0-0.4-1.2,0.1c-2,1.4,0.5,0.9-2.3,2.4c-0.9,0.3,0.4-0.6-0.5-0.3c-0.4,0.3-1,0.9-1.6,1.2
		c-1.9,0.3,1.3-1.7,1.9-2.4L80.1,17c2.8-1.5,0.4-0.5,2.5-1.8c-1.7,0.5,0.4-0.8-0.6-0.6c0,0-0.2,0.2-0.2,0.2
		c-0.2-0.6-4.9,1.4-5.1,1.2c-0.5-0.1,0.9-1.3,2.2-1.6c0.7-0.6-0.5,1.2,3.1-0.9c-4.5,1.6,1.3-1.4-2-0.8c-1.4,1-2.5,0.9-3.6,1.7
		c0.2-0.5,0.8-0.8,2-1.5l-1.4,0.5c2.9-1.7,2.7-1.2,4-2.6c-1,0.7-2.1,0.5-3,1.1c-0.2-0.2,0.2-0.5,0.9-1L78.7,11c0.5-1-2,0.1-0.6-1.2
		l0.9-0.2c1-0.8,1-1.3,0.9-1.8C79.8,7.4,79.6,7,80,6.4l0.8,0.1c-0.5,0,1.2-0.9-0.2-0.8C80.5,5.8,80.1,6,80.2,6
		c-1,0.3-2.4,0.5-2.7,0.4L79,5.9l-1.2,0.2c-0.1-0.3,2.1-0.4,2.1-0.7c-4.3,0.8-0.9-1.2-4.7-0.7c3.1-0.8,0.6,0.5,3.3-0.3
		c-0.5,0-1.1,0.1-1.4-0.1L79,4c-1.3-0.7-2.9-0.8-2.6-1.8L76,2.3c-0.8-0.2-0.5-0.4,1.1-0.8c-0.9,0-1.3,0.3-2.1,0.3
		c2.4-0.6,1.5-0.7,0.4-0.9c-1.1-0.1-2.4-0.3-0.7-0.6c-3.8,0.4-7.5-0.3-10.5,0.3l0.4-0.3c-2.5,0.3,0,0.9-2.6,1.3c0,0,0.7,0.2,1.4,0.4
		c0.7,0.2,1.4,0.3,1.4,0.3c-1,0.1-2.3,0.4-2.7,0.3c0,0.3-0.1,0.5-1.5,0.3c3.3,0.9,3.6,1.9,3.4,3.2c-0.1,1.2-0.5,2.5,1.4,3.2
		c-0.2,0.2-1.1,0.3-1.7,0.4c2.5-0.2-1.1,0.7-1.4,1c0,0,0.9-0.1,1.8-0.2c0.9-0.1,1.8-0.2,1.8-0.2c-0.9,0.5-2,0.6-2.7,0.8
		c-0.2,0.7,0.6,1.1,1.3,1.4c0.6,0.4,1.1,0.7,0.3,1.5c1.3-0.1,2.7-1,3.2-0.8c-3.6,0.7-1.2,1.6-3.7,2.2c3.7-1,1.3,1,6.2-1.1
		c0.5,0.3-2,1.2-2.5,1.2c0.4,0.4,0.6,0.8-0.8,1.8c1.2-0.2-0.2,2.8,3.6,1.5c-2.5,0.8-1.2,0.6-2.1,1.4l-2.2,0.7l0.5,0.5
		c-0.1,0.2,0,0.2,0.2,0.1c0.2,0.1,1.2-0.6,1.8-0.6c0.3,0.4-0.8,0.9-1.7,1.7l-0.3,0.1l0,0.4c0.2,0.2,1.7-1.8,3.1-1.6
		c-0.6,0.3-3.1,2.1-1.5,1.5c-0.3-0.3,1.2-1,1.8-1.2l0.4,0.4L68,23.9c0.9,1.4,3.5,1.8,4.2,3.3c2.2-1.3,0.7,0.9,3.9-1.1l-0.3,0.1
		c0.1-0.5,2.6-1.4,2.4-1c-1.2,0.3-2.9,2.5-3.8,2.1l-1.2,1.5c-3,2-2.6,2.4-1.7,2.4c0.9,0,2.4-0.2,1.7,0.8c0.2-0.2,0.5-0.4,0.7-0.6
		c-1.5,2,2.7,0.6,1.8,1.3l1.7-1c-2.1,2.3-2.3,2.5-0.8,2.5c0.3-0.2,0.7-0.6,1.1-0.7c-1.1,1-2.2,2-1.5,2.3l0.5-0.4l0.3,0.9
		c5-3.5-2.2,3.4,3.4-0.1c-1.4,1.2-1.4,2-2,2.8c0.2-0.1,0.4-0.3,0.7-0.4c-2.5,2.2,1.4,0.2,1.3,0.8c-0.5,0.7-1.4,1.2-2.3,1.7
		c2.4-1.1-1.5,2.8-0.6,2.3c0.4,0.1,2-1.3,3.1-2c-0.2,0.8-4.5,3.2-2.1,2.3c0.2-0.2,0.2-0.5,0.6-0.6c0.6-0.1,6.5-3.8,5.6-2.8l-1,0.5
		c-1,1.3,4.7-2,1.4,0.5l-1.6,1.1c2.6-0.8-0.4,0.7,1.9,0.1l0.2-0.2c-0.1,0.5,2-0.7-0.4,1.2l-0.4,0.1c0.1,0.5,0.3,0.4,0.7,0.7
		c-0.2,0.2-0.4,0.7,0.1,0.3c-2.1,1.5-0.3,1.6-0.1,1.7c0.1-0.5,1.1-1,2-1.6c-1.6,1.4-1.6,1.7-0.2,1c-2.6,1.9-5.3,4-5.1,4.5
		c0.3-0.4,0.5-0.6,1-1c0.6-0.3,0.1,0.2-0.1,0.4c0.6-0.3,0.9-0.8,1.8-1.4c-2.2,2.1,0.2,0.7-0.3,1.8c0.7-0.7,1.3-0.9,2.2-1.5
		c-2.9,2.1,3-1.2-0.9,1.4c2.9-0.7,1.8,2.2,4.5,0.9c1.1-0.6-0.4,0.8-0.4,1l1.3-0.9c-2.1,2.1-0.6,1-2.7,3.1c1.4-1.3,2.2-1.7,3.6-2.3
		L89.9,54l2.1-1.3c-0.7,0.7-0.3,0.6,0.2,0.6c0-0.1,0.2-0.2,0.5-0.4c-2.8,2-2,2.4-3.3,3.4c2.9-1.7-0.4,0.9,2.3-0.7
		c-0.4,0.3-0.6,0.6-0.8,0.8c-1.3,0.7-2.6,1.6-2,1.3c0,0,0,0,0,0.1l1.7-1c-0.3,0.4-0.4,0.7-0.3,0.8c-0.2,0-0.5,0.2-0.9,0.4
		c0.3-0.1,0.6-0.2,0.9-0.3c0,0,0,0,0.1,0c0,0,0.1-0.1,0.1-0.1c0.4-0.2,0.7-0.2,0.2,0.3c2.8-1.1-2.7,3.3,1.1,1.7
		c-0.4,0.1-0.6,0.1-0.1-0.3c0.1,0.6,2.8-0.4,1.7,0.7l-1.6,0.9c-0.5,0.8-0.8,1.3-0.6,1.5l-1.7,1c0.9,0-1.5,2.4,2.3,0.7
		c-1.4,0.9,0.7,0.3,0.4,0.8l1.4-0.7c0.6,0.1,0.2,0.5-0.1,0.9c3.2-0.9,0.6,1.2,1.1,1.6l0.4-0.2l-0.8,1c1.2-0.7-0.8,0.5-0.4,0.5
		c-0.6,0.5-0.1,0.6,0.9,0.4l0.2,0.3c0.8-0.8,2.1-0.9,3.7-1.6l-1.2,0.8c0.8-0.2,1.2-0.7,1.7-0.7c-0.8,0.5-0.6,1-2.2,1.8
		c-0.4,0.1-0.8,0.3-1.2,0.3c0.1-0.1,0.1-0.1,0,0l-0.1,0c0,0,0,0,0.1,0c-0.2,0.1-0.4,0.2-0.6,0.3c0.5,0.1-0.2,0.3-1,0.6
		c2.7-0.7,1,0.1,4.2-0.8c-3.6,1,0.3,0.7-3.1,1.8c2.7-0.8,0.2,0.1,2.5-0.6c-0.8-0.1,1.5-1.3,2.5-2l1.7-0.3c2.9-1.3-1.4-0.2-0.4-0.8
		c-0.6,0.4,0.1,0.4,0.8,0.1l-2.3,0.8c-1.1,0,0.6-1.1,1.6-1.8c0.9,0,1.2-0.9,2.9-1.4l-0.2,0.3c0.8-0.2,1.4-0.7,2.1-1.2
		c-2,0-1.1-2-3-1.4c0.6-0.1,0.3,0.4-0.3,0.8l-1.1,0.1c0,0.3,2.1-0.4,1.6,0.3c-1.4,0.6-3.3,1.7-5.4,2.3c-2.5,0.3,3.4-2.3,2.5-2.9
		c0.4-0.3-2.2,1.3-1.7,0.5c1.1-1.2,4-3.3,7.1-4.8c-0.7,0.7-2.3,2.1,0,1.1c0.8-0.7,1.1-1.5,2.5-2.2c-2.7,1-0.5,0.9-2.8,1.6
		c0-0.2,0.7-0.7,1.1-1c-1,0.7-1.8,0.7-2.5,1c-0.3-0.6-1.6-0.4-2.2-0.9c-0.4,0.2-1.2,0.5-1.8,0.9c0.5-0.7,4-3.2,5.6-3.9
		c-0.1-0.4-1.3,0.2-0.8-0.5c2.5-0.7-0.4,0.1,1.9-1.3c0.1-0.5-1.2,0.5-1.8,0.7c0.2-0.2,0.9-0.8,1.6-1.2c-1.9,0.8-4.5,3.1-6.7,4
		c-1.4,0.6-4.1,1.4-4.3,1.4c1.9-1.3,10.1-6.1,12.9-7.4c1.4-0.8-1.7,0.5-1.9,0.5c-2.4,0.9,1.3-1.7,0.3-1.5l-1.1,1
		c-0.6,0.3-0.2-0.7,0.6-1.2c-0.8,0.5-3.8,2.7-4.8,3.1c-0.8-0.3,3.1-3.5,5.4-4.9l-1.8,2.4c1.9-1.1,1.5-1.8,3.8-3.2l-1.2-0.5
		c0,0.2-0.3,0.8-1.4,1.4c-0.1-0.4-0.5,0-1.5,0.3c-2.1,2-7.8,6.6-10.6,8.6l1-1.2l-1.2,0.6c1.2-1.4,8.3-6.6,10.1-8.1
		c-0.7,0-4.6,2.7-5.4,3.3c-0.6-0.5,5.3-4.3,4.3-4.6l1-0.3c0.3-0.4-0.9-0.4-0.1-0.8c-1.1,0.6-3.7,2.1-4.3,2.7l3.4-3.1
		c-0.3,0.3-3.6,2.4-4.1,2.8c-0.3-0.1,3.4-2.9,4-3.1c-2.6,1.1-1.3,0.4-4.2,1.9c0.1-0.3,3.4-2.3,3.8-2.4c0.7-0.9,0.1-0.8-0.3-0.7
		c-1,1.4-7,5-9.4,6.7c0,0,2.2-1.9,4.4-3.7c2.2-1.9,4.4-3.8,4.4-3.8c-0.5,0.4-3.5,2.6-3.9,2.8c2.7-2,2.3-3.4,1.5-3.7l0,0.1
		c-0.9,0.8-2,0.9-1.2,0c-0.5,0.4-0.3,0.4-0.3,0.5c-2.4,1.1,3.9-3.5,1.1-2.1c0.5,0.2-0.6,1-1.7,1.8c0.8-1-0.7-0.9,2.6-3.1
		c-0.8,0.3-0.5-0.1-2.2,1l1.4-2.1c-0.3,0.3-1.2,1-1.6,1c0.7,0.1-2.1,2.6,0.2,1.3c-2,1.5-3.2,2.1-4.8,3.5c0.4-1.4,3.6-4.3,5.6-6.4
		L96.5,39l0.9-0.7L95,39.8c0.5-0.5,0.9-0.8,0.7-0.7c-0.2,0.1-0.5,0.4-0.8,0.7c0.1-0.2,0.2-0.4,0.4-0.6c-1.2,0.9-2.5,2-3.7,3
		c0.5-0.3,1-0.5,1.4-0.8c-1.1,1-2.2,1.9-3.1,2.3c0.1-0.1,0.3-0.3,0.4-0.5c-0.8,0.7-1.5,1.3-1.9,1.5l0.8-1.3c0.4-0.2,1.1-0.6,1.9-1
		c1.3-1.4,2.9-3.1,4.6-4l-1.6,0.6c2-2.1,1.6-1.7,2.9-3.5c-0.8,0.6-1.4,1.2-2.1,1.5c2.3-2.3-3.7,1.3-1.5-0.5c0.3-0.7,1.9-1.6,2.4-2.2
		C95.5,34.7,95,35.1,95,35l1.5-1.4c-0.7,0.3-1,1.1-1.9,1.3c0.9-1.4,1.6-2.2,0.5-2c0-0.8,3.5-2.2,2.8-2.4c-1.4,0.9-3,2-3.5,1.9
		c0.8-0.8,1.9-1.6,2.3-2.3l-2.1,1.5c-0.1-0.3,0.2-0.8-1.4,0.4c0.7-0.8,0.5-0.9,0.1-0.7c0.8-1.1,4.4-2.8,5.3-3.3
		c-1.8,0.8-1.1-0.1-3.7,1.5l-0.3,0.7c-3,1.2,2.5-2.7-2.1,0.1c0.3,0.1-0.6,1.2-1.8,1.9l0.8-1.1c-0.6,0.4-0.3,0.5-1,0.8
		c0.4-0.4,1.3-1.4,2-2L92.2,30l-0.1-0.8c0.2,0.1-0.6,0.6-0.8,0.6l0.8-1.2c-0.4,0.5-1.2,0.8-1.6,0.9c-1-0.1,4.4-3.7,2-2.6
		c0.1,0-0.2,0.2-0.1,0.2l-1.1,0.5c4.4-3.2-0.3-1.5,4.1-4.6c-2,1-1.1,0.7-3,2.5l-1.5,0.6C91,26.3,91.5,26.2,91.1,26.6z M93.5,30.7
		c1-0.6,0.1,0.3-0.2,0.6C92.7,31.5,91.7,32.1,93.5,30.7z M94.1,40.9c0.7-0.3,1-0.4,0.5,0C94.1,41.2,94,41.1,94.1,40.9z M95.4,67.6
		C95.4,67.6,95.4,67.6,95.4,67.6C95,67.7,94.7,67.7,95.4,67.6z M95.8,67.7c0.2,0,0.2,0.1-0.3,0.4c0.3-0.1,0.5-0.2,0.7-0.3
		C96.6,67.4,96.3,67.5,95.8,67.7z M68.3,21.5l-0.5,0.1C68.3,21.3,68.7,21,68.3,21.5z"/>
	<path class="st0" d="M96.2,38.6c-0.3,0.2-0.6,0.4-0.9,0.6C95.5,39,95.8,38.8,96.2,38.6z"/>
	<path class="st0" d="M90.1,22.8C90.1,22.8,90.1,22.8,90.1,22.8c0.1-0.1,0.2-0.1,0.3-0.2L90.1,22.8z"/>
	<path class="st0" d="M107.3,53.3c-0.3,0-0.6,0.2-1,0.3C106.8,53.4,107.1,53.2,107.3,53.3z"/>
	<path class="st0" d="M94.1,71l0.4-0.4c0,0.2,0.4,0,0.7,0C94.7,70.7,94.1,70.9,94.1,71z"/>
	<path class="st0" d="M106.2,69.4c-0.2,0.1,0,0.1-0.2,0.2l-0.9,0.3C105.1,69.7,105.8,69.3,106.2,69.4z"/>
	<path class="st0" d="M100.2,69c1.5-0.6,1.1-0.2,0.9,0.1c0,0,0,0,0,0C99,69.9,99.6,69.4,100.2,69z"/>
	<path class="st0" d="M101,69.1c0,0.1-0.1,0.2,0,0.2C100.2,69.7,100.9,69.3,101,69.1z"/>
	<path class="st0" d="M95.5,68.6c0.4-0.1-1.9,0.9-1.3,0.7C92.4,70.2,96.3,67.8,95.5,68.6z"/>
	<polygon class="st0" points="105.3,67.2 103.4,67.9 104.8,67.2 	"/>
	<path class="st0" d="M103.2,66.1l0.6,0.1c-0.3,0.1-0.5,0.2-0.6,0.3C103.2,66.4,102.7,66.3,103.2,66.1z"/>
	<path class="st0" d="M103.3,66.6c0.1,0.1,0.1,0.2-0.2,0.4C103.1,66.9,103.1,66.8,103.3,66.6z"/>
	<polygon class="st0" points="105.6,66.6 105.2,66.6 105,66.4 	"/>
	<path class="st0" d="M101.3,62.8l0.3-0.6c0.6-0.3,1-0.4,0.8-0.2C102.1,62.3,102,62.6,101.3,62.8z"/>
	<path class="st0" d="M106.8,61.5c-0.4,0.1-0.8,0.3-1.5,0.5l2.2-1.1L106.8,61.5z"/>
	<path class="st0" d="M106.8,60.2c0.6-0.3,1.5-1.4,1.6-0.9C107.8,59.7,107.5,60.3,106.8,60.2z"/>
	<polygon class="st0" points="101.1,56.2 101.1,56.3 97.6,58.3 	"/>
	<path class="st0" d="M106.5,46.3c1.1-0.1-2,1.5-0.8,1.2c-0.7,0.6-1,0.2-1.7,0.8C104.7,47.5,104.1,47.7,106.5,46.3z"/>
	<path class="st0" d="M104,48.3c-0.1,0.1-0.2,0.3-0.4,0.5C103.7,48.6,103.9,48.4,104,48.3z"/>
	<polygon class="st0" points="59.9,1.2 59,0.9 60.4,1 	"/>
	<path class="st0" d="M62.9,0.3l-2.6,0.1L62.6,0C62.5,0.1,62.3,0.3,62.9,0.3z"/>
	<path class="st0" d="M98,28.9l-0.5,0.4c-0.6,0.4-0.7,0.3-0.8,0.3L98,28.9z"/>
	<polygon class="st0" points="94.1,26.8 94.2,26.8 92.2,28.1 	"/>
	<path class="st0" d="M94.7,22.4c0.2,0.1-0.2,0.5,0,0.5C94.9,22.5,92.3,24.1,94.7,22.4z"/>
</g>
</svg>
