<!-- Generator: Adobe Illustrator 22.1.0, SVG Export Plug-In  -->
<svg version="1.1"
	 xmlns="http://www.w3.org/2000/svg" xmlns:xlink="http://www.w3.org/1999/xlink" xmlns:a="http://ns.adobe.com/AdobeSVGViewerExtensions/3.0/"
	 x="0px" y="0px" width="149.2px" height="471.1px" viewBox="0 0 149.2 471.1"
	 style="overflow:inherit;enable-background:new 0 0 149.2 471.1;" xml:space="preserve">
<style type="text/css">
	.st0{fill:#373735;}
</style>
<defs>
</defs>
<g>
	<path class="st0" d="M76.9,0.2c-0.3-0.7-1.5,0.5-1.8,0.6C76.1,1.6,77.3-0.1,76.9,0.2z"/>
	<polygon class="st0" points="86.9,8.1 86.2,8.3 88.6,8.9 	"/>
	<path class="st0" d="M92.7,18c2-2.3-2.5-3.4-2.6-5.7l0.4-0.6l-2.5,0.4C89.7,14,92.6,16.1,92.7,18z"/>
	<path class="st0" d="M90.1,26.2c0.8-0.8,1.5,0.7-0.3-1.4c0,0.2-0.1,0.2-0.1,0.4C89.8,25.4,89.9,25.7,90.1,26.2z"/>
	<path class="st0" d="M89.6,25.2C89,24.2,89.2,26.3,89.6,25.2L89.6,25.2z"/>
	<path class="st0" d="M92.6,29.8l-1.6-1c-0.4,0.6,0,1.9-0.6,1.6C91.6,31.6,92,31,92.6,29.8z"/>
	<path class="st0" d="M95.1,30.2l-0.7-0.6C94.2,29.9,94.2,30.1,95.1,30.2z"/>
	<path class="st0" d="M92.9,28.5l1.6,1.2c0.3-0.4,1.1-0.8-0.6-0.6C94.6,28.8,93.7,28.9,92.9,28.5z"/>
	<path class="st0" d="M92.8,27.4c0.2-1.1,0-2.3,1.6-1.3C92.7,23.6,91.2,24.9,92.8,27.4z"/>
	<path class="st0" d="M95.6,17.1c0,0,0-0.4,0.1-0.7c0-0.4,0.1-0.7,0.1-0.7l-1.4-0.4C95.1,15.4,94.9,17.6,95.6,17.1z"/>
	<path class="st0" d="M95.2,39.2c0.6-0.1,1.3-1.1,2-1.5l-1.1-0.8C95.9,37.6,96,38.8,95.2,39.2z"/>
	<path class="st0" d="M97.2,37.7l1.6,1.2C98.3,37.4,97.7,37.3,97.2,37.7z"/>
	<path class="st0" d="M98.1,29.1c0,0-0.8-0.4-1.6-0.8c-0.8-0.4-1.6-0.8-1.6-0.8s0.9,0.5,1.8,1.1c0.9,0.5,1.7,1.1,1.7,1.1L98.1,29.1z
		"/>
	<polygon class="st0" points="97.6,45.3 95.9,44.9 98.5,45.7 	"/>
	<path class="st0" d="M99.3,49.3c-1.3-0.3-1.5,1.6-2.5,1.1c0.6,1,1.9,1.6,3,2.2C99.1,51.8,98.8,50.8,99.3,49.3z"/>
	<path class="st0" d="M101.6,53.6c-0.4-0.4-1-0.7-1.7-1C100.3,53,100.8,53.3,101.6,53.6z"/>
	<path class="st0" d="M99.6,41.7c-0.3,0.3-1.1,0.9-1.1,1.9l1.3-1.3C99.8,42.2,99.7,41.9,99.6,41.7z"/>
	<path class="st0" d="M99.9,42.3L99.9,42.3c0.2,0.7,0.3,1.2,0.4,1.5C100.2,43.6,100.1,43.1,99.9,42.3z"/>
	<path class="st0" d="M99.6,41.5c0,0.1,0,0.1,0.1,0.2C99.8,41.6,99.8,41.5,99.6,41.5z"/>
	<path class="st0" d="M98.6,34c1.3,0.5,3.1,2.2,3.6-0.4C100.8,33.4,100.6,34.8,98.6,34z"/>
	<path class="st0" d="M101.3,40l-0.4-1.9c-0.4,0.2-0.9,0.8-1.5,0.5L101.3,40z"/>
	<polygon class="st0" points="102.1,40.6 101.3,40 101.4,40.7 	"/>
	<path class="st0" d="M102.1,50.1c1,0.5,1.3,1.3,1.8,2.2c0-1.1-0.2-2.2-0.6-3.2C102.7,49.2,101.6,49.1,102.1,50.1z"/>
	<path class="st0" d="M101.2,46.3c0.1,0,0.1,0.1,0.2,0.1C101.5,46.2,101.5,46.1,101.2,46.3z"/>
	<path class="st0" d="M106.7,61.6c0.1-0.1,0.2-0.2,0.3-0.2c-0.1,0-0.2,0-0.3,0L106.7,61.6z"/>
	<path class="st0" d="M103.5,48.9c0-0.9-0.5-1.2-1.2-1.4c0.4,0.5,0.7,1.1,0.9,1.7C103.5,49.1,103.7,49.1,103.5,48.9z"/>
	<path class="st0" d="M103.2,55.9c0.2-0.5,0.4-1,0.5-1.6C103.2,54.9,102.7,55.9,103.2,55.9z"/>
	<path class="st0" d="M101,46.8c0,0-0.1-0.1-0.1-0.1C100.6,47.1,100.8,47,101,46.8z"/>
	<path class="st0" d="M101,46.8c0.4,0.3,0.9,0.5,1.3,0.6c-0.3-0.4-0.6-0.8-1-1.1C101.3,46.5,101.1,46.7,101,46.8z"/>
	<path class="st0" d="M118.1,61.6c-1.6,0.3-3.6-1.4-2.5-3.7c-1.7-1.4-6.3,1.2-8.7,3.5c0.7-0.1,1.3-0.3,2.7,1.2
		c0.7-0.8,0.8-4.5,2.6-3.4c1.5,2.2,0,2.1-0.4,3.5c1.6-1.5,3.6,2.3,6.3,1l-1.6-1.9C116.9,61.7,117.8,62.3,118.1,61.6z"/>
	<path class="st0" d="M106.1,58l-0.4-0.7c0,0.9-0.4,1.7-1.3,3.1c1.1,1,1.7,1.1,2.3,1l-0.8-3.6L106.1,58z"/>
	<path class="st0" d="M104.7,54.1c1.8,0,3.1,1.6,4.5-0.1c-0.8-2.1-1.9-1.1-3-2.1c1.5,3.3-1.2-0.7-1.4,2.1c-0.5-0.6-0.8-1.2-1-1.7
		c0,0.7-0.1,1.4-0.2,2c0,0,0.1-0.1,0.1-0.1l0,0l0,0c0.2-0.2,0.3-0.3,0.2-0.1c0,0,0,0,0.1,0.1C104.2,54.1,104.4,54.1,104.7,54.1
		c0,1.1-0.4,0.3-0.7,0.1c-0.1,0-0.2,0-0.3,0c0,0,0,0,0,0l2,3.1C105.7,56.5,105.4,55.7,104.7,54.1z"/>
	<path class="st0" d="M106.4,33.9c-0.1,0.2-0.2,0.2-0.3,0.3C106.3,34.4,106.5,34.4,106.4,33.9z"/>
	<path class="st0" d="M106,35.8c-0.3-0.2-1-0.1-1.2-1c0.2-0.9,0.8-0.3,1.3-0.6c-0.6-0.3-1.8-1.2-2,0.6l0.3,0.1c0,1.6-1.2,4.1-1.6,4
		C104.1,38,105,37.3,106,35.8z"/>
	<path class="st0" d="M106,44.9l1.8,2.6l0.9-2l-0.8,0.4C107.6,44.2,106.7,44.9,106,44.9z"/>
	<polygon class="st0" points="106,62.2 104.1,62.3 107.1,63.3 	"/>
	<polygon class="st0" points="107.2,65.9 105.7,66.2 106.8,66.9 	"/>
	<path class="st0" d="M121.9,291l0.2,1C122.1,291.6,122,291.3,121.9,291z"/>
	<path class="st0" d="M123.5,284.5l-0.7-0.3C123.2,284.6,123.4,284.8,123.5,284.5z"/>
	<path class="st0" d="M117.8,161.3c-1.5,1.3-3.8,2.7-2,2.6l1.7-0.4C117.2,162.6,117.4,161.9,117.8,161.3z"/>
	<path class="st0" d="M123.6,229.1c0.2-0.1,0.4-0.2,0.6-0.3c-0.6-0.4-1.1-0.8-1.5-1.1C123,228.1,123.3,228.6,123.6,229.1z"/>
	<path class="st0" d="M130.7,230.9l-1.3,1.6C129.8,232.2,130.2,231.7,130.7,230.9z"/>
	<path class="st0" d="M113.8,327.1l1.4,1.6C115.6,327,114.6,327.4,113.8,327.1z"/>
	<path class="st0" d="M115.4,104.9c-0.5,1.2-0.7,2.1-0.7,2.9C115.5,106.4,116.9,105.1,115.4,104.9z"/>
	<path class="st0" d="M104.6,284.3c0.2,0.6,0.5,0.9,0.9,1C105.3,284.7,105,284.3,104.6,284.3z"/>
	<path class="st0" d="M115.1,111c0.2-0.2,0.2-0.4,0.3-0.6c-0.4-0.8-0.7-1.6-0.7-2.6C114.1,108.9,113.7,110.1,115.1,111z"/>
	<path class="st0" d="M48.2,444.1c-0.1,0-0.2,0.1-0.4,0.1C48,444.4,48.1,444.3,48.2,444.1z"/>
	<path class="st0" d="M8.7,458.4c0.2-0.3,0.7-0.7,1.1-1.1C9.4,457.3,9.1,457.7,8.7,458.4z"/>
	<path class="st0" d="M110.1,81.2C109.8,80.4,109.9,81.1,110.1,81.2L110.1,81.2z"/>
	<path class="st0" d="M116,75.8c0.2,0.1,0.5,0.2,0.9,0.1C116.4,76,116.1,75.9,116,75.8z"/>
	<path class="st0" d="M126.6,118.4C126.6,118.4,126.6,118.4,126.6,118.4C126.9,118.2,126.8,118.2,126.6,118.4z"/>
	<path class="st0" d="M110.6,79.9c-0.1,0.3-0.2,0.7-0.3,1.1C110.4,80.8,110.5,80.4,110.6,79.9z"/>
	<path class="st0" d="M109.8,80.2c0-0.3,0-0.5,0-0.7C109.5,79.4,109.4,79.5,109.8,80.2z"/>
	<path class="st0" d="M110.4,82.3c-0.1-0.5-0.1-0.9-0.1-1.3c-0.1,0.2-0.2,0.3-0.2,0.2C110.2,81.5,110.3,81.8,110.4,82.3z"/>
	<path class="st0" d="M84.5,382c-0.1,0-0.1,0.1-0.2,0.1C84.6,383.2,84.6,382.8,84.5,382z"/>
	<path class="st0" d="M135.1,184.1c0,0-0.1-0.1-0.1-0.1c0,0,0,0.1-0.1,0.1L135.1,184.1z"/>
	<path class="st0" d="M136.3,187.2c-2.1-1.4-1.8-2.2-1.3-3.2l-5,0.8L136.3,187.2z"/>
	<path class="st0" d="M118.4,306.8l2.1-1.7c1.8,3.2,0.4,4.9,3.1,3.5c-5.2-1.7,1.7-8.5-3.5-10.2l1.5-1.1c-0.2,0.4,0.1,0.5,0,0.9
		c3.2-2.1-3.3-3-1.7-6.3c0.7-1.1,1.7-1.8,2.1-0.8c0,0-0.2-0.8-0.3-1.5c-0.2-0.8-0.3-1.5-0.3-1.5c0.3-0.8,1.2-0.4,0.9,0.4l0.5-4.3
		l0.1,0.1c-0.7-0.8-1.7-2.4-2.1-3.2c1-0.9,0.4,0.7,1.2,0.5l-0.8-2.6c1.6-0.7,2.5,1.6,1.9,3.1c5.8-1-0.9-2.2,3.2-6.3l0.2,2.3
		c3.3-0.8,2.6-2.8,5-4.9c-1.1,0.4-5.8,4.1-6.6,1.2c0.5-0.6,0.9-1.5,0.1-3.1c1.9,0.4,1.7-1.1,1.9-2.8l2.5,0.6c-0.4-2-1.7-2.1-2.6-3.3
		c0.6-2,2.6-2,4.4-2.2c1-3.2-3.5,1.7-3.3-2.2c1.5-2.5,0.7-4.6-0.3-8.1c1.2-1.7,1.5,0.6,2.3,0l-1.7-2c0.1-0.4,0.7-0.2,1-0.1
		c-0.6-1.5-2.5-0.5-2.8-2.8c-2.7-1,4.7-3.9,2-7.1c0.8-0.6,1.5,0.5,2.5,0.5c-1.5-4.1-1-3.4-3.5-6.9l2-2.4c-2.1,1.7-4.1-1.1-5.7-3.4
		c-1,0.6-1.9,1-2.3,1.4l-0.9-3.6c0.5-0.4,1.3,0.1,2.3,0.8c-0.2-0.3-0.4-0.5-0.5-0.7c1.1-1.1,2.5-0.3,3.8,0.7c-0.6,0.4-1.1,0.7-1.7,1
		c1.4,1,3,2,4.6,2c-0.3-0.3-0.5-0.7-0.5-1.2c0.4,0.3,0.7,0.5,1,0.4c0.3-0.1-0.2-0.5-0.8-1.2l2.9-0.4l-1.1-0.3l2.3-4.3
		c-2.5-3.6-6.4-6.8-7.1-12c2,1.5,3.4,0.6,5.8,0.9c-2.8,1.2,0.8,4.1-0.1,6.7c0.4-1.4,1.6-0.9,1.9-0.5c0,0-0.5-1.2-0.9-2.5
		c-0.5-1.2-1-2.5-1-2.5c2,0.3,1.6-0.9,2.6-2c-4.1,0.6-2.3-3.8-3.4-5.8c1.3,0,2.7,0.6,2.2,2.9c3.3-2.4-4.4-3.8-1.7-6.1
		c0,0.6-0.2,0.9,0.4,1.2c-1.1-1.4,0.1-4.6,1.2-3.8l0,0.6c0.8-3.8,0.8-11.7-2.6-12.4c0.4,0,4.1,0.7,4.7,1c0,0-2.8-1.9-5.5-3.7
		c-2.8-1.8-5.6-3.7-5.6-3.7c2.9,0.7,10-1.3,11.4,2c0.5-0.9,1-2,0.1-4c-0.4,0.6-4.3,1.4-4.5,0.5c3.3-2.2,1.8-1.5,4.7-4.3
		c-0.7,0.9-5.2-0.3-5-1.8c0.7,0.3,4.5,0,5,0.6l-4.4-3.8c0.8,0.9,3.8,0.3,5.1-0.5c-0.9,0.4,0.2-3.2-0.3-4.2l-1.1,1.5
		c0.7-4.2-6.2-4.2-6-8.3c0.9,0.5,5.7,1.3,6.3-0.8c-2.3-1-11-4.3-12.9-7.8l1.3-0.7l-1.5-2.7c3.5,1.6,10.8,6.4,13.7,9.1
		c1-1.6,1.6-0.4,1.4-2.8c1.2-0.8,1.9,1.3,1.9,2c0,0,0.2-1.4,0.4-2.7c0.2-1.4,0.4-2.7,0.4-2.7c-2.7,0.3-2.7-4.2-5-3.9
		c0,0,0.7,1.5,1.4,2.9c0.7,1.5,1.4,3,1.4,3c-2.7,0.2-7.6-3.4-7.2-7.2c1.1-1,4.8,0.6,5.7,0.5c-0.9-0.5-1.8-3.6-1.2-4l1.5,1.6
		c1-2.2-3.7-3.4-1.2-6.1c0.1-0.9,3.4-2.8,1.8-2.9c-3,1.6-12.5,2.2-14.8,1.4c0.2-0.3,2.7-4.7,4.2-5.8c2.3-1.6,5.8,1.9,7.8,0.5
		c-0.7,0-1.7-0.8-2-1.1c0.6-1,2.3,0.3,1.8-1.8c-2.7-0.2,0-4.1-2.4-0.8c-0.9-1.9,0.4-2.1,0.2-4.5c-1.7,0.9-6.1-1.6-7.1-3.5
		c0.7,0.1,1.6-0.5,2-0.7c0-2,0.2-3.6,0.4-5.1c0.2-1.5,0.4-3,0.2-4.9c0.6-0.4,1.2-2.3,2.5-1.7c-0.5-0.5-1.5-0.9-1.7-2
		c2.1-2.5,0.7,2.5,3.3,0.5c-1.6,0-2.5-2.7-3.7-4.3c-2.4,0.8,0,3.8,1.2,5.4c-3.3,0.4-7.2-2-9.2-5.6c-1.2-2.9,2-1.6,1.4-2.1
		c-0.3-5.8-6.5-3.9-4.9-9c1.8-2.2,4.2-0.8,5.7-1.5c1.2,2.4-0.7,4-0.3,5.7l0.7-2.2c0.8,0.7,1.6,2.3,1.1,3.3c1.7-1.9-1.2-9.8-0.4-14.5
		c-0.9-0.7-1.9-1.9-2.6-1l0.6,1.3c-1.4,1.6-2.9-2.1-3.3-0.2c-1.6-1.6-3.9-3.2-3.5-6l2.3-1c-0.7,0.2-1,2-0.2,2.6
		c-1.3-0.8,2.3-4.7-1.1-5.2l-1.2,2.2c-1.7-1.5-4.7-3.2-4.5-5.6c-2.1,1.6,0.4,0.4-1.9,2.7c3.1-2.2,1.2,5.7,4.3,2.7
		c-2.8,2.4-0.7,3.2-3,5.9c0.8-0.2,1.3-1.1,1.4,0.9c0.2,0,0.6,0.2,0.8,0.3c0,0.1,0,0.1,0,0.1c0,0,0-0.1,0.1-0.1c0.1,0.1,0.2,0.1,0,0
		c0.2-0.5,0.6-1,1-1.2c1,0.3,1.7,1.2,2.2,2.1c0.5,0.9,0.9,1.9,1.5,2.3c-0.2,1.2-1-0.3-1.7,0.5l1.7,1.3c-1.7,0.5-2.3,3.6-3.9,1.1
		c0,0,0.1,0.6,0.2,1.2c0.1,0.6,0.2,1.2,0.2,1.2c-0.7,1.6-0.8,3.6,0.1,4.7c-0.2,1.2,2.4,2.6,0.9,1.8l1.7,3.6l-0.4,0.1
		c0.3,3.7,4,7.4,1.3,12.1c0.6,1.2,1.3,2.5,1,4.7l-1.5,0.6c0.7,1.6-1.1,5,0.5,5.6c-4,2.1-0.3,8-1,10.9l2,0c0,2,0.7,3.9,1.5,6.3
		l1.8-0.2c1.6,2.1-1.1,5.6-0.9,8.9c-0.7-0.2-0.5-1.1-0.1-1.7c-2,2.1-1.2,4.2-0.3,6.3c0.9,2.1,1.9,4.1,0.4,6c0.6,0.9,0.4,1.6,0,2.2
		c0-0.1,0-0.2-0.1-0.2c0,0.1,0,0.2,0,0.4c-0.3,0.4-0.7,0.8-1,1.3c0.4-0.4,0.8-0.7,1-1.1c0,0.7,0.2,1.8,0.7,2.8l-1.9,0.4
		c0,0.1,0,0.2,0.1,0.2c-0.7,1,0.9,0.8,2.4,0.3c0.3,0.5,0.7,1,1.1,1.4c-3.1,0.8,1,2.8-2.4,3.9c1.6,0.8,1.1,5.3,4.4,6
		c-0.4,0-0.7,0.3-0.7-0.2c-0.4,1.2-0.9,2.3,0.1,3.4l-2.5,0.4l3.2,2.7c-1.6,1.5-2.5,2.1-4.3,0.5c2.7,3.9,1,3.1,3.6,6.4l-1.6-0.2
		c0,1.1,2,3.1,0.6,3.7c-1.6,1.2-1.9,4.3-2.2,8c-0.2,1.8-0.4,3.8-0.7,5.6c-0.4,1.9-0.9,3.7-1.7,5.3c4.8-0.8-2.4,2.8,1.2,3.4
		c-1.1,0.3-1.8,1.1-2.7,0c0.8,3.4-2.3,4.8,0.5,7.4c-1.1,0.3-1.5-0.9-2.2-0.6c0.2,0.3,0.8,1.2,0.1,1.4c-0.7,0.3-0.9-0.6-1.3-1.2
		c-0.2,3.4,3.2,4.1,6.3,4.7c-1.7,1.5-1.6,2.4,0.3,3.9c-1.1,0.5-2.3,1.3-2.4-0.8c-0.3,1.2-2.4,7,0.1,7.5c-0.7,0.3-0.4,1.6-0.2,2
		c-0.5,2.6-0.8,2.8-0.9,5.5l0.5-0.7c2.9,1.5,0.4,2.3,0.4,4.4l-0.3-0.1c-3,4.5,0.7,2.3-2.6,6.6l1.9,0.1c4,1.1-3.1,3.8-2.1,6.8
		l1.3-0.8c1.1,1.8-6.3,3.2-7.1,4.6c-0.4,0.3-0.5-0.6-0.7-1.1c-3.1,3.4,2.4,1,2.4,4c-1.4,0.3-3.2-1.3-3.9,0.5
		c-1.3,0.7,3.2,6.5,0.1,8.7c1.2-0.4,2.3-0.7,2.8,0.8c-0.1,2.2-5.1,4.7-2.3,7.3c-0.3,0.2-0.6,0.2-0.9,0.2c0.4,1.8,0.1,5.4,1.6,6.8
		c-3.4-0.1-3.2,2.6-3,5c0.2,2.5,0.6,4.8-2.4,4c0,0-0.2,1.2-0.5,2.4c-0.2,1.2-0.5,2.4-0.5,2.4l-0.6-0.3c-1.3,2.9-0.2,4.4,0.9,5.9
		c-0.6,0.6-1-0.1-1.3-0.2c-2.5,4.1-2.4,4.6-0.7,9.2l-2-0.2c0.4,0.7-0.8,2-2.1,3.8c-1.3,1.8-2.6,4-2.2,6.5c-0.2-0.1-0.5-0.3-0.7-0.8
		c0.3,2.8-2.1,5.2-3.7,7.4c-1.6,2.2-2.5,4.2,0.5,6.4l0.4,3.8c2.2-3.9,2.7,1.8,4.5,0.5c-0.3,1.8-3.7,3.4-3.2,1.2l0.5-0.2
		c-3.2-2.1-3.3,4.6-5.6,3.4c-1.6,4-3.7,7.7-6,11.2c-1.1,1.8-2.2,3.5-3.3,5.3c-1.1,1.7-2.2,3.4-3.1,5.2l3,0.5l-1.4,2.4
		c-0.9,0.3-2.5-0.2-1.5-1.9c-1.9,0.2-0.3,3.6,0.2,3.9c-2.9,2.9-2.3-2.9-2.9-1.9l-0.6,1.5l0.5-0.2c0.4,1.7,1.5,2.4,0.2,4.5
		c-1.2,1-2-0.2-2.3,0.3c-0.2-0.1-0.4,0-0.5,0.8c0,0-0.5,0.7-0.9,1.5c-0.5,0.7-1,1.4-1,1.4l2.7-0.1c0.2,1.9-1.8,2.8,1.3,2.7
		c-2.4,0-4.3,2.7-5.9,5.4c-1.7,2.7-3,5.4-3.9,5.7c0.3,2.8-1,4.5-2.6,6.6c0.8-0.3,3.2,0.8,1.6,2.6c-4-3.7-4.3,2.2-8.5,1.5
		c3.1,0.1-3.3,5.6,1.1,5.7c-1.5,1.3-1.7-1.1-3.6-0.7c-0.5,2.5-2.4,4.2-4.4,6c-1,0.9-2.1,1.8-3.1,2.7c-1,0.9-2,1.9-2.8,3.1
		c0.5,0.5,1.9,0.5,1.9,2.1l-4.6,0c-0.5,1.1,2.4,3.5-0.8,3.4c0.6,0.2,1.6,0.5,1.3,1.2c-2.5,1.5-4.6,3.4-6.4,5.4c-2,2-3.8,4.2-5.6,6.3
		c-3.8,4.1-8.1,8-14.4,9.2c2,0.1,1.4,0.8,0.5,1.6c0.8-0.2,1.1,1.3,1.8,2c0,0-1.3,0.3-2.6,0.5c-1.3,0.2-2.7,0.4-2.7,0.4
		c1,2.6-3.8,3.2-2.6,5.5l0.9-1.3c0.3,3.6,6.3,3.5,8.5,6.6c-0.2-2.1,1.8-2,3.8-2.3c2-0.3,4-0.9,3.9-4c1.1,0,0.3,1.4,1.2,1.8
		c-0.3-1.9,0.3-2.9,2.4-3.8l0.1,0.5c2.1-2.2,3.9-3.5,5.9-4.7c2-1.2,4.1-2.4,6.9-4.5l-1.7-1c1.2-0.9,1.9-0.7,2.7-0.8
		c-0.9-3.2-3,2.8-4.2-0.5c2,0.7,3.9-1.2,5.7-2.9c1.8-1.8,3.5-3.5,5.6-2.5c1.6-1.7-2.1-1-0.5-2.6l1.3,0.3l-0.8-1.4
		c1.2-0.9,2.8-0.5,3.6,0.1c-0.3,0.2-0.5,1-0.6,1.3c2.3-0.6,3.2-4.5,3.9-4.7l-2,1.2c1.6-2.7,3.9-5.3,5.9-8c2.1-2.7,4-5.5,4.8-8.7
		l-1-0.2c1.3-4.6,3-2.3,5.2-6.9l0.1,0.3c-0.2-1.3,0.2-2.7,1-3.8c0.2,1.6,3-0.8,3.1,1.2c1.3-5.1,0.3-2.8-0.8-7.3l1.6,0.2
		c-0.5-1.7-1.1-2.1-0.1-4.4c0,2.4,2.8-0.1,3,2.7c2.7-1.4,3.1-3.4,3.4-5.1c0.3-1.7,0.5-3,3.1-2.8c-2.3-4.1-4.2,2.7-4.3,1.1
		c-1.7,0.3-1.7-3.3-0.5-4.4c0.5-0.7,1.9-0.6,3.6-0.9c0.8-0.1,1.7-0.3,2.4-0.7c0.8-0.4,1.4-1,1.9-1.9c-0.2,0.4,0,0.5-0.2,0.9
		c1.7-0.9,0.2-3.4,2.6-4.3c-1.7-2.1,1.3-2.1-1.3-3.9l-1.2,3.7c0.3-2.3-2-5.8,1.2-8.1c0.4,0.5,0.7,1.9,0.8,2.7
		c1.3-0.5,0.4-2.1,1.7-2.6c2.7,1.7-1.4,4.5-0.5,7.6c0.9-0.2,0.9-1.4,1-2.3c0.1-0.9,0.3-1.4,1.5-0.1c-3.1-3.5,2.4-3.5,0.7-7.5l1.6,1
		c-0.1-0.5-0.5-1.8,0-2.5l1.5,2.4c-0.8-3,3.6-3.2,3.5-5.7c-1.9,4.2-2.5,0-4.6,1.1c0.1-6.2,5.9-0.8,7.7-7.1c-0.1,0.9-2.4,2.5-2.6,0.9
		c0.9-0.9,2.2-2.1,3.4-2.4c1.3-4.1-2-0.2-2.4-2.3c2.7-0.4,0-2.3,0-4.3l1.8,0.7c3-3.9-3.2-2.7-0.2-6.1l1.8,2.7l0.2-2.4l1.9,1.3
		c-0.6-2.9,0.1-3.4,1.6-5.5c-1.5,0-3.1-1.6-2.4-3.6c1.6-0.9,1.4,1.4,2.2-1.5c0.9,1.1,2,2.3-0.1,2.9c0.5,0.4,0.9,1.1,1.4,1.4
		c1.8-1,1.7-3.6,2-4.6c-0.2,0.4-0.5,0.8-0.8,1l-1-5c0.9-0.4,1.3,0.3,1.6,1c0.1-0.9-0.5-1.8-0.2-3.1c1.4,0.8,2.9,1.3,3,3.3
		c0,0,0-1.1-0.1-2.3c-0.1-1.1-0.1-2.3-0.1-2.3c0.7,0,2.5-1.4,2.8-0.7c1.6-1.9-1-6.4,1.1-8.9c-0.2-0.2-0.4-0.6-0.4-1.3
		c1.2-2.6,3.9-4.5,2.7-8.4l3.2-1.1c0.1-2.8-4.1,1.5-3.9-3c0-3.3,2.6-0.5,3.7-1.3c-0.9-1.9-3-5.3,0-7.5
		C119.1,305.3,118.5,305.9,118.4,306.8z M124.8,274.5c0.3,0.7,1.2,2.2,0,2.4C122.8,275.8,124,275.5,124.8,274.5z M127.9,224.8
		c0.6,0.5,0.2,1.2-0.6,1.9C127.2,226.2,127.3,225.5,127.9,224.8z M113.3,89.8c0,0,0.1,0,0.1,0C112.9,91.3,113.1,90.8,113.3,89.8z
		 M113.7,86.9c-0.3-0.2-0.6-0.2-0.8,0c0.5,0.1,0.7,0.7,0.6,1.5C114,88.1,114.2,87.7,113.7,86.9z M68.8,383.9l0.7-0.2
		C69.4,385.1,69.1,384.5,68.8,383.9z"/>
	<path class="st0" d="M129.8,230.7c-0.3,0.1-0.7,0.1-1.1,0.1C129.1,231.1,129.4,231.2,129.8,230.7z"/>
	<path class="st0" d="M113.5,326.8C113.5,326.8,113.5,326.8,113.5,326.8c0,0.2,0.1,0.2,0.2,0.3L113.5,326.8z"/>
	<path class="st0" d="M135,129.5c-0.2,0.6-0.6,1-0.9,1.2C134.5,130.7,134.9,130.4,135,129.5z"/>
	<path class="st0" d="M107.4,73.1l0.9,1.6c-0.3-0.8,0-1.2,0.2-1.7C108.1,73.2,107.5,73.7,107.4,73.1z"/>
	<path class="st0" d="M114.8,54.8c-0.3-0.2-0.2-0.5-0.5-0.7l-0.8,0.3C113.8,55.5,114.7,56.1,114.8,54.8z"/>
	<path class="st0" d="M113.2,70c1.5-0.5,0.8-1.5,0.1-2.7c0,0.1,0.1,0.1,0.1,0.2C111.1,67.7,112.2,68.9,113.2,70z"/>
	<path class="st0" d="M113.2,67.1c-0.2-0.4-0.3-0.7-0.3-1.1C112,66,112.8,66.4,113.2,67.1z"/>
	<path class="st0" d="M111.9,83.6c0.3-0.7-2.1,0-1.5-0.4C108.3,82.9,113.6,86.6,111.9,83.6z"/>
	<polygon class="st0" points="118.2,67.7 116.3,68.6 118.1,68.9 	"/>
	<path class="st0" d="M119,78l0.1-2.1c-0.3,0.1-0.6-0.1-0.8-0.4C118.6,76.7,118.5,78.2,119,78z"/>
	<path class="st0" d="M118.4,75.5c-0.1-0.7-0.3-1.3-0.7-1.5C117.8,74.3,118,75,118.4,75.5z"/>
	<polygon class="st0" points="119.4,70.3 119.2,71 119.4,72.5 	"/>
	<path class="st0" d="M122.4,99.9l0.9,2.2c0.7,0.1,1-0.5,0.7-1.3C123.4,100.3,123,99.5,122.4,99.9z"/>
	<path class="st0" d="M126.9,92.3c-0.3,0.7-0.8,0.8-1.4,1.2l2.5-0.3L126.9,92.3z"/>
	<path class="st0" d="M128.4,98.8c0.7,0.1,2.4,3,1.9,0.2C129.6,98.9,128.7,96.7,128.4,98.8z"/>
	<polygon class="st0" points="128.4,133.3 128.3,132.8 124.2,133 	"/>
	<path class="st0" d="M138.5,163.6c1-2.7-2.5-0.7-1.3-3.1c-1-0.6-1,2-1.8,1.3C136.4,163.5,135.8,164.3,138.5,163.6z"/>
	<path class="st0" d="M135.4,161.8c-0.2-0.3-0.3-0.5-0.6-0.8C135.1,161.5,135.3,161.7,135.4,161.8z"/>
	<polygon class="st0" points="2.5,460.5 0.7,460.8 2.4,461.3 	"/>
	<path class="st0" d="M1.9,464.9L0,463l0.6,2.5C0.9,465.2,1.3,464.6,1.9,464.9z"/>
	<path class="st0" d="M130.9,270.7l-0.6-0.3c-0.7,0.1-0.8,0.5-1.1,1.3L130.9,270.7z"/>
	<polygon class="st0" points="123.9,293.8 124,293.4 121.6,293.6 	"/>
	<path class="st0" d="M121.6,314.1c0.3-0.8,0.1-1.8,0.4-2.6C121.9,313.3,118.7,313.5,121.6,314.1z"/>
</g>
<g>
	<path class="st0" d="M58.9,130.5c-0.2,0.1,1.3,0.8,1.5,1C60.3,131.1,58.5,130.3,58.9,130.5z"/>
	<polygon class="st0" points="56.9,126.1 57.5,126.4 56.2,125.3 	"/>
	<path class="st0" d="M58.2,123.6c-2.7-1.1-0.1,1.1-1.2,1.1l-0.6-0.2l1.9,1.2C58.3,125,57.3,123.6,58.2,123.6z"/>
	<path class="st0" d="M64.4,125c-1-0.4-0.7-0.7-0.5,0.2c0.1,0,0.2,0,0.3,0.1C64.3,125.2,64.3,125.1,64.4,125z"/>
	<path class="st0" d="M64.2,125.2C64.2,125.5,65.2,125.5,64.2,125.2L64.2,125.2z"/>
	<path class="st0" d="M64.3,123.7l0.7,0.8c0.6,0.2,0.9,0,1.3,0.3C66,124.2,65.4,124,64.3,123.7z"/>
	<path class="st0" d="M62.6,122.4l0.3,0.4C63.1,122.9,63.2,122.9,62.6,122.4z"/>
	<path class="st0" d="M63.5,123.6l-0.6-0.8c-0.4-0.2-1.3-0.6,0.2,0.3C62.3,122.7,63,123.2,63.5,123.6z"/>
	<path class="st0" d="M63,123.6c-0.7-0.1-1.1,0-1.8-0.8C61.2,123.7,63,124.5,63,123.6z"/>
	<path class="st0" d="M55.7,122.1l-0.9-0.1l0.7,0.7C55.2,122.3,56.5,122.5,55.7,122.1z"/>
	<path class="st0" d="M66.7,122.1c-0.5-0.3-1.5-0.6-2.2-0.9l0.5,0.6C65.4,121.8,65.9,121.7,66.7,122.1z"/>
	<path class="st0" d="M64.5,121.2l-0.7-0.8C63.4,120.7,63.9,120.9,64.5,121.2z"/>
	<polygon class="st0" points="59.8,121 61.4,122.6 59.8,120.8 	"/>
	<polygon class="st0" points="67.5,120.6 68.7,121.5 66.9,120.1 	"/>
	<path class="st0" d="M67.8,119.5c1,0.7,1.9,0.6,2.5,1.1c-0.1-0.4-0.8-1-1.6-1.6C69,119.4,68.8,119.6,67.8,119.5z"/>
	<path class="st0" d="M67.6,118.1c0.2,0.2,0.6,0.6,1,0.9C68.5,118.8,68.2,118.5,67.6,118.1z"/>
	<path class="st0" d="M64.3,119.8c0.3,0.1,1.2,0.5,1.7,0.4l-1.6-0.6C64.4,119.7,64.4,119.8,64.3,119.8z"/>
	<path class="st0" d="M64.4,119.7L64.4,119.7c0.2-0.1,0.3-0.2,0.3-0.3C64.6,119.4,64.5,119.5,64.4,119.7z"/>
	<path class="st0" d="M64.3,119.9C64.3,119.8,64.3,119.8,64.3,119.9C64.2,119.8,64.1,119.7,64.3,119.9z"/>
	<path class="st0" d="M61.7,120.6c-0.7-0.7-1.4-1.6-3-1.8C59.7,119.5,60.5,119.6,61.7,120.6z"/>
	<path class="st0" d="M62.3,119.1l-0.6,0.2c0.4,0.2,1,0.4,1.4,0.7L62.3,119.1z"/>
	<polygon class="st0" points="61.9,118.7 62.3,119.1 62.5,119 	"/>
	<path class="st0" d="M65.9,118.1c-0.6-0.5-0.5-0.7-0.5-1c-0.4,0.1-0.7,0.3-0.8,0.5C65,117.9,65.8,118.4,65.9,118.1z"/>
	<path class="st0" d="M65,118.8L65,118.8C64.8,118.7,64.7,118.7,65,118.8z"/>
	<path class="st0" d="M66.3,114.9c-0.1,0-0.2-0.1-0.3-0.1L66.3,114.9L66.3,114.9z"/>
	<path class="st0" d="M64.2,117.5c-0.4,0-0.1,0.3,0.4,0.7c-0.1-0.2-0.1-0.4-0.1-0.6C64.3,117.5,64.1,117.4,64.2,117.5z"/>
	<path class="st0" d="M67.2,117.1c-0.4-0.1-0.7-0.1-1-0.1C66.8,117.2,67.6,117.3,67.2,117.1z"/>
	<path class="st0" d="M65.4,118.9C65.4,118.9,65.4,118.9,65.4,118.9C65.8,119,65.6,118.9,65.4,118.9z"/>
	<path class="st0" d="M65.4,118.9c-0.2-0.2-0.5-0.5-0.8-0.7c0.1,0.2,0.2,0.3,0.4,0.5C65,118.7,65.2,118.8,65.4,118.9z"/>
	<path class="st0" d="M56.7,109.7c1.4,0.7,2.5,1.8,0.8,1.5c0.9,0.9,5.7,2.8,8.6,3.7c-0.6-0.3-1.2-0.6-1.9-1.4
		c-0.9-0.2-2.3,0.1-3.4-0.9c-0.5-0.9,0.7-0.2,1.6-0.1c-1.9-0.6-2.3-1.9-5-3l0.7,0.9C57.7,110.2,57.1,109.7,56.7,109.7z"/>
	<path class="st0" d="M65.5,115.5l0.1,0.3c0.3-0.1,1,0,2.2,0.3c-0.6-0.6-1.1-0.9-1.5-1.2l-0.6,0.8L65.5,115.5z"/>
	<path class="st0" d="M65.3,116.6c-1.5-0.9-2-1.6-3.8-2.1c-0.1,0.5,1.1,1,1.7,1.6c0-1,0.8,0.6,1.9,0.5c0.2,0.3,0.2,0.5,0.2,0.6
		c0.3-0.1,0.6-0.1,0.9-0.1c0,0-0.1,0-0.1,0l0,0c0,0,0,0,0,0c-0.2-0.1-0.3-0.1-0.2-0.1c0,0,0,0,0,0C65.7,116.8,65.5,116.7,65.3,116.6
		c0.4-0.1,0.4,0.2,0.6,0.3c0.1,0,0.1,0.1,0.2,0.1l0,0l-0.5-1.2C65.3,115.9,65.3,116.1,65.3,116.6z"/>
	<path class="st0" d="M55.6,116.8c0.1,0,0.3,0.1,0.4,0.1C55.8,116.8,55.6,116.8,55.6,116.8z"/>
	<path class="st0" d="M56.7,117c0.2,0.2,0.8,0.5,0.5,0.6c-0.5-0.1-0.7-0.4-1.3-0.6c0.4,0.3,0.9,0.9,1.8,0.9l-0.2-0.2
		c0.7-0.1,2.8,0.5,3,0.6C59.2,117.8,58.1,117.4,56.7,117z"/>
	<path class="st0" d="M60.6,116.6l-0.4-1l-1.5-0.3l0.8,0.4C58.9,115.8,60,116.2,60.6,116.6z"/>
	<polygon class="st0" points="67.2,115.2 68.8,116 66.6,114.6 	"/>
	<polygon class="st0" points="67.4,114.2 68.8,114.9 68,114.3 	"/>
	<path class="st0" d="M66.7,57.8l-0.4-0.3C66.4,57.6,66.5,57.7,66.7,57.8z"/>
	<path class="st0" d="M66.2,59.2l0.7,0.2C66.6,59.2,66.3,59.1,66.2,59.2z"/>
	<path class="st0" d="M76.3,92.1c1.5,0.2,3.8,0.7,2.1,0.1l-1.7-0.5C76.9,92,76.7,92.1,76.3,92.1z"/>
	<path class="st0" d="M71.6,73.6c-0.2,0-0.4,0-0.5-0.1c0.5,0.2,1.1,0.5,1.5,0.7C72.3,74.1,72,73.8,71.6,73.6z"/>
	<path class="st0" d="M64.8,71.3l1.2,0C65.6,71.2,65.2,71.2,64.8,71.3z"/>
	<path class="st0" d="M66.8,49.5l-1.7-0.6C65.1,49.2,66,49.2,66.8,49.5z"/>
	<path class="st0" d="M70.8,104.9c0.7,0,1.1-0.1,1.2-0.2C70.9,104.6,69.5,104.2,70.8,104.9z"/>
	<path class="st0" d="M84.3,63c-0.3-0.2-0.6-0.4-1-0.4C83.6,62.8,83.9,62.9,84.3,63z"/>
	<path class="st0" d="M72.3,103.9c-0.2,0-0.3,0-0.4,0c0.2,0.3,0.3,0.6,0.1,0.8C72.8,104.7,73.3,104.6,72.3,103.9z"/>
	<path class="st0" d="M73.5,20.8c0.1,0,0.1,0,0.2,0C73.5,20.7,73.4,20.8,73.5,20.8z"/>
	<path class="st0" d="M91.9,14c0.1,0.1,0.1,0.2,0.1,0.4C92.1,14.4,92.1,14.2,91.9,14z"/>
	<path class="st0" d="M69.7,111C69.7,111.2,69.8,111.1,69.7,111L69.7,111z"/>
	<path class="st0" d="M63,109.1c-0.2-0.1-0.4-0.2-0.7-0.4C62.6,108.9,62.8,109,63,109.1z"/>
	<path class="st0" d="M63.1,97.9C63.1,97.9,63.1,97.9,63.1,97.9C62.7,97.9,62.8,97.9,63.1,97.9z"/>
	<path class="st0" d="M68.8,110.9c0.2,0,0.4,0,0.6,0C69.2,110.9,69.1,110.9,68.8,110.9z"/>
	<path class="st0" d="M69.6,111.2c-0.1,0-0.2,0.1-0.2,0.1C69.6,111.5,69.8,111.5,69.6,111.2z"/>
	<path class="st0" d="M69.7,110.7c0,0.1-0.1,0.2-0.3,0.2c0.1,0,0.2,0,0.3,0.1C69.7,110.9,69.7,110.8,69.7,110.7z"/>
	<path class="st0" d="M75.6,37.2c0.1,0,0.1,0,0.2,0C75.1,36.9,75.2,37,75.6,37.2z"/>
	<path class="st0" d="M61.1,81.2C61.1,81.2,61.1,81.2,61.1,81.2c0.1,0,0.1,0,0.1,0L61.1,81.2z"/>
	<path class="st0" d="M60.1,80.1c1.9,1,1.6,1.1,1.1,1.1l4.8,1.4L60.1,80.1z"/>
	<path class="st0" d="M67.1,54.2l-1.6,0.1c-2.3-1.2-1.4-1.4-3.6-1.5c5.3,1.4,0.1,1.9,5.3,3.3l-1.2,0c0.1-0.1-0.2-0.2-0.2-0.2
		c-2.7,0,3.7,1.4,2.7,2c-0.5,0.2-1.3,0.2-1.9-0.2l1.1,0.9c-0.1,0.1-1-0.1-0.9-0.3l0.2,1l-0.2,0c0.8,0.4,2,1,2.5,1.3
		c-0.8,0-0.5-0.3-1.2-0.4l1.1,0.9c-1.4-0.2-2.6-0.9-2.3-1.2c-5.4-0.9,1.2,0.8-2.1,1l-0.5-0.7c-3.1-0.5-2.1,0.2-4.1,0.2
		c1,0.1,5,0.2,6.1,1.1c-0.4,0-0.7,0.2,0.3,0.8c-1.9-0.5-1.5-0.1-1.5,0.3l-2.5-0.7c0.6,0.6,1.9,0.9,2.9,1.5c-0.4,0.4-2.3-0.1-3.9-0.4
		c-0.6,0.6,3.2,0.4,3.4,1.3c-1.1,0.3-0.2,1,1.1,2.1c-1,0.2-1.5-0.5-2.2-0.6l1.9,0.9c-0.1,0.1-0.7-0.1-1-0.2c0.7,0.5,2.4,0.7,3,1.4
		c2.7,0.9-4.2-0.2-1.4,1.3c-0.7-0.1-1.5-0.5-2.4-0.8c1.8,1.4,1.2,1.1,3.7,2.6L66,71.2c2,0.1,4,1.4,5.6,2.4c0.9,0.1,1.7,0.2,2.1,0.3
		l1.1,1.2c-0.4,0-1.2-0.4-2.2-0.8c0.2,0.1,0.4,0.2,0.5,0.3c-1,0-2.4-0.6-3.7-1.2c0.5,0.1,1.1,0.1,1.6,0.2c-1.4-0.7-3-1.3-4.5-1.7
		c0.3,0.1,0.5,0.3,0.6,0.5c-0.4-0.2-0.7-0.3-1-0.4c-0.3-0.1,0.3,0.2,0.8,0.5l-2.8-0.7l1.1,0.4l-2,0.4c2.5,1.6,6.4,3.5,7.1,5
		c-1.9-0.9-3.2-1.1-5.6-1.9c2.6,0.5-0.8-1.2-0.1-1.6c-0.4,0.2-1.5-0.2-1.8-0.4l2,1.8c-1.9-0.6-1.5-0.3-2.4-0.2
		c3.9,1,2.3,1.6,3.3,2.4c-1.3-0.4-2.6-0.9-2.1-1.3c-3.1-0.4,4.2,2.2,1.6,1.9c0-0.1,0.2-0.1-0.4-0.4c1,0.7-0.1,1.1-1.2,0.5l0-0.1
		c-0.7,0.7-0.9,2.5,2.3,3.7c-0.4-0.1-3.8-1.4-4.5-1.7l10.3,5.2c-2.7-1.1-9.4-2.9-10.8-4.1c-0.5,0.1-1,0.1-0.2,0.9
		c0.4,0,4.1,1.1,4.3,1.3c-3.3-0.6-1.8-0.2-4.6-0.6c0.7,0,4.9,1.8,4.6,2c-0.6-0.3-4.3-1.5-4.7-1.8l3.9,2.3c-0.7-0.5-3.6-1.3-4.8-1.6
		c0.9,0.2-0.3,0.6,0,1l1.1,0c-1,0.6,5.6,3,5.1,3.9c-0.8-0.4-5.3-2.2-6-2c2.1,1,10.1,4.8,11.4,6.2l-1.3-0.3l1.2,1.1
		c-3.1-1.6-9.5-5.3-12-6.8c-1.1,0-1.5-0.5-1.6,0.1c-1.2-0.3-1.7-0.9-1.7-1.1l-1.2,0.8c2.5,0.9,2.2,1.8,4.3,2.6l-2.1-2.2
		c2.5,0.9,6.9,3.4,6.1,4.1c-1.1-0.2-4.4-1.9-5.3-2.2c0.8,0.4,1.3,1.4,0.7,1.2l-1.2-0.9c-1.1,0.1,3,2,0.4,1.6c-0.2,0.1-3.4-0.7-2-0.1
		c3,0.8,11.8,4.2,13.9,5.3c-0.2,0-3.1-0.1-4.6-0.4c-2.4-0.6-5.1-2.6-7.2-3.1c0.7,0.3,1.5,0.8,1.7,1c-0.7,0-2.1-0.9-1.9-0.4
		c2.5,1.1-0.6,0.8,2.1,1.1c0.6,0.7-0.7,0.2-0.8,0.8c1.7,0.5,5.4,2.7,5.9,3.4c-0.6-0.3-1.5-0.5-1.9-0.6c-0.6,0.8-1.9,0.8-2.3,1.5
		c-0.6-0.2-1.5-0.1-2.6-0.7c0.4,0.3,1.2,0.8,1.2,1c-2.4-0.4-0.1-0.7-2.9-1.4c1.4,0.6,1.8,1.5,2.5,2.2c2.3,0.8,0.8-0.6,0-1.4
		c3.1,1.3,6.1,3.3,7.2,4.7c0.5,1-2.1-0.6-1.7-0.3c-1.1,1,5,3.4,2.3,3.5c-2.2-0.4-3.9-1.7-5.4-2.2c-0.5-0.9,1.6-0.3,1.7-0.7l-1.1,0.1
		c-0.6-0.5-0.9-1-0.3-1c-1.9-0.4-1.2,2-3.3,2.2c0.6,0.5,1.1,1.1,2,1.3l-0.1-0.4c1.7,0.4,1.9,1.5,2.9,1.5c0.9,0.9,2.5,2.1,1.3,2.3
		l-2.3-0.9c0.7,0.3,1.5,0.2,0.9-0.2c0.9,0.7-3.4-0.5-0.6,1.1l1.7,0.3c0.9,0.9,3.1,2.5,2.1,2.7c2.3,0.8-0.2-0.2,2.6,0.6
		c-3.4-1.1,0.7-1.3-2.9-2.3c3.2,1,1.6-0.1,4.4,0.6c-0.7-0.3-1.5-0.5-0.9-0.7c-0.2-0.1-0.5-0.3-0.6-0.4c0,0,0,0,0.1,0l-0.1,0
		c-0.1-0.1-0.1-0.1,0,0c-0.4,0-0.8-0.1-1.2-0.3c-1.6-1-1.2-1.6-2-2.3c0.5-0.1,0.8,0.5,1.7,0.7l-1.2-0.9c1.7,0.7,3,0.5,3.7,1.5
		l0.3-0.5c1.1,0.1,1.6-0.2,1-0.8c0.5-0.1-1.5-1.5-0.3-0.7l-0.7-1.3l0.4,0.2c0.6-0.8-2-2.9,1.4-2.7c-0.3-0.5-0.7-1,0-1.3l1.5,0.5
		c-0.3-0.6,1.9-0.5,0.5-1.3c4,1.2,1.6-1.5,2.5-1.9l-1.9-0.8c0.3-0.4-0.1-1.1-0.6-1.9l-1.7-0.6c-1.2-1,1.7-0.8,1.8-1.6
		c0.6,0.3,0.4,0.4-0.1,0.4c4.2,0.5-2-3,1-2.8c-0.5-0.4-0.3-0.5,0.2-0.5c0,0,0,0,0.1,0.1c0,0,0,0,0.1-0.1c0.3,0,0.7,0,1,0
		c-0.4-0.1-0.8-0.1-1-0.1c0-0.2-0.1-0.5-0.4-0.9l1.8,0.6c0,0,0,0,0-0.1c0.8,0-0.8-0.5-2.2-0.9c-0.3-0.2-0.6-0.5-1-0.7
		c3,0.9-0.8-1,2.5-0.1c-1.5-0.7-0.7-1.6-3.9-2.9c0.4,0.1,0.6,0.1,0.6,0.3c0.5-0.1,0.9-0.3,0.1-0.8l2.4,0.7l-2.9-1.7
		c1.5,0.1,2.4,0.3,4.1,1.3c-2.4-1.8-0.8-1.1-3.3-2.7l1.5,0.6c0-0.3-1.8-1.4-0.5-1.1c3,0.4,1.4-2.7,4.5-3.3c-4.5-1.2,2.2-0.1-1.2-1.2
		c1.1,0.3,1.7,0.2,2.6,0.8c-0.8-1.1,2-0.6-0.7-2.1c1.1,0.2,1.5,0.7,2.1,0.8c-0.2-0.1-0.8-0.5-0.2-0.4c0.7,0.1,0.8,0.4,1.3,0.7
		c0.1-0.9-3.1-1.9-6.2-3c1.6,0.1,1.4-0.2-0.5-1.1c1,0.2,2.2,0.3,2.4,0.9c0.2-0.2,2-1.2-0.5-2c0.6,0.1,0.3-0.3,0-0.5
		c0.3-0.6,0.6-0.6,0.5-1.2l-0.5,0c-2.9-1.1-0.5-0.7-0.7-1.3l0.3,0.1c2.5-0.5-0.9-0.8,1.9-1.2l-1.9-0.5c-3.9-1.2,2.6-0.3,1.3-1.4
		l-1.1-0.1c-1.3-0.7,5.7,0.6,6.3,0.3c0.4,0,0.5,0.3,0.7,0.5c2.6-0.3-2.4-0.8-2.8-1.6c1.3,0.2,3.3,1.1,3.7,0.7
		c1.1,0.1-3.8-2.5-1.2-2.5c-1-0.1-2.1-0.3-2.8-0.8c-0.2-0.6,4.2-0.3,1.1-1.6c0.3,0,0.6,0.1,0.8,0.1c-0.7-0.6-1-1.6-2.7-2.3
		c6.5,1.3-2.5-3.1,3.4-1.6l0-1.2l0.6,0.2c0.6-0.6-0.8-1.3-2.2-1.9c0.4-0.1,1,0.2,1.3,0.3c1.5-0.8,1.2-1-1.5-2.6l2,0.4
		c-1.1-0.5,3.4-0.9,1.4-2.5c0.2,0.1,0.6,0.2,0.8,0.3c-2-1.7,6-1.7-0.9-3.7l-1.6-1.2c-0.8,0.9-3-0.8-4.3-0.6c-0.3-0.5,2.3-0.6,2.6,0
		l-0.4,0c3.6,1,1.6-1,4.1-0.5c0.2-2.1,2.7-3.6,3.2-5.5l-2.9-0.3l0.3-0.6c0.7-0.1,2.3,0.2,2.1,0.6c1.7,0-1.2-1.1-1.8-1.2
		c1.3-0.7,3.3,1,3.4,0.7L90,38.9l-0.4,0c-1.1-0.5-2.4-0.8-2.1-1.3c0.6-0.3,1.8,0.1,1.9,0c0.2,0,0.3,0,0.1-0.2l0.4-0.8l-2.3-0.1
		c-1.1-0.6,0.3-0.8-2.4-0.8c4.1,0.1,2-2.9,3.2-3c-1.6-0.8-1.5-1.3-1.2-1.9c-0.5,0.1-3.1-0.2-2.7-0.7c5.3,1,2.5-0.6,6.3-0.5
		c-2.6,0-0.4-1.7-4.1-1.6c0.5-0.4,2,0.3,3.3,0.1c-1.9-1.4,1.7-2.2,1.2-3.7c-0.7-0.1-1.8,0-2.8-0.5l3.6-0.3c-0.3-0.3-4-0.8-1.5-1
		c-0.6,0-1.5,0-1.7-0.2c1.9-1.1,1.4-2.6,1.2-4c-0.2-1.4,0-2.8,3.4-3.8c-1.4,0.2-1.5,0-1.5-0.3c-0.3,0.2-1.7-0.2-2.7-0.2l2.8-0.9
		c-2.6-0.5-0.1-1.2-2.6-1.6l0.4,0.4c-2.9-0.8-6.7,0-10.5-0.4c3.3,0.9-5.1,0.9-0.4,2.2c-0.8,0.1-1.2-0.3-2.1-0.3
		c1.6,0.4,1.9,0.7,1.1,1.1l-0.4-0.1c0.3,1.4-1.4,1.8-2.6,3.2l1.9,0.1c-0.3,0.3-0.9,0.3-1.4,0.4c2.8,0.7,0.3-0.9,3.4-0.2
		c-3.9,0-0.4,2.3-4.7,2c-0.1,0.5,2.2,0.1,2.1,0.6l-1.2,0l1.5,0.3c-0.3,0.3-1.8,0.3-2.8,0.1c0.1-0.1-0.3-0.3-0.3-0.4
		C72,21,73.8,22,73.3,22.1l0.8-0.4c0.9,1.5-0.8,2.9,1.3,4.6l0.9,0c1.5,1.2-1.1,0.7-0.5,1.9l-0.2-0.1c0.8,0.4,1.2,0.7,1.1,1
		c-1-0.4-2.1,0.2-3.2-0.3c1.6,1.4,1.3,0.7,4.5,2l-1.5-0.1c1.3,0.5,2,0.6,2.3,1.2c-1.2-0.7-2.3,0-3.9-0.8c-3.4,0.6,2.9,2.2-1.8,2
		c4,1.2,2.4-0.6,3.2-0.2c1.4,0,2.9,1,2.5,1.2c-0.2,0.4-5.3-0.3-5.4,0.7c0-0.1-0.3-0.1-0.2-0.2c-1.1,0.2,1.3,0.9-0.5,1
		c2.4,0.7-0.2,0.5,2.9,1.2l-0.6-1c0.7,0.6,4.3,1.7,2.4,2.2c-0.6-0.2-1.4-0.6-1.8-0.8c-1,0.1,0.5,0.6-0.5,0.6
		c-3.1-0.6-0.5-1.2-2.8-2.1c-1.4,0,2.1,1.4-1.2,0.5c4.2,1.2-0.7,0.8,2.5,2l-1.9-0.4c0.3,0.2,1.1,0.5,1,0.7l-2.4-0.8
		c2,0.9-2,0.6-1,1.3c0.1-1,2.3,0.2,3.7,0.1c2.2,1.7-5-0.2-4.4,1.3c-0.2-0.2,1.3-0.5,2.1,0c-0.4,0.2-1.2,0.4-2.2,0.4
		c0.2,1,1.9,0.2,3,0.9c-2.3-0.1,0.8,0.6,1.5,1.2l-1.9-0.4c-1.4,0.8,3.9,1.1,2.2,1.7l-2.5-0.9l0.6,0.6l-2.1-0.6
		c1.5,0.9,1,0.9,0.3,1.3c1.4,0.2,3.4,0.8,3.4,1.3c-1.2,0.1-1.8-0.6-1.6,0.2c-1.1-0.4-2.6-0.9-0.8-0.8c-0.6-0.2-1.2-0.4-1.8-0.6
		c-1.4,0.1-0.5,0.8-0.5,1c0.1-0.1,0.2-0.2,0.5-0.2l2.4,1.5c-0.7,0-1.3-0.3-1.8-0.5c0.2,0.2,1,0.6,1.1,0.9c-1.5-0.4-3.1-0.7-3.7-1.3
		l1.5,1.3c-0.7-0.1-1.9,0-2.5-0.2c-1,0.3,2.7,1.9,1.3,2.3c0.3,0.1,0.6,0.2,0.7,0.4c-0.5,0.5-2.5,0.6-0.6,1.9l-2.8-0.2
		c0.5,0.7,3.6,0.3,4.4,1.5c0.7,0.9-2.4-0.3-3.2-0.3c1.3,0.7,3.9,1.9,1.6,2C66.8,54.5,67.2,54.4,67.1,54.2z M66.5,61.5
		c-0.4-0.2-1.5-0.8-0.4-0.6C68.2,61.6,67.1,61.5,66.5,61.5z M67.7,73.6c-0.6-0.3-0.2-0.4,0.5-0.3C68.4,73.4,68.3,73.6,67.7,73.6z
		 M69.1,108.3C69.1,108.3,69.1,108.2,69.1,108.3C69.9,108.2,69.5,108.2,69.1,108.3z M68.1,108.6c0.2,0.2,0.5,0.3,0.7,0.4
		c-0.4-0.2-0.4-0.4-0.2-0.5C68.1,108.3,67.8,108.2,68.1,108.6z M88.8,37.4l-0.5,0C87.7,37.1,88.2,37.3,88.8,37.4z"/>
	<path class="st0" d="M65.6,71.6c0.3,0.1,0.7,0.2,1,0.3C66.3,71.7,66,71.6,65.6,71.6z"/>
	<path class="st0" d="M67.2,49.6C67.2,49.6,67.2,49.6,67.2,49.6c-0.1-0.1-0.2-0.1-0.3-0.1L67.2,49.6z"/>
	<path class="st0" d="M57,92.6c0.3,0,0.7,0,1,0.1C57.6,92.6,57.2,92.5,57,92.6z"/>
	<path class="st0" d="M69.6,113.3l-0.3-0.6c0,0.2-0.4,0.1-0.7,0.1C69,112.9,69.6,113.1,69.6,113.3z"/>
	<path class="st0" d="M57.1,111.8c0.2,0.2,0,0.1,0.2,0.3l0.8,0.4C58.2,112.2,57.6,111.7,57.1,111.8z"/>
	<path class="st0" d="M63.6,111c-1.5-0.6-1.1-0.2-1,0.2c0,0,0,0,0,0C64.7,112.2,64.1,111.6,63.6,111z"/>
	<path class="st0" d="M62.6,111.3c0,0.1,0,0.2-0.1,0.3C63.4,112,62.8,111.6,62.6,111.3z"/>
	<path class="st0" d="M68.7,109.8c-0.4,0,1.9,0.9,1.2,0.7C71.8,111.5,68.1,108.6,68.7,109.8z"/>
	<polygon class="st0" points="58.6,109 60.5,109.8 59.1,108.9 	"/>
	<path class="st0" d="M60.9,107.5l-0.7,0.2c0.3,0.1,0.5,0.3,0.6,0.4C61,107.8,61.5,107.7,60.9,107.5z"/>
	<path class="st0" d="M60.8,108.1c-0.1,0.1-0.1,0.3,0.1,0.5C60.9,108.5,60.9,108.3,60.8,108.1z"/>
	<polygon class="st0" points="58.3,108.2 58.7,108.2 59,108 	"/>
	<path class="st0" d="M63.3,102.8l-0.3-0.7c-0.6-0.3-1.1-0.3-0.9-0.1C62.5,102.3,62.7,102.6,63.3,102.8z"/>
	<path class="st0" d="M57.7,102.1c0.4,0,0.9,0.2,1.5,0.4l-2.3-1L57.7,102.1z"/>
	<path class="st0" d="M57.7,100.5c-0.6-0.3-1.5-1.5-1.6-0.8C56.7,100,57,100.7,57.7,100.5z"/>
	<polygon class="st0" points="63.6,94.4 63.6,94.5 67.4,96 	"/>
	<path class="st0" d="M56.9,84.5c-1.1,0.2,2.3,1,1,1.1c0.9,0.5,1.1-0.1,1.8,0.3C58.9,85.3,59.5,85.3,56.9,84.5z"/>
	<path class="st0" d="M59.7,86c0.1,0.1,0.3,0.2,0.5,0.4C60,86.2,59.9,86.1,59.7,86z"/>
	<polygon class="st0" points="94.2,12.7 95.1,12.4 93.7,12.5 	"/>
	<path class="st0" d="M91.3,11.7l2.6,0.1l-2.3-0.5C91.7,11.4,91.9,11.6,91.3,11.7z"/>
	<path class="st0" d="M61.1,61.2l0.6,0.2c0.7,0.1,0.7,0.1,0.9-0.1L61.1,61.2z"/>
	<polygon class="st0" points="64.4,56.6 64.3,56.7 66.6,57.1 	"/>
	<path class="st0" d="M62.5,51.7c-0.1,0.2,0.3,0.5,0.2,0.6C62.4,51.8,65.4,52.3,62.5,51.7z"/>
</g>
<g>
	<path class="st0" d="M147.4,68.9c-0.1,0.2,1.5-0.4,1.8-0.5C148.8,68.3,147,69.1,147.4,68.9z"/>
	<polygon class="st0" points="143.1,68.3 143.8,68.1 142.1,68.4 	"/>
	<path class="st0" d="M142.5,66.5c-2.6,1.2,0.7,0.5-0.2,1.2l-0.6,0.3l2.2-0.7C143.5,67,141.8,67,142.5,66.5z"/>
	<path class="st0" d="M147.8,63.2c-1,0.5-1,0.1-0.2,0.4c0.1-0.1,0.2-0.1,0.2-0.1C147.8,63.4,147.8,63.4,147.8,63.2z"/>
	<path class="st0" d="M147.9,63.5C148,63.6,148.7,63,147.9,63.5L147.9,63.5z"/>
	<path class="st0" d="M146.9,62.8l1-0.1c0.6-0.3,0.6-0.6,1.1-0.7C148.4,61.9,147.8,62.2,146.9,62.8z"/>
	<path class="st0" d="M144.9,63.3l0.4,0C145.6,63.2,145.6,63.1,144.9,63.3z"/>
	<path class="st0" d="M146.2,63.2l-0.9,0.1c-0.4,0.2-1.3,0.6,0.3,0C144.9,63.6,145.6,63.4,146.2,63.2z"/>
	<path class="st0" d="M145.9,63.6c-0.5,0.4-0.8,0.7-1.8,0.8C144.6,64.7,146.5,63.9,145.9,63.6z"/>
	<path class="st0" d="M139.7,67.5l-0.7,0.5l1-0.2C139.5,67.8,140.5,67.1,139.7,67.5z"/>
	<path class="st0" d="M147.6,60.6c-0.6,0.2-1.5,0.7-2.2,1l0.7-0.1C146.5,61.3,146.8,61,147.6,60.6z"/>
	<path class="st0" d="M145.4,61.6l-1.1,0.1C144.3,62.1,144.8,61.9,145.4,61.6z"/>
	<polygon class="st0" points="141.9,64.5 144.1,64.1 141.8,64.4 	"/>
	<polygon class="st0" points="147.2,59.5 148.6,59.1 146.5,59.7 	"/>
	<path class="st0" d="M146.7,58.9c1.1-0.3,1.7-0.9,2.5-1.1c-0.3-0.1-1.3,0.1-2.2,0.3C147.5,58.1,147.5,58.3,146.7,58.9z"/>
	<path class="st0" d="M145.7,58.4c0.3,0,0.8-0.1,1.3-0.3C146.7,58.1,146.3,58.2,145.7,58.4z"/>
	<path class="st0" d="M144.4,61.2c0.3-0.2,1.2-0.6,1.5-0.9l-1.5,0.8C144.4,61.1,144.4,61.1,144.4,61.2z"/>
	<path class="st0" d="M144.4,61.1L144.4,61.1c0-0.2,0-0.3,0-0.3C144.4,60.8,144.4,60.9,144.4,61.1z"/>
	<path class="st0" d="M144.4,61.2C144.4,61.2,144.4,61.2,144.4,61.2C144.3,61.2,144.2,61.3,144.4,61.2z"/>
	<path class="st0" d="M143,63.2c-1,0.2-2,0.3-3.3,1.1C140.9,64,141.6,63.5,143,63.2z"/>
	<path class="st0" d="M142.5,62.2l-0.2,0.4c0.4-0.2,1-0.5,1.5-0.6L142.5,62.2z"/>
	<polygon class="st0" points="142,62.2 142.5,62.2 142.6,62 	"/>
	<path class="st0" d="M144.4,59.5c-0.7,0.2-0.9,0.1-1-0.1c-0.2,0.3-0.3,0.5-0.2,0.7C143.7,60,144.6,59.7,144.4,59.5z"/>
	<path class="st0" d="M144.3,60.3l-0.1,0C144,60.4,144,60.4,144.3,60.3z"/>
	<path class="st0" d="M142.7,57.9c-0.1,0-0.2,0.1-0.3,0.2L142.7,57.9L142.7,57.9z"/>
	<path class="st0" d="M142.9,60.3c-0.2,0.3,0.2,0.2,0.7,0c-0.2,0-0.3-0.1-0.4-0.2C142.9,60.2,142.8,60.3,142.9,60.3z"/>
	<path class="st0" d="M144.8,58.2c-0.3,0.2-0.5,0.4-0.8,0.6C144.5,58.6,145.2,58.1,144.8,58.2z"/>
	<path class="st0" d="M144.6,60.1C144.6,60.1,144.6,60.1,144.6,60.1C145,59.9,144.8,60,144.6,60.1z"/>
	<path class="st0" d="M144.6,60.1c-0.3,0-0.7,0.1-1,0.2c0.2,0,0.4,0,0.6,0C144.3,60.3,144.4,60.2,144.6,60.1z"/>
	<path class="st0" d="M132.5,61.9c1.5-0.6,2.9-0.9,1.5,0.1c1.2-0.2,5.9-2.5,8.4-3.9c-0.6,0.3-1.2,0.5-2.2,0.6
		c-0.7,0.5-1.6,1.5-3,1.8c-0.9,0,0.4-0.5,1.1-1.1c-1.7,1-2.8,0.7-5.4,2l1.1-0.1C133.6,61.5,132.8,61.7,132.5,61.9z"/>
	<path class="st0" d="M142.5,58.7l0.2,0c0.2-0.2,0.7-0.6,1.8-1.3c-0.8,0.1-1.4,0.3-1.8,0.5l0.1,0.7L142.5,58.7z"/>
	<path class="st0" d="M143,59.2c-1.6,0.6-2.4,0.6-4.1,1.5c0.3,0.3,1.4-0.3,2.2-0.4c-0.6-0.4,1-0.2,1.7-1c0.3,0,0.4,0.1,0.6,0.1
		c0.1-0.2,0.3-0.4,0.6-0.6c0,0-0.1,0-0.1,0.1l0,0c0,0,0,0,0,0c-0.2,0.1-0.3,0.2-0.2,0.1c0,0,0,0,0,0C143.4,59.1,143.2,59.2,143,59.2
		c0.3-0.3,0.4-0.2,0.6-0.2c0.1,0,0.2-0.1,0.2-0.1c0,0,0,0,0,0l-1.1-0.2C142.6,58.9,142.7,59.1,143,59.2z"/>
	<path class="st0" d="M136.2,65.4c0.1-0.1,0.2-0.1,0.4-0.2C136.4,65.3,136.3,65.3,136.2,65.4z"/>
	<path class="st0" d="M137.1,64.8c0.2-0.1,0.9-0.3,0.8-0.1c-0.4,0.3-0.8,0.3-1.3,0.5c0.5-0.1,1.3-0.2,1.9-0.8l-0.2,0.1
		c0.5-0.4,2.3-1.6,2.6-1.6C139.5,63.6,138.5,64.1,137.1,64.8z"/>
	<path class="st0" d="M139.7,62.2l-1-0.1l-1.3,0.8l0.8-0.4C138,62.9,139,62.4,139.7,62.2z"/>
	<polygon class="st0" points="143.5,57.5 145.2,56.8 142.7,57.6 	"/>
	<polygon class="st0" points="143,57 144.5,56.3 143.5,56.6 	"/>
	<path class="st0" d="M108,36.2l-0.4,0.2C107.7,36.3,107.9,36.2,108,36.2z"/>
	<path class="st0" d="M108.5,37l0.6-0.4C108.8,36.8,108.5,37,108.5,37z"/>
	<path class="st0" d="M135.3,42.3c1.2-0.9,3-2.3,1.5-1.4l-1.5,0.9C135.7,41.9,135.6,42.1,135.3,42.3z"/>
	<path class="st0" d="M120.8,38.4c-0.1,0.1-0.3,0.2-0.4,0.3c0.5-0.3,1-0.6,1.5-0.8C121.5,38.1,121.1,38.3,120.8,38.4z"/>
	<path class="st0" d="M114.7,42.3l0.8-0.8C115.2,41.7,114.9,42,114.7,42.3z"/>
	<path class="st0" d="M103.3,33.2l-1.5,1C102,34.3,102.6,33.7,103.3,33.2z"/>
	<path class="st0" d="M139.5,51c0.5-0.5,0.7-0.7,0.7-0.9C139.4,50.8,138.2,51.6,139.5,51z"/>
	<path class="st0" d="M123,25.4c-0.3,0.1-0.6,0.3-0.9,0.5C122.3,25.8,122.6,25.7,123,25.4z"/>
	<path class="st0" d="M139.9,49.6c-0.1,0.1-0.2,0.2-0.3,0.3c0.3,0,0.6,0,0.6,0.2C140.8,49.6,141.1,49.3,139.9,49.6z"/>
	<path class="st0" d="M94.9,21.8c0-0.1,0-0.1,0-0.2C94.9,21.8,94.9,21.8,94.9,21.8z"/>
	<path class="st0" d="M84.9,10.2c0-0.3,0.3-0.8,0.5-1.2C85.2,9.1,85,9.5,84.9,10.2z"/>
	<path class="st0" d="M142.6,54.2C142.7,54.3,142.7,54.1,142.6,54.2L142.6,54.2z"/>
	<path class="st0" d="M136.6,57.7c-0.2,0.1-0.4,0.1-0.8,0.3C136.2,57.8,136.5,57.8,136.6,57.7z"/>
	<path class="st0" d="M129.7,53.3L129.7,53.3C129.4,53.5,129.5,53.5,129.7,53.3z"/>
	<path class="st0" d="M141.9,54.7c0.2-0.1,0.3-0.3,0.4-0.4C142.2,54.4,142.1,54.5,141.9,54.7z"/>
	<path class="st0" d="M142.7,54.3c0,0.1-0.1,0.1-0.1,0.2C142.8,54.4,143,54.3,142.7,54.3z"/>
	<path class="st0" d="M142.4,54c0.1,0.1,0,0.2-0.1,0.3c0.1-0.1,0.2-0.1,0.2-0.1C142.5,54.2,142.5,54.1,142.4,54z"/>
	<path class="st0" d="M102,22.4c0,0,0.1-0.1,0.1-0.1C101.5,22.6,101.6,22.6,102,22.4z"/>
	<path class="st0" d="M118,48.4C118,48.4,118.1,48.4,118,48.4c0.1,0,0.1-0.1,0.1-0.1L118,48.4z"/>
	<path class="st0" d="M116.7,48.7c1.9-1,1.8-0.7,1.5-0.4l4.2-2.7L116.7,48.7z"/>
	<path class="st0" d="M106.2,34.6l-1,1.2c-2.3,1.3-1.7,0.5-3.3,2.1c4.3-3.3,1.2,0.6,5.5-2.7l-0.8,0.9c0-0.1-0.3,0.1-0.2,0
		c-1.8,1.9,3.3-2.1,3-1.3c-0.2,0.4-0.8,1-1.4,1.3l1.3-0.5c0,0.2-0.8,0.7-0.8,0.5l0.7,0.2l-0.1,0.1c0.7-0.4,1.9-1.1,2.4-1.3
		c-0.5,0.6-0.5,0.3-1,0.7l1.3-0.5c-1,1-2.3,1.5-2.3,1.2c-4.2,3.5,1.3-0.6-0.9,1.9l-0.7,0.1c-2.4,2-1.3,1.5-2.7,3
		c0.8-0.7,3.5-3.4,4.8-3.9c-0.3,0.3-0.3,0.6,0.7,0.1c-1.6,1.1-1.1,1-0.8,1.2l-2.1,1.5c0.8-0.2,1.8-1,2.8-1.5c0,0.4-1.6,1.6-2.9,2.6
		c-0.1,0.6,2.4-2.1,3.1-1.9c-0.6,0.9,0.4,0.5,2,0c-0.6,0.7-1.3,0.9-1.9,1.4l1.8-1c0,0.1-0.5,0.4-0.8,0.6c0.8-0.3,2.1-1.4,2.9-1.6
		c2.4-1.5-3,2.9-0.1,1.4c-0.5,0.5-1.3,0.8-2.1,1.4c2.1-0.7,1.5-0.5,4.1-1.7l-1.2,1.3c1.4-1.3,3.5-2.3,5.3-3c0.7-0.6,1.3-1.1,1.6-1.4
		l1.4-0.3c-0.3,0.3-1.1,0.7-2,1.2c0.2-0.1,0.4-0.2,0.6-0.3c-0.7,0.7-2,1.4-3.2,2.1c0.4-0.3,0.8-0.7,1.2-1c-1.4,0.7-2.9,1.6-4.1,2.5
		c0.3-0.1,0.5-0.2,0.7-0.2c-0.4,0.2-0.7,0.4-0.9,0.6c-0.2,0.2,0.3-0.1,0.9-0.4l-2.3,1.7l1-0.6l-1.1,1.5c2.7-1.2,6.4-3.1,7.9-3.1
		c-1.9,1-2.9,1.8-5,3.1c2.1-1.6-1.3,0.1-1-0.5c-0.1,0.3-1.1,0.9-1.5,1.1l2.4-0.7c-1.7,1.1-1.2,0.9-1.8,1.6c3.3-2.3,2.5-1,3.7-1.4
		c-1.1,0.7-2.3,1.4-2.2,0.9c-2.3,1.9,4.3-2.1,2.3-0.4c-0.1-0.1,0.1-0.2-0.5,0.1c1.1-0.5,0.6,0.5-0.5,1l-0.1-0.1
		c-0.1,0.7,0.9,1.5,3.8-0.2c-0.4,0.2-3.5,2.1-4.1,2.4c0,0,2.6-1.3,5.2-2.5c2.6-1.3,5.2-2.5,5.2-2.5c-2.6,1.4-8.3,5.3-10,5.8
		c-0.3,0.3-0.6,0.7,0.4,0.4c0.3-0.3,3.5-2.4,3.8-2.4c-2.6,2-1.4,1.1-3.5,2.9c0.5-0.4,4.5-2.6,4.5-2.4c-0.6,0.3-3.9,2.3-4.3,2.5
		l4.2-1.8c-0.8,0.3-3.3,1.9-4.3,2.7c0.7-0.5,0.2,0.4,0.6,0.3l0.8-0.7c-0.3,0.9,5.8-2.6,5.9-2c-0.8,0.4-5.1,2.7-5.4,3.2
		c2.1-1,10-4.9,11.8-5.3l-1.1,0.7l1.5-0.3c-3.2,1.4-9.9,4.3-12.6,5.4c-0.8,0.7-1.3,0.8-1,1.1c-1,0.7-1.7,0.8-1.8,0.7l-0.3,1.1
		c2.3-1.3,2.6-0.8,4.6-1.9l-2.9,0.6c2.3-1.4,6.9-3.3,6.8-2.5c-0.9,0.6-4.2,2.2-5,2.7c0.8-0.4,1.8-0.4,1.3,0l-1.4,0.5
		c-0.7,0.8,3.4-1.3,1.3,0.3c-0.1,0.2-2.9,2-1.4,1.3c2.6-1.6,10.9-6.2,13-7.2c-0.2,0.1-2.2,2-3.5,2.9c-2,1.3-5.2,2.4-7,3.5
		c0.7-0.3,1.5-0.7,1.8-0.8c-0.5,0.4-2,1-1.6,1.1c2.4-1.2,0.1,0.6,2.1-1c0.8-0.1-0.3,0.5-0.1,0.8c1.5-0.9,5.5-2.5,6.3-2.6
		c-0.6,0.3-1.4,0.8-1.7,1c0.1,0.7-0.9,1.5-0.6,2.1c-0.6,0.3-1.2,1-2.3,1.4c0.5-0.1,1.3-0.5,1.5-0.4c-2,1.4-0.5-0.2-2.9,1.3
		c1.4-0.7,2.2-0.6,3.2-0.8c2.2-1.2,0.2-0.7-0.8-0.5c3-1.5,6.4-2.7,8.1-2.8c1,0.1-1.9,1.2-1.4,1c-0.1,1.1,5.6-1.9,3.8-0.1
		c-1.8,1.2-3.9,1.9-5.2,2.6c-0.9,0,1-1.1,0.8-1.4l-0.8,0.7c-0.7,0.2-1.3,0.2-0.8-0.2c-1.6,1.1,0.3,1.6-1,3c0.7-0.2,1.5-0.3,2.2-0.8
		l-0.4-0.1c1.5-0.9,2.4-0.6,3-1.2c1.2-0.2,3.1-0.7,2.4,0.1l-2.2,1.1c0.6-0.3,1.2-0.9,0.5-0.7c1.1-0.3-2.7,2,0.3,0.8l1.4-1
		c1.3-0.2,3.8-1,3.2-0.3c2.1-1.2-0.3,0,2.2-1.4c-3.1,1.7-0.3-1-3.5,0.9c2.9-1.6,1.1-1,3.4-2.6c-0.7,0.4-1.3,0.8-1.1,0.3
		c-0.2,0.1-0.5,0.2-0.7,0.2c0,0,0,0,0,0l-0.1,0.1c-0.1,0-0.1,0,0,0c-0.3,0.2-0.6,0.5-1,0.7c-1.8,0.6-1.9,0.1-2.9,0.4
		c0.3-0.3,0.9-0.3,1.6-0.8l-1.4,0.4c1.6-0.8,2.5-1.8,3.6-1.8l-0.1-0.4c0.8-0.7,1-1.1,0.2-1c0.3-0.4-2,0.4-0.7,0l-1.3-0.1l0.4-0.2
		c-0.1-0.7-3.3,0.1-0.7-2c-0.5,0-1.1,0.1-0.8-0.5l1.4-0.8c-0.6,0,1-1.5-0.5-0.8c3.6-2.2,0.2-1.6,0.6-2.4l-1.8,0.9
		c-0.1-0.4-0.7-0.4-1.6-0.4l-1.6,0.9c-1.5,0.4,0.7-1.4,0.2-1.8c0.6-0.3,0.5-0.1,0.2,0.2c3.2-2.6-3.3,0.2-1-1.8
		c-0.6,0.2-0.5,0-0.2-0.3c0,0,0,0,0.1,0c0,0,0,0,0-0.1c0.2-0.2,0.5-0.5,0.7-0.7c-0.3,0.3-0.6,0.5-0.7,0.6c-0.1-0.1-0.4-0.1-0.9-0.1
		l1.6-1c0,0,0,0-0.1,0c0.5-0.5-0.9,0.3-2.1,1.1c-0.3,0.1-0.7,0.2-1.1,0.4c2.6-1.7-1.1,0.1,1.6-1.7c-1.5,0.7-1.5-0.2-4.5,1.5
		c0.4-0.2,0.5-0.4,0.6-0.3c0.2-0.4,0.5-0.7-0.4-0.4l2.1-1.3l-3,1.3c1.1-1,1.8-1.5,3.6-2.3c-2.8,1-1.2,0.1-3.9,1.2l1.4-0.8
		c-0.2-0.1-2.1,0.7-1.1-0.1c2.3-1.9-0.7-2,1-4.4c-3.8,2.7,1.5-1.6-1.6,0.4c0.9-0.7,1.3-1.1,2.2-1.5c-1.2,0.1,1-1.7-1.8-0.3
		c0.9-0.7,1.4-0.8,1.9-1.2c-0.2,0.1-0.9,0.4-0.4,0c0.5-0.4,0.8-0.4,1.3-0.6c-0.5-0.4-3.3,1.4-6,3.2c1.1-1.1,0.8-1.1-1-0.1
		c0.8-0.7,1.6-1.4,2.1-1.3c0-0.3,0.6-1.9-1.5-0.4c0.5-0.4,0-0.3-0.3-0.2c-0.1-0.4,0-0.6-0.4-0.8l-0.3,0.3c-2.6,1.6-0.8,0.1-1.3,0
		l0.3-0.2c1.4-1.9-1.1,0.3,0.6-1.8l-1.5,1.1c-3.4,2.3,1.6-2,0-1.4l-0.8,0.8c-1.3,0.6,4.2-3.8,4.4-4.3c0.3-0.3,0.5-0.3,0.8-0.4
		c1.6-2-2.1,1.4-2.9,1.3c1-0.9,2.9-1.9,2.9-2.3c0.8-0.8-4.1,1.8-2.3-0.1c-0.8,0.7-1.6,1.4-2.3,1.7c-0.5-0.1,2.6-3.1-0.2-1.4
		c0.2-0.2,0.4-0.4,0.6-0.5c-0.8,0.3-1.7,0.2-3.2,1.1c5.1-4.2-3.6,0.7,1.3-3.1l-0.8-0.5l0.5-0.4c0-0.7-1.3,0.1-2.5,0.9
		c0.2-0.4,0.8-0.6,1-0.8c0.5-1.4,0.2-1.3-2.6,0.2l1.5-1.3c-1,0.6,1.7-2.8-0.6-2c0.2-0.1,0.5-0.4,0.7-0.5c-2.3,0.8,2.9-5.1-2.8-0.7
		l-1.7,0.7c0,0.9-2.4,2-3.2,3c-0.5,0.1,1.2-2,1.7-1.9l-0.2,0.3c2.9-2.4,0.4-1.5,2.4-3.2c-1-1-0.5-3.4-1.3-4.5l-2,2.1l-0.2-0.5
		c0.4-0.6,1.6-1.7,1.7-1.4c1.1-1.3-1.4,0.5-1.9,1c0.4-1.3,2.7-2.1,2.6-2.3l-0.4-0.1l-0.2,0.3c-1,0.7-2,1.5-2.1,1.1
		c0.2-0.6,1.2-1.3,1.2-1.5c0.1-0.1,0.2-0.2,0-0.2l-0.2-0.6l-1.5,1.8c-1,0.6-0.3-0.5-2,1.5c2.6-3.1-0.4-2.5,0.3-3.6
		c-1.5,0.9-1.7,0.6-1.8,0.2c-0.3,0.4-2.1,2.3-2.1,1.8c1-0.9,1.6-1.5,1.9-1.9c0.2-0.5,0.3-0.8,0.3-1.1c-0.1-0.6-0.3-1.1,0.6-2.8
		c-0.6,1.2-1.1,1-1.6,1c-0.5,0-1.1,0.2-1.8,1.9c-0.2-0.6,1.1-1.7,1.4-3c-1.1,0.5-1.5-0.1-1.9-0.8c-0.4-0.8-0.9-1.7-1.8-1.6
		c-0.2,0.7-0.3,1.8-1,2.7c0,0,0.1-0.9,0.2-1.8c0.1-0.9,0.1-1.8,0.1-1.8c-0.4,0.2-1.3,3.9-1.2,1.4c-0.1,0.6-0.2,1.5-0.4,1.7
		c-0.5-1-1.2-1.4-2-1.4c-0.8-0.1-1.6,0.2-2.5,0.4C93,5.8,92.1,6,90.7,6.1c-0.3,0-0.7,0.1-1.1,0.1c-0.2,0-0.4,0-0.6,0.1
		c-0.2,0-0.5,0.1-0.7,0.1c-0.5,0.1-1.1,0.2-1.7,0.4c-0.6,0.2-1.3,0.4-2,0.8c1-0.2,1.3,0,1.4,0.3c0.1,0.3-0.2,0.6-0.4,1.1
		c0.6-0.4,1.4,1,2.3,1.4c0,0-0.2,0.1-0.6,0.2c-0.4,0.1-0.8,0.3-1.3,0.6c-0.9,0.6-1.7,1.4-1.7,1.4c1.2,0.6,1.2,1.3,1.3,2
		c0,0.4,0.1,0.8,0.3,1.1c0.1,0.1,0.2,0.2,0.4,0.3c0.2,0,0.4,0,0.7-0.1c0,0,0,0-0.1,0c0,0-0.1-0.1-0.2-0.2c-0.1-0.2-0.3-0.4-0.3-0.4
		c1.6,0.3,3.1-0.5,4.9-0.8c0.9-0.2,1.8-0.2,2.7-0.2c0.1,0,0.3,0,0.2,0l0,0l0,0c0,0,0,0,0,0c-0.1,0-0.2,0-0.3,0c-0.1,0-0.2,0-0.2-0.1
		c-0.1,0,0,0,0.2,0.2c0.1,0.1-0.1-0.1,0,0c0.1,0.1,0.1,0.2,0.2,0.2c0,0.1,0.1,0.1,0.1,0.2c0.1,0.1,0.1,0.2,0.2,0.3l0-0.1
		c0.3,0.7,0.5,1.4,0.7,2.2c0.1,0.8,0.2,1.7,0.2,2.8l0-1.1c0,0.3,0,0.9,0,1.3c0.2-2.9-0.1-0.2,0-3.3c0.1,1.9,0.1,1.9,0.2,2
		c0.1,0.1,0.2,0.3-0.2,2.4c0.1,0,0.4-2.2,0.5-2.1l-0.2,1.2l0.4-1.5c0,0.3-0.3,1.7-0.6,2.7c0-0.1-0.1,0.3-0.1,0.3
		c-0.3,1.4,0.2-0.4,0.1,0c0,0,0-0.2,0.1-0.4c0-0.2,0.1-0.4,0.1-0.4c0.3-0.5,0.4-0.3,0.5-0.4c0.1,0,0.2-0.2,0.9-1.2l0.5-0.8
		c1.1-1.2-0.4,0.9,0,0.3l-0.1,0.1c0.1-0.1,0.2-0.2,0.3-0.3c0.1-0.1,0.2-0.2,0.3-0.3l0,0l0,0l0,0l0,0l0,0l-0.1-0.1l0,0l0,0l0.1,0
		c0,0,0.1,0,0.1,0c0.1,0,0.1,0,0.1,0.1c-0.9,0.6-1.2,1.7-2.2,2.3c1.8-0.7,1.3-0.7,4-2.6l-1,1.1c1.1-0.8,1.6-1.3,2.1-1.3
		c-1.1,0.7-1.5,1.7-2.9,2.7c-1.8,2.8,3.2-1.4,0,2.1c3.2-2.6,1.2-2.1,1.9-2.5c0.8-1.1,2.4-1.9,2.3-1.4c0.1,0.2-3.5,4-3,4.4
		c0-0.1-0.3,0.2-0.3,0.1c-0.6,0.9,1.3-0.7,0.3,0.7c1.9-1.6,0.1,0.4,2.5-1.8l-0.9,0.1c0.8-0.3,3.7-2.7,2.8-1
		c-0.5,0.4-1.2,0.9-1.6,1.1c-0.6,0.7,0.7-0.2,0.1,0.6c-2.4,2.1-1,0-2.9,1.4c-0.9,1,2.1-1.1-0.5,1.1c3.3-2.8,0,0.8,2.7-1.2l-1.4,1.3
		c0.3-0.2,1-0.7,1.1-0.5l-2,1.5c1.8-1.2-0.9,1.7,0.1,1.1c-0.5-0.4,1.6-1.6,2.4-2.8c2.4-1.1-3.4,3.6-2.1,3.7
		c-0.3,0.1,0.6-1.1,1.3-1.5c-0.2,0.4-0.6,1-1.3,1.8c0.7,0.2,1.4-1.4,2.4-1.9c-1.6,1.7,0.9-0.4,1.6-0.7l-1.5,1.3
		c-0.5,1.3,3.2-2.5,2.4-1l-2.2,1.5l0.7-0.2l-1.7,1.4c1.5-0.8,1.2-0.4,1,0.2c1-0.9,2.7-2.2,2.9-2c-0.7,0.9-1.5,1.1-1,1.3
		c-1,0.7-2.2,1.6-1,0.3c-0.5,0.4-1,0.7-1.5,1.1c-0.9,1,0.1,0.6,0.3,0.7c0-0.1,0-0.2,0.2-0.4l2.5-1.2c-0.5,0.5-1,0.9-1.5,1.2
		c0.2,0,1-0.5,1.2-0.5c-1.2,1-2.5,2-3.2,2.3l1.7-0.7c-0.5,0.5-1.2,1.4-1.7,1.7c-0.5,0.8,2.9-1.3,2.2-0.2c0.3-0.2,0.5-0.3,0.7-0.4
		c0,0.5-1.3,2,0.7,1.1l-2,2c0.7-0.1,2.5-2.5,3.8-2.7c1-0.2-1.8,1.6-2.3,2.2c1.2-0.7,3.8-2.2,2.2-0.4C106.2,35,106.4,34.6,106.2,34.6
		z M110,37.7c-0.4,0.2-1.5,0.8-0.6,0C111.3,36.5,110.5,37.2,110,37.7z M118.1,41.1c-0.6,0.3-0.4,0,0.2-0.5
		C118.4,40.6,118.4,40.7,118.1,41.1z M140.5,53.4C140.4,53.5,140.4,53.5,140.5,53.4C141,52.9,140.7,53.1,140.5,53.4z M139.9,54.2
		c0.3-0.1,0.5-0.2,0.7-0.3c-0.5,0.2-0.5,0.1-0.5-0.1C139.8,54.1,139.5,54.3,139.9,54.2z M110.4,12.4l-0.3,0.4
		C109.6,13,110,12.7,110.4,12.4z"/>
	<path class="st0" d="M115.4,41.9c0.3-0.2,0.6-0.4,0.9-0.6C116,41.4,115.7,41.6,115.4,41.9z"/>
	<path class="st0" d="M103.6,33C103.6,33,103.6,33,103.6,33c-0.1,0-0.2,0.1-0.3,0.2L103.6,33z"/>
	<path class="st0" d="M122.1,55.3c0.2-0.2,0.5-0.4,0.8-0.6C122.5,54.9,122.2,55.1,122.1,55.3z"/>
	<path class="st0" d="M144,55.2l-0.6-0.1c0.2,0.1-0.2,0.3-0.5,0.5C143.4,55.4,143.9,55.1,144,55.2z"/>
	<path class="st0" d="M134.2,62.5c0.2-0.1,0.1,0.1,0.3,0l0.8-0.4C135.1,62,134.4,62.1,134.2,62.5z"/>
	<path class="st0" d="M138.3,58.1c-1.5,0.7-0.9,0.6-0.5,0.7c0,0,0,0,0,0C139.8,57.9,139.1,58,138.3,58.1z"/>
	<path class="st0" d="M137.8,58.8c0.1,0,0.2,0.1,0.1,0.2C138.8,58.6,138.1,58.8,137.8,58.8z"/>
	<path class="st0" d="M141.2,54.3c-0.3,0.3,1.9-0.8,1.3-0.5C144.4,53.1,139.9,54.3,141.2,54.3z"/>
	<polygon class="st0" points="133.5,60.5 135.3,59.6 133.8,60.1 	"/>
	<path class="st0" d="M134.1,58.4l-0.4,0.5c0.3-0.1,0.5-0.2,0.7-0.2C134.4,58.5,134.7,58.1,134.1,58.4z"/>
	<path class="st0" d="M134.4,58.7c0,0.1,0.1,0.2,0.4,0.1C134.8,58.8,134.7,58.7,134.4,58.7z"/>
	<polygon class="st0" points="132.7,60.3 133.1,60 133.1,59.8 	"/>
	<path class="st0" d="M132.9,55l-0.7-0.1c-0.6,0.3-1,0.5-0.7,0.5C132.1,55.4,132.4,55.4,132.9,55z"/>
	<path class="st0" d="M128.5,58.4c0.3-0.3,0.7-0.5,1.3-0.8l-2.2,1.1L128.5,58.4z"/>
	<path class="st0" d="M127.5,57.7c-0.6,0.3-2,0.4-1.7,0.8C126.5,58.2,127.2,58.3,127.5,57.7z"/>
	<polygon class="st0" points="127.9,51.6 128,51.7 131.6,49.8 	"/>
	<path class="st0" d="M117.2,52.4c-0.7,0.8,2.2-1.2,1.3-0.3c0.9-0.4,0.7-0.7,1.5-1.1C119,51.4,119.4,51,117.2,52.4z"/>
	<path class="st0" d="M120,51.1c0.2,0,0.3-0.1,0.6-0.2C120.3,50.9,120.2,51,120,51.1z"/>
	<path class="st0" d="M81.9,14.8c0,0-0.2,0.4-0.3,0.8c-0.2,0.4-0.3,0.9-0.3,0.9c0,0,1.2-1.3,1.2-1.2c0,0-0.1-0.1-0.3-0.2
		C82,15,81.9,14.8,81.9,14.8z"/>
	<path class="st0" d="M85.2,16.3l-2.5,0.6l2.3-0.4C84.8,16.5,84.6,16.4,85.2,16.3z"/>
	<path class="st0" d="M106.2,41.3l0.5-0.4c0.5-0.4,0.5-0.5,0.5-0.7L106.2,41.3z"/>
	<polygon class="st0" points="105.8,37.5 105.8,37.5 107.6,36 	"/>
	<path class="st0" d="M101.7,37.1c0,0.2,0.5-0.1,0.5,0.1C101.7,37.2,104,35.2,101.7,37.1z"/>
</g>
</svg>
