<!-- Generator: Adobe Illustrator 22.0.1, SVG Export Plug-In  -->
<svg version="1.1"
	 xmlns="http://www.w3.org/2000/svg" xmlns:xlink="http://www.w3.org/1999/xlink" xmlns:a="http://ns.adobe.com/AdobeSVGViewerExtensions/3.0/"
	 x="0px" y="0px" width="173.6px" height="174px" viewBox="0 0 173.6 174" style="enable-background:new 0 0 173.6 174;"
	 xml:space="preserve">
<style type="text/css">
	.st0{fill:#C79E24;}
	.st1{fill:#FFD324;}
	.st2{fill-rule:evenodd;clip-rule:evenodd;fill:#9FA9B5;}
	.st3{fill-rule:evenodd;clip-rule:evenodd;fill:#8994A3;}
	.st4{fill-rule:evenodd;clip-rule:evenodd;fill:#FFEA96;}
	.st5{fill-rule:evenodd;clip-rule:evenodd;fill:#E6B627;}
	.st6{fill:#E6B627;}
	.st7{fill-rule:evenodd;clip-rule:evenodd;fill:#FFD324;}
	.st8{fill:#D6AA24;}
</style>
<defs>
</defs>
<path class="st0" d="M87.1,174c-23.9,0-45.5-9.7-61.2-25.4C10.2,133,0.5,111.3,0.5,87.4c0-23.9,9.7-45.5,25.4-61.2
	C41.5,10.6,63.2,0.9,87.1,0.9l0,0c23.9,0,45.5,9.7,61.2,25.4c15.7,15.7,25.4,37.3,25.4,61.2c0,23.9-9.7,45.5-25.4,61.2
	C132.6,164.3,111,174,87.1,174"/>
<path class="st0" d="M127.7,46.8C117.3,36.5,102.9,30,87.1,30c-15.8,0-30.2,6.4-40.6,16.8C36.1,57.2,29.7,71.6,29.7,87.4
	s6.4,30.2,16.8,40.6c10.4,10.4,24.7,16.8,40.6,16.8c15.8,0,30.2-6.4,40.6-16.8c10.4-10.4,16.8-24.7,16.8-40.6S138,57.2,127.7,46.8
	L127.7,46.8z"/>
<path class="st1" d="M83.2,0c23,0,43.8,9.3,58.8,24.4c15.1,15.1,24.4,35.9,24.4,58.8c0,23-9.3,43.8-24.4,58.8
	c-15.1,15.1-35.9,24.4-58.8,24.4s-43.8-9.3-58.8-24.4C9.3,127,0,106.2,0,83.2c0-23,9.3-43.8,24.4-58.8C39.4,9.3,60.2,0,83.2,0
	L83.2,0z M122.2,44.2c-10-10-23.8-16.2-39-16.2c-15.2,0-29,6.2-39,16.2C34.2,54.2,28,68,28,83.2c0,15.2,6.2,29,16.2,39
	c10,10,23.8,16.2,39,16.2c15.2,0,29-6.2,39-16.2c10-10,16.2-23.8,16.2-39C138.3,68,132.2,54.2,122.2,44.2L122.2,44.2z"/>
<path class="st2" d="M83.2,16.1c18.7,0,35.6,7.6,47.9,19.8c12.3,12.3,19.8,29.2,19.8,47.9c0,18.7-7.6,35.6-19.8,47.9
	c-12.3,12.3-29.2,19.8-47.9,19.8c-18.7,0-35.6-7.6-47.9-19.8c-12.3-12.3-19.8-29.2-19.8-47.9c0-18.7,7.6-35.6,19.8-47.9
	C47.6,23.6,64.5,16.1,83.2,16.1L83.2,16.1z"/>
<path class="st3" d="M83.2,16.1c11.5,0,24.7,3.3,34.6,9.5c4.2,2.7,9.1,6.3,8.6,6C59.9-4-0.3,58.2,24.2,117.1
	c0.5,1.3-1.3-2.4-1.9-3.6c-4.4-9-6.8-19-6.8-29.6c0-18.7,7.6-35.6,19.8-47.9C47.6,23.6,64.5,16.1,83.2,16.1L83.2,16.1z"/>
<path class="st3" d="M136,41.3c-1.5-1.9-4.1-1.9-4.9,1.4c-0.3,1.2-2.7,2.2-3.1,3.6c-0.3,1.2,0,7.8-3.3,9.2c-0.9,0.4-1.6-0.7-2.4-0.7
	c-0.8,0-3.2,1.1-3.9,1.9c-2.4,2.5-6.6,8.2-2,7.7c1-0.1-0.7,4.2,3.8,4.2c4.5,0,3.4-3.4,4.1-3.5c0.7-0.1,1.2,1,1.6,2.1
	c0.4,1.1,0.8,2.2,1.3,3.1c0.5,0.9,1.1,1.4,1.3,1.9c0.2,0.5,0.1,0.9,0.5,1.1c0.3,0.2,1.1,0.2,1.9-0.3c0.8-0.5,1.7-1.4,2-2.7
	c0.3-1.3,0.1-2.9,0.1-3.9c0-1,0-1.4,0.5-1.7c0.4-0.3,1.2-0.5,1.3-1c0-0.5-0.6-1.3-1.1-2c-0.5-0.7-0.8-1.4-1-2.4
	c-0.5-3.2,2.4-3.3,3.6-6.1c2.8-6.1,4.7-4.9,3.6-6.5C137.6,43.4,136.9,42.5,136,41.3L136,41.3z M127.7,120.4c1.4-0.4,0-0.2-0.1-1.4
	c-0.1-1.8,6.5,1,4.4,2c-1.3,0.6,1,4-2.8,4.7c-0.9,0.2-0.9-2-1.5-1.8c-1.9,0.5-1.6-1.6-1.9-1.7c-0.4-0.2-0.3-0.8,0.1-1.2
	C126.3,120.7,126.3,120.8,127.7,120.4L127.7,120.4z M141.5,49.6c-0.5-0.5-0.4,1.2-0.6,1.6c-0.2,0.4-1,0.5-1.4,0.9
	c-0.5,0.4-0.7,1.2-1.1,1.9c-0.4,0.7-1,1.3-1.1,1.9c-0.1,0.7,0.3,1.4,0.7,2.5c0.4,1,0.8,2.3,1.2,2.7c0.4,0.4,0.8,0,1.1,0.2
	c0.3,0.1,0.5,0.8,1.1,1c0.6,0.1,1.7-0.2,2.2-0.9c0.5-0.6,0.5-1.5,0.6-2c0.1-0.7,1.4-0.9,1.8-1.1C144.8,55.7,142.1,50.1,141.5,49.6
	L141.5,49.6z M109.5,107.7c-0.6,0.4-1.6,0.4-2.6,0.7c-1,0.3-1.8,0.8-2.6,1.3c-0.9,0.6-2.2,1.6-1.7,2.8c0.2,0.4,0.5,0.7,0.7,1
	c0.2,0.3,0.3,0.5,0,0.9c-0.3,0.4-1,0.8-1.6,1.4c-0.6,0.5-1.2,1.1-1.7,1.4c-0.5,0.3-0.9,0.4-1.9,0.6c-1,0.1-2.6,0.3-3.9,0.4
	c-1.3,0.1-2.1,0.1-2.6,0c-0.5-0.1,8.7-11,8-11.1c-1.3-0.2-2.4-1.8-3.7-2.7c-1.7-1.2,1-2.3,4.1-2.6c1-0.1,0.7-0.2,1.3-0.6
	s0.7-0.9,0.8-1.4c0-0.6,0-1.3,0.3-2.1c0.2-0.8,0.7-1.8,0.7-2.7c-0.1-0.9-0.7-1.8-1.3-2.4c-0.6-0.6-1.2-1.1-1.9-1.4
	c-0.7-0.4-1.6-0.6-1.9-1.1c-0.3-0.4,0-1,0.7-1.4c0.7-0.3,1.8-0.4,2.8-0.1c0.9,0.3,1.7,0.8,2.4,1c1.5,0.4,2.1-1,1.9-2.3
	c-0.1-0.6-0.4-0.9-0.4-1.1c0-0.2,0.2-0.2,0.7-0.2c1.5,0.1,3.7,0.5,5.1-0.2c1.3-0.6,1.8-2.4,3.5-2.3c0.5,0,1,0.3,1.3,0.3
	s0.2-0.2,0-0.6c-0.2-0.4-0.6-0.8-0.6-1.2c0-0.4,0.3-0.6,0.8-0.6c0.5,0,1.1,0.1,1.5-0.2c0.4-0.3,0.5-1,1.4-1.4
	c0.9-0.4,2.5-0.4,3.2-0.7c0.7-0.3,0.5-0.7,0.1-1.7c-0.4-0.9-1-2.3-1.1-3.4c-0.1-1.2,0.2-2.1,0.8-2.7c0.6-0.6,1.5-0.8,2.1-0.1
	c0.6,0.7,0.7,2.2,1,3.3c0.2,1.1,0.5,1.8,1.2,2.3c0.6,0.5,1.6,0.8,2.2,1.1c1.6,0.8,0.7,1.8,1.5,2.6c0.4,0.4,1.3,0.8,2,0.5
	c0.6-0.3,1-1.1,1.6-1.6c0.6-0.5,1.3-0.6,2.1-0.5c0.7,0.1,1.5,0.3,1.9,0.2c0.4-0.1,0.6-0.7,0.5-1.3c-0.1-0.6-0.4-1.2,0.2-1.7
	c0.6-0.5,2.3-0.9,3.3-1.1c1.1-0.2,1.5-0.3,1.7-0.7c0.1-0.3-0.1-0.9-0.8-1.3c-0.7-0.4-1.9-0.6-2.5-1c-0.6-0.3-0.7-0.7-0.4-1.4
	c0.3-0.7,1-1.6,1.8-2.4c0.9-0.8,1.9-1.3,2.6-1.6c1.2-0.5,1.6-0.2,0.3-1.2c-0.4-0.4-0.9-0.8-0.5-1.5c0.4-0.7,1.7-1.6,2.3-1.6
	c0.6,0,1.4,0.1,1.5,0.5c6.6,21.1,1.6,41.5-3.7,50.7c-0.4,0.9-1.9,0.2-2.7-2c-1-2.7,2.1-3.8,2.4-5.2c1.5-7.5-0.9-3.4-3.3-5.9
	c-1.7-1.7-2.7,3.9-6.1,0.6s-2.6-2.1-3.9-2.7c-1.3-0.6-2.6-0.7-3.2-0.3c-0.6,0.4-0.4,1.4-0.1,2.2c0.4,0.8,0.9,1.6,1.3,2.3
	c0.4,0.7,0.6,1.4,1.2,2.1c0.6,0.7,1.7,1.4,2.6,2.2c0.9,0.7,1.6,1.5,2.4,2.1s1.7,1.1,2.6,1.6c0.8,0.5,1.6,0.9,1.8,1.3
	c0.2,0.4-0.2,0.9-0.7,0.9c-0.5,0-1.2-0.3-1.7-0.5c-0.5-0.2-0.7-0.4-0.9-0.2c-0.2,0.2-0.3,0.8,0,1.2c0.2,0.5,0.8,0.8,1,1.3
	c0.5,1.1-1.2,3.2-2,4c-1.7,1.6-1.4-1.3-1.4-1.4c0-1,0.2-4.4-2.8-6.3c-1.1-0.7-2.1-1.4-3-2c-0.9-0.6-1.6-1.1-2.5-1.7
	c-0.8-0.7-1.8-1.5-2.5-2.3c-0.7-0.7-1.2-1.3-1.8-1.7c-0.6-0.3-1.5-0.3-2.3,0c-0.8,0.4-1.6,1.1-2.5,1.4c-0.8,0.3-1.7,0.2-2.3,0
	c-0.9-0.3-1.5-1.1-2.5-0.6c-0.4,0.2-0.6,0.5-0.8,0.8c-0.1,0.3-0.1,0.7-0.2,1.2C110.2,106.6,110.1,107.3,109.5,107.7L109.5,107.7z
	 M100,74.8c-1.1,2.4-2.9,1.9-2.6-0.7c0.2-2.2-2.5-0.8-2.2-2.6c0.3-1.2-0.1-3,0.2-3.4c1.9-2.1,3.2,3.1,3.9,3.5c0.5,0.3,0.9,1,1,1.5
	C100.7,74.2,100.3,74.1,100,74.8L100,74.8z M102.8,63.5c0.6-0.1,0.8,0.6,1.4,0.9c0.6,0.2,1.4,0,1.6,0.3c0.1,0.2-0.4,0.9-0.4,1.3
	c0,0.3,0.7,0.3,1.3,0.5c0.6,0.1,1,0.4,1.1,0.7c0.6,1.5-1.6,4-0.3,7.1c0.2,0.5,1.6-1,1.7,3c0,0.8-1.4,0.9-1.1,1.2
	c0.2,0.3,1.9,0.8,2.9,1.3c1,0.6,1.4,1.2,1.1,1.8c-0.3,0.5-1.3,0.9-1.6,1.4c-0.4,0.5-0.2,1.2-0.1,1.8c0,0.6,0,1.2-0.6,1.3
	c-0.5,0-1.5-0.4-2.4-0.7c-0.9-0.2-1.8-0.2-2.6-0.3c-0.2,0-2.1,0-3.4,0.6c-1.8,0.8-3.7-2.4,0.1-2.7c0.9-0.1,2.6-0.2,3.1-0.5
	c0.6-0.3,0.1-0.7-0.7-0.8c-0.9-0.1-1.5,0.7-2.5-0.1c-1-0.8,0.4-1.3,0.5-1.9c0.2-0.6-0.2-0.8,0.2-1.1c0.3-0.4,1.4-0.6,1.5-0.9
	c0.2-0.2-0.5-0.5-0.7-0.8c-0.2-0.3,0.1-0.6,0.4-0.9c0.3-0.3,0.7-0.5,1-0.9c0.3-0.5,0.6-1.2,0.4-1.6c-0.4-0.7-2.1-0.1-2.3-0.6
	c-0.1-0.2,0-0.7-0.3-1c-0.3-0.4-0.9-0.7-1-1c-0.1-0.4,0.4-0.8,0.4-1.2c0-0.4-0.6-0.7-0.8-1.2c-0.1-0.5,0.2-1.1,0.3-1.7
	c0.1-0.6-0.1-1.1,0.2-1.8C101.4,64.3,102.3,63.5,102.8,63.5L102.8,63.5z"/>
<path class="st4" d="M20.8,34.3c4.3-11.7,24.9-24.1,36.2-27.7C66.1,3.7,68.9,6.7,68.6,8c-0.2,1-1.9,2.3-4.4,3.5
	c-13.6,6.2-17.9,7.3-31.3,19.1c-4.2,3.7-7.1,7.2-9.3,7.9C21.3,39.2,19.3,38.3,20.8,34.3L20.8,34.3z"/>
<path class="st3" d="M40,72.7c1.7-5.4,4.3-10.5,7.8-15.1c3.4-4.5,7.8-8.4,13-11.6c5.4-3.3,12.4-5.5,20-6.2c7.1-0.7,14.6,0,21.6,2.3
	c1.7,0.6,4,1.5,6.3,2.7c1.8,1,3.7,2.2,5.3,3.6c1.4,1.2,2.6,2.4,3.6,3.5c0.9,1.2,1.6,2.3,2,3.5c3.3,5.5,2.1,7.2-0.3,10.3
	c-0.5,0.7-1.1,1.4-1.7,2.4l0,0.1c-5.7,7.5-7.9,6.2-14.5,2.2c-1.2-0.7-2.6-1.6-4.2-2.5c-6.3-3-12.1-3.7-17.2-2.7
	c-5.1,1-9.5,3.8-12.8,7.7l19.1,0.2c1.2,0,2.1,0.1,2.9,0.2c0.8,0.2,1.5,0.5,1.9,0.9l0.1,0c0.1,0,0.1,0.1,0.2,0.2l0.2,0.2
	c0.7,0.6,1.5,1.4,2.1,2.3l0.2,0.3c1.1,2,1.7,3,1.3,4.6c-1.9,8.3-3.3,8.3-8.7,8.3c-8.2,0-17.3,0.4-25.3,0l0,0.7c0,0.3,0,0.5,0,0.8
	l22,0.2c1.1,0,2.1,0,2.9,0.1c0.9,0.1,1.6,0.3,2.1,0.7c0.3,0.2,0.6,0.4,0.9,0.7c0.3,0.3,0.6,0.6,1,1c0.7,0.9,1.4,2,1.9,3
	c0.4,1,0.7,1.9,0.5,2.6c-0.8,3.5-1.4,5.5-2.6,6.7c-1.3,1.2-3,1.4-6,1.4L69.3,108c2,1.6,4.4,2.9,7,3.9c3.1,1.1,6.6,1.6,10.4,1.5
	c11.9-0.5,18-5.4,22.3-8.9c3.9-3.2,6.4-5.2,10.3-2c2.7,2.3,4.5,4.2,5.7,6c0.9,1.3,1.8,3.3,1.9,4.8c0.1,1,0.3,2,0.3,3.1
	c0.1,1.5,0.1,2.9-0.1,4.1c-0.2,1.3-0.7,2.3-1.4,3.2c-27.8,29.1-75.8,16.8-85.6-16.1c-4.5,0-5.4-0.1-7.2-1.8
	c-0.8-0.8-1.5-1.7-2.1-2.6c-0.6-0.9-1-1.8-1.2-2.6c-0.2-0.5-0.3-1.1-0.3-1.8c0-0.7,0.1-1.4,0.3-2.2c0.4-2,0.9-3.3,2-4
	c1-0.8,2.5-1,4.7-1l1.5,0l0-0.7c0-0.5,0-1-0.1-1.6l0-0.2c-3.5,0-4-0.1-6.4-3c-0.4-0.4-0.7-1.1-1-1.9c-0.3-0.8-0.5-1.7-0.6-2.2
	c-0.1-0.5,0-1,0-1.6c0.1-0.6,0.2-1.2,0.4-1.9c0.6-2.2,1.2-3.6,2.4-4.5c1.1-0.9,2.7-1.2,5.2-1.2L40,72.7L40,72.7z"/>
<path class="st5" d="M34.9,73.9l51.3-1.5c1.1,0,3.7-2.7,4.9-1.6c0.7,0.6,1.6,1.4,2.1,2.4c1.2,2.1,1.8,3,1.4,4.4
	c-1.8,8.1-3.1,7.7-8.6,7.7H61.7l-21.9-1.2c-6.6-0.3-6.6,0.6-9.4-2.9c-0.6-0.5-1.5-3.2-1.4-3.7C29.1,75.3,32.1,74,34.9,73.9
	L34.9,73.9z M74,90.1L87.4,89c0.5,0,1.4,0.7,2.2,1.7c1.3,1.6,2.5,3.8,2.2,4.9c-1.5,6.8-2.3,7.5-7.8,7.5L67.2,103l-22.4-0.4
	c-7.5-0.1-10.8,0.4-12.9-1.6c-1.5-1.5-2.7-3.3-3.1-4.8c-0.4-1.5,4.5-3.9,6.2-4L74,90.1L74,90.1z"/>
<path class="st1" d="M115,58.2c-1.4,1.4-1.9,3.5-3,4.5c-4,3.2-7.8,2.6-14.6-1.9c-13.8-9.2-35.9,2.1-38.2,23.1
	c-0.5,4.7-0.4,9.2,1.6,13.1c4.2,8.2,13.9,13.9,25.2,13.4c24-1,24.5-17.3,31.8-11.2c9.6,8.1,7.2,11.8,5.4,15.2
	c-8.4,15.7-24.1,16.4-39.6,16.5c-30.5,0.2-46-23.4-46.6-46.1c-0.4-16.4,7.1-33,22.7-42.5c6.7-4.1,15.9-6.4,25.4-6.3
	c9.7,0.1,18.7,2.4,26.7,8.6C119.5,50.5,120.4,52.7,115,58.2L115,58.2z"/>
<path class="st6" d="M43.1,107.9c6.8,11,15.7,17.6,31.9,21c17.1,3.6,38-0.9,49-16.3c1.1-1.6,0.9-3.5,0.9-3.5s0,1.6,0.1,3
	c0.2,2.9,0,5.2-1.4,6.8c-19,21.9-56.5,19.9-74.3-1C46.8,114.9,44.7,111.3,43.1,107.9L43.1,107.9z M103.1,60.9
	c3.6,2.2,5.5,3.1,8.4,0.6c2-1.7,8.9-8.6,6.2-10.7c1.5,2.2,1.5,4,1.6,5.7c0.2,2.5-0.7,4.6-3.3,7.1c-7.4,8.3-9,4.3-18.4-0.5
	c-27.2-13.1-47.3,17.4-31.9,40.7c-16.5-11.8-10.2-39.2,9.1-46.8C85,52.9,94.9,56,103.1,60.9L103.1,60.9z"/>
<path class="st7" d="M36.3,69.2l50.2,0.4c4.6,0,5.9,0.9,4.2,6C89,80.9,88,80,84.3,80.1l-51-0.4c-4.5,0-4.8-1.6-3.8-5.4
	C30.6,70.2,31.7,69.2,36.3,69.2L36.3,69.2z M34.8,88l48.6,0.4c4.6,0,6.4,0.4,5,5.3c-1.6,5.5-2.6,4.7-6.5,4.7L33.8,98
	c-4.6,0-5.8-1.4-4.9-5.6C29.7,88.8,30.6,88,34.8,88L34.8,88z"/>
<path class="st4" d="M63.4,42.2c2.2-1,10.6-4.3,12.5-2.9c1.1,0.8-1.3,3.1-5.5,5.1c-3.1,1.4-6.5,2.9-9.4,4.2c-3.6,1.7-6.9,2.5-7,1.3
	C53.8,47.6,61.4,43.1,63.4,42.2L63.4,42.2z M51.1,52.1c0.9-0.3,1.5,0.4,1.3,1.2c-0.3,0.8-1.4,1.8-2.3,2c-0.9,0.3-1.7-0.1-1.4-0.9
	C48.9,53.6,50.1,52.3,51.1,52.1L51.1,52.1z"/>
<path class="st8" d="M155.1,109.2l-1.9,3.6l-1.4-3.8l-4.2-0.6l3.3-2.5l-0.7-4l3.5,2.3l3.7-1.8l-1.2,3.9l3,2.9L155.1,109.2
	L155.1,109.2z M153.7,53.5l1.4,2.7l4.2,0.1l-3,2.9l1.2,3.9l-3.7-1.8l-3.5,2.3l0.7-4l-3.3-2.5l4.2-0.6l1.4-3.8L153.7,53.5L153.7,53.5
	z M101.9,4.4l0.6,2.9l4,1.2l-3.6,2l0.1,4.1l-3.1-2.8L96,13.2l1.7-3.7l-2.6-3.3l4.2,0.5l2.4-3.3L101.9,4.4L101.9,4.4z M119,10.5
	l0.1,3l3.8,1.9l-3.9,1.4l-0.6,4l-2.6-3.2l-4.1,0.6l2.3-3.4l-2-3.7l4.1,1.2l2.9-2.9L119,10.5L119,10.5z M132.7,18.8l-0.5,3l3.3,2.6
	l-4.1,0.6l-1.4,3.8l-1.9-3.7l-4.2-0.2l2.9-2.8l-1.2-4l3.7,1.9l3.4-2.2L132.7,18.8L132.7,18.8z M138,28.9l2.4,1.8l3.9-1.6l-1.5,3.9
	l2.7,3.1l-4.2-0.1l-2.2,3.5l-1.1-3.9l-4.1-0.9l3.5-2.3l-0.3-4.1L138,28.9L138,28.9z M147,40l1.9,2.3l4.1-0.8l-2.3,3.5l2,3.6l-4-1
	l-2.9,3l-0.2-4.1l-3.8-1.7l3.9-1.5l0.6-4L147,40L147,40z M102.5,157.9l-0.9,4l-2.4-3.3l-4.2,0.5l2.6-3.3l-1.7-3.7l3.9,1.3l3.1-2.8
	l-0.1,4.1l3.6,2L102.5,157.9L102.5,157.9z M119.2,151.8l-0.2,4.1l-2.9-2.9l-4.1,1.2l2-3.7l-2.3-3.4l4.1,0.6l2.6-3.2l0.6,4l3.9,1.4
	L119.2,151.8L119.2,151.8z M132.2,143.5l0.6,4l-3.4-2.2l-3.7,1.9l1.2-4l-2.9-2.8l4.2-0.2l1.9-3.7l1.4,3.8l4.1,0.6L132.2,143.5
	L132.2,143.5z M140.3,134.6l-3.2,2.5l0.3-4.1l-3.5-2.3l4.1-0.9l1.1-3.9l2.2,3.5l4.2-0.1l-2.7,3.1l1.5,3.9L140.3,134.6L140.3,134.6z
	 M149,123l-2.6,3.1l-0.6-4l-3.9-1.5l3.8-1.7l0.2-4.1l2.9,3l4-1l-2,3.6l2.3,3.5L149,123L149,123z"/>
</svg>
