<!-- Generator: Adobe Illustrator 22.1.0, SVG Export Plug-In  -->
<svg version="1.1"
	 xmlns="http://www.w3.org/2000/svg" xmlns:xlink="http://www.w3.org/1999/xlink" xmlns:a="http://ns.adobe.com/AdobeSVGViewerExtensions/3.0/"
	 x="0px" y="0px" width="42.2px" height="42.2px" viewBox="0 0 42.2 42.2" style="enable-background:new 0 0 42.2 42.2;"
	 xml:space="preserve">
<style type="text/css">
	.st0{fill:#E0D96F;}
	.st1{fill:#FFFFFF;}
</style>
<defs>
</defs>
<circle class="st0" cx="21.1" cy="21.1" r="21.1"/>
<g>
	<g>
		<path class="st1" d="M21.1,7C15.4,7,10.3,10.4,8,15.6l-0.2,0.1l0.1,0.2c-3,7.3,0.6,15.6,7.8,18.5c1.7,0.7,3.5,1,5.4,1
			c7.9,0,14.2-6.4,14.2-14.2S29,7,21.1,7z M13.1,31.9c-4.5-3.4-6.4-9.2-4.7-14.5l0.4,1.2c0,0.1,0.1,0.2,0.2,0.2l2.4,1.6l-0.5,0.5
			c-0.1,0.1-0.1,0.2-0.1,0.3v1.4c0,0.1,0,0.1,0,0.2l0.9,1.9c0.1,0.1,0.2,0.2,0.3,0.3l2,0.4v4.4c0,0.1,0,0.1,0,0.2l0.9,2.4
			c0.1,0.1,0.2,0.2,0.3,0.3l1.4,0.5c0,0,0.1,0,0.1,0c0.3,0,0.5-0.2,0.5-0.5v-2.1l1.7-1.3c0.1-0.1,0.2-0.2,0.2-0.4v-1.2l1.8-1.8
			c0.1-0.1,0.1-0.2,0.1-0.2l0.5-2.4c0.1-0.3-0.1-0.5-0.4-0.6c0,0-0.1,0-0.1,0h-1.6l-1.3-2.1c-0.1-0.1-0.2-0.2-0.4-0.2h-3L14,18.6
			c-0.1-0.1-0.2-0.2-0.3-0.3c-0.2,0-0.3,0-0.4,0.1l-0.6,0.6v-0.8c0-0.1-0.1-0.2-0.1-0.3l-0.8-0.8v-0.8l2.9-0.4c0.1,0,0.1,0,0.2-0.1
			l2.4-1.4c0.1,0,0.1-0.1,0.2-0.2l1.3-2.2l1.3-0.4c0.1,0,0.3-0.2,0.3-0.3l0.5-1.4c0.1-0.2-0.1-0.5-0.3-0.6c0,0,0,0-0.1,0l-2.7-0.5
			L17,8.6c3-1,6.2-0.9,9.1,0.3l-0.9,0.4h-1.8c-0.2,0-0.3,0.1-0.4,0.3l-0.9,1.9c-0.1,0.2,0,0.5,0.2,0.6c0,0,0,0,0.1,0l1.4,0.5
			c0.1,0,0.2,0,0.3,0l1.8-0.4l1.3,0.4c0,0,0,0,0.1,0l2.4,0.5c0.1,0,0.3,0,0.4-0.1l1.1-0.7c0.5,0.6,1,1.2,1.4,1.9L30.1,15l-2.5-0.4
			l-0.8-1.3c-0.1-0.1-0.2-0.2-0.4-0.2h-2.8c-0.1,0-0.2,0.1-0.3,0.1l-1.4,1.4c-0.1,0.1-0.2,0.3-0.1,0.4l0.5,3.3
			c0,0.2,0.1,0.3,0.3,0.4l3.3,1.4c0.1,0,0.2,0,0.3,0l1.7-0.4l1,0.7v1.6c0,0.1,0,0.1,0,0.2l1.9,3.7v1.8c0,0.1,0.1,0.2,0.1,0.3l1,1
			C27.3,35.1,19,36.3,13.1,31.9z"/>
	</g>
</g>
</svg>
