<!-- Generator: Adobe Illustrator 22.1.0, SVG Export Plug-In  -->
<svg version="1.1"
	 xmlns="http://www.w3.org/2000/svg" xmlns:xlink="http://www.w3.org/1999/xlink" xmlns:a="http://ns.adobe.com/AdobeSVGViewerExtensions/3.0/"
	 x="0px" y="0px" width="42.2px" height="42.2px" viewBox="0 0 42.2 42.2" style="enable-background:new 0 0 42.2 42.2;"
	 xml:space="preserve">
<style type="text/css">
	.st0{fill:#3C76BA;}
	.st1{fill:#FFFFFF;}
	.st2{fill:#FFFFFF;stroke:#3C76BA;stroke-miterlimit:10;}
</style>
<defs>
</defs>
<circle class="st0" cx="21.1" cy="21.1" r="21.1"/>
<g>
	<path class="st1" d="M19.7,30v-1.6H9.1v-14h23.6v3.7h2.2v-5.8H7v18.2h12.9C19.8,30.4,19.7,30.2,19.7,30z"/>
	<rect x="10.1" y="15.4" style="fill:none;" width="10.4" height="12.8"/>
	<text transform="matrix(1 0 0 1 10.1419 26.8397)" class="st1" style="font-family:'Roboto-Bold'; font-size:15.211px;">€</text>
	<g>
		<rect x="26.7" y="19" class="st1" width="10" height="2.1"/>
		<rect x="20.5" y="21.9" class="st1" width="10" height="2.1"/>
		<rect x="20.5" y="24.9" class="st1" width="10" height="2.1"/>
		<rect x="20.5" y="27.8" class="st1" width="10" height="2.1"/>
		<rect x="31.3" y="21.9" class="st1" width="5.3" height="2.1"/>
		<rect x="31.3" y="24.9" class="st1" width="5.3" height="2.1"/>
		<rect x="31.3" y="27.8" class="st1" width="5.3" height="2.1"/>
	</g>
</g>
<polygon class="st2" points="24.4,21.9 34,11.1 33.9,11.1 31.4,10.3 30.3,7.9 30.2,7.8 20.8,18.6 10.2,8.9 9.4,11.5 6.8,12.5 
	6.8,12.6 17.5,22.3 7.9,33.1 10.5,33.9 11.6,36.4 11.6,36.4 21.1,25.6 31.8,35.3 31.8,35.3 32.7,32.7 35.1,31.7 35.1,31.6 "/>
</svg>
