<!-- Generator: Adobe Illustrator 22.1.0, SVG Export Plug-In  -->
<svg version="1.1"
	 xmlns="http://www.w3.org/2000/svg" xmlns:xlink="http://www.w3.org/1999/xlink" xmlns:a="http://ns.adobe.com/AdobeSVGViewerExtensions/3.0/"
	 x="0px" y="0px" width="339.3px" height="402.1px" viewBox="0 0 339.3 402.1" style="enable-background:new 0 0 339.3 402.1;"
	 xml:space="preserve">
<style type="text/css">
	.st0{fill:#373735;}
</style>
<defs>
</defs>
<g>
	<path class="st0" d="M55.4,401.7c0,0.8,1.6,0.1,1.9,0.1C56.7,400.7,55,401.9,55.4,401.7z"/>
	<polygon class="st0" points="48.9,390 49.6,390.1 47.6,388.6 	"/>
	<path class="st0" d="M47.1,378c-1.3,0.8-1.1,1.8-0.6,3c0.5,1.2,1.3,2.4,1,3.6l-0.6,0.5l2.4,0.6c-0.4-1.3-1.1-2.7-1.6-4
		C47.1,380.3,46.8,379,47.1,378z"/>
	<path class="st0" d="M52.5,371c-1.1,0.5-1.1-1.3-0.2,1.5c0.1-0.2,0.2-0.2,0.3-0.3C52.5,371.9,52.4,371.6,52.5,371z"/>
	<path class="st0" d="M52.5,372.2C52.7,373.4,53.4,371.3,52.5,372.2L52.5,372.2z"/>
	<path class="st0" d="M51.4,366.5l1.1,1.6c0.6-0.4,0.6-1.9,1.2-1.4C53,365.1,52.4,365.5,51.4,366.5z"/>
	<path class="st0" d="M49.2,365.1l0.5,0.8C49.9,365.7,50,365.5,49.2,365.1z"/>
	<path class="st0" d="M50.7,367.7l-1-1.7c-0.4,0.3-1.4,0.4,0.4,0.8C49.2,366.6,50,366.9,50.7,367.7z"/>
	<path class="st0" d="M50.3,368.7c-0.5,1-0.8,2.2-2,0.6C49.1,372.5,51,371.8,50.3,368.7z"/>
	<path class="st0" d="M44,377.8l-0.7,1.4l1.1,1C43.9,379.7,44.9,377.6,44,377.8z"/>
	<path class="st0" d="M52.3,356.2c-0.6-0.1-1.6,0.6-2.4,0.8l0.7,1.2C51,357.5,51.4,356.3,52.3,356.2z"/>
	<path class="st0" d="M49.9,356.9l-1.1-1.8C48.8,356.8,49.3,357.1,49.9,356.9z"/>
	<path class="st0" d="M46,365c0,0,0.6,0.7,1.2,1.4c0.6,0.7,1.2,1.4,1.2,1.4s-0.6-0.9-1.3-1.7c-0.6-0.9-1.2-1.7-1.2-1.7L46,365z"/>
	<polygon class="st0" points="52.3,349.2 53.7,350.3 51.6,348.4 	"/>
	<path class="st0" d="M52.1,344.6c1.2,0.8,2-1,2.7-0.2c-0.2-1.2-1.2-2.3-2-3.3C53.2,342.1,53,343.2,52.1,344.6z"/>
	<path class="st0" d="M51.5,339.4c0.3,0.5,0.7,1.1,1.2,1.7C52.5,340.5,52.1,340,51.5,339.4z"/>
	<path class="st0" d="M49.1,352c0.4-0.1,1.3-0.4,1.7-1.5l-1.7,0.7C49.1,351.5,49.1,351.7,49.1,352z"/>
	<path class="st0" d="M49,351.3L49,351.3c0.1-0.8,0.1-1.4,0.1-1.6C49.2,349.9,49.1,350.4,49,351.3z"/>
	<path class="st0" d="M49.1,352.2c0-0.1,0-0.1,0-0.2C48.9,352,48.8,352.1,49.1,352.2z"/>
	<path class="st0" d="M47.3,360c-1-1-2.1-3.3-3.5-1C45,359.8,45.7,358.5,47.3,360z"/>
	<path class="st0" d="M46.9,353.1l-0.3,2c0.5-0.1,1.1-0.4,1.6,0.1L46.9,353.1z"/>
	<polygon class="st0" points="46.4,352.1 46.9,353.1 47.1,352.4 	"/>
	<path class="st0" d="M49.8,342.7c-0.7-0.9-0.7-1.8-0.8-2.9c-0.4,1.1-0.6,2.3-0.6,3.4C48.8,343.4,49.8,343.9,49.8,342.7z"/>
	<path class="st0" d="M49.2,346.9c0-0.1-0.1-0.1-0.1-0.2C49,346.8,48.9,346.9,49.2,346.9z"/>
	<path class="st0" d="M49.5,329.5c-0.1,0-0.2,0.1-0.3,0.1c0.1,0,0.2,0,0.3,0.1L49.5,329.5z"/>
	<path class="st0" d="M48,343.4c-0.3,0.8,0.1,1.4,0.6,1.8c-0.2-0.6-0.3-1.3-0.3-2C48.1,343.2,47.9,343.1,48,343.4z"/>
	<path class="st0" d="M50.8,336.5c-0.4,0.4-0.7,0.9-1,1.4C50.3,337.5,51.2,336.7,50.8,336.5z"/>
	<path class="st0" d="M49.6,346.4c0,0,0.1,0.1,0.1,0.1C50.1,346.3,49.9,346.3,49.6,346.4z"/>
	<path class="st0" d="M49.6,346.4c-0.2-0.4-0.7-0.8-1-1.1c0.1,0.5,0.3,1,0.6,1.4C49.3,346.6,49.4,346.5,49.6,346.4z"/>
	<path class="st0" d="M38.8,325.5c0.8,0.1,1.5,0.8,1.8,1.7c0.3,0.9,0.2,1.9-0.7,2.9c1.1,2,6.3,1.1,9.4-0.4c-0.7-0.1-1.3-0.1-2.1-2.2
		c-0.9,0.6-2.3,4.2-3.6,2.5c-0.6-2.7,0.7-2.1,1.6-3.3c-2.1,0.9-2.6-3.6-5.5-3.3l0.8,2.4C39.9,325.8,39.3,324.9,38.8,325.5z"/>
	<path class="st0" d="M48.8,333.4l0.1,0.8c0.3-0.9,1-1.5,2.3-2.6c-0.7-1.4-1.3-1.7-1.8-1.8l-0.5,3.9L48.8,333.4z"/>
	<path class="st0" d="M48.7,337.8c-1.7-0.7-2.4-2.7-4.3-1.6c0,2.4,1.4,1.7,2.1,3.2c-0.3-3.8,0.9,1.1,2-1.6c0.3,0.8,0.3,1.4,0.4,2.1
		c0.2-0.7,0.5-1.3,0.9-1.9c0,0-0.1,0.1-0.1,0.1l0,0l0,0c-0.2,0.2-0.4,0.2-0.2,0c0,0,0-0.1,0-0.1C49.2,337.9,49,337.9,48.7,337.8
		c0.4-1.1,0.5-0.2,0.7,0.2c0.1,0,0.2,0,0.3,0.1c0,0,0,0,0,0c0,0-0.2-1-0.4-1.9c-0.2-1-0.4-1.9-0.4-1.9C48.6,335,48.6,336,48.7,337.8
		z"/>
	<path class="st0" d="M40,357.1c0.1-0.1,0.3-0.1,0.4-0.1C40.2,356.7,40,356.6,40,357.1z"/>
	<path class="st0" d="M41,355.4c0.2,0.3,0.9,0.5,0.8,1.4c-0.5,0.8-0.8,0-1.4,0.1c0.5,0.5,1.3,1.9,2.1,0.1l-0.2-0.3
		c0.6-1.6,2.7-3.6,2.9-3.4C43.6,353.9,42.5,354.4,41,355.4z"/>
	<path class="st0" d="M44.3,346.4l-0.8-3.2l-1.5,1.6l0.9-0.1C42.5,346.5,43.6,346.1,44.3,346.4z"/>
	<polygon class="st0" points="50.4,329.2 52.2,329.8 49.7,327.8 	"/>
	<polygon class="st0" points="50.5,325.1 52.1,325.4 51.2,324.2 	"/>
	<path class="st0" d="M128.4,101.9l0.4-1C128.6,101.3,128.5,101.7,128.4,101.9z"/>
	<path class="st0" d="M123.4,107l0.4,0.7C123.7,107.2,123.6,106.8,123.4,107z"/>
	<path class="st0" d="M73.3,226.3c1.9-0.8,4.5-1.3,2.8-1.8l-1.8-0.2C74.3,225.2,73.8,225.9,73.3,226.3z"/>
	<path class="st0" d="M95.3,158.6c-0.2,0-0.4,0-0.7,0.1c0.3,0.6,0.6,1.2,0.9,1.7C95.5,159.8,95.4,159.2,95.3,158.6z"/>
	<path class="st0" d="M89.8,153.9l1.9-1C91.2,153,90.5,153.3,89.8,153.9z"/>
	<path class="st0" d="M157,74.5l-0.1-2.1C155.4,73.5,156.6,73.7,157,74.5z"/>
	<path class="st0" d="M56.2,283.1c0.9-1,1.4-1.9,1.7-2.7C56.6,281.6,54.8,282.5,56.2,283.1z"/>
	<path class="st0" d="M139.7,116.8c0.2-0.6,0.1-1.1-0.2-1.3C139.3,116.1,139.3,116.6,139.7,116.8z"/>
	<path class="st0" d="M58.6,277.2c-0.2,0.2-0.3,0.3-0.5,0.5c0.1,0.9,0.1,1.8-0.2,2.8C58.8,279.6,59.5,278.5,58.6,277.2z"/>
	<path class="st0" d="M294.4,36.3c0.1,0.1,0.2,0.2,0.3,0.3C294.7,36.3,294.6,36.3,294.4,36.3z"/>
	<path class="st0" d="M323.6,68.5c-0.3-0.1-0.8-0.5-1.2-0.8C322.6,67.9,322.9,68.2,323.6,68.5z"/>
	<path class="st0" d="M53.1,308.7C53.1,309.6,53.3,308.9,53.1,308.7L53.1,308.7z"/>
	<path class="st0" d="M45.7,312.1c-0.2-0.2-0.4-0.4-0.8-0.5C45.3,311.7,45.6,311.9,45.7,312.1z"/>
	<path class="st0" d="M50.1,266C50.1,266,50.1,266,50.1,266C49.8,266.1,49.8,266.1,50.1,266z"/>
	<path class="st0" d="M52.2,309.9c0.3-0.3,0.5-0.6,0.7-1C52.7,309,52.4,309.4,52.2,309.9z"/>
	<path class="st0" d="M53,309.9c-0.1,0.3-0.2,0.5-0.3,0.7C53,310.7,53.2,310.7,53,309.9z"/>
	<path class="st0" d="M53.2,307.5c0,0.5-0.2,0.9-0.4,1.4c0.1-0.2,0.2-0.2,0.3-0.2C53.1,308.5,53.1,308.1,53.2,307.5z"/>
	<path class="st0" d="M217.9,47.8c0.1,0,0.2,0,0.2,0.1C218.8,46.9,218.4,47.2,217.9,47.8z"/>
	<path class="st0" d="M65.6,197.8c0,0,0,0.1,0,0.1c0,0,0.1-0.1,0.1-0.1L65.6,197.8z"/>
	<path class="st0" d="M65.8,194.2c1.4,2.2,0.8,2.8-0.1,3.6l5,1.1L65.8,194.2z"/>
	<path class="st0" d="M140.6,89.7l-2.8,0.4c0.4-3.8,2.6-4.6-0.6-4.7c3.4,4.3-6.6,6.7-3,10.9l-1.9,0.3c0.4-0.3,0.2-0.6,0.5-0.8
		c-4,0.3,1.1,4.4-2.2,6.5c-1.2,0.7-2.5,0.8-2.3-0.3l-1.1,3.1c-0.7,0.6-1.2-0.3-0.5-0.8l-2.9,3.6l-0.1-0.1c0.2,1,0.1,3.1,0.1,4
		c-1.4,0.3,0-0.8-0.7-1.1l-0.7,2.8c-1.7-0.2-1.3-2.7,0-3.8c-5.6-1.9-0.4,2.5-6.2,4.2l1.1-2.3c-1.7-0.4-2.6-0.1-3.6,0.4
		c-0.9,0.5-1.8,1.3-3.5,1.7c1.2,0.1,7.2-1,6.4,2c-0.8,0.3-1.6,1-1.8,2.8c-1.5-1.2-2.1,0.2-3.2,1.6l-1.9-1.7c-0.7,2,0.4,2.7,0.6,4.3
		c-1.6,1.6-3.4,0.7-5,0c-2.5,2.5,4,0.1,1.8,3.6c-2.6,1.7-3,4-3.9,7.7c-1.9,1.1-1-1.2-2.1-1.1l0.6,2.7c-0.3,0.3-0.7-0.2-0.9-0.4
		c-0.3,1.7,2,1.6,1.2,3.9c1.9,2.1-6.2,1.6-5.3,5.8c-1,0.2-1.1-1.2-2-1.6c-0.5,4.5-0.7,3.8-0.1,8.1l-3,1.4c2.7-0.7,3.2,2.8,3.6,5.7
		c1.2-0.1,2.2-0.2,2.7-0.3l-0.7,3.8c-0.6,0.1-1.1-0.6-1.7-1.7c0,0.3,0.1,0.6,0.2,0.9c-1.5,0.6-2.4-0.7-3.1-2.3
		c0.7-0.1,1.4-0.2,2-0.3c-0.8-1.6-1.8-3.2-3.2-3.9c0.1,0.4,0.1,0.9-0.1,1.4c-0.2-0.4-0.5-0.8-0.7-0.8c-0.3,0,0,0.6,0.2,1.4L88,156
		l0.9,0.8c0,0-1,0.8-2,1.6c-0.5,0.4-1,0.8-1.4,1.1c-0.4,0.3-0.6,0.5-0.6,0.5c0.3,2.2,1.1,4.5,1.5,6.9c0.2,1.2,0.3,2.4,0.3,3.7
		c0,1.3-0.2,2.5-0.6,3.9c-1.2-2.2-2.8-1.9-5-3.2c1.5,0,1.8-1.1,1.9-2.4c0.1-1.3,0.2-2.9,1.1-4c-1,1.1-1.8,0.3-2-0.3
		c0,0-0.1,1.4-0.3,2.8c-0.1,1.4-0.2,2.8-0.2,2.8c-1.7-1.1-1.8,0.2-3.2,1c4,1.1,0.5,4.6,0.6,7c-1.2-0.5-2.3-1.6-0.7-3.7
		c-4,1,2.5,5.4-1.1,6.6c0.3-0.6,0.6-0.8,0.1-1.3c0.4,1.8-2.1,4.5-2.7,3.2l0.3-0.6c-1.2,1.7-2.5,4.5-3.3,7.1c-0.8,2.6-0.8,5,0.6,6
		c-0.4-0.1-3.5-2.2-4-2.7c0,0,1.8,2.9,3.7,5.7c1.9,2.8,3.7,5.6,3.7,5.6c-2.4-1.8-9.8-2.4-9.9-6.1c-0.8,0.7-1.8,1.6-1.6,3.9
		c0.6-0.4,4.5,0.2,4.4,1.1c-4,1-2.3,0.9-6,2.6c1-0.7,4.7,2.1,4,3.5c-0.5-0.5-4.2-1.6-4.4-2.3c0,0,0.7,1.3,1.3,2.7
		c0.7,1.3,1.3,2.7,1.3,2.7c-0.4-1.2-3.5-1.6-5-1.3c1,0-1.3,3.1-1.3,4.3l1.6-1.2c-2.3,3.9,4.3,6.3,2.6,10.3c-0.7-0.8-4.9-3.2-6.2-1.3
		c0.9,0.9,3.1,2.9,5.1,5.2c2,2.3,4,4.9,4.2,6.9l-1.5,0.3l0.5,3.2c-2.7-2.8-8-10-9.6-13.7c-1.5,1.2-1.6-0.1-2.3,2.3
		c-1.4,0.4-1.3-1.9-1.1-2.6c0,0-0.2,0.3-0.4,0.8c-0.2,0.5-0.6,1.1-0.9,1.8c-0.7,1.3-1.3,2.6-1.3,2.6c2.6,0.6,1.1,5.1,3.3,5.6
		l-0.6-6.8c2.6,0.7,6,5.9,4.3,9.6c-1.3,0.6-4.3-2.2-5.2-2.4c0.7,0.8,0.5,4.2-0.2,4.4l-0.8-2.1c-1.7,1.9,2.3,4.6-1,6.4
		c-0.4,0.8-4.1,1.7-2.6,2.3c3.4-0.6,12.5,1.9,14.5,3.5c-0.3,0.2-4.2,3.8-5.9,4.4c-2.7,0.8-4.9-3.8-7.2-3.1c0.7,0.3,1.3,1.3,1.5,1.7
		c-0.9,0.8-2.1-1-2.3,1.1c2.5,1.1-1.4,4.1,2,1.6c0.2,2.2-1.1,2-1.6,4.4c1.9-0.3,5.2,3.6,5.5,5.8c-0.6-0.3-1.6-0.1-2.1,0.1
		c-1.3,4-3,6-3.9,9.8c-0.7,0.2-1.9,1.9-2.9,0.9c0.3,0.7,1.1,1.4,0.9,2.6c-2.8,1.8,0.2-2.8-2.9-1.6c1.5,0.5,1.5,3.6,2.1,5.5
		c2.5,0,1.2-3.8,0.7-5.8c3.3,0.7,6.1,4.4,6.8,8.7c0.2,3.3-2.4,1-2.1,1.6c-1.7,5.9,4.8,6.2,1.6,10.7c-2.4,1.6-4.2-0.6-5.8-0.4
		c-0.4-2.8,2.1-3.8,2.3-5.6l-1.4,2c-0.6-1-0.8-2.8,0-3.6c-1.1,0.7-1.7,3.2-2.2,6.1c-0.5,2.9-1.2,6.2-2.4,8.5
		c0.6,0.9,1.1,2.5,2.1,1.9l-0.1-1.5c1.9-1.1,2,3.1,3.1,1.4c1,2.2,2.5,4.6,1.2,7.2l-2.5,0.2c0.7,0,1.7-1.6,1-2.5
		c0.9,1.3-3.8,3.9-0.7,5.5l1.9-1.8c1,2.1,3.3,4.8,2.3,7.2c2.5-0.9-0.2-0.6,2.7-2c-3.7,1.1,0.8-6.2-3.1-4.2c3.5-1.4,1.7-2.9,4.8-4.9
		c-0.8,0-1.6,0.6-1-1.4c-0.2-0.1-0.5-0.4-0.6-0.5c0-0.1,0-0.1,0.1-0.1c0,0-0.1,0.1-0.1,0.1c-0.1-0.1-0.1-0.1,0,0
		c-0.4,0.4-0.9,0.8-1.4,0.9c-1.7-1.3-1.2-4.5-2-5.8c0.5-1.2,0.8,0.6,1.8,0.1l-1.2-1.9c1.8,0.1,3.5-2.7,4,0.2l0.5-2.5
		c1.2-1.3,1.9-3.3,1.5-4.7c0.6-1.1-1.4-3.4-0.2-2.1l-0.4-4.2l0.4,0c1-3.9-1.3-8.7,2.9-12.5c-0.1-1.4-0.4-2.9,0.6-5l1.6-0.1
		c-0.1-1.8,2.7-4.7,1.4-5.8c2.2-0.4,3-2.3,3.4-4.5c0.4-2.2,0.4-4.7,1.2-6l-1.9-0.7c0.7-2,0.7-4.1,0.7-6.8l-1.8-0.4
		c-0.7-2.6,3-5.1,3.9-8.6c0.6,0.4,0.1,1.2-0.5,1.7c2.6-1.4,2.6-3.7,2.5-6.1c-0.1-2.4-0.4-4.7,1.7-6c-0.3-1.1,0.2-1.7,0.8-2.2
		c0,0.1,0,0.2,0,0.3c0.1-0.1,0.1-0.2,0.2-0.4c0.4-0.3,0.9-0.6,1.4-0.9c-0.5,0.2-1,0.5-1.3,0.7c0.2-0.7,0.4-1.8,0.4-3l2,0.3
		c0-0.1,0-0.2,0-0.3c1.1-0.7-0.5-1.1-2.1-1.1c-0.1-0.6-0.3-1.2-0.5-1.8c3.2,0.3,0.1-3.1,3.6-3c-0.6-0.6-0.4-2.1-0.4-3.5
		c0.1-1.5-0.1-3-1.6-3.9c0.4,0.1,0.7-0.1,0.5,0.5c0.8-1,1.7-2,1.2-3.4l2.5,0.5c0,0-0.5-1-1-1.9c-0.5-1-1-1.9-1-1.9
		c2-0.9,3.1-1.1,4.2,1.1c-1-4.8,0.3-3.3-0.9-7.6l1.4,0.8c0.4-1.1-0.6-3.7,0.9-3.8c1-0.3,1.8-1.1,2.7-2.4c0.8-1.2,1.7-2.8,2.6-4.5
		c0.9-1.7,1.9-3.5,3-5.1c1.1-1.7,2.4-3.2,3.8-4.3c-4.7-1.1,3.4-1.7,0.3-3.8c1.2,0.2,2.2-0.3,2.5,1.1c0.8-3.5,4.1-3.6,2.7-7.2
		c1.1,0.2,1,1.5,1.7,1.5c-0.1-0.4-0.3-1.4,0.5-1.4c0.7,0,0.5,0.9,0.7,1.6c1.7-3.1-1-5.2-3.6-7.1c2.2-0.7,2.5-1.6,1.5-3.8
		c1.2,0,2.7-0.3,1.8,1.8c0.7-1,5.4-5.5,3.4-7.1c0.8,0,1.1-1.3,1.1-1.8c1.7-2.2,2.1-2.3,3.4-4.7l-0.8,0.4c-1.9-2.7,0.8-2.3,1.7-4.3
		l0.2,0.2c4.8-2.8,0.5-2.4,5.5-4.9l-1.7-0.9c-1.5-1.4-0.4-2,1.3-2.5c1.6-0.5,3.7-1.1,4-2.8l-1.5,0.1c-0.1-2.1,7.1,0,8.5-0.8
		c0.5,0,0.1,0.8,0,1.3c4.5-1.6-1.6-2,0-4.7c1.4,0.4,2.2,2.8,3.7,1.4c0.8,0,0.9-1.9,1.3-3.8c0.5-1.9,1.2-3.8,3.1-4
		c-1.2-0.2-2.4-0.5-2-2.1c1.2-1.9,6.9-1.6,5.9-5.3c0.4,0,0.7,0.1,0.9,0.3c0.3-0.9,1-2.1,1.5-3.4c0.6-1.2,1-2.5,0.8-3.5
		c2.9,1.8,4.2-0.6,5.3-2.9c1.2-2.3,2.2-4.5,4.3-2.2c0,0,0.9-0.9,1.8-1.9c0.4-0.5,0.9-0.9,1.3-1.2c0.3-0.3,0.6-0.6,0.6-0.6l0.3,0.6
		c2.8-1.8,2.7-3.7,2.7-5.6c0.9-0.2,0.8,0.6,0.9,0.9c4.5-2.1,4.7-2.5,6.1-7.5l1.5,1.3c0.1-0.8,2-1.2,4.1-2c1.1-0.4,2.2-0.9,3.2-1.6
		c1-0.7,2-1.5,2.6-2.6c0.1,0.2,0.2,0.6,0.1,1c1.5-2.4,4.9-3.1,7.7-3.9c2.7-0.8,4.7-1.9,3.7-5.5l2.2-3.3c-4.3,1.8-1-3.1-3.2-3.2
		c1.4-1.3,5.2-0.5,3.4,1l-0.5-0.1c0.6,1.8,2,1.4,3.4,0.8c1.4-0.6,2.8-1.3,3.4-0.1c2-1.1,4-2,6-2.9c2.1-0.8,4.1-1.5,6.2-2.2
		c4.1-1.4,8.1-2.4,12-3.8l-1.9-2.4l2.8-0.8c0.9,0.4,1.7,1.8-0.2,2.4c1.5,1.2,2.8-2.4,2.6-3.1c4.2-0.2-0.4,3.7,0.8,3.4l1.5-0.7
		l-0.5-0.2c0.9-1.6,0.6-2.8,3-3.4c1.7,0.1,1.3,1.5,1.9,1.4c0.1,0.2,0.3,0.2,0.9-0.2l3.5-0.7l-2-1.9c1.3-1.6,3.4-0.7,1.1-2.9
		c0.9,0.8,2.1,1.1,3.6,1.1c1.5,0,3.1-0.2,4.7-0.6c1.6-0.3,3.2-0.7,4.4-0.9c1.3-0.2,2.2-0.3,2.7,0c1-1,2-1.6,3.2-1.9
		c1.2-0.3,2.4-0.4,3.8-0.5c-0.7-0.4-1.4-3,1-2.9c-0.2,2.7,1,3.2,2.4,3.5c1.5,0.3,3.2,0.4,4.3,2.3c-0.9-1.3,0.8-1.5,2.3-1.8
		c1.5-0.4,3-0.7,1.6-2.6c2,0.4,0.1,2,1.6,3.3c1.2-0.5,2.4-0.7,3.6-0.6c1.3,0.1,2.6,0.3,3.9,0.7c2.6,0.7,5.3,1.6,8.1,1.7
		c0.2-0.7-0.6-1.9,0.8-2.7c0,0,0.6,1,1.2,2c0.6,1,1.2,2,1.2,2c1.1-0.1,1.8-3.8,3.3-1c-0.2-0.6-0.4-1.6,0.4-1.7
		c5.1,2.9,10.5,3.9,15.9,5.9c1.3,0.5,2.6,1,3.9,1.7c0.6,0.3,1.2,0.7,1.8,1c0.6,0.4,1.2,0.8,1.7,1.2c0.5,0.4,1.1,0.9,1.6,1.4
		c0.5,0.5,1,1.1,1.4,1.6c0.9,1.1,1.6,2.4,2.2,3.9c-0.3-1.9,0.5-1.5,1.5-0.8c-0.4-0.7,1.1-1.4,1.6-2.2c0,0,0.1,0.3,0.3,0.8
		c0.2,0.5,0.4,1.1,0.6,1.7c0.2,0.6,0.4,1.2,0.6,1.7c0.2,0.5,0.3,0.8,0.3,0.8c1.2-0.7,2.1,0.1,3,0.9c0.9,0.8,1.6,1.7,2.8,1l-1.3-0.8
		c1.7-0.3,2.5-2,3.1-3.9c0.6-1.9,0.9-4.1,2.4-5.4c-1,0.2-1.6-0.3-2.1-1c-0.5-0.7-0.8-1.7-1.1-2.7c-0.7-2.1-2-4.1-5.1-3.4
		c-0.3-1.2,1.4-0.5,1.5-1.5c-1.8,0.7-3.1,0.3-4.7-1.7l0.4-0.2c-1.5-0.8-2.7-1.5-3.8-2.3c-1.1-0.8-2.1-1.5-3.1-2.3
		c-1-0.8-2.1-1.6-3.3-2.5c-1.2-0.9-2.6-1.8-4.3-2.7l-0.2,2c-1.4-0.8-1.5-1.5-2.1-2.2c-1.4,1.1-0.3,1.4,0.8,1.9
		c1.1,0.5,2.1,1,0.7,2.2c-0.3-2.2-3-3.2-5.6-4.1c-1.3-0.4-2.6-0.9-3.6-1.5c-1-0.6-1.7-1.3-1.8-2.5c-2.5-0.6,0.2,2.3-2.2,1.7
		l-0.4-1.3l-0.9,1.4c-1.5-0.6-2.1-2.2-1.9-3.2c0.4,0.2,1.2-0.1,1.6-0.1c-0.9-0.9-2.5-1.1-3.8-1.1c-1.4,0-2.6,0.2-2.9-0.1l2.3,1.1
		c-1.7,0-3.5-0.2-5.4-0.3c-0.9-0.1-1.8-0.2-2.8-0.3c-0.9-0.1-1.9-0.1-2.8-0.2c-3.7-0.2-7.5-0.1-10.7,1.1l0.5,0.9
		c-4.8,1.8-4-0.9-9.3,0.2l0.2-0.2c-1,0.9-2.4,1.6-3.8,1.6c1.3-1.2-2.8-1.8-1.1-3.1c-2.6,1.2-3.2,1.6-3.5,2.2
		c-0.4,0.6-0.5,1.3-1.9,3.2l-1-1.3c-1,1.5-0.9,2.2-3.5,3c1.9-1.7-2.1-1.9,0-4c-3-1.1-5,0.1-6.5,1.1c-1.5,1-2.7,1.7-4.5-0.3
		c-0.8,2.3,0.6,2.6,1.9,2.4c1.3-0.1,2.7-0.7,2.1-0.1c1.4,1.1-1.4,3.4-3.1,3.5c-0.9,0.2-1.9-0.9-3.3-1.9c-1.4-1-3.1-1.8-5.3-1.1
		c0.4-0.1,0.4-0.4,0.8-0.5c-1.9-0.5-2.8,2.3-5.3,1.3c-0.3,2.7-2.6,0.7-1.9,3.8c0,0,0.9-0.5,1.8-1c0.9-0.5,1.8-1,1.8-1
		c-1,0.7-1.7,2.2-2.7,3.4c-1,1.2-2.2,2.1-4.3,1.9c0.1-0.7,0.8-1.9,1.4-2.6c-1.4-0.5-1.8,1.3-3.2,0.8c-0.4-1.5,0.7-2.1,2.1-2.7
		c1.4-0.6,3.1-1.1,3.9-2.7c-1.6-0.9-3.8,3.7-3.7,0.1c-0.1,2.4-1.2,2.6-2.5,2.8c-1.3,0.2-2.8,0.3-3.6,2.5l-0.5-1.8
		c-0.3,0.5-0.9,1.7-1.8,2l0.6-2.9c-0.8,1.4-2.1,1.5-3.4,1.4c-1.3-0.1-2.7-0.2-3.6,0.8c4.6-2.1,2,1.6,4.4,2c-1.2,1.2-2,1.6-2.8,1.6
		c-0.8,0-1.5-0.4-2.2-0.9c-1.5-0.9-3.2-1.9-6.1,0c0.7-0.6,3.7-0.5,2.7,0.9c-1.3,0.2-3.2,0.3-4.4-0.2c-3.9,2.5,1.5,1.4,0.3,3.4
		c-2.4-1.3-1.5,1.9-2.9,3.4l-0.9-1.7c-5.1,1.3,0.7,4.1-4,5.1l0.4-3.3l-1.8,1.8l-0.6-2.2c-1.5,2.7-2.4,2.8-5,3.5
		c1.2,0.9,1.5,3.2-0.4,4.4c-1.9-0.2-0.2-2-2.8-0.1c0-1.4-0.1-3.1,2-2.4c-0.2-0.6,0-1.4-0.2-2c-2.1-0.2-3.8,2-4.7,2.6
		c0.4-0.2,0.9-0.4,1.3-0.3c0,0-0.6,1.2-1.3,2.4c-0.3,0.6-0.6,1.2-0.9,1.6c-0.2,0.5-0.4,0.8-0.4,0.8c-1-0.2-0.8-1-0.7-1.8
		c-0.7,0.7-0.7,1.8-1.8,2.7c-0.6-1.5-1.5-2.8-0.3-4.5l-2.8,4c-0.6-0.4-3-0.2-2.8-1c-1.3,0.3-2.1,1.8-3,3.4c-0.9,1.6-1.9,3.1-3.6,3.6
		c0,0.3-0.1,0.8-0.5,1.4c-2.7,1.6-6,1.8-7.5,5.8l-3.4-0.8c-1.8,2.4,4.4,0.9,1.5,4.8c-2,2.9-2.5-1-3.9-0.8c-0.2,1.1-0.4,2.6-0.9,4
		c-0.6,1.3-1.6,2.5-3.5,2.7C139.2,90.7,140.1,90.5,140.6,89.7z M116.8,115.6c0.1-0.8,0.1-2.6,1.3-2.2
		C119.2,115.4,118,115.1,116.8,115.6z M89.5,160.9c-0.3-0.8,0.4-1.2,1.5-1.6C90.8,159.9,90.3,160.5,89.5,160.9z M53,299
		C53,299,53,298.9,53,299C53.9,297.6,53.5,298.1,53,299z M51.7,301.8c0.2,0.3,0.5,0.4,0.8,0.3c-0.4-0.3-0.4-0.9-0.1-1.7
		C51.8,300.5,51.4,300.8,51.7,301.8z M231,57.3l-0.7-0.3C231.4,56,231.2,56.6,231,57.3z"/>
	<path class="st0" d="M90.4,154.4c0.4,0,0.7,0.2,1,0.3C91.3,154.4,91,154.2,90.4,154.4z"/>
	<path class="st0" d="M157,74.9c0,0,0.1,0,0.1,0c0-0.1-0.1-0.2-0.1-0.3L157,74.9z"/>
	<path class="st0" d="M45.9,252.2c0.4-0.5,0.9-0.8,1.3-0.9C46.8,251.1,46.3,251.3,45.9,252.2z"/>
	<path class="st0" d="M52.9,317.8l-0.3-1.9c0,0.9-0.5,1.2-0.8,1.6C52.2,317.5,52.9,317.2,52.9,317.8z"/>
	<path class="st0" d="M39.5,333.4c0.2,0.3,0,0.6,0.2,0.9l0.9,0C40.7,333,40,332.1,39.5,333.4z"/>
	<path class="st0" d="M46.3,318.9c-1.6,0-1.2,1.2-1,2.6c0-0.1,0-0.2,0-0.2C47.5,321.8,46.8,320.4,46.3,318.9z"/>
	<path class="st0" d="M45.3,321.8c0,0.4,0,0.8-0.1,1.2C46.1,323.3,45.4,322.5,45.3,321.8z"/>
	<path class="st0" d="M52.2,305.7c-0.5,0.6,2,0.7,1.3,1C55.4,307.6,51.6,302.1,52.2,305.7z"/>
	<polygon class="st0" points="40.8,319.4 42.9,319.1 41.4,318.2 	"/>
	<path class="st0" d="M43.6,308.9l-0.8,2.1c0.3,0,0.5,0.3,0.6,0.7C43.6,310.3,44.2,308.9,43.6,308.9z"/>
	<path class="st0" d="M43.3,311.6c-0.1,0.7-0.2,1.4,0.1,1.8C43.5,313,43.5,312.2,43.3,311.6z"/>
	<polygon class="st0" points="40.6,316.3 41.1,315.8 41.4,314.2 	"/>
	<path class="st0" d="M47.9,285.8l-0.1-2.4c-0.6-0.4-1.2,0.2-1.1,1.1C47,285.1,47.1,286.1,47.9,285.8z"/>
	<path class="st0" d="M41.1,291.9c0.5-0.6,1-0.5,1.7-0.8l-2.4-0.5L41.1,291.9z"/>
	<path class="st0" d="M41.8,284.9c-0.6-0.4-1.2-3.8-1.7-0.8C40.8,284.5,40.9,287,41.8,284.9z"/>
	<polygon class="st0" points="53.5,250.5 53.4,251.1 57.3,252.1 	"/>
	<path class="st0" d="M54.6,216.9c-1.9,2.4,2.1,1.5,0.1,3.6c0.7,1,1.7-1.7,2.2-0.7C56.5,217.7,57.4,217.1,54.6,216.9z"/>
	<path class="st0" d="M56.9,219.7c0.1,0.3,0.1,0.7,0.3,1.1C57.1,220.2,57,219.9,56.9,219.7z"/>
	<path class="st0" d="M326.5,74c0,0,0.1,0.4,0.3,0.8c0.1,0.4,0.2,0.9,0.2,0.9l0.3-1.7L326.5,74z"/>
	<path class="st0" d="M330.8,74.2l-1.7,2c0,0,0.6-0.2,1.2-0.4c0.6-0.2,1.2-0.4,1.2-0.4C331.3,75.2,330.6,74.8,330.8,74.2z"/>
	<path class="st0" d="M109.4,116.2l0.4,0.5c0.7,0.2,1-0.1,1.7-0.7L109.4,116.2z"/>
	<polygon class="st0" points="128.3,98.4 128,98.7 130.2,99.8 	"/>
	<path class="st0" d="M142.3,81.5c-0.7,0.5-1.2,1.6-2,2.1C141.6,82,144.4,83.6,142.3,81.5z"/>
</g>
<g>
	<path class="st0" d="M90.4,296.3c0.2,0-1.1-1-1.4-1.2C89.2,295.5,90.8,296.5,90.4,296.3z"/>
	<polygon class="st0" points="91.8,300.6 91.3,300.2 92.4,301.5 	"/>
	<path class="st0" d="M90.4,302.5c2.4,1.6,0.2-1,1.2-0.7l0.6,0.3l-1.7-1.6C90.4,301.2,91.2,302.7,90.4,302.5z"/>
	<path class="st0" d="M84.7,299.7c0.9,0.6,0.6,0.8,0.5,0c-0.1-0.1-0.2-0.1-0.3-0.1C84.9,299.6,84.8,299.7,84.7,299.7z"/>
	<path class="st0" d="M84.9,299.6C85,299.3,84,299.1,84.9,299.6L84.9,299.6z"/>
	<path class="st0" d="M84.7,300.9l-0.6-0.9c-0.6-0.3-0.9-0.2-1.2-0.6C83.1,300.1,83.7,300.4,84.7,300.9z"/>
	<path class="st0" d="M86.2,302.4l-0.2-0.4C85.7,301.9,85.6,301.9,86.2,302.4z"/>
	<path class="st0" d="M85.4,301.2l0.5,0.8c0.4,0.2,1.1,0.8-0.2-0.3C86.4,302.2,85.8,301.7,85.4,301.2z"/>
	<path class="st0" d="M85.9,301.3c0.6,0.2,1.1,0.3,1.7,1.1C87.6,301.7,86,300.5,85.9,301.3z"/>
	<path class="st0" d="M92.6,304.4l0.8,0.3l-0.6-0.7C93.1,304.3,91.9,303.8,92.6,304.4z"/>
	<path class="st0" d="M82.2,301.7c0.5,0.4,1.4,0.9,2,1.3l-0.4-0.6C83.4,302.3,83,302.2,82.2,301.7z"/>
	<path class="st0" d="M84.3,303l0.6,0.9C85.2,303.7,84.8,303.4,84.3,303z"/>
	<polygon class="st0" points="88.7,304.4 87.3,302.6 88.6,304.5 	"/>
	<polygon class="st0" points="81.3,302.8 80.3,301.8 81.8,303.4 	"/>
	<path class="st0" d="M81,303.7c-0.9-0.8-1.7-1-2.2-1.5c0,0.3,0.7,1.1,1.3,1.8C79.8,303.5,80,303.4,81,303.7z"/>
	<path class="st0" d="M81,305c-0.2-0.2-0.5-0.6-0.9-1C80.2,304.2,80.5,304.5,81,305z"/>
	<path class="st0" d="M84.3,304.3c-0.3-0.2-1.1-0.7-1.6-0.8l1.5,0.9C84.2,304.3,84.2,304.3,84.3,304.3z"/>
	<path class="st0" d="M84.2,304.4L84.2,304.4c-0.2,0.1-0.3,0.1-0.3,0.2C83.9,304.5,84,304.5,84.2,304.4z"/>
	<path class="st0" d="M84.3,304.2C84.3,304.2,84.3,304.2,84.3,304.2C84.4,304.3,84.5,304.4,84.3,304.2z"/>
	<path class="st0" d="M86.9,304.2c0.6,0.7,1.2,1.7,2.6,2.2C88.6,305.6,87.8,305.3,86.9,304.2z"/>
	<path class="st0" d="M86.1,305.4l0.5-0.1c-0.4-0.3-0.9-0.6-1.3-1L86.1,305.4z"/>
	<polygon class="st0" points="86.5,305.8 86.1,305.4 85.9,305.4 	"/>
	<path class="st0" d="M82.7,305.4c0.5,0.6,0.4,0.8,0.4,1c0.4,0,0.7-0.1,0.8-0.2C83.5,305.8,82.8,305.1,82.7,305.4z"/>
	<path class="st0" d="M83.5,305L83.5,305C83.7,305.1,83.8,305.2,83.5,305z"/>
	<path class="st0" d="M81.9,308c0.1,0,0.2,0.1,0.3,0.2L81.9,308L81.9,308z"/>
	<path class="st0" d="M84.2,306.3c0.4,0.1,0.1-0.3-0.3-0.7c0.1,0.2,0.1,0.4,0,0.5C84.1,306.3,84.2,306.4,84.2,306.3z"/>
	<path class="st0" d="M81.3,305.9c0.3,0.1,0.6,0.2,0.9,0.3C81.7,306,80.9,305.6,81.3,305.9z"/>
	<path class="st0" d="M83.2,304.8C83.2,304.8,83.1,304.8,83.2,304.8C82.8,304.6,82.9,304.7,83.2,304.8z"/>
	<path class="st0" d="M83.2,304.8c0.1,0.2,0.5,0.5,0.7,0.8c0-0.2-0.1-0.3-0.3-0.6C83.5,305,83.3,304.9,83.2,304.8z"/>
	<path class="st0" d="M90.6,314.8c-1.3-0.9-2.2-2.1-0.6-1.4c-0.8-1-5.2-3.8-7.7-5.2c0.6,0.4,1.1,0.8,1.6,1.6
		c0.8,0.4,2.1,0.5,3.1,1.6c0.4,0.9-0.7,0-1.5-0.3c1.7,1,2,2.2,4.4,3.7l-0.6-0.9C89.6,314.1,90.1,314.7,90.6,314.8z"/>
	<path class="st0" d="M82.7,307.7l-0.1-0.2c-0.3,0-0.9-0.3-2.1-0.8c0.5,0.7,0.9,1,1.4,1.4l0.6-0.5L82.7,307.7z"/>
	<path class="st0" d="M83,306.9c1.3,1.1,1.7,1.8,3.4,2.7c0.2-0.4-1-1.1-1.4-1.7c-0.1,0.8-0.7-0.7-1.8-0.9c-0.2-0.3-0.1-0.4-0.1-0.6
		c-0.2,0-0.5-0.1-0.9-0.1c0,0,0.1,0,0.1,0l0,0c0,0,0,0,0,0c0.2,0.1,0.3,0.2,0.2,0.1c0,0,0,0,0,0C82.7,306.6,82.9,306.7,83,306.9
		c-0.4,0-0.4-0.2-0.5-0.4c-0.1-0.1-0.1-0.1-0.2-0.2c0,0,0,0,0,0l0.3,1.2C82.9,307.4,83,307.3,83,306.9z"/>
	<path class="st0" d="M92.2,308.9c-0.1-0.1-0.2-0.1-0.3-0.2C92,308.9,92.1,309,92.2,308.9z"/>
	<path class="st0" d="M91.2,308.6c-0.2-0.2-0.7-0.6-0.4-0.7c0.5,0.2,0.7,0.5,1.1,0.8c-0.3-0.4-0.8-1-1.6-1.3l0.2,0.2
		c-0.6-0.1-2.6-1.1-2.8-1.3C88.9,307.2,89.9,307.8,91.2,308.6z"/>
	<path class="st0" d="M87.5,308l0.3,1l1.4,0.6l-0.7-0.5C89,309,88,308.4,87.5,308z"/>
	<polygon class="st0" points="81.2,307.6 79.7,306.5 81.6,308.3 	"/>
	<polygon class="st0" points="80.9,308.4 79.6,307.5 80.2,308.2 	"/>
	<path class="st0" d="M76.8,356.3l0.3,0.3C77,356.5,76.9,356.4,76.8,356.3z"/>
	<path class="st0" d="M77.3,355.2l-0.7-0.3C77,355.1,77.3,355.3,77.3,355.2z"/>
	<path class="st0" d="M70.4,325.4c-1.4-0.5-3.6-1.4-2-0.5l1.6,0.8C69.7,325.4,70,325.4,70.4,325.4z"/>
	<path class="st0" d="M73.3,342.1c0.2,0.1,0.3,0.1,0.5,0.2c-0.5-0.3-1-0.6-1.4-0.9C72.6,341.6,72.9,341.9,73.3,342.1z"/>
	<path class="st0" d="M79.6,345.4l-1.1-0.2C78.9,345.4,79.2,345.4,79.6,345.4z"/>
	<path class="st0" d="M76,363.2l1.6,0.8C77.7,363.7,76.8,363.5,76,363.2z"/>
	<path class="st0" d="M76.8,315.7c-0.7-0.2-1-0.2-1.2-0.1C76.6,315.9,78,316.5,76.8,315.7z"/>
	<path class="st0" d="M60,348.6c0.2,0.2,0.6,0.4,0.9,0.6C60.7,349,60.4,348.8,60,348.6z"/>
	<path class="st0" d="M75.2,316.2c0.2,0.1,0.3,0.1,0.4,0.1c-0.2-0.3-0.3-0.6-0.1-0.7C74.8,315.4,74.3,315.4,75.2,316.2z"/>
	<path class="st0" d="M67.3,385.6c-0.1,0-0.1,0-0.2,0C67.3,385.6,67.3,385.6,67.3,385.6z"/>
	<path class="st0" d="M48.5,388.6c-0.1-0.1-0.1-0.2-0.1-0.3C48.4,388.3,48.3,388.4,48.5,388.6z"/>
	<path class="st0" d="M78.4,310.7C78.4,310.5,78.2,310.6,78.4,310.7L78.4,310.7z"/>
	<path class="st0" d="M84.5,313.8c0.1,0.1,0.3,0.3,0.7,0.5C84.9,314.1,84.7,314,84.5,313.8z"/>
	<path class="st0" d="M83.5,323.4C83.5,323.4,83.5,323.4,83.5,323.4C83.8,323.5,83.7,323.5,83.5,323.4z"/>
	<path class="st0" d="M79.2,310.9c-0.2-0.1-0.4-0.1-0.6-0.1C78.8,310.9,78.9,310.9,79.2,310.9z"/>
	<path class="st0" d="M78.5,310.5c0.1,0,0.2,0,0.2,0C78.5,310.3,78.3,310.2,78.5,310.5z"/>
	<path class="st0" d="M78.3,310.9c0-0.1,0.2-0.1,0.3-0.1c-0.1,0-0.2-0.1-0.2-0.1C78.4,310.7,78.4,310.8,78.3,310.9z"/>
	<path class="st0" d="M66.5,371.7c-0.1,0-0.1,0-0.2,0C66.9,372.1,66.8,372,66.5,371.7z"/>
	<path class="st0" d="M84,338C84,337.9,84,337.9,84,338c-0.1-0.1-0.1-0.1-0.1-0.1L84,338z"/>
	<path class="st0" d="M84.9,339.1c-1.8-1.2-1.5-1.2-1-1.2l-4.5-2.2L84.9,339.1z"/>
	<path class="st0" d="M76.1,359.2l1.6,0.2c2.2,1.4,1.2,1.4,3.4,1.9c-5-2.1,0.1-1.6-4.9-3.7l1.2,0.2c-0.1,0,0.2,0.2,0.1,0.2
		c2.6,0.5-3.5-1.9-2.5-2.2c0.5-0.1,1.3,0.1,1.8,0.5l-1-1c0.2-0.1,1,0.3,0.9,0.4l-0.1-0.9l0.1,0.1c-0.7-0.4-1.8-1.2-2.3-1.5
		c0.8,0.1,0.5,0.3,1.1,0.5l-1-0.9c1.4,0.4,2.5,1.3,2.2,1.5c5.1,1.8-1.1-0.9,2.1-0.4l0.5,0.6c2.9,1,2,0.3,4,0.6
		c-1-0.3-4.8-1.1-5.8-2.1c0.4,0,0.7,0-0.2-0.7c1.8,0.8,1.4,0.4,1.5,0l2.3,1.1c-0.5-0.6-1.7-1.1-2.7-1.8c0.4-0.2,2.2,0.5,3.8,1.1
		c0.6-0.4-3.1-0.9-3.2-1.8c1.1,0,0.3-0.8-0.9-2c0.9,0.1,1.4,0.7,2.1,0.9l-1.7-1.1c0.1,0,0.6,0.2,0.9,0.4c-0.6-0.6-2.3-1.1-2.8-1.8
		c-2.5-1.3,4.1,1,1.4-0.8c0.7,0.2,1.4,0.7,2.3,1.1c-1.6-1.5-1.1-1.2-3.4-2.9l1.7,0.3c-1.9-0.5-3.7-1.9-5.2-3.1
		c-0.9-0.3-1.7-0.5-2.1-0.6l-0.9-1.2c0.4,0.1,1.2,0.6,2.1,1.1c-0.2-0.1-0.3-0.3-0.5-0.4c1,0.2,2.2,1,3.4,1.8c-0.5-0.2-1-0.3-1.5-0.5
		c1.3,0.8,2.8,1.7,4.2,2.4c-0.2-0.2-0.4-0.4-0.5-0.5c0.4,0.2,0.7,0.4,0.9,0.5c0.3,0.1-0.2-0.2-0.8-0.6l2.6,1.1l-1-0.5l2,0
		c-2.3-1.8-5.9-4.2-6.5-5.6c1.7,1.2,3,1.6,5.2,2.7c-2.5-1,0.7,1.2,0,1.4c0.4-0.1,1.4,0.5,1.7,0.7l-1.7-1.9c1.8,0.9,1.4,0.5,2.3,0.7
		c-3.6-1.7-2.1-1.8-3-2.7c1.2,0.6,2.4,1.3,1.9,1.5c2.9,1-3.9-2.7-1.4-2c0,0.1-0.2,0.1,0.4,0.4c-0.9-0.8,0.2-0.9,1.2-0.2l0,0.1
		c0.8-0.4,1-1.9-1.9-3.6c0.4,0.2,3.6,2,4.2,2.4c0,0-2.4-1.6-4.7-3.3c-2.4-1.7-4.7-3.3-4.7-3.3c2.5,1.5,8.8,4.4,10,5.8
		c0.4,0.1,1,0.1,0.2-0.7c-0.4-0.1-3.8-1.8-4-2c3.1,1.2,1.7,0.6,4.4,1.4c-0.6-0.2-4.6-2.5-4.3-2.7c0.6,0.4,4,2.2,4.3,2.5l-3.6-2.8
		c0.6,0.5,3.3,1.9,4.5,2.4c-0.8-0.4,0.4-0.5,0.1-0.8l-1.1-0.3c1-0.3-5.1-3.8-4.5-4.3c0.8,0.5,4.9,3,5.5,3c-1.9-1.3-9.2-6.2-10.4-7.7
		l1.2,0.5l-1-1.2c2.8,2.1,8.7,6.5,10.9,8.4c1,0.3,1.4,0.7,1.5,0.3c1.1,0.5,1.5,1.1,1.5,1.3l1.2-0.5c-2.4-1.3-2-2-3.9-3.1l1.9,2.3
		c-2.3-1.3-6.3-4.4-5.5-4.8c1,0.4,4.1,2.5,4.8,3c-0.8-0.5-1.2-1.5-0.6-1.2l1.1,1c1.1,0.2-2.7-2.4-0.3-1.5c0.2-0.1,3.2,1.4,1.9,0.5
		c-2.8-1.4-10.9-6.2-12.8-7.5c0.2,0.1,3,0.7,4.4,1.4c2.2,1,4.7,3.3,6.6,4.2c-0.6-0.4-1.3-1-1.5-1.2c0.6,0.2,1.9,1.2,1.8,0.7
		c-2.3-1.5,0.6-0.5-1.9-1.4c-0.5-0.7,0.7,0,0.8-0.5c-1.6-0.8-4.9-3.5-5.4-4.2c0.6,0.4,1.4,0.8,1.8,1c0.6-0.5,1.9-0.2,2.3-0.8
		c0.6,0.3,1.5,0.4,2.4,1.2c-0.4-0.3-1.1-0.9-1-1.1c2.2,0.9,0,0.6,2.6,1.9c-1.3-0.9-1.5-1.6-2.2-2.4c-2.1-1.2-0.8,0.4-0.1,1.1
		c-2.9-1.8-5.5-4.2-6.4-5.7c-0.4-1,2,1,1.6,0.6c1.1-0.6-4.4-4-1.8-3.5c2,0.9,3.6,2.3,4.9,3.1c0.4,0.9-1.5-0.1-1.7,0.2l1.1,0.2
		c0.5,0.5,0.8,1.1,0.2,0.9c1.8,0.8,1.3-1.4,3.3-1.1c-0.5-0.5-1-1.2-1.8-1.5l0.1,0.4c-1.6-0.8-1.7-1.8-2.6-1.9c-0.8-1-2.1-2.4-1-2.3
		l2.1,1.3c-0.6-0.4-1.4-0.5-0.9,0c-0.8-0.8,3.2,1.2,0.7-0.8l-1.6-0.7c-0.8-1-2.7-2.9-1.8-2.8c-2.1-1.2,0.2,0.2-2.4-1.1
		c3.1,1.8-0.8,0.9,2.5,2.6c-2.9-1.6-1.5-0.3-4.1-1.5c0.7,0.4,1.4,0.7,0.8,0.8c0.2,0.1,0.4,0.4,0.5,0.5c0,0,0,0-0.1,0l0.1,0
		c0.1,0.1,0.1,0.1,0,0c0.3,0.1,0.7,0.3,1.1,0.5c1.4,1.2,1,1.7,1.7,2.4c-0.5,0-0.7-0.6-1.5-1l1,1.1c-1.5-1-2.8-1.1-3.4-2.2l-0.3,0.4
		c-1-0.3-1.6-0.2-1.1,0.5c-0.5,0,1.3,1.6,0.3,0.7l0.5,1.3l-0.4-0.2c-0.6,0.5,1.6,3-1.6,2c0.2,0.5,0.6,1-0.1,1.1l-1.4-0.8
		c0.3,0.6-1.9,0.1-0.6,1c-3.7-1.9-1.6,1-2.6,1.1l1.7,1.1c-0.3,0.3,0,0.9,0.4,1.8l1.6,0.9c1,1.1-1.7,0.3-1.9,1
		c-0.6-0.4-0.3-0.4,0.1-0.3c-3.9-1.3,1.7,3-1.2,2.2c0.5,0.5,0.2,0.5-0.2,0.4c0,0,0,0-0.1-0.1c0,0,0,0-0.1,0.1
		c-0.3-0.1-0.7-0.2-1-0.2c0.4,0.1,0.8,0.3,0.9,0.3c0,0.1,0,0.4,0.3,0.9l-1.7-0.9c0,0,0,0,0,0.1c-0.7-0.2,0.7,0.6,2,1.2
		c0.2,0.2,0.5,0.5,0.9,0.8c-2.8-1.4,0.6,1-2.4-0.4c1.3,0.9,0.5,1.5,3.5,3.3c-0.4-0.2-0.6-0.3-0.6-0.4c-0.5,0-0.9,0-0.2,0.7l-2.2-1.1
		l2.6,2c-1.5-0.4-2.3-0.7-3.8-1.9c2.2,2.1,0.7,1.1,2.9,3l-1.4-0.8c-0.1,0.2,1.6,1.6,0.4,1.1c-2.9-1-1.5,2-4.6,1.9
		c4.3,1.9-2.1-0.4,1.1,1.3c-1-0.4-1.7-0.5-2.4-1.2c0.7,1.1-2,0.1,0.5,1.9c-1-0.4-1.4-0.9-2-1.1c0.2,0.2,0.8,0.6,0.1,0.4
		c-0.6-0.2-0.8-0.5-1.2-0.8c-0.1,0.7,2.9,2.3,5.7,3.7c-1.5-0.4-1.4-0.1,0.4,1c-1-0.4-2.1-0.6-2.2-1.2c-0.2,0.1-2,0.7,0.3,1.8
		c-0.6-0.2-0.3,0.2-0.1,0.4c-0.4,0.4-0.6,0.4-0.6,0.9l0.4,0c2.7,1.5,0.4,0.7,0.6,1.2l-0.3-0.1c-2.4-0.1,0.8,0.8-1.9,0.6l1.8,0.8
		c3.7,1.8-2.6-0.3-1.4,0.9l1.1,0.3c1.2,0.9-5.5-1.5-6.1-1.5c-0.4-0.1-0.5-0.3-0.7-0.5c-2.6-0.3,2.2,1.1,2.5,1.9
		c-1.3-0.5-3.1-1.5-3.5-1.3c-1.1-0.3,3.5,2.9,0.9,2.3c1,0.3,2,0.6,2.6,1.2c0.2,0.5-4.1-0.5-1.2,1.2c-0.3-0.1-0.5-0.2-0.8-0.3
		c0.7,0.6,0.9,1.5,2.5,2.4c-6.2-2.3,2.2,3.1-3.4,0.8l-0.1,1.1l-0.6-0.3c-0.6,0.4,0.7,1.2,1.9,2c-0.4,0-0.9-0.3-1.2-0.5
		c-1.5,0.4-1.3,0.6,1.3,2.4l-1.9-0.6c1,0.6-3.4,0.2-1.6,1.8c-0.2-0.1-0.6-0.2-0.8-0.4c1.8,1.8-6,0.4,0.6,3.3l1.4,1.2
		c0.8-0.6,2.9,1.2,4.2,1.3c0.3,0.5-2.3,0.1-2.6-0.4l0.4,0.1c-3.5-1.4-1.6,0.6-4-0.3c-0.4,1.7-3,2.6-3.6,4.1l2.8,0.7l-0.3,0.5
		c-0.7-0.1-2.2-0.5-2-0.9c-1.6-0.3,1.1,1.1,1.7,1.3c-1.4,0.4-3.2-1.3-3.3-1.1l0.1,0.4l0.3,0c1.1,0.6,2.3,1,2,1.5
		c-0.7,0.1-1.8-0.4-1.9-0.3c-0.2-0.1-0.3-0.1-0.1,0.2l-0.5,0.6l2.3,0.4c1,0.6-0.3,0.6,2.3,1.1c-4-0.7-2.2,2.1-3.4,2
		c1.5,0.9,1.3,1.3,1,1.8c0.5,0,3,0.7,2.6,1c-5.1-1.7-2.5,0.2-6.3-0.5c2.6,0.4,0.2,1.5,3.9,1.9c-0.5,0.3-1.9-0.5-3.2-0.6
		c1.7,1.4-1.8,1.6-1.5,2.9c0.7,0.2,1.8,0.3,2.7,0.8l-3.6-0.3c0.3,0.3,3.9,1.2,1.4,1c0.6,0.1,1.5,0.2,1.7,0.4c-1.9,0.7-1.6,2-1.5,3.2
		c0.1,1.2-0.2,2.3-3.6,2.7c1.4,0,1.5,0.2,1.5,0.5c0.4-0.1,1.7,0.4,2.6,0.6l-2.8,0.4c2.5,0.7,0,1,2.4,1.7l-0.4-0.4
		c2.8,1,6.6,0.8,10.3,1.7c-3.2-1.1,5.2,0,0.6-1.7c0.8,0,1.2,0.4,2.1,0.5c-1.6-0.5-1.9-0.8-1-1l0.4,0.1c-0.1-1.2,1.5-1.3,2.9-2.2
		l-1.9-0.4c0.3-0.2,0.9-0.1,1.4-0.1c-2.7-1-0.3,0.7-3.4-0.3c3.8,0.6,0.5-1.8,4.8-1c0.1-0.4-2.2-0.4-2-0.8l1.2,0.2l-1.5-0.5
		c0.3-0.2,1.8,0,2.8,0.3c-0.1,0,0.2,0.2,0.3,0.3c1.4,0-0.2-1.1,0.2-1.1l-0.8,0.2c-0.8-1.4,1-2.3-1-3.9l-0.9-0.2
		c-1.4-1.2,1.1-0.4,0.6-1.5l0.2,0.1c-0.8-0.4-1.2-0.8-1-1c0.9,0.5,2.1,0.2,3.1,0.8c-1.5-1.4-1.2-0.8-4.2-2.3L65,377
		c-1.2-0.6-1.9-0.8-2.1-1.4c1.1,0.7,2.2,0.4,3.7,1.3c3.4,0-2.7-2.3,1.9-1.3c-3.8-1.6-2.4,0.1-3.2-0.4c-1.3-0.2-2.8-1.3-2.3-1.4
		c0.2-0.3,5.2,1.1,5.3,0.3c0,0.1,0.3,0.2,0.2,0.2c1.1,0-1.2-1,0.5-0.8c-2.3-0.9,0.3-0.4-2.7-1.4l0.5,0.9c-0.7-0.6-4.1-2.1-2.2-2.2
		c0.6,0.2,1.3,0.7,1.7,1c0.9,0.1-0.5-0.5,0.5-0.4c3,1,0.4,1,2.6,2.2c1.3,0.2-1.9-1.5,1.3-0.2c-4.1-1.6,0.7-0.5-2.3-2.1l1.8,0.6
		c-0.3-0.2-1.1-0.6-1-0.7l2.3,1c-1.9-1.1,2-0.2,1-0.9c-0.2,0.8-2.2-0.6-3.7-0.7c-2.1-1.8,4.9,1,4.4-0.3c0.2,0.2-1.3,0.2-2-0.3
		c0.4-0.1,1.2-0.1,2.2,0.1c-0.1-0.8-1.9-0.5-2.9-1.2c2.3,0.5-0.8-0.7-1.3-1.2l1.8,0.6c1.5-0.4-3.7-1.6-2-1.8l2.4,1.2l-0.5-0.6l2,0.8
		c-1.4-1-0.9-1-0.2-1.2c-1.3-0.4-3.3-1.2-3.2-1.6c1.2,0.1,1.7,0.8,1.6,0.2c1.1,0.5,2.5,1.2,0.7,0.8c0.6,0.2,1.1,0.5,1.7,0.8
		c1.3,0.2,0.5-0.6,0.6-0.8c-0.1,0-0.2,0.1-0.5,0l-2.2-1.7c0.7,0.1,1.2,0.4,1.7,0.7c-0.1-0.2-0.9-0.6-1-0.9c1.4,0.6,3,1.2,3.5,1.7
		l-1.4-1.3c0.7,0.2,1.9,0.3,2.4,0.6c1-0.1-2.5-2-1.1-2.1c-0.3-0.1-0.5-0.3-0.7-0.5c0.5-0.4,2.5-0.1,0.7-1.4l2.7,0.7
		c-0.4-0.7-3.5-0.9-4.2-2c-0.6-0.9,2.3,0.7,3.1,0.8c-1.2-0.8-3.7-2.3-1.4-1.9C76.4,359,76,359,76.1,359.2z M77.3,353.2
		c0.3,0.3,1.4,1,0.3,0.6C75.6,352.8,76.6,353.2,77.3,353.2z M77,343c0.5,0.4,0.2,0.3-0.5,0.2C76.4,342.9,76.5,342.9,77,343z
		 M78.6,313.1C78.7,313.2,78.7,313.2,78.6,313.1C77.9,313,78.2,313.1,78.6,313.1z M79.7,313.1c-0.2-0.2-0.4-0.3-0.7-0.5
		c0.4,0.3,0.3,0.4,0.1,0.5C79.6,313.4,79.9,313.5,79.7,313.1z M53.6,369.5l0.5,0C54.5,369.9,54.1,369.7,53.6,369.5z"/>
	<path class="st0" d="M78.9,345.1c-0.3-0.1-0.6-0.3-1-0.4C78.2,344.8,78.5,345,78.9,345.1z"/>
	<path class="st0" d="M75.7,363C75.7,363,75.7,363,75.7,363c0.1,0.1,0.2,0.1,0.3,0.2L75.7,363z"/>
	<path class="st0" d="M88.8,329.2c-0.3,0-0.6-0.2-1-0.3C88.3,329.1,88.6,329.3,88.8,329.2z"/>
	<path class="st0" d="M78.7,308.7l0.2,0.6c0-0.2,0.4,0,0.7,0.1C79.2,309.1,78.6,308.8,78.7,308.7z"/>
	<path class="st0" d="M90.3,312.9c-0.2-0.2,0-0.1-0.1-0.3l-0.7-0.5C89.4,312.3,89.9,312.9,90.3,312.9z"/>
	<path class="st0" d="M84.2,312.1c1.4,0.9,1,0.4,0.9,0c0,0,0,0,0,0C83.2,310.8,83.7,311.4,84.2,312.1z"/>
	<path class="st0" d="M85.1,312c0-0.1,0-0.2,0.1-0.2C84.5,311.2,85,311.7,85.1,312z"/>
	<path class="st0" d="M79.2,311.9c0.4,0.1-1.7-1.2-1.1-0.9C76.4,309.7,79.7,313.1,79.2,311.9z"/>
	<polygon class="st0" points="88.7,314.9 87,313.9 88.2,314.9 	"/>
	<path class="st0" d="M86.3,315.7l0.7,0c-0.3-0.2-0.4-0.3-0.5-0.5C86.3,315.4,85.9,315.4,86.3,315.7z"/>
	<path class="st0" d="M86.5,315.2c0.1-0.1,0.1-0.2-0.1-0.5C86.4,314.8,86.4,315,86.5,315.2z"/>
	<polygon class="st0" points="88.9,315.7 88.5,315.6 88.2,315.7 	"/>
	<path class="st0" d="M83.6,319.1l0.2,0.7c0.6,0.4,1,0.5,0.8,0.3C84.4,319.7,84.2,319.4,83.6,319.1z"/>
	<path class="st0" d="M89,321c-0.4-0.1-0.8-0.4-1.4-0.7l2.1,1.4L89,321z"/>
	<path class="st0" d="M88.8,322.4c0.6,0.4,1.3,1.6,1.5,1.1C89.7,323,89.5,322.4,88.8,322.4z"/>
	<polygon class="st0" points="82.7,326.3 82.7,326.1 79.2,324 	"/>
	<path class="st0" d="M88.2,336c1.1,0.1-2.1-1.3-0.8-1.1c-0.8-0.6-1-0.2-1.7-0.7C86.4,335,85.8,334.8,88.2,336z"/>
	<path class="st0" d="M85.7,334.2c-0.1-0.1-0.3-0.3-0.5-0.4C85.4,334,85.5,334.1,85.7,334.2z"/>
	<polygon class="st0" points="46.1,389.4 45.2,389.6 46.6,389.6 	"/>
	<path class="st0" d="M48.9,390.7l-2.6-0.5l2.3,0.7C48.5,390.8,48.4,390.6,48.9,390.7z"/>
	<path class="st0" d="M82.4,354.6l-0.6-0.3c-0.6-0.2-0.7-0.2-0.9-0.1L82.4,354.6z"/>
	<polygon class="st0" points="78.9,357.7 79,357.6 76.8,356.9 	"/>
	<path class="st0" d="M80.3,362.1c0.1-0.1-0.3-0.5-0.1-0.5C80.5,362,77.6,361.1,80.3,362.1z"/>
</g>
<g>
	<path class="st0" d="M3.1,347.6C3.1,347.6,3.1,347.6,3.1,347.6C3.1,347.5,3.1,347.6,3.1,347.6z"/>
	<path class="st0" d="M2.8,347.1L2.8,347.1C2.8,347.1,2.8,347.2,2.8,347.1c0.1,0.2-0.1-0.4-0.1-0.4C2.8,346.8,2.8,347,2.8,347.1
		C2.8,347.2,2.8,347.1,2.8,347.1z"/>
	<path class="st0" d="M2.9,347.8c0.1-1.4,0-1.3,0-1c0,0.4,0,0.9,0,0.4l-0.1-0.6c0,0,0,0.4,0.1,0.8c0,0,0-0.1,0-0.1
		C2.9,347.5,2.9,347.6,2.9,347.8c0,0.1,0-0.1,0-0.1c0-0.1,0-0.1,0-0.1C2.9,347.5,2.9,347.6,2.9,347.8z"/>
	<path class="st0" d="M2.8,349.5c0-0.1,0,0.3,0-0.3c0,0,0,0,0,0.1C2.8,349.3,2.8,349.4,2.8,349.5z"/>
	<path class="st0" d="M2.8,349.2C2.9,349,2.8,349.4,2.8,349.2L2.8,349.2z"/>
	<path class="st0" d="M2.5,350.6l0.1-0.4c0,0.1-0.1,0.5-0.1,0.3C2.5,350.9,2.5,350.8,2.5,350.6z"/>
	<path class="st0" d="M2.4,351l0.1-0.2C2.5,350.8,2.5,350.8,2.4,351z"/>
	<path class="st0" d="M2.6,350.3l-0.1,0.5c0-0.1,0,0,0.1-0.2C2.5,350.6,2.6,350.5,2.6,350.3z"/>
	<path class="st0" d="M2.7,350C2.7,349.8,2.8,349.6,2.7,350C2.8,349.3,2.8,349.4,2.7,350z"/>
	<path class="st0" d="M3.1,344.8c0,0,0-0.2,0-0.4c0-0.2,0-0.4,0-0.4s0,0.2-0.1,0.5c0,0.2,0,0.5,0,0.5C3,344.5,3.1,345.7,3.1,344.8z"
		/>
	<path class="st0" d="M1.5,353.5c0.1-0.3,0.4-0.9,0.5-1.3l-0.3,0.7c0,0.1-0.1,0.3-0.2,0.4C1.6,353.4,1.6,353.4,1.5,353.5z"/>
	<path class="st0" d="M2,352.2c0,0,0.1-0.2,0.2-0.5c0.1-0.2,0.2-0.5,0.2-0.5C2.5,351.1,2.3,351.6,2,352.2z"/>
	<path class="st0" d="M3.3,348.1c0,0-0.2,0.5-0.3,1c-0.2,0.5-0.3,1-0.3,1s0.1-0.5,0.3-1.1C3.1,348.6,3.3,348.1,3.3,348.1L3.3,348.1z
		"/>
	<path class="st0" d="M1.1,354.5c0,0-0.7,1.4-0.5,0.9c0,0,0,0,0,0c0,0,0,0,0,0c0,0,0,0,0,0c0.1-0.2,0.2-0.4,0.3-0.7
		c0.3-0.5,0.5-0.9,0.5-0.9L1.1,354.5z"/>
	<path class="st0" d="M1.3,354.4c-0.6,1.1-0.9,1.6-1.3,2.3c0.1-0.2,0.6-1,1.1-1.8C0.8,355.3,0.9,355.2,1.3,354.4z"/>
	<path class="st0" d="M1.9,353.8c-0.2,0.2-0.5,0.6-0.7,1.1C1.3,354.6,1.5,354.3,1.9,353.8z"/>
	<path class="st0" d="M2.5,351.6c-0.1,0.3-0.5,1-0.7,1.6L2.5,351.6L2.5,351.6z"/>
	<path class="st0" d="M2.5,351.6L2.5,351.6c0,0.1,0,0.1,0,0.2C2.5,351.7,2.5,351.7,2.5,351.6z"/>
	<path class="st0" d="M2.5,351.6L2.5,351.6C2.5,351.5,2.6,351.4,2.5,351.6z"/>
	<path class="st0" d="M3,349.6c0.3-0.9,0.9-1.8,1.3-3.2C3.8,347.5,3.6,348.3,3,349.6z"/>
	<path class="st0" d="M3.3,349.7l0.1-0.4c-0.2,0.4-0.4,1-0.6,1.4c0,0,0.1-0.3,0.3-0.5C3.2,349.9,3.3,349.7,3.3,349.7z"/>
	<polygon class="st0" points="3.6,349.2 3.3,349.7 3.3,349.8 	"/>
	<path class="st0" d="M2.5,352.4c0.4-0.6,0.5-0.6,0.6-0.7c0.1-0.3,0.1-0.5,0.1-0.6C3,351.6,2.5,352.4,2.5,352.4z"/>
	<path class="st0" d="M2.6,351.9C2.6,351.8,2.6,351.8,2.6,351.9C2.7,351.7,2.7,351.6,2.6,351.9z"/>
	<path class="st0" d="M3.8,352.1c0.1-0.1,0.1-0.2,0.2-0.3L3.8,352.1L3.8,352.1z"/>
	<path class="st0" d="M3.4,350.8c0.1-0.3-0.1,0-0.4,0.5c0.1-0.1,0.2-0.2,0.3-0.2C3.4,350.9,3.5,350.8,3.4,350.8z"/>
	<path class="st0" d="M2.4,353.2c0.2-0.3,0.3-0.6,0.4-0.8C2.6,352.9,2.2,353.6,2.4,353.2z"/>
	<path class="st0" d="M2.4,352.2C2.4,352.2,2.4,352.3,2.4,352.2C2.2,352.6,2.3,352.4,2.4,352.2z"/>
	<path class="st0" d="M2.4,352.2c0.2-0.3,0.4-0.6,0.6-0.9c-0.1,0.1-0.2,0.3-0.3,0.5C2.6,351.9,2.5,352.1,2.4,352.2z"/>
	<path class="st0" d="M10.6,343.5c-1,1.2-2.1,2.2-1.3,0.7c-0.9,0.8-3.7,5.2-5.3,7.6c0.4-0.6,0.8-1.1,1.5-1.7c0.5-0.7,0.8-1.9,1.8-3
		c0.7-0.5-0.1,0.6-0.5,1.4c1.1-1.7,2-2.1,3.8-4.4l-0.9,0.6C9.9,344.4,10.4,343.9,10.6,343.5z"/>
	<path class="st0" d="M3.8,351.6l-0.2,0.1c-0.1,0.3-0.4,0.8-1.1,1.9c0.5-0.6,0.9-1,1.2-1.5l-0.1-0.4L3.8,351.6z"/>
	<path class="st0" d="M3.4,351.5c1-1.4,1.5-1.9,2.4-3.6c-0.3,0-0.9,1.1-1.4,1.7c0.5-0.2-0.6,0.8-0.9,1.7c-0.2,0.2-0.3,0.3-0.4,0.3
		c-0.1,0.2-0.2,0.4-0.3,0.7c0,0,0-0.1,0.1-0.1l0,0c0,0,0,0,0,0c0.1-0.2,0.2-0.3,0.1-0.2c0,0,0,0,0,0C3.2,351.9,3.3,351.7,3.4,351.5
		c-0.1,0.3-0.2,0.4-0.4,0.6c0,0.1-0.1,0.1-0.1,0.2c0,0,0,0,0,0c0,0,0.2-0.2,0.4-0.3c0.2-0.2,0.4-0.3,0.4-0.3
		C3.7,351.4,3.6,351.4,3.4,351.5z"/>
	<path class="st0" d="M5.8,343c0,0.1-0.1,0.3-0.1,0.4C5.8,343.2,5.9,343.1,5.8,343z"/>
	<path class="st0" d="M5.6,344.1c-0.1,0.2-0.4,0.8-0.4,0.6c0.1-0.5,0.3-0.8,0.5-1.3c-0.2,0.4-0.7,1.1-0.8,1.9l0.1-0.2
		c-0.1,0.6-0.8,2.7-0.9,2.9C4.7,346.6,5.1,345.5,5.6,344.1z"/>
	<path class="st0" d="M5,347.5c0,0,0.2-0.1,0.3-0.3c0.2-0.1,0.4-0.3,0.4-0.3l0.6-1.4l-0.4,0.8C5.8,345.9,5.3,346.9,5,347.5z"/>
	<polygon class="st0" points="3.3,352.8 2.2,354.3 3.9,352.3 	"/>
	<polygon class="st0" points="3.7,352.9 2.8,354.1 3.4,353.4 	"/>
	<path class="st0" d="M40.2,360.3l0.4-0.2C40.5,360.1,40.4,360.2,40.2,360.3z"/>
	<path class="st0" d="M39.6,359.6l-0.6,0.5C39.4,359.9,39.6,359.6,39.6,359.6z"/>
	<path class="st0" d="M13.4,361.7c-0.9,1.2-2.3,3-1.1,1.7l1.2-1.3C13.2,362.2,13.2,362,13.4,361.7z"/>
	<path class="st0" d="M27.6,360.9c0.1-0.1,0.2-0.3,0.3-0.4c-0.4,0.4-0.9,0.8-1.2,1.1C27,361.4,27.3,361.1,27.6,360.9z"/>
	<path class="st0" d="M32.7,355.8l-0.6,1C32.3,356.5,32.5,356.1,32.7,355.8z"/>
	<path class="st0" d="M45.2,362.6l1.3-1.2C46.4,361.2,45.9,361.9,45.2,362.6z"/>
	<path class="st0" d="M7.7,355.6c-0.3,0.6-0.4,0.9-0.4,1C7.9,355.8,8.8,354.6,7.7,355.6z"/>
	<path class="st0" d="M27.3,373.4c0.3-0.2,0.5-0.4,0.8-0.7C27.8,372.9,27.5,373.1,27.3,373.4z"/>
	<path class="st0" d="M7.7,357c0.1-0.1,0.1-0.2,0.2-0.4c-0.3,0.1-0.5,0.2-0.6,0C6.9,357.3,6.7,357.8,7.7,357z"/>
	<path class="st0" d="M57.9,376.5c0,0.1-0.1,0.1-0.1,0.2C57.9,376.6,57.9,376.5,57.9,376.5z"/>
	<path class="st0" d="M49.8,393c-0.1,0-0.2,0-0.3-0.1C49.5,393.1,49.5,393.1,49.8,393z"/>
	<path class="st0" d="M4.3,354.4C4.2,354.4,4.2,354.5,4.3,354.4L4.3,354.4z"/>
	<path class="st0" d="M8.6,348.9c0.1-0.1,0.3-0.3,0.6-0.6C8.9,348.6,8.7,348.8,8.6,348.9z"/>
	<path class="st0" d="M16,350L16,350C16.2,349.8,16.2,349.8,16,350z"/>
	<path class="st0" d="M4.8,353.7c-0.1,0.2-0.2,0.3-0.3,0.5C4.6,354,4.7,353.9,4.8,353.7z"/>
	<path class="st0" d="M4.3,354.3c0-0.1,0-0.1,0.1-0.2C4.1,354.4,4,354.5,4.3,354.3z"/>
	<path class="st0" d="M4.5,354.4c-0.1,0,0-0.1,0-0.2c-0.1,0.1-0.1,0.2-0.2,0.2C4.4,354.4,4.4,354.4,4.5,354.4z"/>
	<path class="st0" d="M47.4,373c0,0-0.1,0.1-0.1,0.1C47.9,372.7,47.7,372.7,47.4,373z"/>
	<path class="st0" d="M28.2,350.8C28.1,350.9,28.1,350.9,28.2,350.8c-0.1,0.1-0.1,0.1-0.1,0.1L28.2,350.8z"/>
	<path class="st0" d="M29.4,350.2c-1.6,1.4-1.5,1.2-1.3,0.7l-3.3,3.7L29.4,350.2z"/>
	<path class="st0" d="M42.2,361.5l0.8-1.3c2-1.6,1.6-0.8,2.9-2.6c-3.8,3.9-1.3-0.4-5,3.5l0.6-1c0,0.1,0.2-0.1,0.2-0.1
		c1.5-2.2-2.9,2.6-2.8,1.7c0.2-0.4,0.6-1.1,1.1-1.5L39,361c0-0.2,0.7-0.8,0.7-0.7l-0.7-0.1l0.1-0.1c-0.7,0.6-1.7,1.4-2.2,1.7
		c0.4-0.7,0.5-0.4,0.9-0.9l-1.2,0.7c0.9-1.1,2-1.9,2-1.6c3.5-4.1-1.1,0.8,0.5-2l0.7-0.3c2-2.4,1-1.7,2.1-3.4c-0.6,0.8-2.8,4-4,4.7
		c0.2-0.4,0.2-0.6-0.7,0.1c1.3-1.4,0.9-1.2,0.6-1.3l1.8-1.8c-0.7,0.4-1.6,1.3-2.5,2c0-0.4,1.3-1.9,2.4-3.1c-0.1-0.6-2,2.5-2.7,2.5
		c0.4-1-0.5-0.4-1.9,0.4c0.4-0.8,1.1-1.1,1.5-1.7l-1.6,1.3c0-0.1,0.4-0.5,0.7-0.7c-0.7,0.4-1.8,1.8-2.5,2.1c-2,2,2.4-3.4-0.1-1.4
		c0.4-0.6,1.1-1.1,1.8-1.8c-1.8,1.2-1.4,0.8-3.7,2.5l0.9-1.5c-1.1,1.6-2.9,3-4.5,4.1c-0.6,0.7-1.1,1.4-1.3,1.7l-1.3,0.7
		c0.2-0.3,0.9-0.9,1.7-1.7c-0.2,0.1-0.3,0.3-0.5,0.4c0.5-0.8,1.6-1.8,2.7-2.8c-0.3,0.4-0.6,0.8-1,1.3c1.2-1,2.4-2.2,3.4-3.3
		c-0.2,0.2-0.4,0.3-0.6,0.4c0.3-0.3,0.6-0.5,0.8-0.7c0.2-0.2-0.3,0.2-0.8,0.6l1.9-2.1l-0.8,0.8l0.8-1.7c-2.3,1.8-5.5,4.5-6.9,4.9
		c1.6-1.4,2.4-2.4,4.1-4.2c-1.7,2,1.2-0.4,1.1,0.2c0-0.3,0.9-1.2,1.2-1.4L30,355c1.4-1.5,0.9-1.2,1.4-1.9c-2.7,3-2.2,1.6-3.3,2.3
		c0.9-1,1.9-1.9,1.9-1.5c1.8-2.4-3.6,3.1-2.1,1c0.1,0,0,0.2,0.5-0.3c-1,0.7-0.7-0.3,0.2-1l0.1,0c-0.1-0.7-1.2-1.2-3.6,1.2
		c0.3-0.3,2.9-2.9,3.4-3.4l-8.6,7.6c2.1-2.1,6.6-7.3,8.1-8.2c0.2-0.4,0.4-0.9-0.5-0.3c-0.2,0.4-2.8,3.2-3,3.3c2-2.6,1-1.4,2.6-3.7
		c-0.3,0.5-3.6,3.8-3.7,3.5c0.5-0.5,3.1-3.3,3.5-3.6l-3.5,2.9c0.7-0.5,2.6-2.7,3.4-3.7c-0.6,0.7-0.3-0.4-0.7-0.1l-0.6,0.9
		c0-0.9-4.8,4.2-5,3.6c0.7-0.6,4.1-4,4.2-4.6c-1.7,1.6-8.1,7.6-9.7,8.5l0.8-1l-1.3,0.8c2.6-2.3,8.1-7.1,10.3-8.9
		c0.6-0.9,1-1.2,0.7-1.3c0.8-1,1.4-1.2,1.5-1.2l0-1.1c-1.8,2-2.3,1.5-3.8,3.2l2.5-1.4c-1.8,2-5.6,5.2-5.7,4.5c0.6-0.9,3.4-3.4,4-4.1
		c-0.7,0.6-1.6,0.9-1.2,0.4l1.2-0.9c0.5-0.9-2.8,2.2-1.3,0.1c0-0.2,2.1-2.8,1-1.6c-2,2.4-8.5,9.3-10.2,10.8c0.1-0.2,1.5-2.6,2.5-3.8
		c1.5-1.9,4.2-3.9,5.5-5.6c-0.5,0.5-1.2,1.1-1.5,1.3c0.3-0.5,1.6-1.6,1.2-1.6c-1.9,1.9-0.3-0.6-1.7,1.6c-0.7,0.4,0.2-0.6-0.2-0.8
		c-1.1,1.3-4.3,4.1-5.1,4.5c0.5-0.5,1.1-1.2,1.3-1.5c-0.2-0.6,0.4-1.7,0-2.1c0.4-0.5,0.8-1.3,1.7-2c-0.4,0.3-1.1,0.9-1.2,0.9
		c1.4-1.9,0.5,0,2.3-2.2c-1.1,1.1-1.8,1.3-2.7,1.8c-1.6,1.8,0.1,0.7,0.9,0.2c-2.3,2.4-5.1,4.7-6.5,5.5c-0.9,0.3,1.4-1.7,1-1.4
		c-0.2-1-4.6,3.8-3.4,1.5c1.3-1.7,2.9-3.1,4-4.3c0.8-0.3-0.5,1.4-0.3,1.5l0.5-0.9c0.6-0.4,1.1-0.7,0.8-0.1c1.2-1.6-0.7-1.2,0-3
		c-0.6,0.4-1.2,0.9-1.7,1.6l0.4-0.1c-1,1.4-1.9,1.5-2.3,2.3c-1,0.7-2.4,2-2,1.1l1.5-1.9c-0.5,0.6-0.8,1.3-0.2,0.7
		c-0.8,0.7,1.7-2.9-0.4-0.5l-0.9,1.4c-1,0.8-2.8,2.7-2.5,1.9c-1.4,2,0.2-0.2-1.4,2.1c2.1-2.8,0.3,0.5,2.5-2.5
		c-2,2.6-0.7,1.3-2.4,3.5c0.5-0.6,1-1.2,0.8-0.8c0.2-0.2,0.4-0.4,0.5-0.5c0,0,0,0,0,0.1l0.1-0.1c0.1-0.1,0.1-0.1,0,0
		c0.2-0.3,0.5-0.6,0.7-1c1.3-1.3,1.5-1,2.3-1.7c-0.2,0.4-0.7,0.6-1.2,1.3l1.1-0.9c-1.2,1.3-1.8,2.4-2.7,3c0,0,0.2,0.3,0.2,0.3
		c-0.5,0.9-0.6,1.4,0,0.9c-0.1,0.4,1.7-1.1,0.6-0.2l1.2-0.4l-0.3,0.3c0.2,0.6,2.9-1.4,1.1,1.4c0.4-0.2,1-0.5,0.8,0.1l-1,1.2
		c0.5-0.2-0.5,1.6,0.6,0.5c-2.7,3.2,0.2,1.5,0,2.3l1.4-1.5c0.1,0.3,0.7,0.1,1.6-0.3l1.2-1.3c1.2-0.9-0.3,1.5,0.2,1.7
		c-0.5,0.5-0.5,0.3-0.2-0.1c-2.4,3.3,2.9-1.3,1.3,1.2c0.5-0.4,0.5-0.2,0.2,0.2c0,0,0,0-0.1,0c0,0,0,0,0,0.1
		c-0.2,0.3-0.4,0.6-0.5,0.8c0.3-0.4,0.5-0.7,0.5-0.8c0.1,0,0.4,0,0.8-0.2l-1.3,1.4c0,0,0,0,0.1,0c-0.4,0.6,0.7-0.6,1.7-1.7
		c0.3-0.2,0.6-0.4,0.9-0.7c-2.1,2.3,1-0.5-1.2,2c1.2-1.1,1.4-0.3,3.8-2.8c-0.3,0.3-0.4,0.5-0.5,0.5c-0.1,0.4-0.3,0.8,0.5,0.2
		l-1.6,1.8l2.5-2.1c-0.9,1.2-1.4,1.9-2.9,3.1c2.4-1.7,1.1-0.5,3.4-2.2l-1.1,1.1c0.2,0.1,1.8-1.3,1-0.3c-1.8,2.4,1,1.6-0.2,4.2
		c3.1-3.5-1.1,1.8,1.4-0.8c-0.7,0.8-1.1,1.4-1.8,2c1.1-0.5-0.7,1.8,1.7-0.2c-0.7,0.8-1.2,1.1-1.6,1.6c0.2-0.1,0.8-0.6,0.4-0.1
		c-0.4,0.5-0.7,0.6-1.1,0.9c0.5,0.2,2.9-2.2,5.1-4.5c-0.9,1.3-0.6,1.2,1-0.2c-0.7,0.8-1.3,1.7-1.8,1.8c0,0.2-0.3,1.8,1.5,0
		c-0.4,0.5,0,0.3,0.3,0.1c0.2,0.4,0,0.6,0.5,0.7l0.2-0.4c2.2-2.1,0.7-0.3,1.2-0.3l-0.2,0.2c-1,2.1,1-0.6-0.3,1.8l1.3-1.4
		c2.9-2.9-1.2,2.2,0.1,1.3l0.6-0.9c1.1-0.9-3.4,4.5-3.6,5c-0.2,0.3-0.5,0.4-0.7,0.5c-1.3,2.2,1.8-1.8,2.5-1.9
		c-0.9,1-2.5,2.4-2.4,2.8c-0.7,0.9,3.6-2.6,2.1-0.4c0.7-0.8,1.3-1.6,2-2.1c0.5-0.1-2.1,3.4,0.4,1.2c-0.2,0.2-0.3,0.4-0.5,0.6
		c0.8-0.5,1.5-0.5,2.9-1.7c-4.4,5,3.3-1.3-0.9,3.1l0.7,0.3l-0.4,0.4c0.1,0.6,1.2-0.3,2.3-1.3c-0.2,0.4-0.7,0.7-0.9,1
		c-0.4,1.4-0.1,1.2,2.4-0.6l-1.3,1.5c0.9-0.7-1.4,2.9,0.6,1.7c-0.2,0.2-0.4,0.4-0.7,0.6c2.1-1.2-2.5,5.2,2.7,0.2l1.6-1
		c-0.1-0.8,2.2-2.2,2.9-3.3c0.5-0.1-1,2-1.5,2.1l0.2-0.3c-2.7,2.6-0.3,1.5-2.1,3.4c1,0.7,0.5,3.1,1.2,4l1.9-2.2l0.2,0.4
		c-0.4,0.6-1.5,1.8-1.6,1.5c-1,1.3,1.3-0.7,1.8-1.1c-0.4,1.3-2.5,2.3-2.4,2.5l0.3,0l0.2-0.3c1-0.7,1.8-1.6,2-1.3
		c-0.2,0.6-1.2,1.4-1.2,1.5c-0.1,0.1-0.2,0.2,0,0.2l0.2,0.5l1.4-1.8c1-0.7,0.3,0.4,1.9-1.6c-2.5,3.2,0.4,2.4-0.3,3.4
		c1.4-1,1.6-0.8,1.7-0.3c0.3-0.4,2-2.3,2-1.9c-3.8,3.8-1.2,2.1-3.6,5.1c1.6-2,1.1,0.2,3.4-2.7c-0.1,0.5-1.4,1.5-2.1,2.5
		c1.9-1,0.1,2,1.2,2.1c0.5-0.5,1.1-1.4,2-2l-2.1,2.9c0.4-0.1,2.9-2.8,1.4-0.9c0.4-0.5,0.9-1.1,1.2-1.2c-1.2,3.6,4.3,0.3,1.1,6.1
		c0.8-1.1,1-1.1,1.1-1.1c0.1-0.3,1.2-1.3,1.8-2l-1.3,2.4c1.9-1.8,0.7,0.4,2.5-1.4l-0.5,0.2c2.3-2,4.3-5.1,7-7.8
		c-2.6,2.2,2.8-4.2-0.9-1.1c0.5-0.6,0.9-0.8,1.5-1.5c-1.2,1.1-1.6,1.2-1.3,0.5l0.3-0.3c-0.9-0.3,0-1.7,0-3.2l-1.3,1.4
		c0-0.3,0.4-0.8,0.7-1.2c-2.2,1.9,0.3,0.5-2,2.7c2.5-3-1-1,1.9-4.3c-0.2-0.2-1.4,1.7-1.7,1.4l0.8-0.9l-1.1,1.1c0-0.3,1-1.5,1.7-2.2
		c0,0.1,0.3-0.1,0.4-0.1c0.8-1.2-0.9-0.2-0.6-0.6l-0.3,0.7c-1.4,0.2-1.1-1.6-3.3-0.5l-0.6,0.7c-1.6,0.8,0.3-1.1-0.7-1l0.2-0.1
		c-0.7,0.5-1.2,0.7-1.2,0.5c0.8-0.6,1.2-1.7,2.1-2.4c-1.7,0.8-1.2,0.8-3.8,2.9l0.9-1.1c-1,0.9-1.5,1.4-2.1,1.4
		c1.1-0.7,1.4-1.8,2.8-2.8c1.7-2.9-3,1.6,0-2c-3.1,2.7-1.1,2.1-1.9,2.6c-0.8,1.1-2.3,2-2.2,1.6c-0.1-0.2,3.3-4.1,2.9-4.4
		c0,0.1,0.2-0.2,0.3-0.1c0.6-0.9-1.3,0.7-0.3-0.7c-1.8,1.7-0.2-0.3-2.4,1.9l0.9-0.2c-0.8,0.4-3.6,2.9-2.7,1.2
		c0.5-0.4,1.2-0.9,1.6-1.2c0.5-0.8-0.6,0.3-0.1-0.5c2.2-2.3,1,0,2.9-1.6c0.8-1.1-2,1.2,0.5-1.1c-3.2,3,0-0.8-2.6,1.3l1.3-1.4
		c-0.3,0.2-1,0.7-1,0.6l1.8-1.6c-1.7,1.3,0.8-1.8-0.2-1.1c0.5,0.4-1.5,1.8-2.2,2.9c-2.3,1.3,3.1-3.9,1.8-3.9
		c0.3-0.1-0.5,1.1-1.2,1.6c0.1-0.4,0.5-1.1,1.1-1.9c-0.7-0.1-1.3,1.5-2.3,2.1c1.4-1.8-0.9,0.5-1.6,0.8l1.3-1.4
		c0.4-1.4-2.9,2.8-2.3,1.3l2-1.8l-0.7,0.3l1.6-1.5c-1.4,0.9-1.2,0.6-1-0.1c-0.9,1-2.4,2.5-2.7,2.3c0.6-1,1.3-1.3,0.8-1.3
		c0.9-0.8,2-1.8,0.9-0.4c0.5-0.4,0.9-0.8,1.3-1.2c0.7-1.1-0.2-0.6-0.3-0.7c0,0.1,0,0.2-0.2,0.4l-2.3,1.5c0.4-0.6,0.9-1,1.3-1.3
		c-0.2,0.1-0.9,0.6-1.2,0.6c1.1-1.1,2.2-2.3,2.9-2.6l-1.6,0.9c0.4-0.5,1.1-1.6,1.5-1.9c0.4-0.9-2.7,1.7-2.1,0.5
		c-0.2,0.2-0.5,0.4-0.7,0.5c0-0.5,1-2.2-0.8-0.9l1.7-2.2c-0.7,0.2-2.2,2.8-3.4,3.2c-0.9,0.3,1.5-1.9,2-2.5c-1.1,0.9-3.4,2.7-2.1,0.8
		C42.2,361.2,42,361.6,42.2,361.5z M38,359.2c0.3-0.2,1.3-1,0.6-0.1C37,360.6,37.7,359.8,38,359.2z M29.7,357.7
		c0.5-0.4,0.3-0.1-0.1,0.5C29.5,358.3,29.4,358.2,29.7,357.7z M6.2,354C6.2,353.9,6.3,353.9,6.2,354C5.9,354.6,6.1,354.3,6.2,354z
		 M6.5,353.1c-0.2,0.2-0.4,0.4-0.6,0.6c0.4-0.3,0.4-0.3,0.4-0.1C6.7,353.1,6.9,352.8,6.5,353.1z M39.4,383.3l0.3-0.4
		C40.2,382.6,39.8,382.9,39.4,383.3z"/>
	<path class="st0" d="M32.1,356.4c-0.2,0.3-0.4,0.5-0.7,0.8C31.6,357,31.9,356.7,32.1,356.4z"/>
	<path class="st0" d="M45,362.8C45,362.8,45,362.8,45,362.8c0.1-0.1,0.2-0.1,0.2-0.2L45,362.8z"/>
	<path class="st0" d="M22.4,345.7c-0.1,0.3-0.3,0.5-0.6,0.8C22.2,346.1,22.4,345.8,22.4,345.7z"/>
	<path class="st0" d="M3.2,354.5l0.4-0.3c-0.1,0,0.1-0.3,0.3-0.6C3.6,354,3.2,354.5,3.2,354.5z"/>
	<path class="st0" d="M9,343.9c-0.2,0.2-0.1,0-0.2,0.2l-0.5,0.8C8.4,344.9,8.9,344.3,9,343.9z"/>
	<path class="st0" d="M7.1,349.4c1-1.3,0.6-0.9,0.2-0.8c0,0,0,0,0,0C6,350.4,6.5,349.9,7.1,349.4z"/>
	<path class="st0" d="M7.3,348.7c-0.1,0-0.1,0-0.1-0.1C6.6,349.3,7.1,348.8,7.3,348.7z"/>
	<path class="st0" d="M5.4,353.6c0.2-0.3-1.4,1.5-1,1C3,356,6.4,353,5.4,353.6z"/>
	<polygon class="st0" points="10.4,345.2 9.2,346.8 10.3,345.6 	"/>
	<path class="st0" d="M10.5,347.3l0.2-0.6c-0.2,0.3-0.4,0.4-0.5,0.5C10.3,347.3,10.1,347.7,10.5,347.3z"/>
	<path class="st0" d="M10.2,347.1c0-0.1-0.1-0.1-0.4,0.1C9.8,347.2,10,347.3,10.2,347.1z"/>
	<polygon class="st0" points="11.1,345 10.9,345.4 11,345.6 	"/>
	<path class="st0" d="M12.6,349.7l0.6-0.2c0.5-0.5,0.7-0.8,0.4-0.7C13.3,349.1,13,349.2,12.6,349.7z"/>
	<path class="st0" d="M15.6,345c-0.2,0.4-0.5,0.7-0.9,1.2l1.7-1.8L15.6,345z"/>
	<path class="st0" d="M16.7,345.3c0.5-0.5,1.7-1.1,1.3-1.3C17.5,344.5,16.9,344.7,16.7,345.3z"/>
	<polygon class="st0" points="18.1,350.9 18,350.9 15.2,353.9 	"/>
	<path class="st0" d="M28,346.8c0.4-1-1.8,1.8-1.2,0.6c-0.7,0.6-0.5,0.9-1.1,1.5C26.5,348.4,26.2,348.9,28,346.8z"/>
	<path class="st0" d="M25.6,348.9c-0.1,0.1-0.3,0.2-0.5,0.4C25.3,349.2,25.5,349,25.6,348.9z"/>
	<polygon class="st0" points="48.9,395.2 48.5,396 49.3,394.9 	"/>
	<path class="st0" d="M51.3,393.4l-1.7,1.9l1.7-1.6C51.2,393.7,51,393.8,51.3,393.4z"/>
	<path class="st0" d="M41.1,355l-0.4,0.4c-0.4,0.5-0.4,0.6-0.4,0.7L41.1,355z"/>
	<polygon class="st0" points="42.2,358.7 42.2,358.6 40.7,360.4 	"/>
	<path class="st0" d="M46.3,358.5c0-0.2-0.5,0.1-0.5,0C46.3,358.3,44.3,360.6,46.3,358.5z"/>
</g>
<g>
	<path class="st0" d="M274.4,2c0-0.2-1.2,0.9-1.5,1.1C273.4,3.1,274.7,1.8,274.4,2z"/>
	<polygon class="st0" points="278.6,1.1 278.1,1.5 279.5,0.6 	"/>
	<path class="st0" d="M279.8,2.5c2.1-2-0.8-0.2-0.2-1.1l0.5-0.5l-1.8,1.4C278.7,2.4,280.2,1.8,279.8,2.5z"/>
	<path class="st0" d="M275.8,7.3c0.8-0.8,0.9-0.5,0.1-0.4c-0.1,0.1-0.1,0.1-0.2,0.2C275.7,7.2,275.8,7.2,275.8,7.3z"/>
	<path class="st0" d="M275.7,7.1C275.5,7,275.1,7.8,275.7,7.1L275.7,7.1z"/>
	<path class="st0" d="M276.8,7.4l-0.9,0.4c-0.5,0.5-0.4,0.7-0.8,1C275.6,8.7,276,8.2,276.8,7.4z"/>
	<path class="st0" d="M278.5,6.2l-0.4,0.2C277.9,6.6,277.9,6.7,278.5,6.2z"/>
	<path class="st0" d="M277.2,6.8l0.9-0.4c0.3-0.3,1-0.9-0.3,0.1C278.4,6,277.8,6.5,277.2,6.8z"/>
	<path class="st0" d="M277.5,6.4c0.4-0.5,0.6-0.9,1.5-1.4C278.3,4.9,276.8,6.3,277.5,6.4z"/>
	<path class="st0" d="M282.1,0.7l0.5-0.7l-0.8,0.5C282.2,0.2,281.4,1.3,282.1,0.7z"/>
	<path class="st0" d="M276.7,9.6c0.5-0.4,1.2-1.1,1.7-1.6l-0.7,0.3C277.5,8.6,277.4,9,276.7,9.6z"/>
	<path class="st0" d="M278.4,8l1-0.5C279.4,7.2,278.9,7.5,278.4,8z"/>
	<polygon class="st0" points="280.9,4.2 279,5.3 281,4.3 	"/>
	<polygon class="st0" points="277.4,10.5 276.2,11.3 278,10.1 	"/>
	<path class="st0" d="M278,10.9c-1,0.7-1.4,1.4-2,1.8c0.3,0,1.2-0.5,1.9-1C277.5,11.9,277.4,11.7,278,10.9z"/>
	<path class="st0" d="M279.1,11c-0.3,0.1-0.7,0.4-1.2,0.7C278.2,11.6,278.5,11.4,279.1,11z"/>
	<path class="st0" d="M279.5,8.1c-0.3,0.3-1,0.9-1.2,1.3l1.2-1.2C279.6,8.1,279.5,8.1,279.5,8.1z"/>
	<path class="st0" d="M279.6,8.1L279.6,8.1c0,0.2,0,0.2,0,0.3C279.6,8.4,279.6,8.3,279.6,8.1z"/>
	<path class="st0" d="M279.5,8C279.5,8.1,279.5,8.1,279.5,8C279.6,8,279.7,7.9,279.5,8z"/>
	<path class="st0" d="M280.3,5.8c0.8-0.5,1.8-0.9,2.7-2.1C282,4.4,281.5,5.1,280.3,5.8z"/>
	<path class="st0" d="M281,6.5l0.1-0.5c-0.3,0.3-0.8,0.8-1.2,1L281,6.5z"/>
	<polygon class="st0" points="281.5,6.3 281,6.5 281,6.7 	"/>
	<path class="st0" d="M280,9.6c0.7-0.4,0.8-0.3,1-0.3c0.1-0.4,0.2-0.6,0-0.7C280.6,8.9,279.8,9.5,280,9.6z"/>
	<path class="st0" d="M279.9,8.8C279.9,8.8,280,8.8,279.9,8.8C280.1,8.6,280.1,8.6,279.9,8.8z"/>
	<path class="st0" d="M282,10.5c0.1-0.1,0.1-0.1,0.2-0.2C282.1,10.4,282.1,10.4,282,10.5L282,10.5z"/>
	<path class="st0" d="M281.2,8.4c0.2-0.3-0.2-0.1-0.7,0.2c0.2,0,0.3,0,0.4,0C281.2,8.4,281.3,8.3,281.2,8.4z"/>
	<path class="st0" d="M280,10.8c0.2-0.3,0.4-0.5,0.6-0.8C280.2,10.5,279.6,11.1,280,10.8z"/>
	<path class="st0" d="M279.7,9.1C279.6,9.1,279.6,9.1,279.7,9.1C279.4,9.4,279.5,9.3,279.7,9.1z"/>
	<path class="st0" d="M279.7,9.1c0.2-0.1,0.6-0.3,0.9-0.5c-0.2,0-0.3,0.1-0.6,0.2C279.9,8.8,279.8,9,279.7,9.1z"/>
	<path class="st0" d="M290.6,3.8c-1.2,1-2.6,1.7-1.5,0.4c-1.1,0.6-4.9,4.1-7,6.2c0.5-0.4,1-0.9,1.9-1.2c0.6-0.6,1.1-1.8,2.4-2.6
		c0.9-0.2-0.2,0.6-0.7,1.3c1.4-1.4,2.5-1.5,4.7-3.4l-1,0.4C289.8,4.5,290.4,4.1,290.6,3.8z"/>
	<path class="st0" d="M282,9.8l-0.2,0c-0.1,0.3-0.5,0.8-1.4,1.7c0.7-0.3,1.2-0.7,1.6-1l-0.2-0.6L282,9.8z"/>
	<path class="st0" d="M281.4,9.4c1.4-1,2.1-1.3,3.4-2.7c-0.3-0.2-1.3,0.7-2,1.1c0.7,0.2-0.8,0.5-1.3,1.5c-0.3,0.1-0.4,0.1-0.6,0.1
		c-0.1,0.2-0.2,0.5-0.4,0.7c0,0,0-0.1,0.1-0.1l0,0c0,0,0,0,0,0c0.1-0.2,0.2-0.3,0.2-0.1c0,0,0,0,0,0C281,9.7,281.2,9.5,281.4,9.4
		c-0.2,0.4-0.3,0.3-0.5,0.4c-0.1,0.1-0.1,0.1-0.2,0.2c0,0,0,0,0,0l1.1-0.2C281.8,9.6,281.7,9.5,281.4,9.4z"/>
	<path class="st0" d="M286,1.5c-0.1,0.1-0.2,0.2-0.3,0.3C285.9,1.7,286,1.6,286,1.5z"/>
	<path class="st0" d="M285.4,2.4c-0.2,0.1-0.8,0.5-0.7,0.3c0.3-0.4,0.6-0.5,1.1-0.9c-0.4,0.2-1.1,0.6-1.6,1.3l0.2-0.1
		c-0.3,0.6-1.7,2.2-1.9,2.3C283.5,4.3,284.3,3.5,285.4,2.4z"/>
	<path class="st0" d="M283.7,5.6l1-0.2l1-1.2L285,4.9C285.1,4.4,284.3,5.2,283.7,5.6z"/>
	<polygon class="st0" points="281.4,11.1 280,12.3 282.1,10.8 	"/>
	<polygon class="st0" points="282,11.5 280.7,12.5 281.6,12 	"/>
	<path class="st0" d="M320.3,26l0.4-0.2C320.6,25.9,320.5,26,320.3,26z"/>
	<path class="st0" d="M319.7,25.2l-0.6,0.5C319.5,25.4,319.7,25.2,319.7,25.2z"/>
	<path class="st0" d="M292.3,23.3c-1,1.1-2.6,2.8-1.2,1.6l1.3-1.2C292,23.8,292.1,23.6,292.3,23.3z"/>
	<path class="st0" d="M307.2,24.7c0.1-0.1,0.2-0.3,0.4-0.4c-0.5,0.3-0.9,0.7-1.4,1C306.5,25.1,306.8,24.9,307.2,24.7z"/>
	<path class="st0" d="M312.7,20.1L312,21C312.3,20.7,312.5,20.4,312.7,20.1z"/>
	<path class="st0" d="M325.4,29.2l1.5-1C326.7,28,326.1,28.6,325.4,29.2z"/>
	<path class="st0" d="M286.7,16c-0.4,0.6-0.5,0.9-0.5,1C286.8,16.2,287.8,15.1,286.7,16z"/>
	<path class="st0" d="M306.1,37.7c0.3-0.1,0.6-0.3,0.9-0.6C306.7,37.2,306.4,37.4,306.1,37.7z"/>
	<path class="st0" d="M286.6,17.5c0.1-0.1,0.2-0.2,0.2-0.3c-0.3,0.1-0.6,0.1-0.6-0.1C285.7,17.7,285.5,18.1,286.6,17.5z"/>
	<path class="st0" d="M337.8,45.8c0,0.1-0.1,0.1-0.1,0.2C337.9,45.8,337.9,45.8,337.8,45.8z"/>
	<path class="st0" d="M328.5,61.8c-0.1,0-0.2,0-0.3-0.1C328.1,61.8,328.2,61.9,328.5,61.8z"/>
	<path class="st0" d="M283.1,13.9C282.9,13.9,282.9,14,283.1,13.9L283.1,13.9z"/>
	<path class="st0" d="M287.8,9c0.2-0.1,0.4-0.3,0.7-0.5C288.2,8.7,288,8.9,287.8,9z"/>
	<path class="st0" d="M295.6,11.4C295.6,11.4,295.6,11.5,295.6,11.4C295.9,11.2,295.8,11.3,295.6,11.4z"/>
	<path class="st0" d="M283.5,13.3c-0.1,0.2-0.2,0.3-0.3,0.5C283.3,13.6,283.4,13.5,283.5,13.3z"/>
	<path class="st0" d="M282.9,13.8c0-0.1,0-0.1,0.1-0.2C282.7,13.8,282.6,13.9,282.9,13.8z"/>
	<path class="st0" d="M283.3,14c-0.1,0-0.1-0.1,0-0.3c-0.1,0.1-0.1,0.2-0.2,0.2C283.1,13.9,283.2,14,283.3,14z"/>
	<path class="st0" d="M327.1,40.4c0,0-0.1,0.1-0.1,0.1C327.6,40.2,327.5,40.2,327.1,40.4z"/>
	<path class="st0" d="M308.3,14.2C308.3,14.2,308.2,14.2,308.3,14.2c-0.1,0.1-0.1,0.1-0.1,0.1L308.3,14.2z"/>
	<path class="st0" d="M309.6,13.7c-1.8,1.2-1.6,1-1.4,0.6l-3.7,3.4L309.6,13.7z"/>
	<path class="st0" d="M322.3,27.6l1-1.3c2.2-1.4,1.7-0.6,3.2-2.2c-4.2,3.5-1.3-0.6-5.4,2.9l0.7-0.9c0,0.1,0.3-0.1,0.3,0
		c1.7-2-3.2,2.3-3,1.4c0.2-0.4,0.7-1,1.3-1.4l-1.3,0.5c0-0.2,0.7-0.8,0.7-0.6l-0.8-0.2l0.1-0.1c-0.7,0.5-1.8,1.2-2.3,1.5
		c0.5-0.6,0.5-0.3,1-0.8l-1.2,0.6c1-1,2.2-1.7,2.2-1.4c3.9-3.8-1.2,0.7,0.7-2l0.8-0.2c2.2-2.2,1.2-1.7,2.4-3.2
		c-0.7,0.7-3.2,3.8-4.4,4.3c0.2-0.4,0.3-0.6-0.7,0c1.5-1.3,1-1.1,0.7-1.2l2-1.7c-0.7,0.3-1.7,1.1-2.7,1.8c0-0.4,1.4-1.7,2.7-2.9
		c0-0.7-2.2,2.3-2.9,2.2c0.5-1-0.5-0.5-2,0.1c0.5-0.8,1.2-1,1.7-1.5l-1.7,1.1c0-0.1,0.5-0.5,0.7-0.7c-0.7,0.3-2,1.7-2.7,1.8
		c-2.2,1.8,2.7-3.2-0.1-1.5c0.5-0.6,1.2-1,2-1.7c-2,0.9-1.5,0.6-4,2.1l1-1.4c-1.3,1.5-3.2,2.7-4.9,3.6c-0.6,0.7-1.2,1.3-1.4,1.6
		l-1.4,0.5c0.3-0.3,1-0.9,1.8-1.5c-0.2,0.1-0.4,0.2-0.5,0.3c0.6-0.8,1.8-1.6,3-2.5c-0.3,0.4-0.7,0.8-1.1,1.2
		c1.3-0.9,2.7-1.9,3.8-2.9c-0.2,0.2-0.5,0.3-0.6,0.3c0.3-0.2,0.6-0.5,0.8-0.7c0.2-0.2-0.3,0.1-0.8,0.5l2.1-2l-0.9,0.7l0.9-1.7
		c-2.5,1.5-6,3.9-7.4,4.1c1.7-1.2,2.6-2.2,4.5-3.8c-1.8,1.9,1.3-0.3,1.1,0.4c0.1-0.3,1-1.1,1.3-1.3l-2.3,1c1.5-1.3,1.1-1.1,1.6-1.8
		c-2.9,2.7-2.4,1.3-3.5,1.9c1-0.9,2.1-1.7,2.1-1.2c2-2.3-3.9,2.7-2.2,0.7c0.1,0,0,0.2,0.5-0.2c-1,0.6-0.7-0.4,0.3-1.1l0.1,0.1
		c0-0.8-1.2-1.4-3.8,0.7c0.3-0.3,3.2-2.6,3.7-3l-9.4,6.6c2.3-1.8,7.3-6.6,8.9-7.3c0.2-0.4,0.5-0.8-0.5-0.4c-0.3,0.3-3,2.9-3.3,3
		c2.2-2.4,1.2-1.3,3-3.5c-0.4,0.5-4,3.4-4,3.1c0.5-0.4,3.4-3,3.8-3.2l-3.8,2.5c0.7-0.4,2.9-2.5,3.8-3.4c-0.6,0.6-0.3-0.4-0.7-0.3
		l-0.6,0.9c0.1-0.9-5.2,3.6-5.5,3c0.8-0.5,4.5-3.6,4.7-4.2c-1.8,1.4-8.8,6.7-10.6,7.4l0.9-0.9l-1.4,0.6c2.8-2.1,8.8-6.2,11.3-7.7
		c0.6-0.9,1.1-1.1,0.8-1.3c0.9-0.9,1.6-1.1,1.7-1l0.1-1.2c-2,1.8-2.5,1.3-4.1,2.7l2.7-1.1c-2,1.8-6.1,4.6-6.2,3.8
		c0.7-0.8,3.7-3,4.4-3.6c-0.8,0.5-1.7,0.7-1.3,0.2l1.3-0.7c0.6-0.9-3.1,1.9-1.4-0.1c0-0.2,2.4-2.6,1.1-1.6
		c-2.2,2.2-9.4,8.4-11.2,9.8c0.1-0.2,1.8-2.5,2.8-3.6c1.7-1.7,4.6-3.5,6-5c-0.6,0.5-1.3,1-1.6,1.1c0.4-0.5,1.8-1.4,1.3-1.5
		c-2.1,1.7-0.2-0.6-1.8,1.4c-0.8,0.3,0.2-0.6-0.1-0.8c-1.3,1.2-4.8,3.7-5.6,3.9c0.5-0.4,1.2-1.1,1.5-1.4c-0.2-0.6,0.5-1.7,0.1-2.2
		c0.5-0.5,0.9-1.2,1.9-1.9c-0.4,0.2-1.2,0.8-1.3,0.7c1.6-1.8,0.5,0.1,2.5-2c-1.2,1-2,1.1-2.9,1.5c-1.8,1.7,0,0.8,1,0.3
		c-2.6,2.2-5.5,4.2-7.1,4.7c-1,0.2,1.5-1.6,1.1-1.3c-0.2-1.1-5,3.2-3.6,1.1c1.4-1.6,3.2-2.8,4.4-3.9c0.9-0.2-0.6,1.4-0.4,1.5
		l0.6-0.9c0.6-0.4,1.2-0.5,0.8,0c1.3-1.5-0.7-1.4,0.2-3.1c-0.6,0.4-1.3,0.7-1.9,1.3l0.4,0c-1.2,1.3-2.1,1.2-2.5,2
		c-1.1,0.6-2.8,1.6-2.3,0.6l1.8-1.7c-0.5,0.5-0.9,1.2-0.3,0.8c-0.9,0.6,2.1-2.7-0.5-0.7l-1.1,1.3c-1.1,0.6-3.4,2-3,1.2
		c-1.7,1.7,0.3-0.1-1.7,1.9c2.5-2.5,0.5,0.8,3.1-1.9c-2.3,2.4-0.7,1.3-2.6,3.4c0.6-0.5,1.1-1.1,1-0.6c0.2-0.1,0.4-0.3,0.6-0.4
		c0,0,0,0,0,0.1c0,0,0-0.1,0.1-0.1c0.1-0.1,0.1-0.1,0,0c0.2-0.3,0.5-0.6,0.8-0.9c1.5-1.1,1.8-0.7,2.6-1.2c-0.2,0.4-0.8,0.5-1.3,1.2
		l1.3-0.7c-1.3,1.2-1.9,2.3-3,2.7l0.2,0.4c-0.6,0.8-0.7,1.3,0,1c-0.2,0.4,1.8-0.9,0.6-0.1l1.3-0.3l-0.3,0.3c0.2,0.6,3.1-1,1.1,1.7
		c0.5-0.1,1-0.3,0.9,0.3l-1.1,1.1c0.6-0.2-0.7,1.6,0.6,0.7c-3,2.9,0.1,1.6-0.1,2.4l1.6-1.3c0.1,0.3,0.8,0.2,1.6,0l1.3-1.2
		c1.3-0.7-0.4,1.5,0.1,1.8c-0.5,0.4-0.5,0.2-0.2-0.1c-2.6,3.1,3.1-0.9,1.3,1.5c0.6-0.3,0.5-0.1,0.2,0.3c0,0,0,0-0.1,0c0,0,0,0,0,0.1
		c-0.2,0.3-0.4,0.5-0.6,0.8c0.3-0.3,0.5-0.6,0.6-0.8c0.1,0.1,0.4,0,0.8-0.1l-1.4,1.3c0,0,0,0,0.1,0c-0.4,0.6,0.8-0.5,1.8-1.5
		c0.3-0.1,0.6-0.3,1-0.6c-2.3,2.1,1.1-0.3-1.3,2c1.3-1,1.5-0.1,4.1-2.3c-0.3,0.3-0.5,0.5-0.5,0.4c-0.2,0.4-0.3,0.8,0.5,0.3l-1.8,1.7
		l2.8-1.8c-1,1.2-1.6,1.8-3.2,2.8c2.6-1.4,1.1-0.3,3.7-1.8l-1.2,1c0.2,0.1,2-1.1,1-0.1c-2,2.3,1,1.8-0.4,4.4
		c3.4-3.2-1.3,1.7,1.5-0.6c-0.8,0.8-1.2,1.3-2,1.8c1.2-0.3-0.8,1.7,1.7,0c-0.8,0.8-1.3,1-1.8,1.4c0.2-0.1,0.8-0.5,0.4,0
		c-0.5,0.5-0.8,0.5-1.2,0.8c0.5,0.3,3.1-1.9,5.6-3.9c-1,1.2-0.7,1.2,1-0.1c-0.7,0.8-1.5,1.6-2,1.6c0,0.2-0.4,1.9,1.6,0.2
		c-0.5,0.5,0,0.3,0.3,0.2c0.2,0.4,0,0.6,0.5,0.8l0.2-0.4c2.4-1.9,0.7-0.2,1.3-0.2l-0.2,0.2c-1.2,2,1-0.4-0.4,1.8l1.4-1.3
		c3.2-2.6-1.4,2.1,0.1,1.4l0.7-0.8c1.2-0.7-3.8,4.2-4,4.7c-0.2,0.3-0.5,0.3-0.7,0.4c-1.4,2.1,2-1.6,2.7-1.6c-1,0.9-2.7,2.2-2.7,2.6
		c-0.7,0.8,3.9-2.2,2.3-0.1c0.7-0.8,1.5-1.5,2.2-1.8c0.5,0-2.4,3.3,0.3,1.4c-0.2,0.2-0.4,0.4-0.6,0.6c0.8-0.4,1.6-0.3,3.1-1.3
		c-4.9,4.5,3.5-0.9-1.1,3.1l0.8,0.4l-0.5,0.4c0,0.6,1.3-0.2,2.5-1c-0.2,0.4-0.7,0.7-1,0.9c-0.5,1.4-0.2,1.3,2.5-0.3l-1.5,1.3
		c1-0.6-1.7,2.8,0.6,1.9c-0.2,0.1-0.5,0.4-0.7,0.5c2.3-0.9-2.9,5.1,2.8,0.6l1.7-0.7c0-0.9,2.4-2,3.2-3c0.5-0.1-1.2,2-1.7,1.9
		l0.2-0.3c-2.9,2.4-0.4,1.5-2.4,3.2c1,0.9,0.3,3.3,1.1,4.4l2.1-2l0.2,0.5c-0.4,0.5-1.6,1.6-1.8,1.3c-1.1,1.2,1.4-0.5,1.9-0.9
		c-0.5,1.2-2.8,2-2.7,2.2l0.3,0.1l0.2-0.3c1-0.6,2-1.4,2.2-1c-0.3,0.6-1.3,1.3-1.3,1.4c-0.2,0.1-0.2,0.2,0,0.2l0.2,0.6l1.6-1.7
		c1-0.6,0.3,0.5,2.1-1.4c-2.8,2.9,0.3,2.6-0.5,3.5c1.5-0.8,1.7-0.5,1.8-0.1c0.3-0.4,2.2-2.1,2.2-1.6c-4.2,3.4-1.3,2-4.1,4.8
		c1.8-1.9,1.2,0.4,3.6-2.3c-0.1,0.5-1.5,1.3-2.3,2.3c2.1-0.8,0,2.1,1.2,2.4c0.5-0.4,1.3-1.3,2.2-1.8l-2.4,2.7
		c0.4-0.1,3.2-2.5,1.6-0.7c0.4-0.4,1.1-1.1,1.3-1.1c-1.4,3.6,4.5,0.9,0.8,6.5c0.9-1.1,1.1-1,1.2-0.9c0.2-0.3,1.3-1.1,2-1.8l-1.5,2.3
		c2.1-1.6,0.7,0.5,2.6-1.1l-0.5,0.1c2.5-1.7,4.7-4.7,7.7-7.1c-2.8,1.9,3.2-4-0.9-1.3c0.5-0.6,1-0.7,1.6-1.4c-1.3,1-1.7,1-1.4,0.3
		l0.3-0.2c-0.9-0.5,0.1-1.8,0.2-3.3l-1.4,1.3c0-0.3,0.5-0.8,0.8-1.1c-2.3,1.7,0.3,0.6-2.3,2.5c2.7-2.7-1-1.2,2.2-4.3
		c-0.2-0.3-1.6,1.5-1.8,1.2l0.8-0.8l-1.2,0.9c0-0.3,1.1-1.4,1.8-2c-0.1,0.1,0.3-0.1,0.4-0.1c0.9-1.1-0.9-0.3-0.6-0.7l-0.3,0.7
		c-1.5,0-1-1.9-3.5-1l-0.6,0.6c-1.7,0.5,0.4-1.1-0.7-1.2l0.2-0.1c-0.8,0.5-1.3,0.6-1.3,0.4c0.9-0.5,1.3-1.6,2.4-2.2
		c-1.8,0.6-1.3,0.6-4.2,2.4l1-1.1c-1.1,0.7-1.7,1.2-2.2,1.2c1.2-0.6,1.6-1.7,3.1-2.5c1.9-2.7-3.3,1.2,0.1-2.1
		c-3.4,2.4-1.3,2-2.1,2.4c-0.9,1-2.5,1.8-2.4,1.3c-0.1-0.3,3.7-3.8,3.2-4.2c0,0.1,0.3-0.1,0.3-0.1c0.6-0.9-1.4,0.6-0.3-0.8
		c-2,1.5-0.1-0.4-2.6,1.6l0.9,0c-0.8,0.3-3.9,2.5-2.9,0.9c0.5-0.4,1.3-0.8,1.7-1c0.6-0.7-0.7,0.2-0.1-0.6c2.4-2,1,0.1,3.1-1.2
		c0.9-1-2.2,1,0.5-1.1c-3.5,2.6,0-0.8-2.8,1l1.5-1.2c-0.3,0.1-1,0.6-1.1,0.5l2-1.4c-1.8,1.1,0.9-1.7-0.1-1.2
		c0.5,0.5-1.6,1.6-2.5,2.7c-2.5,1,3.4-3.6,2.1-3.8c0.3-0.1-0.5,1.1-1.3,1.5c0.2-0.4,0.6-1.1,1.2-1.8c-0.7-0.2-1.4,1.3-2.5,1.9
		c1.6-1.7-0.9,0.4-1.7,0.6l1.5-1.3c0.5-1.4-3.2,2.5-2.5,1l2.2-1.5l-0.8,0.2l1.7-1.4c-1.5,0.8-1.2,0.4-1-0.3c-1,1-2.7,2.2-3,2
		c0.7-0.9,1.5-1.1,1-1.3c1-0.7,2.2-1.6,1-0.3c0.5-0.4,1-0.7,1.5-1.1c0.8-1-0.2-0.7-0.3-0.8c0,0.1,0,0.2-0.2,0.4l-2.5,1.2
		c0.5-0.6,1-0.9,1.5-1.2c-0.2,0-1,0.5-1.2,0.5c1.2-1,2.4-2,3.2-2.3l-1.7,0.6c0.5-0.5,1.2-1.5,1.7-1.8c0.5-0.9-2.9,1.3-2.3,0.2
		c-0.2,0.2-0.5,0.3-0.7,0.4c0-0.6,1.2-2.1-0.8-1.1l1.9-2.1c-0.8,0.1-2.4,2.6-3.7,2.8c-1,0.2,1.7-1.7,2.2-2.3
		c-1.2,0.7-3.7,2.3-2.3,0.5C322.3,27.3,322.1,27.6,322.3,27.6z M318.1,24.6c0.4-0.2,1.4-0.9,0.6-0.1
		C316.9,25.8,317.7,25.1,318.1,24.6z M309.5,21.7c0.5-0.4,0.4-0.1-0.1,0.5C309.2,22.2,309.2,22.1,309.5,21.7z M285.2,14
		C285.2,14,285.3,14,285.2,14C284.9,14.6,285,14.4,285.2,14z M285.6,13.1c-0.2,0.1-0.4,0.3-0.6,0.5c0.4-0.3,0.5-0.2,0.5-0.1
		C285.8,13.2,286,13,285.6,13.1z M318.2,50l0.3-0.4C319,49.4,318.6,49.7,318.2,50z"/>
	<path class="st0" d="M312.1,20.6c-0.2,0.2-0.5,0.5-0.8,0.7C311.6,21.2,311.9,20.9,312.1,20.6z"/>
	<path class="st0" d="M325.2,29.4C325.2,29.4,325.2,29.4,325.2,29.4c0.1,0,0.2-0.1,0.3-0.2L325.2,29.4z"/>
	<path class="st0" d="M302.6,7.9c-0.1,0.3-0.4,0.5-0.6,0.8C302.3,8.4,302.6,8.1,302.6,7.9z"/>
	<path class="st0" d="M281.5,13.4l0.6-0.1c-0.2,0,0.1-0.4,0.3-0.6C282,13,281.6,13.5,281.5,13.4z"/>
	<path class="st0" d="M288.9,3.7c-0.2,0.1-0.1-0.1-0.3,0.1l-0.7,0.6C288.1,4.5,288.7,4.1,288.9,3.7z"/>
	<path class="st0" d="M286.2,9.1c1.2-1.1,0.7-0.9,0.3-0.8c0,0,0,0,0,0C284.8,9.7,285.5,9.4,286.2,9.1z"/>
	<path class="st0" d="M286.4,8.2c-0.1,0-0.2,0-0.2-0.1C285.6,8.7,286.2,8.3,286.4,8.2z"/>
	<path class="st0" d="M284.4,13.4c0.3-0.3-1.6,1.3-1.1,0.8C281.6,15.5,285.5,13.1,284.4,13.4z"/>
	<polygon class="st0" points="290.1,5.4 288.7,6.8 290,5.8 	"/>
	<path class="st0" d="M290.1,7.6l0.2-0.6c-0.3,0.2-0.4,0.3-0.6,0.4C289.8,7.6,289.6,8,290.1,7.6z"/>
	<path class="st0" d="M289.7,7.4c0-0.1-0.1-0.2-0.4,0C289.3,7.4,289.5,7.5,289.7,7.4z"/>
	<polygon class="st0" points="290.9,5.4 290.6,5.7 290.7,6 	"/>
	<path class="st0" d="M292.1,10.6l0.7-0.1c0.5-0.4,0.8-0.8,0.5-0.7C292.8,10,292.5,10.1,292.1,10.6z"/>
	<path class="st0" d="M295.5,6.2c-0.3,0.3-0.6,0.6-1.1,1.1l1.9-1.6L295.5,6.2z"/>
	<path class="st0" d="M296.7,6.6c0.5-0.4,1.8-0.9,1.4-1.1C297.5,5.9,296.9,6,296.7,6.6z"/>
	<polygon class="st0" points="297.8,12.7 297.7,12.7 294.6,15.3 	"/>
	<path class="st0" d="M308.3,10c0.5-1-2,1.6-1.3,0.5c-0.8,0.6-0.6,0.9-1.2,1.3C306.7,11.4,306.3,11.8,308.3,10z"/>
	<path class="st0" d="M305.7,11.8c-0.1,0.1-0.3,0.2-0.6,0.3C305.4,12,305.6,11.9,305.7,11.8z"/>
	<polygon class="st0" points="327.4,64 327,64.7 327.9,63.7 	"/>
	<path class="st0" d="M330.1,62.4l-1.9,1.7l1.9-1.4C329.9,62.8,329.7,62.8,330.1,62.4z"/>
	<path class="st0" d="M321.5,20.6l-0.5,0.4c-0.5,0.5-0.5,0.6-0.5,0.7L321.5,20.6z"/>
	<polygon class="st0" points="322.5,24.6 322.5,24.6 320.8,26.2 	"/>
	<path class="st0" d="M326.8,25.1c0-0.2-0.5,0.1-0.5-0.1C326.8,24.9,324.6,27,326.8,25.1z"/>
</g>
<g>
	<path class="st0" d="M273,109.7c-0.2,0,0.9,1.2,1.1,1.4C274,110.8,272.7,109.4,273,109.7z"/>
	<polygon class="st0" points="271.9,105.7 272.3,106.2 271.4,104.8 	"/>
	<path class="st0" d="M273.2,104.6c-1.9-2.1-0.2,0.7-1.1,0.2l-0.5-0.5l1.4,1.8C273.1,105.6,272.5,104.2,273.2,104.6z"/>
	<path class="st0" d="M277.8,108.8c-0.7-0.8-0.5-0.9-0.4-0.1c0.1,0.1,0.1,0.1,0.2,0.2C277.6,108.8,277.7,108.8,277.8,108.8z"/>
	<path class="st0" d="M277.6,108.9C277.5,109,278.3,109.5,277.6,108.9L277.6,108.9z"/>
	<path class="st0" d="M277.8,107.9l0.5,0.9c0.5,0.5,0.7,0.5,0.9,0.9C279,109.1,278.6,108.6,277.8,107.9z"/>
	<path class="st0" d="M276.7,106.1l0.2,0.4C277,106.7,277.1,106.8,276.7,106.1z"/>
	<path class="st0" d="M277.2,107.4l-0.4-0.8c-0.3-0.3-0.9-1.1,0.1,0.3C276.4,106.2,276.9,106.8,277.2,107.4z"/>
	<path class="st0" d="M276.8,107.1c-0.5-0.4-0.9-0.6-1.3-1.5C275.4,106.2,276.7,107.7,276.8,107.1z"/>
	<path class="st0" d="M271.3,102.3l-0.7-0.5l0.5,0.8C270.9,102.2,271.9,103,271.3,102.3z"/>
	<path class="st0" d="M279.8,108.2c-0.4-0.5-1.1-1.2-1.6-1.8l0.3,0.6C278.9,107.3,279.3,107.5,279.8,108.2z"/>
	<path class="st0" d="M278.3,106.3l-0.5-1C277.6,105.4,277.8,105.8,278.3,106.3z"/>
	<polygon class="st0" points="274.7,103.6 275.7,105.6 274.7,103.6 	"/>
	<polygon class="st0" points="280.6,107.6 281.4,108.8 280.3,107 	"/>
	<path class="st0" d="M281,107c0.6,1,1.3,1.5,1.7,2.1c0-0.3-0.5-1.1-1-1.9C281.9,107.7,281.7,107.7,281,107z"/>
	<path class="st0" d="M281.1,106c0.1,0.3,0.4,0.7,0.6,1.2C281.6,106.9,281.4,106.6,281.1,106z"/>
	<path class="st0" d="M278.3,105.3c0.2,0.3,0.9,1,1.2,1.2L278.3,105.3C278.4,105.3,278.4,105.3,278.3,105.3z"/>
	<path class="st0" d="M278.4,105.3L278.4,105.3c0.1,0,0.2,0,0.3,0C278.6,105.2,278.5,105.2,278.4,105.3z"/>
	<path class="st0" d="M278.3,105.3C278.3,105.3,278.3,105.3,278.3,105.3C278.2,105.2,278.2,105.2,278.3,105.3z"/>
	<path class="st0" d="M276.2,104.4c-0.5-0.8-0.9-1.8-2-2.8C274.8,102.6,275.5,103.2,276.2,104.4z"/>
	<path class="st0" d="M276.9,103.8l-0.5-0.1c0.3,0.3,0.7,0.8,1,1.2L276.9,103.8z"/>
	<polygon class="st0" points="276.6,103.2 276.9,103.8 277,103.8 	"/>
	<path class="st0" d="M279.7,105c-0.4-0.7-0.3-0.8-0.3-1c-0.3-0.2-0.6-0.2-0.7-0.1C279.1,104.4,279.6,105.2,279.7,105z"/>
	<path class="st0" d="M279,105C279,105,279,105,279,105C278.8,104.8,278.8,104.8,279,105z"/>
	<path class="st0" d="M280.6,103.2c-0.1-0.1-0.1-0.2-0.2-0.2L280.6,103.2L280.6,103.2z"/>
	<path class="st0" d="M278.6,103.7c-0.3-0.2-0.1,0.2,0.2,0.6c0-0.2,0-0.3,0-0.4C278.6,103.8,278.5,103.6,278.6,103.7z"/>
	<path class="st0" d="M280.9,105.2c-0.3-0.2-0.5-0.4-0.7-0.6C280.5,104.9,281.1,105.5,280.9,105.2z"/>
	<path class="st0" d="M279.3,105.3C279.3,105.3,279.3,105.3,279.3,105.3C279.6,105.6,279.4,105.5,279.3,105.3z"/>
	<path class="st0" d="M279.3,105.3c-0.1-0.2-0.3-0.6-0.5-0.9c0,0.1,0.1,0.3,0.2,0.6C279,105,279.1,105.2,279.3,105.3z"/>
	<path class="st0" d="M274.2,94.3c0.9,1.3,1.6,2.6,0.3,1.4c0.5,1.1,3.8,5.1,5.8,7.3c-0.4-0.6-0.8-1.1-1.2-2
		c-0.6-0.6-1.7-1.2-2.4-2.5c-0.2-0.9,0.6,0.3,1.2,0.8c-1.3-1.5-1.4-2.6-3.2-4.8l0.4,1C274.9,95.2,274.6,94.5,274.2,94.3z"/>
	<path class="st0" d="M279.9,103.2l0,0.2c0.3,0.1,0.7,0.6,1.6,1.5c-0.3-0.7-0.7-1.2-1-1.6l-0.6,0.2L279.9,103.2z"/>
	<path class="st0" d="M279.5,103.7c-1-1.4-1.2-2.2-2.5-3.5c-0.2,0.3,0.7,1.3,1,2c0.1-0.7,0.5,0.9,1.4,1.4c0.1,0.3,0.1,0.4,0.1,0.5
		c0.2,0.1,0.4,0.3,0.7,0.5c0,0,0,0-0.1-0.1l0,0c0,0,0,0,0,0c-0.1-0.2-0.2-0.3-0.1-0.2c0,0,0,0,0,0
		C279.8,104,279.6,103.9,279.5,103.7c0.3,0.2,0.3,0.3,0.4,0.5c0,0.1,0.1,0.1,0.2,0.2c0,0,0,0,0,0l-0.2-1.1
		C279.7,103.3,279.6,103.4,279.5,103.7z"/>
	<path class="st0" d="M272.1,98.6c0.1,0.1,0.2,0.2,0.3,0.3C272.2,98.7,272.1,98.6,272.1,98.6z"/>
	<path class="st0" d="M272.9,99.3c0.1,0.2,0.5,0.8,0.3,0.7c-0.4-0.3-0.5-0.6-0.9-1.1c0.2,0.4,0.6,1.1,1.3,1.6l-0.1-0.2
		c0.5,0.3,2.1,1.8,2.2,2C274.7,101.2,274,100.3,272.9,99.3z"/>
	<path class="st0" d="M276,101.1l-0.2-0.9l-1.1-1l0.6,0.7C274.8,99.7,275.6,100.5,276,101.1z"/>
	<polygon class="st0" points="281.1,103.9 282.2,105.4 280.8,103.2 	"/>
	<polygon class="st0" points="281.4,103.4 282.4,104.6 281.9,103.8 	"/>
	<path class="st0" d="M298.9,69l-0.1-0.5C298.9,68.7,298.9,68.9,298.9,69z"/>
	<path class="st0" d="M298,69.4l0.3,0.7C298.2,69.7,298,69.4,298,69.4z"/>
	<path class="st0" d="M292.6,95.3c1,1.1,2.4,3,1.4,1.5l-1-1.4C293,95.7,292.8,95.6,292.6,95.3z"/>
	<path class="st0" d="M295.4,81.4c-0.1-0.1-0.2-0.3-0.3-0.4c0.3,0.5,0.5,1,0.7,1.5C295.6,82.1,295.5,81.8,295.4,81.4z"/>
	<path class="st0" d="M291.9,75.1l0.8,0.8C292.4,75.6,292.2,75.4,291.9,75.1z"/>
	<path class="st0" d="M303.1,64.9l-0.6-1.7C302.2,63.4,302.7,64.1,303.1,64.9z"/>
	<path class="st0" d="M285.7,99.4c0.5,0.5,0.8,0.6,0.9,0.6C285.9,99.4,284.9,98.2,285.7,99.4z"/>
	<path class="st0" d="M307.1,85.5c-0.1-0.3-0.2-0.6-0.4-1C306.8,84.8,306.9,85.2,307.1,85.5z"/>
	<path class="st0" d="M287,99.8c-0.1-0.1-0.2-0.2-0.3-0.3c0.1,0.3,0.1,0.6-0.1,0.6C287.2,100.6,287.5,100.9,287,99.8z"/>
	<path class="st0" d="M322.2,58.3c0,0.1,0.1,0.1,0.1,0.2C322.2,58.2,322.2,58.2,322.2,58.3z"/>
	<path class="st0" d="M333.3,72.9c0,0.1-0.1,0.1-0.2,0.2C333.2,73.2,333.3,73.1,333.3,72.9z"/>
	<path class="st0" d="M283.7,102.6C283.7,102.8,283.8,102.8,283.7,102.6L283.7,102.6z"/>
	<path class="st0" d="M279.1,97.5c-0.1-0.2-0.2-0.4-0.5-0.7C278.9,97.1,279,97.3,279.1,97.5z"/>
	<path class="st0" d="M281.7,90.3L281.7,90.3C281.5,90,281.6,90,281.7,90.3z"/>
	<path class="st0" d="M283.1,102.1c0.2,0.1,0.3,0.3,0.4,0.3C283.4,102.3,283.3,102.2,283.1,102.1z"/>
	<path class="st0" d="M283.6,102.7c-0.1,0-0.1-0.1-0.2-0.1C283.6,102.9,283.7,103,283.6,102.7z"/>
	<path class="st0" d="M283.8,102.4c0,0.1-0.1,0-0.3,0c0.1,0.1,0.2,0.2,0.2,0.2C283.7,102.6,283.7,102.5,283.8,102.4z"/>
	<path class="st0" d="M314,66.5c0,0,0.1,0.1,0.1,0.1C313.9,66,313.9,66.1,314,66.5z"/>
	<path class="st0" d="M285.6,78.4C285.6,78.4,285.6,78.4,285.6,78.4c0,0.1,0.1,0.1,0.1,0.1L285.6,78.4z"/>
	<path class="st0" d="M285.3,77c1,1.9,0.7,1.8,0.4,1.5l2.8,4.2L285.3,77z"/>
	<path class="st0" d="M300.9,67.5l-1-1.2c-0.8-2.5-0.1-1.8-1.4-3.6c2.4,4.9-0.9,1.1,1.5,5.9l-0.7-0.9c0.1,0-0.1-0.3,0-0.3
		c-1.6-2.1,1.5,3.6,0.7,3.2c-0.4-0.3-0.8-0.9-1-1.6l0.2,1.4c-0.2,0-0.6-0.9-0.4-0.9l-0.4,0.7l-0.1-0.1c0.3,0.8,0.7,2.1,0.9,2.6
		c-0.5-0.6-0.2-0.5-0.6-1.1l0.3,1.3c-0.8-1.2-1.2-2.5-0.9-2.5c-2.8-4.6,0.4,1.3-1.7-1.1l0-0.8c-1.6-2.6-1.4-1.5-2.6-3
		c0.6,0.8,3,3.9,3.3,5.3c-0.3-0.3-0.5-0.4-0.2,0.7c-0.9-1.7-0.9-1.2-1-1l-1.2-2.3c0.1,0.8,0.8,1.9,1.2,3c-0.4-0.1-1.4-1.8-2.3-3.2
		c-0.6-0.1,1.8,2.6,1.5,3.3c-0.8-0.7-0.6,0.4-0.3,2c-0.7-0.6-0.7-1.4-1.2-2l0.8,1.9c-0.1,0-0.4-0.6-0.5-0.9c0.2,0.8,1.2,2.2,1.3,3
		c1.3,2.5-2.6-3.3-1.4-0.3c-0.4-0.6-0.7-1.4-1.3-2.2c0.5,2.1,0.3,1.6,1.3,4.3l-1.2-1.3c1.2,1.5,2,3.7,2.7,5.4c0.6,0.8,1,1.4,1.3,1.7
		l0.3,1.4c-0.3-0.3-0.7-1.1-1.1-2.1c0.1,0.2,0.2,0.4,0.2,0.6c-0.6-0.7-1.3-2-1.9-3.3c0.3,0.4,0.6,0.8,1,1.3c-0.7-1.4-1.4-3-2.2-4.2
		c0.1,0.3,0.2,0.5,0.2,0.7c-0.2-0.4-0.4-0.7-0.5-0.9c-0.2-0.2,0.1,0.3,0.3,0.9l-1.5-2.4l0.5,1l-1.5-1.2c1,2.7,2.8,6.6,2.8,8
		c-0.9-1.9-1.7-3-3-5.1c1.5,2.1-0.1-1.3,0.6-1c-0.3-0.1-0.9-1.2-1-1.6l0.6,2.4c-1-1.7-0.9-1.2-1.5-1.8c2.2,3.4,0.9,2.6,1.3,3.8
		c-0.7-1.1-1.4-2.4-0.9-2.3c-1.9-2.4,2,4.3,0.4,2.3c0.1-0.1,0.2,0.1-0.1-0.5c0.5,1.1-0.5,0.6-1-0.5l0.1-0.1
		c-0.7-0.1-1.5,0.9,0.2,3.8c-0.2-0.4-2.1-3.5-2.4-4.1l5.2,10.2c-1.5-2.5-5.5-8.2-6-9.9c-0.3-0.3-0.7-0.6-0.4,0.4
		c0.3,0.3,2.5,3.4,2.5,3.7c-2-2.6-1.1-1.3-3-3.4c0.5,0.5,2.8,4.4,2.5,4.4c-0.3-0.6-2.4-3.8-2.6-4.2l2,4.1c-0.3-0.8-2-3.2-2.8-4.2
		c0.5,0.7-0.4,0.2-0.3,0.6l0.8,0.7c-0.9-0.2,2.9,5.6,2.3,5.8c-0.4-0.8-3-4.9-3.5-5.2c1.1,2,5.6,9.6,6.1,11.4l-0.8-1l0.5,1.5
		c-1.7-3-5.2-9.5-6.4-12.1c-0.8-0.7-0.9-1.3-1.1-1c-0.8-1-0.9-1.7-0.8-1.8l-1.1-0.2c1.5,2.2,1,2.6,2.2,4.4l-0.8-2.8
		c1.5,2.2,3.8,6.6,3.1,6.6c-0.7-0.8-2.6-4-3.1-4.8c0.5,0.8,0.5,1.8,0.1,1.3l-0.6-1.3c-0.8-0.7,1.6,3.3-0.2,1.3
		c-0.2-0.1-2.3-2.6-1.4-1.3c1.9,2.4,7.3,10.2,8.5,12.2c-0.2-0.1-2.2-2.1-3.2-3.2c-1.5-1.9-3-4.9-4.3-6.5c0.4,0.6,0.8,1.4,0.9,1.7
		c-0.5-0.4-1.2-1.9-1.3-1.5c1.5,2.3-0.6,0.2,1.2,2c0.2,0.8-0.6-0.3-0.8,0c1.1,1.4,3.2,5.1,3.4,5.9c-0.4-0.6-1-1.3-1.2-1.6
		c-0.6,0.1-1.6-0.7-2.1-0.4c-0.4-0.5-1.1-1-1.7-2c0.2,0.4,0.7,1.2,0.6,1.4c-1.6-1.7,0.1-0.5-1.8-2.7c0.9,1.3,0.9,2,1.3,3
		c1.5,1.9,0.7,0.1,0.4-0.9c2,2.7,3.7,5.9,4.1,7.5c0.1,0.9-1.4-1.7-1.2-1.2c-1,0,2.9,5.2,0.9,3.6c-1.5-1.6-2.5-3.4-3.5-4.7
		c-0.2-0.9,1.3,0.8,1.4,0.6l-0.8-0.6c-0.3-0.6-0.4-1.2,0-0.8c-1.3-1.4-1.4,0.5-3-0.5c0.3,0.7,0.6,1.4,1.2,2l0-0.4
		c1.2,1.3,1.1,2.2,1.8,2.7c0.5,1.1,1.4,2.9,0.5,2.3l-1.5-1.9c0.4,0.6,1.1,1,0.7,0.4c0.5,1-2.5-2.3-0.7,0.4l1.2,1.2
		c0.5,1.1,1.8,3.4,1.1,3c1.6,1.8-0.1-0.3,1.8,1.8c-2.3-2.7,0.8-0.4-1.7-3.2c2.2,2.5,1.2,0.9,3.1,2.9c-0.5-0.6-1-1.2-0.6-1
		c-0.1-0.2-0.3-0.5-0.4-0.6c0,0,0,0,0.1,0L283,102c-0.1-0.1-0.1-0.1,0,0c-0.3-0.2-0.6-0.6-0.8-0.9c-1-1.6-0.6-1.8-1.1-2.7
		c0.4,0.2,0.5,0.8,1.1,1.4l-0.7-1.3c1.1,1.4,2.1,2.1,2.4,3.2l0.3-0.1c0.8,0.7,1.2,0.9,0.9,0.1c0.4,0.2-0.8-1.8-0.1-0.6l-0.2-1.2
		l0.3,0.4c0.6-0.1-0.8-3.1,1.6-0.8c-0.1-0.5-0.3-1,0.3-0.8l0.9,1.2c-0.1-0.6,1.5,0.9,0.6-0.5c2.6,3.3,1.4,0.1,2.2,0.5l-1.1-1.7
		c0.3-0.1,0.2-0.7,0-1.6l-1-1.5c-0.6-1.4,1.4,0.6,1.7,0.2c0.4,0.6,0.2,0.5-0.1,0.2c2.7,3-0.6-3.1,1.5-0.9c-0.2-0.6,0-0.5,0.3-0.2
		c0,0,0,0,0,0.1c0,0,0,0,0.1,0c0.2,0.2,0.5,0.5,0.7,0.7c-0.3-0.3-0.5-0.6-0.7-0.7c0.1-0.1,0.1-0.4,0-0.8l1.1,1.6c0,0,0,0,0-0.1
		c0.5,0.5-0.4-0.8-1.3-2c-0.1-0.3-0.3-0.7-0.5-1.1c1.8,2.5-0.2-1.1,1.7,1.6c-0.8-1.4,0-1.4-1.8-4.3c0.2,0.4,0.4,0.5,0.3,0.6
		c0.4,0.2,0.7,0.5,0.3-0.4l1.4,2l-1.4-3c1,1.1,1.5,1.8,2.3,3.5c-1.1-2.7-0.2-1.1-1.3-3.8l0.8,1.4c0.1-0.1-0.8-2.1,0-1
		c1.9,2.4,1.8-0.6,4,1.3c-2.6-3.9,1.4,1.6-0.4-1.5c0.6,0.9,1,1.4,1.4,2.3c-0.1-1.2,1.5,1.2,0.2-1.6c0.6,0.9,0.7,1.4,1.1,2
		c-0.1-0.2-0.4-0.9,0-0.4c0.4,0.5,0.4,0.8,0.6,1.3c0.3-0.4-1.4-3.4-2.9-6.1c1,1.2,1,0.9,0.1-1c0.6,0.9,1.3,1.7,1.2,2.2
		c0.2,0,1.7,0.8,0.4-1.4c0.4,0.5,0.3,0,0.2-0.2c0.4-0.1,0.6,0.1,0.8-0.3l-0.3-0.3c-1.4-2.8-0.1-0.8,0-1.2l0.1,0.3
		c1.7,1.6-0.3-1.1,1.6,0.8l-1-1.7c-1.9-3.6,1.7,1.8,1.3,0.3l-0.7-0.9c-0.5-1.3,3.2,4.6,3.7,5c0.2,0.3,0.2,0.5,0.3,0.8
		c1.7,1.9-1.1-2.2-1-3c0.7,1.2,1.6,3.1,1.9,3.2c0.6,0.9-1.4-4.3,0.2-2.2c-0.6-0.9-1.1-1.8-1.3-2.5c0.1-0.5,2.6,3.1,1.3,0.1
		c0.2,0.2,0.3,0.5,0.4,0.7c-0.2-0.9,0-1.6-0.7-3.2c3.2,5.8-0.2-3.5,2.6,1.9l0.5-0.6l0.3,0.6c0.6,0.2,0.1-1.2-0.4-2.6
		c0.3,0.3,0.5,0.9,0.6,1.2c1.1,0.8,1.1,0.6,0.2-2.4l0.9,1.8c-0.4-1.1,2.2,2.4,1.8,0c0.1,0.2,0.2,0.6,0.3,0.8
		c-0.3-2.4,3.9,4.2,1.1-2.4l-0.3-1.8c-0.8-0.2-1.2-2.9-2-3.9c0.1-0.5,1.5,1.7,1.4,2.2l-0.2-0.3c1.5,3.5,1.3,0.9,2.3,3.2
		c1-0.7,3,0.7,4.1,0.4l-1.3-2.6l0.4,0c0.4,0.6,1,2,0.7,2c0.8,1.5-0.1-1.5-0.4-2.1c1,0.9,1.1,3.2,1.3,3.2l0.1-0.3l-0.2-0.3
		c-0.3-1.2-0.8-2.3-0.4-2.3c0.4,0.5,0.8,1.6,0.9,1.7c0.1,0.2,0.1,0.3,0.2,0l0.6,0l-1.1-2c-0.2-1.1,0.5-0.1-0.7-2.4
		c1.9,3.6,2.3,0.6,3,1.7c-0.3-1.7,0-1.8,0.4-1.7c-0.3-0.4-1.3-2.8-0.9-2.6c1.9,5,1.4,1.9,3.1,5.4c-1.2-2.3,0.6-0.9-1-4.2
		c0.4,0.3,0.7,1.9,1.4,3c-0.1-2.2,1.8,0.7,2.3-0.2c-0.2-0.7-0.7-1.6-0.9-2.7l1.6,3.1c0-0.4-1.3-3.9-0.2-1.7
		c-0.2-0.5-0.6-1.4-0.6-1.6c1.3,1.3,1.9,0.4,2.5-0.2c0.7-0.6,1.5-0.8,3.3,2c-0.6-1.2-0.6-1.4-0.4-1.5c-0.2-0.3-0.6-1.6-0.9-2.5
		l1.5,2.3c-0.7-2.5,0.6-0.4-0.1-2.8l-0.1,0.5c-0.7-2.9-2.5-6.2-3.7-9.8c0.8,3.3-2.5-4.5-1.4,0.3c-0.4-0.7-0.3-1.2-0.7-2
		c0.4,1.6,0.3,2-0.2,1.4l-0.1-0.4c-0.7,0.7-1.6-0.7-2.9-1.4l0.7,1.8c-0.3-0.2-0.5-0.7-0.8-1.1c0.7,2.8,0.6-0.1,1.5,3
		c-1.6-3.5-1.4,0.5-3.1-3.6c-0.3,0.1,0.9,2,0.5,2.1l-0.5-1.1l0.5,1.5c-0.3-0.2-0.9-1.5-1.3-2.4c0.1,0.1,0-0.3,0.1-0.4
		c-0.8-1.2-0.6,0.7-0.8,0.3l0.6,0.6c-0.5,1.4-2.1,0.3-2,2.9l0.4,0.8c0,1.8-0.9-0.7-1.3,0.3l-0.1-0.2c0.2,0.9,0.2,1.4,0,1.4
		c-0.2-1-1.1-1.8-1.3-2.9c0,1.9,0.2,1.4,1,4.7l-0.7-1.3c0.4,1.3,0.6,2,0.4,2.5c-0.2-1.3-1.1-2-1.4-3.7c-2-2.7,0.2,3.5-2-0.8
		c1.3,3.9,1.5,1.8,1.6,2.7c0.7,1.2,0.9,2.9,0.5,2.7c-0.3,0-2.4-4.7-3-4.4c0.1,0-0.1-0.3,0-0.3c-0.6-0.9,0.1,1.5-0.8,0
		c0.8,2.3-0.4,0,0.8,2.9l0.2-0.9c0,0.9,1.2,4.4,0,3c-0.2-0.6-0.4-1.4-0.5-1.9c-0.5-0.8,0,0.7-0.6-0.1c-1.2-2.9,0.4-0.9-0.3-3.3
		c-0.7-1.2,0.3,2.4-0.9-0.9c1.5,4.1-0.8-0.3,0.2,3l-0.7-1.7c0.1,0.3,0.3,1.2,0.2,1.2l-0.8-2.3c0.5,2.1-1.4-1.4-1.2-0.2
		c0.6-0.3,1.1,2,1.9,3.2c0.3,2.7-2.5-4.3-3-3.1c0-0.3,0.9,0.8,1.1,1.7c-0.3-0.3-0.8-0.8-1.4-1.7c-0.4,0.6,0.9,1.7,1.1,2.9
		c-1.2-2,0.1,1,0.2,1.8l-0.8-1.8c-1.2-0.8,1.5,3.7,0.3,2.6l-0.9-2.5l0,0.8l-0.9-2c0.3,1.6,0.1,1.3-0.5,0.9c0.7,1.2,1.4,3.2,1.2,3.4
		c-0.7-0.9-0.7-1.7-1-1.3c-0.4-1.1-1-2.6,0-1c-0.2-0.6-0.4-1.1-0.7-1.7c-0.8-1.1-0.7,0-0.8,0.1c0.1,0,0.2,0.1,0.4,0.3l0.6,2.7
		c-0.4-0.6-0.6-1.2-0.8-1.7c0,0.2,0.3,1.1,0.2,1.3c-0.6-1.4-1.3-2.9-1.4-3.7l0.2,1.8c-0.3-0.6-1.1-1.5-1.3-2.1
		c-0.7-0.7,0.6,3.1-0.4,2.2c0.1,0.3,0.2,0.6,0.2,0.8c-0.5-0.1-1.7-1.7-1.3,0.5l-1.5-2.4c-0.1,0.7,1.9,3,1.8,4.2c0,1-1.2-2.1-1.7-2.7
		c0.4,1.4,1.4,4.1-0.1,2.3C300.5,67.4,300.8,67.7,300.9,67.5z M297.1,70.9c-0.1-0.4-0.5-1.6,0.1-0.6
		C298.1,72.2,297.5,71.4,297.1,70.9z M292.9,78.6c-0.3-0.6,0-0.4,0.5,0.2C293.4,78.9,293.2,78.9,292.9,78.6z M283.8,100.6
		C283.8,100.6,283.8,100.5,283.8,100.6C284.4,101,284.1,100.8,283.8,100.6z M283,100.1c0.1,0.2,0.3,0.5,0.5,0.7
		c-0.3-0.4-0.2-0.5,0-0.4C283.1,100,282.8,99.7,283,100.1z M320.4,77.9l-0.3-0.4C320,76.9,320.2,77.4,320.4,77.9z"/>
	<path class="st0" d="M292.3,75.9c0.2,0.3,0.4,0.6,0.6,0.9C292.7,76.4,292.5,76.1,292.3,75.9z"/>
	<path class="st0" d="M303.2,65.2C303.2,65.2,303.2,65.2,303.2,65.2c0-0.1-0.1-0.2-0.1-0.3L303.2,65.2z"/>
	<path class="st0" d="M278.8,83c0.2,0.2,0.5,0.4,0.7,0.7C279.3,83.4,279,83.1,278.8,83z"/>
	<path class="st0" d="M283.2,104l-0.1-0.6c0,0.2-0.3-0.2-0.6-0.4C282.9,103.5,283.3,104,283.2,104z"/>
	<path class="st0" d="M274.2,95.9c0.1,0.2-0.1,0.1,0.1,0.3l0.6,0.7C274.9,96.8,274.5,96.1,274.2,95.9z"/>
	<path class="st0" d="M279.2,99.1c-1-1.3-0.8-0.7-0.8-0.4c0,0,0,0,0,0C279.8,100.5,279.5,99.8,279.2,99.1z"/>
	<path class="st0" d="M278.4,98.8c0,0.1,0,0.2-0.1,0.1C278.8,99.6,278.5,99,278.4,98.8z"/>
	<path class="st0" d="M283.2,101.3c-0.3-0.3,1.2,1.7,0.8,1.2C285.1,104.2,282.9,100.2,283.2,101.3z"/>
	<polygon class="st0" points="275.8,94.9 277.1,96.5 276.2,95.1 	"/>
	<path class="st0" d="M277.9,95.2l-0.6-0.3c0.2,0.3,0.3,0.4,0.3,0.6C277.9,95.5,278.3,95.7,277.9,95.2z"/>
	<path class="st0" d="M277.7,95.5c-0.1,0-0.1,0.1,0,0.4C277.7,95.9,277.8,95.8,277.7,95.5z"/>
	<polygon class="st0" points="275.8,94.2 276.1,94.5 276.4,94.4 	"/>
	<path class="st0" d="M280.7,93.6l-0.1-0.7c-0.4-0.6-0.7-0.9-0.6-0.6C280.3,92.8,280.3,93.1,280.7,93.6z"/>
	<path class="st0" d="M276.7,89.7c0.3,0.3,0.6,0.6,1,1.1l-1.5-2L276.7,89.7z"/>
	<path class="st0" d="M277.2,88.7c-0.4-0.6-0.8-1.9-1-1.5C276.5,87.7,276.6,88.4,277.2,88.7z"/>
	<polygon class="st0" points="283.1,88.4 283.1,88.4 285.4,91.8 	"/>
	<path class="st0" d="M281.5,77.7c-0.9-0.6,1.3,2.2,0.3,1.3c0.4,0.9,0.8,0.7,1.2,1.4C282.6,79.5,283,79.9,281.5,77.7z"/>
	<path class="st0" d="M283,80.5c0.1,0.2,0.1,0.3,0.2,0.6C283.1,80.8,283,80.6,283,80.5z"/>
	<polygon class="st0" points="334.8,74.7 335.3,75.4 334.7,74.1 	"/>
	<path class="st0" d="M334.3,71.6l0.9,2.4l-0.6-2.3C334.6,71.9,334.5,72.2,334.3,71.6z"/>
	<path class="st0" d="M293.9,66.6l0.3,0.6c0.4,0.6,0.4,0.6,0.6,0.6L293.9,66.6z"/>
	<polygon class="st0" points="298.1,66.6 298,66.6 299.2,68.6 	"/>
	<path class="st0" d="M299.4,62.6c-0.2,0-0.1,0.5-0.2,0.5C299.3,62.5,300.8,65.2,299.4,62.6z"/>
</g>
</svg>
