<!-- Generator: Adobe Illustrator 22.1.0, SVG Export Plug-In  -->
<svg version="1.1"
	 xmlns="http://www.w3.org/2000/svg" xmlns:xlink="http://www.w3.org/1999/xlink" xmlns:a="http://ns.adobe.com/AdobeSVGViewerExtensions/3.0/"
	 x="0px" y="0px" width="228.2px" height="259.1px" viewBox="0 0 228.2 259.1" style="enable-background:new 0 0 228.2 259.1;"
	 xml:space="preserve">
<style type="text/css">
	.st0{fill:#373735;}
</style>
<defs>
</defs>
<g>
	<path class="st0" d="M15.4,72.7c-0.2-0.5-1.5,0.5-1.8,0.6C14.5,73.9,15.7,72.4,15.4,72.7z"/>
	<path class="st0" d="M23.8,75.7l-0.5,0.5c0,0,0.5-0.2,0.9-0.4c0.4-0.2,0.9-0.4,0.9-0.4s-0.3,0.1-0.6,0.2
		C24.1,75.7,23.8,75.7,23.8,75.7z"/>
	<path class="st0" d="M30,78.3c0-1.4-0.5-1.5-1.2-1.3c-0.7,0.1-1.6,0.5-2-0.3l0.1-0.7c0,0-0.4,0.5-0.7,0.9c-0.4,0.5-0.7,0.9-0.7,0.9
		c0.4,0.1,0.8,0.1,1.3,0.1c0.4,0,0.9-0.1,1.3-0.1C28.9,77.8,29.6,77.9,30,78.3z"/>
	<path class="st0" d="M32.8,85c-0.2-1.1,0.9-0.9-0.9-0.4c0.1,0.1,0.1,0.2,0.1,0.3C32.2,84.9,32.4,84.9,32.8,85z"/>
	<path class="st0" d="M32,84.9C31.2,84.9,32.4,85.8,32,84.9L32,84.9z"/>
	<path class="st0" d="M35.7,84.4c0,0-0.2,0.3-0.5,0.5c-0.3,0.3-0.5,0.5-0.5,0.5c0.2,0.7,1.1,0.8,0.8,1.3
		C36.5,86.1,36.2,85.5,35.7,84.4z"/>
	<path class="st0" d="M36.5,82.3L36,82.7C36.1,83,36.3,83.1,36.5,82.3z"/>
	<path class="st0" d="M35,83.6l1-0.9c-0.1-0.5-0.2-1.4-0.5,0.3C35.7,82.2,35.5,83,35,83.6z"/>
	<path class="st0" d="M34.4,83.2c-0.5-0.7-1.2-1.1-0.2-2C32.4,81.4,32.5,83.4,34.4,83.2z"/>
	<path class="st0" d="M30.9,75.5c0,0-0.1-0.2-0.2-0.5c-0.1-0.2-0.2-0.5-0.2-0.5s-0.2,0.2-0.4,0.4c-0.2,0.2-0.4,0.4-0.4,0.4
		C30.2,75,30.8,76.4,30.9,75.5z"/>
	<path class="st0" d="M41.8,85.3c0-0.6-0.6-1.5-0.8-2.3c0,0-0.1,0.2-0.3,0.4c-0.1,0.2-0.3,0.4-0.3,0.4
		C40.9,84.2,41.6,84.4,41.8,85.3z"/>
	<path class="st0" d="M41,83l0.8-1.2C41,81.9,40.9,82.4,41,83z"/>
	<path class="st0" d="M36.6,79.1c0,0-0.4,0.6-0.7,1.1c-0.4,0.6-0.8,1.1-0.8,1.1s0.5-0.6,0.9-1.1c0.5-0.6,0.9-1.1,0.9-1.1L36.6,79.1z
		"/>
	<path class="st0" d="M45.7,84.5l-0.2,1.5c0,0,0.1-0.6,0.2-1.2c0.1-0.6,0.2-1.2,0.2-1.2L45.7,84.5z"/>
	<path class="st0" d="M48,83.6c0,1.2,1.2,1.7,1,2.5c0.6-0.4,0.9-1.6,1-2.6C49.7,84.2,49,84.2,48,83.6z"/>
	<path class="st0" d="M50.4,82c-0.1,0.4-0.2,0.9-0.3,1.5C50.2,83.1,50.3,82.7,50.4,82z"/>
	<path class="st0" d="M43.5,81.8c0.2,0.3,0.5,1.2,1.1,1.5l-0.8-1.6C43.7,81.7,43.6,81.8,43.5,81.8z"/>
	<path class="st0" d="M43.8,81.7L43.8,81.7c0.4,0,0.7,0,0.8-0.1C44.5,81.6,44.3,81.6,43.8,81.7z"/>
	<path class="st0" d="M43.4,81.8C43.4,81.8,43.4,81.8,43.4,81.8C43.4,81.6,43.4,81.6,43.4,81.8z"/>
	<path class="st0" d="M39.1,80.5c0.5-1,1.3-2.1,0.1-3.5C39,78.2,39.7,78.9,39.1,80.5z"/>
	<path class="st0" d="M42.5,79.8l-1-0.2c0.1,0.4,0.4,1.1,0.2,1.6c0,0,0.2-0.3,0.4-0.7C42.3,80.2,42.5,79.8,42.5,79.8z"/>
	<polygon class="st0" points="42.8,79.2 42.5,79.8 42.8,79.9 	"/>
	<path class="st0" d="M48.2,81.1c0.2-0.8,0.6-1,1-1.4c-0.6-0.1-1.2-0.1-1.7,0.1C47.5,80.3,47.6,81.3,48.2,81.1z"/>
	<path class="st0" d="M46,81.3c0,0,0-0.1,0.1-0.1C46,81,45.9,81,46,81.3z"/>
	<path class="st0" d="M53.8,77.6c-0.1-0.1-0.1-0.2-0.2-0.2C53.6,77.5,53.7,77.6,53.8,77.6L53.8,77.6z"/>
	<path class="st0" d="M47.3,79.5c-0.5-0.2-0.6,0.3-0.7,0.9c0.2-0.3,0.5-0.5,0.8-0.6C47.4,79.6,47.3,79.4,47.3,79.5z"/>
	<path class="st0" d="M51.4,80.7c-0.3-0.2-0.7-0.4-1.1-0.6C50.8,80.5,51.5,81.1,51.4,80.7z"/>
	<path class="st0" d="M46.4,81.6C46.4,81.6,46.4,81.6,46.4,81.6C46.6,82,46.5,81.8,46.4,81.6z"/>
	<path class="st0" d="M46.4,81.6c0.1-0.3,0.2-0.8,0.2-1.2c-0.2,0.2-0.4,0.5-0.5,0.8C46.2,81.3,46.3,81.4,46.4,81.6z"/>
	<path class="st0" d="M49.7,67.3c0.8,1.4,0.7,3.1-0.8,2c-0.1,1.4,2.6,5.9,4.7,8.1c-0.3-0.6-0.6-1.2-0.2-2.5c-0.3-0.3-1-0.5-1.6-0.8
		c-0.6-0.4-1.1-0.8-1.1-1.6c0.6-1.2,1,0.1,1.9,0.5c-1.3-1.5-0.2-3.2-1.9-5.5l-0.2,1.3C50.2,68.4,50.1,67.6,49.7,67.3z"/>
	<path class="st0" d="M51.9,78l-0.3,0.3c0.5,0.1,1.1,0.5,2.2,1.3c0.3-1,0.1-1.6-0.1-2.1l-1.8,0.6L51.9,78z"/>
	<path class="st0" d="M50,79.1c-0.4-1.7,0.1-2.7-1.1-4.2c-0.9,0.5-0.1,1.6-0.4,2.5c1.5-1.1-0.1,1.1,1.5,1.5
		c-0.2,0.4-0.5,0.6-0.8,0.8c0.4,0.1,0.8,0.2,1.2,0.4c0,0-0.1-0.1-0.1-0.1l0,0c0,0,0,0,0,0c-0.2-0.2-0.2-0.3-0.1-0.2c0,0,0,0,0,0
		C50.1,79.5,50.1,79.3,50,79.1c0.6,0.1,0.3,0.4,0.2,0.6c0,0.1,0,0.2,0.1,0.2l0,0c0,0,0.3-0.4,0.7-0.8c0.3-0.4,0.7-0.8,0.7-0.8
		C51.2,78.3,50.8,78.6,50,79.1z"/>
	<path class="st0" d="M39.5,73.2c0.1,0.1,0.1,0.3,0.1,0.4C39.7,73.4,39.7,73.2,39.5,73.2z"/>
	<path class="st0" d="M40.3,74.1c-0.1,0.3,0,1-0.4,0.8c-0.4-0.5-0.1-0.8-0.2-1.4c-0.1,0.5-0.6,1.4,0.3,2.1l0.1-0.3
		c0.7,0.5,2,2.4,2,2.7C41.4,76.6,41,75.5,40.3,74.1z"/>
	<path class="st0" d="M44.8,76.5l1.1-1.2L44.7,74l0.3,0.8C44.2,74.8,44.7,75.8,44.8,76.5z"/>
	<path class="st0" d="M54.4,78.3L55,80c0,0-0.1-0.7-0.2-1.4c-0.1-0.7-0.2-1.4-0.2-1.4L54.4,78.3z"/>
	<polygon class="st0" points="56.1,77.1 56.8,78.5 56.8,77.4 	"/>
	<path class="st0" d="M35.9,21.5L35.8,22C35.9,21.9,35.9,21.7,35.9,21.5z"/>
	<path class="st0" d="M37.6,21.2l-0.1-0.8C37.5,20.8,37.6,21.1,37.6,21.2z"/>
	<path class="st0" d="M80.5,35.8c1.4-0.9,3.6-2.1,1.8-1.8l-1.7,0.5C81,35,80.8,35.5,80.5,35.8z"/>
	<path class="st0" d="M55.9,15.7c0,0.2-0.1,0.3-0.1,0.5c0.4-0.4,0.8-0.9,1.2-1.2C56.6,15.2,56.3,15.5,55.9,15.7z"/>
	<path class="st0" d="M52,21.7l0.1-1.2C52,20.9,52,21.3,52,21.7z"/>
	<path class="st0" d="M28.6,28l1,1.5C29.9,29.2,29.1,28.7,28.6,28z"/>
	<path class="st0" d="M70.5,63.8c0.9,0,1.4-0.2,1.7-0.4C71,63.3,69.5,62.7,70.5,63.8z"/>
	<path class="st0" d="M31.7,3.6c-0.2,0.4-0.2,0.8-0.1,1.1C31.8,4.4,31.8,4,31.7,3.6z"/>
	<path class="st0" d="M73.2,62c-0.2,0-0.3,0-0.5,0c0,0.5-0.1,1-0.5,1.3C73.1,63.4,73.9,63.2,73.2,62z"/>
	<path class="st0" d="M24.1,58.4c0,0.1,0,0.1-0.1,0.2C24.2,58.4,24.2,58.4,24.1,58.4z"/>
	<path class="st0" d="M31.6,78.2c-0.2,0.1-0.6,0.2-0.9,0.2C30.9,78.6,31.2,78.5,31.6,78.2z"/>
	<path class="st0" d="M63,73.2C62.7,73.5,63.1,73.3,63,73.2L63,73.2z"/>
	<path class="st0" d="M57.3,68.9c-0.1-0.2-0.2-0.4-0.4-0.8C57.1,68.5,57.2,68.7,57.3,68.9z"/>
	<path class="st0" d="M66.3,52.9L66.3,52.9C66,52.8,66.1,52.8,66.3,52.9z"/>
	<path class="st0" d="M62,72.9c0.3,0.1,0.5,0.1,0.7,0.1C62.6,72.9,62.4,72.9,62,72.9z"/>
	<path class="st0" d="M62.6,73.5c-0.2,0-0.3,0.1-0.4,0.1C62.3,73.9,62.5,74,62.6,73.5z"/>
	<path class="st0" d="M63.4,72.7C63.2,72.9,63,73,62.7,73c0.1,0,0.2,0.1,0.2,0.2C63.1,73.1,63.2,72.9,63.4,72.7z"/>
	<path class="st0" d="M14.6,41.2c-0.1,0-0.1,0-0.2,0C15.1,41.6,15,41.5,14.6,41.2z"/>
	<path class="st0" d="M60.9,31.9C60.9,31.9,61,31.8,60.9,31.9c0.1,0,0.1-0.1,0.1-0.1L60.9,31.9z"/>
	<path class="st0" d="M59.4,31.7c2.1-0.7,1.9-0.3,1.6,0.1c0,0,1.1-0.6,2.2-1.2c1.1-0.6,2.2-1.3,2.2-1.3s-1.5,0.6-3,1.2
		C60.9,31.1,59.4,31.7,59.4,31.7z"/>
	<path class="st0" d="M32.2,23.7c0,0,0.3,0.3,0.6,0.6c0.3,0.3,0.6,0.6,0.6,0.6c0.6,2.6-0.1,1.9,1.3,3.7c-1.3-2.4-0.9-2.7-0.5-3.1
		c0.2-0.2,0.4-0.4,0.4-0.8c0-0.4-0.1-1.1-0.6-2.4l0.8,0.9c-0.1,0,0,0.3-0.1,0.3c1.6,2.2-1-3.8,0.3-3.5c0.5,0.3,0.9,1,0.9,1.7
		c0,0,0.1-0.4,0.2-0.7c0.1-0.4,0.2-0.7,0.2-0.7c0.2,0,0.4,1,0.2,0.9c0,0,0.2-0.2,0.5-0.4c0.3-0.2,0.5-0.4,0.5-0.4l0,0.2
		c0-0.9,0.1-2.2,0.2-2.8c0.5,0.7-0.1,0.6,0.1,1.2c0,0,0.1-0.4,0.2-0.7c0.1-0.4,0.3-0.7,0.3-0.7c0.5,1.3,0.1,2.8-0.3,2.7
		c0.8,2.6,0.8,2.3,0.9,1.6c0.1-0.3,0.1-0.7,0.3-0.9c0.2-0.1,0.4,0,0.8,0.8c0,0-0.1,0.2-0.2,0.3c-0.1,0.2-0.2,0.4-0.2,0.4
		c0.4,1.5,0.6,2,0.8,2.3c0.2,0.3,0.4,0.5,0.7,1.5c-0.1-0.5-0.3-1.7-0.6-2.9c-0.3-1.2-0.5-2.5-0.3-3.2c0.2,0.4,0.4,0.6,0.8-0.5
		c0.1,1.9,0.4,1.4,0.8,1.3l-0.1,2.6c0.4-0.7,0.4-2,0.8-3.1c0.5,0.3,0.4,2.3,0.4,3.9c0.3,0.2,0.3-0.6,0.3-1.5c0-0.9,0-1.9,0.5-2.1
		c0.6,1.1,1.1,0.2,2.4-1.2c0.3,0.9-0.5,1.5-0.4,2.2c0,0,0.2-0.5,0.5-0.9c0.2-0.5,0.5-0.9,0.5-0.9c0.1,0.1-0.1,0.7-0.2,1
		c0.6-0.6,0.7-2.5,1.6-2.9c0.5-1.3,0.6-0.2,0.7,0.8c0.1,1,0.2,2.1,1.2,0.8c-0.1,0.8-0.7,1.4-1,2.4c0.9-0.8,1.3-1,1.7-1.4
		c0.4-0.3,0.8-0.8,1.9-1.8c0,0,0,0.5,0,1c0,0.5,0,0.9,0,0.9c0.4-2,2.1-3.6,3.8-4.8c0.2-0.9,0.4-1.7,0.5-2.2c0,0,0.5-0.1,1-0.2
		c0.2-0.1,0.5-0.1,0.7-0.2c0.2,0,0.3-0.1,0.3-0.1c-0.1,0.5-0.7,1.1-1.4,1.9c0.2-0.1,0.4-0.3,0.5-0.4c-0.1,1.1-1.1,2.2-2.1,3.2
		c0.1-0.5,0.3-1.1,0.4-1.6c-1.1,1.2-2.2,2.5-2.9,3.9c0.2-0.2,0.5-0.4,0.7-0.4c-0.3,0.3-0.5,0.6-0.6,0.9c-0.1,0.2,0.3-0.2,0.8-0.7
		l-1.3,2.6l0.6-0.9c0,0,0,0.6,0.1,1.1c0,0.6,0,1.1,0,1.1c2.4-1.9,5.8-4.5,8.2-4c-1.8,1.2-2.4,2.4-4.1,4.2c0.7-1.1,0.3-1.1-0.4-0.9
		c-0.6,0.2-1.5,0.5-1.6,0.1c0.2,0.5-0.7,1.3-1,1.6c0,0,0.6-0.2,1.3-0.5c0.7-0.2,1.3-0.4,1.3-0.4c-1.4,1.5-0.8,1.3-1.1,2.2
		c2.6-3.1,2.6-1.1,4-1.5c-1,0.9-2.1,1.8-2.3,1c-0.8,1.3,0.2,0.7,1.3,0c1.1-0.7,2.3-1.3,1.5-0.1c-0.1-0.1,0-0.3-0.6,0
		c1.2-0.4,1.1,1,0,1.5l-0.1-0.1c0.1,0.3,0.3,0.6,0.5,0.9c0.3,0.3,0.6,0.6,1,0.8c0.8,0.4,2,0.5,3.5-0.3c-0.4,0.2-3.6,1.9-4.3,2.2
		c0,0,0.7-0.3,1.7-0.6c1-0.3,2.4-0.8,3.8-1.1c2.8-0.8,5.8-1.3,5.8-1.3c-1.4,0.5-3.6,1.7-5.7,2.6c-2.1,1-4.1,1.8-5,1.7
		c-0.3,0.4-0.5,0.8,0.6,0.9c0.3-0.3,3.7-2.1,4.1-1.9c-1.4,1-1.7,1.3-2,1.5c-0.3,0.3-0.5,0.5-1.7,1.4c0.5-0.5,4.9-1.7,5-1.1
		c-0.7,0.1-4.3,1.4-4.8,1.4c0,0,1.2-0.1,2.3-0.2c1.1,0,2.3,0,2.3,0c-0.8-0.1-3.7,0.9-4.9,1.4c0.8-0.3,0.1,0.8,0.6,1
		c0,0,0.2-0.1,0.5-0.3c0.2-0.2,0.5-0.3,0.5-0.3c-0.1,0.3,0.3,0.5,0.9,0.6c0.6,0.1,1.4,0.1,2.2,0.2c1.6,0.1,3.4,0.3,3.3,1.1
		c-0.9-0.2-5.7,0.1-6.2,0.6c1.2,0.1,4,0.2,6.6,0.8c2.7,0.5,5.3,1.4,6.1,2.4l-1.3,0.2c0,0,0.4,0.4,0.7,0.7c0.3,0.4,0.6,0.8,0.6,0.8
		c-0.8-0.3-1.8-0.7-3-1.2c-1.2-0.5-2.5-0.9-3.8-1.4c-2.6-0.9-5.1-1.4-6.5-1.7c-1.1,0.4-1.6,0.1-1.5,0.7c-1.2,0.1-1.9-0.3-1.9-0.5
		l-0.8,1c2.7,0.1,2.6,1.2,4.8,1.6c0,0-0.6-0.5-1.3-1c-0.7-0.4-1.4-0.8-1.4-0.8c1.3,0,3.2,0.4,4.7,0.9c1.5,0.5,2.5,1.4,2.2,2
		c-1.1,0.1-4.7-1.1-5.6-1.2c0.9,0.3,1.5,1.3,0.9,1.3c0,0-0.3-0.2-0.7-0.4c-0.3-0.2-0.7-0.4-0.7-0.4c-0.6,0.2,0.3,0.6,0.9,1
		c0.6,0.4,1,0.9-0.3,0.8c-0.2,0.2-3.5-0.4-2,0.2c3,0.7,12.1,3.3,14.2,4.4c-0.1,0-1,0.3-2,0.5c-1,0.2-2.2,0.3-3,0.2
		c-1.2-0.2-2.5-1-3.7-1.7c-1.2-0.7-2.4-1.4-3.4-1.6c0.7,0.3,1.4,0.9,1.7,1.1c-0.7,0-2-1-2-0.3c2.4,1.2-0.8,1.1,2,1.2
		c0.4,0.9-0.8,0.4-1,1.1c0.8,0.3,2.1,1.1,3.1,2.1c1.1,0.9,1.9,2,2,2.5c-0.6-0.4-1.4-0.7-1.8-0.8c-1,1.2-2.5,1.2-3.4,2.3
		c-0.6-0.3-1.6-0.3-2.4-1.2c0.3,0.4,0.9,1.2,0.7,1.5c-2.3-0.9,0.3-1-2.3-2.2c1.2,1,1.1,2.2,1.4,3.3c2,1.5,1.3-0.8,0.9-1.9
		c1.3,1,2.5,2.3,3.4,3.6c0.9,1.3,1.4,2.7,1.4,3.9c-0.3,1.6-2-1-1.8-0.5c-1,0.7-0.3,2.1,0.2,3.3c0.5,1.2,0.9,2.3-0.7,2.2
		c-2.1-1-2.9-3.1-4.1-4.1c0.2-1.3,2.1-0.1,2.5-0.7l-1.3-0.1c-0.3-0.7-0.2-1.6,0.5-1.4c-0.9-0.4-1.7,0.2-2.5,0.9
		c-0.4,0.3-0.9,0.7-1.4,1c-0.5,0.3-1.1,0.4-1.7,0.4c0.2,0.8,0.3,1.7,1,2.2l0.2-0.6c1.5,1,0.7,2.6,1.8,2.7c0.1,1.4,0.6,3.6-1,3.5
		L56,69c0.4,0.6,1.5,0.7,1.3-0.1c0.3,1.2-3.3-1.7-1.9,1.2l1.6,0.9c0,0.7,0.2,1.8,0.1,2.7c-0.1,0.9-0.3,1.6-1,1.6
		c1.8,1.7,0.1-0.4,2.4,1.5c-1.3-1.3-0.6-1.7,0-2c0.5-0.4,1-0.7-0.5-1.9c2.6,2.2,1.9,0.4,4.5,1.9c-0.5-0.6-1.2-1-0.3-1.3
		c-0.1-0.2-0.2-0.5-0.3-0.7c0,0,0.1,0,0.1,0c0,0-0.1,0-0.1,0c0-0.1-0.1-0.1,0,0c-0.4-0.1-0.8-0.4-1.1-0.7c-0.8-1.7,0.4-2.6,0.1-3.6
		c0.6,0,0.4,0.9,1.2,1.3l-0.4-1.6c1.2,1.3,3.1,1.3,2.8,2.9c0,0,0.2-0.2,0.5-0.4c0.2-0.2,0.5-0.4,0.5-0.4c1.2,0.3,2.2-0.1,2.1-1.1
		c0.7-0.1-0.4-2.4,0.3-1.1c0,0,0.1-0.5,0.3-1.1c0.1-0.5,0.2-1.1,0.2-1.1l0.3,0.3c0.7-0.6,0.8-1.8,1.2-2.8c0.4-1,1-1.8,2.9-1.7
		c0-0.8-0.1-1.7,1-2.3l1.4,0.7c0-1,2.7-1.4,1.5-2.6c2,0.6,2.8-0.3,3.2-1.5c0.3-1.2,0.3-2.6,0.9-3.3l-1.9-0.8c0.3-0.5,0.3-1,0.3-1.7
		c0-0.6-0.2-1.3-0.4-2.1L77,48.1c-0.5-0.7-0.1-1.3,0.6-2c0.3-0.3,0.7-0.7,1-1.1c0.3-0.4,0.5-0.8,0.5-1.3c0.7,0.2,0.4,0.7,0,0.9
		c2.2-0.8,1.7-2.1,0.8-3.4C79,40.1,78.1,39,79.5,38c-0.7-0.5-0.5-0.8-0.1-1.2c0,0,0,0.1,0.1,0.1c0-0.1,0-0.1,0-0.2
		c0.3-0.2,0.6-0.5,0.9-0.8c-0.4,0.3-0.8,0.5-0.9,0.7c-0.1-0.4-0.4-1-0.9-1.5l1.9-0.5c0,0,0-0.1-0.1-0.1c0.6-0.7-1-0.3-2.4,0.2
		c-0.3-0.2-0.7-0.4-1.2-0.5c1.5-0.5,1.2-0.8,0.8-1.1c-0.3-0.3-0.6-0.7,0.9-1.3c-0.8,0-1.3-0.6-2-1.1c-0.7-0.5-1.6-0.9-3.3-0.5
		c0.4-0.2,0.6-0.4,0.7-0.1c0.2-0.6,0.3-1.3-0.7-1.5l2.2-1.1c0,0-0.9,0-1.7,0c-0.9,0-1.8,0.1-1.8,0.1c1-1.2,1.7-2,3.7-2
		c-1.7-0.3-2.1-0.4-2.5-0.6c-0.4-0.2-0.8-0.3-2.4-0.3l1.4-0.7c-0.4-0.5-2.6,0-1.7-1c0.5-0.7,0.5-1.3,0.3-2c-0.2-0.7-0.7-1.4-1.2-2.1
		c-1-1.5-2.4-2.9-2.6-5.1c-1.4,1.9-1.3,1.3-1.2,0.5c0.1-0.8,0.2-1.7-1.1-0.4c0.6-0.9,0.6-1.7,1.7-2.1c-1-0.1-1.2-0.9-1.5-1.4
		c-0.3-0.5-0.8-0.8-2.2,0.1c0.5-1,1.2-1.1,1.5-1.7c-0.3,0.1-1,0.5-0.8-0.2c0.2-0.6,0.7-0.6,1.3-0.8c-1.6-0.9-3.6,1.9-5.4,4.5
		c0.2-1.7-0.4-1.7-1.9-0.2c0.3-1,0.4-2.2,1.5-2.1c-0.4-0.4-2.4-3.1-3.6-0.7c0.1-0.7-0.6-0.5-0.9-0.3c-1.1-0.6-1.1-0.9-2.4-1.1
		l0.2,0.5c-1.5,2.8-1.2,0.4-2.2,0.4l0.1-0.3c-0.8-1.4-1.1-1.2-1.4-1c-0.3,0.2-0.5,0.3-1.4-1.1L47.2,8c-0.5,2-0.8,1.3-1.3,0.3
		c-0.4-1.1-1.1-2.3-1.8-1.6l0.4,1.1c-0.4,0.7-0.7-0.8-1.2-2.4c-0.4-1.7-0.9-3.6-1.3-3.9c-0.2-0.4,0.3-0.6,0.6-0.8
		c-1.1-1.3-1.2-0.6-1.2,0.4c0,1,0.1,2.4-0.7,2.7c-0.3-1.3,0.3-3.5-0.8-3.7c-0.3-0.5-1.1,0.6-1.9,1.6c-0.8,1-1.6,1.9-2.6,0.7
		c0.5,1,0.9,2,0.4,2.8c-0.5,0.3-1.4-0.6-2.2-1C32.8,3.8,32,3.7,32,5.5c-0.2-0.2-0.3-0.5-0.4-0.7c-0.3,0.5-0.8,1-1.2,1.7
		c-0.4,0.7-0.7,1.4-0.6,2.3c-1.5-3-2.5-1.8-3.1-0.5c-0.6,1.3-1,2.6-2.5-0.1c0,0-0.5,0.4-1,0.7c-0.5,0.4-0.9,0.8-0.9,0.8L21.9,9
		c-1.5,0.5-1.2,2-0.8,3.5c-0.5-0.1-0.6-0.7-0.8-1c-1.2,0.2-1.9,0.4-2.2,1c-0.3,0.6-0.2,1.5,0.2,3.3l-1.5-1.4
		c0.2,0.6-0.9,0.5-2.1,0.8c-1.2,0.2-2.4,0.9-2.3,2.5c-0.2-0.2-0.4-0.5-0.5-0.8c0,1.7-1.9,1.9-3.3,2.6C7.3,20,6.6,21,9.4,23.3
		c0,0,0.2,0.6,0.3,1.1c0.2,0.6,0.3,1.1,0.3,1.1c0.8-0.7,1.4-0.2,2,0.4c0.6,0.6,1.2,1.4,2,1.4c0,0.8-2.8,0.5-2.7-0.5l0.4,0.1
		c-3.1-2.2-2.3,1.5-4.5,0.2c-0.2,0.5-0.5,0.9-0.7,1.3c-0.2,0.4-0.5,0.9-0.8,1.3c-0.5,0.9-1.2,1.7-1.7,2.5c-0.6,0.9-1.1,1.7-1.6,2.6
		c-0.4,0.9-0.8,1.9-1.1,2.8l3,0.2c0,0-0.5,1.2-0.4,1.2c-0.7,0.2-2.3,0.1-2-0.9c-1.8,0.2,1.1,1.9,1.7,2c-0.7,0.8-1.5,0.5-2.2,0.1
		c-0.7-0.5-1.1-1.1-1.2-0.8l0.1,0.9l0.4-0.1c1.1,0.8,2.3,1,2,2.2c-0.6,0.7-1.8,0.2-2,0.5c-0.2,0-0.3,0.1-0.1,0.5l-0.3,1.8
		c0,0,0.6-0.2,1.2-0.3c0.6-0.1,1.2-0.3,1.2-0.3c1.1,0.8-0.2,1.6,2.5,0.9c-1,0.3-1.7,0.7-2,1.5c-0.3,0.7-0.4,1.6-0.3,2.4
		c0.1,1.6,0.8,3.1,0.3,3.6c1.9,0.7,2.1,1.7,2.3,2.9c0.4-0.5,2.8-1.4,2.8-0.4c-2.6,0.7-3,1.4-3.1,2.2c-0.1,0.8,0,1.6-1.5,2.9
		c1-0.9,1.5-0.2,2.1,0.3C6,61.3,6.7,61.7,8,60.3c0,1-1.8,1-2.5,2.2c1.5,0.5,1.8,1.7,2.2,3.1c0.4,1.4,0.7,3,2,3.9
		c0.5-0.4,1-1.5,2.2-1.7c0,0-0.4,0.9-0.8,1.7c-0.4,0.9-0.7,1.8-0.7,1.8c0.7,0.2,3.2-2.5,2.3,0c0.3-0.5,0.7-1.3,1.2-1.2
		c0.4,1.6,1.5,2.7,2.7,3.5c1.3,0.8,2.8,1.4,4.3,1.9c1.5,0.5,3.1,0.9,4.6,1.5c1.5,0.6,3.1,1.6,4.9,3.1c-1-1.3-0.4-1.5,0.3-1.6
		c-0.5-0.3-0.1-1.7-0.2-2.7c0,0,0.2,0.2,0.4,0.4c0.3,0.2,0.6,0.5,1,0.8c0.4,0.3,0.8,0.6,1.1,0.7c0.3,0.2,0.5,0.3,0.5,0.3
		c0-1.4,0.7-1.6,1.3-1.8c0.7-0.2,1.3-0.5,1-1.8c0,0-0.1,0.2-0.3,0.4c-0.2,0.2-0.3,0.4-0.3,0.4c0.1-1.6-0.8-3.1-1.6-4.6
		c-0.8-1.6-1.6-3.2-1.9-5.1c0.1,1.7-0.7,0.7-1.2-0.4c-0.6-1-0.8-1.8-1.4,0.6c-0.2-0.8,0.2-1.2,0.1-2.1c-0.2,1.6-0.6,2-1,1.2l0.1-0.4
		c-1.5,0.2-1.6-1.6-2.2-3.1l-0.8,1.7c-0.2-0.4,0-0.9,0.2-1.4c-1.8,2.3,0.8,0.6-1.1,3.2c0.7-1.8,0.2-2.1-0.3-2.6
		c-0.5-0.4-0.9-1,0.4-2.7c-0.4-0.4-1.3,1.8-1.7,1.4l0.7-1l-1.1,1c-0.1-0.5,0.8-1.7,1.5-2.4c0,0.1,0.4,0,0.5,0c0.3-0.7,0-0.8-0.3-0.8
		c-0.4,0-0.8,0-0.7-0.2l-0.2,0.9c-0.9-0.2-1.4-1-2-1.7c-0.6-0.7-1.2-1.4-2.7-1.6l-0.7,0.5c-2.1-0.5,0.4-1.4-0.9-2.4l0.2,0
		c-0.9,0.1-1.5-0.2-1.5-0.6c1.1,0,1.7-1.3,3-1.2c-1-0.4-1.4-0.4-2-0.4c-0.6,0-1.3,0.2-3,0.1l1.4-0.6c-1.4,0-2.1,0.1-2.6-0.7
		c0.7,0.2,1.2,0,1.8-0.2c0.6-0.2,1.2-0.4,2.1-0.2c1.5-1,0.6-1.3,0-1.7c-0.7-0.4-1.1-0.7,1.3-1c-4.1-0.7-2.2,1.3-3.1,0.9
		c-1.3,0.5-3.1-0.5-2.7-1.1c0.1-0.6,5.3-0.9,5.3-2.1c0,0.1,0.3,0.2,0.3,0.3c1-0.3-1.3-1.1,0.4-1.4c-2.4-0.7,0.2-0.7-2.9-1.3l0.5,1.3
		c-0.4-0.4-1.4-0.9-2.2-1.4c-0.7-0.5-1.2-1.2-0.1-1.6c0.6,0.2,1.3,0.7,1.8,1.1c1-0.2-0.5-0.8,0.6-0.9c1.5,0.4,1.6,0.8,1.6,1.2
		c0,0.4-0.1,1,1.1,1.5c1.4-0.1-2.1-1.7,1.2-0.7c-2.1-0.6-1.9-0.9-1.6-1.2c0.3-0.3,0.8-0.6-0.7-1.4l1.8,0.5c-0.3-0.2-1.1-0.7-1-0.9
		c0,0,0.6,0.3,1.1,0.5c0.6,0.3,1.1,0.5,1.1,0.5c-1-0.6-0.4-0.8,0.2-0.9c0.7-0.1,1.4-0.2,1-0.6c-0.3,1.2-2.3-0.4-3.8-0.3
		c-0.9-1.2,0.3-1.1,1.8-0.9c0.7,0.1,1.5,0.3,2.1,0.2c0.6,0,1-0.1,0.9-0.6c0.2,0.3-1.4,0.4-2.1-0.3c0.5-0.2,1.4-0.3,2.3-0.1
		c0.1-1.2-1.9-0.6-2.7-1.6c2.3,0.6-0.6-1-1-1.8l1.7,0.9c1.8-0.7-3.4-2.2-1.4-2.7c0,0,0.5,0.5,1,0.9c0.5,0.4,1,0.9,1,0.9l-0.3-0.9
		l1.8,1.2c-1.1-1.4-0.5-1.4,0.4-1.7c-1.2-0.6-2.9-2-2.6-2.6c1.2,0.3,1.3,1.2,1.7,0.3c0.8,0.9,2,1.9,0.3,1.2c0.5,0.4,0.9,0.8,1.4,1.2
		c1.3,0.4,0.9-0.7,1-1c-0.1,0-0.3,0.1-0.6,0c0,0-0.4-0.6-0.7-1.3c-0.3-0.7-0.7-1.3-0.7-1.3c0.7,0.3,1,0.8,1.4,1.3
		c0-0.3-0.6-1-0.5-1.5c1.1,1.1,2.4,2.1,2.7,3c0,0-0.2-0.5-0.3-1c-0.1-0.5-0.3-1-0.3-1c0.6,0.4,1.8,0.8,2.1,1.3
		c0.5,0.1,0.2-0.7,0-1.5c-0.2-0.8-0.4-1.6,0.3-1.4c-0.2-0.3-0.3-0.5-0.3-0.8c0.2-0.1,0.5-0.1,0.7,0c0.3,0,0.6,0.1,0.8,0.1
		c0.5,0,0.7-0.3,0.4-1.5c0,0,0.5,0.5,1,1c0.5,0.5,1,1,1,1c0.1-0.4-0.5-1.1-1.2-1.8c-0.6-0.7-1.3-1.5-1-2.3c0.3-1.2,1.6,1.8,2.3,2.3
		c-0.2-0.7-0.5-1.8-0.6-2.5c0-0.7,0.3-1,1.2-0.2C32.7,23.7,32.3,23.4,32.2,23.7z M40.1,20c-0.1,0.4-0.3,1.6-0.5,0.5
		C39.5,18.3,39.8,19.3,40.1,20z M55.4,19.8c-0.5,0.4-0.5,0-0.3-0.7C55.3,19,55.4,19.2,55.4,19.8z M65.3,69.1
		C65.3,69.1,65.3,69,65.3,69.1C66.2,69.1,65.9,69,65.3,69.1z M63.7,69.4c0.1,0.3,0.3,0.5,0.5,0.6c-0.3-0.4-0.1-0.7,0.3-0.8
		C64.1,68.9,63.7,68.8,63.7,69.4z M1.2,43.2L1.8,43C2.3,43.6,1.8,43.4,1.2,43.2z"/>
	<path class="st0" d="M52.4,21c0.1-0.3,0.3-0.6,0.5-0.9C52.7,20.3,52.5,20.7,52.4,21z"/>
	<path class="st0" d="M28.4,27.7C28.4,27.7,28.4,27.7,28.4,27.7c0,0.1,0.1,0.2,0.2,0.3L28.4,27.7z"/>
	<path class="st0" d="M61.3,45.9c0.3-0.1,0.7,0,1,0.1C61.9,45.8,61.5,45.7,61.3,45.9z"/>
	<path class="st0" d="M60.2,76.4l0.4-0.9c-0.3,0.3-0.7,0.1-1-0.1C59.8,75.8,60.4,76.2,60.2,76.4z"/>
	<path class="st0" d="M47.8,69.8c0,0.3-0.2,0.1-0.2,0.4L48,71C48.4,70.7,48.4,69.9,47.8,69.8z"/>
	<path class="st0" d="M55.8,71.6c-1-1.3-1.1-0.6-1.4,0c0,0,0-0.1,0.1-0.1C55.6,73.5,55.7,72.5,55.8,71.6z"/>
	<path class="st0" d="M54.3,71.7c-0.1,0.2-0.2,0.3-0.4,0.3C54.3,72.8,54.2,72.1,54.3,71.7z"/>
	<path class="st0" d="M63.2,71.3c-0.5-0.1,1.2,1.7,0.6,1.3C64.9,74.4,63.7,69.4,63.2,71.3z"/>
	<polygon class="st0" points="52.5,67.4 53.7,69 53.1,67.5 	"/>
	<path class="st0" d="M56.6,66.2l-1,0.1c0.2,0.3,0.3,0.5,0.2,0.7C56.3,66.7,57,66.6,56.6,66.2z"/>
	<path class="st0" d="M55.9,66.9c-0.2,0.1-0.4,0.3-0.3,0.7C55.6,67.5,55.9,67.3,55.9,66.9z"/>
	<polygon class="st0" points="53,66.3 53.5,66.5 54,66.3 	"/>
	<path class="st0" d="M63.5,60.2l0.2-1.1c-0.5-0.5-0.9-0.6-1-0.2C63,59.5,62.9,59.9,63.5,60.2z"/>
	<path class="st0" d="M57.7,58.4c0.5,0.1,0.8,0.4,1.3,0.8l-1.8-1.8L57.7,58.4z"/>
	<path class="st0" d="M58.9,56.3c-0.5-0.5-0.8-2.2-1.3-1.3C58.1,55.5,58,56.4,58.9,56.3z"/>
	<polygon class="st0" points="68.1,47.3 68,47.5 71.9,48.9 	"/>
	<path class="st0" d="M59.8,37.4c-0.9,0.7,2.5-0.1,1.3,0.5c1,0.1,0.9-0.6,1.8-0.5C61.8,37.1,62.4,36.8,59.8,37.4z"/>
	<path class="st0" d="M62.9,37.4c0.2,0.1,0.4,0.1,0.6,0.2C63.3,37.5,63.1,37.4,62.9,37.4z"/>
	<path class="st0" d="M35.8,79.5c0,0,0.3,0.1,0.7,0.2c0.3,0.1,0.7,0.2,0.7,0.2s-0.3-0.3-0.5-0.5c-0.3-0.3-0.5-0.5-0.5-0.5L35.8,79.5
		z"/>
	<path class="st0" d="M36.8,75.9l1.1,2.3c0,0-0.1-0.6-0.1-1.2c-0.1-0.6-0.2-1.2-0.2-1.2C37.5,76,37.1,76.4,36.8,75.9z"/>
	<path class="st0" d="M41.3,25.1l0-0.6c-0.1-0.7-0.1-0.7-0.3-0.8c0,0,0.1,0.4,0.1,0.7C41.3,24.8,41.3,25.1,41.3,25.1z"/>
	<polygon class="st0" points="36.2,24.1 36.3,24.1 35.4,22 	"/>
	<path class="st0" d="M33.6,28.8c0.2,0,0.1-0.6,0.3-0.6C33.8,28.7,31.9,26.3,33.6,28.8z"/>
</g>
<g>
	<path class="st0" d="M98,238.3c-0.5-0.2-0.5,1.5-0.7,1.8C98.3,239.8,98,237.8,98,238.3z"/>
	<polygon class="st0" points="107.3,235.1 107.2,235.8 108.5,234.1 	"/>
	<path class="st0" d="M115.7,235c-0.9-2.8-3,0.5-4.5-0.5l-0.2-0.6l-0.7,2.3C112.1,235.8,114.4,234.3,115.7,235z"/>
	<path class="st0" d="M120.7,240.8c-0.4-1.1,0.9-1-1.1-0.3c0.1,0.1,0.2,0.2,0.2,0.3C120,240.8,120.2,240.8,120.7,240.8z"/>
	<path class="st0" d="M119.8,240.8C118.9,241,120.5,241.7,119.8,240.8L119.8,240.8z"/>
	<path class="st0" d="M124,239.8l-1.1,1.1c0.3,0.6,1.4,0.7,1.1,1.2C125.2,241.4,124.8,240.8,124,239.8z"/>
	<path class="st0" d="M124.9,237.6c0,0-0.1,0.1-0.3,0.3c-0.1,0.1-0.3,0.2-0.3,0.2C124.4,238.4,124.6,238.5,124.9,237.6z"/>
	<path class="st0" d="M123.1,239.1l1.2-1c-0.2-0.4-0.4-1.4-0.6,0.4C123.8,237.6,123.6,238.5,123.1,239.1z"/>
	<path class="st0" d="M122.3,238.7c-0.7-0.6-1.6-0.9-0.5-2C119.5,237.4,120,239.3,122.3,238.7z"/>
	<path class="st0" d="M116,232c0,0-0.2-0.2-0.4-0.4c-0.2-0.2-0.4-0.4-0.4-0.4l-0.7,1c0.2-0.2,0.6,0,1,0.1
		C115.7,232.4,116,232.5,116,232z"/>
	<path class="st0" d="M131.7,240.1c0-0.6-0.7-1.5-0.9-2.3l-0.8,0.8C130.6,239,131.5,239.2,131.7,240.1z"/>
	<path class="st0" d="M130.8,237.8l1.1-1.2C130.7,236.6,130.6,237.2,130.8,237.8z"/>
	<path class="st0" d="M124.7,234.4c0,0-0.4,0.6-0.9,1.2c-0.5,0.6-0.9,1.2-0.9,1.2s0.6-0.6,1.1-1.2c0.3-0.3,0.6-0.6,0.8-0.9
		c0.2-0.2,0.3-0.4,0.3-0.4L124.7,234.4z"/>
	<polygon class="st0" points="136.8,239.1 136.4,240.7 137.2,238.3 	"/>
	<path class="st0" d="M140.1,238.1c-0.3,1.3,1.3,1.7,0.8,2.6c0.9-0.4,1.4-1.6,1.9-2.6C142.2,238.7,141.3,238.7,140.1,238.1z"/>
	<path class="st0" d="M143.6,236.4c-0.3,0.4-0.5,1-0.8,1.6C143.1,237.7,143.4,237.2,143.6,236.4z"/>
	<path class="st0" d="M134.2,236.4c0.2,0.3,0.6,1.2,1.4,1.5l-0.9-1.5C134.5,236.4,134.4,236.4,134.2,236.4z"/>
	<path class="st0" d="M134.7,236.3L134.7,236.3c0.6,0,1-0.1,1.1-0.1C135.7,236.2,135.3,236.2,134.7,236.3z"/>
	<path class="st0" d="M134.1,236.5c0,0,0.1,0,0.1,0C134.1,236.3,134.1,236.2,134.1,236.5z"/>
	<path class="st0" d="M128.2,235.4c0.6-1.1,2-2.3,0.2-3.5C128.1,233.1,129.1,233.8,128.2,235.4z"/>
	<path class="st0" d="M133,234.5l-1.4-0.2c0.1,0.4,0.5,1,0.2,1.6L133,234.5z"/>
	<path class="st0" d="M133.5,233.8c0,0-0.1,0.2-0.3,0.3c-0.1,0.2-0.3,0.3-0.3,0.3c0,0,0.5,0,0.5,0L133.5,233.8z"/>
	<path class="st0" d="M140.8,235.5c0.4-0.9,1-1.1,1.7-1.4c-0.9-0.1-1.7-0.1-2.5,0.1C140.1,234.7,140,235.8,140.8,235.5z"/>
	<path class="st0" d="M137.8,235.7c0,0,0.1-0.1,0.1-0.1C137.8,235.5,137.7,235.5,137.8,235.7z"/>
	<path class="st0" d="M149.5,231.9c-0.1-0.1-0.1-0.2-0.2-0.3c0,0.1,0,0.2,0.1,0.3L149.5,231.9z"/>
	<path class="st0" d="M139.8,233.9c-0.7-0.2-0.9,0.3-1.1,0.9c0.4-0.3,0.8-0.5,1.3-0.6C140,234,140,233.8,139.8,233.9z"/>
	<path class="st0" d="M145.3,235c-0.4-0.2-0.8-0.4-1.3-0.6C144.5,234.9,145.3,235.5,145.3,235z"/>
	<path class="st0" d="M138.2,236C138.2,236.1,138.1,236.1,138.2,236C138.4,236.4,138.3,236.3,138.2,236z"/>
	<path class="st0" d="M138.2,236c0.2-0.3,0.4-0.8,0.5-1.2c-0.3,0.2-0.6,0.5-0.8,0.8C138,235.7,138.1,235.9,138.2,236z"/>
	<path class="st0" d="M147.7,220.8c0.2,0.8,0.1,1.6-0.2,2.1c-0.4,0.5-1.1,0.7-1.9,0c-0.8,1.5,1.6,6.2,3.7,8.6
		c-0.2-0.7-0.4-1.3,0.6-2.6c-0.8-0.7-3.5-1-2.9-2.7c1.4-1.3,1.5,0.1,2.6,0.6c-1.3-1.6,1-3.5-0.4-6.1l-1,1.5
		C148,221.9,148.3,221.1,147.7,220.8z"/>
	<path class="st0" d="M146.7,232.3l-0.5,0.4c0.7,0.1,1.3,0.5,2.6,1.4c0.7-1,0.7-1.6,0.5-2.2l-2.7,0.7L146.7,232.3z"/>
	<path class="st0" d="M143.8,233.4c-0.1-1.8,1-2.9-0.3-4.4c-1.5,0.6-0.7,1.7-1.4,2.7c2.4-1.2-0.5,1.2,1.6,1.5
		c-0.4,0.4-0.8,0.7-1.3,0.9c0.5,0.1,1,0.2,1.5,0.3c0,0-0.1-0.1-0.1-0.1l0,0c0,0,0,0,0,0c-0.2-0.2-0.2-0.3-0.1-0.2c0,0,0,0,0-0.1
		C143.8,233.8,143.8,233.6,143.8,233.4c0.8,0.1,0.2,0.4,0.1,0.7c0,0.1,0,0.2,0,0.3c0,0,0,0,0,0l2.3-1.7
		C145.6,232.6,145,232.8,143.8,233.4z"/>
	<path class="st0" d="M129.2,228c0.1,0.1,0.1,0.3,0.2,0.4C129.4,228.2,129.5,228,129.2,228z"/>
	<path class="st0" d="M130.4,228.9c-0.1,0.3-0.2,1-0.8,0.9c-0.6-0.4-0.1-0.8-0.3-1.4c-0.3,0.5-1,1.4,0.2,2.1l0.1-0.3
		c1.1,0.4,2.9,2.3,2.7,2.6C131.8,231.3,131.3,230.3,130.4,228.9z"/>
	<path class="st0" d="M136.9,230.9l1.9-1.3l-1.4-1.2l0.3,0.9C136.4,229.1,136.9,230.2,136.9,230.9z"/>
	<polygon class="st0" points="150,232.6 150.3,234.4 150.7,231.6 	"/>
	<polygon class="st0" points="152.7,231.4 153.1,232.9 153.5,231.7 	"/>
	<path class="st0" d="M199.4,107.9l-0.7-0.2C199,107.9,199.2,107.9,199.4,107.9z"/>
	<path class="st0" d="M201.4,111.2l0.7-0.3C201.6,110.9,201.3,111,201.4,111.2z"/>
	<path class="st0" d="M208.9,188.2c1.7,0.1,4.3,0.4,2.7-0.5l-1.6-0.7C209.9,187.8,209.5,188.1,208.9,188.2z"/>
	<path class="st0" d="M217.1,140.9c-0.2,0.1-0.4,0.1-0.5,0.2c0.6,0.3,1.1,0.5,1.6,0.8C217.9,141.6,217.5,141.3,217.1,140.9z"/>
	<path class="st0" d="M210,139.7l1.2-0.9C210.8,139,210.4,139.3,210,139.7z"/>
	<path class="st0" d="M183.9,93.5l-1.6,0.9C183,95,183.2,94.1,183.9,93.5z"/>
	<path class="st0" d="M178.8,217c1.1,0.1,1.8-0.1,2.3-0.3C179.7,216.4,178.2,215.6,178.8,217z"/>
	<path class="st0" d="M215.8,99.3c-0.5-0.2-0.9-0.1-1.2,0.1C215.1,99.6,215.5,99.6,215.8,99.3z"/>
	<path class="st0" d="M183,215.3c-0.2,0-0.4,0-0.6-0.1c-0.3,0.6-0.7,1.1-1.4,1.4C182.1,216.8,183.1,216.7,183,215.3z"/>
	<path class="st0" d="M111.7,61.4c-0.1-0.1-0.1-0.1-0.2-0.2C111.5,61.4,111.6,61.4,111.7,61.4z"/>
	<path class="st0" d="M84.4,48.3c0.2-0.2,0.7-0.4,1.1-0.6C85.2,47.7,84.9,47.8,84.4,48.3z"/>
	<path class="st0" d="M163.8,227.3C163.3,227.7,163.8,227.5,163.8,227.3L163.8,227.3z"/>
	<path class="st0" d="M158.2,222.4c0-0.2,0-0.5-0.1-0.9C158.2,222,158.2,222.2,158.2,222.4z"/>
	<path class="st0" d="M181.1,203.1C181.1,203.1,181.1,203,181.1,203.1C180.8,202.9,180.8,202.9,181.1,203.1z"/>
	<path class="st0" d="M162.6,227c0.3,0.1,0.6,0.1,0.9,0.1C163.4,227.1,163.1,227,162.6,227z"/>
	<path class="st0" d="M163.1,227.7c-0.2,0-0.4,0.1-0.6,0.1C162.6,228.1,162.7,228.2,163.1,227.7z"/>
	<path class="st0" d="M164.5,226.9c-0.3,0.2-0.6,0.3-1,0.3c0.2,0.1,0.3,0.1,0.2,0.2C163.9,227.2,164.1,227.1,164.5,226.9z"/>
	<path class="st0" d="M154.8,68.4c0-0.1,0-0.1,0-0.2C154,68.6,154.2,68.6,154.8,68.4z"/>
	<path class="st0" d="M201.4,166.1C201.4,166.1,201.5,166.2,201.4,166.1c0.1,0.1,0.1,0.1,0.1,0.1L201.4,166.1z"/>
	<path class="st0" d="M201.1,163.9c1.6,1.7,1.1,2,0.4,2.3l4.8,1.7c0,0-1.3-1-2.6-2C202.4,164.8,201.1,163.9,201.1,163.9z"/>
	<path class="st0" d="M193.4,100.9l-0.4,2c-2.9,0.5-2.9-0.8-3.8,1.5c2.1-1.7,3-0.9,3.9-0.1c0.8,0.8,1.7,1.7,3.9,0.1l-0.4,1.4
		c-0.1-0.2-0.4-0.1-0.5-0.3c-1.2,2.8,3.9-1.4,4.5,0.8c0.1,0.9-0.3,1.7-1.1,1.7c0,0,0.5,0.1,1,0.3c0.5,0.2,1,0.3,1,0.3
		c0.2,0.5-0.7,0.9-0.9,0.4c0,0,0.4,0.5,0.8,0.9c0.2,0.2,0.4,0.5,0.6,0.6c0.1,0.2,0.2,0.3,0.2,0.3l-0.1,0.1c0.9-0.1,2.4-0.1,3.1,0
		c-0.4,0.9-0.7,0-1.2,0.5c0,0,0.5,0.1,0.9,0.3c0.5,0.1,0.9,0.3,0.9,0.3c-1,1.1-2.7,0.8-3-0.1c-2.1,1.9-1.6,1.9-0.9,2
		c0.7,0.1,1.9,0.3,1,2.2c0,0-0.3-0.2-0.6-0.4c-0.3-0.2-0.6-0.4-0.6-0.4c-2.4,2-1,2.4-2.3,4.3c0.4-0.3,1.3-1.4,2.2-2.3
		c1-0.9,2-1.7,2.9-1.4c-0.2,0.5-0.2,1.1,1.1,1.4c-1.8,0.7-1.1,1.3-0.6,2.1l-2.4,0.8c1,0.6,2.2,0.1,3.5,0.3c0.1,1.2-1.7,2-3.2,2.7
		c0.1,0.8,0.7,0.4,1.5-0.1c0.8-0.5,1.7-1,2.2-0.1c-0.3,0.9-0.1,1.4,0.4,2c0.5,0.6,1.2,1.1,2.2,1.9c-0.7,1.2-1.6,0.1-2.2,0.6
		c0,0,0.5,0.1,1.1,0.3c0.5,0.1,1.1,0.3,1.1,0.3c0,0.2-0.6,0.3-1,0.3c0.9,0.7,2.5-0.3,3.4,0.9c1.4,0,0.5,0.8-0.4,1.7
		c-0.4,0.5-0.9,0.9-1,1.4c-0.1,0.4,0,0.9,0.9,1.2c-0.7,0.4-1.6-0.1-2.6,0c1.1,1,1.5,1.5,1.9,1.9c0.5,0.4,1.1,0.8,2.4,1.8
		c0,0-0.4,0.4-0.9,0.8c-0.4,0.4-0.9,0.7-0.9,0.7c2-1,4.2,0.5,5.9,2.1c1-0.4,1.8-0.7,2.2-0.9c0,0,0.3,0.6,0.6,1.2
		c0.3,0.6,0.6,1.3,0.6,1.3c-0.5,0.2-1.3-0.1-2.3-0.6c0.2,0.2,0.4,0.4,0.6,0.5c-1,0.7-2.5,0.1-3.8-0.6c0.6-0.2,1.1-0.4,1.6-0.6
		c-1.5-0.7-3.2-1.3-4.7-1.3c0.3,0.2,0.5,0.4,0.6,0.7c-0.4-0.2-0.8-0.3-1-0.3c-0.3,0,0.3,0.3,0.9,0.7l-2.9,0.2l1.1,0.2
		c0,0-0.5,0.6-1,1.2c-0.5,0.6-1.1,1.2-1.1,1.2c2.6,2.3,6.4,4.9,6.6,8.5c-1.8-1.3-3.3-1-5.6-1.7c1.4-0.1,1.3-0.8,0.9-1.6
		c-0.4-0.8-1-1.7-0.6-2.5c-0.4,0.8-1.6,0.3-1.9,0c0,0,0.5,0.8,0.9,1.6c0.4,0.8,0.8,1.7,0.8,1.7c-1.9-0.6-1.6,0.2-2.6,0.7
		c4,0.5,2,2.8,2.8,4.3c-1.3-0.4-2.5-1-1.8-2.3c-1.7,0.3-0.7,1.1,0.3,2c1,0.9,2.1,1.8,0.6,2.1c0.1-0.4,0.3-0.5-0.3-0.8
		c0.9,1.2-0.8,2.8-1.7,1.9l0.1-0.3c-0.6,1-1.3,2.7-1.5,4.3c-0.2,1.6,0.1,3.2,1.6,4.1c-0.4-0.2-3.6-2.1-4.1-2.5c0,0,2.2,2.2,4.2,4.4
		c1,1.1,2.1,2.3,2.8,3.2c0.7,0.9,1.2,1.5,1.2,1.5c-2.4-1.7-9.3-3.7-9.8-6.2c-0.6,0.3-1.4,0.6-1.1,2.2c0.5-0.1,4.2,1.2,4.2,1.8
		c-3.6-0.3-2,0.1-5.3,0.2c0.8-0.2,4.5,2.7,3.9,3.4c-0.5-0.5-3.9-2.2-4.2-2.8c0,0,0.7,1.1,1.4,2.1c0.3,0.5,0.7,1.1,0.9,1.5
		c0.2,0.4,0.4,0.7,0.4,0.7c-0.4-0.9-3.2-2.1-4.5-2.4c0.9,0.3-1.2,1.5-1.1,2.3l1.4-0.2c-2,1.7,3.8,5.7,2.1,7.8
		c-0.6-0.8-4.2-4-5.4-3.3c0.7,0.9,2.6,3.1,4.1,5.5c1.6,2.4,2.9,4.9,2.8,6.5l-1.3-0.5l-0.1,2.5c-0.9-1.6-2.3-4.2-3.6-6.8
		c-1.3-2.6-2.6-5-3.2-6.5c-1.4,0.1-1.4-0.7-2.2,0.4c-1.3-0.4-1-1.7-0.8-2.1l-2.6,2c2.2,1.6,0.5,3.7,2.3,5c0,0,0-1.2,0.1-2.3
		c0-1.1,0-2.3,0-2.3c1.1,0.8,2.3,2.4,2.9,4c0.3,0.8,0.5,1.6,0.5,2.4c0,0.4-0.1,0.7-0.2,1c-0.1,0.3-0.3,0.5-0.6,0.7
		c-1.2-0.3-3.3-3.5-4-4c0.5,0.8-0.2,2.8-0.8,2.5l-0.4-1.7c-1.6,0.2,1.2,4-1.8,3.4c-0.5,0.3-3.6-1.3-2.5-0.1c2.8,1.5,9.7,8,10.9,10.1
		c-0.3,0.1-4.4,0.1-5.9-0.5c-2.3-1.1-2.9-5.1-4.9-6.1c0.5,0.6,0.7,1.6,0.8,1.9c-0.9-0.1-1.4-1.8-2.1-0.7c1.7,2.1-2,1.6,1.1,2.1
		c-0.4,1.4-1.4,0.5-2.3,1.6c0.7,0.5,1.5,1.9,2,3.3c0.5,1.4,0.6,2.9,0.4,3.6c-0.4-0.6-1.2-1.1-1.6-1.3c-2.3,1.5-4.1,1.4-6.1,2.8
		c-0.6-0.4-2-0.4-2.3-1.6c0,0.6,0.3,1.5-0.3,2c-2.5-1.1,1.2-1.2-1.4-2.9c0.8,1.3-0.3,2.9-0.7,4.3c1.6,1.9,2.3-1,2.6-2.4
		c2,2.7,2.4,6.7,1,9.6c-1.3,1.9-1.9-1.3-2-0.7c-3.7,1.6,0.1,6.8-4.1,6.4c-2.2-1.2-2.1-3.7-3.2-4.9c1.1-1.6,2.9-0.1,3.9-0.8l-1.8-0.2
		c0.1-0.9,0.8-1.9,1.7-1.7c-1-0.6-2.4,0.2-4.1,1.1c-0.8,0.4-1.7,0.9-2.6,1.2c-0.9,0.3-1.8,0.5-2.7,0.4c-0.1,0.9-0.6,2,0.1,2.5
		l0.7-0.7c1.6,1.2-0.6,2.9,0.9,3.1c-0.6,1.7-1.2,4.1-3.3,4l-1.3-2.1c0.3,0.7,1.7,0.8,1.9-0.1c-0.1,0.7-1.1,0.2-2,0
		c-0.9-0.2-1.7-0.3-1.4,1.4l1.9,1.1c-0.7,1.6-1.3,4.7-3.2,4.6c1.6,2,0.3-0.4,2.5,1.8c-2.3-2.9,4.2-1.5,1.1-4.3
		c2.5,2.6,2.5,0.4,5.2,2.2c-0.4-0.7-1.2-1.1,0.3-1.4c0-0.2,0-0.6,0-0.8c0,0,0.1,0,0.1,0c0,0-0.1,0-0.1-0.1c0-0.1,0-0.2,0,0
		c-0.5-0.2-0.9-0.4-1.2-0.8c-0.2-2,1.9-2.9,2.1-4.1c0.9,0,0.1,1,0.9,1.5l0.4-1.8c0.9,1.5,3.4,1.6,2.1,3.5c0,0,0.4-0.2,0.8-0.4
		c0.4-0.2,0.8-0.4,0.8-0.4c1.4,0.3,2.9-0.1,3.3-1.2c1-0.1,0.9-2.8,0.9-1.2l1.9-2.4l0.3,0.4c1.2-0.7,2-2.1,3.1-3.3
		c1-1.1,2.3-2,4.6-1.6c0.5-0.9,0.9-2,2.5-2.6l1.2,1c0.6-1.2,3.9-1.1,3.3-2.7c0.9,0.6,1.7,0.7,2.4,0.5c0.7-0.2,1.3-0.8,1.8-1.4
		c1.1-1.3,1.9-2.9,3-3.4l-1.3-1.5c0.6-0.5,1.1-1,1.4-1.7c0.4-0.7,0.7-1.6,1-2.5l-1.4-1.2c0-2.1,3.7-2,5.2-4c0.4,0.6-0.2,0.9-0.8,1
		c0.6,0.1,1.1,0,1.6-0.1c0.4-0.2,0.7-0.4,0.9-0.7c0.5-0.6,0.6-1.5,0.8-2.4c0.3-1.8,0.4-3.5,2.4-3.7c-0.1-0.9,0.4-1.2,1-1.3
		c0,0.1,0,0.1,0,0.2c0.1,0,0.1-0.1,0.2-0.2c0.4-0.1,0.9-0.1,1.3-0.2c-0.5,0-1,0-1.2,0.1c0.3-0.5,0.5-1.2,0.6-2.1l1.8,0.8
		c0-0.1,0-0.1,0.1-0.2c1-0.2-0.4-1-1.8-1.5c0-0.5-0.2-1-0.4-1.5c2.9,1.2,0.2-2.2,3.5-1.1c-0.6-0.7-0.2-1.6-0.2-2.7
		c0-1.1-0.2-2.3-1.5-3.3c0.4,0.2,0.7,0.1,0.5,0.5c0.7-0.5,1.5-1.1,1-2.2l2.3,0.9c0,0-0.5-0.8-1-1.6c-0.5-0.8-1-1.6-1-1.6
		c1.9-0.3,2.9-0.3,4,1.6c-0.6-1.9-0.6-2.5-0.7-3c0-0.6,0-1.1-0.9-2.7l1.4,0.8c0.3-0.8-1.1-2.8,0.3-2.7c1.7-0.2,2.8-2.3,3.7-4.7
		c1-2.5,2-5.3,3.9-7.3c-2.4-0.2-1.7-0.6-0.9-1.1c0.8-0.5,1.8-1.2,0-1.7c1.1,0,1.9-0.6,2.7,0.4c-0.2-1.4,0.4-2.2,0.7-3
		c0.4-0.8,0.4-1.6-0.9-2.7c1.1-0.1,1.5,0.8,2.2,0.7c-0.2-0.2-0.8-1-0.1-1.1c0.7-0.2,0.9,0.5,1.3,1c0.3-2.7-3.2-3.4-6.3-3.9
		c1.7-1.1,1.5-1.8-0.5-2.8c1.1-0.3,2.2-1,2.5,0.6c0.3-0.8,1.8-5.4-0.8-5.5c0.6-0.3,0.2-1.2-0.1-1.5c0.1-2,0.3-2.2-0.1-4.1l-0.4,0.6
		c-1.6-0.2-1.8-0.6-1.7-1.1c0.1-0.5,0.6-1.1,0.3-1.9l0.3,0c0.8-1.9,0.5-2.3,0.2-2.6c-0.3-0.3-0.6-0.6,0.3-2.6l-1.8,0.6
		c-2,0.3-1.6-0.6-1-1.7c0.6-1.1,1.6-2.7,0.5-3.4l-0.8,1c-0.8-0.3,0.3-1.4,1.6-2.7c1.3-1.3,2.8-2.7,2.8-3.3c0.2-0.4,0.7,0.2,1.1,0.4
		c1.2-3.8-2.5,0.5-3.9-1.4c1.1-0.9,3.4-0.8,3-2.3c0.3-0.6-1.1-1.2-2.5-2c-1.4-0.8-2.7-1.7-2-3.2c-0.7,0.9-1.4,1.8-2.6,1.2
		c-0.5-0.6-0.2-2-0.2-3.2c0-1.2-0.4-2.3-2.1-2c0.1-0.3,0.3-0.5,0.5-0.7c-1.4-0.5-3.4-2.5-5.2-1.9c2.4-2.4,0.6-3.4-1.2-4.2
		c-1.7-0.8-3.4-1.3-1.1-3.3c0,0-0.7-0.6-1.3-1.3c-0.7-0.6-1.4-1.2-1.4-1.2l0.5-0.4c-1.3-2-3-1.5-4.5-1.1c-0.1-0.7,0.6-0.8,0.8-1
		c-1.5-3.2-2-3.3-6.1-2.8l1.1-1.7c-0.7,0.2-1.1-1.2-1.8-2.6c-0.8-1.5-1.9-3-3.9-3.1c0.2-0.2,0.4-0.4,0.8-0.5
		c-1.1-0.1-1.9-0.7-2.5-1.6c-0.7-0.8-1.2-1.9-1.8-2.7c-1.1-1.7-2.4-2.8-5-0.1l-3,0.2c2.3,2.1-2.1,2.4-1.7,4.1c-1.2-0.3-1.4-3.5,0-3
		l0,0.4c2.5-2.9-2.5-3.1-1.1-5.3c-5.3-2.9-9.6-7.5-14.7-10l-0.6,2.9l-1.7-1c-0.2-0.8,0.3-2.4,1.5-1.7c0-1.8-2.7,0.3-3,0.9
		c-2.1-2.2,2.4-2.7,1.6-3.1l-1.2-0.3l0.1,0.4c-1.3,0.7-1.9,1.8-3.4,1.1c-0.8-0.9,0.2-1.9-0.2-2.1c0.1-0.2,0-0.3-0.6-0.3L152,52
		l0.1,2.5c-1.4,0.6-2.1-0.9-2,1.9c0-2.2-2.1-3.4-4.2-4.1c-2.1-0.7-4.3-1.1-4.6-1.9c-2,1.2-3.4,0.7-5.2,0c0.3,0.6-0.1,3.2-1.6,2.4
		c2-5-2.2-3-2.6-7.1c0.6,2.7-4.8-0.4-3.7,3.5c-1.2-0.7,0.3-2-0.4-3.4c-1.8,0.7-3.6,0.1-5.4-0.8c-1.9-0.7-3.8-1.7-6-1.6
		c-0.1,0.7,0.5,1.8-0.5,2.8c0,0-0.5-0.9-1-1.8c-0.5-0.9-1-1.8-1-1.8c-0.9,0.3-1,4-2.4,1.5c0.2,0.6,0.5,1.5-0.1,1.7
		c-1-0.4-2-0.7-3.1-0.9c-0.5-0.1-1-0.2-1.6-0.2c-0.5,0-1.1,0-1.6,0c-1.1,0.1-2.1,0.2-3.2,0.3c-1.1,0.2-2.1,0.5-3.1,0.7
		c-2.1,0.4-4.2,1-6.4,1c-1.1,0-2.2,0.1-3.4,0c-1.2-0.1-2.4-0.4-3.8-0.8c1.6,0.8,0.9,1.3,0.1,1.6c0.7,0.1,0.6,1.6,1,2.5
		c0,0-1.1-0.3-2.1-0.6c-1.1-0.3-2.2-0.5-2.2-0.5c0.2,1.3-0.6,1.8-1.4,2.2c-0.8,0.5-1.6,0.9-1.2,2.1l0.8-0.9c0,1.7,1.3,2.9,2.6,4.2
		c1.4,1.3,2.8,2.7,3.5,4.4c-0.1-1.9,1.3-1,2.6-0.4c1.3,0.6,2.5,1.1,2.9-1.5c0.7,0.6,0,1.3,0.5,2.1c0-1.7,0.6-2.3,2-1.9l0,0.4
		c1.6-0.7,3-0.5,4.3-0.4c1.4,0.3,2.8,0.8,4.7,1.1l-0.5-1.9c0.9,0.2,1.1,0.8,1.5,1.2c0.8-2.9-2.4,0-1.8-3.2c0.8,1.9,2.3,1.8,3.7,1.8
		c0.7,0,1.5,0.1,2,0.4c0.6,0.3,1,0.9,1.2,2c1.3,0-0.3-2.2,1-2.2l0.3,1.2l0.4-1.5c0.9,0.3,1.2,1.8,1.2,2.8c-0.2-0.1-0.6,0.2-0.8,0.3
		c1,1.5,3.1-0.3,3.5,0.2l-1.2-0.8c1.8-0.5,3.8,0,5.8,0.1c1,0.1,2,0.3,3,0.2c0.5,0,1-0.1,1.5-0.2c0.5-0.1,1-0.2,1.5-0.4l-0.1-0.9
		c1.5-0.5,2-0.1,2.5,0.3c0.5,0.5,1,1.1,2.6,1.1l-0.2,0.2c0.8-0.7,1.7-0.9,2.5-0.6c-1,0.8,0.8,2.3-0.4,3.2c3.4-0.8,1.8-0.9,4.7-3.5
		l0,1.6c1.1-1.1,1.3-1.7,3-1.6c-1.6,0.8,0.2,2.5-1.7,3.6c1,2.1,2.4,1.7,3.5,1.4c1.1-0.2,2-0.4,1.9,2.1c2.9-3.3-1.8-3.1-0.7-3.7
		c-0.2-1.5,2.2-2.4,3.1-1.7c1,0.5-0.2,5.5,2.2,6.4c-0.2-0.1-0.4,0.2-0.6,0c0.5,1.3,2.3-0.6,2.8,1.5c1.6-2,1.4,0.7,2.8-2.1l-2.5-0.3
		c1.6-0.2,4.3-3.1,5.6-0.5c-0.4,0.5-1.4,1-2,1.2c0.2,1.1,1.4,0,1.6,1.1c-1.5,2.8-3-0.6-5.3,1c0.1,1.5,3.4-1,1.4,1.8
		c2.8-3.5,2.1,1.5,5.1-0.7l-0.9,1.7c0.4-0.2,1.3-0.7,1.7-0.4l-1.9,1.8c2.2-1.3,1.6,2.9,3.3,2.4c-2.5-1.2,0.5-2.3,0-4.1
		c4.3-0.7-0.4,5.3,3.4,6.3c-0.6,0-1.2-1.9,0-2.3c0.5,0.7,1,1.8,0.9,2.9c2.4,0.9,0.6-1.9,2.1-2.4c-0.4,2.4,1.6-0.2,2.9-0.2l-1,1.7
		c1.9,2.6,2.7-3,4.3-0.4l-2.4,1.7l1.5,0.1l-1.4,1.7c2.1-0.6,2.3,0,3.2,1.3c0.5-1.3,2.1-2.8,3.2-2.1c0.1,1.5-1.4,1.2,0.3,2.1
		c-1,0.8-2.3,1.8-1.9-0.2c-0.4,0.5-1,0.8-1.4,1.2c0,1.6,1.8,1.6,2.3,1.9c-0.2-0.2-0.3-0.5-0.3-0.8c0,0,0.9-0.2,1.8-0.3
		c0.9-0.2,1.9-0.3,1.9-0.3c-0.1,0.8-0.7,1.1-1.3,1.4c0.6,0.1,1.4-0.4,2.1,0c-1.1,1.1-2,2.5-3.3,2.4l3,0.1c-0.3,0.6-0.1,2.3-0.7,2.5
		c0.2,0.8,1.4,0.7,2.5,0.7c1.1,0,2.3,0.1,2.6,1.1c0.3-0.2,0.6-0.3,1-0.2c0.5,0.7,0.7,1.7,1.2,2.4c0.4,0.8,1.1,1.3,2.6,1.2
		c0,0-0.3,0.7-0.6,1.4c-0.3,0.7-0.6,1.4-0.6,1.4c1.5,0.6,1.4-3.6,4-2.5c2,0.7-1.3,2.2-1.4,3.2c1.6-0.3,4.9-1.1,4.2,1.7
		C193.8,101.8,193.9,101.2,193.4,100.9z M204.7,115.8c-0.5-0.2-1.9-0.3-1-1C205.8,114.2,205,115,204.7,115.8z M213.1,143.5
		c-0.6-0.4-0.2-0.8,0.6-1.2C213.8,142.7,213.7,143.1,213.1,143.5z M169.1,222.8c0,0,0-0.1,0-0.1
		C170.3,222.8,169.8,222.8,169.1,222.8z M166.9,223.1c-0.1,0.3,0.1,0.6,0.3,0.8c-0.1-0.5,0.3-0.8,0.8-0.9
		C167.6,222.6,167.2,222.4,166.9,223.1z M154.3,54.1l0.2,0.6C153.5,54.9,153.9,54.5,154.3,54.1z"/>
	<path class="st0" d="M210.9,139.9c0.3-0.1,0.7-0.1,1.1-0.1C211.6,139.6,211.2,139.6,210.9,139.9z"/>
	<path class="st0" d="M184.2,93.3C184.2,93.3,184.2,93.3,184.2,93.3c-0.1,0-0.2,0.1-0.3,0.2L184.2,93.3z"/>
	<path class="st0" d="M181.6,192.4c0.5,0,0.9,0.1,1.2,0.2C182.5,192.3,182.1,192.2,181.6,192.4z"/>
	<path class="st0" d="M158.3,230.8l1.1-1c-0.6,0.3-1,0-1.4-0.1C158.2,230.2,158.7,230.7,158.3,230.8z"/>
	<path class="st0" d="M143.5,223.6c-0.1,0.3-0.4,0.1-0.5,0.4l0.3,0.8C144.1,224.6,144.4,223.7,143.5,223.6z"/>
	<path class="st0" d="M154.6,225.4c-0.7-1.5-1.2-0.7-2,0c0,0,0.1-0.1,0.1-0.1C153.4,227.5,154,226.5,154.6,225.4z"/>
	<path class="st0" d="M152.5,225.5c-0.2,0.2-0.5,0.3-0.8,0.4C152,226.7,152.1,225.9,152.5,225.5z"/>
	<path class="st0" d="M165,225.2c-0.6-0.2,0.7,2,0.2,1.5C165.7,228.8,166.7,223.2,165,225.2z"/>
	<polygon class="st0" points="151.9,220.7 153,222.5 152.8,220.8 	"/>
	<path class="st0" d="M158.8,219.3l-1.5,0.1c0.2,0.3,0.1,0.6,0,0.8C158.1,219.9,159.1,219.8,158.8,219.3z"/>
	<path class="st0" d="M157.3,220.2c-0.4,0.2-0.8,0.4-0.9,0.8C156.6,220.9,157,220.6,157.3,220.2z"/>
	<polygon class="st0" points="153.4,219.5 154,219.7 154.9,219.5 	"/>
	<path class="st0" d="M172.1,212.2l0.9-1.3c-0.3-0.7-0.8-0.8-1.1-0.2C171.9,211.3,171.6,211.8,172.1,212.2z"/>
	<path class="st0" d="M165.4,210c0.6,0.2,0.8,0.5,1.3,1l-1.2-2.1L165.4,210z"/>
	<path class="st0" d="M168.7,207.2c-0.2-0.7,0.6-2.8-0.8-1.7C168.2,206.2,167.3,207.5,168.7,207.2z"/>
	<polygon class="st0" points="188,195.8 187.7,196.1 190.6,199 	"/>
	<path class="st0" d="M192.7,175.1c-1.7,0.8,1.8,1.8,0,2.3c0.6,0.9,1.5-0.4,1.9,0.4C194.4,176.4,195.2,176.3,192.7,175.1z"/>
	<path class="st0" d="M194.7,177.8c0,0.2,0.1,0.5,0.2,0.8C194.9,178.2,194.8,178,194.7,177.8z"/>
	<polygon class="st0" points="79,48.3 77.4,48.2 78.8,49 	"/>
	<path class="st0" d="M78.1,52.1L76.6,50c0,0,0.1,0.6,0.2,1.2c0.1,0.6,0.2,1.2,0.2,1.2C77.2,52.2,77.6,51.7,78.1,52.1z"/>
	<path class="st0" d="M200.9,120.2l0.6-0.2c0.6-0.4,0.6-0.6,0.5-1L200.9,120.2z"/>
	<polygon class="st0" points="196.6,108.3 196.7,108.5 198.4,106.9 	"/>
	<path class="st0" d="M187.4,101.8c0.3,0.4,1,0.4,1.2,0.8C187.6,102.2,189.4,99.7,187.4,101.8z"/>
</g>
<g>
	<path class="st0" d="M172.4,252.4c0.1,0.2,0.6-1.4,0.8-1.7C172.8,250.9,172.3,252.8,172.4,252.4z"/>
	<polygon class="st0" points="168.5,255 168.8,254.3 167.8,255.8 	"/>
	<path class="st0" d="M166.1,254c-0.8,2.8,1.1-0.1,1.1,1l-0.2,0.6l1-2.1C167.4,253.7,166.2,254.9,166.1,254z"/>
	<path class="st0" d="M166.9,247.8c-0.3,1.1-0.6,0.8,0.2,0.4c0-0.1,0-0.2,0-0.3C167.1,247.9,167,247.9,166.9,247.8z"/>
	<path class="st0" d="M167.2,247.9C167.4,247.9,167.3,247,167.2,247.9L167.2,247.9z"/>
	<path class="st0" d="M165.7,248.1l0.7-0.8c0.2-0.6-0.1-0.9,0.2-1.3C166.1,246.3,165.9,247,165.7,248.1z"/>
	<path class="st0" d="M164.7,249.9l0.3-0.3C165.1,249.3,165.1,249.2,164.7,249.9z"/>
	<path class="st0" d="M165.7,248.9l-0.7,0.7c-0.1,0.4-0.4,1.3,0.3-0.2C165,250.1,165.3,249.4,165.7,248.9z"/>
	<path class="st0" d="M165.8,249.4c0,0.7,0.1,1.1-0.6,1.9C165.9,251.1,166.5,249.2,165.8,249.4z"/>
	<path class="st0" d="M164.9,256.7l0,0.9l0.6-0.8C165.2,257.2,165.2,255.9,164.9,256.7z"/>
	<path class="st0" d="M164.2,245.9c-0.2,0.6-0.5,1.6-0.7,2.3l0.5-0.6C164,247.2,163.9,246.7,164.2,245.9z"/>
	<path class="st0" d="M163.5,248.2l-0.7,0.8C163,249.3,163.2,248.8,163.5,248.2z"/>
	<polygon class="st0" points="163.5,252.8 164.9,251 163.4,252.8 	"/>
	<polygon class="st0" points="162.8,245.3 163.5,244 162.4,245.9 	"/>
	<path class="st0" d="M161.7,245.1c0.6-1,0.5-1.9,0.9-2.5c-0.3,0.1-0.9,0.9-1.4,1.7C161.6,243.9,161.8,244.1,161.7,245.1z"/>
	<path class="st0" d="M160.4,245.4c0.2-0.2,0.5-0.6,0.8-1.1C161,244.5,160.8,244.9,160.4,245.4z"/>
	<path class="st0" d="M162.2,248.5c0.1-0.4,0.4-1.3,0.3-1.7l-0.5,1.7C162.1,248.4,162.1,248.5,162.2,248.5z"/>
	<path class="st0" d="M162,248.5L162,248.5c-0.1-0.1-0.2-0.2-0.3-0.3C161.8,248.2,161.9,248.3,162,248.5z"/>
	<path class="st0" d="M162.2,248.5C162.2,248.5,162.2,248.5,162.2,248.5C162.1,248.7,162.1,248.7,162.2,248.5z"/>
	<path class="st0" d="M163.1,251c-0.6,0.8-1.4,1.6-1.5,3.1C162.2,253.1,162.2,252.2,163.1,251z"/>
	<path class="st0" d="M161.6,250.6l0.3,0.5c0.2-0.4,0.3-1.1,0.6-1.5L161.6,250.6z"/>
	<polygon class="st0" points="161.3,251 161.6,250.6 161.5,250.4 	"/>
	<path class="st0" d="M160.5,247.2c-0.4,0.6-0.6,0.6-0.9,0.6c0.1,0.4,0.3,0.7,0.5,0.7C160.4,248.1,160.8,247.2,160.5,247.2z"/>
	<path class="st0" d="M161.2,247.9L161.2,247.9C161.1,248.2,161.1,248.2,161.2,247.9z"/>
	<path class="st0" d="M157.6,247c0,0.1-0.1,0.2-0.1,0.3L157.6,247L157.6,247z"/>
	<path class="st0" d="M160.1,248.9c0.1,0.4,0.3,0,0.6-0.4c-0.2,0.1-0.4,0.2-0.5,0.1C160,248.8,160,248.9,160.1,248.9z"/>
	<path class="st0" d="M159.6,245.9c0,0.4,0,0.7,0,1C159.6,246.4,159.8,245.5,159.6,245.9z"/>
	<path class="st0" d="M161.2,247.6C161.3,247.5,161.3,247.5,161.2,247.6C161.4,247.1,161.3,247.3,161.2,247.6z"/>
	<path class="st0" d="M161.2,247.6c-0.2,0.2-0.4,0.6-0.6,0.9c0.2-0.1,0.3-0.2,0.5-0.4C161.2,247.9,161.2,247.7,161.2,247.6z"/>
	<path class="st0" d="M152.9,257c0.6-1.5,1.6-2.7,1.4-0.9c0.8-1,2.4-5.9,3.2-8.8c-0.3,0.6-0.5,1.2-1.2,2c-0.2,0.9,0.1,2.2-0.7,3.4
		c-0.8,0.6-0.2-0.7-0.2-1.6c-0.5,1.9-1.7,2.4-2.6,5.2l0.8-0.8C153.4,256,153,256.6,152.9,257z"/>
	<path class="st0" d="M158.2,247.8l0.2-0.1c-0.1-0.3,0-1,0.2-2.2c-0.5,0.6-0.8,1.1-1,1.6l0.7,0.5L158.2,247.8z"/>
	<path class="st0" d="M159.1,247.9c-0.7,1.6-1.4,2.1-1.8,3.9c0.5,0.1,0.9-1.2,1.4-1.8c-0.9,0.1,0.6-0.8,0.4-1.9
		c0.3-0.2,0.4-0.2,0.6-0.3c-0.1-0.2-0.1-0.5-0.1-0.9c0,0,0,0.1,0,0.1l0,0c0,0,0,0,0,0c0,0.2-0.1,0.3-0.1,0.2c0,0,0,0,0,0
		C159.3,247.5,159.2,247.7,159.1,247.9c-0.1-0.4,0.1-0.4,0.3-0.6c0-0.1,0.1-0.2,0.1-0.2l0,0l-1.1,0.6
		C158.5,247.9,158.7,247.9,159.1,247.9z"/>
	<path class="st0" d="M159.9,257.5c0-0.2,0.1-0.3,0.1-0.4C159.9,257.3,159.8,257.4,159.9,257.5z"/>
	<path class="st0" d="M159.9,256.4c0.1-0.2,0.4-0.8,0.6-0.6c0,0.5-0.3,0.8-0.5,1.3c0.3-0.4,0.8-1,0.8-1.9l-0.1,0.2
		c-0.1-0.7,0.3-2.8,0.4-3C160.6,253.8,160.3,254.9,159.9,256.4z"/>
	<path class="st0" d="M159.3,252.5l-0.9,0.5l-0.2,1.5l0.3-0.8C158.7,254.2,159.1,253.2,159.3,252.5z"/>
	<polygon class="st0" points="157.8,246.2 158.5,244.5 157.2,246.8 	"/>
	<polygon class="st0" points="156.9,246.1 157.5,244.6 156.9,245.4 	"/>
	<path class="st0" d="M93.4,237.9l-0.5-0.1C93,237.8,93.2,237.8,93.4,237.9z"/>
	<path class="st0" d="M92.4,239.5l1.3-0.2C92.9,239.4,92.4,239.4,92.4,239.5z"/>
	<path class="st0" d="M136.7,238c0.3-1.5,0.9-3.7,0.2-2.1l-0.6,1.6C136.6,237.4,136.7,237.6,136.7,238z"/>
	<path class="st0" d="M118.6,241.4c-0.1,0.1-0.3,0.3-0.4,0.4c0.6-0.4,1.2-0.7,1.7-1C119.5,241,119,241.2,118.6,241.4z"/>
	<path class="st0" d="M111.6,246.1c0,0,0.1-0.2,0.3-0.5c0.1-0.2,0.3-0.5,0.3-0.5C111.9,245.5,111.7,245.8,111.6,246.1z"/>
	<path class="st0" d="M99.6,228.1l-1.9-0.5C97.3,228.1,98.6,228,99.6,228.1z"/>
	<path class="st0" d="M148.2,243.3c0-0.7-0.1-1.1-0.2-1.2C147.9,243.1,147.6,244.6,148.2,243.3z"/>
	<path class="st0" d="M122.8,232.8c-0.5,0.1-1,0.2-1.7,0.3C121.5,233,122.1,232.9,122.8,232.8z"/>
	<path class="st0" d="M147.4,241.8c0,0.2,0,0.3,0,0.4c0.3-0.2,0.5-0.3,0.7-0.2C148.1,241.3,148,240.8,147.4,241.8z"/>
	<path class="st0" d="M126.2,201c0.1,0,0.1,0,0.2,0.1C126.2,200.9,126.2,201,126.2,201z"/>
	<path class="st0" d="M144.8,206.5c0,0.1-0.1,0.2-0.1,0.3C144.8,206.9,144.9,206.8,144.8,206.5z"/>
	<path class="st0" d="M153.9,244.1C154.1,244,153.9,243.9,153.9,244.1L153.9,244.1z"/>
	<path class="st0" d="M152.2,250.8c-0.1,0.2-0.2,0.4-0.4,0.8C152,251.2,152.1,250.9,152.2,250.8z"/>
	<path class="st0" d="M141.5,251.1C141.5,251.1,141.5,251.1,141.5,251.1C141.4,251.5,141.5,251.4,141.5,251.1z"/>
	<path class="st0" d="M153.8,244.9c0-0.2,0-0.4,0-0.6C153.8,244.5,153.8,244.7,153.8,244.9z"/>
	<path class="st0" d="M154.1,244.1c0,0.1,0.1,0.2,0.1,0.2C154.3,244.1,154.4,243.9,154.1,244.1z"/>
	<path class="st0" d="M153.6,244.1c0.1,0,0.2,0.1,0.2,0.3c0-0.1,0-0.2,0.1-0.3C153.8,244.1,153.7,244.1,153.6,244.1z"/>
	<path class="st0" d="M119.1,215.7c0,0,0.1,0,0.1,0.1C118.9,215.1,118.9,215.3,119.1,215.7z"/>
	<path class="st0" d="M125,252.7C125.1,252.6,125.1,252.6,125,252.7c0.1-0.1,0.1-0.1,0.1-0.1L125,252.7z"/>
	<path class="st0" d="M123.9,253.6c1.1-1.9,1.2-1.6,1.2-1l1.8-4.7L123.9,253.6z"/>
	<path class="st0" d="M96.4,233.7l-2.8,0.8c-3.1-0.4-1.2-1.2-5-0.3c3.9-0.3,3.5,0.3,3.2,0.9c-0.3,0.6-0.7,1.2,3.4,0.7l-2.1,0.6
		c0.2-0.1-0.3-0.1-0.1-0.2c-4.7,1.4,5.5-0.3,3.6,0.7c-0.9,0.4-2.4,0.9-3.2,0.8c0,0,0.4,0.1,0.7,0.2c0.4,0.1,0.8,0.1,0.8,0.1
		c-0.4,0.2-1.8,0.5-1.5,0.2c0,0-0.1,0.2-0.1,0.5l0,0.1c0,0,0,0.1,0.1,0.1c0.1,0,0.2,0.1,0.3,0.1c0.2,0,0.3,0.1,0.3,0.1l-0.3,0.1
		c1.4-0.2,4-0.5,5.2-0.6c-0.9,0.4-1.1,0.1-2.1,0.4l2.7-0.2c-1.9,0.7-4.6,0.9-4.8,0.6c-4,1.1-3.2,1.1-2,1c1.3-0.1,3-0.3,1.3,0.7
		l-1.8-0.1c-4.2,1.4-1.9,1.3-3.7,2.5c0.6-0.3,1.9-1,3.5-1.7c1.6-0.7,3.4-1.2,4.8-1.3c-0.4,0.3-0.4,0.5,1.7,0.2c-2.8,0.8-1.7,0.8-1,1
		l-3.7,1.1c1.7,0,3.5-0.6,5.4-1c0.3,0.4-2.3,1.4-4.3,2.3c0.3,0.4,1.2-0.1,2.2-0.6c1-0.5,2.3-1.1,3.2-0.9c-0.4,0.9,1.6,0.7,4.5,0.3
		c-0.5,0.7-2,0.8-2.7,1.3l3-0.9c0.1,0.1-0.7,0.4-1.1,0.6c1.4-0.2,3.1-1.4,4.5-1.5c1.7-0.8,0.8,0,0.1,0.7c-0.7,0.7-1.2,1.5,0.9,0.8
		c-0.6,0.5-1.8,0.9-2.8,1.5c1.7-0.4,2.3-0.5,3.1-0.7c0.7-0.2,1.5-0.5,3.3-1.2c0,0-0.2,0.4-0.5,0.7c-0.2,0.4-0.5,0.7-0.5,0.7
		c1.3-1.5,4.3-2.7,6.4-3.7c0.7-0.7,1.4-1.3,1.7-1.6c0,0,0.5-0.2,1-0.3c0.5-0.2,0.9-0.3,0.9-0.3c-0.3,0.3-1.2,0.9-2.3,1.6
		c0.2-0.1,0.5-0.3,0.7-0.4c-0.6,0.8-2.1,1.7-3.6,2.6c0.4-0.4,0.8-0.8,1.2-1.2c-1.6,1-3.5,2-4.8,3c0.3-0.2,0.7-0.3,1-0.3
		c-0.5,0.3-0.8,0.5-1.1,0.7c-0.2,0.2,0.4-0.1,1.2-0.5l-2.4,2l1.1-0.7c0,0-0.1,0.5-0.1,0.9c-0.1,0.5-0.1,0.9-0.1,0.9
		c3.5-1.6,7.5-4.4,9.4-4.9c-1.8,1.5-2.5,2.6-4.3,4.5c0.7-1.1,0.3-1-0.4-0.7c-0.7,0.3-1.7,0.7-1.9,0.3c0.2,0.4-0.8,1.2-1.3,1.5
		c0,0,0.8-0.3,1.6-0.6c0.8-0.3,1.6-0.6,1.6-0.6c-1.5,1.5-0.8,1.3-1,2.1c2.5-3.3,2.9-1.6,4.2-2.4c-0.8,1.1-1.8,2.2-2.3,1.6
		c-0.6,1.4,0.4,0.6,1.4-0.3c1-0.9,2-1.9,1.6-0.7c-0.2,0-0.1-0.2-0.6,0.3c1.1-0.8,1.4,0.3,0.6,1.3l-0.2,0c0.8,0.9,3.4,1.5,4.8-1.6
		c-0.2,0.4-1.8,3.7-2.1,4.3c0,0,0.1-0.1,0.3-0.4c0.2-0.3,0.5-0.6,0.7-1.1c0.6-0.9,1.3-2.2,2-3.4c1.5-2.5,3-5,3-5
		c-1.3,2.6-3.6,9.2-4.9,10.5c0,0.5,0.1,1,0.9,0.2c0-0.4,1.4-4,1.6-4.2c-0.8,3.2-0.4,1.7-0.9,4.5c0.1-0.7,2.1-4.8,2.3-4.5
		c-0.3,0.6-1.8,4.2-2.1,4.6l2.5-3.8c-0.5,0.7-1.5,3.5-1.9,4.7c0.3-0.8,0.6,0.4,1,0l0.1-1.1c0.6,1,3.3-5.5,4.1-4.9
		c-0.5,0.8-2.5,5.2-2.3,5.9c1.1-2,5.2-9.8,6.6-11.2l-0.4,1.3l1.1-1.1c-1.7,3.1-5.5,9.4-7.2,11.7c-0.1,1.1-0.5,1.5,0,1.6
		c-0.3,1.2-1,1.6-1.2,1.6l0.8,1.2c1-2.5,1.9-2.1,2.7-4.2l-2.3,2.1c1-2.5,3.7-6.7,4.3-6c-0.2,1.1-2,4.4-2.3,5.2
		c0.5-0.8,1.4-1.3,1.2-0.7l-0.9,1.2c0.1,1.1,2.1-3,1.6-0.4c0.1,0.2-0.8,3.4-0.1,2c0.9-3,4.5-11.7,5.5-13.8c0,0.2-0.2,3.1-0.6,4.6
		c-0.6,2.3-2.6,5.1-3.2,7.1c0.3-0.7,0.8-1.4,1-1.7c0,0.7-0.9,2.1-0.4,1.9c1.1-2.5,0.8,0.6,1.1-2c0.7-0.6,0.2,0.7,0.7,0.8
		c0.5-1.7,2.7-5.4,3.4-5.9c-0.3,0.6-0.5,1.5-0.6,1.9c0.7,0.6,0.7,1.9,1.5,2.2c-0.2,0.6-0.1,1.5-0.7,2.6c0.3-0.4,0.7-1.2,1-1.2
		c-0.4,2.4-0.7,0.1-1.4,2.9c0.6-1.5,1.4-1.8,2.1-2.6c0.8-2.3-0.6-0.8-1.3,0c1.3-3.1,3.2-6.2,4.6-7.3c0.9-0.5-0.5,2.1-0.2,1.7
		c1,1,3.2-5.1,3.3-2.4c-0.4,2.2-1.6,4-2.1,5.5c-0.8,0.5-0.3-1.6-0.7-1.6l0.1,1.1c-0.4,0.6-1,1-0.9,0.3c-0.4,1.9,1.9,1.2,2.2,3.2
		c0.4-0.6,1-1.2,1.2-2l-0.4,0.2c0.4-1.7,1.4-2,1.4-2.9c0.8-1,2-2.6,2.2-1.5l-0.8,2.3c0.3-0.7,0.2-1.5-0.3-0.9
		c0.6-0.9-0.4,3.4,1.1,0.5l0.2-1.7c0.8-1,2.3-3.2,2.5-2.3c0.7-2.3-0.2,0.2,0.5-2.6c-1,3.4-1.2-0.6-2.1,3c0.8-3.2-0.1-1.5,0.5-4.3
		c-0.3,0.8-0.4,1.5-0.7,1c-0.1,0.2-0.3,0.5-0.4,0.6c0,0,0,0,0-0.1l0,0.1c-0.1,0.1-0.1,0.1,0,0c0,0.4-0.1,0.8-0.2,1.2
		c-0.9,1.6-1.5,1.3-2.1,2.1c-0.1-0.5,0.4-0.8,0.6-1.7l-0.9,1.2c0.6-1.7,0.5-3,1.4-3.8l-0.5-0.3c0.1-1.1-0.2-1.6-0.7-1
		c-0.1-0.5-1.4,1.6-0.6,0.4l-1.2,0.7l0.2-0.4c-0.7-0.5-2.8,2.1-2.4-1.3c-0.4,0.3-0.9,0.7-1.2,0.1l0.5-1.5c-0.5,0.4-0.4-1.9-1.2-0.4
		c1.2-4-1.3-1.5-1.6-2.5l-0.8,1.9c-0.4-0.3-1,0.1-1.8,0.6l-0.7,1.7c-1,1.2-0.6-1.7-1.4-1.8c0.3-0.6,0.4-0.4,0.4,0.1
		c0.7-4.1-2.9,2-2.5-1.1c-0.4,0.5-0.5,0.3-0.4-0.2c0,0,0,0,0.1-0.1c0,0,0,0-0.1-0.1c0-0.3,0.1-0.7,0.1-1c-0.1,0.4-0.2,0.8-0.2,1
		c-0.2,0-0.5,0.1-0.9,0.4l0.7-1.8c0,0,0,0-0.1,0c0.1-0.7-0.5,0.8-1,2.1c-0.2,0.2-0.5,0.6-0.7,0.9c1-2.9-1,0.7,0.1-2.4
		c-0.8,1.4-1.6,0.7-3,3.7c0.2-0.4,0.2-0.6,0.3-0.6c-0.1-0.5-0.2-0.9-0.8-0.1l0.9-2.3l-1.8,2.8c0.3-1.5,0.5-2.4,1.5-4
		c-1.9,2.3-1.1,0.7-2.8,3.1l0.7-1.4c-0.2,0-1.3,1.8-0.9,0.6c0.5-1.4,0.2-1.7-0.2-1.9c-0.4-0.2-0.9-0.5-0.2-1.8
		c-1.6,1.9-1.3,1.4-0.9,0.8c0.4-0.6,0.8-1.2-0.5,0.2c0.8-0.9,1.2-1.4,2-2.1c-0.6,0.3-0.3,0-0.3-0.2c0.1-0.2,0-0.2-1.4,0.9
		c0.9-0.8,1.4-1.1,2-1.6c-0.2,0.2-0.9,0.7-0.4,0.2c0.5-0.5,0.8-0.6,1.3-1c-0.3,0.1-3.4,2.4-6.4,4.6c1.1-1.2,0.9-1-1.3,0.3
		c0.9-0.7,1.9-1.5,2.5-1.7c0-0.2,0.7-1.4-2,0.2c0.6-0.4,0-0.2-0.4-0.1c-0.2-0.3,0-0.4-0.6-0.4l-0.4,0.3c-3.7,1.7-1.1,0.2-1.9,0.3
		l0.4-0.2c1-0.8,0.6-0.7,0.3-0.6c-0.3,0.1-0.7,0.1,0.6-0.7l-2.4,1c-2.7,1.1-2.1,0.6-1.1,0.1c1-0.6,2.5-1.3,1.2-1l-1.3,0.6
		c-1.1,0.3,0.6-0.5,2.8-1.3c2.1-0.8,4.3-1.6,5.1-1.9c0.5-0.2,0.9-0.2,1.3-0.3c3.3-1.2-3.6,1.1-4.8,1.2c2-0.6,5.1-1.5,5.4-1.6
		c0.8-0.2-0.9,0.2-2.5,0.5c-1.5,0.3-2.9,0.5-0.9,0c-1.6,0.4-3.2,0.8-4.6,1.1c-0.4,0,1-0.4,1.9-0.7c0.4-0.1,0.9-0.3,0.8-0.3
		c-0.1,0-0.6,0-1.9,0.3c0.5-0.1,0.9-0.2,1.4-0.3c-1.3,0.1-1.9,0-4.6,0.3c5.3-0.9,4.2-0.9,3.1-0.9c-1.1-0.1-2.2-0.2,2.2-0.6
		c0,0,0-0.1,0-0.2c0-0.1,0-0.2,0-0.2l0.9,0c0.8-0.3-1.2-0.3-3.1-0.4c0.6-0.1,1.4,0,1.8,0c2.1-0.5,1.6-0.4-1.9-1l2.6,0.1
		c-0.7-0.1,0.5-0.2,1.4-0.3c1-0.1,1.7-0.2,0.5-0.6c0.3,0,0.7,0.1,1,0.2c-1.2-0.4,0.7-0.4,1.6-0.4c1,0,1.2,0-2.4-1.3
		c0,0-0.4-0.2-0.8-0.5c-0.4-0.3-0.7-0.5-0.7-0.5c-0.5,0.1-1.3-0.1-2.1-0.5c-0.8-0.4-1.6-0.9-2.4-1c-0.1-0.5,2.8,0.2,2.9,0.6
		l-0.4-0.1c3.6,1.6,1.9-0.1,4.3,1c0.3-0.5,1.1-0.6,1.9-0.7c0.4,0,0.7,0,1.1-0.1c0.1,0,0.1,0,0.2,0c0.1-0.1,0.2-0.1,0.3-0.2
		c0.2-0.1,0.4-0.3,0.6-0.4l-2.3-1.8l0.6-0.4c0.6,0.3,1.8,1.4,1.5,1.6c1.4,0.9-0.5-1.5-1-1.9c1.5,0.1,2.3,2.6,2.5,2.4l0.1-0.4
		l-0.3-0.2c-0.7-1-1.6-1.9-1.1-2.2c0.7,0.1,1.5,1.1,1.6,1.1c0.2,0.1,0.3,0.2,0.2-0.1l0.7-0.4l-1.9-1.3c-0.6-1,0.6-0.5-1.6-2
		c3.4,2.3,3.1-1.2,4.2-0.6c-0.9-1.5-0.6-1.8,0-2.2c-0.5-0.2-2.4-1.9-1.9-2.1c3.8,3.7,2.4,0.9,5.5,3.1c-2.1-1.4,0.5-1.5-2.6-3.5
		c0.6,0,1.5,1.3,2.7,1.9c-0.8-2.2,2.5-0.8,2.9-2.2c-0.5-0.5-1.4-1.1-2-2l3.1,1.9c-0.1-0.4-2.8-2.9-0.7-1.6c-0.5-0.3-1.2-0.9-1.3-1.2
		c4.2,0.4,1.4-5.7,7.9-3.3c-1.2-0.7-1.2-0.9-1-1.2c-0.4-0.1-1.3-1.2-2-1.8l2.7,1c-1.8-1.9,0.6-1-1.2-2.8l0.1,0.6
		c-1.9-2.3-5.3-4-8.1-6.6c2.2,2.7-4.6-2.4-1.6,1.5c-0.7-0.4-0.8-0.9-1.5-1.5c1.1,1.3,1.2,1.7,0.3,1.5l-0.3-0.3
		c-0.6,1.2-2.2,0.6-4,0.9l1.5,1.2c-0.4,0.1-0.9-0.3-1.3-0.5c1.9,2.2,0.7-0.6,2.8,1.8c-3.1-2.3-1.6,1.6-5-1.1
		c-0.3,0.3,1.7,1.4,1.4,1.7l-1-0.7l1,1.1c-0.4,0.1-1.6-0.8-2.4-1.5c0.1,0-0.1-0.4-0.1-0.5c-1.3-0.6-0.4,1.2-0.9,1l0.9,0.1
		c-0.1,1.7-2.3,1.9-1.4,4.5l0.7,0.5c0.6,1.8-1.3-0.1-1.4,1.2l-0.1-0.2c0.5,0.8,0.7,1.3,0.4,1.4c-0.6-0.9-1.9-1-2.5-2
		c0.6,2,0.7,1.3,2.7,4.1l-1.2-0.9c0.8,1.1,1.3,1.6,1.3,2.2c-0.6-1.2-1.9-1.3-2.8-2.8c-3.2-1.3,1.3,3.4-2.6,0.6
		c2.7,3.1,2.3,0.8,2.8,1.6c1.2,0.7,2,2.4,1.4,2.4c-0.3,0.2-4.3-3.1-4.9-2.3c0.1-0.1-0.2-0.3-0.1-0.3c-1-0.5,0.6,1.4-0.9,0.6
		c1.7,1.8-0.5,0.3,1.8,2.5l0-1.1c0.3,0.9,2.7,3.7,0.9,3.1c-0.4-0.5-0.9-1.2-1.1-1.6c-0.8-0.5,0.2,0.7-0.7,0.3
		c-2.3-2.2,0.2-1.2-1.3-3.2c-1.2-0.7,1.1,2.3-1.3-0.2c3,3.2-1,0.3,1,3l-1.4-1.3c0.2,0.2,0.6,1.1,0.4,1.2c0,0-0.4-0.5-0.8-1
		c-0.4-0.5-0.7-1-0.7-1c0.5,1-0.1,1-0.8,0.9c-0.7-0.1-1.5-0.2-1.4,0.5c1.1-1.3,2.1,1.1,3.6,1.5c0.4,1.5-0.7,0.9-2.1,0.3
		c-1.4-0.6-3-1.3-3.4-0.1c0-0.4,1.8-0.3,2.2,0.6c-0.6,0.1-1.6,0.1-2.7-0.2c-0.4,0.7,0.1,0.9,0.8,1.1c0.6,0.2,1.4,0.3,1.7,0.8
		c-2.4-0.8,0.4,1,0.7,1.8l-1.8-0.9c-2.3,0.7,3.5,2.1,1.2,2.4c0,0-0.6-0.4-1.1-0.8c-0.5-0.4-1.1-0.8-1.1-0.8l0.2,0.8l-2.1-1
		c1,1.3,0.5,1.3-0.8,1.7c1.5,0.3,3.5,1.3,3.2,1.8c-1.5,0-1.8-0.8-2.1,0c-1.2-0.5-2.6-1.2-0.4-1c-0.6-0.2-1.1-0.6-1.7-0.8
		c-1.8,0-1.3,1-1.5,1.3c0.2-0.1,0.4-0.2,0.8-0.2c0,0,0.5,0.5,0.9,1c0.5,0.5,1,0.9,1,0.9c-1,0-1.5-0.3-2-0.6c0,0.3,0.9,0.7,0.8,1
		c-1.7-0.4-3.6-0.8-4-1.5c0,0,0.2,0.4,0.5,0.8c0.2,0.4,0.5,0.8,0.5,0.8c-0.9-0.1-2.7,0.2-3.3,0c-0.9,0.3-0.3,0.8,0.2,1.3
		c0.5,0.5,1,1-0.2,1.4c0.3,0.1,0.6,0.2,0.8,0.4c-0.6,0.4-1.6,0.7-2.3,1.1c-0.7,0.4-1,0.8,0,1.3c0,0-1.1,0.1-2.1,0.3
		c-1.1,0.2-2.2,0.3-2.2,0.3c0.1,0.4,1.5,0.2,2.9,0c1.4-0.1,2.8-0.2,3,0.3c0.6,0.7-3.6,0.4-5,0.8c0.8,0.2,2.1,0.4,2.7,0.6
		c0.6,0.3,0.5,0.6-1.5,1.1C95.7,234.2,96.5,233.9,96.4,233.7z M96.9,240.6c-0.8,0.1-3.1,0.4-1.5-0.1C99,239.7,97.5,240.2,96.9,240.6
		z M116.3,244.5c-0.7,0.4-0.6,0.1-0.1-0.5C116.5,243.9,116.6,244.1,116.3,244.5z M151.4,244.8C151.3,244.8,151.3,244.8,151.4,244.8
		C151.3,244,151.3,244.3,151.4,244.8z M151.6,245.8c0.2-0.2,0.3-0.5,0.3-0.7c-0.2,0.4-0.4,0.4-0.5,0.2
		C151.4,245.7,151.3,246.1,151.6,245.8z M130.1,222.9l-0.5-0.2C129.4,222.1,129.7,222.5,130.1,222.9z"/>
	<path class="st0" d="M112.4,245.6c0.3-0.2,0.6-0.5,0.9-0.7C113,245.1,112.6,245.3,112.4,245.6z"/>
	<path class="st0" d="M100,228.2C100,228.2,100,228.2,100,228.2c-0.1-0.1-0.2-0.1-0.4-0.1L100,228.2z"/>
	<path class="st0" d="M136.3,257.2c0-0.3,0-0.7,0.1-1C136.2,256.6,136.1,257,136.3,257.2z"/>
	<path class="st0" d="M156,244l-0.6,0.3c0.2,0,0.1,0.4,0.1,0.7C155.7,244.6,155.8,243.9,156,244z"/>
	<path class="st0" d="M155,256.4c0.1-0.2,0.1,0,0.3-0.2l0.3-0.8C155.3,255.3,154.8,255.9,155,256.4z"/>
	<path class="st0" d="M154,250.1c-0.6,1.5-0.1,1.1,0.3,0.9c0,0,0,0,0,0C155.1,248.9,154.5,249.5,154,250.1z"/>
	<path class="st0" d="M154.3,251c0.1,0,0.2,0,0.3,0.1C154.9,250.2,154.6,250.8,154.3,251z"/>
	<path class="st0" d="M152.8,245.1c0,0.4,0.8-1.9,0.7-1.3C154.4,242,151.7,245.8,152.8,245.1z"/>
	<polygon class="st0" points="152.3,255.1 152.9,253.2 152.2,254.7 	"/>
	<path class="st0" d="M150.7,252.9l0.2,0.7c0.1-0.3,0.2-0.5,0.4-0.6C151,252.9,150.9,252.4,150.7,252.9z"/>
	<path class="st0" d="M151.3,253c0.1,0.1,0.3,0.1,0.5-0.2C151.6,252.8,151.5,252.8,151.3,253z"/>
	<polygon class="st0" points="151.4,255.5 151.5,255 151.2,254.8 	"/>
	<path class="st0" d="M146.2,250.7l-0.7,0.3c-0.3,0.6-0.3,1.1-0.1,0.9C145.8,251.6,146,251.4,146.2,250.7z"/>
	<path class="st0" d="M145.6,256.4c0-0.4,0.2-0.9,0.4-1.5l-0.9,2.3L145.6,256.4z"/>
	<path class="st0" d="M144,256.4c-0.3,0.6-1.4,1.6-0.8,1.7C143.5,257.4,144.2,257.1,144,256.4z"/>
	<polygon class="st0" points="138.1,250.6 138.3,250.6 139.8,246.8 	"/>
	<path class="st0" d="M128.1,257c0.2,1.1,1.1-2.3,1.1-0.9c0.5-0.8,0-1.1,0.4-1.8C129,255,129,254.4,128.1,257z"/>
	<path class="st0" d="M129.7,254.2c0.1-0.1,0.2-0.3,0.4-0.5C129.9,253.9,129.8,254.1,129.7,254.2z"/>
	<polygon class="st0" points="147.4,206.9 148.3,207.2 147.1,206.5 	"/>
	<path class="st0" d="M145.7,204.4l2,1.7l-1.6-1.8C146.1,204.4,146.1,204.7,145.7,204.4z"/>
	<path class="st0" d="M90.9,243.6l0.9-0.2c0.9-0.3,0.8-0.4,0.7-0.6L90.9,243.6z"/>
	<polygon class="st0" points="89.9,237.9 89.8,238.1 93.6,237.3 	"/>
	<path class="st0" d="M90.9,232.4c-0.4,0.3,0.1,0.5-0.3,0.8C90.5,232.6,95,232.1,90.9,232.4z"/>
</g>
</svg>
