<?xml version="1.0" encoding="utf-8"?>
<!-- Generator: Adobe Illustrator 22.0.1, SVG Export Plug-In . SVG Version: 6.00 Build 0)  -->
<svg version="1.1" id="_x31_" xmlns="http://www.w3.org/2000/svg" xmlns:xlink="http://www.w3.org/1999/xlink" x="0px" y="0px"
	 viewBox="0 0 171.5 407.8" style="enable-background:new 0 0 171.5 407.8;" xml:space="preserve">
<style type="text/css">
	.st0{fill:#D6D2C8;}
	.st1{fill:#7D3D1D;}
	.st2{fill:#773A19;}
	.st3{fill:#A35625;}
	.st4{fill:#552A15;}
	.st5{fill:#EEB01E;}
	.st6{fill:#F9EC29;}
	.st7{fill:#DA9828;}
	.st8{fill:#E28A76;}
	.st9{fill:url(#SVGID_1_);}
	.st10{fill:url(#SVGID_2_);}
	.st11{fill:url(#SVGID_3_);}
	.st12{fill:#0D3759;}
	.st13{fill:#1A2230;}
	.st14{fill:#211011;}
	.st15{fill:#0C436B;}
	.st16{fill:#0E3759;}
	.st17{fill:#09324C;}
	.st18{fill:#EDA87A;}
	.st19{fill:#FFC599;}
	.st20{fill:url(#SVGID_4_);}
	.st21{fill:url(#SVGID_5_);}
	.st22{fill:#562918;}
	.st23{fill:#7A4726;}
	.st24{fill:url(#SVGID_6_);}
	.st25{fill:url(#SVGID_7_);}
	.st26{fill:url(#SVGID_8_);}
	.st27{fill:#722916;}
	.st28{fill:url(#SVGID_9_);}
	.st29{fill:#FBE6E3;}
	.st30{fill:#2E1710;}
	.st31{fill:#D15050;}
	.st32{fill:#F7F8EE;}
	.st33{fill:#BDE5EF;}
	.st34{fill:#DEF1F7;}
	.st35{fill:#DD2A2A;}
	.st36{fill:url(#SVGID_10_);}
	.st37{fill:#07446B;}
	.st38{fill:#054E77;}
	.st39{fill:url(#SVGID_11_);}
	.st40{fill:url(#SVGID_12_);}
	.st41{fill:url(#SVGID_13_);}
	.st42{fill:url(#SVGID_14_);}
	.st43{fill:url(#SVGID_15_);}
	.st44{fill:url(#SVGID_16_);}
	.st45{fill:url(#SVGID_17_);}
	.st46{fill:#FFFFFF;}
	.st47{fill:#D14937;}
	.st48{fill:url(#SVGID_18_);}
	.st49{fill:#6D3319;}
	.st50{fill:#D39416;}
	.st51{fill:url(#SVGID_19_);}
	.st52{fill:url(#SVGID_20_);}
	.st53{fill:#85A9A0;}
	.st54{fill:url(#SVGID_21_);}
</style>
<g>
	<ellipse class="st0" cx="666.4" cy="393.7" rx="85.7" ry="15.1"/>
	<ellipse class="st0" cx="728.4" cy="387.7" rx="58" ry="10.2"/>
	<g>
		<path class="st1" d="M772.2,379.7c-1.7-13.6-1.8-26.8-2.1-30.8c-0.2-1.8-33.6-1.2-39.2-1.2c-5.6,0-39-0.7-39.2,1.2
			c-0.3,4-0.4,17.2-2.1,30.8c-0.7,5.2-2.7,8.9,16,10.9c9.1,1,21.6,0.9,25.3,0.9c3.8,0,16.2,0.1,25.3-0.9
			C774.9,388.6,772.8,384.9,772.2,379.7z"/>
		<path class="st2" d="M770,348.9c-0.2-1.8-33.6-1.2-39.2-1.2c-5.6,0-39-0.7-39.2,1.2c-0.1,1.5-0.2,4.3-0.4,8
			c1.1,1.2,2.4,1.8,3.5,2.1c11.3,3.8,29.9,3.9,36,3.9c6.1,0,24.7-0.1,36-3.9c1.1-0.4,2.5-0.9,3.5-2.1
			C770.3,353.2,770.2,350.4,770,348.9z"/>
		<path class="st3" d="M771.6,334.7c-0.2-1.2-0.4-3.1-1.7-4.6c-1.1-1.2-2.5-1.5-3.5-1.6c-7.8-1.3-27.8-1.2-34.7-1.2
			c-0.3,0-0.6,0-0.9,0c-0.3,0-0.5,0-0.9,0c-7,0-26.9-0.1-34.7,1.2c-0.9,0.2-2.4,0.5-3.5,1.6c-1.4,1.5-1.6,3.4-1.7,4.6
			c-0.5,3.5-0.8,10.5-0.5,13.9c0.1,0.9,0.2,2.6,0.4,3.4c0.9,3.2,3.2,4.1,4.9,4.7c11.3,3.8,29.9,3.9,36,3.9c6.1,0,24.7-0.1,36-3.9
			c1.7-0.6,4-1.5,4.9-4.7c0.2-0.8,0.4-2.6,0.4-3.4C772.4,345.2,772.1,338.2,771.6,334.7z"/>
		<path class="st4" d="M716.7,326.8v-8.7c0-1.9,1.5-3.4,3.4-3.4h21.5c1.9,0,3.4,1.5,3.4,3.4v8.7h5.7v-8.7c0-5-4.1-9.1-9.1-9.1h-21.5
			c-5,0-9.1,4.1-9.1,9.1v8.7H716.7z"/>
		<path class="st5" d="M718.5,325.5H709c-0.6,0-1,0.5-1,1v1.1c0,0.6,0.5,1,1,1h9.6c0.6,0,1-0.5,1-1v-1.1
			C719.6,326,719.1,325.5,718.5,325.5z"/>
		<path class="st5" d="M752.7,325.5h-9.6c-0.6,0-1,0.5-1,1v1.1c0,0.6,0.5,1,1,1h9.6c0.6,0,1-0.5,1-1v-1.1
			C753.8,326,753.3,325.5,752.7,325.5z"/>
		<g>
			<path class="st5" d="M736.2,365.8h-10.8c-1.1,0-2.1-0.9-2.1-2.1v-6.5c0-1.1,0.9-2.1,2.1-2.1h10.8c1.1,0,2.1,0.9,2.1,2.1v6.5
				C738.3,364.8,737.4,365.8,736.2,365.8z"/>
			<path class="st6" d="M736.1,355.2h-10.5c-0.8,0-1.5,0.4-1.9,1.1v0.2c0,0.4,0.4,0.8,0.8,0.8h12.7c0.4,0,0.8-0.4,0.8-0.8v-0.1
				C737.6,355.6,736.9,355.2,736.1,355.2z"/>
			<circle class="st7" cx="730.8" cy="361" r="2.7"/>
		</g>
	</g>
	<g>
		<g>
			<path class="st8" d="M737.8,281.6c-2,1.1-4,2.2-4.6,3.7c-0.6,1.6-0.1,3.4,0.9,4c2.1,1.3,4.5-2.3,4.5-4
				C738.6,283.4,737.8,281.6,737.8,281.6z"/>
			<path class="st8" d="M734.4,286.8c-2,1.1-4,2.2-4.6,3.7c-0.6,1.6-0.1,3.4,0.9,4c2.1,1.3,4.5-2.3,4.5-4
				C735.3,288.7,734.4,286.8,734.4,286.8z"/>
			
				<linearGradient id="SVGID_1_" gradientUnits="userSpaceOnUse" x1="7530.2114" y1="2470.5537" x2="7554.5977" y2="2470.5537" gradientTransform="matrix(-0.3775 0.926 -0.926 -0.3775 5872.7861 -5779.0278)">
				<stop  offset="0.1718" style="stop-color:#FFBE8C"/>
				<stop  offset="0.8808" style="stop-color:#F2B791"/>
			</linearGradient>
			<path class="st9" d="M745.6,281.3c5-3,2.4-12.9-0.7-17.1c-6.7-9-11.2-9.1-12.6-8.5c-1.4,0.6,5.2,15.7,5.7,17.6
				C738.5,275.2,743.2,282.7,745.6,281.3z"/>
			<path class="st8" d="M743.3,276.9l2.4,4.3c0,0,0.7-0.3,1-0.9c-0.6-5.4-4.8-8-5.2-8.1c-0.6-0.2-1.1-0.1-1.1-0.1L743.3,276.9z"/>
			
				<linearGradient id="SVGID_2_" gradientUnits="userSpaceOnUse" x1="7541.7339" y1="2475.439" x2="7551.8066" y2="2460.2996" gradientTransform="matrix(-0.3775 0.926 -0.926 -0.3775 5872.7861 -5779.0278)">
				<stop  offset="0.1718" style="stop-color:#FFBE8C"/>
				<stop  offset="0.8808" style="stop-color:#F2B791"/>
			</linearGradient>
			<path class="st10" d="M741.1,291.8c4-1.7,8.6-11.7,1.1-18.7c-1.1-1-2.8-2.3-4.2,0.2C736.7,275.8,741.1,291.8,741.1,291.8z"/>
			<path class="st8" d="M740.8,284.9l1.2,6.5c0,0,0.8-0.5,0.9-0.8c1.5-6.8-2.3-11.5-2.7-11.8c-0.6-0.5-1-0.6-1-0.6L740.8,284.9z"/>
			
				<linearGradient id="SVGID_3_" gradientUnits="userSpaceOnUse" x1="7533.104" y1="2485.4421" x2="7571.3091" y2="2462.8694" gradientTransform="matrix(-0.3775 0.926 -0.926 -0.3775 5872.7861 -5779.0278)">
				<stop  offset="0.1718" style="stop-color:#FFBE8C"/>
				<stop  offset="0.8808" style="stop-color:#F2B791"/>
			</linearGradient>
			<path class="st11" d="M729,255.7c-1.2,0.6-5.5,1.5-10.1,12.9c-4.3,10.6,0.5,15.9,1.1,20.7c0.4,3.2,2.8,3.5,4.8,2
				c1.4-1.1,2.8-4.6,2.5-7.3c-0.3-2.6-1.8-6.2-1.8-6.2s2.5-0.2,5.8,1.9c1.7,1.1,3.4,7.1,2.8,8.8c-0.9,2.7-3,3.9-6.2,5.4
				c-3.2,1.6-2.8,4.9-2.1,6.1c0.7,1.2,2.9,2.9,7.6,1.5c4.6-1.4,7.8-5.2,8.6-8.6c2.5-9.7-2.9-14.6-2.7-15.1
				c0.2-0.5,3.6-11.3,2.3-14.2C740.2,260.5,733.5,253.6,729,255.7z"/>
		</g>
		<path class="st12" d="M684.7,163.5c2-3.8,5-3.1,6.8-2.2c0.9,0.4,21.9,10.3,37,37.5c10.6,19,15.4,52.6,14.6,61
			c-0.3,3.5-6.1,4.3-9.9,4.5c-6.1,0.3-12.2-0.4-12.7-2.4c-1.3-4.6,0.6-34.8-10-57.9c-7.9-17.2-23.1-29-24.9-31.8
			C682.8,167.7,683.1,166.6,684.7,163.5z"/>
	</g>
	<g>
		<g>
			<path class="st13" d="M673,379.6c-0.4,0.1-2.6,4.8-3.3,8.4c-0.3,1.6-0.5,3.2-0.5,4.7c0,0.7,0.2,1.1,0.6,1.3
				c5.1,3,39.8,4.3,46,0.2c0.2-0.1,0.7-0.5,0.8-0.8c0.2-0.8,0-1.8-0.7-2.9c-2.2-3.3-18-10.6-22.4-11.3
				C689.4,378.7,675.5,378.8,673,379.6z"/>
			<path class="st14" d="M716.3,391.5c-0.2,0.2-0.5,0.3-0.6,0.4c-6.2,4.1-40.9,2.8-46-0.2c-0.2-0.1-0.4-0.3-0.5-0.4
				c-0.1,0.5-0.2,1.2-0.1,1.9c0.1,0.7,0.3,1.1,0.7,1.3c5.1,3,39.8,4.3,46,0.2c0.2-0.1,0.6-0.5,0.8-0.8
				C716.8,393.2,716.8,392.3,716.3,391.5z"/>
		</g>
		<g>
			<path class="st13" d="M659.2,379.6c0.4,0.1,2.6,4.8,3.3,8.4c0.3,1.6,0.5,3.2,0.5,4.7c0,0.7-0.2,1.1-0.6,1.3
				c-5.1,3-39.8,4.3-46,0.2c-0.2-0.1-0.7-0.5-0.8-0.8c-0.2-0.8,0-1.8,0.7-2.9c2.2-3.3,18-10.6,22.4-11.3
				C642.8,378.7,656.7,378.8,659.2,379.6z"/>
			<path class="st14" d="M615.9,391.5c0.2,0.2,0.5,0.3,0.6,0.4c6.2,4.1,40.9,2.8,46-0.2c0.2-0.1,0.4-0.3,0.5-0.4
				c0.1,0.5,0.2,1.2,0.1,1.9c-0.1,0.7-0.3,1.1-0.7,1.3c-5.1,3-39.8,4.3-46,0.2c-0.2-0.1-0.6-0.5-0.8-0.8
				C615.4,393.2,615.4,392.3,615.9,391.5z"/>
		</g>
		<g>
			<path class="st15" d="M704.8,238.2c0,0-14.8,6.4-19.8,7.9c-10.8,3.1-16.2,5.4-19,7.2c-2.8-1.8-6.3,26.7,0,26.7
				c6.6,0,11.8-1.8,11.8-1.8s-2.5,20.2-4.6,49.3c-1.9,26.1-2.4,44.4-2.6,50.3c0,1.1,0.2,1.2,0.5,1.3c1.5,0.7,5.9,2.4,13.1,2.4
				c6.7,0,10.5-1,12.1-1.5c0.5-0.2,0.7-0.7,0.7-1.3c-0.1-5.3-0.2-29.5,0.8-54.7c1-25,6.2-69.6,6.4-72.5
				C704.7,245.4,704.8,238.2,704.8,238.2z"/>
			<path class="st16" d="M668.6,253.7c-2.8-1.8-10.8-4.6-21.6-7.7c-5-1.4-20.1-1.6-20.1-1.6s6,45.9,7.3,79.4
				c1,25.2,0.9,49.4,0.8,54.7c0,0.7,0.2,1.2,0.7,1.3c1.5,0.5,5.4,1.5,12.1,1.5c7.1,0,11.6-1.7,13.1-2.4c0.4-0.2,0.6-0.2,0.5-1.3
				c-0.2-5.9-0.8-24.2-2.6-50.3c-2.1-29-4.6-49.3-4.6-49.3s5.5,1.8,11.8,1.8C671,280.2,672.3,255.8,668.6,253.7z"/>
			<path class="st17" d="M676,294.8c0,0,3.8,1.8,11.7,1.3c7.4-0.5,12.3-3,12.3-3c1.8-20.3,4.1-39.8,4.2-41.7
				c0.5-6,0.6-13.2,0.6-13.2S690,244.6,685,246c-10.8,3.1-16.2,5.4-19,7.2c-2.8-1.8-6.3,26.7,0,26.7c6.6,0,11.8-1.8,11.8-1.8
				S677,284.4,676,294.8z"/>
			<path class="st17" d="M656,294.2c-1-10.1-1.7-16-1.7-16s5.5,1.8,11.8,1.8c5.1,0.1,6.3-24.2,2.6-26.3c-2.8-1.8-10.8-4.6-21.6-7.7
				c-5-1.4-20.1-1.6-20.1-1.6s3.2,24.2,5.4,50.3c0,0,5.6,1.9,12,1.8C652.3,296.5,656,294.2,656,294.2z"/>
		</g>
	</g>
	<g>
		<path class="st18" d="M675.1,156.1c0,7.3-27.7,6-27.5-1.3c0.1-2.5,1.1-11.7,0.7-14.2c-1.1-7.2,28.7-5.9,27.5,1.3
			C675.3,144.8,675.1,153.5,675.1,156.1z"/>
		<path class="st19" d="M693.2,29.4L667,32.5l-25.8-5.5l-13,14.7c0,0-1.1,35.5,0.1,60.7c1.2,25.5,8.1,33.8,11.5,36.6
			c6.5,5.2,21.1,5.5,22,5.5c0.9,0,15.5,1.1,22.4-3.4c3.7-2.4,11.4-10.1,14.9-35.3c3.5-25,5.8-60.4,5.8-60.4L693.2,29.4z"/>
		
			<linearGradient id="SVGID_4_" gradientUnits="userSpaceOnUse" x1="698.424" y1="52.6612" x2="625.08" y2="52.6612" gradientTransform="matrix(0.9989 4.730000e-02 -4.730000e-02 0.9989 8.1226 -36.6941)">
			<stop  offset="0" style="stop-color:#F19C7C"/>
			<stop  offset="0.3389" style="stop-color:#F5A784"/>
			<stop  offset="0.936" style="stop-color:#FFC599"/>
		</linearGradient>
		<path class="st20" d="M630.7,37L629.5,56c22.2-8.7,61.4,1.3,71.3-7.3c1.4-1.2,3.2-7.6,2.8-9.7c-0.3-2.1-19.8,1.1-23.5,1
			c-3.7-0.2-30.3-0.7-33.6-1.6C643.2,37.5,630.7,37,630.7,37z"/>
		
			<linearGradient id="SVGID_5_" gradientUnits="userSpaceOnUse" x1="693.2529" y1="52.1857" x2="695.0421" y2="77.2052" gradientTransform="matrix(0.9989 4.730000e-02 -4.730000e-02 0.9989 8.1226 -36.6941)">
			<stop  offset="0" style="stop-color:#F19C7C"/>
			<stop  offset="0.3389" style="stop-color:#F5A784"/>
			<stop  offset="0.936" style="stop-color:#FFC599"/>
		</linearGradient>
		<path class="st21" d="M704.7,42.4c-0.1-0.3-16.4,9.8-12.5,9.4c1-0.1,2.5-0.5,2.8,2.9c0.3,3.3,0.4,4.5,1,7.8
			c0.6,3.6,1.9,7.8,2.8,9.2c0.9,1.4,3.1,2.6,4.2,2.1c1.1-0.5,1.5-4.9,0.9-9.2c-0.7-4.8-1.1-7.1-1.1-10.9S704.7,42.4,704.7,42.4z"/>
		<path class="st22" d="M626.1,21.8c-8.5,3.4-11.9,9.2-12.6,15.7c-1.3,12,6.2,26.5,7,34.1c0.2,2,6.7,1.6,7.4-0.7
			c4.5-13.4,4.4-25.2,3.7-34.7C631.1,29.5,627.1,21.4,626.1,21.8z"/>
		<path class="st23" d="M707.6,25.5c8.2,4.2,11,10.2,11.1,16.8c0.2,12-8.6,25.9-10.1,33.3c-0.4,1.9-6.8,1-7.3-1.3
			c-3.3-13.8-2.1-25.5-0.5-34.9C701.9,32.7,706.6,25,707.6,25.5z"/>
		<path class="st22" d="M714.6,42.6c-0.8-5.6-3.8-10.1-10.7-12.2c-1.3,2.6-2.6,5.9-3.1,9c-1.6,9.4-2.7,21.1,0.5,34.9
			c0.2,0.7,0.8,1.2,1.6,1.6c2.1,0.8,5,0.8,5.2-0.6C708.8,67.8,716.1,53.7,714.6,42.6z"/>
		<g>
			<path class="st19" d="M708.5,72.6c4.4-0.1,8.8,2.3,10,6.2c0.8,2.5,0.4,5.1-0.5,7.7c-1.4,4.2-3.7,7.5-6.4,9.3c-3,2-5.2,1.7-7.5,1
				c-3.3-1.1-5.5-3.8-6-5.4c-1.2-3.8-0.5-9.2,0.2-13.2C698.6,76.9,701.9,72.7,708.5,72.6z"/>
			
				<linearGradient id="SVGID_6_" gradientUnits="userSpaceOnUse" x1="697.7083" y1="87.8173" x2="709.7789" y2="87.8173" gradientTransform="matrix(0.9989 4.730000e-02 -4.730000e-02 0.9989 8.1226 -36.6941)">
				<stop  offset="0" style="stop-color:#FFC599"/>
				<stop  offset="1" style="stop-color:#EE7F52"/>
			</linearGradient>
			<path class="st24" d="M702.8,78.4c1.3-1.9,5-1.8,7.3-0.4c2.3,1.4,3.3,4.4,2.9,7.6c-0.4,2.8-3,5-5.7,5.8c-2,0.6-4.3,0.2-5.3-1.6
				c-0.9-1.7-1-4.1-1-5.3C701,82.3,701.5,80.1,702.8,78.4z"/>
		</g>
		<g>
			<path class="st19" d="M620.2,68.4c-4.4-0.5-9,1.4-10.6,5.2c-1,2.4-0.9,5-0.3,7.7c1,4.3,3,7.8,5.5,9.9c2.8,2.3,5.1,2.2,7.3,1.7
				c3.4-0.8,5.8-3.2,6.5-4.8c1.6-3.7,1.3-9.2,1-13.1C629.6,73.6,626.7,69.2,620.2,68.4z"/>
			
				<linearGradient id="SVGID_7_" gradientUnits="userSpaceOnUse" x1="358.4037" y1="88.512" x2="370.4743" y2="88.512" gradientTransform="matrix(-0.9989 -4.730000e-02 -4.730000e-02 0.9989 988.8563 9.0538)">
				<stop  offset="0" style="stop-color:#FFC599"/>
				<stop  offset="1" style="stop-color:#EE7F52"/>
			</linearGradient>
			<path class="st25" d="M625.4,74.7c-1.2-2-4.8-2.3-7.2-1.1c-2.4,1.2-3.7,4.1-3.6,7.3c0.1,2.8,2.5,5.3,5.1,6.3
				c2,0.8,4.2,0.6,5.4-1.1c1.1-1.6,1.4-4,1.5-5.2C626.7,78.8,626.4,76.5,625.4,74.7z"/>
		</g>
		<path class="st22" d="M636.4,9.8c-16.6,6.4-16.3,28.1,1.8,33.9c12.4,4,43.4,5.6,57.1-0.5c24.3-10.8,13.2-35.8,11.4-35
			c-0.9,0.4-3.1,5.3-9.9,6.6c-2.7,0.5-5.4,0.6-7.6,0.5C673.7,15.2,649.1,4.9,636.4,9.8z"/>
		<path class="st23" d="M636.2,8.8c-5.7,2.2-9.7,6.1-11.1,10.8c-1.5,5.2,0.1,11.2,1.5,14.1c2,4,3.2,4.8,3.8,4.7
			c0.9-0.1-0.7-6.5,2.2-12.3c2.2-4.4,9.6-8.4,20.1-8.4c11.4,0.1,25,4.1,37.1,2.8c6.5-0.7,10.7-3.5,11.8-8.2c1.5-6.2-3.3-9.8-3.9-9.6
			c-0.2,0.1-0.6,1.2-1.6,2.1C692,9,681.7,10,678,9.9C662.7,9.6,648.8,3.9,636.2,8.8z"/>
		
			<linearGradient id="SVGID_8_" gradientUnits="userSpaceOnUse" x1="660.8506" y1="97.8948" x2="660.8506" y2="56.6434" gradientTransform="matrix(0.9989 4.730000e-02 -4.730000e-02 0.9989 8.1226 -36.6941)">
			<stop  offset="0.1945" style="stop-color:#FFC599"/>
			<stop  offset="1" style="stop-color:#F48655"/>
		</linearGradient>
		<path class="st26" d="M694.4,67.7c-4.8-5.3-13.6-7.8-24.5-8.7c-1.3-0.1-4.3,11.1-4.3,11.1l-3.8-0.3c0,0,0-11.3-1.5-11.3
			c-10.7-0.1-19.9,1.6-25,6.3c-2.6,2.4-3.4,4.9-3.5,8c-0.3,6.9-0.5,13.1,3.1,16.4c6.2,5.7,16,1.4,28.2,2c0.2,0,0.4,0,0.6,0
			c0.2,0,0.4,0,0.6,0c12.2,0.6,21.5,5.7,28.3,0.7c3.9-2.9,4.3-9,4.6-16C697.4,72.9,696.8,70.4,694.4,67.7z"/>
		<path class="st27" d="M659.5,62.2c-3-0.1-7.2-0.3-11.1-0.1c-3.4,0.2-6.6,0.5-8.7,0.7c-0.8,0.1-2.2,0.4-2.4-0.2
			c-0.1-0.1-0.1-0.3-0.1-0.5c0.1-0.7,0.5-1.8,1-2.4c0.6-0.6,1.8-0.9,2.4-1.1c4.9-1.1,13.5-1.8,18.2-1.8c0.3,0,0.9,0.1,1.4,0.8
			c0.5,0.8,1.3,2.5,1.2,3.4C661.5,62,660.5,62.3,659.5,62.2z"/>
		<path class="st27" d="M670.4,62.7c3,0.2,7.2,0.3,11.1,0.8c3.4,0.4,6.5,1,8.6,1.4c0.8,0.1,2.1,0.6,2.4,0c0.1-0.1,0.1-0.3,0.1-0.5
			c0-0.7-0.4-1.8-0.9-2.4c-0.5-0.7-1.7-1-2.3-1.2c-4.8-1.5-13.3-2.9-18-3.2c-0.3,0-0.9,0-1.4,0.7c-0.6,0.8-1.5,2.3-1.4,3.3
			C668.5,62.4,669.4,62.7,670.4,62.7z"/>
		
			<linearGradient id="SVGID_9_" gradientUnits="userSpaceOnUse" x1="663.124" y1="112.0572" x2="662.7476" y2="74.4999" gradientTransform="matrix(0.9989 4.730000e-02 -4.730000e-02 0.9989 8.1226 -36.6941)">
			<stop  offset="0" style="stop-color:#F07A4A"/>
			<stop  offset="0.2166" style="stop-color:#F28555"/>
			<stop  offset="0.6003" style="stop-color:#F8A173"/>
			<stop  offset="1" style="stop-color:#FFC599"/>
		</linearGradient>
		<path class="st28" d="M665.7,69.5c-0.2,7.3-1.3,14.7,0.1,21.8c1,5.1,6.3,8.1,6.2,11.2c-0.1,2.6-4.9,4.3-8.7,4.5
			c-0.9,0.1-2.9,0.2-4.1-4c-0.8-2.6,0.8-24.3,2.7-33.7C662,68.4,665.7,68.6,665.7,69.5z"/>
		<path class="st29" d="M654.6,76.9c-0.2,3.4-2.6,6-5.5,5.9c-2.9-0.1-5.1-3-4.9-6.4c0.2-3.4,2.6-6,5.5-5.9
			C652.6,70.7,654.8,73.5,654.6,76.9z"/>
		<path class="st29" d="M672.1,77.7c-0.2,3.4,2,6.2,4.9,6.4c2.9,0.1,5.3-2.5,5.5-5.9c0.2-3.4-2-6.2-4.9-6.4
			C674.7,71.7,672.2,74.3,672.1,77.7z"/>
		<path class="st30" d="M679.4,76.7c-0.1,1.1-1,2-2.2,2c-1.1-0.1-2-1-2-2.2c0.1-1.1,1-2,2.2-2S679.5,75.5,679.4,76.7z"/>
		<path class="st30" d="M651.5,75.2c-0.1,1.1-1,2-2.2,2c-1.1-0.1-2-1-2-2.2c0.1-1.1,1-2,2.2-2C650.7,73.1,651.6,74.1,651.5,75.2z"/>
		<g>
			<path class="st31" d="M646.9,113.8c1.8,0.3,7.7,1,19.1,0.2c7.5-0.6,12.7-2.1,15.1-2.9c1-0.4,1.7-0.5,1.3,1
				c-0.9,4.7-3.6,14.8-15.1,15.4c-14.2,0.8-19.5-10.3-20.7-13.1C646.4,113.9,646.5,113.7,646.9,113.8z"/>
			<path class="st32" d="M677.5,116.8c1-0.9,1-3.9,1-5c-2.8,0.8-7.3,1.7-12.5,2.1c-11.5,0.9-17.4,0.1-19.2-0.2
				c-0.4-0.1-0.5,0.1-0.3,0.6c0.4,0.9,0.7,2.2,2.4,4.4C656.9,120.6,674.2,119.7,677.5,116.8z"/>
		</g>
	</g>
	<g>
		<path class="st33" d="M701,225.6c-1.7-21.7-5-56.3-12.4-65c-3.5-4.2-19.6-4.4-25.8-4.2c0,0,0,0,0,0c-0.1,0-0.6,0-0.8,0
			c0,0,0,0,0,0c-6.2,0.2-22.3,0.5-25.5,4.9c-6.8,9.2-7.9,45.2-8.1,66.9c-0.1,6.1,0.2,11.3,1,14.4c3.2,12.4,69.2,10,71.6-2.6
			C701.6,236.9,701.5,231.8,701,225.6z"/>
		<g>
			<path class="st34" d="M644.5,158.3l13,3.2c0.2,0,0.4-0.1,0.5-0.3l3.4-10.7c0.1-0.3-0.1-0.6-0.3-0.6l-13.8-2.5
				c-0.2,0-0.4,0.1-0.5,0.3l-2.6,10.1C644.1,157.9,644.2,158.2,644.5,158.3z"/>
			<path class="st34" d="M680.4,157.1l-12.1,4.1c-0.2,0.1-0.4-0.1-0.5-0.3l-3.7-10.4c-0.1-0.2,0-0.5,0.2-0.6l11.5-3.2
				c0.2,0,0.4,0.1,0.5,0.3l4.2,9.5C680.6,156.7,680.6,157,680.4,157.1z"/>
		</g>
		<g>
			<path class="st35" d="M675,212c-2.1-17-5.9-36.9-8.3-48.4c-0.2-0.9-2.1-1-3.7-0.9c-1.6,0-3.5,0.2-3.6,1.1
				c-1.6,11.6-4.1,31.7-5.1,48.8c0,0.3,0,1.3,0.2,1.6c1.4,3.4,7.3,10.4,9.6,12.7c0.2,0.2,0.7,0.5,1.1,0.4c0.3,0,0.8-0.3,0.9-0.5
				c2.1-2.4,7.6-9.8,8.8-13.2C675,213.3,675,212.3,675,212z"/>
			
				<linearGradient id="SVGID_10_" gradientUnits="userSpaceOnUse" x1="661.6075" y1="170.3481" x2="661.6075" y2="156.2263" gradientTransform="matrix(0.9995 -3.220000e-02 3.220000e-02 0.9995 -3.6559 15.2299)">
				<stop  offset="0" style="stop-color:#C32228"/>
				<stop  offset="0.457" style="stop-color:#E82F2A"/>
			</linearGradient>
			<path class="st36" d="M666.1,150.9c-0.2-0.3-0.6-0.5-1-0.5l-1.1,0c0,0,0,0,0,0l-1.3,0l-1.3,0c0,0,0,0,0,0l-1.1,0
				c-0.4,0-0.8,0.2-1,0.5c0,0-3.7,4.6-3,6.7c0.7,2.4,2.7,6,4.5,6l0.5,0l3.7-0.1l0.5,0c1.8-0.1,3.5-3.8,4.1-6.2
				C670,155.2,666.1,150.9,666.1,150.9z"/>
		</g>
	</g>
	<g>
		<path class="st12" d="M644.3,156.7c-1.5,0.2-7.2,1.9-10.9,5.9c-1.6,1.7-6.9,27.1-9.2,50.1c-1.9,19-4.1,36.8-5.7,48
			c-0.3,2.3-3.6,12.8-5.1,16.2c-0.9,2.1,11.7,6.5,26,8.4c18.2,2.5,22.1,0.4,22.6-0.2c1-1.1,4.6-7.3,4.8-14.7
			c0.5-19.9-1.2-57.3-1.5-60.2C664.9,206.3,644.3,156.7,644.3,156.7z"/>
		<path class="st37" d="M683,156.7c1.5,0.2,7.2,1.9,10.9,5.9c1.6,1.7,6.9,27.1,9.2,50.1c1.9,19,4.1,36.8,5.7,48
			c0.3,2.3,3.6,12.8,5.1,16.2c0.9,2.1-11.7,6.5-26,8.4c-18.2,2.5-22.7,0.2-23.2-0.4c-0.9-1.1-4.3-6.8-4.9-13.7
			c-1.3-14.8-1.5-41.2,0-53.3c0.1-1,1.7-7,1.9-7.7c0.9-3.3,5.6-19.8,11.1-33.2C677.4,165.6,683,156.7,683,156.7z"/>
		<path class="st37" d="M629.5,238.5c7.1,1.2,16.4,2.1,23.3,2c1.3,0-0.1,9.8-0.7,12.7c-0.6,2.7-2.4,8.7-11.7,7.8
			c-6.6-0.7-11.8-3-12.4-8.8C627.7,248.3,628.5,238.3,629.5,238.5z"/>
		<path class="st12" d="M696.8,238.5c-7.1,1.2-16.4,2.1-23.3,2c-1.3,0,0.1,9.8,0.7,12.7c0.6,2.7,2.4,8.7,11.7,7.8
			c6.6-0.7,11.8-3,12.4-8.8C698.6,248.3,697.8,238.3,696.8,238.5z"/>
		<g>
			<path class="st12" d="M667.2,246.1c0,1.5-1.2,2.6-2.6,2.6c-1.5,0-2.6-1.2-2.6-2.6c0-1.5,1.2-2.6,2.6-2.6
				C666,243.4,667.2,244.6,667.2,246.1z"/>
			<path class="st12" d="M667.8,230.7c0,1.5-1.2,2.6-2.6,2.6c-1.5,0-2.6-1.2-2.6-2.6c0-1.5,1.2-2.6,2.6-2.6
				C666.7,228.1,667.8,229.2,667.8,230.7z"/>
		</g>
		<path class="st37" d="M638.2,159c0.9-1.2,4.6-2.9,6.1-2.8c0.7,0,7.6,12.2,11,21.3c6.8,18.3,9.3,29.3,9.2,30.6
			c-0.1,0.8-23.1-22.6-23-23.4c0.3-2,9.9-6.7,9.8-7c-0.1-0.4-7.4,0.3-9.3-1C641.3,176.2,637.2,160.3,638.2,159z"/>
		<g>
			<path class="st12" d="M688.6,159.3c-0.9-1.2-2-1.8-3.5-1.7c-0.7,0-10.7,12.7-14.1,21.9c-6.8,18.3-11.1,36.9-11,38.3
				c0.1,0.8,25.4-29.7,25.3-30.5c-0.3-2-11.6-8.8-11.5-9c0.1-0.4,8.7,0.9,10.6-0.4C685.1,177.3,689.6,160.6,688.6,159.3z"/>
			<path class="st38" d="M687.4,158.1c-0.9-1.2-4.6-2.9-6.1-2.8c-0.7,0-7.9,13.1-11.3,22.2c-5.2,14.1-10.4,40.5-10.2,40.5
				c0.1,0.1,24.1-32.6,24-33.3c-0.3-2-9.9-6.7-9.8-7c0.1-0.4,7.4,0.3,9.3-1C684,176.2,688.4,159.4,687.4,158.1z"/>
		</g>
	</g>
	<g>
		<linearGradient id="SVGID_11_" gradientUnits="userSpaceOnUse" x1="639.1551" y1="220.6773" x2="671.2073" y2="224.8422">
			<stop  offset="0.1718" style="stop-color:#FFBE8C"/>
			<stop  offset="0.8808" style="stop-color:#F2B791"/>
		</linearGradient>
		<path class="st39" d="M670.5,233.8c1.1-0.9,2.9-3.2,2.3-5.7c-0.4-1.7-1.6-2.9-2.6-3.7c0.1-0.2,0.2-0.3,0.2-0.5c1.1-2.6-1-5-2-5.7
			c-3.1-2.3-6.7-2.3-7.8-2.2c-2.1,0.2-4.5,0.7-6.3,1c-0.1-0.2-0.2-0.4-0.1-0.6c0.7-8.6-0.6-13.4-1.7-15.2c-1.6-2.3-4.2-3.3-5.6-3.4
			c-1.7-0.1-3.4,0.6-4.2,1.4c-0.7,0.7-1,1.5-0.9,2.3c0.2,1.6,3.9,4.2,3,14.1c-0.1,1.5-4.8,6.4-6.5,11.8c-0.7,2.3-1,7,1.1,10.6
			c1.8,3.2,4.6,6.3,9.6,7.4c7.5,1.7,13.5,0.7,15.4-0.5c0.7-0.5,2.4-2.3,2-4.4c0.9-0.3,1.6-0.5,2-0.8c0.9-0.6,3.1-2.9,2.4-5.5
			C670.6,234.2,670.6,234,670.5,233.8z"/>
		<path class="st12" d="M635.8,160.7c-2.1,1-41.9,23.5-42.8,51c-0.7,21.8,33.5,29.4,41.9,29.9c3.5,0.2,5.2-5.4,6-9
			c1.3-6,1.5-12.1-0.3-12.9c-4.4-2-26.2-4-27.7-9.2c-1.6-5.6,12.1-26.2,21.6-32.1C639.4,175.3,637.6,159.9,635.8,160.7z"/>
	</g>
</g>
<g>
	<g>
		<path class="st18" d="M91.2,154.9c0.7,7.2-26.9,8.7-27.5,1.4c-0.2-2.5-0.1-11.7-0.7-14.2c-1.8-7,28-8.7,27.5-1.4
			C90.2,143.6,90.9,152.3,91.2,154.9z"/>
		<path class="st19" d="M96.6,27l-25.8,5.7l-26.3-2.9L33,45.7c0,0,2.5,35.4,6.2,60.4c3.7,25.3,11.4,32.8,15.1,35.2
			c6.9,4.5,21.5,3.4,22.4,3.3c0.9,0,15.5-0.4,21.9-5.7c3.4-2.8,10.3-11.1,11.3-36.6c1-25.2-0.2-60.7-0.2-60.7L96.6,27z"/>
		
			<linearGradient id="SVGID_12_" gradientUnits="userSpaceOnUse" x1="118.8138" y1="30.7495" x2="45.4672" y2="30.7495" gradientTransform="matrix(0.9986 -5.260000e-02 5.260000e-02 0.9986 -11.7617 20.9783)">
			<stop  offset="0" style="stop-color:#F19C7C"/>
			<stop  offset="0.3389" style="stop-color:#F5A784"/>
			<stop  offset="0.936" style="stop-color:#FFC599"/>
		</linearGradient>
		<path class="st40" d="M35.1,40.8l0.7,19C57.1,48.9,97,54.9,106,45.4c1.3-1.3,2.4-7.8,1.9-9.9c-0.6-2.1-19.6,3.1-23.3,3.3
			C80.9,39,54.4,41.1,51,40.6C47.5,40,35.1,40.8,35.1,40.8z"/>
		
			<linearGradient id="SVGID_13_" gradientUnits="userSpaceOnUse" x1="113.6425" y1="30.2741" x2="115.4317" y2="55.2944" gradientTransform="matrix(0.9986 -5.260000e-02 5.260000e-02 0.9986 -11.7617 20.9783)">
			<stop  offset="0" style="stop-color:#F19C7C"/>
			<stop  offset="0.3389" style="stop-color:#F5A784"/>
			<stop  offset="0.936" style="stop-color:#FFC599"/>
		</linearGradient>
		<path class="st41" d="M109.2,38.8c-0.1-0.3-15.3,11.4-11.5,10.6c0.9-0.2,2.5-0.7,3.1,2.6c0.6,3.3,0.9,4.4,1.8,7.7
			c1,3.5,2.7,7.6,3.7,8.9c1.1,1.3,3.3,2.3,4.4,1.6c1.1-0.6,1-5,0-9.3c-1.1-4.7-1.9-6.9-2.2-10.8C108.2,46.3,109.2,38.8,109.2,38.8z"
			/>
		<g>
			<path class="st19" d="M116.1,68.4c4.4-0.5,9,1.4,10.6,5.1c1,2.4,0.9,5,0.3,7.7c-1,4.3-2.9,7.8-5.5,9.9c-2.8,2.3-5,2.2-7.3,1.7
				c-3.4-0.7-5.8-3.2-6.5-4.7c-1.6-3.7-1.4-9.2-1.1-13.1C106.6,73.7,109.5,69.2,116.1,68.4z"/>
			
				<linearGradient id="SVGID_14_" gradientUnits="userSpaceOnUse" x1="118.098" y1="65.9069" x2="130.169" y2="65.9069" gradientTransform="matrix(0.9986 -5.260000e-02 5.260000e-02 0.9986 -11.7617 20.9783)">
				<stop  offset="0" style="stop-color:#FFC599"/>
				<stop  offset="1" style="stop-color:#EE7F52"/>
			</linearGradient>
			<path class="st42" d="M110.9,74.8c1.2-2,4.8-2.3,7.2-1.2c2.4,1.2,3.8,4.1,3.6,7.3c-0.1,2.8-2.5,5.3-5.1,6.3
				c-2,0.8-4.2,0.7-5.4-1.1c-1.1-1.6-1.4-4-1.5-5.2C109.6,78.9,109.9,76.6,110.9,74.8z"/>
		</g>
		<g>
			<path class="st19" d="M27.7,73.1c-4.4-0.1-8.8,2.3-10,6.2c-0.8,2.5-0.4,5.1,0.5,7.7c1.4,4.2,3.7,7.5,6.5,9.3c3,2,5.2,1.7,7.5,1
				c3.3-1.1,5.5-3.8,6-5.4c1.2-3.8,0.4-9.2-0.3-13.2C37.7,77.3,34.3,73.2,27.7,73.1z"/>
			
				<linearGradient id="SVGID_15_" gradientUnits="userSpaceOnUse" x1="938.652" y1="66.5807" x2="950.7231" y2="66.5807" gradientTransform="matrix(-0.9986 5.260000e-02 5.260000e-02 0.9986 969.244 -31.3662)">
				<stop  offset="0" style="stop-color:#FFC599"/>
				<stop  offset="1" style="stop-color:#EE7F52"/>
			</linearGradient>
			<path class="st43" d="M33.5,78.9c-1.4-1.8-5-1.8-7.3-0.4s-3.3,4.5-2.8,7.6c0.4,2.8,3,5,5.7,5.7c2,0.6,4.3,0.2,5.3-1.6
				c0.9-1.7,1-4.1,0.9-5.3C35.3,82.8,34.8,80.5,33.5,78.9z"/>
		</g>
		<g id="hair">
			<path class="st22" d="M29,26.2C20.8,30.4,18,36.5,18,43c-0.1,12,8.8,25.8,10.4,33.2c0.4,1.9,6.8,1,7.3-1.4
				c3.1-13.8,1.8-25.5,0.2-34.9C34.7,33.2,30,25.6,29,26.2z"/>
			<path class="st23" d="M110.4,21.7c8.6,3.3,12,9,12.8,15.6c1.4,11.9-6,26.6-6.7,34.2c-0.2,2-6.7,1.7-7.4-0.6
				c-4.6-13.4-4.6-25.1-4-34.7C105.5,29.4,109.4,21.3,110.4,21.7z"/>
			<path class="st22" d="M119.1,38c-1.3-5.5-4.7-9.7-11.9-11.1c-1.1,2.7-2,6.1-2.2,9.3c-0.6,9.5-0.6,21.3,4,34.7
				c0.2,0.6,0.9,1.1,1.7,1.4c2.1,0.6,5.1,0.3,5.1-1.1C115.9,63.6,121.7,48.9,119.1,38z"/>
			<path class="st22" d="M38.1,13.1c-15.9,8.1-13.4,29.6,5.1,33.6c12.7,2.7,43.7,1.2,56.7-6.2c23.1-13.2,9.6-36.9,7.8-36
				c-0.9,0.5-2.6,5.6-9.2,7.6c-2.6,0.8-5.3,1.1-7.5,1.3C75.7,14.8,50.2,7,38.1,13.1z"/>
			<path class="st23" d="M37.7,12.2c-5.4,2.7-9.1,7-10,11.8c-1,5.3,1.2,11.1,2.9,13.9c2.3,3.8,3.6,4.5,4.3,4.3
				c0.9-0.2-1.3-6.4,1-12.4c1.7-4.6,8.7-9.4,19.2-10.3c11.3-1,25.3,1.6,37.2-1c6.4-1.4,10.3-4.6,10.9-9.3c0.9-6.3-4.3-9.4-4.8-9.2
				c-0.2,0.1-0.5,1.3-1.3,2.2c-3.8,4.6-14,6.6-17.6,6.9C64.2,10.3,49.8,6.1,37.7,12.2z"/>
		</g>
		
			<linearGradient id="SVGID_16_" gradientUnits="userSpaceOnUse" x1="81.239" y1="75.9847" x2="81.239" y2="28.2378" gradientTransform="matrix(0.9986 -5.260000e-02 5.260000e-02 0.9986 -11.7617 20.9783)">
			<stop  offset="0.1945" style="stop-color:#FFC599"/>
			<stop  offset="1" style="stop-color:#F48655"/>
		</linearGradient>
		<path class="st44" d="M101.6,65c-5.3-4.8-14.3-6.4-25.3-6.2c-1.3,0-3.2,11.5-3.2,11.5l-3.9,0.1c0,0-1.1-11.2-2.6-11.1
			c-10.6,1-19.6,3.6-24.3,8.8c-2.4,2.7-2.9,5.2-2.7,8.3c0.4,6.9,0.8,13.1,4.7,16c6.8,5,16.1-0.2,28.3-0.8c0.2,0,0.4,0,0.6,0
			c0.2,0,0.4,0,0.6,0c12.2-0.6,22,3.5,28.2-2.2c3.6-3.3,3.4-9.4,3-16.4C105,69.8,104.2,67.4,101.6,65z"/>
		<g id="eyebrows">
			<path class="st27" d="M65.9,61.4c-2.9,0.7-7,1.6-10.8,2.8c-3.2,1-6.2,2.1-8.2,2.9c-0.7,0.3-2,1-2.4,0.4c-0.1-0.1-0.2-0.3-0.2-0.4
				c-0.1-0.7,0-1.9,0.4-2.6c0.4-0.8,1.5-1.3,2.1-1.6c4.4-2.3,12.6-5.2,17.2-6.4c0.3-0.1,0.9-0.2,1.5,0.4c0.7,0.6,1.9,2.1,2,3
				C67.7,60.7,66.8,61.2,65.9,61.4z"/>
			<path class="st27" d="M77,60.7c3,0.4,7.1,0.9,11,1.7c3.3,0.7,6.4,1.5,8.5,2c0.7,0.2,2.1,0.7,2.4,0.1c0.1-0.1,0.1-0.3,0.1-0.4
				c0-0.7-0.2-1.8-0.7-2.5c-0.5-0.7-1.6-1.2-2.2-1.4c-4.6-1.9-13.1-3.9-17.7-4.6c-0.3,0-0.9-0.1-1.5,0.6c-0.6,0.7-1.7,2.2-1.7,3.2
				C75.1,60.2,76.1,60.6,77,60.7z"/>
		</g>
		
			<linearGradient id="SVGID_17_" gradientUnits="userSpaceOnUse" x1="83.5124" y1="90.1476" x2="83.136" y2="52.5889" gradientTransform="matrix(0.9986 -5.260000e-02 5.260000e-02 0.9986 -11.7617 20.9783)">
			<stop  offset="0" style="stop-color:#F07A4A"/>
			<stop  offset="0.2166" style="stop-color:#F28555"/>
			<stop  offset="0.6003" style="stop-color:#F8A173"/>
			<stop  offset="1" style="stop-color:#FFC599"/>
		</linearGradient>
		<path class="st45" d="M73.1,69.7c0.5,7.3,0.2,14.7,2.2,21.7c1.5,5,7.1,7.4,7.3,10.5c0.1,2.6-4.4,4.8-8.2,5.4
			c-0.9,0.1-2.8,0.4-4.4-3.5c-1-2.6-1.7-24.3-0.7-33.8C69.4,68.9,73.1,68.7,73.1,69.7z"/>
		<path class="st46" d="M62.9,78.1c0.2,3.4-2,6.2-4.9,6.4c-2.9,0.2-5.4-2.5-5.5-5.8c-0.2-3.4,2-6.2,4.9-6.4
			C60.2,72.1,62.7,74.7,62.9,78.1z"/>
		<path class="st46" d="M80.3,77.2c0.2,3.4,2.7,6,5.5,5.8c2.9-0.2,5.1-3,4.9-6.4c-0.2-3.4-2.7-6-5.5-5.8
			C82.3,70.9,80.1,73.8,80.3,77.2z"/>
		<path class="st30" d="M87.6,75.4c0.1,1.1-0.8,2.1-2,2.2c-1.1,0.1-2.1-0.8-2.2-2c-0.1-1.1,0.8-2.1,2-2.2
			C86.6,73.4,87.6,74.3,87.6,75.4z"/>
		<path class="st30" d="M59.7,76.7c0.1,1.1-0.8,2.1-2,2.2c-1.1,0.1-2.1-0.8-2.2-2c-0.1-1.1,0.8-2.1,2-2.2
			C58.7,74.7,59.7,75.6,59.7,76.7z"/>
		<path class="st47" d="M56.3,110.6c-0.4-1.1,0.2-1.3,0.7-0.7c0.4,0.4,1,1.1,1.6,1.6c4.3,4.3,10.4,6.5,16.1,6.9
			c5.1,0.4,10.3-1,15-3.7c0.5-0.3,0.7,0.2,0.3,0.6c-2.5,2.4-8.7,5.4-15.3,5c-5.7-0.3-12.1-2.2-16.9-7.6
			C57.2,112.3,56.6,111.4,56.3,110.6z"/>
	</g>
	<g>
		<g>
			<path class="st13" d="M92.3,379.6c-0.4,0.1-2.6,4.8-3.3,8.4c-0.3,1.6-0.5,3.2-0.5,4.7c0,0.7,0.2,1.1,0.6,1.3
				c5.1,3,39.8,4.3,46,0.2c0.2-0.1,0.7-0.5,0.8-0.8c0.2-0.8,0-1.8-0.7-2.9c-2.2-3.3-18-10.6-22.4-11.3
				C108.7,378.7,94.8,378.8,92.3,379.6z"/>
			<path class="st14" d="M135.6,391.5c-0.2,0.2-0.5,0.3-0.6,0.4c-6.2,4.1-40.9,2.8-46-0.2c-0.2-0.1-0.4-0.3-0.5-0.4
				c-0.1,0.5-0.2,1.2-0.1,1.9c0.1,0.7,0.3,1.1,0.7,1.3c5.1,3,39.8,4.3,46,0.2c0.2-0.1,0.6-0.5,0.8-0.8
				C136,393.2,136.1,392.3,135.6,391.5z"/>
		</g>
		<g>
			<path class="st13" d="M78.5,379.6c0.4,0.1,2.6,4.8,3.3,8.4c0.3,1.6,0.5,3.2,0.5,4.7c0,0.7-0.2,1.1-0.6,1.3
				c-5.1,3-39.8,4.3-46,0.2c-0.2-0.1-0.7-0.5-0.8-0.8c-0.2-0.8,0-1.8,0.7-2.9c2.2-3.3,18-10.6,22.4-11.3
				C62.1,378.7,76,378.8,78.5,379.6z"/>
			<path class="st14" d="M35.2,391.5c0.2,0.2,0.5,0.3,0.6,0.4c6.2,4.1,40.9,2.8,46-0.2c0.2-0.1,0.4-0.3,0.5-0.4
				c0.1,0.5,0.2,1.2,0.1,1.9c-0.1,0.7-0.3,1.1-0.7,1.3c-5.1,3-39.8,4.3-46,0.2c-0.2-0.1-0.6-0.5-0.8-0.8
				C34.7,393.2,34.7,392.3,35.2,391.5z"/>
		</g>
		<path class="st15" d="M124.1,238.2c0,0-14.8,6.4-19.8,7.9c-10.8,3.1-16.2,5.4-19,7.2c-2.8-1.8-6.3,26.7,0,26.7
			c6.6,0,11.8-1.8,11.8-1.8s-2.5,20.2-4.6,49.3c-1.9,26.1-2.4,44.4-2.6,50.3c0,1.1,0.2,1.2,0.5,1.3c1.5,0.7,5.9,2.4,13.1,2.4
			c6.7,0,10.5-1,12.1-1.5c0.5-0.2,0.7-0.7,0.7-1.3c-0.1-5.3-0.2-29.5,0.8-54.7c1-25,6.2-69.6,6.4-72.5
			C123.9,245.4,124.1,238.2,124.1,238.2z"/>
		<path class="st16" d="M87.9,253.7c-2.8-1.8-10.8-4.6-21.6-7.7c-5-1.4-20.1-1.6-20.1-1.6s6,45.9,7.3,79.4c1,25.2,0.9,49.4,0.8,54.7
			c0,0.7,0.2,1.2,0.7,1.3c1.5,0.5,5.4,1.5,12.1,1.5c7.1,0,11.6-1.7,13.1-2.4c0.4-0.2,0.6-0.2,0.5-1.3c-0.2-5.9-0.8-24.2-2.6-50.3
			c-2.1-29-4.6-49.3-4.6-49.3S79,280,85.3,280C90.3,280.2,91.6,255.8,87.9,253.7z"/>
		<path class="st17" d="M95.2,294.8c0,0,3.8,1.8,11.7,1.3c7.4-0.5,12.3-3,12.3-3c1.8-20.3,4.1-39.8,4.2-41.7
			c0.5-6,0.6-13.2,0.6-13.2s-14.8,6.4-19.8,7.9c-10.8,3.1-16.2,5.4-19,7.2c-2.8-1.8-6.3,26.7,0,26.7c6.6,0,11.8-1.8,11.8-1.8
			S96.3,284.4,95.2,294.8z"/>
		<path class="st17" d="M75.3,294.2c-1-10.1-1.7-16-1.7-16S79,280,85.3,280c5.1,0.1,6.3-24.2,2.6-26.3c-2.8-1.8-10.8-4.6-21.6-7.7
			c-5-1.4-20.1-1.6-20.1-1.6s3.2,24.2,5.4,50.3c0,0,5.6,1.9,12,1.8C71.6,296.5,75.3,294.2,75.3,294.2z"/>
	</g>
	
		<linearGradient id="SVGID_18_" gradientUnits="userSpaceOnUse" x1="31.7006" y1="253.3948" x2="57.9774" y2="253.3948" gradientTransform="matrix(0.9991 -4.230000e-02 4.230000e-02 0.9991 -7.0498 20.1445)">
		<stop  offset="0.1718" style="stop-color:#FFBE8C"/>
		<stop  offset="0.8808" style="stop-color:#F2B791"/>
	</linearGradient>
	<path class="st48" d="M49.8,260c0,0,12.3-0.4,11.7,9.5c-0.5,6.8-1.5,10-3.1,12c-1,1.2-4.9,1.8-11.6-2.2
		c-6.8-4.1-11.6-13.5-11.8-15.1C34.8,262.6,49.8,260,49.8,260z"/>
	<g>
		<g>
			<g>
				<path class="st49" d="M137.9,301.8c1.4-3.4,3.5-3.5,5.5-3.5c1.9-0.1,4-0.2,5.7,3.2c1.8,3.6,9,28.3,8.5,48.7
					c0,1.3-0.7,3.5-2.6,4.8c-1.2,0.8-5.3,4.4-10.7,4.6c-5.3,0.2-6.9-2.1-9-3.6c-1.9-1.4-3.1-3.6-3.2-4.9
					C130.2,330.7,136.3,305.6,137.9,301.8z"/>
				<g>
					<path class="st4" d="M141,297.8l6.9-0.2l-0.5-15.6c0-1-0.5-1.9-1.2-2.5c-0.6-0.5-1.4-0.8-2.3-0.8l0,0c-0.8,0-1.6,0.4-2.2,0.9
						c-0.7,0.7-1.2,1.6-1.1,2.7L141,297.8z"/>
					<path class="st50" d="M140.9,299l7.3-0.2c0.2,0,0.4-0.2,0.4-0.4l-0.1-2.2c0-0.2-0.2-0.4-0.4-0.4l-7.3,0.2
						c-0.2,0-0.4,0.2-0.4,0.4l0.1,2.2C140.5,298.8,140.6,299,140.9,299z"/>
				</g>
			</g>
			<g>
				<path class="st8" d="M140.8,283.4c-1.8-0.9-4.5,1.6-4.9,3.2c-0.4,1.6,0.7,3.5,1.2,5c0.5,1.5,1.4,3.4,2.3,3.8
					c0.8,0.4,4.4,0.7,5.6,0.7c1.2,0,1.1-3.4,0.5-4.5C144.9,290.4,142.9,284.5,140.8,283.4z"/>
				<path class="st8" d="M148.1,267.9c6.3,1.8,9.2,14.1,8.7,16.5c-0.7,3-3.2,6.2-7,6.7c-4,0.6-8.3-3.9-8.7-5.4
					C139.5,279.3,145.9,267.2,148.1,267.9z"/>
				
					<linearGradient id="SVGID_19_" gradientUnits="userSpaceOnUse" x1="1074.1663" y1="454.4781" x2="1074.0522" y2="483.2544" gradientTransform="matrix(-0.9653 -0.2613 -0.2613 0.9653 1308.8301 110.6559)">
					<stop  offset="0.1718" style="stop-color:#FFBE8C"/>
					<stop  offset="0.8808" style="stop-color:#F2B791"/>
				</linearGradient>
				<path class="st51" d="M158,262.1c2.1,1.6,5.7,19.9,5.6,23.4c-0.1,1.9-6.6,9.3-10.3,10.7c-3,1.2-11.5-0.5-13.4-2.1
					c-1.5-1.3-1.1-5.4-3.1-8.9c-1-1.7-3.2-5.7,0.1-5.9c8.7-0.5,7.3,5.9,8.1,9.1c0.1,0.5,3,1.2,5.3-0.1c1.4-0.8,3.7-5.5,3.6-6.6
					c-3.9-2.3-6.7-3.3-7.7-6.2c-2.3-6.7,1.3-12.3,2.2-12.8C150.7,261.3,156.5,261,158,262.1z"/>
				<path class="st8" d="M136.5,284.6c0,0-0.3,1,1.1,1.2c1.2,0.2,3.4-0.4,5.2-2.5c2.1-2.6,2.7-6.4,3-7.9c0.4-2.2-0.2-3-0.2-3
					s-1.6,5-2.5,6.6c-0.7,1.2-2.7,3.5-3.9,4.2C137.9,284,136.5,284.6,136.5,284.6z"/>
				
					<linearGradient id="SVGID_20_" gradientUnits="userSpaceOnUse" x1="1081.2323" y1="456.9261" x2="1088.1034" y2="474.9202" gradientTransform="matrix(-0.9653 -0.2613 -0.2613 0.9653 1308.8301 110.6559)">
					<stop  offset="0.1718" style="stop-color:#FFBE8C"/>
					<stop  offset="0.8808" style="stop-color:#F2B791"/>
				</linearGradient>
				<path class="st52" d="M149,264.3c-1.4-2.5-8,1-9.5,5.3c-0.4,1.1-1.4,5.6-4.2,9.2c-1.3,1.8-3.7,2-3.4,3.9c0.3,2,3.6,3.9,7.2,2.3
					c2.3-1,4.6-3.5,5.4-7.1c0.9-3.8,2.9-5.3,4-7C150,268.7,149.8,265.7,149,264.3z"/>
			</g>
			<g>
				<path class="st5" d="M163.1,336.4l1.7-0.2c0.3,0,0.6-0.3,0.5-0.7l-1.3-9.9c0-0.3-0.3-0.6-0.7-0.5l-1.7,0.2
					c-0.3,0-0.6,0.3-0.5,0.7l1.3,9.9C162.5,336.2,162.8,336.5,163.1,336.4z"/>
				<path class="st6" d="M162,328l1.7-0.2c0.3,0,0.6-0.3,0.5-0.7l-0.2-1.5c0-0.3-0.3-0.6-0.7-0.5l-1.7,0.2c-0.3,0-0.6,0.3-0.5,0.7
					l0.2,1.5C161.4,327.8,161.7,328.1,162,328z"/>
				<g>
					<path class="st4" d="M145.2,299c0,1.7,6.8,1.5,6.9-0.2c0.2-12.6-0.9-16.4-0.9-16.4c-0.3-1-0.9-1.8-1.7-2.2
						c-2.4-1-3.9,0.4-4.4,1.1c-0.6,0.8-0.8,1.8-0.5,2.9C144.5,284.1,145.4,289.4,145.2,299z"/>
					<path class="st5" d="M145,300.2l7.3-0.2c0.2,0,0.4-0.2,0.4-0.4l-0.1-2.2c0-0.2-0.2-0.4-0.4-0.4l-7.3,0.2
						c-0.2,0-0.4,0.2-0.4,0.4l0.1,2.2C144.6,300.1,144.8,300.2,145,300.2z"/>
				</g>
				<path class="st3" d="M150.8,360.2c4.3-0.1,8.4-0.9,10.7-1.8c2.7-1,2.5-4.7,2.5-6c0.5-21.4-6.9-46.7-8.8-50.5
					c-1.9-3.8-5.1-3.7-6.2-3.6l-0.3,0c-1.4,0.1-4.5,0.2-6.2,4.1c-1.6,3.9-7.2,29.6-5.3,50.9c0.1,1.3,0.3,5,3,5.8
					C141.7,359.5,145.1,360.4,150.8,360.2z"/>
				<path class="st3" d="M156.5,303c2.8,5.3,4.6,13.1,6.4,17.9c0.6,1.6,2,3.1,2,3.4c0,0.7-2.4,2.1-4.3,2.5
					c-1,0.2-13.2-16.5-15.8-24.2c-1.1-3.4,2.8-4.2,4.7-4.2C152.9,298.5,155.1,300.4,156.5,303z"/>
				<path class="st1" d="M143.4,303c1.4-3.4,4.2-3.5,5.5-3.5c1.2-0.1,4-0.2,5.7,3.2c1.5,2.9,5.8,18.9,7.5,35.6
					c0.5,4.4,1.1,8.9,1,13.1c0,1.3-0.4,4-2.6,4.8c-0.9,0.3-4.6-0.7-4.9-0.5c-1,0.8-2.8,1.9-4.7,1.9c-2.3,0.1-4.5-0.9-5.2-1.1
					c-1.2-0.2-3.7,0.5-4.5,0.3c-2.2-0.7-2.8-3.3-2.9-4.6c-0.5-5,0.3-10.3,0.6-15.5c0.3-6.8,0.5-13.7,1.2-19.3
					C141,309.9,142.7,304.6,143.4,303z"/>
			</g>
		</g>
		<path class="st12" d="M100.8,162.8c1.9-3.9,4.9-3.3,6.7-2.5c0.9,0.4,19.5,8,36.9,40.5c12.2,22.7,16.7,51.9,16.2,60.4
			c-0.2,3.5-6,4.5-9.7,4.8c-6.1,0.5-12.2,0-12.8-1.9c-1.4-4.6,1.9-27.8-9.6-55c-7.4-17.4-24.2-32.6-26.1-35.4
			C99.4,169.3,99.3,166,100.8,162.8z"/>
	</g>
	<g id="tie">
		<path class="st33" d="M119.2,224.4c-2.4-21.6-6.9-56.1-14.6-64.6c-3.6-4-19.8-3.7-25.9-3.3c0,0,0,0,0,0c-0.1,0-0.6,0-0.8,0.1
			c0,0,0,0,0,0c-6.2,0.4-22.3,1.3-25.4,5.7c-6.5,9.4-6.3,45.4-5.8,67.2c0.1,6.1,0.6,11.2,1.5,14.4c3.6,12.2,69.5,7.6,71.4-5
			C120.1,235.6,119.9,230.5,119.2,224.4z"/>
		<g>
			<path class="st53" d="M92.7,211.7c-2.7-16.9-7.1-36.7-9.9-48.1c-0.2-0.9-2.1-0.9-3.7-0.7c-1.6,0.1-3.5,0.3-3.6,1.2
				c-1.2,11.7-3,31.8-3.5,49c0,0.3,0.1,1.3,0.2,1.6c1.5,3.3,7.7,10.2,10,12.3c0.2,0.2,0.7,0.4,1.1,0.4c0.3,0,0.7-0.3,0.9-0.5
				c2-2.4,7.3-10.1,8.3-13.5C92.8,212.9,92.8,212,92.7,211.7z"/>
			
				<linearGradient id="SVGID_21_" gradientUnits="userSpaceOnUse" x1="82.8862" y1="137.2012" x2="82.8862" y2="123.0793" gradientTransform="matrix(0.9978 -6.630000e-02 6.630000e-02 0.9978 -12.5995 32.8832)">
				<stop  offset="0" style="stop-color:#57897C"/>
				<stop  offset="0.457" style="stop-color:#85A9A0"/>
			</linearGradient>
			<path class="st54" d="M81.7,150.9c-0.2-0.3-0.6-0.5-1-0.4l-1.1,0.1c0,0,0,0,0,0l-1.3,0.1l-1.3,0.1c0,0,0,0,0,0l-1.1,0.1
				c-0.4,0-0.8,0.2-0.9,0.6c0,0-3.5,4.7-2.8,6.8c0.8,2.4,2.9,5.9,4.7,5.8l0.5,0l3.7-0.2l0.5,0c1.8-0.1,3.4-3.9,3.9-6.4
				C85.8,155.1,81.7,150.9,81.7,150.9z"/>
		</g>
		<g>
			<path class="st34" d="M60.4,159l13.1,2.7c0.2,0,0.4-0.1,0.5-0.3l3-10.9c0.1-0.3-0.1-0.6-0.3-0.6l-13.9-2c-0.2,0-0.4,0.1-0.4,0.4
				l-2.3,10.2C60,158.7,60.1,159,60.4,159z"/>
			<path class="st34" d="M96.2,156.6l-11.9,4.5c-0.2,0.1-0.4-0.1-0.5-0.3l-4.1-10.3c-0.1-0.2,0-0.5,0.2-0.6l11.4-3.6
				c0.2-0.1,0.4,0.1,0.5,0.3l4.6,9.4C96.5,156.2,96.4,156.5,96.2,156.6z"/>
		</g>
	</g>
	<path class="st17" d="M51.5,292.7c-0.2-1.5-1.4-5.7-3.2-8.8c-1.9-3.2-3.6-5.2-3.8-6.2c3.6-0.5,5.5-7.1,5.3-11.7
		c-0.2-5.4,10.3,0.3,12.2,5.6c1.3,3.4,0.8,11.4-1.2,13.8C57.3,289.5,51.8,295.3,51.5,292.7z"/>
	<g>
		<path class="st12" d="M60.1,157.4c-1.5,0.3-7.2,2.1-10.7,6.2c-1.5,1.8-6.3,17.9-7.4,50.4c-0.7,19.1,0.9,31.8-2,38.6
			c-0.9,2.2,7.1,11,10.2,14.6c5.7,6.5,4.1,22.4,5.8,22.7c18.3,1.9,25.6-4.1,26.1-4.7c0.9-1.2,4.4-7.5,4.3-14.8
			c-0.2-19.9-3.2-57.2-3.6-60.1C82.4,206.3,60.1,157.4,60.1,157.4z"/>
		<path class="st37" d="M98.8,156.1c1.5,0.2,7.3,1.6,11.1,5.5c1.6,1.7,7.8,26.8,10.9,49.7c2.5,19,5.4,36.6,7.3,47.8
			c0.4,2.3,4,12.6,5.7,16.1c1,2.1-11.4,6.9-25.7,9.3c-18.2,3.1-22.7,1-23.2,0.4c-1-1-4.5-6.6-5.3-13.5c-1.8-14.7-2.9-41.1-1.8-53.3
			c0.1-1,1.5-7.1,1.7-7.8c0.8-3.3,4.9-20,9.9-33.6C93.5,165.2,98.8,156.1,98.8,156.1z"/>
		<path class="st37" d="M48.2,239.7c7.1,1,16.5,1.6,23.4,1.2c1.3-0.1,0.3,9.8-0.2,12.7c-0.5,2.7-2.1,8.8-11.4,8.2
			c-6.6-0.5-11.9-2.6-12.7-8.4C46.7,249.6,47.2,239.6,48.2,239.7z"/>
		<path class="st12" d="M115.4,237.4c-7,1.5-16.4,2.7-23.2,2.8c-1.3,0,0.4,9.8,1.1,12.7c0.6,2.7,2.7,8.6,12,7.4
			c6.5-0.9,11.7-3.4,12.1-9.3C117.6,247.1,116.4,237.2,115.4,237.4z"/>
		<g>
			<path class="st12" d="M86,246c0,1.4-1.1,2.7-2.5,2.7c-1.4,0-2.7-1.1-2.7-2.5c0-1.4,1.1-2.7,2.5-2.7C84.8,243.4,86,244.5,86,246z"
				/>
			<path class="st12" d="M86.2,230.6c0,1.4-1.1,2.7-2.5,2.7c-1.4,0-2.7-1.1-2.7-2.5c0-1.4,1.1-2.7,2.5-2.7
				C84.9,228,86.2,229.1,86.2,230.6z"/>
		</g>
		<path class="st12" d="M58.9,162.5c-3-3.1-5.3-2-7.2-0.9c-0.9,0.5-29.5,16.9-34.6,49.2c-3.4,21.5,7.6,51.7,17,64
			c2.1,2.8,7.3-0.8,10.4-2.9c5.1-3.4,9.5-7.6,8.7-9.5c-1.8-4.5-18.8-24.4-17.1-49.7c1.5-22.3,23.1-38.5,24.3-41.6
			C61.8,167.6,61.3,165,58.9,162.5z"/>
		<path class="st37" d="M54.1,159.9c0.9-1.2,4.5-3,6-3c0.7,0,8.1,11.9,11.8,20.9c7.5,18.1,10.3,29,10.3,30.3
			c0,0.8-23.8-21.8-23.8-22.6c0.2-2,9.7-7.1,9.6-7.4c-0.1-0.4-7.4,0.6-9.3-0.7C57.8,177,53.1,161.2,54.1,159.9z"/>
		<path class="st12" d="M104.5,158.6c-1-1.1-2.1-1.7-3.6-1.6c-0.7,0.1-10.2,13.1-13.3,22.3c-6.2,18.6-9.9,37.3-9.7,38.6
			c0.1,0.8,24.3-30.6,24.2-31.4c-0.3-2-11.9-8.4-11.8-8.6c0.1-0.4,8.7,0.6,10.6-0.7C101.6,176.6,105.6,159.8,104.5,158.6z"/>
		<path class="st38" d="M103.3,157.4c-1-1.1-4.7-2.7-6.2-2.6c-0.7,0.1-7.5,13.3-10.6,22.5c-4.8,14.3-9,40.8-8.8,40.9
			c0.1,0.1,23-33.4,22.8-34.1c-0.3-2-10.1-6.4-10.1-6.7c0.1-0.4,7.4,0.1,9.3-1.3C100.5,175.6,104.4,158.6,103.3,157.4z"/>
	</g>
</g>
</svg>
