<!-- Generator: Adobe Illustrator 22.1.0, SVG Export Plug-In  -->
<svg version="1.1"
	 xmlns="http://www.w3.org/2000/svg" xmlns:xlink="http://www.w3.org/1999/xlink" xmlns:a="http://ns.adobe.com/AdobeSVGViewerExtensions/3.0/"
	 x="0px" y="0px" width="300.9px" height="358.7px" viewBox="0 0 300.9 358.7" style="enable-background:new 0 0 300.9 358.7;"
	 xml:space="preserve">
<style type="text/css">
	.st0{fill:#ED7044;}
	.st1{fill:#5C897B;}
	.st2{clip-path:url(#SVGID_2_);}
	.st3{fill:#B1363A;}
	.st4{clip-path:url(#SVGID_4_);}
</style>
<defs>
</defs>
<g>
	<path class="st0" d="M91.7,174.4c0-23.7,15.4-43.7,36.8-50.6l-11.7-36.1c-47.9,15.6-74.1,67-58.5,114.8l36-11.7
		C92.7,185.7,91.7,180.2,91.7,174.4z"/>
	<path class="st1" d="M145,83.3v37.9c29.4,0,53.2,23.8,53.2,53.2c0,29.4-23.8,53.2-53.2,53.2c-23.6,0-43.7-15.4-50.6-36.8l-36,11.7
		c12.4,38.3,46.4,63,86.7,63c50.3,0,91.1-40.8,91.1-91.1S195.3,83.3,145,83.3z"/>
	<g>
		<defs>
			<path id="SVGID_1_" d="M145,83.3v37.9c29.4,0,53.2,23.8,53.2,53.2c0,29.4-23.8,53.2-53.2,53.2c-23.6,0-43.7-15.4-50.6-36.8
				l-36,11.7c12.4,38.3,46.4,63,86.7,63c50.3,0,91.1-40.8,91.1-91.1S195.3,83.3,145,83.3z"/>
		</defs>
		<clipPath id="SVGID_2_">
			<use xlink:href="#SVGID_1_"  style="overflow:visible;"/>
		</clipPath>
		<g class="st2">
			<polygon class="st3" points="111.4,0.6 109.9,0 0,285.1 1.6,285.7 3.1,286.3 4.7,286.9 114.6,1.8 113,1.2 			"/>
			
				<rect x="-81.4" y="148" transform="matrix(0.3596 -0.9331 0.9331 0.3596 -93.2172 161.8631)" class="st3" width="305.5" height="1.7"/>
			<polygon class="st3" points="127.1,6.6 17.2,291.7 18.8,292.3 20.4,292.9 130.2,7.8 128.7,7.2 			"/>
			<polygon class="st3" points="142.7,12.7 142.5,12.6 141.1,12.1 31.3,297.1 32.7,297.7 32.8,297.7 34.2,298.3 35.8,298.9 
				145.7,13.8 144.1,13.2 			"/>
			
				<rect x="-50.3" y="160" transform="matrix(0.3596 -0.9331 0.9331 0.3596 -84.4825 198.5722)" class="st3" width="305.5" height="1.7"/>
			<polygon class="st3" points="158.1,18.6 48.3,303.7 49.8,304.3 51.4,304.9 161.3,19.8 159.7,19.2 			"/>
			<polygon class="st3" points="173.7,24.6 172.2,24 62.3,309.1 63.9,309.7 65.4,310.3 67,310.9 176.9,25.8 175.3,25.2 			"/>
			
				<rect x="-19.1" y="172" transform="matrix(0.3596 -0.9331 0.9331 0.3596 -75.7207 235.3956)" class="st3" width="305.5" height="1.7"/>
			<polygon class="st3" points="189.4,30.7 79.5,315.7 81.1,316.3 82.7,316.9 192.5,31.9 191,31.3 			"/>
			<polygon class="st3" points="205,36.7 204.9,36.6 203.5,36.1 93.6,321.1 95,321.7 95.2,321.7 96.6,322.3 98.1,322.9 208,37.8 
				206.4,37.2 			"/>
			
				<rect x="12" y="184" transform="matrix(0.3596 -0.9331 0.9331 0.3596 -66.986 272.1048)" class="st3" width="305.5" height="1.7"/>
			<polygon class="st3" points="220.5,42.6 110.6,327.7 112.2,328.3 113.7,328.9 223.6,43.8 222,43.2 			"/>
			<polygon class="st3" points="237.6,49.2 237,49 236.1,48.6 235.4,48.4 234.5,48 233.9,47.8 124,332.9 124.6,333.1 125.6,333.5 
				126.2,333.7 127.1,334.1 127.8,334.3 128.7,334.7 129.3,334.9 239.2,49.8 238.6,49.6 			"/>
			<polygon class="st3" points="299.3,73 297.8,72.4 296.2,71.8 186.3,356.9 187.9,357.5 189.4,358.1 191,358.7 300.9,73.6 			"/>
			
				<rect x="42.6" y="195.8" transform="matrix(0.3596 -0.9331 0.9331 0.3596 -58.4032 308.1757)" class="st3" width="305.5" height="1.7"/>
			<polygon class="st3" points="251.1,54.4 141.2,339.5 142.8,340.1 144.4,340.7 254.2,55.6 252.7,55 			"/>
			<polygon class="st3" points="266.7,60.4 266.5,60.4 265.1,59.8 155.3,344.9 156.7,345.4 156.8,345.5 158.2,346 159.8,346.7 
				269.7,61.6 268.1,61 			"/>
			
				<rect x="73.7" y="207.8" transform="matrix(0.3596 -0.9331 0.9331 0.3596 -49.6685 344.8849)" class="st3" width="305.5" height="1.7"/>
			<polygon class="st3" points="282.1,66.4 172.3,351.5 173.8,352.1 175.4,352.7 285.3,67.6 283.7,67 			"/>
		</g>
	</g>
</g>
</svg>
