<!-- Generator: Adobe Illustrator 22.1.0, SVG Export Plug-In  -->
<svg version="1.1"
	 xmlns="http://www.w3.org/2000/svg" xmlns:xlink="http://www.w3.org/1999/xlink" xmlns:a="http://ns.adobe.com/AdobeSVGViewerExtensions/3.0/"
	 x="0px" y="0px" width="85px" height="109.5px" viewBox="0 0 85 109.5" style="enable-background:new 0 0 85 109.5;"
	 xml:space="preserve">
<style type="text/css">
	.st0{fill:#312D2A;}
	.st1{fill:#FCFDFF;}
</style>
<defs>
</defs>
<g>
	<path class="st0" d="M74,53.2c-1-3.2-4.1-5.1-7.4-5.1l-13.8,0h-1.2c0.6,0.5,0.6,1.3,0,1.7l-6.7,4.8c-0.3,0.2-0.5,0.6-0.5,1
		l3.9,40.7c0,0.3-0.1,0.5-0.2,0.7l-5.1,6.4c-0.5,0.7-1.6,0.6-2.1,0l-4.9-6.7c-0.2-0.2-0.2-0.4-0.2-0.7L39,55.4c0-0.4-0.2-0.7-0.5-1
		l-6.8-4.7c-0.6-0.4-0.6-1.1-0.2-1.6H17.8c-2.9,0-5.4,1.9-6.3,4.8C8.4,62.8,4.1,77.8,0,92.3c3.8,3.5,8,6.5,12.5,9l5.5-20.4
		c0,0,0.1,0,0.1,0L18.1,104c8.1,3.6,17.1,5.5,26.6,5.5c7.8,0,15.2-1.3,22.1-3.8l-0.1-25c0,0,0.1-0.1,0.1,0l5.7,22.6
		c4.4-2.1,8.6-4.6,12.5-7.5L74,53.2z M62.2,65.7H51.5v-2.8l5.4-3.4l5.4,3.4V65.7z"/>
	<path class="st1" d="M47.2,45.5c-0.2-0.1-0.5-0.2-0.7-0.2H35.8c-0.3,0-0.6,0.1-0.8,0.3l-3.4,2.4c-0.1,0-0.1,0.1-0.2,0.2l20.2,0
		c0,0-0.1-0.1-0.2-0.1L47.2,45.5z"/>
	<path class="st1" d="M31.7,49.7l6.8,4.7c0.3,0.2,0.5,0.6,0.5,1L35.7,96c0,0.2,0.1,0.5,0.2,0.7l4.9,6.7c0.5,0.7,1.6,0.7,2.1,0
		l5.1-6.4c0.2-0.2,0.3-0.5,0.2-0.7l-3.9-40.7c0-0.4,0.1-0.7,0.5-1l6.7-4.8c0.6-0.4,0.6-1.2,0-1.7l-20.2,0
		C31,48.5,31.1,49.3,31.7,49.7z"/>
	<path class="st0" d="M38.9,13.5c6.5,6.3,14.5,5.9,14.5,5.9s0.1,1.3,0.1,3.3c1.1-0.7,2-1.6,2.8-2.8c3.5-5.4,1.2-13.1-5.2-17.3
		c-5.9-3.9-13.1-3.4-17,0.9c0.7,0.1,1.4,0.4,2,0.7C39.1,5.9,40.2,9.8,38.9,13.5z"/>
	<path class="st0" d="M27.8,18.9c0.3,0.2,0.6,0.3,1,0.4c0.1-0.8,0.1-1.3,0.1-1.3c1.5-1.1,2.5-2.4,3.3-3.6c-1.2-3.3-1-6.8,0.9-9.7
		c0.3-0.4,0.6-0.8,1-1.2C31,2.9,27.5,4.7,25.6,8C23.3,12,24.3,16.9,27.8,18.9z"/>
	<path class="st0" d="M32.2,14.4c2.4-3.7,2.2-7.1,2.2-7.1c1.3,2.6,2.9,4.6,4.6,6.2c1.3-3.7,0.2-7.6-2.9-9.3c-0.6-0.4-1.3-0.6-2-0.7
		c-0.3,0.4-0.7,0.8-1,1.2C31.2,7.6,31,11.1,32.2,14.4z"/>
	<path class="st1" d="M38.3,22c-1.4-1-2.7-2.1-3.7-3.3c-1.9,1-4,1.3-5.9,0.6c-0.3,4-0.6,15.6,4.2,19.1c5.8,4.2,12.4,4.7,16.9,0
		c3.1-3.3,3.6-11.1,3.6-15.6C49.4,25.5,43.3,25.4,38.3,22z"/>
	<path class="st1" d="M38.9,13.5c-0.2,0.5-0.4,1.1-0.7,1.6c-0.9,1.6-2.2,2.8-3.6,3.6c1,1.2,2.2,2.4,3.7,3.3
		c5.1,3.3,11.1,3.4,15.2,0.7c0-2-0.1-3.3-0.1-3.3S45.4,19.8,38.9,13.5z"/>
	<path class="st1" d="M34.6,18.7c-1.1-1.3-1.9-2.8-2.4-4.3c-0.8,1.2-1.9,2.4-3.3,3.6c0,0-0.1,0.5-0.1,1.3
		C30.6,20,32.7,19.7,34.6,18.7z"/>
	<path class="st1" d="M38.2,15.1c0.3-0.5,0.5-1,0.7-1.6c-1.7-1.6-3.2-3.6-4.6-6.2c0,0,0.2,3.4-2.2,7.1c0.5,1.5,1.3,3,2.4,4.3
		C36,17.9,37.3,16.7,38.2,15.1z"/>
	<polygon class="st1" points="51.5,62.9 51.5,65.7 62.2,65.7 62.2,62.9 56.8,59.5 	"/>
</g>
</svg>
