<!-- Generator: Adobe Illustrator 22.1.0, SVG Export Plug-In  -->
<svg version="1.1"
	 xmlns="http://www.w3.org/2000/svg" xmlns:xlink="http://www.w3.org/1999/xlink" xmlns:a="http://ns.adobe.com/AdobeSVGViewerExtensions/3.0/"
	 x="0px" y="0px" width="613.6px" height="617.1px" viewBox="0 0 613.6 617.1" style="enable-background:new 0 0 613.6 617.1;"
	 xml:space="preserve">
<style type="text/css">
	.st0{fill-rule:evenodd;clip-rule:evenodd;fill:#0B3A7C;}
	.st1{fill-rule:evenodd;clip-rule:evenodd;fill:#F0CD0F;}
</style>
<defs>
</defs>
<path class="st0" d="M445.9,567.8c-5.2-0.5-2.4-0.1-7.2-2.6c-1.1-0.6-3.3-1.4-4-1.8c-4.5-2.5-1.8-1-3.6-2.9l15.8,2
	C445.7,566.4,445.4,564.9,445.9,567.8L445.9,567.8z M246.8,285.3l-5.7,1.5c-5.4-0.2-4,1.4-4.7,3.2c-4.4,1.3-3,1.8-4.3,5.8
	c-1.1,3.5-1.8,4.7-3,7.2l0.3,1.1l-3,0.5c-3.8,3.2-2.3,2.6-6.8,4.2l0.1,1.5l-3.1,2.8c-2.5,2.1-4.7,3.6-9.4,4.6l0.5,1.2l-2.7-0.1
	l-6.9,0.1l0.4,0.7l-4.7,1.4c-1.4,5.9-3.7,9-8.1,12.4c-2.7,1.7-1.4,0.6-4,1.7c-3.1,1.4-0.8,0-2.8,1.6c-7.3-0.5-4.2,2.2-10.3,6.7
	l-10.3-3l-2-5.6c-6-1.3-1.9,0.7-6.1-3.6c-2.4,2.1-2.5-3.2-1.6,4.6l0.9,13.8c-4.3-0.2-11.1-1.4-15-2.2c-1.8-4.8-0.1-2.3-2.9-5.3
	c-4.5,0.3-4.7,1.5-9.7,0.8c-9.2-1.2-10-0.5-8.7,5.6c0.8,4,0.5,1.5-0.9,5.4l11.6,9.7c2.3,2.7,8.7,8.8,10.6,10.2l-0.4,12.1
	c4.1,3.4,6.8,6.9,8.3,12.8c-4.5,6.4-8.8,20.2-11.3,28c-1.5,4.6-2.9,11.1-6.7,13.2c-6.4,3.6-17.3-2.8-22.8-5.7
	c-5.7-3.1-7.3,0.6-21.7-8.2c-11.8-7.2-15.9-1-27.7-13c-3.6,0-4.9-0.1-7.6,2.5c-0.2,0.2-0.5,0.6-0.7,0.8c-0.1,0.2-0.4,0.6-0.7,0.8
	c-11-1-13.3-0.2-12.6,10.8c0.7,10.8-3.5,7.1-4.8,20.4c-1.1,11.6-6.9,21-14.7,27.6c-4.7,4-6.8,6-8,13.7l5.5,2.8l-3.4,4.2l4,2.6
	c-1.1,8-4.7,17.8-9.5,22.8c11.7,2.8,14.8,5.2,29.1,5.8c5.5,12,1.4,17.7,11.6,25.4c5.3-1,3.4,0.1,6.6-3.9c11,0.1,13.2-2,24,0.7
	c44.4,11.1,6.1-1.3,41.1-4.7c4-14.2,8.9-9.3,17.5-16.1c-6.5-26.5,3.3-17.8,17.4-38c16.2-2.4,12.7-3.7,25.8-7.1
	c12.5-3.3,9.4-11.6,9.6-23.3c14.7-7.4,13.7-7.4,27.5,1.6c16.1,10.6,17.8-0.8,32.2-4.3c8.6-2,9.1-8.1,14.4-9.7
	c9.6,0.8,10.2,5.3,17.4,8c1.4,12,3.8,18.2,10.4,25.4c1.2,1.3,2.5,2.7,3.4,3.7c2.9,3.5,2.8,5.4,5.8,8.3c5.6,5.4,7.1,10.6,15.5,13
	c8.9,2.5,13.5,5.8,16.7,13.2c12.9,4,2.8,3.6,8.9,9.4c3.3,3.2,4.2,2.7,8.8,2.4c1.7,14.5,7.9,14.3,1.4,29.1c-2.4,5.5-5.2,3.2-1.3,9.4
	c2.8-1.1,7.2-6.4,9.2-8.6c4.5-5.2,0.7-3.2,3-7.1c1.4-2.3,3.1-2.2,5.9-3.6c1.1-13.3,0.4-7.9-7.3-13c0.7-4,0.6-3.3,2-6.8l3.7-6.6
	c4.8,0.1,2.6,2.7,12.1,3.3c1.5,5.1,0.8,5.2,5.3,7.9l4.5-4.5c-3.9-8.2-8.8-9-15.6-13.4c-5.8-3.7-11.2-7.5-19.2-10.4
	c0.8-4.3,1.8-4.8,3-7.8c-13.7-3.7-11.4,3-22.1-8.9c-5-5.6-8.7-11.1-9.2-22.2c-5.6-1.4-8.8-4.3-12.7-8.5c-4.5-4.8-3.9-11.2-0.2-16
	c-1.9-3.7-2.2-3.4-2.4-8.4c4.3-4,12.2-6.7,19.3-5.2c-0.2,0.4-1.2,1.7-1.3,2l0.1,2.3c3.9,0.9,7.2-0.2,10.2-1.9l8,2.7
	c2.9-5.8,5.7-6.5,7-12.8c7.4-2,3.7-0.9,9.1-4.6c29.7,24.4,20.9,3.4,46.9,6.3c1.8,2.5,3.7,4.1,4.6,5.4c2.1,3,1,4.7,4,7.3
	c3.6,3.2,5.2,0.8,6.3,4c0.1,0.3-0.4,3.5,0.8,5.9c4.5,2.5,5.1,1,7.7,5.2l5.7-3.4c-1,7.8,0.7,4.2,0.8,8.5c0.1,4.6-2.1,4.2-1.3,11.3
	c2.4,2.2,4.4,3.1,6.9,5.6c-2.9,7.9-4.9,1.7-5.1,13.2c-0.3,12.9,4.6,3.3,7,12.4c2.8,10.8-8.5,12.3-24,17.6c-0.6,4.8-2.3,7.8-5.2,11.8
	l-7,10.4c5.6,8.9,5.9,6.5,12.9,11.4c-6.8,2.5-3.9-2.4-6.7,4.3l5.3,0.9c4,2.8,1.4,2,3.9,3.6c3.2,2,2.2,0,6.3,2.6l-6.5,8.5
	c3.3,2.6,5.3,4.8,8.1,6.5c-1.1,6.2-1.4,5.3,0.6,11.1c4.9-2.5,1.8-1.7,6.4-3.3l2.4,5.8c1.1,2.2,0.6,1.1,1.8,2.3l2.5-5.1
	c5.6,2.8,1.2,3.1,6.8,3.4c-0.8-1.7-5-14.9-5.5-17c4.6,2.5,4.1,4,9.1,2c-0.7-3.6-4.9-6-5.7-8.7c6.1-1.3,9.4-0.7,13.9,2.4
	c1.7-3.7,0.6-4.5-0.6-10c-17.8-1.5-1.3-0.8-18.4-7.1c0-0.3,0-1,0.1-0.8l1.2-3.2c0.9-3.8-0.8-0.9,0.5-5.1c1.5-0.7-0.7-1.4,2.2-0.5
	c0,0,2,1.4,2.1,1.4c-0.4-7.4-3.7-4.4-7.3-10.5c-3.2-5.3-1.6-10.5,0.1-14.8c3.1,3.4,4.2,8.8,13.7,5c1.5-4.2,0-1.6,0.3-6.6
	c4-2.4,8.8-4.6,14.5-5.7c6.6-1.3,10.7,2.3,17.1,1.6l4.4-14.7l-3.9-3.8c10.3-9.6,7-3.1,19.4-6c-1-6.6-3.5-4.5-7.7-8.2
	c7.1-7.2,6-3.3,6.3-16.2l7.3-2.1c-0.4-10.2,1.1-17.8,0.4-26.9c6.1,3.2,11.5,1.9,9.4-5.7c-1.9-6.9-9.6-0.1-17.5-0.1
	c-8.9-14.1-0.2-18.6-6.7-28.2c-1.4-2.1-5.7-5.8-8.9-9.7c-4.4-5.2-3.1-7.8-9.3-11L460,392.1c-0.4-0.1-1-0.7-1.1-0.4
	c-0.2,0.3-0.8-0.3-1.1-0.4c-9.8-4.8-5,0.6-18.4-2c-5.7-1.1-12-2.6-16-7.5c2.5-10.2,3.1-9.3,6.8-11.4c-0.4-8.7-1.6-7.6,2.5-14.6
	c5-8.5,6.2-6.4,10.9-11c-0.7-9-0.1-7.7-2.2-8.5l-1.6-3.7l-2.5-0.4l-0.6-5.8L436,327l1.5-9.2l-6.2-5.3c2.3-5.8,1.4-3.6,7.3-5.9l0.2-4
	l-1.5-6.3l-1.1-3.3l-3.1-8.7c5.6-1.6,8.5-0.2,11.7-3.1c5.5-4.9-0.2-6.2,9.9-3.1c-2.9-10.8-1.1-14.4,8.1-18.6l-2.9-5.9
	c3.2-6.3,3.2-6.5,11.5-7.2c1.1-4,2.2-4.3,4.2-6.6c-1.7-13.9-7.1-4.1-6.7-20.8l-5.1-3.2c1.4-2.6,1.3-2.2,2-3.4l-3.8-18.4
	c2.6-3.5,4.5-5.5,4.3-10.6c-24.3-1.6-14.9-3.2-38.9,7.5c-0.4,4.5-0.7,11.8,3.6,14.8l4.8,2.4c0.4,12.5,1.6,11.4-2.3,21.6
	c-12.3-0.3-7.6-5-16.2-10.8l-7.4,3.1c-3.5,13.7-4.9,11.7-5.6,16c-1.2,7,1.9,13,1.4,21.9c5.3,2.7,5.9,5.2,11.7,6.3
	c6.8,1.3,8.6,2.5,4.1,10.4c-5.3,2.5-13.4,2.1-19.9,1.5c-11.6-1.1-11.7,1.8-20.2,1.6l-3.7-8.4c-13.4,2.5-11.5,3.9-17.2,6.9
	c-5.4,2.9-14,4.2-19.2,6.3l-1.8,8.4c-6-1.3-8-6-9.3-11.8c-6.2-1.8-5-2.5-9.7-4.5c-7.6,1.3-11.7,6.6-19.6,5.3c1.9-7,4.6-7-7.4-8.2
	c-2.4-19.2-5.5-13.8,2.7-25.6c1.2-1.7,1.6-3.4,3.6-5c3.7-3,0.7,1.9,4.5-3.5c-0.8-1.4-0.1-0.6-1.5-2.1l-2.4-2.1
	c-0.4-10.2,5.3-10.9,1.4-17.6c-6.5-0.2-3.8,0.8-7.4,4.2c-4.8,4.5-18.1,0.8-16.5,23.4c0.3,4.1,1.6,6.9,2.1,10.3l-0.8,20.8
	c-1,3.8-2.3,6.9-4.1,9.8l-4.5-1.2c-1.8-3.9-6.5-1.9-11.4-1.6L246.8,285.3L246.8,285.3z M379.6,217.1c-4.3,5.2-4.4,8.4-2.8,14.9
	c5.2,0.3,5-0.6,6.1-5.5c1.3-5.5,2.5-7,3.2-10.9L379.6,217.1L379.6,217.1z M134.9,315.1l5.2-2.8L134.9,315.1L134.9,315.1z
	 M140.2,312.3l0.9-0.5l9.2,3.3l5.7,0L140.2,312.3L140.2,312.3z M161.7,316.9l2.7-0.5l-0.1,0.9l6.8-0.1c5.6,3,7.6,2.7,14.4,1.6
	l0.3-0.7L161.7,316.9L161.7,316.9z M191.6,304.8c0.1-0.3,0.3-1.1,0.3-0.9c0.1,0.2,0.3-0.7,0.4-0.9c0.2-0.2,1.7-2.3,1.9-2.4
	c0.3-0.3,1.3-1.1,1.5-1.3c2-1.2,0.6-0.4,2.7-1.5c0.1-0.3,0.3-1.2,0.4-1c0,0.1,3.2-4.6,2.1-11.3c-8.3-4.1-9-1.9-15.8-2.8l2.6-4.4
	c5.6-7.8-2-22.9-5.1-28.6c-1.6-2.9-0.9,0.4-2-5.5c-2.5-12.4,0.7-5-4.1-21c-4.3-1.2-5.7-0.6-8.6-3.6c5.9-6.1,0.2,2.7,8.1-8.2
	c2.6-3.7,0-0.1,2.8-3c10-10,9.3-6.4,9.5-13c-5.2-4.1-13.6-4.3-21-4.1c5.9-11.3,13-7.9,15.4-15.7c-5.5-2.6-11.9-1.8-18-4.1l-9.4,9.1
	c-3.6,3.3-3.4,9.7-4.4,13.9c-5.1,5.3-6.1,3-9.4,9.5l4.7,4.3c-2.4,2.4-7.8,11.8-0.2,12.8c0.3,0,3.7-0.2,4.2-0.2
	c-0.7,7.2-12.5,17,0,17.5c3,0.1,4.3-1,8.3-1.1c-0.6,9.3-4.9,3.8,0.7,15.1l-4.4,12.9c-5.6-1.1-8.4-1.1-13.1-3.7l-4.6,7.8
	c0.2,0.3,0.7,0.3,0.8,0.8c0.1,0.5,2.6,2.5,2.3,4.9c-4.3,9.3-8.7,2.9-15.2,9.6c2.2,9.9-2.1,0.6,12.6,8.8c3.8,2.1,1.6,1.1,5.6,3.6
	l8.8-2.8l0,3.6c-5.2,1-4,0.1-7.4,3.8c-5.2-0.5-2-0.8-7.2-0.5l-2.7-2l-24.5,14.3c0.5,0.3-0.5,2.5,7.1,1.5c2.2-0.3,5.5-1.5,8.7-1.9
	c5.7,3.3,1.4,3.2,8.5,3.6l0.5-1.7L191.6,304.8L191.6,304.8z M315.3,248.3l-9.6,0.1c-0.9,5.9,0.5,12.1,5.7,13.4
	c8.8,2.2,6.8-4.4,6.6-10.3c1.6-2.5,1.4-0.9,0.9-4.5L315.3,248.3L315.3,248.3z M447.2,167.1c8-2.6,14.2-3.7,19.5-10.5
	c3.8-4.9,7.9-13.4,10-19.4c1-1.3,5.5-12.7,5.6-14.3c0.4-9.3-5.2-7.7-10.2-11.9c-2.3-11.2,2.6-12.3-5.5-18.8
	c-11.9-9.7-2.5-15.4-5.1-27.4c-1.5-6.7-2.3-4.5-4.9-8.1c-4.7-6.3-0.4-14.1-2.6-23.3l-8.9-6.4c-3.4-13.4-1.1-10.3,0.7-20.6
	c-20.9-20.2-19.3,12.5-25.6,18.7l-17.1-1.9c-3-4-2.9-4.9-7.1-6.8c-3.9,2.3-5.3,4-6.5,7.2c-3.7,10.1,1,3.9-10.6,5.5
	c-1.5,2.3-2.1,5.4-3.2,6.7c-4,4.6-2.9-0.2-7.5,3.9c-4.4,4-6.2,10-6.2,17c-7,4.8-2,7.9-12.8,12.3c1.4,20.8-5.8,20.1-6.8,25.6
	c-0.4,2.5,0.8,6.4,0.4,10.7l-10.2,1.7c-3.8,7.7-7.2,10.9-5.8,22.5c0.7,5.7-0.7,8-0.2,13.1c0.6,6,3.1,4.4,4.1,11.5l-4.8,5.4
	c0.5,4.5,3.3,7-2.4,17.3c-9.4,17-1.1,7.9-5.8,17.1l-5.9-0.5c-0.4,15.6,2.4,11.1,4.7,21.9c0.9,4,0.2,6.9,1.7,10.8
	c4.6,11.8,5.2-6.7,6.8,30.2c2.5,1.9,4.7,3.3,9.8,3.8c3.1-4.9,3.3-11.4,6.3-13c7.7-1.4,9.6,1.6,14-5.9c3.2-5.4,4.4-11,5.5-17.4
	c4.5-25.9,0.5-16.5,17.8-28.9c1-6.3-0.2-5,2.2-10.8c6.8-16.6-9.7-10.4-13.8-21.2c-1.3-5.4,3-18.9,4.7-24.7c2.3-7.6,2.6-4.5,5.8-9.9
	c7.4-12.4,20-18.7,22.7-27.1c1.5-4.7,0.4-9.6,1.9-13.6c2.6-6.9,2.7,0.5,4.9-8.9c0.3-0.1,0.8-0.7,0.9-0.4l2.5-0.7
	c11.9-4.8,20.1,2.4,19.2,8.3l-19.1,28.7c-1.2,1.7-12.7,8.2-10.1,23.7c2.4,14.2,5.6-6.9,2.4,30.2c6.2,1.9,5.7,0.9,9.6,4.7
	c3,2.9-0.3,0.7,4.2,3c2.2,1.1,2.5,1.3,4.9,2.4C428.4,175.6,442.7,172.3,447.2,167.1L447.2,167.1z M456.8,608.8
	c-1.2,1.8-3.2-3.4-0.8,5.7c4.4,0.4,6.6-0.3,11.1,0.4c8,1.2,6.1,3.7,19.9,1.3c8.4-1.4,6.9-3.3,7.9-5.6c-2.9-1,3.8-2.1-3.9-0.4
	c-3.1,0.7-1.8,1.2-4.2,1.4c-3.6,0.3-3.7-1.4-8.4-1.8c-3.4-0.3-7.8,0-11.3-0.1C459.5,609.5,460.9,607.5,456.8,608.8L456.8,608.8z
	 M583.5,602.1c2.1,12.7,17.7,3.4,22.2-3.7c2.1-3.3,0.1-2.1,3.4-6.4c2.8-3.5,2.4-2.1,4.5-5.9c-9.8,4-8.6,6.2-18.9,9.8L583.5,602.1
	L583.5,602.1z M251.7,483c-1.1,9.2-1.1,15.2,5,18.4c4.3-2.4,2.5-1.4,4.7-5.4c1.5-2.7,2.7-4.2,3-6.6c0.1-0.8,0.1-14.9,0-15.5
	c-0.4,0.3-0.9,0.2-1.1,0.8C263,476.5,254.7,479.8,251.7,483L251.7,483z M298.3,565.7l0.2,7.3c7.9,3.9,3.8-1.1,14.1,7.3
	c6.1,5,6.3,0.4,11.1,5.9c0.3,0.3,1,1.5,1.2,1.8l9.5-0.2c2.6-9.2-0.4-6.9-0.5-12.8c-0.1-3.6,3-7.7,4.3-11.7
	c-8.3,0.8-5.6,2.4-16.1,2.8C295.7,567,315.4,560.2,298.3,565.7L298.3,565.7z M243.5,510.7c-0.9,6.8,3.6,8.7,1.3,19.7
	c-1.7,7.8-7.3,14.8,5.3,14.6c3.6-3.1,1.1-0.2,2.4-4.5l6.8,0.8c2.6-10.3,6.2-25.8,1.7-35.5C256.5,505,248.3,508.7,243.5,510.7
	L243.5,510.7z M107.9,224l2,5.2c-7.4,2.5-4,2.3-17.9-2.9c-5.2,3.8-3.4,3.4-2,9l-3.7,3.9c3.3,7.8,2.9,3,7.7,8.4
	c-3.4,2.8-5.4,3.7-9.1,6.4c-7.7,5.7-2.3,5.2-9.5,4.8c0.5,3.4-4.8-5.1,1.3,2.8c0.1,0.1,0.5,0.5,0.7,0.7l-4.3,2.8
	c1.9,2.7,0.5-0.5,1.1,2.6c0.2,1-1.2,1,3.4,8.8c6.2,0.3,14-0.2,19.7-1.5c13-3.1,5.5-2.1,17.2-0.1c14.8-20.8,7.6-12.6,12.3-30
	c9-4.7,9.9-9.1,7-20.4c-4.9-2.6-3.4-0.5-7.9-5.9C106,217.2,118.6,217.4,107.9,224L107.9,224z M156.1,315.1l5.6,1.7l-0.3-16.4
	l-3.4,8.7l-14.3-1.3C146.3,314.6,153.6,308.1,156.1,315.1L156.1,315.1z M202,157c8.1-1,1.9,1.8,9.4-9.7l-6.2-1.7L202,157L202,157z
	 M142.7,178.8l1.6,0.4c4.8-0.8,8.2-4.9,9.9-9.2c-4-0.1-10.6,0.3-12.1,4.9C140.5,180.1,142.7,178.8,142.7,178.8L142.7,178.8z
	 M295.2,264.7c5.3,1.1,7.9,1.5,8.1-3.6c0.3-7-2.3-6.5-8.1-6L295.2,264.7L295.2,264.7z M410.5,206.9l1.5,3.9l10.4-2.8l1.4-5.2
	c-1.8-0.8-1.6-1.7-7.7,0C411.1,204.2,412.6,203.4,410.5,206.9L410.5,206.9z M466.7,562.9c-1.4-8.5-1.7-3.9-7.9-9.2
	c-5-4.3-3.7-5.5-12.4-4.2c1.7,3.8,4.5,4.7,8.7,6.5C462.4,559.2,459.8,559.8,466.7,562.9L466.7,562.9z M482.3,541.1
	c0.1,3.3,3.9,4.1,8.6,5.3l0.1-6.4c-1.8-0.4-1.6-1.1-4.1-0.9C480.8,539.6,484.1,539.7,482.3,541.1L482.3,541.1z M147.1,192.5
	c3.2-2.7,2.3,0,2.4-4.6c0-2.6,0.1-3.1-0.7-5.2C142.6,185.3,143.9,188.1,147.1,192.5L147.1,192.5z M415.3,575.4
	c-1.8-5.7,0.8-2.9-3.6-4C409.4,576.4,411.2,574.7,415.3,575.4L415.3,575.4z M182.1,172c3.2-1,6.7-0.4,3.3-5.7
	C181.5,168.4,182.8,164.9,182.1,172L182.1,172z M408.1,562.8c2.2,2.8,0.1,2.1,4.6,3.4c0.7-2.3,1.5-2.3-0.7-5.9
	C405.1,559.7,411.8,560.9,408.1,562.8L408.1,562.8z M134.4,189.7c4.6-2,5.2-5.4,6.2-9.7c-3.5,2-1.7,0-3.8,3.8
	C135.4,186.1,135.2,186.7,134.4,189.7L134.4,189.7z M418.6,199.4c1.8-3.1,1.4,0.6,1.3-2.8c0-2.7-0.4-1.8-1-3.3
	C412,195.4,413.8,197.5,418.6,199.4L418.6,199.4z M485.6,559.4c3.4-3.2,2.1-0.7,3.3-6.1c-4.1,0.7-3.9-1.3-5.5,2.6
	C482.3,558.7,485.5,559.3,485.6,559.4L485.6,559.4z M137.4,217.7c2.6-3.8,1.8-4.7-0.2-7.2C132.8,212.6,132.1,216,137.4,217.7
	L137.4,217.7z M389.9,174c0.1,3.4,0.5,3.3,5.2,4.9l0.8-5.6C393,172.7,393,172.3,389.9,174L389.9,174z M515.2,596.5
	c4-2.3,4.5-3,6.3-8.2C514.4,589.4,513.2,589.7,515.2,596.5L515.2,596.5z M185.8,318.1c3-1.4,4.6-2.5,6.4-4l0.4-1.5l-1-7.7h-1.8
	l-5.5,2.1c-4.8-2.1-0.5-0.8-2.8,2.2l5,0.6L185.8,318.1L185.8,318.1z M317.6,266.4l-12.8-0.1C309.1,274.9,313.1,272,317.6,266.4
	L317.6,266.4z M358.9,243.8c4.5-1.5,3.3,0.4,6.3-12.4l0.4-1.9c0-2.4-0.5-1.6-0.8-2.3C361.2,230.9,358.7,237.9,358.9,243.8
	L358.9,243.8z"/>
<polygon class="st1" points="284.9,300.8 286.9,307.4 293.7,307.4 288.2,311.4 290.3,317.9 284.9,313.9 279.4,317.9 281.5,311.4 
	276,307.4 282.8,307.4 284.9,300.8 "/>
<polygon class="st1" points="311.9,307.8 314,314.4 320.8,314.4 315.3,318.4 317.4,325 311.9,320.9 306.4,325 308.5,318.4 
	303.1,314.4 309.8,314.4 311.9,307.8 "/>
<polygon class="st1" points="332.4,327.6 334.5,334.1 341.3,334.1 335.8,338.2 337.9,344.7 332.4,340.7 326.9,344.7 329,338.2 
	323.5,334.1 330.3,334.1 332.4,327.6 "/>
<polygon class="st1" points="340.4,354.5 342.5,361 349.2,361 343.8,365.1 345.9,371.6 340.4,367.6 334.9,371.6 337,365.1 
	331.5,361 338.3,361 340.4,354.5 "/>
<polygon class="st1" points="334.1,382.1 336.2,388.7 342.9,388.7 337.4,392.7 339.6,399.3 334.1,395.2 328.6,399.3 330.7,392.7 
	325.2,388.7 332,388.7 334.1,382.1 "/>
<polygon class="st1" points="314.1,403.6 316.2,410.1 323,410.1 317.5,414.2 319.6,420.7 314.1,416.6 308.7,420.7 310.8,414.2 
	305.3,410.1 312.1,410.1 314.1,403.6 "/>
<polygon class="st1" points="285.4,411.9 287.5,418.5 294.3,418.4 288.8,422.5 290.9,429 285.4,425 280,429 282.1,422.5 
	276.6,418.4 283.4,418.5 285.4,411.9 "/>
<polygon class="st1" points="256.9,404.4 259,410.9 265.8,410.9 260.3,415 262.4,421.5 256.9,417.4 251.4,421.5 253.5,415 
	248,410.9 254.8,410.9 256.9,404.4 "/>
<polygon class="st1" points="235.8,382.3 237.8,388.9 244.6,388.9 239.1,392.9 241.2,399.5 235.8,395.4 230.3,399.5 232.4,392.9 
	226.9,388.9 233.7,388.9 235.8,382.3 "/>
<polygon class="st1" points="229.3,355 231.4,361.6 238.2,361.6 232.7,365.6 234.8,372.2 229.3,368.1 223.9,372.2 226,365.6 
	220.5,361.6 227.2,361.6 229.3,355 "/>
<polygon class="st1" points="237.2,327.8 239.3,334.4 246.1,334.3 240.6,338.4 242.7,344.9 237.2,340.9 231.7,344.9 233.8,338.4 
	228.3,334.3 235.1,334.4 237.2,327.8 "/>
<polygon class="st1" points="256.8,308.4 258.9,315 265.7,315 260.2,319 262.3,325.5 256.8,321.5 251.3,325.5 253.4,319 247.9,315 
	254.7,315 256.8,308.4 "/>
</svg>
