<!-- Generator: Adobe Illustrator 22.1.0, SVG Export Plug-In  -->
<svg version="1.1"
	 xmlns="http://www.w3.org/2000/svg" xmlns:xlink="http://www.w3.org/1999/xlink" xmlns:a="http://ns.adobe.com/AdobeSVGViewerExtensions/3.0/"
	 x="0px" y="0px" width="1898.8px" height="184.1px" viewBox="0 0 1898.8 184.1" style="enable-background:new 0 0 1898.8 184.1;"
	 xml:space="preserve">
<style type="text/css">
	.st0{fill:#312D2A;}
</style>
<defs>
</defs>
<path class="st0" d="M1890.2,128.6l-3.7-9l-6.4,10.9l-6.7-11.6l-2.6,5.2l-2.2-4.5l-7.1,12V84.4l-1.9-10.1l-1.9,10.1l-2.2-1.8
	L1848.2,0l-9,82.5h-2.2l-1.9-7.2v7.2h-1.9v26.6h-6v-4.5l-1.9-6l-1.5,6v7.1l-4.1,6l-4.1,0.7l-6.7,9.7h-3v-22.9l-2.6,18.7l-4.5,0.4
	l-5.2,5.6l-7.5-4.9l-21-0.7l-3,3l-3-1.5v-5.2l-3,4.9h-2.6l-1.1-19.1l-2.6,18.4l-9-0.4l-0.8-3.7h-3.4v5.2h-4.1l-7.9,2.2h-4.9
	l-0.7,3.4l-3.7-0.7l-6.7-21l-11.2-7.1v-3.4H1687v3.4l-12,6.4v4.1l-28.1-2.6l0.4-4.1l-9-1.9l-15.4,2.2l-0.4-2.6l-7.5,0.4l-0.4,4.1
	l-15.7-1.1V92.1h-3.7v-2.9h2.4l-4-4.4v-5.1h3.3l-5.8-20.1l-7.6,19.7h3.1v5.6l-4.2,4.2h3.9v3h-3.7v4.9h-8.6l-0.1-6.6l-1.8,0.1v6.9
	l-6,8.2l-21.9,0.3l-7.6-5.1l-6.3,4.6h-2.1v-2.7h-2.5l-4.5,3.5h-5.5v-2.4h-1.8l-2.8,2.2h-1.7l-1.3-1.8l-1.8,2h-4.5l-1.4-2h-6.5v2.8
	h-28.3l-6.5,2.1V89.1h-3.8v21h-11.1v-18l-3.8-3l-7.6,6v-8l-4.2-4.2V71.6h-1.6v10.9l-4.5,4.5v7.2l-6.2-2.2l-3,2.9v11.2h-2.8v3.9h-2.4
	v-2.4h-2.1v3l-3.5,2.2l-11.4-0.4l-5.1-2.5l-4.6,2.8l-3.5,0.1l-6.6-2.7l-3.9,3.4l-4.2,0.1V94.5l-7.1-7.1V70.8l-0.9-0.9v-9.3l-1.9-1.9
	l-1-15.7l-1.5,15.4l-1.9,2.4v9l-2.4,2.4l0.2,13.9l-6.7,9.6v23.1l-12.9,1.5l-6.6-10.3l-9.2,11.8h-2.2l-5.2-23.2h-11.1v5.1l-13.3,18
	l-2.1-2.4l-5.2-0.4l-3.4,7.1l-2.2,0.2l0.4-13.7l-9.6-10.9l-10.7,11.8l0,2.4h-5.7v3.9h2.1v5.4h-4.3v-4.3h-2.6v4.3h-3v-6h-6.7v4.5
	h-4.9v-9h-3v6.2h-4.9v-1.7h-8.8v7.9h-6.4v-3.2h-5.8v3.7h-5.6v-19.9h-3.4v14.8h-6.7v-3.2h-6.9v4.3l-3,3h-5.4v-4.3h-3.6v-4.9h-6
	l-3.3,3.3v5.5h-4.6v-3.7h-5.4v7.1h-1.9v-4.1h-7.9v-5.8l-5.6,4.5v-8.2h-5.6v5.2h0.9v3h-4.3V117l-3.4,3.4v3.9h-3.6v3.4l-8.8,4.1
	l-22.9-0.8l-2.2-4.9l-0.6-14.8l-2.2-7.1l-0.7-12.2l-1.1,12l-2.8,7.7v13.9h-2.6l-1.5-6l-1.5,5.6l-3.2,0.2v-14.1l-2.4-5.8l-0.6-15
	l-1.7,15l-2.8,6.4v13.9h-8.6v-3.7h-4.1l-1.9-19.9l-2.1,19.7l-2.6,0.6v10.9h-4.1v-13.1l-33.2,1.7l0.4-5.2l-2.8-0.6v3.9l-2.2,2.2
	l-2.6-0.6V82.5h-7.3v-4.7H959v3.9h-6.6v-3.6h-22.1v1.5h1.7v2.9h-8.4v37.3h-2.6v-3.9l-1.1,4.1h-1.3l0.2,3.6l-11.8-6.2l-20.1,9.4h-3.6
	v-4.7h-3.4v3l-17.1,0.4l-5.4-3.2l-3.4,2.1l-9.9-0.2l-0.4-2.8h-30.9l-4.9-1.9l-1.9,2.1h-15.6l-3.2,2.4l-4.5-1.1v-4.9l-5.8-2.6l-6.9,3
	v5.6h-7.7l-3.7,1.9v3.4l-3.7-0.7v-12.4h2.8v-4.3h-8.4v4.7h2.6v8.2l-6.4,0.6l-0.2-2.4l-10.1-0.4l-4.7,3.2l-0.4,2.4l-13.5-0.4
	l-0.4-6.4h-39.6v7.1h-3.6l-0.8-7.7l2.2-3l-2.4-4.7l-23.1,0.2l0.6-30.7h-3v30.9l-1.9-0.4V72.6l-4.5,6.4v3.6h1.3v30.5h-4.1l0.2,3.6
	l-13.5-1.5v7.1h5.6v2.1h-5.1v1.7h4.9v2.8h-5.1v7.1h-12.7V70.7h-22.9v-1.5h-3.2l-0.8,0.8h-13v46.2h-3.6v1.7h-3.7v8.8h-3v-2.2
	l-11.1-0.4v2.6l-3.6-0.6l-0.2-2.6h-3.4l-1.7,1.7v3l-3.7-0.6l-0.2-2.4l-6.4-0.2l-2.1,3h-9V82.5h-7.3v-6.8l-9.9-0.2l-0.6-4.7l-2.2-0.7
	l-0.4-5.1h-3.2l-0.2,6.7l-3.7-0.6l-0.4-5.1l-2.8-0.2v-2.1h-13.3v-3.2h2.2V42.2h-6.4v18.2h2.8v3.4H471v7.9l-6.4-0.4v56.4l-1.5-0.7
	l-0.9-1.9l-5.4-0.8H455l0.2,2.4l-2.8-0.6v-2.1h-1.3l-0.7,2.6h-2.8v3.4l-10.1,0.6l-0.9,1.3h-1.9l0.4-2.1l1.1-1.1l-0.9-2.1l-1.9,0.2
	l-2.1-77.8l-3.2-0.2l-10.3,4.1l-1.5,6.6l-1.9,10.3l-5.8,22.1l0.4-23.2l-1.3-1.1l-0.6,1.1l-0.2,25.5l-20.2,18.4l-5.6-0.6l-0.4-3.7
	h-3.4l-0.2-2.2l-23.8,0.6l-1.3,1.9l0.2,5.2l-5.1-0.8l-0.2,6.4l-1.9,0.4l0.4,9.9l-4.3-1.7l-3.7-0.7l-6.9,0.4v-17.4h-11.2l-2.8,1.7
	V26.8l-4.7-0.4l0.2-3.4l-6.9,0.4l-0.6-2.1h-6.9l-0.4,1.1l-2.2,0.4v-1.7h-2.2l-0.6,1.5l-3.4,0.4v4.9l-6.4-0.4v64.5h-6.6l-2.1-1.5
	l0.8-62.4l-9.7,0.2l0.2-4.3l-7.5-0.6l-0.7-2.2l2.2,0.2l0.6-3.7l-4.3-1.9l-4.5,2.2l-0.7,2.6l4.7,0.6l-0.2,1.9l-14.8-0.9l-3.9,6.9
	l0.9,86.4l-2.2,3.2l-17.8-0.7l-0.9,4.5l-2.2,1.1l-1.5-3.4l-0.9-28.1l-3,30.4l-1.9,1.7l-0.2,3.9l-2.4-0.4l0.2-11.4h-2.8l0.2-1.9
	l3.2-0.2l-0.2-18h-1.5V80.1l-1.5-0.4l0.2-15.2l-3.9,0.4l0.2,3l-3.7,0.4l0.4-3.6l-23.6,0.8v2.8l-4.7-0.2l0.2-2.8l-3-0.2l0.4,15.7
	l-2.4-0.2l0.7,15.4l-1.9,0.4l0.2,3.4l-1.9-0.8l-0.2-2.4l-3.6-0.4v6l-2.4-0.4l-0.2-6.4h-2.1l-3,1.5v3.2l2.2-0.2l-0.2,1.9l-11.2-0.7
	l0.6,29.6l-4.3,4.3l-0.6-7.1l1.9-1.9l0.2-2.2l-2.1-0.2l-0.2-3.6h-18.2l-0.2-7.3l-1.7,0.4l0.2,7.3H86.1l0.2-2.8l-8.8,2.2l-6,0.4v10.1
	l-18.7-0.7l-0.8,1.1l-2.1-0.2l-0.8-1.7l-6.6-0.2l-16.7-0.4L0,129.4v54.7l1898.8-1.1v-69.4L1890.2,128.6z M241.4,96.6h-3.2l-0.8-65.5
	l2-1.9h2.1V96.6z M247.5,97.6h-3.4V60h3.4V97.6z M247.5,56.6h-3.4V29.2h3.4V56.6z M417.9,68.1h-2l2-11.4V68.1z M429.4,70.6h-6.5
	l-0.5-3.9l-3.1-0.3V54.7l8.4-3.4h1.8V70.6z M658.9,127.8l-2.6,0.3v3.7h-16.7v-3.5l-6-0.4v-1.5h25.3V127.8z M658.9,123.9h-25.3v-1.5
	h25.3V123.9z M1244.3,125.2v-5.8l2.2-0.4l0.1,6.2H1244.3z M1348.4,81.4h-1.4v-4.3h1.4V81.4z M1349.7,64.8h4.3v3.7h-4.3V64.8z
	 M1350.7,81h-1v-3.9h1V81z M1352.8,81h-1.2v-3.9h1.2V81z M1355.2,81h-1.2v-3.9h1.2V81z"/>
</svg>
