<?xml version="1.0" encoding="utf-8"?>
<!-- Generator: Adobe Illustrator 19.1.0, SVG Export Plug-In . SVG Version: 6.00 Build 0)  -->
<svg version="1.1" id="Layer_1" xmlns="http://www.w3.org/2000/svg" xmlns:xlink="http://www.w3.org/1999/xlink" x="0px" y="0px"
	 viewBox="-119 375 121 44" style="enable-background:new -119 375 121 44;" xml:space="preserve">
<style type="text/css">
	.st0{fill:#9C9996;}
</style>
<rect x="-103.7" y="382.7" class="st0" width="3.4" height="3.5"/>
<path class="st0" d="M-98.9,391.1h-1.1l-1.5,8.2h4.2L-98.9,391.1z M-96.1,407.2l-0.8-4.4h-5.2l-0.8,4.4h-5.6l3.8-17.3
	c0.4-2,1-2.3,3.3-2.3h4c2.3,0,2.7,0.2,3.2,2.3l3.8,17.3H-96.1z"/>
<rect x="-98.6" y="382.7" class="st0" width="3.4" height="3.5"/>
<rect x="-53" y="387.7" class="st0" width="3.4" height="3.5"/>
<rect x="-47.9" y="387.7" class="st0" width="3.4" height="3.5"/>
<path class="st0" d="M-84,396.1v11.1h-5.1v-10.9c0-2.1,1-3.5,3.5-3.5h6.3v3.3C-79.3,396.1-84,396.1-84,396.1z"/>
<path class="st0" d="M-78.5,392.8h5.1v14.4h-5.1V392.8z M-78.5,387.9h5.1v3.6h-5.1V387.9z"/>
<path class="st0" d="M-62.7,396.1h-3.9v7.9h3.9V396.1z M-61.1,407.2h-5.4v5.2h-5v-19.6H-61c2.5,0,3.5,1.3,3.5,3.5v7.3
	C-57.6,406-58.6,407.2-61.1,407.2"/>
<path class="st0" d="M-47.1,401.2h-4.1v2.9h4.1V401.2z M-44.4,407.2c0,0-3.5,0.1-4.2,0.1s-4.1-0.1-4.1-0.1c-2.2,0-3.5-1.1-3.5-3.5
	v-1.9c0-3,1.9-3.5,3.5-3.5h5.4V396H-55v-3.1h9.3c2.9,0,3.5,1.7,3.5,3.5v7.8C-42.1,406.5-42.8,407.2-44.4,407.2"/>
<path class="st0" d="M-31.9,395.9h-3.6v3.3h3.6V395.9z M-35.4,401.1v2.7h8v3.5H-37c-2.9,0-3.5-1.9-3.5-3.5v-7.2
	c0-2.3,1.1-3.6,3.5-3.7c0,0,2.7-0.1,3.5-0.1s3.4,0.1,3.4,0.1c2.4,0,3.4,1.2,3.4,3.5v4.7C-26.7,401.1-35.4,401.1-35.4,401.1z"/>
<polygon class="st0" points="-14.5,407.2 -21.1,407.2 -25.8,392.8 -20.3,392.8 -17.8,402.7 -17.4,402.7 -14.9,392.8 -9.8,392.8 "/>
</svg>
