<!-- Generator: Adobe Illustrator 20.1.0, SVG Export Plug-In  -->
<svg version="1.1"
	 xmlns="http://www.w3.org/2000/svg" xmlns:xlink="http://www.w3.org/1999/xlink" xmlns:a="http://ns.adobe.com/AdobeSVGViewerExtensions/3.0/"
	 x="0px" y="0px" width="121.3px" height="185.3px" viewBox="0 0 121.3 185.3" style="enable-background:new 0 0 121.3 185.3;"
	 xml:space="preserve">
<style type="text/css">
	.st0{fill:#312D2A;}
	.st1{fill:#DCDBDB;}
	.st2{fill:#57897C;}
	.st3{fill:#B5CAC2;}
	.st4{opacity:0.1;fill:none;stroke:#FFFFFF;stroke-miterlimit:10;}
	.st5{fill:#85A89F;}
	.st6{fill:#FFFFFF;}
	.st7{fill:none;stroke:#57897C;stroke-miterlimit:10;}
</style>
<defs>
</defs>
<g>
	<path class="st0" d="M29.2,69.5l-15.6,34.3c-3.6,8.7-16.1,5.8-12-3.5c6.3-16.7,19-27.4,25.4-42.5c1.1-2.5,1.5-4.2,4.9-4.2l36.6-5.9
		L80,54c3.8,0,7.3,2.2,8.5,5l17.8,36.8c3.5,7.8-6.6,13.2-10.5,6L83,69.5l-0.9,111.4c0,2.4-1.4,4.4-4.6,4.4H66.3
		c-2.9,0-5.2-1.8-5.2-4v-61.5c0-1.7-1.8-3.1-4-3.1h0c-2.2,0-4,1.4-4,3.1v61c0,2.5-2.6,4.5-5.8,4.5h-12c-3.5,0-5.2-2.2-5.2-4.9
		L29.2,69.5z"/>
	<path class="st1" d="M57.1,116.7"/>
	<path class="st2" d="M29.1,106.5c-16.3,14.4-16.2,39.2-10.9,67.1h78.6c4.5-32.9,2.4-58.2-13.9-67.1H29.1z"/>
	<path class="st3" d="M105.9,104.1h-8.3c0,0-38.6,45.7,3.7,49.2S105.9,104.1,105.9,104.1z M101.4,117.6c-5.7,0.3,0-12.1,0-12.1
		S107.1,117.3,101.4,117.6z"/>
	<line class="st4" x1="16.3" y1="161.5" x2="26.1" y2="173.6"/>
	<line class="st4" x1="15.1" y1="153.9" x2="30" y2="172.3"/>
	<line class="st4" x1="16.3" y1="147.4" x2="28.1" y2="162"/>
	<line class="st4" x1="16.3" y1="139.4" x2="28.1" y2="154"/>
	<line class="st4" x1="16.3" y1="132.4" x2="27.7" y2="146.4"/>
	<line class="st4" x1="17" y1="127.2" x2="26.1" y2="138.5"/>
	<line class="st4" x1="17.9" y1="121.4" x2="27" y2="132.6"/>
	<line class="st4" x1="20.5" y1="117.6" x2="27.4" y2="126.1"/>
	<line class="st4" x1="23.4" y1="113.9" x2="27.9" y2="119.5"/>
	<line class="st4" x1="26.1" y1="110.3" x2="30.1" y2="115.2"/>
	<line class="st4" x1="29.1" y1="106.5" x2="33.4" y2="111.5"/>
	<circle class="st0" cx="101" cy="99.4" r="6.2"/>
	<g>
		<circle class="st3" cx="43.5" cy="18" r="15.6"/>
		<circle class="st3" cx="40.1" cy="31" r="15.6"/>
		<circle class="st3" cx="56.7" cy="13.3" r="13.3"/>
		<circle class="st3" cx="68.1" cy="20.5" r="14.6"/>
		<circle class="st3" cx="70" cy="41.1" r="14.6"/>
		<circle class="st3" cx="40.7" cy="46.5" r="14.6"/>
		<circle class="st3" cx="56.7" cy="43.3" r="14.6"/>
		<circle class="st0" cx="53.7" cy="29.8" r="18.8"/>
		<circle class="st3" cx="42.9" cy="16.4" r="11"/>
		<circle class="st3" cx="61.9" cy="15.4" r="11"/>
	</g>
	<path class="st5" d="M87.4,52.9c-1.4-4.2-9.6-5.2-9.6-5.2s0.8-1-9.7-1l-12.7,9.5l-13.1-9.5c-9.7,0-11.3,2-12.4,2
		c-3.1,0.1-7.2,5.3-7.2,5.3L0,97.5l16.3,5.5l12.8-30c-4,11.7-3.9,22.9,0,33.4H83c6.8-8,4.2-19.9,0-32.6l10.7,28.2l13.9-7.5
		C107.5,94.6,88.8,57.1,87.4,52.9z"/>
	<polygon class="st6" points="37,46.4 36.1,55.8 72,55.8 72,46.4 	"/>
	<polygon class="st6" points="38.6,40.9 37.8,50.2 69.7,50.2 69.7,40.9 	"/>
	<polygon class="st6" points="49,52.3 37.3,52 39.6,92.6 51.2,91.9 	"/>
	<rect x="39.6" y="91.6" class="st6" width="1.2" height="9.2"/>
	<rect x="50" y="91.6" class="st6" width="1.2" height="9.2"/>
	<rect x="41.7" y="91.6" class="st6" width="1.2" height="9.2"/>
	<rect x="43.7" y="91.6" class="st6" width="1.2" height="9.2"/>
	<rect x="45.8" y="91.6" class="st6" width="1.2" height="9.2"/>
	<rect x="47.9" y="91.6" class="st6" width="1.2" height="9.2"/>
	<line class="st7" x1="53.4" y1="56.1" x2="53.4" y2="106.5"/>
	<circle class="st7" cx="56.1" cy="62.1" r="0.9"/>
	<circle class="st7" cx="56.1" cy="73.1" r="0.9"/>
	<circle class="st7" cx="56.1" cy="85.1" r="0.9"/>
	<circle class="st7" cx="56.1" cy="96.1" r="0.9"/>
</g>
</svg>
