<!-- Generator: Adobe Illustrator 20.1.0, SVG Export Plug-In  -->
<svg version="1.1"
	 xmlns="http://www.w3.org/2000/svg" xmlns:xlink="http://www.w3.org/1999/xlink" xmlns:a="http://ns.adobe.com/AdobeSVGViewerExtensions/3.0/"
	 x="0px" y="0px" width="35px" height="18.5px" viewBox="0 0 35 18.5" style="enable-background:new 0 0 35 18.5;"
	 xml:space="preserve">
<style type="text/css">
	.st0{fill:#312D2A;}
</style>
<defs>
</defs>
<g>
	<polygon class="st0" points="1.1,1.7 5.1,17.8 30.9,17.8 33.9,1.7 28.5,7.5 26.1,1.7 21.8,7.5 18,1.7 14.3,7.5 10.3,1.7 6.9,7.5 	
		"/>
	<circle class="st0" cx="0.8" cy="0.8" r="0.8"/>
	<circle class="st0" cx="10.4" cy="0.8" r="0.8"/>
	<circle class="st0" cx="26.2" cy="0.8" r="0.8"/>
	<circle class="st0" cx="18" cy="0.8" r="0.8"/>
	<circle class="st0" cx="34.1" cy="0.8" r="0.8"/>
</g>
<path class="st0" d="M31.4,18.5H4.7c-0.6,0-1.1-0.5-1.1-1.1v0c0-0.6,0.5-1.1,1.1-1.1h26.6c0.6,0,1.1,0.5,1.1,1.1v0
	C32.4,18,31.9,18.5,31.4,18.5z"/>
</svg>
