<!-- Generator: Adobe Illustrator 20.1.0, SVG Export Plug-In  -->
<svg version="1.1"
	 xmlns="http://www.w3.org/2000/svg" xmlns:xlink="http://www.w3.org/1999/xlink" xmlns:a="http://ns.adobe.com/AdobeSVGViewerExtensions/3.0/"
	 x="0px" y="0px" width="104.3px" height="219.5px" viewBox="0 0 104.3 219.5" style="enable-background:new 0 0 104.3 219.5;"
	 xml:space="preserve">
<style type="text/css">
	.st0{fill:#312D2A;}
	.st1{fill:#DCDBDB;}
	.st2{fill:#B5CAC2;}
	.st3{fill:#85A89F;}
	.st4{fill:#57897C;}
	.st5{fill:none;stroke:#FFFFFF;stroke-miterlimit:10;}
	.st6{opacity:0.1;fill:#312D2A;}
</style>
<defs>
</defs>
<g>
	<g>
		<path class="st0" d="M29.9,73l-14.7,47c-3.2,11-18.3,6.4-14.6-5.4c5.5-21.1,14.9-44.7,20.5-63.8c0.9-3.2,3.6-5.3,6.6-5.3l36.7,0
			l14.4,0c3.4,0,6.7,2.1,7.7,5.7l17.3,63.4c3.1,9.8-10.5,14.7-13.9,5.5l-13-47.1l-0.8,141c0,3.1-1.2,5.6-4,5.6h-9.7
			c-2.5,0-4.6-2.3-4.6-5.1v-77.8c0-2.1-1.6-3.9-3.5-3.9h0c-1.9,0-3.5,1.7-3.5,3.9v77.2c0,3.1-2.3,5.7-5.1,5.7H35.3
			c-3.1,0-4.6-2.8-4.6-6.2L29.9,73z"/>
		<path class="st1" d="M54.4,123.8"/>
		<circle class="st0" cx="53" cy="18.8" r="18.8"/>
	</g>
</g>
<path class="st2" d="M30.2,114.2v99.6h22.7l0-79.2c0-2.9,3.5-2.9,3.5,0v79.2h21v-99.6H30.2z"/>
<path class="st3" d="M88.6,49.3c-1.1-3.5-4.7-5.5-8.3-5.5l-10.8,0l-3.8,9.2l-6.8-9.1l-5.6,7.9v75.6l23.5-13.5l0.2-40.8l13,47.1
	l13.9-5.5L88.6,49.3z"/>
<path class="st3" d="M29.9,73l0.2,40.7h22.1V52.7l-4.6-8.8l-6.8,9.1l-3.8-9.2h-12c-3.2,0-6.1,2.1-7.1,5.1c-6,18.5-18,67.4-18,67.4
	l16,3.9L29.9,73z"/>
<polygon class="st4" points="37.1,42.6 41.2,54.4 48.7,42.9 42.4,37.2 "/>
<polygon class="st4" points="69.8,42.6 65.6,54.4 57.9,42.8 64.3,37.2 "/>
<path class="st4" d="M58.3,25.9c-2-0.2-8.2-0.2-10.2,0c-3.4,0.3-5.7,2.6-5.7,2.6s3.1,1.9,6.5,1.6c1.7-0.1,3.2-0.5,4.3-1
	c1,0.5,2.5,0.9,4.3,1c3.4,0.3,6.5-1.6,6.5-1.6S61.7,26.2,58.3,25.9z"/>
<ellipse class="st5" cx="47" cy="18.2" rx="3.2" ry="2.5"/>
<ellipse class="st5" cx="57" cy="18.2" rx="3.2" ry="2.5"/>
<line class="st5" x1="35.2" y1="18.2" x2="43.8" y2="18.2"/>
<line class="st5" x1="60.2" y1="18.2" x2="72.4" y2="18.2"/>
<path class="st5" d="M49.9,17c1.3-0.8,2.7-0.9,4.2,0"/>
<path class="st4" d="M35.1,22.5L35.1,22.5c-1.3-0.2-2.1-1.5-1.9-2.8c-0.6-4.5,0.2-8.2,2.1-11.2c0.2-1.3,1.5-2.1,2.8-1.9l0,0
	c1.3,0.2,2.1,1.5,1.9,2.8c-2,2.7-2.9,6.4-2.1,11.2C37.6,21.9,36.3,22.7,35.1,22.5z"/>
<path class="st4" d="M71.3,22.3L71.3,22.3c1.3-0.2,2.1-1.5,1.9-2.8c0.6-4.5-0.2-8.2-2.1-11.2c-0.2-1.3-1.5-2.1-2.8-1.9l0,0
	c-1.3,0.2-2.1,1.5-1.9,2.8c2,2.7,2.9,6.4,2.1,11.2C68.8,21.7,70,22.6,71.3,22.3z"/>
<path class="st6" d="M38.5,138.6L38.5,138.6c-1.4,0-2.4,0.8-2.8,2c-0.4-1.2-1.5-2-2.8-2c-1.6,0-2.9,1.3-2.9,2.9v27.1
	c0,1.6,1.3,2.9,2.9,2.9s2.9-1.3,2.9-2.9v-9.4c0.5,0.9,1.5,1.6,2.6,1.6h0.1c1.6,0,2.9-1.3,2.9-2.9v-16.5
	C41.5,139.9,40.1,138.6,38.5,138.6z"/>
<polygon class="st0" points="26,44.1 27.4,56.1 27.4,44.1 "/>
<polygon class="st0" points="94.9,76.4 89.9,78.5 91.7,78.7 89,79.9 95.7,79.9 "/>
<polygon class="st4" points="35.2,63.1 47,63.1 47,75.4 35.8,75.4 "/>
<polygon class="st4" points="58,63.1 69.9,63.1 69.9,75.4 58.6,75.4 "/>
<path class="st6" d="M65.2,66.5H62c-2.9,0-5.2,2.4-5.2,5.2v9.6c0,2.9,2.4,5.2,5.2,5.2h3.2c0.8,0,1.6-0.2,2.3-0.5v12.4
	c0,0.8,0.7,1.5,1.5,1.5c0.8,0,1.5-0.7,1.5-1.5V81.3v-7.4v-2.2C70.4,68.8,68.1,66.5,65.2,66.5z"/>
<polygon class="st0" points="70.4,165 61.9,165 68.7,166.4 74.4,166.4 "/>
</svg>
