<!-- Generator: Adobe Illustrator 20.1.0, SVG Export Plug-In  -->
<svg version="1.1"
	 xmlns="http://www.w3.org/2000/svg" xmlns:xlink="http://www.w3.org/1999/xlink" xmlns:a="http://ns.adobe.com/AdobeSVGViewerExtensions/3.0/"
	 x="0px" y="0px" width="532.5px" height="464.5px" viewBox="0 0 532.5 464.5" style="enable-background:new 0 0 532.5 464.5;"
	 xml:space="preserve">
<style type="text/css">
	.st0{fill:#312D2A;}
</style>
<defs>
</defs>
<g>
	<rect x="69.5" y="152.5" class="st0" width="46.7" height="200"/>
	<rect x="187.5" y="152.5" class="st0" width="46.7" height="200"/>
	<rect x="305.4" y="152.5" class="st0" width="46.7" height="200"/>
	<rect x="423.4" y="152.5" class="st0" width="46.7" height="200"/>
	<path class="st0" d="M266.5,0.8L36.6,110.1c-7.6,3.6-5,14.7,3.5,14.7h459.8c8.5,0,11.1-11.1,3.5-14.7L273.5,0.8
		C271.3-0.3,268.7-0.3,266.5,0.8z"/>
	<path class="st0" d="M480.9,411H51.6c-10.8,0-19.5-8.7-19.5-19.5v0c0-10.8,8.7-19.5,19.5-19.5h429.3c10.8,0,19.5,8.7,19.5,19.5v0
		C500.4,402.2,491.7,411,480.9,411z"/>
	<path class="st0" d="M517.4,464.5H15.2c-8.4,0-15.2-6.8-15.2-15.2v-8.7c0-8.4,6.8-15.2,15.2-15.2h502.2c8.4,0,15.2,6.8,15.2,15.2
		v8.7C532.5,457.7,525.7,464.5,517.4,464.5z"/>
	<path class="st0" d="M114.2,160.5H70.7c-5.4,0-9.7-4.4-9.7-9.7v0c0-5.4,4.4-9.7,9.7-9.7h43.5c5.4,0,9.7,4.4,9.7,9.7v0
		C123.9,156.1,119.6,160.5,114.2,160.5z"/>
	<path class="st0" d="M114.2,362.2H70.7c-5.4,0-9.7-4.4-9.7-9.7l0,0c0-5.4,4.4-9.7,9.7-9.7h43.5c5.4,0,9.7,4.4,9.7,9.7l0,0
		C123.9,357.9,119.6,362.2,114.2,362.2z"/>
	<path class="st0" d="M232.6,160.5h-43.5c-5.4,0-9.7-4.4-9.7-9.7v0c0-5.4,4.4-9.7,9.7-9.7h43.5c5.4,0,9.7,4.4,9.7,9.7v0
		C242.3,156.1,237.9,160.5,232.6,160.5z"/>
	<path class="st0" d="M232.6,362.2h-43.5c-5.4,0-9.7-4.4-9.7-9.7l0,0c0-5.4,4.4-9.7,9.7-9.7h43.5c5.4,0,9.7,4.4,9.7,9.7l0,0
		C242.3,357.9,237.9,362.2,232.6,362.2z"/>
	<path class="st0" d="M349.5,160.5H306c-5.4,0-9.7-4.4-9.7-9.7v0c0-5.4,4.4-9.7,9.7-9.7h43.5c5.4,0,9.7,4.4,9.7,9.7v0
		C359.2,156.1,354.9,160.5,349.5,160.5z"/>
	<path class="st0" d="M349.5,362.2H306c-5.4,0-9.7-4.4-9.7-9.7l0,0c0-5.4,4.4-9.7,9.7-9.7h43.5c5.4,0,9.7,4.4,9.7,9.7l0,0
		C359.2,357.9,354.9,362.2,349.5,362.2z"/>
	<path class="st0" d="M468.5,160.5H425c-5.4,0-9.7-4.4-9.7-9.7v0c0-5.4,4.4-9.7,9.7-9.7h43.5c5.4,0,9.7,4.4,9.7,9.7v0
		C478.2,156.1,473.8,160.5,468.5,160.5z"/>
	<path class="st0" d="M468.5,362.2H425c-5.4,0-9.7-4.4-9.7-9.7l0,0c0-5.4,4.4-9.7,9.7-9.7h43.5c5.4,0,9.7,4.4,9.7,9.7l0,0
		C478.2,357.9,473.8,362.2,468.5,362.2z"/>
</g>
</svg>
