<!-- Generator: Adobe Illustrator 20.1.0, SVG Export Plug-In  -->
<svg version="1.1"
	 xmlns="http://www.w3.org/2000/svg" xmlns:xlink="http://www.w3.org/1999/xlink" xmlns:a="http://ns.adobe.com/AdobeSVGViewerExtensions/3.0/"
	 x="0px" y="0px" width="133.1px" height="179.7px" viewBox="0 0 133.1 179.7" style="enable-background:new 0 0 133.1 179.7;"
	 xml:space="preserve">
<style type="text/css">
	.st0{fill:#B5CAC2;}
	.st1{fill:#312D2A;}
	.st2{fill:#85A89F;}
	.st3{fill:#57897C;}
	.st4{fill:#FFFFFF;}
	.st5{fill:none;stroke:#85A89F;stroke-width:2;stroke-miterlimit:10;}
</style>
<defs>
</defs>
<g>
	<path class="st0" d="M24.5,108.7h-8.3c0,0-38.6,45.7,3.7,49.2S24.5,108.7,24.5,108.7z M19.9,122.2c-5.7,0.3,0-12.1,0-12.1
		S25.6,122,19.9,122.2z"/>
	<circle class="st1" cx="21.1" cy="102.6" r="7.6"/>
	<circle class="st1" cx="123.9" cy="103.6" r="7.6"/>
	<path class="st2" d="M47.7,161.4H70c2.6-18.6-1.8-40.5,3.6-39.9c4.1,0.4,0.1,22,5.3,39.9h21.4c2.9-20.3,4.3-39.7,0-55.3
		c0,0-49.2-6.6-53.6,1.8S43.3,129,47.7,161.4z"/>
	<path class="st3" d="M43.7,114.6c-2.2-20.4-0.8-44.2-0.8-44.2l-13.5,34.5l-16.6-4.6c0,0,17-40.3,23.3-56.4c1.1-2.7,4.1-4.5,7.5-4.5
		l18.8-8l10.2,17.9L84,31.5l14.9,7c3.8,0,7.6,1.8,8.8,4.8l23.8,57.1l-15.8,4.7L103,70.4c0,0,4.5,28.2-0.8,44.7L43.7,114.6z"/>
	<path class="st0" d="M62.5,31.4l-7.9,4.5l7.9,1.3l-7.9,2.2l18.1,9.3c1.1,0.5,2.8-0.1,2.3-0.8L62.5,31.4z"/>
	<polygon class="st0" points="83.1,31.4 90.7,38.3 83.1,40.3 90.7,43.7 54.6,60.8 	"/>
	<rect x="82.8" y="93.4" class="st0" width="14.1" height="16.2"/>
	<rect x="49.5" y="93.4" class="st0" width="14.1" height="16.2"/>
	<polygon class="st0" points="31.3,105.3 11.2,99.9 14.3,92.2 34.3,97.7 	"/>
	<polygon class="st0" points="133.1,100.8 114.5,106 111.5,98.3 130,93.2 	"/>
	<path class="st1" d="M45.8,155.7h25.4l-0.1,24.1H33.4c-0.7-6.5,1.1-9.4,14.4-9.2L45.8,155.7z"/>
	<path class="st1" d="M102.4,155.7H77.1l0.1,24.1h37.6c0.7-6.5-1.8-9-15.1-8.7L102.4,155.7z"/>
	<ellipse class="st0" cx="58.1" cy="67" rx="1.5" ry="1.2"/>
	<ellipse class="st0" cx="58.1" cy="78.5" rx="1.5" ry="1.2"/>
	<ellipse class="st0" cx="58.1" cy="89.9" rx="1.5" ry="1.2"/>
	<g>
		<circle class="st1" cx="72.4" cy="26.8" r="18.3"/>
		<path class="st4" d="M77.7,36.6c-0.5-1.1-0.5-2.3-6.7-2c-3.2-0.3-5.5,0.4-7.1,2c-3.9-0.3-7.1-1.7-9.9-3.9
			c-4.5,21.8,4.2,35.2,17.1,33.4c18.8,2,24.9-15.4,19.6-33.4C86.4,34.8,82.1,36.2,77.7,36.6z M65.7,39c2.6,0.5,5-0.1,5.3-1.1
			c0.1,1.1,2.4,1.2,5.3,0.9C71.8,39.7,69.2,39.7,65.7,39z"/>
		<path class="st2" d="M93.6,12.5c0-3.2-5.9-7.3-10.5-7.1c-4.2,0-7.6,2.2-11.2,2.3c-3.6,0.1-4.8-1.8-10-2.3s-11.2,1.6-11.2,7
			c0,0.7,0,21.7,0,21.7c0,1.7,0.5,2.9,2,3c0.9,0.1,2.2-0.7,2.2-1.6l0-12c0-0.1,0.1-0.1,0.1-0.1l34.7-0.1c0.1,0,0.1,0.1,0.1,0.1
			l0,9.3c0.1,3.6,0.6,4.4,1.6,4.4c1.7,0,2.1-0.5,2.1-4S93.5,26.8,93.6,12.5z"/>
		<path class="st4" d="M87.9,24.2H56.7c-1.2,0-2.1-1-2.1-2.1v-0.8c0-1.2,1-2.1,2.1-2.1h31.2c1.2,0,2.1,1,2.1,2.1v0.8
			C90,23.2,89,24.2,87.9,24.2z"/>
		<path class="st5" d="M71.6,4.8c-0.4-1.7-1.7-3.7-2.8-3.5c-1.1,0.2-2,2.2-1.6,3.9c0.5,2,2.6,3.1,4.3,3.2c3.3,0.2,6.7-3.3,6.1-5.4
			c-0.3-1.2-2-2.3-3.2-2c-2.5,0.7-2.9,7.2-3,7.1C71.4,8.2,72,6.6,71.6,4.8z"/>
	</g>
</g>
</svg>
