<!-- Generator: Adobe Illustrator 20.1.0, SVG Export Plug-In  -->
<svg version="1.1"
	 xmlns="http://www.w3.org/2000/svg" xmlns:xlink="http://www.w3.org/1999/xlink" xmlns:a="http://ns.adobe.com/AdobeSVGViewerExtensions/3.0/"
	 x="0px" y="0px" width="104.3px" height="203.8px" viewBox="0 0 104.3 203.8" style="enable-background:new 0 0 104.3 203.8;"
	 xml:space="preserve">
<style type="text/css">
	.st0{fill:#312D2A;}
	.st1{fill:#DCDBDB;}
	.st2{fill:#B5CAC2;}
	.st3{fill:#57897C;}
	.st4{fill:#85A89F;}
	.st5{fill:none;stroke:#B5CAC2;stroke-miterlimit:10;}
	.st6{opacity:0.2;fill:#FFFFFF;}
</style>
<defs>
</defs>
<g>
	<g>
		<path class="st0" d="M29.9,72.3l-14.7,42.2c-3.2,9.9-18.3,5.7-14.6-4.9c5.5-18.9,14.9-40.2,20.5-57.3c0.9-2.8,3.6-4.8,6.6-4.8
			l36.7,0l14.4,0c3.4,0,6.7,1.9,7.7,5.1l17.3,56.9c3.1,8.8-10.5,13.2-13.9,5l-13-42.3l-0.8,126.6c0,2.8-1.2,5-4,5h-9.7
			c-2.5,0-4.6-2-4.6-4.6v-69.9c0-1.9-1.6-3.5-3.5-3.5h0c-1.9,0-3.5,1.6-3.5,3.5v69.3c0,2.8-2.3,5.1-5.1,5.1H35.3
			c-3.1,0-4.6-2.5-4.6-5.6L29.9,72.3z"/>
		<path class="st1" d="M54.4,125.9"/>
		<circle class="st0" cx="53" cy="20.9" r="18.8"/>
	</g>
</g>
<rect x="30.2" y="190.9" transform="matrix(-1 -1.812417e-03 1.812417e-03 -1 80.7335 387.9238)" class="st2" width="20.7" height="6"/>
<rect x="57.8" y="190.9" transform="matrix(-1 -1.812418e-03 1.812418e-03 -1 133.8412 387.9707)" class="st2" width="18.6" height="6"/>
<path class="st3" d="M87.7,54.3c-2.8-6.8-7.2-7.6-7.2-7.6s-6.8,0-18.8,0c-0.1,0,0.1-2.6,0-2.6c-2.9,0-15.2,0-18.1,0
	c-0.1,0,0,2.6-0.1,2.6c-11.9,0-17.7,0-18.1,0c-2.8,0.1-5,2.8-5,2.8C10.1,70.1,3.8,85,2.8,103.3l15,4.5c6.4-9.1,9.5-16.1,12.2-31.2
	c-2,14.5-3,28,0,38h47.1c2.7-9.6,1.9-22.7,0-37.1c2.1,15.7,5,21.6,10.4,29.6l14.5-3.9C103.6,99.7,89,57.4,87.7,54.3z"/>
<path class="st4" d="M29.9,113.9c-2.4,30.7-4.2,57.2-0.5,75.7c0.3,1.3,1.5,2.3,2.8,2.3l17.5,0c1.6,0,2.9-1.3,2.9-2.9l0-58.5
	c0-2.4,3.5-2.3,3.5,0V189c0,1.6,1.3,2.9,2.9,2.9l15.8,0c1.4,0,2.6-1,2.8-2.3c2.9-15.6,1-44.8-0.5-75.7H29.9z"/>
<rect x="1.4" y="104.5" transform="matrix(-0.94 -0.3412 0.3412 -0.94 -18.3133 211.8171)" class="st2" width="16.1" height="6"/>
<rect x="87.8" y="104.7" transform="matrix(-0.9656 0.2599 -0.2599 -0.9656 215.5343 186.9385)" class="st2" width="15.1" height="6"/>
<line class="st5" x1="52" y1="113.9" x2="52.3" y2="44"/>
<g>
	<path class="st2" d="M61.8,64.7c0.1,0.1,0.2,0.2,0.2,0.4h8.3c0.1-0.1,0.1-0.2,0.2-0.4H61.8z"/>
	<path class="st2" d="M62.3,65.5c0.1,0.1,0.2,0.2,0.3,0.3h7.2c0.1-0.1,0.2-0.2,0.2-0.3H62.3z"/>
	<path class="st2" d="M70.7,64.4c0.4-0.8,0.5-1.6,0.4-2.4c-1.4,0.1-2.8,1.2-3.5,2.4H70.7z"/>
	<path class="st2" d="M67.5,64.4c0.2-1.6-0.2-3.2-1.3-3.8c-1,0.7-1.4,2.3-1.3,3.8H67.5z"/>
	<path class="st2" d="M66.9,66.1c0,0.4,0,0.7,0,1c0.9,0.1,1.8-0.3,2.5-1H66.9z"/>
	<path class="st2" d="M65.4,66.1c0.2,0.4,0.5,0.8,0.8,1.1c0.3-0.3,0.6-0.7,0.8-1.1H65.4z"/>
	<path class="st2" d="M63,66.1c0.7,0.6,1.5,1,2.4,1.1c0-0.3,0-0.7,0-1.1H63z"/>
	<path class="st2" d="M64.7,64.4c-0.8-1.5-2.2-2.6-3.5-2.4c-0.2,0.7,0,1.6,0.4,2.4H64.7z"/>
</g>
<g>
	<path class="st5" d="M3.8,103.4c2.4-20.2,9.9-35.6,17.3-51.1c0,0,1.2-3.6,4.5-3.6s17.5,0,17.5,0"/>
	<path class="st5" d="M5.6,104.7C8,84.8,15,69.6,22.1,54.4c0,0,1.2-3.6,4.3-3.6c3.1,0,16.7,0,16.7,0"/>
</g>
<g>
	<path class="st5" d="M101.2,103.4c-5.5-20.1-9.5-34.8-17.3-51.1c0,0-1.2-3.6-4.5-3.6s-17.5,0-17.5,0"/>
	<path class="st5" d="M99.3,104.7c-5.2-19.8-9-34.3-16.5-50.3c0,0-1.2-3.6-4.3-3.6c-3.1,0-16.7,0-16.7,0"/>
</g>
<g>
	<polygon class="st2" points="34,20.4 42.8,19.2 42,22.4 34,21.5 	"/>
	<polygon class="st2" points="73,20.5 63.5,19.3 64.4,22.5 73,21.6 	"/>
	<path class="st2" d="M47.8,26.8h-1.9c-2.2,0-4.1-1.8-4.1-4.1v-1.6c0-1.2,1-2.2,2.2-2.2h4.8c1.7,0,3.2,1.4,3.2,3.2v0.6
		C51.9,24.9,50.1,26.8,47.8,26.8z"/>
	<path class="st2" d="M58.8,26.8h1.9c2.2,0,4.1-1.8,4.1-4.1v-1.6c0-1.2-1-2.2-2.2-2.2h-4.8c-1.7,0-3.2,1.4-3.2,3.2v0.6
		C54.7,24.9,56.5,26.8,58.8,26.8z"/>
	<path class="st2" d="M57,22.1h-8.6c-0.3,0-0.6-0.3-0.6-0.6v-1.2c0-0.3,0.3-0.6,0.6-0.6H57c0.3,0,0.6,0.3,0.6,0.6v1.2
		C57.7,21.9,57.4,22.1,57,22.1z"/>
</g>
<path class="st5" d="M31.7,114.9c-2.3,26.8-5.2,53.9,0,77.2"/>
<path class="st5" d="M33.7,114.9c-2.3,26.7-5.2,54.1,0,77.2"/>
<path class="st5" d="M75.2,114.9c2.3,26.8,5.2,53.9,0,77.2"/>
<path class="st5" d="M73.2,114.9c2.3,26.7,5.2,54.1,0,77.2"/>
<polygon class="st6" points="48,18.9 44,26.3 45.7,26.8 49.5,18.9 "/>
<polygon class="st6" points="61,18.9 57,26.3 58.7,26.8 62.5,18.9 "/>
<path class="st3" d="M34.2,17.3h38.5c0,0,0.1-17.3-18.9-17.3S34.2,17.3,34.2,17.3z"/>
<path class="st3" d="M23.4,8.1l13.9,0c-0.5,1.2,1.2,4.5,4.5,9.3C41.9,17.3,23.2,21.6,23.4,8.1z"/>
</svg>
