<!-- Generator: Adobe Illustrator 22.1.0, SVG Export Plug-In  -->
<svg version="1.1"
	 xmlns="http://www.w3.org/2000/svg" xmlns:xlink="http://www.w3.org/1999/xlink" xmlns:a="http://ns.adobe.com/AdobeSVGViewerExtensions/3.0/"
	 x="0px" y="0px" width="19.1px" height="27.8px" viewBox="0 0 19.1 27.8" style="enable-background:new 0 0 19.1 27.8;"
	 xml:space="preserve">
<style type="text/css">
	.st0{fill:#323232;}
</style>
<defs>
</defs>
<path class="st0" d="M16.9,17.6c-1,0.2-1.6,1.3-2.8,0.1c-1.2-1.1-0.4-2.5,0.2-3.4c0.6-0.9,1.3-2.6-1.5-3.3c1,0.9,0.1,1.8-0.3,2
	c-1.5,0.8-2.3-0.2-2.2-1.5c0.1-1.3,1.4-1.8,1.8-3.3c0.4-1.5-0.3-3.9-1.7-4.6C10.7,5.8,8.9,5,9,4c0.1-1,0.2-2.1-0.5-3.1
	C7.9-0.2,5.7-0.5,4.5,1c2.3-0.7,2.9,0.5,2.7,1.9C7,5.3,4.8,4.7,4.9,7.4c0.1,1.7,1.5,2.8,0.9,4.3c-0.5,1.1-2.2,0.9-2.2-0.6
	c0-1.4-1.1-2.5-2.6-2.7c2.8,3.8-1.3,7.6-1,11.3c0.4,3.7,3.8,6.5,7.1,8.2h0.6c-1.2-1.4-2.2-3.1-2.2-5.1c-0.1-2.7,2.9-4.1,2.9-5.7
	c0-1.6-1-3.1-1.6-3.2c1.3,0,2.4,0.7,3.1,1.7c0.6,0.9,1,2.1,0.7,3.1c-0.4,1.5,1.4,2.3,1.8,0.5c0.1-0.4,0.1-1.1-0.4-1.6
	c1.7,0.9,2,2.9,1.5,5.1c-0.3,1.6-1.8,3.5-2.4,5.1h1c1.3-4.5,5.9-4.9,6.8-6.9C19.8,19.1,17.9,17.5,16.9,17.6z"/>
</svg>
