<!-- Generator: Adobe Illustrator 22.1.0, SVG Export Plug-In  -->
<svg version="1.1"
	 xmlns="http://www.w3.org/2000/svg" xmlns:xlink="http://www.w3.org/1999/xlink" xmlns:a="http://ns.adobe.com/AdobeSVGViewerExtensions/3.0/"
	 x="0px" y="0px" width="75px" height="48px" viewBox="0 0 75 48" style="enable-background:new 0 0 75 48;" xml:space="preserve">
<style type="text/css">
	.st0{fill:#323232;}
</style>
<defs>
</defs>
<g>
	<g>
		<path class="st0" d="M15.6,1.8c-6.4,3.8-11.5,9.9-14,17.5s-2,15.5,0.8,22.4c0.5,1.2,1,2.3,1.7,3.4c0.2,0.3,0.6,0.4,0.8,0.1
			l2.9-2.9l8.4-8.4l5.7-3.3l-6.3-2.1l2.8-8.4l6.3,2.1l-2.7-6L20.3,4.5l-0.6-4C19.7,0.1,19.3-0.1,19,0C17.8,0.6,16.7,1.1,15.6,1.8z
			 M13.6,30.6L6,38.1c-1.1-3.3-1.6-6.9-1.4-10.5l8.1,1.5L13.6,30.6z M14.6,21.3l-1.4,4.2l-8.4,0c0.2-1.6,0.6-3.1,1.1-4.7
			c0.5-1.6,1.2-3.1,1.9-4.4L14.6,21.3z M18,17.3L16.4,18L9,14.4c2-3,4.5-5.6,7.4-7.6L18,17.3z"/>
	</g>
	<rect x="16.3" y="24" transform="matrix(0.3138 -0.9495 0.9495 0.3138 -10.0639 37.2917)" class="st0" width="8.9" height="3.2"/>
	<path class="st0" d="M22,30.7l13.8,4.6c0.5-0.4,1.1-0.6,1.7-0.6c1.3,0,2.4,0.9,2.8,2.1l23,7.6l2.8-8.4L24.7,22.2L22,30.7z
		 M74.4,38.7l-2.7-0.9l-2.8,8.4l2.7,0.9c0.5,0.2,1-0.1,1.1-0.6l2.2-6.8C75.1,39.3,74.9,38.8,74.4,38.7z"/>
	<path class="st0" d="M66.5,48l-2.2-0.7c-0.5-0.2-0.8-0.8-0.7-1.3l3.7-11.1c0.2-0.5,0.8-0.8,1.3-0.7l2.2,0.7
		c0.5,0.2,0.8,0.8,0.7,1.3l-3.7,11.1C67.6,47.9,67,48.2,66.5,48z"/>
</g>
<path class="st0" d="M40,37.6c0,1.4-1.1,2.5-2.5,2.5c-1.4,0-2.5-1.1-2.5-2.5s1.1-2.5,2.5-2.5C38.9,35.2,40,36.3,40,37.6z"/>
</svg>
