<!-- Generator: Adobe Illustrator 22.1.0, SVG Export Plug-In  -->
<svg version="1.1"
	 xmlns="http://www.w3.org/2000/svg" xmlns:xlink="http://www.w3.org/1999/xlink" xmlns:a="http://ns.adobe.com/AdobeSVGViewerExtensions/3.0/"
	 x="0px" y="0px" width="48.5px" height="67.1px" viewBox="0 0 48.5 67.1" style="enable-background:new 0 0 48.5 67.1;"
	 xml:space="preserve">
<style type="text/css">
	.st0{fill:#323232;}
</style>
<defs>
</defs>
<path class="st0" d="M21.6,55.1v8.5H27v-8.5l-2.7-1.9L21.6,55.1z M21.6,47.2l2.7,1.8l2.7-1.8v-4.4h-5.4V47.2z M21.6,0v4.7H27V0H21.6
	z M21.6,25.8l2.7,2.1l2.7-2.1v-1.6h-5.4V25.8z M21.6,18.7V21H27v-2.3l-2.7-2.7L21.6,18.7z M21.6,34.1v5H27v-5L24.3,32L21.6,34.1z"/>
<g>
	<g>
		<g>
			<polygon class="st0" points="16.9,22.1 15.3,21.8 28.3,9 29.7,9.3 			"/>
			<polygon class="st0" points="31.7,22.1 18.8,9.3 20.3,9 33.2,21.8 			"/>
			<polygon class="st0" points="36.5,40.3 15,23.6 16.5,23.1 38.1,39.7 			"/>
			<polygon class="st0" points="12,40.3 10.4,39.7 32.1,23.1 33.6,23.6 			"/>
			<polygon class="st0" points="43.1,65.1 9.9,42.3 11.5,41.5 44.8,64 			"/>
			<polygon class="st0" points="5.5,65.1 3.8,64 37,41.5 38.6,42.3 			"/>
		</g>
		<g>
			<polygon class="st0" points="15.7,23.3 32.8,23.3 32.4,21.9 16.1,21.9 			"/>
			<polygon class="st0" points="10.7,41.9 37.8,41.9 37.3,40 11.2,40 			"/>
		</g>
	</g>
	<path class="st0" d="M48.5,67.1H0L17.3,8.1h13.9L48.5,67.1z M4.6,64.6h39.3L29,9.2h-9.5L4.6,64.6z"/>
</g>
<path class="st0" d="M34.1,10.6H14.5c-1,0-1.9-0.8-1.9-1.9V7.6c0-1,0.8-1.9,1.9-1.9h19.6c1,0,1.9,0.8,1.9,1.9v1.1
	C36,9.7,35.1,10.6,34.1,10.6z"/>
</svg>
