<!-- Generator: Adobe Illustrator 22.1.0, SVG Export Plug-In  -->
<svg version="1.1"
	 xmlns="http://www.w3.org/2000/svg" xmlns:xlink="http://www.w3.org/1999/xlink" xmlns:a="http://ns.adobe.com/AdobeSVGViewerExtensions/3.0/"
	 x="0px" y="0px" width="114.6px" height="55.4px" viewBox="0 0 114.6 55.4" style="enable-background:new 0 0 114.6 55.4;"
	 xml:space="preserve">
<style type="text/css">
	.st0{fill:#323232;}
</style>
<defs>
</defs>
<g>
	<g>
		<polygon class="st0" points="96.9,30.1 92.6,30.2 93.9,3.8 95.6,3.8 		"/>
		<g>
			<rect x="89.9" y="15.6" class="st0" width="9.6" height="1.1"/>
			<path class="st0" d="M90.1,15.8c-0.1,0-0.2-0.1-0.2-0.2v-2.1c0-0.1,0.1-0.2,0.2-0.2c0.1,0,0.2,0.1,0.2,0.2v2.1
				C90.3,15.7,90.2,15.8,90.1,15.8z"/>
			<path class="st0" d="M92.1,15.8c-0.1,0-0.2-0.1-0.2-0.2v-2.1c0-0.1,0.1-0.2,0.2-0.2c0.1,0,0.2,0.1,0.2,0.2v2.1
				C92.3,15.7,92.2,15.8,92.1,15.8z"/>
			<path class="st0" d="M97.4,15.8c-0.1,0-0.2-0.1-0.2-0.2v-2.1c0-0.1,0.1-0.2,0.2-0.2c0.1,0,0.2,0.1,0.2,0.2v2.1
				C97.6,15.7,97.5,15.8,97.4,15.8z"/>
			<path class="st0" d="M99.3,15.8c-0.1,0-0.2-0.1-0.2-0.2v-2.1c0-0.1,0.1-0.2,0.2-0.2s0.2,0.1,0.2,0.2v2.1
				C99.5,15.7,99.4,15.8,99.3,15.8z"/>
			<path class="st0" d="M99.3,13.7h-9.2c-0.1,0-0.2-0.1-0.2-0.2c0-0.1,0.1-0.2,0.2-0.2h9.2c0.1,0,0.2,0.1,0.2,0.2
				C99.5,13.6,99.4,13.7,99.3,13.7z"/>
		</g>
		<g>
			<g>
				<rect x="91" y="9.1" class="st0" width="7.5" height="0.8"/>
				<path class="st0" d="M91.1,9.3c-0.1,0-0.2-0.1-0.2-0.2V7.5c0-0.1,0.1-0.2,0.2-0.2c0.1,0,0.2,0.1,0.2,0.2v1.6
					C91.3,9.2,91.2,9.3,91.1,9.3z"/>
				<path class="st0" d="M92.6,9.3c-0.1,0-0.2-0.1-0.2-0.2V7.5c0-0.1,0.1-0.2,0.2-0.2c0.1,0,0.2,0.1,0.2,0.2v1.6
					C92.8,9.2,92.7,9.3,92.6,9.3z"/>
				<path class="st0" d="M96.8,9.3c-0.1,0-0.2-0.1-0.2-0.2V7.5c0-0.1,0.1-0.2,0.2-0.2c0.1,0,0.2,0.1,0.2,0.2v1.6
					C97,9.2,96.9,9.3,96.8,9.3z"/>
				<path class="st0" d="M98.3,9.3c-0.1,0-0.2-0.1-0.2-0.2V7.5c0-0.1,0.1-0.2,0.2-0.2c0.1,0,0.2,0.1,0.2,0.2v1.6
					C98.5,9.2,98.4,9.3,98.3,9.3z"/>
				<path class="st0" d="M98.3,7.6h-7.2c-0.1,0-0.2-0.1-0.2-0.2c0-0.1,0.1-0.2,0.2-0.2h7.2c0.1,0,0.2,0.1,0.2,0.2
					C98.5,7.6,98.4,7.6,98.3,7.6z"/>
			</g>
			<g>
				
					<rect x="92.8" y="9.1" transform="matrix(0.6879 -0.7258 0.7258 0.6879 21.2637 70.7975)" class="st0" width="0.4" height="3.1"/>
				
					<rect x="95" y="10.5" transform="matrix(0.7258 -0.6879 0.6879 0.7258 19.1195 69.3066)" class="st0" width="3.1" height="0.4"/>
			</g>
		</g>
		<path class="st0" d="M93.9,0v2.3h1.7V0H93.9z M95.1,1.8h-0.8V0.5h0.8V1.8z"/>
		<rect x="93.9" y="1.6" class="st0" width="0.4" height="2.2"/>
		<rect x="95.1" y="1.6" class="st0" width="0.4" height="2.2"/>
	</g>
	<g>
		<path class="st0" d="M10.8,55.4c2,0.1,83.8-0.1,86.7,0c-2.9-2.8-3.3-5.4-2.3-7.8H1.1C3.5,51.4,8.1,54.2,10.8,55.4z"/>
		<path class="st0" d="M82.1,30.5l-9.8,7.8H0.2c-0.2,2-0.4,6,0.4,8.2h95.1c1.1-2.1,3.2-4.1,5.4-6.1c5.2-4.7,12.6-6.8,13.5-11.3
			L82.1,30.5z M14.7,44.6c0,0.6-0.5,1-1,1h-1V44H13c0.2,0,0.4-0.2,0.4-0.5v-0.2c0-0.2-0.2-0.5-0.4-0.5h-2.7c-0.2,0-0.4,0.2-0.4,0.5
			v0.2c0,0.2,0.2,0.5,0.4,0.5h0.4v1.7H7.8V44h0.4c0.2,0,0.5-0.2,0.5-0.5v-0.2c0-0.2-0.2-0.5-0.5-0.5H5.5C5.2,42.8,5,43,5,43.3v0.2
			C5,43.8,5.2,44,5.5,44h0.4v1.7H4.7c-0.6,0-1-0.5-1-1v-2.5c0-0.6,0.5-1,1-1h8.9c0.6,0,1,0.5,1,1V44.6z M83.9,34.8
			c0,0.3-0.3,0.6-0.6,0.6h-1c-0.3,0-0.6-0.3-0.6-0.6v-0.1c0-0.3,0.3-0.6,0.6-0.6h1c0.3,0,0.6,0.3,0.6,0.6V34.8z M87.7,34.8
			c0,0.3-0.3,0.6-0.6,0.6h-1c-0.3,0-0.6-0.3-0.6-0.6v-0.1c0-0.3,0.3-0.6,0.6-0.6h1c0.3,0,0.6,0.3,0.6,0.6V34.8z M91.6,34.8
			c0,0.3-0.3,0.6-0.6,0.6h-1c-0.3,0-0.6-0.3-0.6-0.6v-0.1c0-0.3,0.3-0.6,0.6-0.6h1c0.3,0,0.6,0.3,0.6,0.6V34.8z M100.6,35.1
			c-0.1,0.1-0.2,0.1-0.3,0.2c0,0,0,0.1,0,0.1c0,0,0,0,0,0c0,0,0,0,0,0c-0.2,0.7-0.6,1.3-1,1.9h1.2v0.3H100l-1.1,0.8h-3.8l-1.1-0.8
			h-0.4v-0.3h1.2c-0.5-0.5-0.8-1.2-1-1.9l0,0c0,0,0,0,0,0c0,0,0-0.1,0-0.1c-0.1,0-0.2-0.1-0.3-0.2c-0.1-0.6,0-1.4,0.3-1.9
			c0.5,0.2,1.1,0.8,1.3,1.4c0,0.1-0.1,0.2-0.2,0.3c0,0,0,0.1,0,0.1c0.3,0.9,0.9,1.8,1.7,2.2v-3.6c0.1-0.1,0.3-0.2,0.5-0.2
			c0.2,0,0.4,0.1,0.5,0.2v3.6h0c0.8-0.4,1.4-1.3,1.7-2.2c0,0,0-0.1,0-0.1c-0.1-0.1-0.2-0.2-0.2-0.3c0.2-0.5,0.8-1.1,1.3-1.4
			C100.6,33.7,100.7,34.5,100.6,35.1z M97,33.3c-0.5,0-0.9,0.4-0.9,0.9c0,0.2,0.1,0.5,0.2,0.6v0.6c-0.4-0.2-0.7-0.7-0.7-1.2
			c0-0.8,0.6-1.4,1.4-1.4c0.8,0,1.4,0.6,1.4,1.4c0,0.5-0.3,1-0.7,1.2v-0.6c0.2-0.2,0.3-0.4,0.3-0.6C97.9,33.7,97.5,33.3,97,33.3z
			 M82.3,31.9l-9.8,7.8H0.4c0-0.5,0.1-0.8,0.1-1.2h71.9l9.9-7.8l32-1.3c-0.1,0.4-0.3,0.8-0.6,1.2L82.3,31.9z"/>
	</g>
	<g>
		<path class="st0" d="M20.9,5.9v5.4h7.7l4-4.3V5.9H20.9z M28.1,10.3H22V7h9.2L28.1,10.3z"/>
		<g>
			<rect x="22.4" y="2.2" class="st0" width="1.1" height="3.3"/>
			<polygon class="st0" points="25.3,2.4 23.5,2.8 22.4,2.8 20.6,2.4 20.6,1.8 25.3,1.8 			"/>
		</g>
		<g>
			<circle class="st0" cx="17.8" cy="2.5" r="2.3"/>
			<rect x="16.4" y="4" class="st0" width="2.8" height="1.5"/>
		</g>
		<g>
			<rect x="23.1" y="6.4" class="st0" width="1.3" height="4.6"/>
			<polygon class="st0" points="26.7,11.1 25.4,11.1 27.2,6.2 28.4,6.6 			"/>
		</g>
		<path class="st0" d="M8.5,35.6h2.8V34H8.5V35.6z M8.5,26.8h2.8v-1.2H8.5V26.8z M8.5,33.4h2.8v-1.6H8.5V33.4z M8.5,31.2h2.8v-1.6
			H8.5V31.2z M21.8,32.1l-4.5-6.5h-5.5v11.8h20.7v-5.3H21.8z M3.7,37.4h4.1V25.6H3.7V37.4z M8.5,29h2.8v-1.6H8.5V29z M8.5,37.4h2.8
			v-1.2H8.5V37.4z"/>
		<path class="st0" d="M16.4,5.9v5.4h4.5V5.9H16.4z M19.4,10.2c0,0.3-0.3,0.6-0.6,0.6h-0.3c-0.3,0-0.6-0.3-0.6-0.6V9.8
			c0-0.3,0.3-0.6,0.6-0.6h0.3c0.3,0,0.6,0.3,0.6,0.6V10.2z M19.4,7.7c0,0.3-0.3,0.6-0.6,0.6h-0.3C18.2,8.3,18,8,18,7.7V7.4
			c0-0.3,0.3-0.6,0.6-0.6h0.3c0.3,0,0.6,0.3,0.6,0.6V7.7z"/>
		<path class="st0" d="M16.9,21.9h11.6v-4.1h-7.9L16.9,21.9z M25.6,19.2c0-0.3,0.2-0.5,0.5-0.5h0.4c0.3,0,0.5,0.2,0.5,0.5v1.4
			c0,0.3-0.2,0.5-0.5,0.5h-0.4c-0.3,0-0.5-0.2-0.5-0.5V19.2z M21.6,19.2c0-0.3,0.2-0.5,0.5-0.5h0.4c0.3,0,0.5,0.2,0.5,0.5v1.4
			c0,0.3-0.2,0.5-0.5,0.5h-0.4c-0.3,0-0.5-0.2-0.5-0.5V19.2z M13.8,24.9H18l4.5,6.5h6.1v-8.7H13.8V24.9z M21.6,24.2
			c0-0.3,0.2-0.5,0.5-0.5h0.4c0.3,0,0.5,0.2,0.5,0.5v1.4c0,0.3-0.2,0.5-0.5,0.5h-0.4c-0.3,0-0.5-0.2-0.5-0.5V24.2z M25.6,24.2
			c0-0.3,0.2-0.5,0.5-0.5h0.4c0.3,0,0.5,0.2,0.5,0.5v1.4c0,0.3-0.2,0.5-0.5,0.5h-0.4c-0.3,0-0.5-0.2-0.5-0.5V24.2z M20.1,12.1h-6.3
			v4.8h1.9L20.1,12.1z M21.4,12.1l-4.4,4.8h11.6v-4.8H21.4z M23.1,15.7c0,0.3-0.2,0.5-0.5,0.5h-0.4c-0.3,0-0.5-0.2-0.5-0.5v-1.4
			c0-0.3,0.2-0.5,0.5-0.5h0.4c0.3,0,0.5,0.2,0.5,0.5V15.7z M27.1,15.7c0,0.3-0.2,0.5-0.5,0.5h-0.4c-0.3,0-0.5-0.2-0.5-0.5v-1.4
			c0-0.3,0.2-0.5,0.5-0.5h0.4c0.3,0,0.5,0.2,0.5,0.5V15.7z M19.4,17.8h-3.2l0,0l0,0h-2.4v4.1h1.9L19.4,17.8z"/>
	</g>
	<g>
		<rect x="36" y="29.9" class="st0" width="35.5" height="2.5"/>
		<path class="st0" d="M54.2,37.5h5.3v-4.3h-5.3V37.5z M66.6,33.2v4.3h2.9v-4.3H66.6z M60.4,37.5h5.3v-4.3h-5.3V37.5z M48,37.5h5.3
			v-4.3H48V37.5z M38.1,37.5h2.9v-4.3h-2.9V37.5z M41.8,37.5h5.3v-4.3h-5.3V37.5z"/>
	</g>
</g>
</svg>
