<!-- Generator: Adobe Illustrator 22.1.0, SVG Export Plug-In  -->
<svg version="1.1"
	 xmlns="http://www.w3.org/2000/svg" xmlns:xlink="http://www.w3.org/1999/xlink" xmlns:a="http://ns.adobe.com/AdobeSVGViewerExtensions/3.0/"
	 x="0px" y="0px" width="86.7px" height="47.2px" viewBox="0 0 86.7 47.2" style="enable-background:new 0 0 86.7 47.2;"
	 xml:space="preserve">
<style type="text/css">
	.st0{fill:#323232;}
</style>
<defs>
</defs>
<rect y="46.1" class="st0" width="86.7" height="1"/>
<path class="st0" d="M79.3,36.9H65.9c-1.9,0-3.4-1.5-3.4-3.4v-7.9c0-1.9,1.5-3.4,3.4-3.4h13.4c1.9,0,3.4,1.5,3.4,3.4v7.9
	C82.7,35.3,81.1,36.9,79.3,36.9z"/>
<g>
	<rect x="71.2" y="36.9" class="st0" width="2.8" height="9.3"/>
	<polygon class="st0" points="63.8,46.1 61.1,46.1 65.4,36.9 68.2,36.9 	"/>
	<polygon class="st0" points="81.3,46.1 84.1,46.1 79.7,36.9 77,36.9 	"/>
</g>
<path class="st0" d="M1.6,34.9h8c0.2,0,0.3,0.2,0.3,0.3v3.6H1.2v-3.6C1.2,35.1,1.4,34.9,1.6,34.9z"/>
<g>
	<rect x="2.9" y="39.7" class="st0" width="5.3" height="6.4"/>
	<g>
		<path class="st0" d="M11,40.8H8.2v1.7H11C10.9,41.9,10.9,41.4,11,40.8z"/>
		<path class="st0" d="M18.8,40.8c0.1,0.6,0.1,1.1,0,1.7h1.6v-1.7H18.8z"/>
	</g>
	<path class="st0" d="M21,43h-0.7v-2.7H21c0.2,0,0.3,0.1,0.3,0.3v2.1C21.4,42.9,21.2,43,21,43z"/>
	<g>
		<polygon class="st0" points="14.2,41.6 14.9,40.9 13.1,39.3 12.7,39.7 		"/>
		<polygon class="st0" points="14.9,40.9 15.6,41.7 17.3,39.9 16.9,39.4 		"/>
		<polygon class="st0" points="15.6,41.7 14.9,42.4 16.7,44 17.1,43.6 		"/>
		<polygon class="st0" points="14.9,42.4 14.2,41.6 12.5,43.4 12.9,43.9 		"/>
	</g>
	<g>
		<path class="st0" d="M12.4,44c1.3,1.4,3.5,1.5,4.9,0.2c1.4-1.3,1.5-3.5,0.2-4.9c-1.3-1.4-3.5-1.5-4.9-0.2
			C11.1,40.4,11.1,42.6,12.4,44z M13,43.4c-1-1.1-0.9-2.7,0.2-3.7c1.1-1,2.7-0.9,3.7,0.2c1,1.1,0.9,2.7-0.2,3.7
			C15.6,44.6,13.9,44.5,13,43.4z"/>
	</g>
	<path class="st0" d="M14,42.4c0.4,0.5,1.2,0.5,1.6,0.1c0.5-0.4,0.5-1.2,0.1-1.6c-0.4-0.5-1.2-0.5-1.6-0.1
		C13.6,41.2,13.6,42,14,42.4z"/>
</g>
<path class="st0" d="M46.9,0h-1.8c-0.4,1.1-1.5,2-2.8,2c-1.3,0-2.4-0.8-2.8-2h-1.8L25.3,46.1h2.9L39.9,2.8h4.9l11.7,43.4h2.9L46.9,0
	z"/>
<g>
	
		<rect x="43.2" y="24.1" transform="matrix(0.4899 -0.8718 0.8718 0.4899 -11.2659 58.201)" class="st0" width="1.8" height="29.2"/>
	<rect x="26" y="37.8" transform="matrix(0.8716 -0.4903 0.4903 0.8716 -13.771 24.8845)" class="st0" width="29.2" height="1.8"/>
</g>
</svg>
