<!-- Generator: Adobe Illustrator 22.1.0, SVG Export Plug-In  -->
<svg version="1.1"
	 xmlns="http://www.w3.org/2000/svg" xmlns:xlink="http://www.w3.org/1999/xlink" xmlns:a="http://ns.adobe.com/AdobeSVGViewerExtensions/3.0/"
	 x="0px" y="0px" width="316.3px" height="124.3px" viewBox="0 0 316.3 124.3" style="enable-background:new 0 0 316.3 124.3;"
	 xml:space="preserve">
<style type="text/css">
	.st0{fill:#878583;}
</style>
<defs>
</defs>
<g>
	<path class="st0" d="M240.9,46.3l-49.5-44c-1.7-1.3-2.1-1.7-3-2c-0.7-0.2-1.5-0.3-2.3-0.3L93.4,0c-0.1,0-0.2,0-0.3,0
		c-3,0.8-3.1,1.6-4.4,2.5L41.5,46c-1,1.6-2.7,2.5-4.5,2.5l-30.7,0C3.4,48.6,1,51,1,53.9L0,99c0,2.9,2.4,5.3,5.3,5.3h25.1
		c3,0,5.5-2.5,5.5-5.5v-0.1c0-17.3,14-31.3,31.3-31.3s31.3,14,31.3,31.3v0.1c0,3,2.5,5.5,5.5,5.5h84.3c3,0,5.5-2.5,5.5-5.5v-0.1
		c0-17.3,14-31.3,31.3-31.3s31.3,14,31.3,31.3v0.1c0,3,2.5,5.5,5.5,5.5H311c2.9,0,5.3-2.4,5.3-5.3V82.8c0-0.9-0.1-1.8-0.4-2.6
		c-4.9-13.4-10.5-16.8-22.4-21.6l-48.2-10C243.2,48.2,242.4,47.7,240.9,46.3z M137.4,48.6l-64.9,0c-4,0-6.5-4.2-4.7-7.7l26.7-24.3
		c2-1.6,3.3-2.9,4.7-2.9h38.2c2.9,0,5.3,2.4,5.3,5.3v24.3C142.6,46.2,140.3,48.6,137.4,48.6z M153.9,43.3V19c0-2.9,2.4-5.3,5.3-5.3
		h25.3c2.3,0.6,3,0.9,4.6,2.8l27.6,24.3c1.9,3.5-0.6,7.8-4.6,7.8h-52.9C156.3,48.6,153.9,46.2,153.9,43.3z"/>
	<path class="st0" d="M67.1,73.2c-14.1,0-25.5,11.4-25.5,25.5s11.4,25.5,25.5,25.5c14.1,0,25.5-11.4,25.5-25.5S81.3,73.2,67.1,73.2z
		 M66.6,109.5c-6.2,0-11.3-5-11.3-11.3S60.3,87,66.6,87s11.3,5,11.3,11.3S72.8,109.5,66.6,109.5z"/>
	<path class="st0" d="M225,73.2c-14.1,0-25.5,11.4-25.5,25.5s11.4,25.5,25.5,25.5s25.5-11.4,25.5-25.5S239.1,73.2,225,73.2z
		 M225,109.5c-6.2,0-11.3-5-11.3-11.3S218.7,87,225,87s11.3,5,11.3,11.3S231.2,109.5,225,109.5z"/>
</g>
</svg>
