<!-- Generator: Adobe Illustrator 22.0.1, SVG Export Plug-In  -->
<svg version="1.1"
	 xmlns="http://www.w3.org/2000/svg" xmlns:xlink="http://www.w3.org/1999/xlink" xmlns:a="http://ns.adobe.com/AdobeSVGViewerExtensions/3.0/"
	 x="0px" y="0px" width="149px" height="395.7px" viewBox="0 0 149 395.7" style="enable-background:new 0 0 149 395.7;"
	 xml:space="preserve">
<style type="text/css">
	.st0{fill:#EDA87A;}
	.st1{fill:#FABE8C;}
	.st2{fill:url(#SVGID_1_);}
	.st3{fill:url(#SVGID_2_);}
	.st4{fill:#562918;}
	.st5{fill:#7A4726;}
	.st6{fill:#F9BD8C;}
	.st7{fill:url(#SVGID_3_);}
	.st8{fill:url(#SVGID_4_);}
	.st9{fill:url(#SVGID_5_);}
	.st10{fill:#722916;}
	.st11{fill:#FFFFFF;}
	.st12{fill:#2E1710;}
	.st13{fill:#1A2230;}
	.st14{fill:#211011;}
	.st15{fill:#0C436B;}
	.st16{fill:#0E3759;}
	.st17{fill:#09324C;}
	.st18{fill:url(#SVGID_6_);}
	.st19{fill:#E28A76;}
	.st20{fill:url(#SVGID_7_);}
	.st21{fill:url(#SVGID_8_);}
	.st22{fill:url(#SVGID_9_);}
	.st23{fill:#0D3759;}
	.st24{fill:#BDE5EF;}
	.st25{fill:#DEF1F7;}
	.st26{fill:#85A9A0;}
	.st27{fill:url(#SVGID_10_);}
	.st28{fill:#07446B;}
	.st29{fill:#054E77;}
	.st30{fill:#D14937;}
	.st31{fill:url(#SVGID_11_);}
	.st32{fill:url(#SVGID_12_);}
	.st33{fill:url(#SVGID_13_);}
	.st34{fill:url(#SVGID_14_);}
	.st35{fill:url(#SVGID_15_);}
	.st36{fill:url(#SVGID_16_);}
	.st37{fill:url(#SVGID_17_);}
	.st38{fill:url(#SVGID_18_);}
	.st39{fill:url(#SVGID_19_);}
	.st40{fill:url(#SVGID_20_);}
	.st41{fill:url(#SVGID_21_);}
	.st42{fill:url(#SVGID_22_);}
</style>
<defs>
</defs>
<g>
	<g>
		<path class="st0" d="M74.4,154.2c0.3,7.3-27.4,7.1-27.5-0.1c0-2.5,0.6-11.7,0.1-14.2c-1.4-7.1,28.4-7.1,27.5,0.1
			C74.1,142.9,74.3,151.6,74.4,154.2z"/>
		<path class="st1" d="M87.1,26.8L61,31l-26.1-4.4L22.5,41.8c0,0,0.5,35.5,2.7,60.6c2.3,25.4,9.5,33.4,13.1,36.1
			c6.7,4.9,21.3,4.6,22.2,4.6c0.9,0,15.5,0.5,22.2-4.4c3.6-2.6,10.9-10.5,13.4-35.9c2.5-25.1,3.3-60.6,3.3-60.6L87.1,26.8z"/>
		
			<linearGradient id="SVGID_1_" gradientUnits="userSpaceOnUse" x1="101.0131" y1="48.903" x2="27.6667" y2="48.903" gradientTransform="matrix(1 4.700000e-03 -4.700000e-03 1 -2.8007 -3.447)">
			<stop  offset="0" style="stop-color:#F19C7C"/>
			<stop  offset="0.3924" style="stop-color:#F4A781"/>
			<stop  offset="0.936" style="stop-color:#FABE8C"/>
		</linearGradient>
		<path class="st2" d="M25,37.1l-0.4,19c21.8-9.7,61.4-1.3,70.9-10.3c1.3-1.3,2.9-7.7,2.4-9.8c-0.4-2.1-19.7,2-23.4,2
			c-3.7,0-30.3,0.6-33.7-0.2C37.4,37,25,37.1,25,37.1z"/>
		
			<linearGradient id="SVGID_2_" gradientUnits="userSpaceOnUse" x1="95.8414" y1="48.4308" x2="97.6305" y2="73.4502" gradientTransform="matrix(1 4.700000e-03 -4.700000e-03 1 -2.8007 -3.447)">
			<stop  offset="0" style="stop-color:#F19C7C"/>
			<stop  offset="0.3924" style="stop-color:#F4A781"/>
			<stop  offset="0.936" style="stop-color:#FABE8C"/>
		</linearGradient>
		<path class="st3" d="M99.1,39.4C99,39.1,83.1,49.8,87,49.3c1-0.1,2.5-0.6,2.9,2.7c0.4,3.3,0.6,4.5,1.3,7.7
			c0.8,3.6,2.2,7.7,3.2,9.1c1,1.4,3.2,2.5,4.3,1.9c1.1-0.6,1.3-5,0.5-9.3c-0.9-4.8-1.4-7-1.5-10.9C97.7,46.8,99.1,39.4,99.1,39.4z"
			/>
		<path class="st4" d="M19.7,22.1c-8.4,3.8-11.5,9.7-11.9,16.2c-0.8,12,7.3,26.2,8.4,33.8c0.3,2,6.7,1.3,7.4-1
			c3.9-13.6,3.3-25.3,2.2-34.8C25,29.5,20.7,21.7,19.7,22.1z"/>
		<path class="st5" d="M101.3,22.4c8.4,3.8,11.4,9.7,11.8,16.3c0.8,12-7.5,26.2-8.6,33.7c-0.3,2-6.7,1.3-7.4-1
			c-3.8-13.6-3.2-25.4-2-34.9C95.9,29.7,100.2,21.9,101.3,22.4z"/>
		<path class="st4" d="M109,39.1c-1-5.5-4.2-9.9-11.2-11.8c-1.2,2.7-2.3,6-2.7,9.2c-1.1,9.5-1.8,21.2,2,34.9
			c0.2,0.6,0.8,1.2,1.6,1.5c2.1,0.7,5.1,0.6,5.1-0.8C104.3,64.5,111,50.1,109,39.1z"/>
		<g>
			<path class="st6" d="M104.2,69.3c4.4-0.3,8.9,1.9,10.3,5.7c0.9,2.5,0.6,5-0.1,7.7c-1.2,4.3-3.4,7.7-6,9.6
				c-2.9,2.1-5.2,1.9-7.4,1.3c-3.4-0.9-5.6-3.5-6.2-5.1c-1.4-3.8-0.9-9.2-0.4-13.2C94.5,74,97.6,69.8,104.2,69.3z"/>
			
				<linearGradient id="SVGID_3_" gradientUnits="userSpaceOnUse" x1="100.2935" y1="84.063" x2="112.3642" y2="84.063" gradientTransform="matrix(1 4.700000e-03 -4.700000e-03 1 -2.8007 -3.447)">
				<stop  offset="0.1945" style="stop-color:#FABE8C"/>
				<stop  offset="1" style="stop-color:#F48655"/>
			</linearGradient>
			<path class="st7" d="M98.7,75.4c1.3-1.9,4.9-2,7.2-0.8c2.3,1.3,3.5,4.3,3.2,7.5c-0.3,2.8-2.8,5.1-5.5,6c-2,0.7-4.2,0.4-5.4-1.4
				c-1-1.6-1.2-4.1-1.2-5.3C97.1,79.4,97.6,77.1,98.7,75.4z"/>
		</g>
		<g>
			<path class="st6" d="M15.8,68.9c-4.4-0.3-8.9,1.8-10.3,5.6c-0.9,2.5-0.7,5,0.1,7.7c1.2,4.3,3.3,7.7,5.9,9.7
				c2.9,2.2,5.1,2,7.4,1.4c3.4-0.9,5.7-3.5,6.3-5c1.4-3.8,0.9-9.2,0.5-13.2C25.4,73.7,22.3,69.4,15.8,68.9z"/>
			
				<linearGradient id="SVGID_4_" gradientUnits="userSpaceOnUse" x1="525.0924" y1="83.3712" x2="537.1631" y2="83.3712" gradientTransform="matrix(-1 -4.700000e-03 -4.700000e-03 1 548.2504 -0.1689)">
				<stop  offset="0.1945" style="stop-color:#FABE8C"/>
				<stop  offset="1" style="stop-color:#F48655"/>
			</linearGradient>
			<path class="st8" d="M21.2,75c-1.3-1.9-4.9-2.1-7.2-0.8c-2.4,1.3-3.6,4.3-3.3,7.4c0.3,2.8,2.7,5.1,5.4,6.1c2,0.7,4.2,0.5,5.4-1.3
				c1-1.6,1.3-4,1.3-5.3C22.8,79,22.3,76.7,21.2,75z"/>
		</g>
		<path class="st4" d="M29.5,9.6c-16.3,7.1-15.1,28.8,3.2,33.8c12.5,3.4,43.6,3.7,57-3C113.6,28.6,101.4,4.2,99.6,5
			c-0.9,0.4-2.9,5.4-9.6,7c-2.6,0.6-5.4,0.8-7.6,0.9C67,13.5,41.9,4.2,29.5,9.6z"/>
		<path class="st5" d="M29.2,8.7c-5.6,2.4-9.5,6.5-10.6,11.2c-1.3,5.2,0.6,11.2,2.1,14c2.1,3.9,3.4,4.7,4,4.6
			c0.9-0.1-0.9-6.4,1.7-12.3c2-4.5,9.2-8.8,19.7-9.2c11.4-0.4,25.2,3.1,37.2,1.2c6.5-1,10.6-4,11.5-8.7c1.2-6.2-3.7-9.6-4.3-9.5
			c-0.2,0.1-0.6,1.2-1.5,2.2C85,6.5,74.8,8,71.1,8C55.8,8.3,41.6,3.2,29.2,8.7z"/>
		
			<linearGradient id="SVGID_5_" gradientUnits="userSpaceOnUse" x1="63.4363" y1="94.137" x2="63.4363" y2="46.392" gradientTransform="matrix(1 4.700000e-03 -4.700000e-03 1 -2.8007 -3.447)">
			<stop  offset="0.1945" style="stop-color:#FABE8C"/>
			<stop  offset="1" style="stop-color:#E0713F"/>
		</linearGradient>
		<path class="st9" d="M89.9,65.1c-5-5.1-13.9-7.2-24.9-7.7c-1.3,0-3.8,11.3-3.8,11.3l-3.9-0.1c0,0-0.4-11.3-1.9-11.2
			c-10.7,0.4-19.8,2.4-24.7,7.4c-2.5,2.5-3.2,5-3.2,8.1c0,7,0,13.1,3.8,16.2c6.5,5.4,16.1,0.8,28.3,0.8c0.2,0,0.4,0,0.6,0
			c0.2,0,0.4,0,0.6,0C73,90,82.6,94.7,89.1,89.4c3.8-3.1,3.9-9.2,4-16.2C93.1,70.1,92.4,67.6,89.9,65.1z"/>
		<path class="st10" d="M54.6,59.4c-3,0.5-7.1,1.2-10.9,2.1c-3.3,0.8-6.3,1.8-8.4,2.4c-0.7,0.2-2.1,0.8-2.4,0.3
			c-0.1-0.1-0.1-0.3-0.2-0.4c-0.1-0.7,0.1-1.9,0.6-2.5c0.4-0.7,1.5-1.2,2.2-1.5c4.5-2.1,12.9-4.5,17.5-5.4c0.3-0.1,0.9-0.1,1.5,0.5
			c0.6,0.7,1.7,2.2,1.8,3.1C56.4,58.8,55.5,59.3,54.6,59.4z"/>
		<path class="st10" d="M65.6,59.4c3,0.6,7.1,1.3,10.9,2.3c3.3,0.9,6.3,1.9,8.3,2.5c0.7,0.2,2.1,0.9,2.4,0.3
			c0.1-0.1,0.1-0.3,0.2-0.4c0.1-0.7-0.1-1.9-0.5-2.5c-0.4-0.8-1.5-1.3-2.2-1.5c-4.5-2.1-12.8-4.7-17.4-5.6c-0.3-0.1-0.9-0.1-1.5,0.5
			c-0.7,0.7-1.8,2.1-1.9,3.1C63.8,58.7,64.7,59.2,65.6,59.4z"/>
		<path class="st11" d="M50.5,75.9c0,3.4-2.4,6.1-5.2,6.1c-2.9,0-5.2-2.8-5.2-6.1c0-3.4,2.4-6.1,5.2-6.1
			C48.2,69.8,50.6,72.5,50.5,75.9z"/>
		<path class="st11" d="M68,76c0,3.4,2.3,6.1,5.2,6.1c2.9,0,5.2-2.7,5.2-6.1s-2.3-6.1-5.2-6.1C70.4,69.9,68,72.6,68,76z"/>
		<path class="st12" d="M75.4,74.7c0,1.1-0.9,2.1-2.1,2.1s-2.1-0.9-2.1-2.1c0-1.1,0.9-2.1,2.1-2.1C74.5,72.6,75.4,73.5,75.4,74.7z"
			/>
		<path class="st12" d="M47.5,74.4c0,1.1-0.9,2.1-2.1,2.1c-1.1,0-2.1-0.9-2.1-2.1c0-1.1,0.9-2.1,2.1-2.1
			C46.6,72.3,47.5,73.2,47.5,74.4z"/>
	</g>
	<g>
		<g>
			<path class="st13" d="M75.8,378.2c-0.4,0.1-2.6,4.8-3.3,8.4c-0.3,1.6-0.5,3.2-0.5,4.7c0,0.7,0.2,1.1,0.6,1.3
				c5.1,3,39.8,4.3,46,0.2c0.2-0.1,0.7-0.5,0.8-0.8c0.2-0.8,0-1.8-0.7-2.9c-2.2-3.3-18-10.6-22.4-11.3
				C92.2,377.3,78.3,377.3,75.8,378.2z"/>
			<path class="st14" d="M119.1,390c-0.2,0.2-0.5,0.3-0.6,0.4c-6.2,4.1-40.9,2.8-46-0.2c-0.2-0.1-0.4-0.3-0.5-0.4
				c-0.1,0.5-0.2,1.2-0.1,1.9c0.1,0.7,0.3,1.1,0.7,1.3c5.1,3,39.8,4.3,46,0.2c0.2-0.1,0.6-0.5,0.8-0.8
				C119.6,391.8,119.6,390.9,119.1,390z"/>
		</g>
		<g>
			<path class="st13" d="M62,378.2c0.4,0.1,2.6,4.8,3.3,8.4c0.3,1.6,0.5,3.2,0.5,4.7c0,0.7-0.2,1.1-0.6,1.3c-5.1,3-39.8,4.3-46,0.2
				c-0.2-0.1-0.7-0.5-0.8-0.8c-0.2-0.8,0-1.8,0.7-2.9c2.2-3.3,18-10.6,22.4-11.3C45.6,377.3,59.6,377.3,62,378.2z"/>
			<path class="st14" d="M18.7,390c0.2,0.2,0.5,0.3,0.6,0.4c6.2,4.1,40.9,2.8,46-0.2c0.2-0.1,0.4-0.3,0.5-0.4
				c0.1,0.5,0.2,1.2,0.1,1.9c-0.1,0.7-0.3,1.1-0.7,1.3c-5.1,3-39.8,4.3-46,0.2c-0.2-0.1-0.6-0.5-0.8-0.8
				C18.3,391.8,18.2,390.9,18.7,390z"/>
		</g>
		<path class="st15" d="M107.6,236.7c0,0-14.8,6.4-19.8,7.9c-10.8,3.1-16.2,5.4-19,7.2c-2.8-1.8-6.3,26.7,0,26.7
			c6.6,0,11.8-1.8,11.8-1.8S78.1,297,76,326c-1.9,26.1-2.4,44.4-2.6,50.3c0,1.1,0.2,1.2,0.5,1.3c1.5,0.7,5.9,2.4,13.1,2.4
			c6.7,0,10.5-1,12.1-1.5c0.5-0.2,0.7-0.7,0.7-1.3c-0.1-5.3-0.2-29.5,0.8-54.7c1-25,6.2-69.6,6.4-72.5
			C107.5,243.9,107.6,236.7,107.6,236.7z"/>
		<path class="st16" d="M71.4,252.3c-2.8-1.8-10.8-4.6-21.6-7.7c-5-1.4-20.1-1.6-20.1-1.6s6,45.9,7.3,79.4c1,25.2,0.9,49.4,0.8,54.7
			c0,0.7,0.2,1.2,0.7,1.3c1.5,0.5,5.4,1.5,12.1,1.5c7.1,0,11.6-1.7,13.1-2.4c0.4-0.2,0.6-0.2,0.5-1.3c-0.2-5.9-0.8-24.2-2.6-50.3
			c-2.1-29-4.6-49.3-4.6-49.3s5.5,1.8,11.8,1.8C73.9,278.7,75.1,254.4,71.4,252.3z"/>
		<path class="st17" d="M78.8,293.4c0,0,3.8,1.8,11.7,1.3c7.4-0.5,12.3-3,12.3-3c1.8-20.3,4.1-39.8,4.2-41.7
			c0.5-6,0.6-13.2,0.6-13.2s-14.8,6.4-19.8,7.9c-10.8,3.1-16.2,5.4-19,7.2c-2.8-1.8-6.3,26.7,0,26.7c6.6,0,11.8-1.8,11.8-1.8
			S79.8,282.9,78.8,293.4z"/>
		<path class="st17" d="M58.8,292.8c-1-10.1-1.7-16-1.7-16s5.5,1.8,11.8,1.8c5.1,0.1,6.3-24.2,2.6-26.3c-2.8-1.8-10.8-4.6-21.6-7.7
			c-5-1.4-20.1-1.6-20.1-1.6s3.2,24.2,5.4,50.3c0,0,5.6,1.9,12,1.8C55.1,295.1,58.8,292.8,58.8,292.8z"/>
	</g>
	
		<linearGradient id="SVGID_6_" gradientUnits="userSpaceOnUse" x1="14.8036" y1="260.3814" x2="41.0803" y2="260.3814" gradientTransform="matrix(0.9991 -4.230000e-02 4.230000e-02 0.9991 -6.9296 11.0236)">
		<stop  offset="0.1718" style="stop-color:#FFBE8C"/>
		<stop  offset="0.8808" style="stop-color:#F2B791"/>
	</linearGradient>
	<path class="st18" d="M33.3,258.6c0,0,12.3-0.4,11.7,9.5c-0.5,6.8-1.5,10-3.1,12c-1,1.2-4.9,1.8-11.6-2.2
		c-6.8-4.1-11.6-13.5-11.8-15.1C18.4,261.2,33.3,258.6,33.3,258.6z"/>
	<path class="st17" d="M35,291.3c-0.2-1.5-1.4-5.7-3.2-8.8c-1.9-3.2-3.6-5.2-3.8-6.2c3.6-0.5,5.5-7.1,5.3-11.7
		c-0.2-5.4,10.3,0.3,12.2,5.6c1.3,3.4,0.8,11.4-1.2,13.8C40.8,288.1,35.3,293.9,35,291.3z"/>
	<g>
		<g>
			<path class="st19" d="M138.3,280.1c-2,1.1-4,2.2-4.6,3.7c-0.6,1.6-0.1,3.4,0.9,4c2.1,1.3,4.5-2.3,4.5-4
				C139.2,282,138.3,280.1,138.3,280.1z"/>
			<path class="st19" d="M135,285.4c-2,1.1-4,2.2-4.6,3.7c-0.6,1.6-0.1,3.4,0.9,4c2.1,1.3,4.5-2.3,4.5-4
				C135.8,287.3,135,285.4,135,285.4z"/>
			
				<linearGradient id="SVGID_7_" gradientUnits="userSpaceOnUse" x1="7465.2642" y1="2816.4531" x2="7489.6504" y2="2816.4531" gradientTransform="matrix(-0.3775 0.926 -0.926 -0.3775 5569.1055 -5589.7354)">
				<stop  offset="0.1718" style="stop-color:#FFBE8C"/>
				<stop  offset="0.8808" style="stop-color:#F2B791"/>
			</linearGradient>
			<path class="st20" d="M146.1,279.9c5-3,2.4-12.9-0.7-17.1c-6.7-9-11.2-9.1-12.6-8.5c-1.4,0.6,5.2,15.7,5.7,17.6
				S143.8,281.3,146.1,279.9z"/>
			<path class="st19" d="M143.8,275.5l2.4,4.3c0,0,0.7-0.3,1-0.9c-0.6-5.4-4.8-8-5.2-8.1c-0.6-0.2-1.1-0.1-1.1-0.1L143.8,275.5z"/>
			
				<linearGradient id="SVGID_8_" gradientUnits="userSpaceOnUse" x1="7476.7866" y1="2821.3384" x2="7486.8594" y2="2806.199" gradientTransform="matrix(-0.3775 0.926 -0.926 -0.3775 5569.1055 -5589.7354)">
				<stop  offset="0.1718" style="stop-color:#FFBE8C"/>
				<stop  offset="0.8808" style="stop-color:#F2B791"/>
			</linearGradient>
			<path class="st21" d="M141.7,290.4c4-1.7,8.6-11.7,1.1-18.7c-1.1-1-2.8-2.3-4.2,0.2C137.2,274.4,141.7,290.4,141.7,290.4z"/>
			<path class="st19" d="M141.3,283.5l1.2,6.5c0,0,0.8-0.5,0.9-0.8c1.5-6.8-2.3-11.5-2.7-11.8c-0.6-0.5-1-0.6-1-0.6L141.3,283.5z"/>
			
				<linearGradient id="SVGID_9_" gradientUnits="userSpaceOnUse" x1="7468.1562" y1="2831.3416" x2="7506.3613" y2="2808.769" gradientTransform="matrix(-0.3775 0.926 -0.926 -0.3775 5569.1055 -5589.7354)">
				<stop  offset="0.1718" style="stop-color:#FFBE8C"/>
				<stop  offset="0.8808" style="stop-color:#F2B791"/>
			</linearGradient>
			<path class="st22" d="M129.5,254.3c-1.2,0.6-5.5,1.5-10.1,12.9c-4.3,10.6,0.5,15.9,1.1,20.7c0.4,3.2,2.8,3.5,4.8,2
				c1.4-1.1,2.8-4.6,2.5-7.3c-0.3-2.6-1.8-6.2-1.8-6.2s2.5-0.2,5.8,1.9c1.7,1.1,3.4,7.1,2.8,8.8c-0.9,2.7-3,3.9-6.2,5.4
				c-3.2,1.6-2.8,4.9-2.1,6.1c0.7,1.2,2.9,2.9,7.6,1.5c4.6-1.4,7.8-5.2,8.6-8.6c2.5-9.7-2.9-14.6-2.7-15.1
				c0.2-0.5,3.6-11.3,2.3-14.2C140.8,259,134.1,252.2,129.5,254.3z"/>
		</g>
		<g>
			<path class="st23" d="M84.3,161.4c1.9-3.9,4.9-3.3,6.7-2.5c0.9,0.4,19.5,8,36.9,40.5c12.2,22.7,16.7,51.9,16.2,60.4
				c-0.2,3.5-6,4.5-9.7,4.8c-6.1,0.5-12.2,0-12.8-1.9c-1.4-4.6,1.9-27.8-9.6-55c-7.4-17.4-24.2-32.6-26.1-35.4
				C82.9,167.8,82.8,164.6,84.3,161.4z"/>
		</g>
	</g>
	<g>
		<path class="st24" d="M102.7,223c-2.4-21.6-6.9-56.1-14.6-64.6c-3.6-4-19.8-3.7-25.9-3.3c0,0,0,0,0,0c-0.1,0-0.6,0-0.8,0.1
			c0,0,0,0,0,0c-6.2,0.4-22.3,1.3-25.4,5.7c-6.5,9.4-6.3,45.4-5.8,67.2c0.1,6.1,0.6,11.2,1.5,14.4c3.6,12.2,69.5,7.6,71.4-5
			C103.7,234.2,103.4,229.1,102.7,223z"/>
		<g>
			<path class="st25" d="M43.9,157.6l13.1,2.7c0.2,0,0.4-0.1,0.5-0.3l3-10.9c0.1-0.3-0.1-0.6-0.3-0.6l-13.9-2
				c-0.2,0-0.4,0.1-0.4,0.4L43.6,157C43.5,157.3,43.7,157.5,43.9,157.6z"/>
			<path class="st25" d="M79.7,155.2l-11.9,4.5c-0.2,0.1-0.4-0.1-0.5-0.3L63.2,149c-0.1-0.2,0-0.5,0.2-0.6l11.4-3.6
				c0.2-0.1,0.4,0.1,0.5,0.3l4.6,9.4C80,154.8,79.9,155.1,79.7,155.2z"/>
		</g>
		<g>
			<path class="st26" d="M76.2,210.2c-2.7-16.9-7.1-36.7-9.9-48.1c-0.2-0.9-2.1-0.9-3.7-0.7c-1.6,0.1-3.5,0.3-3.6,1.2
				c-1.2,11.7-3,31.8-3.5,49c0,0.3,0.1,1.3,0.2,1.6c1.5,3.3,7.7,10.2,10,12.3c0.2,0.2,0.7,0.4,1.1,0.4c0.3,0,0.7-0.3,0.9-0.5
				c2-2.4,7.3-10.1,8.3-13.5C76.3,211.5,76.3,210.5,76.2,210.2z"/>
			<linearGradient id="SVGID_10_" gradientUnits="userSpaceOnUse" x1="62.2676" y1="162.5714" x2="62.2676" y2="149.0667">
				<stop  offset="0" style="stop-color:#57897C"/>
				<stop  offset="1" style="stop-color:#85A9A0"/>
			</linearGradient>
			<path class="st27" d="M65.2,149.5c-0.2-0.3-0.6-0.5-1-0.4l-1.1,0.1c0,0,0,0,0,0l-1.3,0.1l-1.3,0.1c0,0,0,0,0,0l-1.1,0.1
				c-0.4,0-0.8,0.2-0.9,0.6c0,0-3.5,4.7-2.8,6.8c0.8,2.4,2.9,5.9,4.7,5.8l0.5,0l3.7-0.2l0.5,0c1.8-0.1,3.4-3.9,3.9-6.4
				C69.4,153.7,65.2,149.5,65.2,149.5z"/>
		</g>
	</g>
	<g>
		<path class="st23" d="M43.6,156c-1.5,0.3-7.2,2.1-10.7,6.2c-1.5,1.8-6.3,17.9-7.4,50.4c-0.7,19.1,0.9,31.8-2,38.6
			c-0.9,2.2,7.1,11,10.2,14.6c5.7,6.5,4.1,22.4,5.8,22.7c18.3,1.9,25.6-4.1,26.1-4.7c0.9-1.2,4.4-7.5,4.3-14.8
			c-0.2-19.9-3.2-57.2-3.6-60.1C65.9,204.9,43.6,156,43.6,156z"/>
		<path class="st28" d="M82.3,154.7c1.5,0.2,7.3,1.6,11.1,5.5c1.6,1.7,7.8,26.8,10.9,49.7c2.5,19,5.4,36.6,7.3,47.8
			c0.4,2.3,4,12.6,5.7,16.1c1,2.1-11.4,6.9-25.7,9.3c-18.2,3.1-22.7,1-23.2,0.4c-1-1-4.5-6.6-5.3-13.5c-1.8-14.7-2.9-41.1-1.8-53.3
			c0.1-1,1.5-7.1,1.7-7.8c0.8-3.3,4.9-20,9.9-33.6C77.1,163.8,82.3,154.7,82.3,154.7z"/>
		<path class="st28" d="M31.7,238.3c7.1,1,16.5,1.6,23.4,1.2c1.3-0.1,0.3,9.8-0.2,12.7c-0.5,2.7-2.1,8.8-11.4,8.2
			c-6.6-0.5-11.9-2.6-12.7-8.4C30.2,248.1,30.7,238.2,31.7,238.3z"/>
		<path class="st23" d="M99,236c-7,1.5-16.4,2.7-23.2,2.8c-1.3,0,0.4,9.8,1.1,12.7c0.6,2.7,2.7,8.6,12,7.4
			c6.5-0.9,11.7-3.4,12.1-9.3C101.1,245.7,99.9,235.8,99,236z"/>
		<g>
			<path class="st23" d="M69.6,244.6c0,1.4-1.1,2.7-2.5,2.7c-1.4,0-2.7-1.1-2.7-2.5c0-1.4,1.1-2.7,2.5-2.7
				C68.3,242,69.5,243.1,69.6,244.6z"/>
			<path class="st23" d="M69.7,229.2c0,1.4-1.1,2.7-2.5,2.7c-1.4,0-2.7-1.1-2.7-2.5c0-1.4,1.1-2.7,2.5-2.7
				C68.5,226.6,69.7,227.7,69.7,229.2z"/>
		</g>
		<path class="st23" d="M42.5,161.1c-3-3.1-5.3-2-7.2-0.9c-0.9,0.5-29.5,16.9-34.6,49.2c-3.4,21.5,7.6,51.7,17,64
			c2.1,2.8,7.3-0.8,10.4-2.9c5.1-3.4,9.5-7.6,8.7-9.5c-1.8-4.5-18.8-24.4-17.1-49.7c1.5-22.3,23.1-38.5,24.3-41.6
			C45.4,166.1,44.9,163.6,42.5,161.1z"/>
		<path class="st28" d="M37.6,158.5c0.9-1.2,4.5-3,6-3c0.7,0,8.1,11.9,11.8,20.9c7.5,18.1,10.3,29,10.3,30.3
			c0,0.8-23.8-21.8-23.8-22.6c0.2-2,9.7-7.1,9.6-7.4c-0.1-0.4-7.4,0.6-9.3-0.7C41.4,175.6,36.7,159.8,37.6,158.5z"/>
		<path class="st23" d="M88,157.1c-1-1.1-2.1-1.7-3.6-1.6c-0.7,0.1-10.2,13.1-13.3,22.3c-6.2,18.6-9.9,37.3-9.7,38.6
			c0.1,0.8,24.3-30.6,24.2-31.4c-0.3-2-11.9-8.4-11.8-8.6c0.1-0.4,8.7,0.6,10.6-0.7C85.2,175.2,89.1,158.4,88,157.1z"/>
		<path class="st29" d="M86.8,156c-1-1.1-4.7-2.7-6.2-2.6c-0.7,0.1-7.5,13.3-10.6,22.5c-4.8,14.3-9,40.8-8.8,40.9
			c0.1,0.1,23-33.4,22.8-34.1c-0.3-2-10.1-6.4-10.1-6.7c0.1-0.4,7.4,0.1,9.3-1.3C84,174.2,87.9,157.2,86.8,156z"/>
	</g>
	<g>
		<path class="st4" d="M97.3,71c-0.8-0.3-0.4,22.1-12,32.5c-4.9,4.4-15.8,6.3-25,6.3c-9.2,0-20.1-1.9-25-6.3
			C23.6,93.1,24,70.7,23.2,71c-1.4,0.6-1.3,51,8.9,67.3c5.7,9.1,16.4,12.1,28.2,12.1c12.7,0,22.4-3,28.2-12.1
			C98.6,122,98.7,71.6,97.3,71z"/>
		<path class="st30" d="M60.2,112.9c-4.5,0-12.7,0.5-12.3,0.9c2.5,2.1,6.3,5.1,12.4,5.1c7.1,0,9.6-3,12.1-5.1
			C72.9,113.3,64.2,112.9,60.2,112.9z"/>
		<g>
			<path class="st5" d="M60.5,103.8c-5.2-3-16.6,5.1-28.3,0.5c0.1,2.2,0.4,8.8,9.7,12.5c4.4,1.8,15.2,1.3,18.9-1.8
				C65,111.6,63.3,105.4,60.5,103.8z"/>
			<path class="st5" d="M61,103.8c5.2-3,16.6,5.1,28.3,0.5c-0.1,2.2-0.4,8.8-9.7,12.5c-4.4,1.8-15.2,1.3-18.9-1.8
				C56.6,111.6,58.2,105.4,61,103.8z"/>
		</g>
		
			<linearGradient id="SVGID_11_" gradientUnits="userSpaceOnUse" x1="65.7075" y1="108.2995" x2="65.3311" y2="70.7418" gradientTransform="matrix(1 4.700000e-03 -4.700000e-03 1 -2.8007 -3.447)">
			<stop  offset="0" style="stop-color:#F07A4A"/>
			<stop  offset="0.2436" style="stop-color:#F28555"/>
			<stop  offset="0.6734" style="stop-color:#F6A372"/>
			<stop  offset="1" style="stop-color:#FABE8C"/>
		</linearGradient>
		<path class="st31" d="M61.3,68.1c0.1,7.3-0.7,14.7,1,21.8c1.2,5.1,6.7,7.8,6.7,10.9c0,2.6-4.7,4.5-8.5,4.9
			c-0.9,0.1-2.9,0.3-4.2-3.8c-0.9-2.6-0.3-24.3,1.2-33.8C57.6,67.1,61.3,67.2,61.3,68.1z"/>
	</g>
</g>
</svg>
