<!-- Generator: Adobe Illustrator 22.1.0, SVG Export Plug-In  -->
<svg version="1.1"
	 xmlns="http://www.w3.org/2000/svg" xmlns:xlink="http://www.w3.org/1999/xlink" xmlns:a="http://ns.adobe.com/AdobeSVGViewerExtensions/3.0/"
	 x="0px" y="0px" width="182.3px" height="182.3px" viewBox="0 0 182.3 182.3" style="enable-background:new 0 0 182.3 182.3;"
	 xml:space="preserve">
<style type="text/css">
	.st0{fill:#AC001E;}
	.st1{fill:#57897C;}
</style>
<defs>
</defs>
<g>
	<path class="st0" d="M37.9,91.1c0-29.4,23.8-53.2,53.2-53.2c0,0,0,0,0,0V0C81.1,0,72.6,1.3,63,4.5C15.1,20-11.1,71.4,4.5,119.3
		l36-11.7C38.8,102.4,37.9,96.9,37.9,91.1z"/>
	<path class="st1" d="M91.2,0v37.9c29.4,0,53.2,23.8,53.2,53.2c0,29.4-23.8,53.2-53.2,53.2c-23.6,0-43.7-15.4-50.6-36.8l-36,11.7
		c12.4,38.3,46.4,63,86.7,63c50.3,0,91.1-40.8,91.1-91.1S141.5,0,91.2,0z"/>
</g>
</svg>
