<!-- Generator: Adobe Illustrator 22.1.0, SVG Export Plug-In  -->
<svg version="1.1"
	 xmlns="http://www.w3.org/2000/svg" xmlns:xlink="http://www.w3.org/1999/xlink" xmlns:a="http://ns.adobe.com/AdobeSVGViewerExtensions/3.0/"
	 x="0px" y="0px" width="181.7px" height="181.7px" viewBox="0 0 181.7 181.7" style="enable-background:new 0 0 181.7 181.7;"
	 xml:space="preserve">
<style type="text/css">
	.st0{fill:#5C85BF;}
	.st1{fill:#264872;}
</style>
<defs>
</defs>
<g>
	<path class="st0" d="M90.7,143.9c-29.4,0-53.2-23.8-53.2-53.2s23.8-53.2,53.2-53.2c0.1,0,0.1,0,0.2,0V0C40.7,0,0,40.7,0,90.9
		c0,50.2,40.7,90.9,90.9,90.9v-37.9C90.8,143.9,90.7,143.9,90.7,143.9z"/>
	<path class="st1" d="M90.9,0v37.5c29.3,0.1,53,23.9,53,53.2s-23.7,53.1-53,53.2v37.9c50.2,0,90.9-40.7,90.9-90.9
		C181.7,40.7,141.1,0,90.9,0z"/>
</g>
</svg>
